  0
SECTION
  2
HEADER
  9
$ACADVER
  1
AC1021
  9
$ACADMAINTVER
 70
    25
  9
$DWGCODEPAGE
  3
ANSI_936
  9
$INSBASE
 10
0.0
 20
0.0
 30
0.0
  9
$EXTMIN
 10
-6.67218
 20
-10.84141
 30
0.0
  9
$EXTMAX
 10
6.72878
 20
10.84141
 30
0.0
  9
$LIMMIN
 10
0.0
 20
0.0
  9
$LIMMAX
 10
12.0
 20
9.0
  9
$ORTHOMODE
 70
     0
  9
$REGENMODE
 70
     1
  9
$FILLMODE
 70
     1
  9
$QTEXTMODE
 70
     0
  9
$MIRRTEXT
 70
     1
  9
$LTSCALE
 40
1.0
  9
$ATTMODE
 70
     1
  9
$TEXTSIZE
 40
0.2
  9
$TRACEWID
 40
0.05
  9
$TEXTSTYLE
  7
Standard
  9
$CLAYER
  8
0
  9
$CELTYPE
  6
ByLayer
  9
$CECOLOR
 62
   256
  9
$CELTSCALE
 40
1.0
  9
$DISPSILH
 70
     0
  9
$DIMSCALE
 40
1.0
  9
$DIMASZ
 40
0.18
  9
$DIMEXO
 40
0.0625
  9
$DIMDLI
 40
0.38
  9
$DIMRND
 40
0.0
  9
$DIMDLE
 40
0.0
  9
$DIMEXE
 40
0.18
  9
$DIMTP
 40
0.0
  9
$DIMTM
 40
0.0
  9
$DIMTXT
 40
0.18
  9
$DIMCEN
 40
0.09
  9
$DIMTSZ
 40
0.0
  9
$DIMTOL
 70
     0
  9
$DIMLIM
 70
     0
  9
$DIMTIH
 70
     1
  9
$DIMTOH
 70
     1
  9
$DIMSE1
 70
     0
  9
$DIMSE2
 70
     0
  9
$DIMTAD
 70
     0
  9
$DIMZIN
 70
     0
  9
$DIMBLK
  1

  9
$DIMASO
 70
     1
  9
$DIMSHO
 70
     1
  9
$DIMPOST
  1

  9
$DIMAPOST
  1

  9
$DIMALT
 70
     0
  9
$DIMALTD
 70
     2
  9
$DIMALTF
 40
25.4
  9
$DIMLFAC
 40
1.0
  9
$DIMTOFL
 70
     0
  9
$DIMTVP
 40
0.0
  9
$DIMTIX
 70
     0
  9
$DIMSOXD
 70
     0
  9
$DIMSAH
 70
     0
  9
$DIMBLK1
  1

  9
$DIMBLK2
  1

  9
$DIMSTYLE
  2
Standard
  9
$DIMCLRD
 70
     0
  9
$DIMCLRE
 70
     0
  9
$DIMCLRT
 70
     0
  9
$DIMTFAC
 40
1.0
  9
$DIMGAP
 40
0.09
  9
$DIMJUST
 70
     0
  9
$DIMSD1
 70
     0
  9
$DIMSD2
 70
     0
  9
$DIMTOLJ
 70
     1
  9
$DIMTZIN
 70
     0
  9
$DIMALTZ
 70
     0
  9
$DIMALTTZ
 70
     0
  9
$DIMUPT
 70
     0
  9
$DIMDEC
 70
     4
  9
$DIMTDEC
 70
     4
  9
$DIMALTU
 70
     2
  9
$DIMALTTD
 70
     2
  9
$DIMTXSTY
  7
Standard
  9
$DIMAUNIT
 70
     0
  9
$DIMADEC
 70
     0
  9
$DIMALTRND
 40
0.0
  9
$DIMAZIN
 70
     0
  9
$DIMDSEP
 70
    46
  9
$DIMATFIT
 70
     3
  9
$DIMFRAC
 70
     0
  9
$DIMLDRBLK
  1

  9
$DIMLUNIT
 70
     2
  9
$DIMLWD
 70
    -2
  9
$DIMLWE
 70
    -2
  9
$DIMTMOVE
 70
     0
  9
$DIMFXL
 40
1.0
  9
$DIMFXLON
 70
     0
  9
$DIMJOGANG
 40
0.7853981633974483
  9
$DIMTFILL
 70
     0
  9
$DIMTFILLCLR
 70
     0
  9
$DIMARCSYM
 70
     0
  9
$DIMLTYPE
  6

  9
$DIMLTEX1
  6

  9
$DIMLTEX2
  6

  9
$LUNITS
 70
     2
  9
$LUPREC
 70
     4
  9
$SKETCHINC
 40
0.1
  9
$FILLETRAD
 40
0.5
  9
$AUNITS
 70
     0
  9
$AUPREC
 70
     0
  9
$MENU
  1
.
  9
$ELEVATION
 40
0.0
  9
$PELEVATION
 40
0.0
  9
$THICKNESS
 40
0.0
  9
$LIMCHECK
 70
     0
  9
$CHAMFERA
 40
0.5
  9
$CHAMFERB
 40
0.5
  9
$CHAMFERC
 40
1.0
  9
$CHAMFERD
 40
0.0
  9
$SKPOLY
 70
     0
  9
$TDCREATE
 40
2458220.883271493
  9
$TDUCREATE
 40
2458220.54993816
  9
$TDUPDATE
 40
2458220.883271505
  9
$TDUUPDATE
 40
2458220.549938171
  9
$TDINDWG
 40
0.0000000116
  9
$TDUSRTIMER
 40
0.0000000116
  9
$USRTIMER
 70
     1
  9
$ANGBASE
 50
0.0
  9
$ANGDIR
 70
     0
  9
$PDMODE
 70
     0
  9
$PDSIZE
 40
0.0
  9
$PLINEWID
 40
0.0
  9
$SPLFRAME
 70
     0
  9
$SPLINETYPE
 70
     6
  9
$SPLINESEGS
 70
     8
  9
$HANDSEED
  5
7B
  9
$SURFTAB1
 70
     6
  9
$SURFTAB2
 70
     6
  9
$SURFTYPE
 70
     6
  9
$SURFU
 70
     6
  9
$SURFV
 70
     6
  9
$UCSBASE
  2

  9
$UCSNAME
  2

  9
$UCSORG
 10
0.0
 20
0.0
 30
0.0
  9
$UCSXDIR
 10
1.0
 20
0.0
 30
0.0
  9
$UCSYDIR
 10
0.0
 20
1.0
 30
0.0
  9
$UCSORTHOREF
  2

  9
$UCSORTHOVIEW
 70
     0
  9
$UCSORGTOP
 10
0.0
 20
0.0
 30
0.0
  9
$UCSORGBOTTOM
 10
0.0
 20
0.0
 30
0.0
  9
$UCSORGLEFT
 10
0.0
 20
0.0
 30
0.0
  9
$UCSORGRIGHT
 10
0.0
 20
0.0
 30
0.0
  9
$UCSORGFRONT
 10
0.0
 20
0.0
 30
0.0
  9
$UCSORGBACK
 10
0.0
 20
0.0
 30
0.0
  9
$PUCSBASE
  2

  9
$PUCSNAME
  2

  9
$PUCSORG
 10
0.0
 20
0.0
 30
0.0
  9
$PUCSXDIR
 10
1.0
 20
0.0
 30
0.0
  9
$PUCSYDIR
 10
0.0
 20
1.0
 30
0.0
  9
$PUCSORTHOREF
  2

  9
$PUCSORTHOVIEW
 70
     0
  9
$PUCSORGTOP
 10
0.0
 20
0.0
 30
0.0
  9
$PUCSORGBOTTOM
 10
0.0
 20
0.0
 30
0.0
  9
$PUCSORGLEFT
 10
0.0
 20
0.0
 30
0.0
  9
$PUCSORGRIGHT
 10
0.0
 20
0.0
 30
0.0
  9
$PUCSORGFRONT
 10
0.0
 20
0.0
 30
0.0
  9
$PUCSORGBACK
 10
0.0
 20
0.0
 30
0.0
  9
$USERI1
 70
     0
  9
$USERI2
 70
     0
  9
$USERI3
 70
     0
  9
$USERI4
 70
     0
  9
$USERI5
 70
     0
  9
$USERR1
 40
0.0
  9
$USERR2
 40
0.0
  9
$USERR3
 40
0.0
  9
$USERR4
 40
0.0
  9
$USERR5
 40
0.0
  9
$WORLDVIEW
 70
     1
  9
$SHADEDGE
 70
     3
  9
$SHADEDIF
 70
    70
  9
$TILEMODE
 70
     1
  9
$MAXACTVP
 70
    64
  9
$PINSBASE
 10
0.0
 20
0.0
 30
0.0
  9
$PLIMCHECK
 70
     0
  9
$PEXTMIN
 10
1.000000000000000E+20
 20
1.000000000000000E+20
 30
1.000000000000000E+20
  9
$PEXTMAX
 10
-1.000000000000000E+20
 20
-1.000000000000000E+20
 30
-1.000000000000000E+20
  9
$PLIMMIN
 10
0.0
 20
0.0
  9
$PLIMMAX
 10
12.0
 20
9.0
  9
$UNITMODE
 70
     0
  9
$VISRETAIN
 70
     1
  9
$PLINEGEN
 70
     0
  9
$PSLTSCALE
 70
     1
  9
$TREEDEPTH
 70
  3020
  9
$CMLSTYLE
  2
Standard
  9
$CMLJUST
 70
     0
  9
$CMLSCALE
 40
1.0
  9
$PROXYGRAPHICS
 70
     1
  9
$MEASUREMENT
 70
     0
  9
$CELWEIGHT
370
    -1
  9
$ENDCAPS
280
     0
  9
$JOINSTYLE
280
     0
  9
$LWDISPLAY
290
     0
  9
$INSUNITS
 70
     5
  9
$HYPERLINKBASE
  1

  9
$STYLESHEET
  1

  9
$XEDIT
290
     1
  9
$CEPSNTYPE
380
     0
  9
$PSTYLEMODE
290
     1
  9
$FINGERPRINTGUID
  2
{825371E5-EE76-412B-ABCB-4BF5DB22BC28}
  9
$VERSIONGUID
  2
{FAEB1C32-E019-11D5-929B-00C0DF256EC4}
  9
$EXTNAMES
290
     1
  9
$PSVPSCALE
 40
0.0
  9
$OLESTARTUP
290
     0
  9
$SORTENTS
280
   127
  9
$INDEXCTL
280
     0
  9
$HIDETEXT
280
     1
  9
$XCLIPFRAME
290
     0
  9
$HALOGAP
280
     0
  9
$OBSCOLOR
 70
   257
  9
$OBSLTYPE
280
     0
  9
$INTERSECTIONDISPLAY
280
     0
  9
$INTERSECTIONCOLOR
 70
   257
  9
$DIMASSOC
280
     2
  9
$PROJECTNAME
  1

  9
$CAMERADISPLAY
290
     0
  9
$LENSLENGTH
 40
50.0
  9
$CAMERAHEIGHT
 40
0.0
  9
$STEPSPERSEC
 40
2.0
  9
$STEPSIZE
 40
6.0
  9
$3DDWFPREC
 40
2.0
  9
$PSOLWIDTH
 40
0.25
  9
$PSOLHEIGHT
 40
4.0
  9
$LOFTANG1
 40
1.570796326794897
  9
$LOFTANG2
 40
1.570796326794897
  9
$LOFTMAG1
 40
0.0
  9
$LOFTMAG2
 40
0.0
  9
$LOFTPARAM
 70
     7
  9
$LOFTNORMALS
280
     1
  9
$LATITUDE
 40
37.795
  9
$LONGITUDE
 40
-122.394
  9
$NORTHDIRECTION
 40
0.0
  9
$TIMEZONE
 70
 -8000
  9
$LIGHTGLYPHDISPLAY
280
     1
  9
$TILEMODELIGHTSYNCH
280
     1
  9
$SOLIDHIST
280
     1
  9
$SHOWHIST
280
     1
  9
$DWFFRAME
280
     2
  9
$DGNFRAME
280
     2
  9
$REALWORLDSCALE
290
     1
  9
$INTERFERECOLOR
 62
   256
  9
$CSHADOW
280
     0
  9
$SHADOWPLANELOCATION
 40
0.0
  0
ENDSEC
  0
SECTION
  2
CLASSES
  0
CLASS
  1
ACDBDICTIONARYWDFLT
  2
AcDbDictionaryWithDefault
  3
ObjectDBX Classes
 90
        0
 91
        3
280
     0
281
     0
  0
CLASS
  1
VISUALSTYLE
  2
AcDbVisualStyle
  3
ObjectDBX Classes
 90
     4095
 91
        3
280
     0
281
     0
  0
CLASS
  1
SCALE
  2
AcDbScale
  3
ObjectDBX Classes
 90
     1153
 91
        3
280
     0
281
     0
  0
ENDSEC
  0
SECTION
  2
TABLES
  0
TABLE
  2
VPORT
  5
8
330
0
100
AcDbSymbolTable
 70
     1
  0
VPORT
  5
29
330
8
100
AcDbSymbolTableRecord
100
AcDbViewportTableRecord
  2
*Active
 70
     0
 10
0.0
 20
0.0
 11
1.0
 21
1.0
 12
10.42990654205607
 22
4.5
 13
0.0
 23
0.0
 14
0.5
 24
0.5
 15
0.5
 25
0.5
 16
0.0
 26
0.0
 36
1.0
 17
0.0
 27
0.0
 37
0.0
 40
9.0
 41
1.972972972850329
 42
50.0
 43
0.0
 44
0.0
 50
0.0
 51
0.0
 71
     0
 72
   100
 73
     1
 74
     3
 75
     0
 76
     0
 77
     0
 78
     0
281
     0
 65
     1
110
0.0
120
0.0
130
0.0
111
1.0
121
0.0
131
0.0
112
0.0
122
1.0
132
0.0
 79
     0
146
0.0
 60
     3
 61
     5
292
     1
282
     1
141
0.0
142
0.0
 63
   256
  0
ENDTAB
  0
TABLE
  2
LTYPE
  5
5
330
0
100
AcDbSymbolTable
 70
     1
  0
LTYPE
  5
14
330
5
100
AcDbSymbolTableRecord
100
AcDbLinetypeTableRecord
  2
ByBlock
 70
     0
  3

 72
    65
 73
     0
 40
0.0
  0
LTYPE
  5
15
330
5
100
AcDbSymbolTableRecord
100
AcDbLinetypeTableRecord
  2
ByLayer
 70
     0
  3

 72
    65
 73
     0
 40
0.0
  0
LTYPE
  5
16
330
5
100
AcDbSymbolTableRecord
100
AcDbLinetypeTableRecord
  2
Continuous
 70
     0
  3
Solid line
 72
    65
 73
     0
 40
0.0
  0
ENDTAB
  0
TABLE
  2
LAYER
  5
2
330
0
100
AcDbSymbolTable
 70
     1
  0
LAYER
  5
10
330
2
100
AcDbSymbolTableRecord
100
AcDbLayerTableRecord
  2
0
 70
     0
 62
     7
  6
Continuous
370
    -3
390
F
347
0
  0
ENDTAB
  0
TABLE
  2
STYLE
  5
3
330
0
100
AcDbSymbolTable
 70
     1
  0
STYLE
  5
11
330
3
100
AcDbSymbolTableRecord
100
AcDbTextStyleTableRecord
  2
Standard
 70
     0
 40
0.0
 41
1.0
 50
0.0
 71
     0
 42
0.2
  3
txt
  4

  0
ENDTAB
  0
TABLE
  2
VIEW
  5
6
330
0
100
AcDbSymbolTable
 70
     0
  0
ENDTAB
  0
TABLE
  2
UCS
  5
7
330
0
100
AcDbSymbolTable
 70
     0
  0
ENDTAB
  0
TABLE
  2
APPID
  5
9
330
0
100
AcDbSymbolTable
 70
     2
  0
APPID
  5
12
330
9
100
AcDbSymbolTableRecord
100
AcDbRegAppTableRecord
  2
ACAD
 70
     0
  0
APPID
  5
5D
330
9
100
AcDbSymbolTableRecord
100
AcDbRegAppTableRecord
  2
ODA
 70
     0
  0
ENDTAB
  0
TABLE
  2
DIMSTYLE
  5
A
330
0
100
AcDbSymbolTable
 70
     1
100
AcDbDimStyleTable
  0
DIMSTYLE
105
27
330
A
100
AcDbSymbolTableRecord
100
AcDbDimStyleTableRecord
  2
Standard
 70
     0
340
11
  0
ENDTAB
  0
TABLE
  2
BLOCK_RECORD
  5
1
330
0
100
AcDbSymbolTable
 70
     1
  0
BLOCK_RECORD
  5
1F
330
1
100
AcDbSymbolTableRecord
100
AcDbBlockTableRecord
  2
*Model_Space
340
22
 70
     0
280
     1
281
     0
  0
BLOCK_RECORD
  5
1B
330
1
100
AcDbSymbolTableRecord
100
AcDbBlockTableRecord
  2
*Paper_Space
340
1E
 70
     0
280
     1
281
     0
  0
BLOCK_RECORD
  5
23
330
1
100
AcDbSymbolTableRecord
100
AcDbBlockTableRecord
  2
*Paper_Space0
340
26
 70
     0
280
     1
281
     0
  0
ENDTAB
  0
ENDSEC
  0
SECTION
  2
BLOCKS
  0
BLOCK
  5
20
330
1F
100
AcDbEntity
  8
0
100
AcDbBlockBegin
  2
*Model_Space
 70
     0
 10
0.0
 20
0.0
 30
0.0
  3
*Model_Space
  1

  0
ENDBLK
  5
21
330
1F
100
AcDbEntity
  8
0
100
AcDbBlockEnd
  0
BLOCK
  5
1C
330
1B
100
AcDbEntity
 67
     1
  8
0
100
AcDbBlockBegin
  2
*Paper_Space
 70
     0
 10
0.0
 20
0.0
 30
0.0
  3
*Paper_Space
  1

  0
ENDBLK
  5
1D
330
1B
100
AcDbEntity
 67
     1
  8
0
100
AcDbBlockEnd
  0
BLOCK
  5
24
330
23
100
AcDbEntity
  8
0
100
AcDbBlockBegin
  2
*Paper_Space0
 70
     0
 10
0.0
 20
0.0
 30
0.0
  3
*Paper_Space0
  1

  0
ENDBLK
  5
25
330
23
100
AcDbEntity
  8
0
100
AcDbBlockEnd
  0
ENDSEC
  0
SECTION
  2
ENTITIES
  0
SPLINE
  5
5E
330
1F
100
AcDbEntity
  8
0
370
     9
100
AcDbSpline
210
0.0
220
0.0
230
1.0
 70
    11
 71
     3
 72
    84
 73
    80
 74
     0
 42
0.0000000001
 43
0.0000000001
 40
0.0
 40
0.0
 40
0.0
 40
0.0
 40
0.05
 40
0.05
 40
0.05
 40
0.05
 40
0.1
 40
0.1
 40
0.1
 40
0.1
 40
0.15
 40
0.15
 40
0.15
 40
0.15
 40
0.2
 40
0.2
 40
0.2
 40
0.2
 40
0.25
 40
0.25
 40
0.25
 40
0.25
 40
0.3
 40
0.3
 40
0.3
 40
0.3
 40
0.35
 40
0.35
 40
0.35
 40
0.35
 40
0.4
 40
0.4
 40
0.4
 40
0.4
 40
0.45
 40
0.45
 40
0.45
 40
0.45
 40
0.4999999999999999
 40
0.4999999999999999
 40
0.4999999999999999
 40
0.4999999999999999
 40
0.5499999999999999
 40
0.5499999999999999
 40
0.5499999999999999
 40
0.5499999999999999
 40
0.6
 40
0.6
 40
0.6
 40
0.6
 40
0.65
 40
0.65
 40
0.65
 40
0.65
 40
0.7000000000000001
 40
0.7000000000000001
 40
0.7000000000000001
 40
0.7000000000000001
 40
0.7500000000000001
 40
0.7500000000000001
 40
0.7500000000000001
 40
0.7500000000000001
 40
0.8000000000000002
 40
0.8000000000000002
 40
0.8000000000000002
 40
0.8000000000000002
 40
0.8500000000000002
 40
0.8500000000000002
 40
0.8500000000000002
 40
0.8500000000000002
 40
0.9000000000000002
 40
0.9000000000000002
 40
0.9000000000000002
 40
0.9000000000000002
 40
0.9500000000000003
 40
0.9500000000000003
 40
0.9500000000000003
 40
0.9500000000000003
 40
1.0
 40
1.0
 40
1.0
 40
1.0
 10
3.72428
 20
1.00268
 30
0.0
 10
3.72428
 20
1.00268
 30
0.0
 10
3.72428
 20
0.20268
 30
0.0
 10
3.72428
 20
0.20268
 30
0.0
 10
3.72428
 20
0.20268
 30
0.0
 10
3.72428
 20
0.20268
 30
0.0
 10
4.72428
 20
0.20268
 30
0.0
 10
4.72428
 20
0.20268
 30
0.0
 10
4.72428
 20
0.20268
 30
0.0
 10
4.72428
 20
0.20268
 30
0.0
 10
4.72428
 20
0.00268
 30
0.0
 10
4.72428
 20
0.00268
 30
0.0
 10
4.72428
 20
0.00268
 30
0.0
 10
4.72428
 20
0.00268
 30
0.0
 10
5.72428
 20
0.00268
 30
0.0
 10
5.72428
 20
0.00268
 30
0.0
 10
5.72428
 20
0.00268
 30
0.0
 10
5.72428
 20
0.00268
 30
0.0
 10
5.72428
 20
0.20268
 30
0.0
 10
5.72428
 20
0.20268
 30
0.0
 10
5.72428
 20
0.20268
 30
0.0
 10
5.72428
 20
0.20268
 30
0.0
 10
6.72428
 20
0.20268
 30
0.0
 10
6.72428
 20
0.20268
 30
0.0
 10
6.72428
 20
0.20268
 30
0.0
 10
6.72428
 20
0.20268
 30
0.0
 10
6.72428
 20
1.00268
 30
0.0
 10
6.72428
 20
1.00268
 30
0.0
 10
6.72428
 20
1.00268
 30
0.0
 10
6.72428
 20
1.00268
 30
0.0
 10
6.52428
 20
1.00268
 30
0.0
 10
6.52428
 20
1.00268
 30
0.0
 10
6.52428
 20
1.00268
 30
0.0
 10
6.52428
 20
1.00268
 30
0.0
 10
6.52428
 20
2.00268
 30
0.0
 10
6.52428
 20
2.00268
 30
0.0
 10
6.52428
 20
2.00268
 30
0.0
 10
6.52428
 20
2.00268
 30
0.0
 10
6.72428
 20
2.00268
 30
0.0
 10
6.72428
 20
2.00268
 30
0.0
 10
6.72428
 20
2.00268
 30
0.0
 10
6.72428
 20
2.00268
 30
0.0
 10
6.72428
 20
2.80268
 30
0.0
 10
6.72428
 20
2.80268
 30
0.0
 10
6.72428
 20
2.80268
 30
0.0
 10
6.72428
 20
2.80268
 30
0.0
 10
5.72428
 20
2.80268
 30
0.0
 10
5.72428
 20
2.80268
 30
0.0
 10
5.72428
 20
2.80268
 30
0.0
 10
5.72428
 20
2.80268
 30
0.0
 10
5.72428
 20
3.00268
 30
0.0
 10
5.72428
 20
3.00268
 30
0.0
 10
5.72428
 20
3.00268
 30
0.0
 10
5.72428
 20
3.00268
 30
0.0
 10
4.72428
 20
3.00268
 30
0.0
 10
4.72428
 20
3.00268
 30
0.0
 10
4.72428
 20
3.00268
 30
0.0
 10
4.72428
 20
3.00268
 30
0.0
 10
4.72428
 20
2.80268
 30
0.0
 10
4.72428
 20
2.80268
 30
0.0
 10
4.72428
 20
2.80268
 30
0.0
 10
4.72428
 20
2.80268
 30
0.0
 10
3.72428
 20
2.80268
 30
0.0
 10
3.72428
 20
2.80268
 30
0.0
 10
3.72428
 20
2.80268
 30
0.0
 10
3.72428
 20
2.80268
 30
0.0
 10
3.72428
 20
2.00268
 30
0.0
 10
3.72428
 20
2.00268
 30
0.0
 10
3.72428
 20
2.00268
 30
0.0
 10
3.72428
 20
2.00268
 30
0.0
 10
3.92428
 20
2.00268
 30
0.0
 10
3.92428
 20
2.00268
 30
0.0
 10
3.92428
 20
2.00268
 30
0.0
 10
3.92428
 20
2.00268
 30
0.0
 10
3.92428
 20
1.00268
 30
0.0
 10
3.92428
 20
1.00268
 30
0.0
 10
3.92428
 20
1.00268
 30
0.0
 10
3.92428
 20
1.00268
 30
0.0
 10
3.72428
 20
1.00268
 30
0.0
 10
3.72428
 20
1.00268
 30
0.0
  0
SPLINE
  5
5F
330
1F
100
AcDbEntity
  8
0
370
     9
100
AcDbSpline
210
0.0
220
0.0
230
1.0
 70
    11
 71
     3
 72
    84
 73
    80
 74
     0
 42
0.0000000001
 43
0.0000000001
 40
0.0
 40
0.0
 40
0.0
 40
0.0
 40
0.05
 40
0.05
 40
0.05
 40
0.05
 40
0.1
 40
0.1
 40
0.1
 40
0.1
 40
0.15
 40
0.15
 40
0.15
 40
0.15
 40
0.2
 40
0.2
 40
0.2
 40
0.2
 40
0.25
 40
0.25
 40
0.25
 40
0.25
 40
0.3
 40
0.3
 40
0.3
 40
0.3
 40
0.35
 40
0.35
 40
0.35
 40
0.35
 40
0.4
 40
0.4
 40
0.4
 40
0.4
 40
0.45
 40
0.45
 40
0.45
 40
0.45
 40
0.4999999999999999
 40
0.4999999999999999
 40
0.4999999999999999
 40
0.4999999999999999
 40
0.5499999999999999
 40
0.5499999999999999
 40
0.5499999999999999
 40
0.5499999999999999
 40
0.6
 40
0.6
 40
0.6
 40
0.6
 40
0.65
 40
0.65
 40
0.65
 40
0.65
 40
0.7000000000000001
 40
0.7000000000000001
 40
0.7000000000000001
 40
0.7000000000000001
 40
0.7500000000000001
 40
0.7500000000000001
 40
0.7500000000000001
 40
0.7500000000000001
 40
0.8000000000000002
 40
0.8000000000000002
 40
0.8000000000000002
 40
0.8000000000000002
 40
0.8500000000000002
 40
0.8500000000000002
 40
0.8500000000000002
 40
0.8500000000000002
 40
0.9000000000000002
 40
0.9000000000000002
 40
0.9000000000000002
 40
0.9000000000000002
 40
0.9500000000000003
 40
0.9500000000000003
 40
0.9500000000000003
 40
0.9500000000000003
 40
1.0
 40
1.0
 40
1.0
 40
1.0
 10
4.63637
 20
10.83691
 30
0.0
 10
4.63637
 20
10.83691
 30
0.0
 10
3.63637
 20
10.83691
 30
0.0
 10
3.63637
 20
10.83691
 30
0.0
 10
3.63637
 20
10.83691
 30
0.0
 10
3.63637
 20
10.83691
 30
0.0
 10
3.63637
 20
9.83691
 30
0.0
 10
3.63637
 20
9.83691
 30
0.0
 10
3.63637
 20
9.83691
 30
0.0
 10
3.63637
 20
9.83691
 30
0.0
 10
3.83637
 20
9.83691
 30
0.0
 10
3.83637
 20
9.83691
 30
0.0
 10
3.83637
 20
9.83691
 30
0.0
 10
3.83637
 20
9.83691
 30
0.0
 10
3.83637
 20
8.83691
 30
0.0
 10
3.83637
 20
8.83691
 30
0.0
 10
3.83637
 20
8.83691
 30
0.0
 10
3.83637
 20
8.83691
 30
0.0
 10
3.63637
 20
8.83691
 30
0.0
 10
3.63637
 20
8.83691
 30
0.0
 10
3.63637
 20
8.83691
 30
0.0
 10
3.63637
 20
8.83691
 30
0.0
 10
3.63637
 20
7.83691
 30
0.0
 10
3.63637
 20
7.83691
 30
0.0
 10
3.63637
 20
7.83691
 30
0.0
 10
3.63637
 20
7.83691
 30
0.0
 10
4.63637
 20
7.83691
 30
0.0
 10
4.63637
 20
7.83691
 30
0.0
 10
4.63637
 20
7.83691
 30
0.0
 10
4.63637
 20
7.83691
 30
0.0
 10
4.63637
 20
8.03691
 30
0.0
 10
4.63637
 20
8.03691
 30
0.0
 10
4.63637
 20
8.03691
 30
0.0
 10
4.63637
 20
8.03691
 30
0.0
 10
5.63637
 20
8.03691
 30
0.0
 10
5.63637
 20
8.03691
 30
0.0
 10
5.63637
 20
8.03691
 30
0.0
 10
5.63637
 20
8.03691
 30
0.0
 10
5.63637
 20
7.83691
 30
0.0
 10
5.63637
 20
7.83691
 30
0.0
 10
5.63637
 20
7.83691
 30
0.0
 10
5.63637
 20
7.83691
 30
0.0
 10
6.63637
 20
7.83691
 30
0.0
 10
6.63637
 20
7.83691
 30
0.0
 10
6.63637
 20
7.83691
 30
0.0
 10
6.63637
 20
7.83691
 30
0.0
 10
6.63637
 20
8.83691
 30
0.0
 10
6.63637
 20
8.83691
 30
0.0
 10
6.63637
 20
8.83691
 30
0.0
 10
6.63637
 20
8.83691
 30
0.0
 10
6.43637
 20
8.83691
 30
0.0
 10
6.43637
 20
8.83691
 30
0.0
 10
6.43637
 20
8.83691
 30
0.0
 10
6.43637
 20
8.83691
 30
0.0
 10
6.43637
 20
9.83691
 30
0.0
 10
6.43637
 20
9.83691
 30
0.0
 10
6.43637
 20
9.83691
 30
0.0
 10
6.43637
 20
9.83691
 30
0.0
 10
6.63637
 20
9.83691
 30
0.0
 10
6.63637
 20
9.83691
 30
0.0
 10
6.63637
 20
9.83691
 30
0.0
 10
6.63637
 20
9.83691
 30
0.0
 10
6.63637
 20
10.83691
 30
0.0
 10
6.63637
 20
10.83691
 30
0.0
 10
6.63637
 20
10.83691
 30
0.0
 10
6.63637
 20
10.83691
 30
0.0
 10
5.63637
 20
10.83691
 30
0.0
 10
5.63637
 20
10.83691
 30
0.0
 10
5.63637
 20
10.83691
 30
0.0
 10
5.63637
 20
10.83691
 30
0.0
 10
5.63637
 20
10.63692
 30
0.0
 10
5.63637
 20
10.63692
 30
0.0
 10
5.63637
 20
10.63692
 30
0.0
 10
5.63637
 20
10.63692
 30
0.0
 10
4.63637
 20
10.63692
 30
0.0
 10
4.63637
 20
10.63692
 30
0.0
 10
4.63637
 20
10.63692
 30
0.0
 10
4.63637
 20
10.63692
 30
0.0
 10
4.63637
 20
10.83691
 30
0.0
 10
4.63637
 20
10.83691
 30
0.0
  0
SPLINE
  5
60
330
1F
100
AcDbEntity
  8
0
370
     9
100
AcDbSpline
210
0.0
220
0.0
230
1.0
 70
    11
 71
     3
 72
    84
 73
    80
 74
     0
 42
0.0000000001
 43
0.0000000001
 40
0.0
 40
0.0
 40
0.0
 40
0.0
 40
0.05
 40
0.05
 40
0.05
 40
0.05
 40
0.1
 40
0.1
 40
0.1
 40
0.1
 40
0.15
 40
0.15
 40
0.15
 40
0.15
 40
0.2
 40
0.2
 40
0.2
 40
0.2
 40
0.25
 40
0.25
 40
0.25
 40
0.25
 40
0.3
 40
0.3
 40
0.3
 40
0.3
 40
0.35
 40
0.35
 40
0.35
 40
0.35
 40
0.4
 40
0.4
 40
0.4
 40
0.4
 40
0.45
 40
0.45
 40
0.45
 40
0.45
 40
0.4999999999999999
 40
0.4999999999999999
 40
0.4999999999999999
 40
0.4999999999999999
 40
0.5499999999999999
 40
0.5499999999999999
 40
0.5499999999999999
 40
0.5499999999999999
 40
0.6
 40
0.6
 40
0.6
 40
0.6
 40
0.65
 40
0.65
 40
0.65
 40
0.65
 40
0.7000000000000001
 40
0.7000000000000001
 40
0.7000000000000001
 40
0.7000000000000001
 40
0.7500000000000001
 40
0.7500000000000001
 40
0.7500000000000001
 40
0.7500000000000001
 40
0.8000000000000002
 40
0.8000000000000002
 40
0.8000000000000002
 40
0.8000000000000002
 40
0.8500000000000002
 40
0.8500000000000002
 40
0.8500000000000002
 40
0.8500000000000002
 40
0.9000000000000002
 40
0.9000000000000002
 40
0.9000000000000002
 40
0.9000000000000002
 40
0.9500000000000003
 40
0.9500000000000003
 40
0.9500000000000003
 40
0.9500000000000003
 40
1.0
 40
1.0
 40
1.0
 40
1.0
 10
-6.42571
 20
0.80269
 30
0.0
 10
-6.42571
 20
0.80269
 30
0.0
 10
-6.42571
 20
0.00269
 30
0.0
 10
-6.42571
 20
0.00269
 30
0.0
 10
-6.42571
 20
0.00269
 30
0.0
 10
-6.42571
 20
0.00269
 30
0.0
 10
-5.42571
 20
0.00269
 30
0.0
 10
-5.42571
 20
0.00269
 30
0.0
 10
-5.42571
 20
0.00269
 30
0.0
 10
-5.42571
 20
0.00269
 30
0.0
 10
-5.42571
 20
-0.1973
 30
0.0
 10
-5.42571
 20
-0.1973
 30
0.0
 10
-5.42571
 20
-0.1973
 30
0.0
 10
-5.42571
 20
-0.1973
 30
0.0
 10
-4.42571
 20
-0.1973
 30
0.0
 10
-4.42571
 20
-0.1973
 30
0.0
 10
-4.42571
 20
-0.1973
 30
0.0
 10
-4.42571
 20
-0.1973
 30
0.0
 10
-4.42571
 20
0.00269
 30
0.0
 10
-4.42571
 20
0.00269
 30
0.0
 10
-4.42571
 20
0.00269
 30
0.0
 10
-4.42571
 20
0.00269
 30
0.0
 10
-3.42571
 20
0.00269
 30
0.0
 10
-3.42571
 20
0.00269
 30
0.0
 10
-3.42571
 20
0.00269
 30
0.0
 10
-3.42571
 20
0.00269
 30
0.0
 10
-3.42571
 20
0.80269
 30
0.0
 10
-3.42571
 20
0.80269
 30
0.0
 10
-3.42571
 20
0.80269
 30
0.0
 10
-3.42571
 20
0.80269
 30
0.0
 10
-3.62571
 20
0.80269
 30
0.0
 10
-3.62571
 20
0.80269
 30
0.0
 10
-3.62571
 20
0.80269
 30
0.0
 10
-3.62571
 20
0.80269
 30
0.0
 10
-3.62571
 20
1.80269
 30
0.0
 10
-3.62571
 20
1.80269
 30
0.0
 10
-3.62571
 20
1.80269
 30
0.0
 10
-3.62571
 20
1.80269
 30
0.0
 10
-3.42571
 20
1.80269
 30
0.0
 10
-3.42571
 20
1.80269
 30
0.0
 10
-3.42571
 20
1.80269
 30
0.0
 10
-3.42571
 20
1.80269
 30
0.0
 10
-3.42571
 20
2.60269
 30
0.0
 10
-3.42571
 20
2.60269
 30
0.0
 10
-3.42571
 20
2.60269
 30
0.0
 10
-3.42571
 20
2.60269
 30
0.0
 10
-4.42571
 20
2.60269
 30
0.0
 10
-4.42571
 20
2.60269
 30
0.0
 10
-4.42571
 20
2.60269
 30
0.0
 10
-4.42571
 20
2.60269
 30
0.0
 10
-4.42571
 20
2.80269
 30
0.0
 10
-4.42571
 20
2.80269
 30
0.0
 10
-4.42571
 20
2.80269
 30
0.0
 10
-4.42571
 20
2.80269
 30
0.0
 10
-5.42571
 20
2.80269
 30
0.0
 10
-5.42571
 20
2.80269
 30
0.0
 10
-5.42571
 20
2.80269
 30
0.0
 10
-5.42571
 20
2.80269
 30
0.0
 10
-5.42571
 20
2.60269
 30
0.0
 10
-5.42571
 20
2.60269
 30
0.0
 10
-5.42571
 20
2.60269
 30
0.0
 10
-5.42571
 20
2.60269
 30
0.0
 10
-6.42571
 20
2.60269
 30
0.0
 10
-6.42571
 20
2.60269
 30
0.0
 10
-6.42571
 20
2.60269
 30
0.0
 10
-6.42571
 20
2.60269
 30
0.0
 10
-6.42571
 20
1.80269
 30
0.0
 10
-6.42571
 20
1.80269
 30
0.0
 10
-6.42571
 20
1.80269
 30
0.0
 10
-6.42571
 20
1.80269
 30
0.0
 10
-6.22571
 20
1.80269
 30
0.0
 10
-6.22571
 20
1.80269
 30
0.0
 10
-6.22571
 20
1.80269
 30
0.0
 10
-6.22571
 20
1.80269
 30
0.0
 10
-6.22571
 20
0.80269
 30
0.0
 10
-6.22571
 20
0.80269
 30
0.0
 10
-6.22571
 20
0.80269
 30
0.0
 10
-6.22571
 20
0.80269
 30
0.0
 10
-6.42571
 20
0.80269
 30
0.0
 10
-6.42571
 20
0.80269
 30
0.0
  0
SPLINE
  5
61
330
1F
100
AcDbEntity
  8
0
370
     9
100
AcDbSpline
210
0.0
220
0.0
230
1.0
 70
    11
 71
     3
 72
    84
 73
    80
 74
     0
 42
0.0000000001
 43
0.0000000001
 40
0.0
 40
0.0
 40
0.0
 40
0.0
 40
0.05
 40
0.05
 40
0.05
 40
0.05
 40
0.1
 40
0.1
 40
0.1
 40
0.1
 40
0.15
 40
0.15
 40
0.15
 40
0.15
 40
0.2
 40
0.2
 40
0.2
 40
0.2
 40
0.25
 40
0.25
 40
0.25
 40
0.25
 40
0.3
 40
0.3
 40
0.3
 40
0.3
 40
0.35
 40
0.35
 40
0.35
 40
0.35
 40
0.4
 40
0.4
 40
0.4
 40
0.4
 40
0.45
 40
0.45
 40
0.45
 40
0.45
 40
0.4999999999999999
 40
0.4999999999999999
 40
0.4999999999999999
 40
0.4999999999999999
 40
0.5499999999999999
 40
0.5499999999999999
 40
0.5499999999999999
 40
0.5499999999999999
 40
0.6
 40
0.6
 40
0.6
 40
0.6
 40
0.65
 40
0.65
 40
0.65
 40
0.65
 40
0.7000000000000001
 40
0.7000000000000001
 40
0.7000000000000001
 40
0.7000000000000001
 40
0.7500000000000001
 40
0.7500000000000001
 40
0.7500000000000001
 40
0.7500000000000001
 40
0.8000000000000002
 40
0.8000000000000002
 40
0.8000000000000002
 40
0.8000000000000002
 40
0.8500000000000002
 40
0.8500000000000002
 40
0.8500000000000002
 40
0.8500000000000002
 40
0.9000000000000002
 40
0.9000000000000002
 40
0.9000000000000002
 40
0.9000000000000002
 40
0.9500000000000003
 40
0.9500000000000003
 40
0.9500000000000003
 40
0.9500000000000003
 40
1.0
 40
1.0
 40
1.0
 40
1.0
 10
-5.66768
 20
-6.74729
 30
0.0
 10
-5.66768
 20
-6.74729
 30
0.0
 10
-5.66768
 20
-6.94729
 30
0.0
 10
-5.66768
 20
-6.94729
 30
0.0
 10
-5.66768
 20
-6.94729
 30
0.0
 10
-5.66768
 20
-6.94729
 30
0.0
 10
-6.46768
 20
-6.94729
 30
0.0
 10
-6.46768
 20
-6.94729
 30
0.0
 10
-6.46768
 20
-6.94729
 30
0.0
 10
-6.46768
 20
-6.94729
 30
0.0
 10
-6.46768
 20
-7.74729
 30
0.0
 10
-6.46768
 20
-7.74729
 30
0.0
 10
-6.46768
 20
-7.74729
 30
0.0
 10
-6.46768
 20
-7.74729
 30
0.0
 10
-6.66768
 20
-7.74729
 30
0.0
 10
-6.66768
 20
-7.74729
 30
0.0
 10
-6.66768
 20
-7.74729
 30
0.0
 10
-6.66768
 20
-7.74729
 30
0.0
 10
-6.66768
 20
-8.74729
 30
0.0
 10
-6.66768
 20
-8.74729
 30
0.0
 10
-6.66768
 20
-8.74729
 30
0.0
 10
-6.66768
 20
-8.74729
 30
0.0
 10
-6.46768
 20
-8.74729
 30
0.0
 10
-6.46768
 20
-8.74729
 30
0.0
 10
-6.46768
 20
-8.74729
 30
0.0
 10
-6.46768
 20
-8.74729
 30
0.0
 10
-6.46768
 20
-9.54729
 30
0.0
 10
-6.46768
 20
-9.54729
 30
0.0
 10
-6.46768
 20
-9.54729
 30
0.0
 10
-6.46768
 20
-9.54729
 30
0.0
 10
-5.66768
 20
-9.54729
 30
0.0
 10
-5.66768
 20
-9.54729
 30
0.0
 10
-5.66768
 20
-9.54729
 30
0.0
 10
-5.66768
 20
-9.54729
 30
0.0
 10
-5.66768
 20
-9.74729
 30
0.0
 10
-5.66768
 20
-9.74729
 30
0.0
 10
-5.66768
 20
-9.74729
 30
0.0
 10
-5.66768
 20
-9.74729
 30
0.0
 10
-4.66768
 20
-9.74729
 30
0.0
 10
-4.66768
 20
-9.74729
 30
0.0
 10
-4.66768
 20
-9.74729
 30
0.0
 10
-4.66768
 20
-9.74729
 30
0.0
 10
-4.66768
 20
-9.54729
 30
0.0
 10
-4.66768
 20
-9.54729
 30
0.0
 10
-4.66768
 20
-9.54729
 30
0.0
 10
-4.66768
 20
-9.54729
 30
0.0
 10
-3.86768
 20
-9.54729
 30
0.0
 10
-3.86768
 20
-9.54729
 30
0.0
 10
-3.86768
 20
-9.54729
 30
0.0
 10
-3.86768
 20
-9.54729
 30
0.0
 10
-3.86768
 20
-8.74729
 30
0.0
 10
-3.86768
 20
-8.74729
 30
0.0
 10
-3.86768
 20
-8.74729
 30
0.0
 10
-3.86768
 20
-8.74729
 30
0.0
 10
-3.66768
 20
-8.74729
 30
0.0
 10
-3.66768
 20
-8.74729
 30
0.0
 10
-3.66768
 20
-8.74729
 30
0.0
 10
-3.66768
 20
-8.74729
 30
0.0
 10
-3.66768
 20
-7.74729
 30
0.0
 10
-3.66768
 20
-7.74729
 30
0.0
 10
-3.66768
 20
-7.74729
 30
0.0
 10
-3.66768
 20
-7.74729
 30
0.0
 10
-3.86768
 20
-7.74729
 30
0.0
 10
-3.86768
 20
-7.74729
 30
0.0
 10
-3.86768
 20
-7.74729
 30
0.0
 10
-3.86768
 20
-7.74729
 30
0.0
 10
-3.86768
 20
-6.94729
 30
0.0
 10
-3.86768
 20
-6.94729
 30
0.0
 10
-3.86768
 20
-6.94729
 30
0.0
 10
-3.86768
 20
-6.94729
 30
0.0
 10
-4.66768
 20
-6.94729
 30
0.0
 10
-4.66768
 20
-6.94729
 30
0.0
 10
-4.66768
 20
-6.94729
 30
0.0
 10
-4.66768
 20
-6.94729
 30
0.0
 10
-4.66768
 20
-6.74729
 30
0.0
 10
-4.66768
 20
-6.74729
 30
0.0
 10
-4.66768
 20
-6.74729
 30
0.0
 10
-4.66768
 20
-6.74729
 30
0.0
 10
-5.66768
 20
-6.74729
 30
0.0
 10
-5.66768
 20
-6.74729
 30
0.0
  0
SPLINE
  5
62
330
1F
100
AcDbEntity
  8
0
370
     9
100
AcDbSpline
210
0.0
220
0.0
230
1.0
 70
    11
 71
     3
 72
    84
 73
    80
 74
     0
 42
0.0000000001
 43
0.0000000001
 40
0.0
 40
0.0
 40
0.0
 40
0.0
 40
0.05
 40
0.05
 40
0.05
 40
0.05
 40
0.1
 40
0.1
 40
0.1
 40
0.1
 40
0.15
 40
0.15
 40
0.15
 40
0.15
 40
0.2
 40
0.2
 40
0.2
 40
0.2
 40
0.25
 40
0.25
 40
0.25
 40
0.25
 40
0.3
 40
0.3
 40
0.3
 40
0.3
 40
0.35
 40
0.35
 40
0.35
 40
0.35
 40
0.4
 40
0.4
 40
0.4
 40
0.4
 40
0.45
 40
0.45
 40
0.45
 40
0.45
 40
0.4999999999999999
 40
0.4999999999999999
 40
0.4999999999999999
 40
0.4999999999999999
 40
0.5499999999999999
 40
0.5499999999999999
 40
0.5499999999999999
 40
0.5499999999999999
 40
0.6
 40
0.6
 40
0.6
 40
0.6
 40
0.65
 40
0.65
 40
0.65
 40
0.65
 40
0.7000000000000001
 40
0.7000000000000001
 40
0.7000000000000001
 40
0.7000000000000001
 40
0.7500000000000001
 40
0.7500000000000001
 40
0.7500000000000001
 40
0.7500000000000001
 40
0.8000000000000002
 40
0.8000000000000002
 40
0.8000000000000002
 40
0.8000000000000002
 40
0.8500000000000002
 40
0.8500000000000002
 40
0.8500000000000002
 40
0.8500000000000002
 40
0.9000000000000002
 40
0.9000000000000002
 40
0.9000000000000002
 40
0.9000000000000002
 40
0.9500000000000003
 40
0.9500000000000003
 40
0.9500000000000003
 40
0.9500000000000003
 40
1.0
 40
1.0
 40
1.0
 40
1.0
 10
-4.42428
 20
10.77625
 30
0.0
 10
-4.42428
 20
10.77625
 30
0.0
 10
-5.42428
 20
10.77625
 30
0.0
 10
-5.42428
 20
10.77625
 30
0.0
 10
-5.42428
 20
10.77625
 30
0.0
 10
-5.42428
 20
10.77625
 30
0.0
 10
-5.42428
 20
9.77625
 30
0.0
 10
-5.42428
 20
9.77625
 30
0.0
 10
-5.42428
 20
9.77625
 30
0.0
 10
-5.42428
 20
9.77625
 30
0.0
 10
-5.22428
 20
9.77625
 30
0.0
 10
-5.22428
 20
9.77625
 30
0.0
 10
-5.22428
 20
9.77625
 30
0.0
 10
-5.22428
 20
9.77625
 30
0.0
 10
-5.22428
 20
8.77625
 30
0.0
 10
-5.22428
 20
8.77625
 30
0.0
 10
-5.22428
 20
8.77625
 30
0.0
 10
-5.22428
 20
8.77625
 30
0.0
 10
-5.42428
 20
8.77625
 30
0.0
 10
-5.42428
 20
8.77625
 30
0.0
 10
-5.42428
 20
8.77625
 30
0.0
 10
-5.42428
 20
8.77625
 30
0.0
 10
-5.42428
 20
7.77625
 30
0.0
 10
-5.42428
 20
7.77625
 30
0.0
 10
-5.42428
 20
7.77625
 30
0.0
 10
-5.42428
 20
7.77625
 30
0.0
 10
-4.42428
 20
7.77625
 30
0.0
 10
-4.42428
 20
7.77625
 30
0.0
 10
-4.42428
 20
7.77625
 30
0.0
 10
-4.42428
 20
7.77625
 30
0.0
 10
-4.42428
 20
7.97625
 30
0.0
 10
-4.42428
 20
7.97625
 30
0.0
 10
-4.42428
 20
7.97625
 30
0.0
 10
-4.42428
 20
7.97625
 30
0.0
 10
-3.42428
 20
7.97625
 30
0.0
 10
-3.42428
 20
7.97625
 30
0.0
 10
-3.42428
 20
7.97625
 30
0.0
 10
-3.42428
 20
7.97625
 30
0.0
 10
-3.42428
 20
7.77625
 30
0.0
 10
-3.42428
 20
7.77625
 30
0.0
 10
-3.42428
 20
7.77625
 30
0.0
 10
-3.42428
 20
7.77625
 30
0.0
 10
-2.42428
 20
7.77625
 30
0.0
 10
-2.42428
 20
7.77625
 30
0.0
 10
-2.42428
 20
7.77625
 30
0.0
 10
-2.42428
 20
7.77625
 30
0.0
 10
-2.42428
 20
8.77625
 30
0.0
 10
-2.42428
 20
8.77625
 30
0.0
 10
-2.42428
 20
8.77625
 30
0.0
 10
-2.42428
 20
8.77625
 30
0.0
 10
-2.62428
 20
8.77625
 30
0.0
 10
-2.62428
 20
8.77625
 30
0.0
 10
-2.62428
 20
8.77625
 30
0.0
 10
-2.62428
 20
8.77625
 30
0.0
 10
-2.62428
 20
9.77625
 30
0.0
 10
-2.62428
 20
9.77625
 30
0.0
 10
-2.62428
 20
9.77625
 30
0.0
 10
-2.62428
 20
9.77625
 30
0.0
 10
-2.42428
 20
9.77625
 30
0.0
 10
-2.42428
 20
9.77625
 30
0.0
 10
-2.42428
 20
9.77625
 30
0.0
 10
-2.42428
 20
9.77625
 30
0.0
 10
-2.42428
 20
10.77625
 30
0.0
 10
-2.42428
 20
10.77625
 30
0.0
 10
-2.42428
 20
10.77625
 30
0.0
 10
-2.42428
 20
10.77625
 30
0.0
 10
-3.42428
 20
10.77625
 30
0.0
 10
-3.42428
 20
10.77625
 30
0.0
 10
-3.42428
 20
10.77625
 30
0.0
 10
-3.42428
 20
10.77625
 30
0.0
 10
-3.42428
 20
10.57626
 30
0.0
 10
-3.42428
 20
10.57626
 30
0.0
 10
-3.42428
 20
10.57626
 30
0.0
 10
-3.42428
 20
10.57626
 30
0.0
 10
-4.42428
 20
10.57626
 30
0.0
 10
-4.42428
 20
10.57626
 30
0.0
 10
-4.42428
 20
10.57626
 30
0.0
 10
-4.42428
 20
10.57626
 30
0.0
 10
-4.42428
 20
10.77625
 30
0.0
 10
-4.42428
 20
10.77625
 30
0.0
  0
SPLINE
  5
63
330
1F
100
AcDbEntity
  8
0
370
     9
100
AcDbSpline
210
0.0
220
0.0
230
1.0
 70
    11
 71
     3
 72
    84
 73
    80
 74
     0
 42
0.0000000001
 43
0.0000000001
 40
0.0
 40
0.0
 40
0.0
 40
0.0
 40
0.05
 40
0.05
 40
0.05
 40
0.05
 40
0.1
 40
0.1
 40
0.1
 40
0.1
 40
0.15
 40
0.15
 40
0.15
 40
0.15
 40
0.2
 40
0.2
 40
0.2
 40
0.2
 40
0.25
 40
0.25
 40
0.25
 40
0.25
 40
0.3
 40
0.3
 40
0.3
 40
0.3
 40
0.35
 40
0.35
 40
0.35
 40
0.35
 40
0.4
 40
0.4
 40
0.4
 40
0.4
 40
0.45
 40
0.45
 40
0.45
 40
0.45
 40
0.4999999999999999
 40
0.4999999999999999
 40
0.4999999999999999
 40
0.4999999999999999
 40
0.5499999999999999
 40
0.5499999999999999
 40
0.5499999999999999
 40
0.5499999999999999
 40
0.6
 40
0.6
 40
0.6
 40
0.6
 40
0.65
 40
0.65
 40
0.65
 40
0.65
 40
0.7000000000000001
 40
0.7000000000000001
 40
0.7000000000000001
 40
0.7000000000000001
 40
0.7500000000000001
 40
0.7500000000000001
 40
0.7500000000000001
 40
0.7500000000000001
 40
0.8000000000000002
 40
0.8000000000000002
 40
0.8000000000000002
 40
0.8000000000000002
 40
0.8500000000000002
 40
0.8500000000000002
 40
0.8500000000000002
 40
0.8500000000000002
 40
0.9000000000000002
 40
0.9000000000000002
 40
0.9000000000000002
 40
0.9000000000000002
 40
0.9500000000000003
 40
0.9500000000000003
 40
0.9500000000000003
 40
0.9500000000000003
 40
1.0
 40
1.0
 40
1.0
 40
1.0
 10
4.60587
 20
-7.83691
 30
0.0
 10
4.60587
 20
-7.83691
 30
0.0
 10
4.60587
 20
-8.03691
 30
0.0
 10
4.60587
 20
-8.03691
 30
0.0
 10
4.60587
 20
-8.03691
 30
0.0
 10
4.60587
 20
-8.03691
 30
0.0
 10
3.80587
 20
-8.03691
 30
0.0
 10
3.80587
 20
-8.03691
 30
0.0
 10
3.80587
 20
-8.03691
 30
0.0
 10
3.80587
 20
-8.03691
 30
0.0
 10
3.80587
 20
-8.83691
 30
0.0
 10
3.80587
 20
-8.83691
 30
0.0
 10
3.80587
 20
-8.83691
 30
0.0
 10
3.80587
 20
-8.83691
 30
0.0
 10
3.60587
 20
-8.83691
 30
0.0
 10
3.60587
 20
-8.83691
 30
0.0
 10
3.60587
 20
-8.83691
 30
0.0
 10
3.60587
 20
-8.83691
 30
0.0
 10
3.60587
 20
-9.83691
 30
0.0
 10
3.60587
 20
-9.83691
 30
0.0
 10
3.60587
 20
-9.83691
 30
0.0
 10
3.60587
 20
-9.83691
 30
0.0
 10
3.80587
 20
-9.83691
 30
0.0
 10
3.80587
 20
-9.83691
 30
0.0
 10
3.80587
 20
-9.83691
 30
0.0
 10
3.80587
 20
-9.83691
 30
0.0
 10
3.80587
 20
-10.63691
 30
0.0
 10
3.80587
 20
-10.63691
 30
0.0
 10
3.80587
 20
-10.63691
 30
0.0
 10
3.80587
 20
-10.63691
 30
0.0
 10
4.60587
 20
-10.63691
 30
0.0
 10
4.60587
 20
-10.63691
 30
0.0
 10
4.60587
 20
-10.63691
 30
0.0
 10
4.60587
 20
-10.63691
 30
0.0
 10
4.60587
 20
-10.83691
 30
0.0
 10
4.60587
 20
-10.83691
 30
0.0
 10
4.60587
 20
-10.83691
 30
0.0
 10
4.60587
 20
-10.83691
 30
0.0
 10
5.60587
 20
-10.83691
 30
0.0
 10
5.60587
 20
-10.83691
 30
0.0
 10
5.60587
 20
-10.83691
 30
0.0
 10
5.60587
 20
-10.83691
 30
0.0
 10
5.60587
 20
-10.63691
 30
0.0
 10
5.60587
 20
-10.63691
 30
0.0
 10
5.60587
 20
-10.63691
 30
0.0
 10
5.60587
 20
-10.63691
 30
0.0
 10
6.40587
 20
-10.63691
 30
0.0
 10
6.40587
 20
-10.63691
 30
0.0
 10
6.40587
 20
-10.63691
 30
0.0
 10
6.40587
 20
-10.63691
 30
0.0
 10
6.40587
 20
-9.83691
 30
0.0
 10
6.40587
 20
-9.83691
 30
0.0
 10
6.40587
 20
-9.83691
 30
0.0
 10
6.40587
 20
-9.83691
 30
0.0
 10
6.60587
 20
-9.83691
 30
0.0
 10
6.60587
 20
-9.83691
 30
0.0
 10
6.60587
 20
-9.83691
 30
0.0
 10
6.60587
 20
-9.83691
 30
0.0
 10
6.60587
 20
-8.83691
 30
0.0
 10
6.60587
 20
-8.83691
 30
0.0
 10
6.60587
 20
-8.83691
 30
0.0
 10
6.60587
 20
-8.83691
 30
0.0
 10
6.40587
 20
-8.83691
 30
0.0
 10
6.40587
 20
-8.83691
 30
0.0
 10
6.40587
 20
-8.83691
 30
0.0
 10
6.40587
 20
-8.83691
 30
0.0
 10
6.40587
 20
-8.03691
 30
0.0
 10
6.40587
 20
-8.03691
 30
0.0
 10
6.40587
 20
-8.03691
 30
0.0
 10
6.40587
 20
-8.03691
 30
0.0
 10
5.60587
 20
-8.03691
 30
0.0
 10
5.60587
 20
-8.03691
 30
0.0
 10
5.60587
 20
-8.03691
 30
0.0
 10
5.60587
 20
-8.03691
 30
0.0
 10
5.60587
 20
-7.83691
 30
0.0
 10
5.60587
 20
-7.83691
 30
0.0
 10
5.60587
 20
-7.83691
 30
0.0
 10
5.60587
 20
-7.83691
 30
0.0
 10
4.60587
 20
-7.83691
 30
0.0
 10
4.60587
 20
-7.83691
 30
0.0
  0
SPLINE
  5
64
330
1F
100
AcDbEntity
  8
0
 62
   250
370
    20
100
AcDbSpline
210
0.0
220
0.0
230
1.0
 70
    11
 71
     3
 72
    44
 73
    40
 74
     0
 42
0.0000000001
 43
0.0000000001
 40
0.0
 40
0.0
 40
0.0
 40
0.0
 40
0.1
 40
0.1
 40
0.1
 40
0.1
 40
0.2
 40
0.2
 40
0.2
 40
0.2
 40
0.3
 40
0.3
 40
0.3
 40
0.3
 40
0.4
 40
0.4
 40
0.4
 40
0.4
 40
0.5
 40
0.5
 40
0.5
 40
0.5
 40
0.6
 40
0.6
 40
0.6
 40
0.6
 40
0.7
 40
0.7
 40
0.7
 40
0.7
 40
0.7999999999999999
 40
0.7999999999999999
 40
0.7999999999999999
 40
0.7999999999999999
 40
0.8999999999999999
 40
0.8999999999999999
 40
0.8999999999999999
 40
0.8999999999999999
 40
1.0
 40
1.0
 40
1.0
 40
1.0
 10
-3.92428
 20
9.61463
 30
0.0
 10
-3.92428
 20
9.61463
 30
0.0
 10
-3.76337
 20
9.49773
 30
0.0
 10
-3.76337
 20
9.49773
 30
0.0
 10
-3.76337
 20
9.49773
 30
0.0
 10
-3.76337
 20
9.49773
 30
0.0
 10
-3.60246
 20
9.38082
 30
0.0
 10
-3.60246
 20
9.38082
 30
0.0
 10
-3.60246
 20
9.38082
 30
0.0
 10
-3.60246
 20
9.38082
 30
0.0
 10
-3.66392
 20
9.19165
 30
0.0
 10
-3.66392
 20
9.19165
 30
0.0
 10
-3.66392
 20
9.19165
 30
0.0
 10
-3.66392
 20
9.19165
 30
0.0
 10
-3.72538
 20
9.00249
 30
0.0
 10
-3.72538
 20
9.00249
 30
0.0
 10
-3.72538
 20
9.00249
 30
0.0
 10
-3.72538
 20
9.00249
 30
0.0
 10
-3.92428
 20
9.00249
 30
0.0
 10
-3.92428
 20
9.00249
 30
0.0
 10
-3.92428
 20
9.00249
 30
0.0
 10
-3.92428
 20
9.00249
 30
0.0
 10
-4.12318
 20
9.00249
 30
0.0
 10
-4.12318
 20
9.00249
 30
0.0
 10
-4.12318
 20
9.00249
 30
0.0
 10
-4.12318
 20
9.00249
 30
0.0
 10
-4.18464
 20
9.19165
 30
0.0
 10
-4.18464
 20
9.19165
 30
0.0
 10
-4.18464
 20
9.19165
 30
0.0
 10
-4.18464
 20
9.19165
 30
0.0
 10
-4.2461
 20
9.38082
 30
0.0
 10
-4.2461
 20
9.38082
 30
0.0
 10
-4.2461
 20
9.38082
 30
0.0
 10
-4.2461
 20
9.38082
 30
0.0
 10
-4.08519
 20
9.49773
 30
0.0
 10
-4.08519
 20
9.49773
 30
0.0
 10
-4.08519
 20
9.49773
 30
0.0
 10
-4.08519
 20
9.49773
 30
0.0
 10
-3.92428
 20
9.61463
 30
0.0
 10
-3.92428
 20
9.61463
 30
0.0
  0
SPLINE
  5
65
330
1F
100
AcDbEntity
  8
0
 62
   250
370
    20
100
AcDbSpline
210
0.0
220
0.0
230
1.0
 70
    11
 71
     3
 72
    44
 73
    40
 74
     0
 42
0.0000000001
 43
0.0000000001
 40
0.0
 40
0.0
 40
0.0
 40
0.0
 40
0.1
 40
0.1
 40
0.1
 40
0.1
 40
0.2
 40
0.2
 40
0.2
 40
0.2
 40
0.3
 40
0.3
 40
0.3
 40
0.3
 40
0.4
 40
0.4
 40
0.4
 40
0.4
 40
0.5
 40
0.5
 40
0.5
 40
0.5
 40
0.6
 40
0.6
 40
0.6
 40
0.6
 40
0.7
 40
0.7
 40
0.7
 40
0.7
 40
0.7999999999999999
 40
0.7999999999999999
 40
0.7999999999999999
 40
0.7999999999999999
 40
0.8999999999999999
 40
0.8999999999999999
 40
0.8999999999999999
 40
0.8999999999999999
 40
1.0
 40
1.0
 40
1.0
 40
1.0
 10
4.64395
 20
10.04401
 30
0.0
 10
4.64395
 20
10.04401
 30
0.0
 10
4.74604
 20
9.96984
 30
0.0
 10
4.74604
 20
9.96984
 30
0.0
 10
4.74604
 20
9.96984
 30
0.0
 10
4.74604
 20
9.96984
 30
0.0
 10
4.84814
 20
9.89566
 30
0.0
 10
4.84814
 20
9.89566
 30
0.0
 10
4.84814
 20
9.89566
 30
0.0
 10
4.84814
 20
9.89566
 30
0.0
 10
4.80914
 20
9.77565
 30
0.0
 10
4.80914
 20
9.77565
 30
0.0
 10
4.80914
 20
9.77565
 30
0.0
 10
4.80914
 20
9.77565
 30
0.0
 10
4.77014
 20
9.65563
 30
0.0
 10
4.77014
 20
9.65563
 30
0.0
 10
4.77014
 20
9.65563
 30
0.0
 10
4.77014
 20
9.65563
 30
0.0
 10
4.64395
 20
9.65563
 30
0.0
 10
4.64395
 20
9.65563
 30
0.0
 10
4.64395
 20
9.65563
 30
0.0
 10
4.64395
 20
9.65563
 30
0.0
 10
4.51776
 20
9.65563
 30
0.0
 10
4.51776
 20
9.65563
 30
0.0
 10
4.51776
 20
9.65563
 30
0.0
 10
4.51776
 20
9.65563
 30
0.0
 10
4.47876
 20
9.77565
 30
0.0
 10
4.47876
 20
9.77565
 30
0.0
 10
4.47876
 20
9.77565
 30
0.0
 10
4.47876
 20
9.77565
 30
0.0
 10
4.43976
 20
9.89566
 30
0.0
 10
4.43976
 20
9.89566
 30
0.0
 10
4.43976
 20
9.89566
 30
0.0
 10
4.43976
 20
9.89566
 30
0.0
 10
4.54186
 20
9.96984
 30
0.0
 10
4.54186
 20
9.96984
 30
0.0
 10
4.54186
 20
9.96984
 30
0.0
 10
4.54186
 20
9.96984
 30
0.0
 10
4.64395
 20
10.04401
 30
0.0
 10
4.64395
 20
10.04401
 30
0.0
  0
SPLINE
  5
66
330
1F
100
AcDbEntity
  8
0
 62
   250
370
    20
100
AcDbSpline
210
0.0
220
0.0
230
1.0
 70
    11
 71
     3
 72
    44
 73
    40
 74
     0
 42
0.0000000001
 43
0.0000000001
 40
0.0
 40
0.0
 40
0.0
 40
0.0
 40
0.1
 40
0.1
 40
0.1
 40
0.1
 40
0.2
 40
0.2
 40
0.2
 40
0.2
 40
0.3
 40
0.3
 40
0.3
 40
0.3
 40
0.4
 40
0.4
 40
0.4
 40
0.4
 40
0.5
 40
0.5
 40
0.5
 40
0.5
 40
0.6
 40
0.6
 40
0.6
 40
0.6
 40
0.7
 40
0.7
 40
0.7
 40
0.7
 40
0.7999999999999999
 40
0.7999999999999999
 40
0.7999999999999999
 40
0.7999999999999999
 40
0.8999999999999999
 40
0.8999999999999999
 40
0.8999999999999999
 40
0.8999999999999999
 40
1.0
 40
1.0
 40
1.0
 40
1.0
 10
5.66355
 20
10.05006
 30
0.0
 10
5.66355
 20
10.05006
 30
0.0
 10
5.76564
 20
9.97589
 30
0.0
 10
5.76564
 20
9.97589
 30
0.0
 10
5.76564
 20
9.97589
 30
0.0
 10
5.76564
 20
9.97589
 30
0.0
 10
5.86774
 20
9.90171
 30
0.0
 10
5.86774
 20
9.90171
 30
0.0
 10
5.86774
 20
9.90171
 30
0.0
 10
5.86774
 20
9.90171
 30
0.0
 10
5.82874
 20
9.7817
 30
0.0
 10
5.82874
 20
9.7817
 30
0.0
 10
5.82874
 20
9.7817
 30
0.0
 10
5.82874
 20
9.7817
 30
0.0
 10
5.78974
 20
9.66168
 30
0.0
 10
5.78974
 20
9.66168
 30
0.0
 10
5.78974
 20
9.66168
 30
0.0
 10
5.78974
 20
9.66168
 30
0.0
 10
5.66355
 20
9.66168
 30
0.0
 10
5.66355
 20
9.66168
 30
0.0
 10
5.66355
 20
9.66168
 30
0.0
 10
5.66355
 20
9.66168
 30
0.0
 10
5.53736
 20
9.66168
 30
0.0
 10
5.53736
 20
9.66168
 30
0.0
 10
5.53736
 20
9.66168
 30
0.0
 10
5.53736
 20
9.66168
 30
0.0
 10
5.49836
 20
9.7817
 30
0.0
 10
5.49836
 20
9.7817
 30
0.0
 10
5.49836
 20
9.7817
 30
0.0
 10
5.49836
 20
9.7817
 30
0.0
 10
5.45936
 20
9.90171
 30
0.0
 10
5.45936
 20
9.90171
 30
0.0
 10
5.45936
 20
9.90171
 30
0.0
 10
5.45936
 20
9.90171
 30
0.0
 10
5.56146
 20
9.97589
 30
0.0
 10
5.56146
 20
9.97589
 30
0.0
 10
5.56146
 20
9.97589
 30
0.0
 10
5.56146
 20
9.97589
 30
0.0
 10
5.66355
 20
10.05006
 30
0.0
 10
5.66355
 20
10.05006
 30
0.0
  0
SPLINE
  5
67
330
1F
100
AcDbEntity
  8
0
 62
   250
370
    20
100
AcDbSpline
210
0.0
220
0.0
230
1.0
 70
    11
 71
     3
 72
    44
 73
    40
 74
     0
 42
0.0000000001
 43
0.0000000001
 40
0.0
 40
0.0
 40
0.0
 40
0.0
 40
0.1
 40
0.1
 40
0.1
 40
0.1
 40
0.2
 40
0.2
 40
0.2
 40
0.2
 40
0.3
 40
0.3
 40
0.3
 40
0.3
 40
0.4
 40
0.4
 40
0.4
 40
0.4
 40
0.5
 40
0.5
 40
0.5
 40
0.5
 40
0.6
 40
0.6
 40
0.6
 40
0.6
 40
0.7
 40
0.7
 40
0.7
 40
0.7
 40
0.7999999999999999
 40
0.7999999999999999
 40
0.7999999999999999
 40
0.7999999999999999
 40
0.8999999999999999
 40
0.8999999999999999
 40
0.8999999999999999
 40
0.8999999999999999
 40
1.0
 40
1.0
 40
1.0
 40
1.0
 10
4.64395
 20
9.51816
 30
0.0
 10
4.64395
 20
9.51816
 30
0.0
 10
4.74604
 20
9.44399
 30
0.0
 10
4.74604
 20
9.44399
 30
0.0
 10
4.74604
 20
9.44399
 30
0.0
 10
4.74604
 20
9.44399
 30
0.0
 10
4.84814
 20
9.36981
 30
0.0
 10
4.84814
 20
9.36981
 30
0.0
 10
4.84814
 20
9.36981
 30
0.0
 10
4.84814
 20
9.36981
 30
0.0
 10
4.80914
 20
9.2498
 30
0.0
 10
4.80914
 20
9.2498
 30
0.0
 10
4.80914
 20
9.2498
 30
0.0
 10
4.80914
 20
9.2498
 30
0.0
 10
4.77014
 20
9.12978
 30
0.0
 10
4.77014
 20
9.12978
 30
0.0
 10
4.77014
 20
9.12978
 30
0.0
 10
4.77014
 20
9.12978
 30
0.0
 10
4.64395
 20
9.12978
 30
0.0
 10
4.64395
 20
9.12978
 30
0.0
 10
4.64395
 20
9.12978
 30
0.0
 10
4.64395
 20
9.12978
 30
0.0
 10
4.51776
 20
9.12978
 30
0.0
 10
4.51776
 20
9.12978
 30
0.0
 10
4.51776
 20
9.12978
 30
0.0
 10
4.51776
 20
9.12978
 30
0.0
 10
4.47876
 20
9.2498
 30
0.0
 10
4.47876
 20
9.2498
 30
0.0
 10
4.47876
 20
9.2498
 30
0.0
 10
4.47876
 20
9.2498
 30
0.0
 10
4.43976
 20
9.36981
 30
0.0
 10
4.43976
 20
9.36981
 30
0.0
 10
4.43976
 20
9.36981
 30
0.0
 10
4.43976
 20
9.36981
 30
0.0
 10
4.54186
 20
9.44399
 30
0.0
 10
4.54186
 20
9.44399
 30
0.0
 10
4.54186
 20
9.44399
 30
0.0
 10
4.54186
 20
9.44399
 30
0.0
 10
4.64395
 20
9.51816
 30
0.0
 10
4.64395
 20
9.51816
 30
0.0
  0
SPLINE
  5
68
330
1F
100
AcDbEntity
  8
0
 62
   250
370
    20
100
AcDbSpline
210
0.0
220
0.0
230
1.0
 70
    11
 71
     3
 72
    44
 73
    40
 74
     0
 42
0.0000000001
 43
0.0000000001
 40
0.0
 40
0.0
 40
0.0
 40
0.0
 40
0.1
 40
0.1
 40
0.1
 40
0.1
 40
0.2
 40
0.2
 40
0.2
 40
0.2
 40
0.3
 40
0.3
 40
0.3
 40
0.3
 40
0.4
 40
0.4
 40
0.4
 40
0.4
 40
0.5
 40
0.5
 40
0.5
 40
0.5
 40
0.6
 40
0.6
 40
0.6
 40
0.6
 40
0.7
 40
0.7
 40
0.7
 40
0.7
 40
0.7999999999999999
 40
0.7999999999999999
 40
0.7999999999999999
 40
0.7999999999999999
 40
0.8999999999999999
 40
0.8999999999999999
 40
0.8999999999999999
 40
0.8999999999999999
 40
1.0
 40
1.0
 40
1.0
 40
1.0
 10
4.64395
 20
8.9679
 30
0.0
 10
4.64395
 20
8.9679
 30
0.0
 10
4.74604
 20
8.89373
 30
0.0
 10
4.74604
 20
8.89373
 30
0.0
 10
4.74604
 20
8.89373
 30
0.0
 10
4.74604
 20
8.89373
 30
0.0
 10
4.84814
 20
8.81955
 30
0.0
 10
4.84814
 20
8.81955
 30
0.0
 10
4.84814
 20
8.81955
 30
0.0
 10
4.84814
 20
8.81955
 30
0.0
 10
4.80914
 20
8.69954
 30
0.0
 10
4.80914
 20
8.69954
 30
0.0
 10
4.80914
 20
8.69954
 30
0.0
 10
4.80914
 20
8.69954
 30
0.0
 10
4.77014
 20
8.57952
 30
0.0
 10
4.77014
 20
8.57952
 30
0.0
 10
4.77014
 20
8.57952
 30
0.0
 10
4.77014
 20
8.57952
 30
0.0
 10
4.64395
 20
8.57952
 30
0.0
 10
4.64395
 20
8.57952
 30
0.0
 10
4.64395
 20
8.57952
 30
0.0
 10
4.64395
 20
8.57952
 30
0.0
 10
4.51776
 20
8.57952
 30
0.0
 10
4.51776
 20
8.57952
 30
0.0
 10
4.51776
 20
8.57952
 30
0.0
 10
4.51776
 20
8.57952
 30
0.0
 10
4.47876
 20
8.69954
 30
0.0
 10
4.47876
 20
8.69954
 30
0.0
 10
4.47876
 20
8.69954
 30
0.0
 10
4.47876
 20
8.69954
 30
0.0
 10
4.43976
 20
8.81955
 30
0.0
 10
4.43976
 20
8.81955
 30
0.0
 10
4.43976
 20
8.81955
 30
0.0
 10
4.43976
 20
8.81955
 30
0.0
 10
4.54186
 20
8.89373
 30
0.0
 10
4.54186
 20
8.89373
 30
0.0
 10
4.54186
 20
8.89373
 30
0.0
 10
4.54186
 20
8.89373
 30
0.0
 10
4.64395
 20
8.9679
 30
0.0
 10
4.64395
 20
8.9679
 30
0.0
  0
SPLINE
  5
69
330
1F
100
AcDbEntity
  8
0
 62
   250
370
    20
100
AcDbSpline
210
0.0
220
0.0
230
1.0
 70
    11
 71
     3
 72
    44
 73
    40
 74
     0
 42
0.0000000001
 43
0.0000000001
 40
0.0
 40
0.0
 40
0.0
 40
0.0
 40
0.1
 40
0.1
 40
0.1
 40
0.1
 40
0.2
 40
0.2
 40
0.2
 40
0.2
 40
0.3
 40
0.3
 40
0.3
 40
0.3
 40
0.4
 40
0.4
 40
0.4
 40
0.4
 40
0.5
 40
0.5
 40
0.5
 40
0.5
 40
0.6
 40
0.6
 40
0.6
 40
0.6
 40
0.7
 40
0.7
 40
0.7
 40
0.7
 40
0.7999999999999999
 40
0.7999999999999999
 40
0.7999999999999999
 40
0.7999999999999999
 40
0.8999999999999999
 40
0.8999999999999999
 40
0.8999999999999999
 40
0.8999999999999999
 40
1.0
 40
1.0
 40
1.0
 40
1.0
 10
5.66355
 20
8.9679
 30
0.0
 10
5.66355
 20
8.9679
 30
0.0
 10
5.76564
 20
8.89373
 30
0.0
 10
5.76564
 20
8.89373
 30
0.0
 10
5.76564
 20
8.89373
 30
0.0
 10
5.76564
 20
8.89373
 30
0.0
 10
5.86774
 20
8.81955
 30
0.0
 10
5.86774
 20
8.81955
 30
0.0
 10
5.86774
 20
8.81955
 30
0.0
 10
5.86774
 20
8.81955
 30
0.0
 10
5.82874
 20
8.69954
 30
0.0
 10
5.82874
 20
8.69954
 30
0.0
 10
5.82874
 20
8.69954
 30
0.0
 10
5.82874
 20
8.69954
 30
0.0
 10
5.78974
 20
8.57952
 30
0.0
 10
5.78974
 20
8.57952
 30
0.0
 10
5.78974
 20
8.57952
 30
0.0
 10
5.78974
 20
8.57952
 30
0.0
 10
5.66355
 20
8.57952
 30
0.0
 10
5.66355
 20
8.57952
 30
0.0
 10
5.66355
 20
8.57952
 30
0.0
 10
5.66355
 20
8.57952
 30
0.0
 10
5.53736
 20
8.57952
 30
0.0
 10
5.53736
 20
8.57952
 30
0.0
 10
5.53736
 20
8.57952
 30
0.0
 10
5.53736
 20
8.57952
 30
0.0
 10
5.49836
 20
8.69954
 30
0.0
 10
5.49836
 20
8.69954
 30
0.0
 10
5.49836
 20
8.69954
 30
0.0
 10
5.49836
 20
8.69954
 30
0.0
 10
5.45936
 20
8.81955
 30
0.0
 10
5.45936
 20
8.81955
 30
0.0
 10
5.45936
 20
8.81955
 30
0.0
 10
5.45936
 20
8.81955
 30
0.0
 10
5.56146
 20
8.89373
 30
0.0
 10
5.56146
 20
8.89373
 30
0.0
 10
5.56146
 20
8.89373
 30
0.0
 10
5.56146
 20
8.89373
 30
0.0
 10
5.66355
 20
8.9679
 30
0.0
 10
5.66355
 20
8.9679
 30
0.0
  0
SPLINE
  5
6A
330
1F
100
AcDbEntity
  8
0
 62
   250
370
    20
100
AcDbSpline
210
0.0
220
0.0
230
1.0
 70
    11
 71
     3
 72
    44
 73
    40
 74
     0
 42
0.0000000001
 43
0.0000000001
 40
0.0
 40
0.0
 40
0.0
 40
0.0
 40
0.1
 40
0.1
 40
0.1
 40
0.1
 40
0.2
 40
0.2
 40
0.2
 40
0.2
 40
0.3
 40
0.3
 40
0.3
 40
0.3
 40
0.4
 40
0.4
 40
0.4
 40
0.4
 40
0.5
 40
0.5
 40
0.5
 40
0.5
 40
0.6
 40
0.6
 40
0.6
 40
0.6
 40
0.7
 40
0.7
 40
0.7
 40
0.7
 40
0.7999999999999999
 40
0.7999999999999999
 40
0.7999999999999999
 40
0.7999999999999999
 40
0.8999999999999999
 40
0.8999999999999999
 40
0.8999999999999999
 40
0.8999999999999999
 40
1.0
 40
1.0
 40
1.0
 40
1.0
 10
5.66355
 20
9.52835
 30
0.0
 10
5.66355
 20
9.52835
 30
0.0
 10
5.76564
 20
9.45418
 30
0.0
 10
5.76564
 20
9.45418
 30
0.0
 10
5.76564
 20
9.45418
 30
0.0
 10
5.76564
 20
9.45418
 30
0.0
 10
5.86774
 20
9.38
 30
0.0
 10
5.86774
 20
9.38
 30
0.0
 10
5.86774
 20
9.38
 30
0.0
 10
5.86774
 20
9.38
 30
0.0
 10
5.82874
 20
9.25999
 30
0.0
 10
5.82874
 20
9.25999
 30
0.0
 10
5.82874
 20
9.25999
 30
0.0
 10
5.82874
 20
9.25999
 30
0.0
 10
5.78974
 20
9.13997
 30
0.0
 10
5.78974
 20
9.13997
 30
0.0
 10
5.78974
 20
9.13997
 30
0.0
 10
5.78974
 20
9.13997
 30
0.0
 10
5.66355
 20
9.13997
 30
0.0
 10
5.66355
 20
9.13997
 30
0.0
 10
5.66355
 20
9.13997
 30
0.0
 10
5.66355
 20
9.13997
 30
0.0
 10
5.53736
 20
9.13997
 30
0.0
 10
5.53736
 20
9.13997
 30
0.0
 10
5.53736
 20
9.13997
 30
0.0
 10
5.53736
 20
9.13997
 30
0.0
 10
5.49836
 20
9.25999
 30
0.0
 10
5.49836
 20
9.25999
 30
0.0
 10
5.49836
 20
9.25999
 30
0.0
 10
5.49836
 20
9.25999
 30
0.0
 10
5.45936
 20
9.38
 30
0.0
 10
5.45936
 20
9.38
 30
0.0
 10
5.45936
 20
9.38
 30
0.0
 10
5.45936
 20
9.38
 30
0.0
 10
5.56146
 20
9.45418
 30
0.0
 10
5.56146
 20
9.45418
 30
0.0
 10
5.56146
 20
9.45418
 30
0.0
 10
5.56146
 20
9.45418
 30
0.0
 10
5.66355
 20
9.52835
 30
0.0
 10
5.66355
 20
9.52835
 30
0.0
  0
SPLINE
  5
6B
330
1F
100
AcDbEntity
  8
0
 62
   250
370
    20
100
AcDbSpline
210
0.0
220
0.0
230
1.0
 70
    11
 71
     3
 72
    44
 73
    40
 74
     0
 42
0.0000000001
 43
0.0000000001
 40
0.0
 40
0.0
 40
0.0
 40
0.0
 40
0.1
 40
0.1
 40
0.1
 40
0.1
 40
0.2
 40
0.2
 40
0.2
 40
0.2
 40
0.3
 40
0.3
 40
0.3
 40
0.3
 40
0.4
 40
0.4
 40
0.4
 40
0.4
 40
0.5
 40
0.5
 40
0.5
 40
0.5
 40
0.6
 40
0.6
 40
0.6
 40
0.6
 40
0.7
 40
0.7
 40
0.7
 40
0.7
 40
0.7999999999999999
 40
0.7999999999999999
 40
0.7999999999999999
 40
0.7999999999999999
 40
0.8999999999999999
 40
0.8999999999999999
 40
0.8999999999999999
 40
0.8999999999999999
 40
1.0
 40
1.0
 40
1.0
 40
1.0
 10
-5.44814
 20
2.11665
 30
0.0
 10
-5.44814
 20
2.11665
 30
0.0
 10
-5.32559
 20
2.03158
 30
0.0
 10
-5.32559
 20
2.03158
 30
0.0
 10
-5.32559
 20
2.03158
 30
0.0
 10
-5.32559
 20
2.03158
 30
0.0
 10
-5.20305
 20
1.94648
 30
0.0
 10
-5.20305
 20
1.94648
 30
0.0
 10
-5.20305
 20
1.94648
 30
0.0
 10
-5.20305
 20
1.94648
 30
0.0
 10
-5.24986
 20
1.80882
 30
0.0
 10
-5.24986
 20
1.80882
 30
0.0
 10
-5.24986
 20
1.80882
 30
0.0
 10
-5.24986
 20
1.80882
 30
0.0
 10
-5.29667
 20
1.67116
 30
0.0
 10
-5.29667
 20
1.67116
 30
0.0
 10
-5.29667
 20
1.67116
 30
0.0
 10
-5.29667
 20
1.67116
 30
0.0
 10
-5.44814
 20
1.67116
 30
0.0
 10
-5.44814
 20
1.67116
 30
0.0
 10
-5.44814
 20
1.67116
 30
0.0
 10
-5.44814
 20
1.67116
 30
0.0
 10
-5.59962
 20
1.67116
 30
0.0
 10
-5.59962
 20
1.67116
 30
0.0
 10
-5.59962
 20
1.67116
 30
0.0
 10
-5.59962
 20
1.67116
 30
0.0
 10
-5.64643
 20
1.80882
 30
0.0
 10
-5.64643
 20
1.80882
 30
0.0
 10
-5.64643
 20
1.80882
 30
0.0
 10
-5.64643
 20
1.80882
 30
0.0
 10
-5.69324
 20
1.94648
 30
0.0
 10
-5.69324
 20
1.94648
 30
0.0
 10
-5.69324
 20
1.94648
 30
0.0
 10
-5.69324
 20
1.94648
 30
0.0
 10
-5.5707
 20
2.03158
 30
0.0
 10
-5.5707
 20
2.03158
 30
0.0
 10
-5.5707
 20
2.03158
 30
0.0
 10
-5.5707
 20
2.03158
 30
0.0
 10
-5.44814
 20
2.11665
 30
0.0
 10
-5.44814
 20
2.11665
 30
0.0
  0
SPLINE
  5
6C
330
1F
100
AcDbEntity
  8
0
 62
   250
370
    20
100
AcDbSpline
210
0.0
220
0.0
230
1.0
 70
    11
 71
     3
 72
    44
 73
    40
 74
     0
 42
0.0000000001
 43
0.0000000001
 40
0.0
 40
0.0
 40
0.0
 40
0.0
 40
0.1
 40
0.1
 40
0.1
 40
0.1
 40
0.2
 40
0.2
 40
0.2
 40
0.2
 40
0.3
 40
0.3
 40
0.3
 40
0.3
 40
0.4
 40
0.4
 40
0.4
 40
0.4
 40
0.5
 40
0.5
 40
0.5
 40
0.5
 40
0.6
 40
0.6
 40
0.6
 40
0.6
 40
0.7
 40
0.7
 40
0.7
 40
0.7
 40
0.7999999999999999
 40
0.7999999999999999
 40
0.7999999999999999
 40
0.7999999999999999
 40
0.8999999999999999
 40
0.8999999999999999
 40
0.8999999999999999
 40
0.8999999999999999
 40
1.0
 40
1.0
 40
1.0
 40
1.0
 10
-4.92571
 20
1.59421
 30
0.0
 10
-4.92571
 20
1.59421
 30
0.0
 10
-4.80316
 20
1.50913
 30
0.0
 10
-4.80316
 20
1.50913
 30
0.0
 10
-4.80316
 20
1.50913
 30
0.0
 10
-4.80316
 20
1.50913
 30
0.0
 10
-4.68062
 20
1.42405
 30
0.0
 10
-4.68062
 20
1.42405
 30
0.0
 10
-4.68062
 20
1.42405
 30
0.0
 10
-4.68062
 20
1.42405
 30
0.0
 10
-4.72743
 20
1.28638
 30
0.0
 10
-4.72743
 20
1.28638
 30
0.0
 10
-4.72743
 20
1.28638
 30
0.0
 10
-4.72743
 20
1.28638
 30
0.0
 10
-4.77424
 20
1.14872
 30
0.0
 10
-4.77424
 20
1.14872
 30
0.0
 10
-4.77424
 20
1.14872
 30
0.0
 10
-4.77424
 20
1.14872
 30
0.0
 10
-4.92571
 20
1.14872
 30
0.0
 10
-4.92571
 20
1.14872
 30
0.0
 10
-4.92571
 20
1.14872
 30
0.0
 10
-4.92571
 20
1.14872
 30
0.0
 10
-5.07719
 20
1.14872
 30
0.0
 10
-5.07719
 20
1.14872
 30
0.0
 10
-5.07719
 20
1.14872
 30
0.0
 10
-5.07719
 20
1.14872
 30
0.0
 10
-5.124
 20
1.28638
 30
0.0
 10
-5.124
 20
1.28638
 30
0.0
 10
-5.124
 20
1.28638
 30
0.0
 10
-5.124
 20
1.28638
 30
0.0
 10
-5.17081
 20
1.42405
 30
0.0
 10
-5.17081
 20
1.42405
 30
0.0
 10
-5.17081
 20
1.42405
 30
0.0
 10
-5.17081
 20
1.42405
 30
0.0
 10
-5.04827
 20
1.50913
 30
0.0
 10
-5.04827
 20
1.50913
 30
0.0
 10
-5.04827
 20
1.50913
 30
0.0
 10
-5.04827
 20
1.50913
 30
0.0
 10
-4.92571
 20
1.59421
 30
0.0
 10
-4.92571
 20
1.59421
 30
0.0
  0
SPLINE
  5
6D
330
1F
100
AcDbEntity
  8
0
 62
   250
370
    20
100
AcDbSpline
210
0.0
220
0.0
230
1.0
 70
    11
 71
     3
 72
    44
 73
    40
 74
     0
 42
0.0000000001
 43
0.0000000001
 40
0.0
 40
0.0
 40
0.0
 40
0.0
 40
0.1
 40
0.1
 40
0.1
 40
0.1
 40
0.2
 40
0.2
 40
0.2
 40
0.2
 40
0.3
 40
0.3
 40
0.3
 40
0.3
 40
0.4
 40
0.4
 40
0.4
 40
0.4
 40
0.5
 40
0.5
 40
0.5
 40
0.5
 40
0.6
 40
0.6
 40
0.6
 40
0.6
 40
0.7
 40
0.7
 40
0.7
 40
0.7
 40
0.7999999999999999
 40
0.7999999999999999
 40
0.7999999999999999
 40
0.7999999999999999
 40
0.8999999999999999
 40
0.8999999999999999
 40
0.8999999999999999
 40
0.8999999999999999
 40
1.0
 40
1.0
 40
1.0
 40
1.0
 10
-4.39537
 20
1.01861
 30
0.0
 10
-4.39537
 20
1.01861
 30
0.0
 10
-4.27282
 20
0.93353
 30
0.0
 10
-4.27282
 20
0.93353
 30
0.0
 10
-4.27282
 20
0.93353
 30
0.0
 10
-4.27282
 20
0.93353
 30
0.0
 10
-4.15028
 20
0.84845
 30
0.0
 10
-4.15028
 20
0.84845
 30
0.0
 10
-4.15028
 20
0.84845
 30
0.0
 10
-4.15028
 20
0.84845
 30
0.0
 10
-4.19709
 20
0.71078
 30
0.0
 10
-4.19709
 20
0.71078
 30
0.0
 10
-4.19709
 20
0.71078
 30
0.0
 10
-4.19709
 20
0.71078
 30
0.0
 10
-4.2439
 20
0.57312
 30
0.0
 10
-4.2439
 20
0.57312
 30
0.0
 10
-4.2439
 20
0.57312
 30
0.0
 10
-4.2439
 20
0.57312
 30
0.0
 10
-4.39537
 20
0.57312
 30
0.0
 10
-4.39537
 20
0.57312
 30
0.0
 10
-4.39537
 20
0.57312
 30
0.0
 10
-4.39537
 20
0.57312
 30
0.0
 10
-4.54685
 20
0.57312
 30
0.0
 10
-4.54685
 20
0.57312
 30
0.0
 10
-4.54685
 20
0.57312
 30
0.0
 10
-4.54685
 20
0.57312
 30
0.0
 10
-4.59366
 20
0.71078
 30
0.0
 10
-4.59366
 20
0.71078
 30
0.0
 10
-4.59366
 20
0.71078
 30
0.0
 10
-4.59366
 20
0.71078
 30
0.0
 10
-4.64047
 20
0.84845
 30
0.0
 10
-4.64047
 20
0.84845
 30
0.0
 10
-4.64047
 20
0.84845
 30
0.0
 10
-4.64047
 20
0.84845
 30
0.0
 10
-4.51793
 20
0.93353
 30
0.0
 10
-4.51793
 20
0.93353
 30
0.0
 10
-4.51793
 20
0.93353
 30
0.0
 10
-4.51793
 20
0.93353
 30
0.0
 10
-4.39537
 20
1.01861
 30
0.0
 10
-4.39537
 20
1.01861
 30
0.0
  0
SPLINE
  5
6E
330
1F
100
AcDbEntity
  8
0
 62
   250
370
    20
100
AcDbSpline
210
0.0
220
0.0
230
1.0
 70
    11
 71
     3
 72
    44
 73
    40
 74
     0
 42
0.0000000001
 43
0.0000000001
 40
0.0
 40
0.0
 40
0.0
 40
0.0
 40
0.1
 40
0.1
 40
0.1
 40
0.1
 40
0.2
 40
0.2
 40
0.2
 40
0.2
 40
0.3
 40
0.3
 40
0.3
 40
0.3
 40
0.4
 40
0.4
 40
0.4
 40
0.4
 40
0.5
 40
0.5
 40
0.5
 40
0.5
 40
0.6
 40
0.6
 40
0.6
 40
0.6
 40
0.7
 40
0.7
 40
0.7
 40
0.7
 40
0.7999999999999999
 40
0.7999999999999999
 40
0.7999999999999999
 40
0.7999999999999999
 40
0.8999999999999999
 40
0.8999999999999999
 40
0.8999999999999999
 40
0.8999999999999999
 40
1.0
 40
1.0
 40
1.0
 40
1.0
 10
4.67721
 20
2.24179
 30
0.0
 10
4.67721
 20
2.24179
 30
0.0
 10
4.77897
 20
2.1661
 30
0.0
 10
4.77897
 20
2.1661
 30
0.0
 10
4.77897
 20
2.1661
 30
0.0
 10
4.77897
 20
2.1661
 30
0.0
 10
4.88073
 20
2.09041
 30
0.0
 10
4.88073
 20
2.09041
 30
0.0
 10
4.88073
 20
2.09041
 30
0.0
 10
4.88073
 20
2.09041
 30
0.0
 10
4.84186
 20
1.96794
 30
0.0
 10
4.84186
 20
1.96794
 30
0.0
 10
4.84186
 20
1.96794
 30
0.0
 10
4.84186
 20
1.96794
 30
0.0
 10
4.80299
 20
1.84547
 30
0.0
 10
4.80299
 20
1.84547
 30
0.0
 10
4.80299
 20
1.84547
 30
0.0
 10
4.80299
 20
1.84547
 30
0.0
 10
4.67721
 20
1.84547
 30
0.0
 10
4.67721
 20
1.84547
 30
0.0
 10
4.67721
 20
1.84547
 30
0.0
 10
4.67721
 20
1.84547
 30
0.0
 10
4.55143
 20
1.84547
 30
0.0
 10
4.55143
 20
1.84547
 30
0.0
 10
4.55143
 20
1.84547
 30
0.0
 10
4.55143
 20
1.84547
 30
0.0
 10
4.51256
 20
1.96794
 30
0.0
 10
4.51256
 20
1.96794
 30
0.0
 10
4.51256
 20
1.96794
 30
0.0
 10
4.51256
 20
1.96794
 30
0.0
 10
4.47369
 20
2.09041
 30
0.0
 10
4.47369
 20
2.09041
 30
0.0
 10
4.47369
 20
2.09041
 30
0.0
 10
4.47369
 20
2.09041
 30
0.0
 10
4.57545
 20
2.1661
 30
0.0
 10
4.57545
 20
2.1661
 30
0.0
 10
4.57545
 20
2.1661
 30
0.0
 10
4.57545
 20
2.1661
 30
0.0
 10
4.67721
 20
2.24179
 30
0.0
 10
4.67721
 20
2.24179
 30
0.0
  0
SPLINE
  5
6F
330
1F
100
AcDbEntity
  8
0
 62
   250
370
    20
100
AcDbSpline
210
0.0
220
0.0
230
1.0
 70
    11
 71
     3
 72
    44
 73
    40
 74
     0
 42
0.0000000001
 43
0.0000000001
 40
0.0
 40
0.0
 40
0.0
 40
0.0
 40
0.1
 40
0.1
 40
0.1
 40
0.1
 40
0.2
 40
0.2
 40
0.2
 40
0.2
 40
0.3
 40
0.3
 40
0.3
 40
0.3
 40
0.4
 40
0.4
 40
0.4
 40
0.4
 40
0.5
 40
0.5
 40
0.5
 40
0.5
 40
0.6
 40
0.6
 40
0.6
 40
0.6
 40
0.7
 40
0.7
 40
0.7
 40
0.7
 40
0.7999999999999999
 40
0.7999999999999999
 40
0.7999999999999999
 40
0.7999999999999999
 40
0.8999999999999999
 40
0.8999999999999999
 40
0.8999999999999999
 40
0.8999999999999999
 40
1.0
 40
1.0
 40
1.0
 40
1.0
 10
5.83348
 20
2.27112
 30
0.0
 10
5.83348
 20
2.27112
 30
0.0
 10
5.93524
 20
2.19543
 30
0.0
 10
5.93524
 20
2.19543
 30
0.0
 10
5.93524
 20
2.19543
 30
0.0
 10
5.93524
 20
2.19543
 30
0.0
 10
6.037
 20
2.11974
 30
0.0
 10
6.037
 20
2.11974
 30
0.0
 10
6.037
 20
2.11974
 30
0.0
 10
6.037
 20
2.11974
 30
0.0
 10
5.99813
 20
1.99727
 30
0.0
 10
5.99813
 20
1.99727
 30
0.0
 10
5.99813
 20
1.99727
 30
0.0
 10
5.99813
 20
1.99727
 30
0.0
 10
5.95926
 20
1.8748
 30
0.0
 10
5.95926
 20
1.8748
 30
0.0
 10
5.95926
 20
1.8748
 30
0.0
 10
5.95926
 20
1.8748
 30
0.0
 10
5.83348
 20
1.8748
 30
0.0
 10
5.83348
 20
1.8748
 30
0.0
 10
5.83348
 20
1.8748
 30
0.0
 10
5.83348
 20
1.8748
 30
0.0
 10
5.7077
 20
1.8748
 30
0.0
 10
5.7077
 20
1.8748
 30
0.0
 10
5.7077
 20
1.8748
 30
0.0
 10
5.7077
 20
1.8748
 30
0.0
 10
5.66883
 20
1.99727
 30
0.0
 10
5.66883
 20
1.99727
 30
0.0
 10
5.66883
 20
1.99727
 30
0.0
 10
5.66883
 20
1.99727
 30
0.0
 10
5.62996
 20
2.11974
 30
0.0
 10
5.62996
 20
2.11974
 30
0.0
 10
5.62996
 20
2.11974
 30
0.0
 10
5.62996
 20
2.11974
 30
0.0
 10
5.73172
 20
2.19543
 30
0.0
 10
5.73172
 20
2.19543
 30
0.0
 10
5.73172
 20
2.19543
 30
0.0
 10
5.73172
 20
2.19543
 30
0.0
 10
5.83348
 20
2.27112
 30
0.0
 10
5.83348
 20
2.27112
 30
0.0
  0
SPLINE
  5
70
330
1F
100
AcDbEntity
  8
0
 62
   250
370
    20
100
AcDbSpline
210
0.0
220
0.0
230
1.0
 70
    11
 71
     3
 72
    44
 73
    40
 74
     0
 42
0.0000000001
 43
0.0000000001
 40
0.0
 40
0.0
 40
0.0
 40
0.0
 40
0.1
 40
0.1
 40
0.1
 40
0.1
 40
0.2
 40
0.2
 40
0.2
 40
0.2
 40
0.3
 40
0.3
 40
0.3
 40
0.3
 40
0.4
 40
0.4
 40
0.4
 40
0.4
 40
0.5
 40
0.5
 40
0.5
 40
0.5
 40
0.6
 40
0.6
 40
0.6
 40
0.6
 40
0.7
 40
0.7
 40
0.7
 40
0.7
 40
0.7999999999999999
 40
0.7999999999999999
 40
0.7999999999999999
 40
0.7999999999999999
 40
0.8999999999999999
 40
0.8999999999999999
 40
0.8999999999999999
 40
0.8999999999999999
 40
1.0
 40
1.0
 40
1.0
 40
1.0
 10
4.67721
 20
1.31455
 30
0.0
 10
4.67721
 20
1.31455
 30
0.0
 10
4.77897
 20
1.23886
 30
0.0
 10
4.77897
 20
1.23886
 30
0.0
 10
4.77897
 20
1.23886
 30
0.0
 10
4.77897
 20
1.23886
 30
0.0
 10
4.88073
 20
1.16317
 30
0.0
 10
4.88073
 20
1.16317
 30
0.0
 10
4.88073
 20
1.16317
 30
0.0
 10
4.88073
 20
1.16317
 30
0.0
 10
4.84186
 20
1.0407
 30
0.0
 10
4.84186
 20
1.0407
 30
0.0
 10
4.84186
 20
1.0407
 30
0.0
 10
4.84186
 20
1.0407
 30
0.0
 10
4.80299
 20
0.91823
 30
0.0
 10
4.80299
 20
0.91823
 30
0.0
 10
4.80299
 20
0.91823
 30
0.0
 10
4.80299
 20
0.91823
 30
0.0
 10
4.67721
 20
0.91823
 30
0.0
 10
4.67721
 20
0.91823
 30
0.0
 10
4.67721
 20
0.91823
 30
0.0
 10
4.67721
 20
0.91823
 30
0.0
 10
4.55143
 20
0.91823
 30
0.0
 10
4.55143
 20
0.91823
 30
0.0
 10
4.55143
 20
0.91823
 30
0.0
 10
4.55143
 20
0.91823
 30
0.0
 10
4.51256
 20
1.0407
 30
0.0
 10
4.51256
 20
1.0407
 30
0.0
 10
4.51256
 20
1.0407
 30
0.0
 10
4.51256
 20
1.0407
 30
0.0
 10
4.47369
 20
1.16317
 30
0.0
 10
4.47369
 20
1.16317
 30
0.0
 10
4.47369
 20
1.16317
 30
0.0
 10
4.47369
 20
1.16317
 30
0.0
 10
4.57545
 20
1.23886
 30
0.0
 10
4.57545
 20
1.23886
 30
0.0
 10
4.57545
 20
1.23886
 30
0.0
 10
4.57545
 20
1.23886
 30
0.0
 10
4.67721
 20
1.31455
 30
0.0
 10
4.67721
 20
1.31455
 30
0.0
  0
SPLINE
  5
71
330
1F
100
AcDbEntity
  8
0
 62
   250
370
    20
100
AcDbSpline
210
0.0
220
0.0
230
1.0
 70
    11
 71
     3
 72
    44
 73
    40
 74
     0
 42
0.0000000001
 43
0.0000000001
 40
0.0
 40
0.0
 40
0.0
 40
0.0
 40
0.1
 40
0.1
 40
0.1
 40
0.1
 40
0.2
 40
0.2
 40
0.2
 40
0.2
 40
0.3
 40
0.3
 40
0.3
 40
0.3
 40
0.4
 40
0.4
 40
0.4
 40
0.4
 40
0.5
 40
0.5
 40
0.5
 40
0.5
 40
0.6
 40
0.6
 40
0.6
 40
0.6
 40
0.7
 40
0.7
 40
0.7
 40
0.7
 40
0.7999999999999999
 40
0.7999999999999999
 40
0.7999999999999999
 40
0.7999999999999999
 40
0.8999999999999999
 40
0.8999999999999999
 40
0.8999999999999999
 40
0.8999999999999999
 40
1.0
 40
1.0
 40
1.0
 40
1.0
 10
5.82868
 20
1.32979
 30
0.0
 10
5.82868
 20
1.32979
 30
0.0
 10
5.93044
 20
1.2541
 30
0.0
 10
5.93044
 20
1.2541
 30
0.0
 10
5.93044
 20
1.2541
 30
0.0
 10
5.93044
 20
1.2541
 30
0.0
 10
6.0322
 20
1.17841
 30
0.0
 10
6.0322
 20
1.17841
 30
0.0
 10
6.0322
 20
1.17841
 30
0.0
 10
6.0322
 20
1.17841
 30
0.0
 10
5.99333
 20
1.05594
 30
0.0
 10
5.99333
 20
1.05594
 30
0.0
 10
5.99333
 20
1.05594
 30
0.0
 10
5.99333
 20
1.05594
 30
0.0
 10
5.95446
 20
0.93347
 30
0.0
 10
5.95446
 20
0.93347
 30
0.0
 10
5.95446
 20
0.93347
 30
0.0
 10
5.95446
 20
0.93347
 30
0.0
 10
5.82868
 20
0.93347
 30
0.0
 10
5.82868
 20
0.93347
 30
0.0
 10
5.82868
 20
0.93347
 30
0.0
 10
5.82868
 20
0.93347
 30
0.0
 10
5.7029
 20
0.93347
 30
0.0
 10
5.7029
 20
0.93347
 30
0.0
 10
5.7029
 20
0.93347
 30
0.0
 10
5.7029
 20
0.93347
 30
0.0
 10
5.66403
 20
1.05594
 30
0.0
 10
5.66403
 20
1.05594
 30
0.0
 10
5.66403
 20
1.05594
 30
0.0
 10
5.66403
 20
1.05594
 30
0.0
 10
5.62516
 20
1.17841
 30
0.0
 10
5.62516
 20
1.17841
 30
0.0
 10
5.62516
 20
1.17841
 30
0.0
 10
5.62516
 20
1.17841
 30
0.0
 10
5.72692
 20
1.2541
 30
0.0
 10
5.72692
 20
1.2541
 30
0.0
 10
5.72692
 20
1.2541
 30
0.0
 10
5.72692
 20
1.2541
 30
0.0
 10
5.82868
 20
1.32979
 30
0.0
 10
5.82868
 20
1.32979
 30
0.0
  0
SPLINE
  5
72
330
1F
100
AcDbEntity
  8
0
 62
   250
370
    20
100
AcDbSpline
210
0.0
220
0.0
230
1.0
 70
    11
 71
     3
 72
    44
 73
    40
 74
     0
 42
0.0000000001
 43
0.0000000001
 40
0.0
 40
0.0
 40
0.0
 40
0.0
 40
0.1
 40
0.1
 40
0.1
 40
0.1
 40
0.2
 40
0.2
 40
0.2
 40
0.2
 40
0.3
 40
0.3
 40
0.3
 40
0.3
 40
0.4
 40
0.4
 40
0.4
 40
0.4
 40
0.5
 40
0.5
 40
0.5
 40
0.5
 40
0.6
 40
0.6
 40
0.6
 40
0.6
 40
0.7
 40
0.7
 40
0.7
 40
0.7
 40
0.7999999999999999
 40
0.7999999999999999
 40
0.7999999999999999
 40
0.7999999999999999
 40
0.8999999999999999
 40
0.8999999999999999
 40
0.8999999999999999
 40
0.8999999999999999
 40
1.0
 40
1.0
 40
1.0
 40
1.0
 10
-5.7064
 20
-7.40813
 30
0.0
 10
-5.7064
 20
-7.40813
 30
0.0
 10
-5.59495
 20
-7.48558
 30
0.0
 10
-5.59495
 20
-7.48558
 30
0.0
 10
-5.59495
 20
-7.48558
 30
0.0
 10
-5.59495
 20
-7.48558
 30
0.0
 10
-5.4835
 20
-7.56303
 30
0.0
 10
-5.4835
 20
-7.56303
 30
0.0
 10
-5.4835
 20
-7.56303
 30
0.0
 10
-5.4835
 20
-7.56303
 30
0.0
 10
-5.52607
 20
-7.68835
 30
0.0
 10
-5.52607
 20
-7.68835
 30
0.0
 10
-5.52607
 20
-7.68835
 30
0.0
 10
-5.52607
 20
-7.68835
 30
0.0
 10
-5.56864
 20
-7.81368
 30
0.0
 10
-5.56864
 20
-7.81368
 30
0.0
 10
-5.56864
 20
-7.81368
 30
0.0
 10
-5.56864
 20
-7.81368
 30
0.0
 10
-5.7064
 20
-7.81368
 30
0.0
 10
-5.7064
 20
-7.81368
 30
0.0
 10
-5.7064
 20
-7.81368
 30
0.0
 10
-5.7064
 20
-7.81368
 30
0.0
 10
-5.84416
 20
-7.81368
 30
0.0
 10
-5.84416
 20
-7.81368
 30
0.0
 10
-5.84416
 20
-7.81368
 30
0.0
 10
-5.84416
 20
-7.81368
 30
0.0
 10
-5.88673
 20
-7.68836
 30
0.0
 10
-5.88673
 20
-7.68836
 30
0.0
 10
-5.88673
 20
-7.68836
 30
0.0
 10
-5.88673
 20
-7.68836
 30
0.0
 10
-5.9293
 20
-7.56303
 30
0.0
 10
-5.9293
 20
-7.56303
 30
0.0
 10
-5.9293
 20
-7.56303
 30
0.0
 10
-5.9293
 20
-7.56303
 30
0.0
 10
-5.81785
 20
-7.48558
 30
0.0
 10
-5.81785
 20
-7.48558
 30
0.0
 10
-5.81785
 20
-7.48558
 30
0.0
 10
-5.81785
 20
-7.48558
 30
0.0
 10
-5.7064
 20
-7.40813
 30
0.0
 10
-5.7064
 20
-7.40813
 30
0.0
  0
SPLINE
  5
73
330
1F
100
AcDbEntity
  8
0
 62
   250
370
    20
100
AcDbSpline
210
0.0
220
0.0
230
1.0
 70
    11
 71
     3
 72
    44
 73
    40
 74
     0
 42
0.0000000001
 43
0.0000000001
 40
0.0
 40
0.0
 40
0.0
 40
0.0
 40
0.1
 40
0.1
 40
0.1
 40
0.1
 40
0.2
 40
0.2
 40
0.2
 40
0.2
 40
0.3
 40
0.3
 40
0.3
 40
0.3
 40
0.4
 40
0.4
 40
0.4
 40
0.4
 40
0.5
 40
0.5
 40
0.5
 40
0.5
 40
0.6
 40
0.6
 40
0.6
 40
0.6
 40
0.7
 40
0.7
 40
0.7
 40
0.7
 40
0.7999999999999999
 40
0.7999999999999999
 40
0.7999999999999999
 40
0.7999999999999999
 40
0.8999999999999999
 40
0.8999999999999999
 40
0.8999999999999999
 40
0.8999999999999999
 40
1.0
 40
1.0
 40
1.0
 40
1.0
 10
-4.5855
 20
-7.40813
 30
0.0
 10
-4.5855
 20
-7.40813
 30
0.0
 10
-4.47405
 20
-7.48558
 30
0.0
 10
-4.47405
 20
-7.48558
 30
0.0
 10
-4.47405
 20
-7.48558
 30
0.0
 10
-4.47405
 20
-7.48558
 30
0.0
 10
-4.3626
 20
-7.56303
 30
0.0
 10
-4.3626
 20
-7.56303
 30
0.0
 10
-4.3626
 20
-7.56303
 30
0.0
 10
-4.3626
 20
-7.56303
 30
0.0
 10
-4.40517
 20
-7.68835
 30
0.0
 10
-4.40517
 20
-7.68835
 30
0.0
 10
-4.40517
 20
-7.68835
 30
0.0
 10
-4.40517
 20
-7.68835
 30
0.0
 10
-4.44774
 20
-7.81368
 30
0.0
 10
-4.44774
 20
-7.81368
 30
0.0
 10
-4.44774
 20
-7.81368
 30
0.0
 10
-4.44774
 20
-7.81368
 30
0.0
 10
-4.5855
 20
-7.81368
 30
0.0
 10
-4.5855
 20
-7.81368
 30
0.0
 10
-4.5855
 20
-7.81368
 30
0.0
 10
-4.5855
 20
-7.81368
 30
0.0
 10
-4.72326
 20
-7.81368
 30
0.0
 10
-4.72326
 20
-7.81368
 30
0.0
 10
-4.72326
 20
-7.81368
 30
0.0
 10
-4.72326
 20
-7.81368
 30
0.0
 10
-4.76583
 20
-7.68836
 30
0.0
 10
-4.76583
 20
-7.68836
 30
0.0
 10
-4.76583
 20
-7.68836
 30
0.0
 10
-4.76583
 20
-7.68836
 30
0.0
 10
-4.8084
 20
-7.56303
 30
0.0
 10
-4.8084
 20
-7.56303
 30
0.0
 10
-4.8084
 20
-7.56303
 30
0.0
 10
-4.8084
 20
-7.56303
 30
0.0
 10
-4.69695
 20
-7.48558
 30
0.0
 10
-4.69695
 20
-7.48558
 30
0.0
 10
-4.69695
 20
-7.48558
 30
0.0
 10
-4.69695
 20
-7.48558
 30
0.0
 10
-4.5855
 20
-7.40813
 30
0.0
 10
-4.5855
 20
-7.40813
 30
0.0
  0
SPLINE
  5
74
330
1F
100
AcDbEntity
  8
0
 62
   250
370
    20
100
AcDbSpline
210
0.0
220
0.0
230
1.0
 70
    11
 71
     3
 72
    44
 73
    40
 74
     0
 42
0.0000000001
 43
0.0000000001
 40
0.0
 40
0.0
 40
0.0
 40
0.0
 40
0.1
 40
0.1
 40
0.1
 40
0.1
 40
0.2
 40
0.2
 40
0.2
 40
0.2
 40
0.3
 40
0.3
 40
0.3
 40
0.3
 40
0.4
 40
0.4
 40
0.4
 40
0.4
 40
0.5
 40
0.5
 40
0.5
 40
0.5
 40
0.6
 40
0.6
 40
0.6
 40
0.6
 40
0.7
 40
0.7
 40
0.7
 40
0.7
 40
0.7999999999999999
 40
0.7999999999999999
 40
0.7999999999999999
 40
0.7999999999999999
 40
0.8999999999999999
 40
0.8999999999999999
 40
0.8999999999999999
 40
0.8999999999999999
 40
1.0
 40
1.0
 40
1.0
 40
1.0
 10
-5.16768
 20
-8.11124
 30
0.0
 10
-5.16768
 20
-8.11124
 30
0.0
 10
-5.05623
 20
-8.18869
 30
0.0
 10
-5.05623
 20
-8.18869
 30
0.0
 10
-5.05623
 20
-8.18869
 30
0.0
 10
-5.05623
 20
-8.18869
 30
0.0
 10
-4.94478
 20
-8.26614
 30
0.0
 10
-4.94478
 20
-8.26614
 30
0.0
 10
-4.94478
 20
-8.26614
 30
0.0
 10
-4.94478
 20
-8.26614
 30
0.0
 10
-4.98735
 20
-8.39146
 30
0.0
 10
-4.98735
 20
-8.39146
 30
0.0
 10
-4.98735
 20
-8.39146
 30
0.0
 10
-4.98735
 20
-8.39146
 30
0.0
 10
-5.02992
 20
-8.51679
 30
0.0
 10
-5.02992
 20
-8.51679
 30
0.0
 10
-5.02992
 20
-8.51679
 30
0.0
 10
-5.02992
 20
-8.51679
 30
0.0
 10
-5.16768
 20
-8.51679
 30
0.0
 10
-5.16768
 20
-8.51679
 30
0.0
 10
-5.16768
 20
-8.51679
 30
0.0
 10
-5.16768
 20
-8.51679
 30
0.0
 10
-5.30544
 20
-8.51679
 30
0.0
 10
-5.30544
 20
-8.51679
 30
0.0
 10
-5.30544
 20
-8.51679
 30
0.0
 10
-5.30544
 20
-8.51679
 30
0.0
 10
-5.34801
 20
-8.39147
 30
0.0
 10
-5.34801
 20
-8.39147
 30
0.0
 10
-5.34801
 20
-8.39147
 30
0.0
 10
-5.34801
 20
-8.39147
 30
0.0
 10
-5.39058
 20
-8.26614
 30
0.0
 10
-5.39058
 20
-8.26614
 30
0.0
 10
-5.39058
 20
-8.26614
 30
0.0
 10
-5.39058
 20
-8.26614
 30
0.0
 10
-5.27913
 20
-8.18869
 30
0.0
 10
-5.27913
 20
-8.18869
 30
0.0
 10
-5.27913
 20
-8.18869
 30
0.0
 10
-5.27913
 20
-8.18869
 30
0.0
 10
-5.16768
 20
-8.11124
 30
0.0
 10
-5.16768
 20
-8.11124
 30
0.0
  0
SPLINE
  5
75
330
1F
100
AcDbEntity
  8
0
 62
   250
370
    20
100
AcDbSpline
210
0.0
220
0.0
230
1.0
 70
    11
 71
     3
 72
    44
 73
    40
 74
     0
 42
0.0000000001
 43
0.0000000001
 40
0.0
 40
0.0
 40
0.0
 40
0.0
 40
0.1
 40
0.1
 40
0.1
 40
0.1
 40
0.2
 40
0.2
 40
0.2
 40
0.2
 40
0.3
 40
0.3
 40
0.3
 40
0.3
 40
0.4
 40
0.4
 40
0.4
 40
0.4
 40
0.5
 40
0.5
 40
0.5
 40
0.5
 40
0.6
 40
0.6
 40
0.6
 40
0.6
 40
0.7
 40
0.7
 40
0.7
 40
0.7
 40
0.7999999999999999
 40
0.7999999999999999
 40
0.7999999999999999
 40
0.7999999999999999
 40
0.8999999999999999
 40
0.8999999999999999
 40
0.8999999999999999
 40
0.8999999999999999
 40
1.0
 40
1.0
 40
1.0
 40
1.0
 10
-5.7064
 20
-8.8395
 30
0.0
 10
-5.7064
 20
-8.8395
 30
0.0
 10
-5.59495
 20
-8.91695
 30
0.0
 10
-5.59495
 20
-8.91695
 30
0.0
 10
-5.59495
 20
-8.91695
 30
0.0
 10
-5.59495
 20
-8.91695
 30
0.0
 10
-5.4835
 20
-8.9944
 30
0.0
 10
-5.4835
 20
-8.9944
 30
0.0
 10
-5.4835
 20
-8.9944
 30
0.0
 10
-5.4835
 20
-8.9944
 30
0.0
 10
-5.52607
 20
-9.11972
 30
0.0
 10
-5.52607
 20
-9.11972
 30
0.0
 10
-5.52607
 20
-9.11972
 30
0.0
 10
-5.52607
 20
-9.11972
 30
0.0
 10
-5.56864
 20
-9.24505
 30
0.0
 10
-5.56864
 20
-9.24505
 30
0.0
 10
-5.56864
 20
-9.24505
 30
0.0
 10
-5.56864
 20
-9.24505
 30
0.0
 10
-5.7064
 20
-9.24505
 30
0.0
 10
-5.7064
 20
-9.24505
 30
0.0
 10
-5.7064
 20
-9.24505
 30
0.0
 10
-5.7064
 20
-9.24505
 30
0.0
 10
-5.84416
 20
-9.24505
 30
0.0
 10
-5.84416
 20
-9.24505
 30
0.0
 10
-5.84416
 20
-9.24505
 30
0.0
 10
-5.84416
 20
-9.24505
 30
0.0
 10
-5.88673
 20
-9.11973
 30
0.0
 10
-5.88673
 20
-9.11973
 30
0.0
 10
-5.88673
 20
-9.11973
 30
0.0
 10
-5.88673
 20
-9.11973
 30
0.0
 10
-5.9293
 20
-8.9944
 30
0.0
 10
-5.9293
 20
-8.9944
 30
0.0
 10
-5.9293
 20
-8.9944
 30
0.0
 10
-5.9293
 20
-8.9944
 30
0.0
 10
-5.81785
 20
-8.91695
 30
0.0
 10
-5.81785
 20
-8.91695
 30
0.0
 10
-5.81785
 20
-8.91695
 30
0.0
 10
-5.81785
 20
-8.91695
 30
0.0
 10
-5.7064
 20
-8.8395
 30
0.0
 10
-5.7064
 20
-8.8395
 30
0.0
  0
SPLINE
  5
76
330
1F
100
AcDbEntity
  8
0
 62
   250
370
    20
100
AcDbSpline
210
0.0
220
0.0
230
1.0
 70
    11
 71
     3
 72
    44
 73
    40
 74
     0
 42
0.0000000001
 43
0.0000000001
 40
0.0
 40
0.0
 40
0.0
 40
0.0
 40
0.1
 40
0.1
 40
0.1
 40
0.1
 40
0.2
 40
0.2
 40
0.2
 40
0.2
 40
0.3
 40
0.3
 40
0.3
 40
0.3
 40
0.4
 40
0.4
 40
0.4
 40
0.4
 40
0.5
 40
0.5
 40
0.5
 40
0.5
 40
0.6
 40
0.6
 40
0.6
 40
0.6
 40
0.7
 40
0.7
 40
0.7
 40
0.7
 40
0.7999999999999999
 40
0.7999999999999999
 40
0.7999999999999999
 40
0.7999999999999999
 40
0.8999999999999999
 40
0.8999999999999999
 40
0.8999999999999999
 40
0.8999999999999999
 40
1.0
 40
1.0
 40
1.0
 40
1.0
 10
-4.57455
 20
-8.84511
 30
0.0
 10
-4.57455
 20
-8.84511
 30
0.0
 10
-4.4631
 20
-8.92256
 30
0.0
 10
-4.4631
 20
-8.92256
 30
0.0
 10
-4.4631
 20
-8.92256
 30
0.0
 10
-4.4631
 20
-8.92256
 30
0.0
 10
-4.35165
 20
-9.00001
 30
0.0
 10
-4.35165
 20
-9.00001
 30
0.0
 10
-4.35165
 20
-9.00001
 30
0.0
 10
-4.35165
 20
-9.00001
 30
0.0
 10
-4.39422
 20
-9.12533
 30
0.0
 10
-4.39422
 20
-9.12533
 30
0.0
 10
-4.39422
 20
-9.12533
 30
0.0
 10
-4.39422
 20
-9.12533
 30
0.0
 10
-4.43679
 20
-9.25066
 30
0.0
 10
-4.43679
 20
-9.25066
 30
0.0
 10
-4.43679
 20
-9.25066
 30
0.0
 10
-4.43679
 20
-9.25066
 30
0.0
 10
-4.57455
 20
-9.25066
 30
0.0
 10
-4.57455
 20
-9.25066
 30
0.0
 10
-4.57455
 20
-9.25066
 30
0.0
 10
-4.57455
 20
-9.25066
 30
0.0
 10
-4.71231
 20
-9.25066
 30
0.0
 10
-4.71231
 20
-9.25066
 30
0.0
 10
-4.71231
 20
-9.25066
 30
0.0
 10
-4.71231
 20
-9.25066
 30
0.0
 10
-4.75488
 20
-9.12534
 30
0.0
 10
-4.75488
 20
-9.12534
 30
0.0
 10
-4.75488
 20
-9.12534
 30
0.0
 10
-4.75488
 20
-9.12534
 30
0.0
 10
-4.79745
 20
-9.00001
 30
0.0
 10
-4.79745
 20
-9.00001
 30
0.0
 10
-4.79745
 20
-9.00001
 30
0.0
 10
-4.79745
 20
-9.00001
 30
0.0
 10
-4.686
 20
-8.92256
 30
0.0
 10
-4.686
 20
-8.92256
 30
0.0
 10
-4.686
 20
-8.92256
 30
0.0
 10
-4.686
 20
-8.92256
 30
0.0
 10
-4.57455
 20
-8.84511
 30
0.0
 10
-4.57455
 20
-8.84511
 30
0.0
  0
SPLINE
  5
77
330
1F
100
AcDbEntity
  8
0
 62
   250
370
    20
100
AcDbSpline
210
0.0
220
0.0
230
1.0
 70
    11
 71
     3
 72
    44
 73
    40
 74
     0
 42
0.0000000001
 43
0.0000000001
 40
0.0
 40
0.0
 40
0.0
 40
0.0
 40
0.1
 40
0.1
 40
0.1
 40
0.1
 40
0.2
 40
0.2
 40
0.2
 40
0.2
 40
0.3
 40
0.3
 40
0.3
 40
0.3
 40
0.4
 40
0.4
 40
0.4
 40
0.4
 40
0.5
 40
0.5
 40
0.5
 40
0.5
 40
0.6
 40
0.6
 40
0.6
 40
0.6
 40
0.7
 40
0.7
 40
0.7
 40
0.7
 40
0.7999999999999999
 40
0.7999999999999999
 40
0.7999999999999999
 40
0.7999999999999999
 40
0.8999999999999999
 40
0.8999999999999999
 40
0.8999999999999999
 40
0.8999999999999999
 40
1.0
 40
1.0
 40
1.0
 40
1.0
 10
4.59569
 20
-8.9829
 30
0.0
 10
4.59569
 20
-8.9829
 30
0.0
 10
4.71683
 20
-9.08148
 30
0.0
 10
4.71683
 20
-9.08148
 30
0.0
 10
4.71683
 20
-9.08148
 30
0.0
 10
4.71683
 20
-9.08148
 30
0.0
 10
4.83797
 20
-9.18005
 30
0.0
 10
4.83797
 20
-9.18005
 30
0.0
 10
4.83797
 20
-9.18005
 30
0.0
 10
4.83797
 20
-9.18005
 30
0.0
 10
4.7917
 20
-9.33955
 30
0.0
 10
4.7917
 20
-9.33955
 30
0.0
 10
4.7917
 20
-9.33955
 30
0.0
 10
4.7917
 20
-9.33955
 30
0.0
 10
4.74543
 20
-9.49905
 30
0.0
 10
4.74543
 20
-9.49905
 30
0.0
 10
4.74543
 20
-9.49905
 30
0.0
 10
4.74543
 20
-9.49905
 30
0.0
 10
4.59569
 20
-9.49905
 30
0.0
 10
4.59569
 20
-9.49905
 30
0.0
 10
4.59569
 20
-9.49905
 30
0.0
 10
4.59569
 20
-9.49905
 30
0.0
 10
4.44595
 20
-9.49905
 30
0.0
 10
4.44595
 20
-9.49905
 30
0.0
 10
4.44595
 20
-9.49905
 30
0.0
 10
4.44595
 20
-9.49905
 30
0.0
 10
4.39968
 20
-9.33955
 30
0.0
 10
4.39968
 20
-9.33955
 30
0.0
 10
4.39968
 20
-9.33955
 30
0.0
 10
4.39968
 20
-9.33955
 30
0.0
 10
4.35341
 20
-9.18005
 30
0.0
 10
4.35341
 20
-9.18005
 30
0.0
 10
4.35341
 20
-9.18005
 30
0.0
 10
4.35341
 20
-9.18005
 30
0.0
 10
4.47455
 20
-9.08148
 30
0.0
 10
4.47455
 20
-9.08148
 30
0.0
 10
4.47455
 20
-9.08148
 30
0.0
 10
4.47455
 20
-9.08148
 30
0.0
 10
4.59569
 20
-8.9829
 30
0.0
 10
4.59569
 20
-8.9829
 30
0.0
  0
SPLINE
  5
78
330
1F
100
AcDbEntity
  8
0
 62
   250
370
    20
100
AcDbSpline
210
0.0
220
0.0
230
1.0
 70
    11
 71
     3
 72
    44
 73
    40
 74
     0
 42
0.0000000001
 43
0.0000000001
 40
0.0
 40
0.0
 40
0.0
 40
0.0
 40
0.1
 40
0.1
 40
0.1
 40
0.1
 40
0.2
 40
0.2
 40
0.2
 40
0.2
 40
0.3
 40
0.3
 40
0.3
 40
0.3
 40
0.4
 40
0.4
 40
0.4
 40
0.4
 40
0.5
 40
0.5
 40
0.5
 40
0.5
 40
0.6
 40
0.6
 40
0.6
 40
0.6
 40
0.7
 40
0.7
 40
0.7
 40
0.7
 40
0.7999999999999999
 40
0.7999999999999999
 40
0.7999999999999999
 40
0.7999999999999999
 40
0.8999999999999999
 40
0.8999999999999999
 40
0.8999999999999999
 40
0.8999999999999999
 40
1.0
 40
1.0
 40
1.0
 40
1.0
 10
5.72678
 20
-8.98758
 30
0.0
 10
5.72678
 20
-8.98758
 30
0.0
 10
5.84792
 20
-9.08616
 30
0.0
 10
5.84792
 20
-9.08616
 30
0.0
 10
5.84792
 20
-9.08616
 30
0.0
 10
5.84792
 20
-9.08616
 30
0.0
 10
5.96906
 20
-9.18473
 30
0.0
 10
5.96906
 20
-9.18473
 30
0.0
 10
5.96906
 20
-9.18473
 30
0.0
 10
5.96906
 20
-9.18473
 30
0.0
 10
5.92279
 20
-9.34423
 30
0.0
 10
5.92279
 20
-9.34423
 30
0.0
 10
5.92279
 20
-9.34423
 30
0.0
 10
5.92279
 20
-9.34423
 30
0.0
 10
5.87652
 20
-9.50373
 30
0.0
 10
5.87652
 20
-9.50373
 30
0.0
 10
5.87652
 20
-9.50373
 30
0.0
 10
5.87652
 20
-9.50373
 30
0.0
 10
5.72678
 20
-9.50373
 30
0.0
 10
5.72678
 20
-9.50373
 30
0.0
 10
5.72678
 20
-9.50373
 30
0.0
 10
5.72678
 20
-9.50373
 30
0.0
 10
5.57704
 20
-9.50373
 30
0.0
 10
5.57704
 20
-9.50373
 30
0.0
 10
5.57704
 20
-9.50373
 30
0.0
 10
5.57704
 20
-9.50373
 30
0.0
 10
5.53077
 20
-9.34423
 30
0.0
 10
5.53077
 20
-9.34423
 30
0.0
 10
5.53077
 20
-9.34423
 30
0.0
 10
5.53077
 20
-9.34423
 30
0.0
 10
5.4845
 20
-9.18473
 30
0.0
 10
5.4845
 20
-9.18473
 30
0.0
 10
5.4845
 20
-9.18473
 30
0.0
 10
5.4845
 20
-9.18473
 30
0.0
 10
5.60564
 20
-9.08616
 30
0.0
 10
5.60564
 20
-9.08616
 30
0.0
 10
5.60564
 20
-9.08616
 30
0.0
 10
5.60564
 20
-9.08616
 30
0.0
 10
5.72678
 20
-8.98758
 30
0.0
 10
5.72678
 20
-8.98758
 30
0.0
  0
ENDSEC
  0
SECTION
  2
OBJECTS
  0
DICTIONARY
  5
C
330
0
100
AcDbDictionary
281
     1
  3
ACAD_GROUP
350
D
  3
ACAD_LAYOUT
350
1A
  3
ACAD_MLEADERSTYLE
350
7A
  3
ACAD_MLINESTYLE
350
17
  3
ACAD_PLOTSETTINGS
350
19
  3
ACAD_PLOTSTYLENAME
350
E
  3
ACAD_SCALELIST
350
3B
  3
ACAD_TABLESTYLE
350
79
  3
ACAD_VISUALSTYLE
350
2A
  0
DICTIONARY
  5
D
102
{ACAD_REACTORS
330
C
102
}
330
C
100
AcDbDictionary
281
     1
  0
DICTIONARY
  5
1A
102
{ACAD_REACTORS
330
C
102
}
330
C
100
AcDbDictionary
281
     1
  3
Layout1
350
1E
  3
Layout2
350
26
  3
Model
350
22
  0
DICTIONARY
  5
7A
102
{ACAD_REACTORS
330
C
102
}
330
C
100
AcDbDictionary
281
     1
  0
DICTIONARY
  5
17
102
{ACAD_REACTORS
330
C
102
}
330
C
100
AcDbDictionary
281
     1
  3
Standard
350
18
  0
DICTIONARY
  5
19
102
{ACAD_REACTORS
330
C
102
}
330
C
100
AcDbDictionary
281
     1
  0
ACDBDICTIONARYWDFLT
  5
E
102
{ACAD_REACTORS
330
C
102
}
330
C
100
AcDbDictionary
281
     1
  3
Normal
350
F
100
AcDbDictionaryWithDefault
340
F
  0
DICTIONARY
  5
3B
102
{ACAD_REACTORS
330
C
102
}
330
C
100
AcDbDictionary
281
     1
  3
A0
350
3C
  3
A1
350
3D
  3
A2
350
3E
  3
A3
350
3F
  3
A4
350
40
  3
A5
350
41
  3
A6
350
42
  3
A7
350
43
  3
A8
350
44
  3
A9
350
45
  3
B0
350
46
  3
B1
350
47
  3
B2
350
48
  3
B3
350
49
  3
B4
350
4A
  3
B5
350
4B
  3
B6
350
4C
  3
B7
350
4D
  3
B8
350
4E
  3
B9
350
4F
  3
C0
350
50
  3
C1
350
51
  3
C2
350
52
  3
C3
350
53
  3
C4
350
54
  3
C5
350
55
  3
C6
350
56
  3
C7
350
57
  3
C8
350
58
  3
C9
350
59
  3
D0
350
5A
  3
D1
350
5B
  3
D2
350
5C
  0
DICTIONARY
  5
79
102
{ACAD_REACTORS
330
C
102
}
330
C
100
AcDbDictionary
281
     1
  0
DICTIONARY
  5
2A
102
{ACAD_REACTORS
330
C
102
}
330
C
100
AcDbDictionary
281
     1
  3
2dWireframe
350
2F
  3
3D Hidden
350
31
  3
3dWireframe
350
30
  3
Basic
350
32
  3
Brighten
350
36
  3
ColorChange
350
3A
  3
Conceptual
350
34
  3
Dim
350
35
  3
Facepattern
350
39
  3
Flat
350
2B
  3
FlatWithEdges
350
2C
  3
Gouraud
350
2D
  3
GouraudWithEdges
350
2E
  3
Linepattern
350
38
  3
Realistic
350
33
  3
Thicken
350
37
  0
LAYOUT
  5
1E
102
{ACAD_REACTORS
330
1A
102
}
330
1A
100
AcDbPlotSettings
  1

  2
none_device
  4

  6

 40
0.0
 41
0.0
 42
0.0
 43
0.0
 44
0.0
 45
0.0
 46
0.0
 47
0.0
 48
0.0
 49
0.0
140
0.0
141
0.0
142
1.0
143
1.0
 70
   688
 72
     0
 73
     0
 74
     5
  7

 75
    16
 76
     0
 77
     2
 78
   300
147
1.0
148
0.0
149
0.0
100
AcDbLayout
  1
Layout1
 70
     1
 71
     1
 10
0.0
 20
0.0
 11
12.0
 21
9.0
 12
0.0
 22
0.0
 32
0.0
 14
1.000000000000000E+20
 24
1.000000000000000E+20
 34
1.000000000000000E+20
 15
-1.000000000000000E+20
 25
-1.000000000000000E+20
 35
-1.000000000000000E+20
146
0.0
 13
0.0
 23
0.0
 33
0.0
 16
1.0
 26
0.0
 36
0.0
 17
0.0
 27
1.0
 37
0.0
 76
     0
330
1B
  0
LAYOUT
  5
26
102
{ACAD_REACTORS
330
1A
102
}
330
1A
100
AcDbPlotSettings
  1

  2
none_device
  4

  6

 40
0.0
 41
0.0
 42
0.0
 43
0.0
 44
0.0
 45
0.0
 46
0.0
 47
0.0
 48
0.0
 49
0.0
140
0.0
141
0.0
142
1.0
143
1.0
 70
   688
 72
     0
 73
     0
 74
     5
  7

 75
    16
 76
     0
 77
     2
 78
   300
147
1.0
148
0.0
149
0.0
100
AcDbLayout
  1
Layout2
 70
     1
 71
     2
 10
0.0
 20
0.0
 11
0.0
 21
0.0
 12
0.0
 22
0.0
 32
0.0
 14
0.0
 24
0.0
 34
0.0
 15
0.0
 25
0.0
 35
0.0
146
0.0
 13
0.0
 23
0.0
 33
0.0
 16
1.0
 26
0.0
 36
0.0
 17
0.0
 27
1.0
 37
0.0
 76
     0
330
23
  0
LAYOUT
  5
22
102
{ACAD_REACTORS
330
1A
102
}
330
1A
100
AcDbPlotSettings
  1

  2
none_device
  4

  6

 40
0.0
 41
0.0
 42
0.0
 43
0.0
 44
0.0
 45
0.0
 46
0.0
 47
0.0
 48
0.0
 49
0.0
140
0.0
141
0.0
142
1.0
143
1.0
 70
  1712
 72
     0
 73
     0
 74
     0
  7

 75
     0
 76
     0
 77
     2
 78
   300
147
1.0
148
0.0
149
0.0
100
AcDbLayout
  1
Model
 70
     1
 71
     0
 10
0.0
 20
0.0
 11
12.0
 21
9.0
 12
0.0
 22
0.0
 32
0.0
 14
-6.67218
 24
-10.84141
 34
0.0
 15
6.72878
 25
10.84141
 35
0.0
146
0.0
 13
0.0
 23
0.0
 33
0.0
 16
1.0
 26
0.0
 36
0.0
 17
0.0
 27
1.0
 37
0.0
 76
     0
330
1F
331
29
  0
MLINESTYLE
  5
18
102
{ACAD_REACTORS
330
17
102
}
330
17
100
AcDbMlineStyle
  2
Standard
 70
     0
  3

 62
   256
 51
90.0
 52
90.0
 71
     2
 49
0.5
 62
   256
  6
BYLAYER
 49
-0.5
 62
   256
  6
BYLAYER
  0
ACDBPLACEHOLDER
  5
F
102
{ACAD_REACTORS
330
E
102
}
330
E
  0
SCALE
  5
3C
102
{ACAD_REACTORS
330
3B
102
}
330
3B
100
AcDbScale
 70
     0
300
1:1
140
1.0
141
1.0
290
     1
  0
SCALE
  5
3D
102
{ACAD_REACTORS
330
3B
102
}
330
3B
100
AcDbScale
 70
     0
300
1:2
140
1.0
141
2.0
290
     0
  0
SCALE
  5
3E
102
{ACAD_REACTORS
330
3B
102
}
330
3B
100
AcDbScale
 70
     0
300
1:4
140
1.0
141
4.0
290
     0
  0
SCALE
  5
3F
102
{ACAD_REACTORS
330
3B
102
}
330
3B
100
AcDbScale
 70
     0
300
1:5
140
1.0
141
5.0
290
     0
  0
SCALE
  5
40
102
{ACAD_REACTORS
330
3B
102
}
330
3B
100
AcDbScale
 70
     0
300
1:8
140
1.0
141
8.0
290
     0
  0
SCALE
  5
41
102
{ACAD_REACTORS
330
3B
102
}
330
3B
100
AcDbScale
 70
     0
300
1:10
140
1.0
141
10.0
290
     0
  0
SCALE
  5
42
102
{ACAD_REACTORS
330
3B
102
}
330
3B
100
AcDbScale
 70
     0
300
1:16
140
1.0
141
16.0
290
     0
  0
SCALE
  5
43
102
{ACAD_REACTORS
330
3B
102
}
330
3B
100
AcDbScale
 70
     0
300
1:20
140
1.0
141
20.0
290
     0
  0
SCALE
  5
44
102
{ACAD_REACTORS
330
3B
102
}
330
3B
100
AcDbScale
 70
     0
300
1:30
140
1.0
141
30.0
290
     0
  0
SCALE
  5
45
102
{ACAD_REACTORS
330
3B
102
}
330
3B
100
AcDbScale
 70
     0
300
1:40
140
1.0
141
40.0
290
     0
  0
SCALE
  5
46
102
{ACAD_REACTORS
330
3B
102
}
330
3B
100
AcDbScale
 70
     0
300
1:50
140
1.0
141
50.0
290
     0
  0
SCALE
  5
47
102
{ACAD_REACTORS
330
3B
102
}
330
3B
100
AcDbScale
 70
     0
300
1:100
140
1.0
141
100.0
290
     0
  0
SCALE
  5
48
102
{ACAD_REACTORS
330
3B
102
}
330
3B
100
AcDbScale
 70
     0
300
2:1
140
2.0
141
1.0
290
     0
  0
SCALE
  5
49
102
{ACAD_REACTORS
330
3B
102
}
330
3B
100
AcDbScale
 70
     0
300
4:1
140
4.0
141
1.0
290
     0
  0
SCALE
  5
4A
102
{ACAD_REACTORS
330
3B
102
}
330
3B
100
AcDbScale
 70
     0
300
8:1
140
8.0
141
1.0
290
     0
  0
SCALE
  5
4B
102
{ACAD_REACTORS
330
3B
102
}
330
3B
100
AcDbScale
 70
     0
300
10:1
140
10.0
141
1.0
290
     0
  0
SCALE
  5
4C
102
{ACAD_REACTORS
330
3B
102
}
330
3B
100
AcDbScale
 70
     0
300
100:1
140
100.0
141
1.0
290
     0
  0
SCALE
  5
4D
102
{ACAD_REACTORS
330
3B
102
}
330
3B
100
AcDbScale
 70
     0
300
1/128" = 1'-0"
140
0.0078125
141
12.0
290
     0
  0
SCALE
  5
4E
102
{ACAD_REACTORS
330
3B
102
}
330
3B
100
AcDbScale
 70
     0
300
1/64" = 1'-0"
140
0.015625
141
12.0
290
     0
  0
SCALE
  5
4F
102
{ACAD_REACTORS
330
3B
102
}
330
3B
100
AcDbScale
 70
     0
300
1/32" = 1'-0"
140
0.03125
141
12.0
290
     0
  0
SCALE
  5
50
102
{ACAD_REACTORS
330
3B
102
}
330
3B
100
AcDbScale
 70
     0
300
1/16" = 1'-0"
140
0.0625
141
12.0
290
     0
  0
SCALE
  5
51
102
{ACAD_REACTORS
330
3B
102
}
330
3B
100
AcDbScale
 70
     0
300
3/32" = 1'-0"
140
0.09375
141
12.0
290
     0
  0
SCALE
  5
52
102
{ACAD_REACTORS
330
3B
102
}
330
3B
100
AcDbScale
 70
     0
300
1/8" = 1'-0"
140
0.125
141
12.0
290
     0
  0
SCALE
  5
53
102
{ACAD_REACTORS
330
3B
102
}
330
3B
100
AcDbScale
 70
     0
300
3/16" = 1'-0"
140
0.1875
141
12.0
290
     0
  0
SCALE
  5
54
102
{ACAD_REACTORS
330
3B
102
}
330
3B
100
AcDbScale
 70
     0
300
1/4" = 1'-0"
140
0.25
141
12.0
290
     0
  0
SCALE
  5
55
102
{ACAD_REACTORS
330
3B
102
}
330
3B
100
AcDbScale
 70
     0
300
3/8" = 1'-0"
140
0.375
141
12.0
290
     0
  0
SCALE
  5
56
102
{ACAD_REACTORS
330
3B
102
}
330
3B
100
AcDbScale
 70
     0
300
1/2" = 1'-0"
140
0.5
141
12.0
290
     0
  0
SCALE
  5
57
102
{ACAD_REACTORS
330
3B
102
}
330
3B
100
AcDbScale
 70
     0
300
3/4" = 1'-0"
140
0.75
141
12.0
290
     0
  0
SCALE
  5
58
102
{ACAD_REACTORS
330
3B
102
}
330
3B
100
AcDbScale
 70
     0
300
1" = 1'-0"
140
1.0
141
12.0
290
     0
  0
SCALE
  5
59
102
{ACAD_REACTORS
330
3B
102
}
330
3B
100
AcDbScale
 70
     0
300
1-1/2" = 1'-0"
140
1.5
141
12.0
290
     0
  0
SCALE
  5
5A
102
{ACAD_REACTORS
330
3B
102
}
330
3B
100
AcDbScale
 70
     0
300
3" = 1'-0"
140
3.0
141
12.0
290
     0
  0
SCALE
  5
5B
102
{ACAD_REACTORS
330
3B
102
}
330
3B
100
AcDbScale
 70
     0
300
6" = 1'-0"
140
6.0
141
12.0
290
     0
  0
SCALE
  5
5C
102
{ACAD_REACTORS
330
3B
102
}
330
3B
100
AcDbScale
 70
     0
300
1'-0" = 1'-0"
140
12.0
141
12.0
290
     0
  0
VISUALSTYLE
  5
2F
102
{ACAD_REACTORS
330
2A
102
}
330
2A
100
AcDbVisualStyle
  2
2dWireframe
 70
     4
 71
     0
 72
     2
 73
     0
 90
        0
 40
-0.6
 41
-30.0
 62
     5
 63
     7
421
 16777215
 74
     1
 91
        4
 64
     7
 65
   257
 75
     1
175
     1
 42
1.0
 92
        0
 66
   257
 43
1.0
 76
     1
 77
     6
 78
     2
 67
     7
 79
     5
170
     0
171
     0
290
     0
174
     0
 93
        1
 44
0.0
173
     0
291
     0
 45
0.0
  0
VISUALSTYLE
  5
31
102
{ACAD_REACTORS
330
2A
102
}
330
2A
100
AcDbVisualStyle
  2
3D Hidden
 70
     6
 71
     1
 72
     2
 73
     2
 90
        0
 40
-0.6
 41
-30.0
 62
     5
 63
     7
421
 16777215
 74
     2
 91
        2
 64
     7
 65
   257
 75
     2
175
     1
 42
40.0
 92
        0
 66
   257
 43
1.0
 76
     1
 77
     6
 78
     2
 67
     7
 79
     3
170
     0
171
     0
290
     0
174
     0
 93
        1
 44
0.0
173
     0
291
     0
 45
0.0
  0
VISUALSTYLE
  5
30
102
{ACAD_REACTORS
330
2A
102
}
330
2A
100
AcDbVisualStyle
  2
3dWireframe
 70
     5
 71
     0
 72
     2
 73
     0
 90
        0
 40
-0.6
 41
-30.0
 62
     5
 63
     7
421
 16777215
 74
     1
 91
        4
 64
     7
 65
   257
 75
     1
175
     1
 42
1.0
 92
        0
 66
   257
 43
1.0
 76
     1
 77
     6
 78
     2
 67
     7
 79
     5
170
     0
171
     0
290
     0
174
     0
 93
        1
 44
0.0
173
     0
291
     0
 45
0.0
  0
VISUALSTYLE
  5
32
102
{ACAD_REACTORS
330
2A
102
}
330
2A
100
AcDbVisualStyle
  2
Basic
 70
     7
 71
     1
 72
     0
 73
     1
 90
        0
 40
-0.6
 41
-30.0
 62
     5
 63
     7
421
 16777215
 74
     0
 91
        4
 64
     7
 65
   257
 75
     1
175
     1
 42
1.0
 92
        8
 66
     7
 43
1.0
 76
     1
 77
     6
 78
     2
 67
     7
 79
     5
170
     0
171
     0
290
     0
174
     0
 93
        1
 44
0.0
173
     0
291
     1
 45
0.0
  0
VISUALSTYLE
  5
36
102
{ACAD_REACTORS
330
2A
102
}
330
2A
100
AcDbVisualStyle
  2
Brighten
 70
    12
 71
     2
 72
     2
 73
     0
 90
        0
 40
-0.6
 41
-30.0
 62
     5
 63
     7
421
 16777215
 74
     1
 91
        4
 64
     7
 65
   257
 75
     1
175
     1
 42
1.0
 92
        8
 66
     7
 43
1.0
 76
     1
 77
     6
 78
     2
 67
     7
 79
     5
170
     0
171
     0
290
     0
174
     0
 93
        1
 44
50.0
173
     0
291
     1
 45
0.0
  0
VISUALSTYLE
  5
3A
102
{ACAD_REACTORS
330
2A
102
}
330
2A
100
AcDbVisualStyle
  2
ColorChange
 70
    16
 71
     2
 72
     2
 73
     3
 90
        0
 40
-0.6
 41
-30.0
 62
     5
 63
     8
421
  8421504
 74
     1
 91
        4
 64
     7
 65
   257
 75
     1
175
     1
 42
1.0
 92
        8
 66
     8
424
  8421504
 43
1.0
 76
     1
 77
     6
 78
     2
 67
     7
 79
     5
170
     0
171
     0
290
     0
174
     0
 93
        1
 44
0.0
173
     0
291
     1
 45
0.0
  0
VISUALSTYLE
  5
34
102
{ACAD_REACTORS
330
2A
102
}
330
2A
100
AcDbVisualStyle
  2
Conceptual
 70
     9
 71
     3
 72
     2
 73
     0
 90
        0
 40
-0.6
 41
-30.0
 62
     5
 63
     7
421
 16777215
 74
     2
 91
        2
 64
     7
 65
   257
 75
     1
175
     1
 42
40.0
 92
        8
 66
     7
 43
1.0
 76
     1
 77
     6
 78
     2
 67
     7
 79
     3
170
     0
171
     0
290
     0
174
     0
 93
        1
 44
0.0
173
     0
291
     0
 45
0.0
  0
VISUALSTYLE
  5
35
102
{ACAD_REACTORS
330
2A
102
}
330
2A
100
AcDbVisualStyle
  2
Dim
 70
    11
 71
     2
 72
     2
 73
     0
 90
        0
 40
-0.6
 41
-30.0
 62
     5
 63
     7
421
 16777215
 74
     1
 91
        4
 64
     7
 65
   257
 75
     1
175
     1
 42
1.0
 92
        8
 66
     7
 43
1.0
 76
     1
 77
     6
 78
     2
 67
     7
 79
     5
170
     0
171
     0
290
     0
174
     0
 93
        1
 44
-50.0
173
     0
291
     1
 45
0.0
  0
VISUALSTYLE
  5
39
102
{ACAD_REACTORS
330
2A
102
}
330
2A
100
AcDbVisualStyle
  2
Facepattern
 70
    15
 71
     2
 72
     2
 73
     0
 90
        0
 40
-0.6
 41
-30.0
 62
     5
 63
     7
421
 16777215
 74
     1
 91
        4
 64
     7
 65
   257
 75
     1
175
     1
 42
1.0
 92
        8
 66
     7
 43
1.0
 76
     1
 77
     6
 78
     2
 67
     7
 79
     5
170
     0
171
     0
290
     0
174
     0
 93
        1
 44
0.0
173
     0
291
     1
 45
0.0
  0
VISUALSTYLE
  5
2B
102
{ACAD_REACTORS
330
2A
102
}
330
2A
100
AcDbVisualStyle
  2
Flat
 70
     0
 71
     2
 72
     1
 73
     1
 90
        2
 40
-0.6
 41
30.0
 62
     5
 63
     7
421
 16777215
 74
     0
 91
        4
 64
     7
 65
   257
 75
     1
175
     1
 42
1.0
 92
        8
 66
     7
 43
1.0
 76
     1
 77
     6
 78
     2
 67
     7
 79
     5
170
     0
171
     0
290
     0
174
     0
 93
       13
 44
0.0
173
     0
291
     1
 45
0.0
  0
VISUALSTYLE
  5
2C
102
{ACAD_REACTORS
330
2A
102
}
330
2A
100
AcDbVisualStyle
  2
FlatWithEdges
 70
     1
 71
     2
 72
     1
 73
     1
 90
        2
 40
-0.6
 41
30.0
 62
     5
 63
     7
421
 16777215
 74
     1
 91
        4
 64
     7
 65
   257
 75
     1
175
     1
 42
1.0
 92
        0
 66
   257
 43
1.0
 76
     1
 77
     6
 78
     2
 67
     7
 79
     5
170
     0
171
     0
290
     0
174
     0
 93
       13
 44
0.0
173
     0
291
     1
 45
0.0
  0
VISUALSTYLE
  5
2D
102
{ACAD_REACTORS
330
2A
102
}
330
2A
100
AcDbVisualStyle
  2
Gouraud
 70
     2
 71
     2
 72
     2
 73
     1
 90
        2
 40
-0.6
 41
30.0
 62
     5
 63
     7
421
 16777215
 74
     0
 91
        4
 64
     7
 65
   257
 75
     1
175
     1
 42
1.0
 92
        0
 66
     7
 43
1.0
 76
     1
 77
     6
 78
     2
 67
     7
 79
     5
170
     0
171
     0
290
     0
174
     0
 93
       13
 44
0.0
173
     0
291
     1
 45
0.0
  0
VISUALSTYLE
  5
2E
102
{ACAD_REACTORS
330
2A
102
}
330
2A
100
AcDbVisualStyle
  2
GouraudWithEdges
 70
     3
 71
     2
 72
     2
 73
     1
 90
        2
 40
-0.6
 41
30.0
 62
     5
 63
     7
421
 16777215
 74
     1
 91
        4
 64
     7
 65
   257
 75
     1
175
     1
 42
1.0
 92
        0
 66
   257
 43
1.0
 76
     1
 77
     6
 78
     2
 67
     7
 79
     5
170
     0
171
     0
290
     0
174
     0
 93
       13
 44
0.0
173
     0
291
     1
 45
0.0
  0
VISUALSTYLE
  5
38
102
{ACAD_REACTORS
330
2A
102
}
330
2A
100
AcDbVisualStyle
  2
Linepattern
 70
    14
 71
     2
 72
     2
 73
     0
 90
        0
 40
-0.6
 41
-30.0
 62
     5
 63
     7
421
 16777215
 74
     1
 91
        4
 64
     7
 65
   257
 75
     7
175
     7
 42
1.0
 92
        8
 66
     7
 43
1.0
 76
     1
 77
     6
 78
     2
 67
     7
 79
     5
170
     0
171
     0
290
     0
174
     0
 93
        1
 44
0.0
173
     0
291
     1
 45
0.0
  0
VISUALSTYLE
  5
33
102
{ACAD_REACTORS
330
2A
102
}
330
2A
100
AcDbVisualStyle
  2
Realistic
 70
     8
 71
     2
 72
     2
 73
     0
 90
        0
 40
-0.6
 41
-30.0
 62
     5
 63
     7
421
 16777215
 74
     1
 91
        0
 64
     7
 65
   257
 75
     1
175
     1
 42
1.0
 92
        8
 66
     8
424
  7895160
 43
1.0
 76
     1
 77
     6
 78
     2
 67
     7
 79
     5
170
     0
171
     0
290
     0
174
     0
 93
       13
 44
0.0
173
     0
291
     0
 45
0.0
  0
VISUALSTYLE
  5
37
102
{ACAD_REACTORS
330
2A
102
}
330
2A
100
AcDbVisualStyle
  2
Thicken
 70
    13
 71
     2
 72
     2
 73
     0
 90
        0
 40
-0.6
 41
-30.0
 62
     5
 63
     7
421
 16777215
 74
     1
 91
        4
 64
     7
 65
   257
 75
     1
175
     1
 42
1.0
 92
       12
 66
     7
 43
1.0
 76
     1
 77
     6
 78
     2
 67
     7
 79
     5
170
     0
171
     0
290
     0
174
     0
 93
        1
 44
0.0
173
     0
291
     1
 45
0.0
  0
ENDSEC
  0
EOF
