  0
SECTION
  2
HEADER
  9
$ACADVER
  1
AC1009
  9
$EXTMIN
 10
0.0
 20
0.0
 30
0.0
  9
$EXTMAX
 10
1000.0
 20
1000.0
 30
0.0
  9
$FILLMODE
 70
 0
  9
$SPLFRAME
 70
 1
  0
ENDSEC
  0
SECTION
  2
TABLES
  0
TABLE
  2
LAYER
 70
1
  0
LAYER
  2
0
 70
     0
 62
     7
  6
CONTINUOUS
  0
ENDTAB
  0
ENDSEC
  0
SECTION
  2
ENTITIES
  0
POLYLINE
  8
0
 62
     0
 66
     1
 10
0
 20
0
 30
0.0
 70
     1
 40
0.72
 41
0.72
  0
VERTEX
  8
0
 10
0.25
 20
19.9444
 30
0.0
 40
0.01
 41
0.01
  0
VERTEX
  8
0
 10
0.742133
 20
19.9444
 30
0.0
 40
0.01
 41
0.01
  0
VERTEX
  8
0
 10
0.742133
 20
19.7476
 30
0.0
 40
0.01
 41
0.01
  0
VERTEX
  8
0
 10
1.23427
 20
19.7476
 30
0.0
 40
0.01
 41
0.01
  0
VERTEX
  8
0
 10
1.23427
 20
19.9444
 30
0.0
 40
0.01
 41
0.01
  0
VERTEX
  8
0
 10
1.62793
 20
19.9444
 30
0.0
 40
0.01
 41
0.01
  0
VERTEX
  8
0
 10
1.62793
 20
19.7476
 30
0.0
 40
0.01
 41
0.01
  0
VERTEX
  8
0
 10
2.02165
 20
19.7476
 30
0.0
 40
0.01
 41
0.01
  0
VERTEX
  8
0
 10
2.02165
 20
19.9444
 30
0.0
 40
0.01
 41
0.01
  0
VERTEX
  8
0
 10
2.41536
 20
19.9444
 30
0.0
 40
0.01
 41
0.01
  0
VERTEX
  8
0
 10
2.41536
 20
19.7476
 30
0.0
 40
0.01
 41
0.01
  0
VERTEX
  8
0
 10
2.80908
 20
19.7476
 30
0.0
 40
0.01
 41
0.01
  0
VERTEX
  8
0
 10
2.80908
 20
19.9444
 30
0.0
 40
0.01
 41
0.01
  0
VERTEX
  8
0
 10
3.20275
 20
19.9444
 30
0.0
 40
0.01
 41
0.01
  0
VERTEX
  8
0
 10
3.20275
 20
19.7476
 30
0.0
 40
0.01
 41
0.01
  0
VERTEX
  8
0
 10
3.59646
 20
19.7476
 30
0.0
 40
0.01
 41
0.01
  0
VERTEX
  8
0
 10
3.59646
 20
19.9444
 30
0.0
 40
0.01
 41
0.01
  0
VERTEX
  8
0
 10
3.99018
 20
19.9444
 30
0.0
 40
0.01
 41
0.01
  0
VERTEX
  8
0
 10
3.99018
 20
19.7476
 30
0.0
 40
0.01
 41
0.01
  0
VERTEX
  8
0
 10
4.38385
 20
19.7476
 30
0.0
 40
0.01
 41
0.01
  0
VERTEX
  8
0
 10
4.38385
 20
19.9444
 30
0.0
 40
0.01
 41
0.01
  0
VERTEX
  8
0
 10
4.77756
 20
19.9444
 30
0.0
 40
0.01
 41
0.01
  0
VERTEX
  8
0
 10
4.77756
 20
19.7476
 30
0.0
 40
0.01
 41
0.01
  0
VERTEX
  8
0
 10
5.17128
 20
19.7476
 30
0.0
 40
0.01
 41
0.01
  0
VERTEX
  8
0
 10
5.17128
 20
19.9444
 30
0.0
 40
0.01
 41
0.01
  0
VERTEX
  8
0
 10
5.56494
 20
19.9444
 30
0.0
 40
0.01
 41
0.01
  0
VERTEX
  8
0
 10
5.56494
 20
19.7476
 30
0.0
 40
0.01
 41
0.01
  0
VERTEX
  8
0
 10
5.95865
 20
19.7476
 30
0.0
 40
0.01
 41
0.01
  0
VERTEX
  8
0
 10
5.95865
 20
19.9444
 30
0.0
 40
0.01
 41
0.01
  0
VERTEX
  8
0
 10
6.35238
 20
19.9444
 30
0.0
 40
0.01
 41
0.01
  0
VERTEX
  8
0
 10
6.35238
 20
19.7476
 30
0.0
 40
0.01
 41
0.01
  0
VERTEX
  8
0
 10
6.74604
 20
19.7476
 30
0.0
 40
0.01
 41
0.01
  0
VERTEX
  8
0
 10
6.74604
 20
19.9444
 30
0.0
 40
0.01
 41
0.01
  0
VERTEX
  8
0
 10
7.13976
 20
19.9444
 30
0.0
 40
0.01
 41
0.01
  0
VERTEX
  8
0
 10
7.13976
 20
19.7476
 30
0.0
 40
0.01
 41
0.01
  0
VERTEX
  8
0
 10
7.53347
 20
19.7476
 30
0.0
 40
0.01
 41
0.01
  0
VERTEX
  8
0
 10
7.53347
 20
19.9444
 30
0.0
 40
0.01
 41
0.01
  0
VERTEX
  8
0
 10
7.92719
 20
19.9444
 30
0.0
 40
0.01
 41
0.01
  0
VERTEX
  8
0
 10
7.92719
 20
19.7476
 30
0.0
 40
0.01
 41
0.01
  0
VERTEX
  8
0
 10
8.32086
 20
19.7476
 30
0.0
 40
0.01
 41
0.01
  0
VERTEX
  8
0
 10
8.32086
 20
19.9444
 30
0.0
 40
0.01
 41
0.01
  0
VERTEX
  8
0
 10
8.71457
 20
19.9444
 30
0.0
 40
0.01
 41
0.01
  0
VERTEX
  8
0
 10
8.71457
 20
19.7476
 30
0.0
 40
0.01
 41
0.01
  0
VERTEX
  8
0
 10
9.10829
 20
19.7476
 30
0.0
 40
0.01
 41
0.01
  0
VERTEX
  8
0
 10
9.10829
 20
19.9444
 30
0.0
 40
0.01
 41
0.01
  0
VERTEX
  8
0
 10
9.50196
 20
19.9444
 30
0.0
 40
0.01
 41
0.01
  0
VERTEX
  8
0
 10
9.50196
 20
19.7476
 30
0.0
 40
0.01
 41
0.01
  0
VERTEX
  8
0
 10
9.89567
 20
19.7476
 30
0.0
 40
0.01
 41
0.01
  0
VERTEX
  8
0
 10
9.89567
 20
19.9444
 30
0.0
 40
0.01
 41
0.01
  0
VERTEX
  8
0
 10
10.2894
 20
19.9444
 30
0.0
 40
0.01
 41
0.01
  0
VERTEX
  8
0
 10
10.2894
 20
19.7476
 30
0.0
 40
0.01
 41
0.01
  0
VERTEX
  8
0
 10
10.6831
 20
19.7476
 30
0.0
 40
0.01
 41
0.01
  0
VERTEX
  8
0
 10
10.6831
 20
19.9444
 30
0.0
 40
0.01
 41
0.01
  0
VERTEX
  8
0
 10
11.0768
 20
19.9444
 30
0.0
 40
0.01
 41
0.01
  0
VERTEX
  8
0
 10
11.0768
 20
19.7476
 30
0.0
 40
0.01
 41
0.01
  0
VERTEX
  8
0
 10
11.5689
 20
19.7476
 30
0.0
 40
0.01
 41
0.01
  0
VERTEX
  8
0
 10
11.5689
 20
19.9444
 30
0.0
 40
0.01
 41
0.01
  0
VERTEX
  8
0
 10
12.061
 20
19.9444
 30
0.0
 40
0.01
 41
0.01
  0
VERTEX
  8
0
 10
12.061
 20
19.4524
 30
0.0
 40
0.01
 41
0.01
  0
VERTEX
  8
0
 10
11.8642
 20
19.4524
 30
0.0
 40
0.01
 41
0.01
  0
VERTEX
  8
0
 10
11.8642
 20
18.9601
 30
0.0
 40
0.01
 41
0.01
  0
VERTEX
  8
0
 10
12.061
 20
18.9601
 30
0.0
 40
0.01
 41
0.01
  0
VERTEX
  8
0
 10
12.061
 20
18.5665
 30
0.0
 40
0.01
 41
0.01
  0
VERTEX
  8
0
 10
11.8642
 20
18.5665
 30
0.0
 40
0.01
 41
0.01
  0
VERTEX
  8
0
 10
11.8642
 20
18.1728
 30
0.0
 40
0.01
 41
0.01
  0
VERTEX
  8
0
 10
12.061
 20
18.1728
 30
0.0
 40
0.01
 41
0.01
  0
VERTEX
  8
0
 10
12.061
 20
17.779
 30
0.0
 40
0.01
 41
0.01
  0
VERTEX
  8
0
 10
11.8642
 20
17.779
 30
0.0
 40
0.01
 41
0.01
  0
VERTEX
  8
0
 10
11.8642
 20
17.3854
 30
0.0
 40
0.01
 41
0.01
  0
VERTEX
  8
0
 10
12.061
 20
17.3854
 30
0.0
 40
0.01
 41
0.01
  0
VERTEX
  8
0
 10
12.061
 20
16.9917
 30
0.0
 40
0.01
 41
0.01
  0
VERTEX
  8
0
 10
11.8642
 20
16.9917
 30
0.0
 40
0.01
 41
0.01
  0
VERTEX
  8
0
 10
11.8642
 20
16.4996
 30
0.0
 40
0.01
 41
0.01
  0
VERTEX
  8
0
 10
12.061
 20
16.4996
 30
0.0
 40
0.01
 41
0.01
  0
VERTEX
  8
0
 10
12.061
 20
16.0075
 30
0.0
 40
0.01
 41
0.01
  0
VERTEX
  8
0
 10
11.5689
 20
16.0075
 30
0.0
 40
0.01
 41
0.01
  0
VERTEX
  8
0
 10
11.5689
 20
16.2043
 30
0.0
 40
0.01
 41
0.01
  0
VERTEX
  8
0
 10
11.0768
 20
16.2043
 30
0.0
 40
0.01
 41
0.01
  0
VERTEX
  8
0
 10
11.0768
 20
16.0075
 30
0.0
 40
0.01
 41
0.01
  0
VERTEX
  8
0
 10
10.6831
 20
16.0075
 30
0.0
 40
0.01
 41
0.01
  0
VERTEX
  8
0
 10
10.6831
 20
16.2043
 30
0.0
 40
0.01
 41
0.01
  0
VERTEX
  8
0
 10
10.2894
 20
16.2043
 30
0.0
 40
0.01
 41
0.01
  0
VERTEX
  8
0
 10
10.2894
 20
16.0075
 30
0.0
 40
0.01
 41
0.01
  0
VERTEX
  8
0
 10
9.89567
 20
16.0075
 30
0.0
 40
0.01
 41
0.01
  0
VERTEX
  8
0
 10
9.89567
 20
16.2043
 30
0.0
 40
0.01
 41
0.01
  0
VERTEX
  8
0
 10
9.50196
 20
16.2043
 30
0.0
 40
0.01
 41
0.01
  0
VERTEX
  8
0
 10
9.50196
 20
16.0075
 30
0.0
 40
0.01
 41
0.01
  0
VERTEX
  8
0
 10
9.10829
 20
16.0075
 30
0.0
 40
0.01
 41
0.01
  0
VERTEX
  8
0
 10
9.10829
 20
16.2043
 30
0.0
 40
0.01
 41
0.01
  0
VERTEX
  8
0
 10
8.71457
 20
16.2043
 30
0.0
 40
0.01
 41
0.01
  0
VERTEX
  8
0
 10
8.71457
 20
16.0075
 30
0.0
 40
0.01
 41
0.01
  0
VERTEX
  8
0
 10
8.32086
 20
16.0075
 30
0.0
 40
0.01
 41
0.01
  0
VERTEX
  8
0
 10
8.32086
 20
16.2043
 30
0.0
 40
0.01
 41
0.01
  0
VERTEX
  8
0
 10
7.92719
 20
16.2043
 30
0.0
 40
0.01
 41
0.01
  0
VERTEX
  8
0
 10
7.92719
 20
16.0075
 30
0.0
 40
0.01
 41
0.01
  0
VERTEX
  8
0
 10
7.53347
 20
16.0075
 30
0.0
 40
0.01
 41
0.01
  0
VERTEX
  8
0
 10
7.53347
 20
16.2043
 30
0.0
 40
0.01
 41
0.01
  0
VERTEX
  8
0
 10
7.13976
 20
16.2043
 30
0.0
 40
0.01
 41
0.01
  0
VERTEX
  8
0
 10
7.13976
 20
16.0075
 30
0.0
 40
0.01
 41
0.01
  0
VERTEX
  8
0
 10
6.74604
 20
16.0075
 30
0.0
 40
0.01
 41
0.01
  0
VERTEX
  8
0
 10
6.74604
 20
16.2043
 30
0.0
 40
0.01
 41
0.01
  0
VERTEX
  8
0
 10
6.35238
 20
16.2043
 30
0.0
 40
0.01
 41
0.01
  0
VERTEX
  8
0
 10
6.35238
 20
16.0075
 30
0.0
 40
0.01
 41
0.01
  0
VERTEX
  8
0
 10
5.95865
 20
16.0075
 30
0.0
 40
0.01
 41
0.01
  0
VERTEX
  8
0
 10
5.95865
 20
16.2043
 30
0.0
 40
0.01
 41
0.01
  0
VERTEX
  8
0
 10
5.56494
 20
16.2043
 30
0.0
 40
0.01
 41
0.01
  0
VERTEX
  8
0
 10
5.56494
 20
16.0075
 30
0.0
 40
0.01
 41
0.01
  0
VERTEX
  8
0
 10
5.17128
 20
16.0075
 30
0.0
 40
0.01
 41
0.01
  0
VERTEX
  8
0
 10
5.17128
 20
16.2043
 30
0.0
 40
0.01
 41
0.01
  0
VERTEX
  8
0
 10
4.77756
 20
16.2043
 30
0.0
 40
0.01
 41
0.01
  0
VERTEX
  8
0
 10
4.77756
 20
16.0075
 30
0.0
 40
0.01
 41
0.01
  0
VERTEX
  8
0
 10
4.38385
 20
16.0075
 30
0.0
 40
0.01
 41
0.01
  0
VERTEX
  8
0
 10
4.38385
 20
16.2043
 30
0.0
 40
0.01
 41
0.01
  0
VERTEX
  8
0
 10
3.99018
 20
16.2043
 30
0.0
 40
0.01
 41
0.01
  0
VERTEX
  8
0
 10
3.99018
 20
16.0075
 30
0.0
 40
0.01
 41
0.01
  0
VERTEX
  8
0
 10
3.59646
 20
16.0075
 30
0.0
 40
0.01
 41
0.01
  0
VERTEX
  8
0
 10
3.59646
 20
16.2043
 30
0.0
 40
0.01
 41
0.01
  0
VERTEX
  8
0
 10
3.20275
 20
16.2043
 30
0.0
 40
0.01
 41
0.01
  0
VERTEX
  8
0
 10
3.20275
 20
16.0075
 30
0.0
 40
0.01
 41
0.01
  0
VERTEX
  8
0
 10
2.80908
 20
16.0075
 30
0.0
 40
0.01
 41
0.01
  0
VERTEX
  8
0
 10
2.80908
 20
16.2043
 30
0.0
 40
0.01
 41
0.01
  0
VERTEX
  8
0
 10
2.41536
 20
16.2043
 30
0.0
 40
0.01
 41
0.01
  0
VERTEX
  8
0
 10
2.41536
 20
16.0075
 30
0.0
 40
0.01
 41
0.01
  0
VERTEX
  8
0
 10
2.02165
 20
16.0075
 30
0.0
 40
0.01
 41
0.01
  0
VERTEX
  8
0
 10
2.02165
 20
16.2043
 30
0.0
 40
0.01
 41
0.01
  0
VERTEX
  8
0
 10
1.62793
 20
16.2043
 30
0.0
 40
0.01
 41
0.01
  0
VERTEX
  8
0
 10
1.62793
 20
16.0075
 30
0.0
 40
0.01
 41
0.01
  0
VERTEX
  8
0
 10
1.23427
 20
16.0075
 30
0.0
 40
0.01
 41
0.01
  0
VERTEX
  8
0
 10
1.23427
 20
16.2043
 30
0.0
 40
0.01
 41
0.01
  0
VERTEX
  8
0
 10
0.742133
 20
16.2043
 30
0.0
 40
0.01
 41
0.01
  0
VERTEX
  8
0
 10
0.742133
 20
16.0075
 30
0.0
 40
0.01
 41
0.01
  0
VERTEX
  8
0
 10
0.25
 20
16.0075
 30
0.0
 40
0.01
 41
0.01
  0
VERTEX
  8
0
 10
0.25
 20
16.4996
 30
0.0
 40
0.01
 41
0.01
  0
VERTEX
  8
0
 10
0.446832
 20
16.4996
 30
0.0
 40
0.01
 41
0.01
  0
VERTEX
  8
0
 10
0.446832
 20
16.9917
 30
0.0
 40
0.01
 41
0.01
  0
VERTEX
  8
0
 10
0.25
 20
16.9917
 30
0.0
 40
0.01
 41
0.01
  0
VERTEX
  8
0
 10
0.25
 20
17.3854
 30
0.0
 40
0.01
 41
0.01
  0
VERTEX
  8
0
 10
0.446832
 20
17.3854
 30
0.0
 40
0.01
 41
0.01
  0
VERTEX
  8
0
 10
0.446832
 20
17.779
 30
0.0
 40
0.01
 41
0.01
  0
VERTEX
  8
0
 10
0.25
 20
17.779
 30
0.0
 40
0.01
 41
0.01
  0
VERTEX
  8
0
 10
0.25
 20
18.1728
 30
0.0
 40
0.01
 41
0.01
  0
VERTEX
  8
0
 10
0.446832
 20
18.1728
 30
0.0
 40
0.01
 41
0.01
  0
VERTEX
  8
0
 10
0.446832
 20
18.5665
 30
0.0
 40
0.01
 41
0.01
  0
VERTEX
  8
0
 10
0.25
 20
18.5665
 30
0.0
 40
0.01
 41
0.01
  0
VERTEX
  8
0
 10
0.25
 20
18.9601
 30
0.0
 40
0.01
 41
0.01
  0
VERTEX
  8
0
 10
0.446832
 20
18.9601
 30
0.0
 40
0.01
 41
0.01
  0
VERTEX
  8
0
 10
0.446832
 20
19.4524
 30
0.0
 40
0.01
 41
0.01
  0
VERTEX
  8
0
 10
0.25
 20
19.4524
 30
0.0
 40
0.01
 41
0.01
  0
VERTEX
  8
0
 10
0.25
 20
19.9444
 30
0.0
 40
0.01
 41
0.01
  0
SEQEND
 8
0
  0
POLYLINE
  8
0
 62
     0
 66
     1
 10
0
 20
0
 30
0.0
 70
     1
 40
0.72
 41
0.72
  0
VERTEX
  8
0
 10
12.061
 20
19.9444
 30
0.0
 40
0.01
 41
0.01
  0
VERTEX
  8
0
 10
12.5532
 20
19.9444
 30
0.0
 40
0.01
 41
0.01
  0
VERTEX
  8
0
 10
12.5532
 20
19.7476
 30
0.0
 40
0.01
 41
0.01
  0
VERTEX
  8
0
 10
13.0453
 20
19.7476
 30
0.0
 40
0.01
 41
0.01
  0
VERTEX
  8
0
 10
13.0453
 20
19.9444
 30
0.0
 40
0.01
 41
0.01
  0
VERTEX
  8
0
 10
13.439
 20
19.9444
 30
0.0
 40
0.01
 41
0.01
  0
VERTEX
  8
0
 10
13.439
 20
19.7476
 30
0.0
 40
0.01
 41
0.01
  0
VERTEX
  8
0
 10
13.8327
 20
19.7476
 30
0.0
 40
0.01
 41
0.01
  0
VERTEX
  8
0
 10
13.8327
 20
19.9444
 30
0.0
 40
0.01
 41
0.01
  0
VERTEX
  8
0
 10
14.2264
 20
19.9444
 30
0.0
 40
0.01
 41
0.01
  0
VERTEX
  8
0
 10
14.2264
 20
19.7476
 30
0.0
 40
0.01
 41
0.01
  0
VERTEX
  8
0
 10
14.62
 20
19.7476
 30
0.0
 40
0.01
 41
0.01
  0
VERTEX
  8
0
 10
14.62
 20
19.9444
 30
0.0
 40
0.01
 41
0.01
  0
VERTEX
  8
0
 10
15.0137
 20
19.9444
 30
0.0
 40
0.01
 41
0.01
  0
VERTEX
  8
0
 10
15.0137
 20
19.7476
 30
0.0
 40
0.01
 41
0.01
  0
VERTEX
  8
0
 10
15.4075
 20
19.7476
 30
0.0
 40
0.01
 41
0.01
  0
VERTEX
  8
0
 10
15.4075
 20
19.9444
 30
0.0
 40
0.01
 41
0.01
  0
VERTEX
  8
0
 10
15.8011
 20
19.9444
 30
0.0
 40
0.01
 41
0.01
  0
VERTEX
  8
0
 10
15.8011
 20
19.7476
 30
0.0
 40
0.01
 41
0.01
  0
VERTEX
  8
0
 10
16.1949
 20
19.7476
 30
0.0
 40
0.01
 41
0.01
  0
VERTEX
  8
0
 10
16.1949
 20
19.9444
 30
0.0
 40
0.01
 41
0.01
  0
VERTEX
  8
0
 10
16.5886
 20
19.9444
 30
0.0
 40
0.01
 41
0.01
  0
VERTEX
  8
0
 10
16.5886
 20
19.7476
 30
0.0
 40
0.01
 41
0.01
  0
VERTEX
  8
0
 10
16.9822
 20
19.7476
 30
0.0
 40
0.01
 41
0.01
  0
VERTEX
  8
0
 10
16.9822
 20
19.9444
 30
0.0
 40
0.01
 41
0.01
  0
VERTEX
  8
0
 10
17.376
 20
19.9444
 30
0.0
 40
0.01
 41
0.01
  0
VERTEX
  8
0
 10
17.376
 20
19.7476
 30
0.0
 40
0.01
 41
0.01
  0
VERTEX
  8
0
 10
17.7697
 20
19.7476
 30
0.0
 40
0.01
 41
0.01
  0
VERTEX
  8
0
 10
17.7697
 20
19.9444
 30
0.0
 40
0.01
 41
0.01
  0
VERTEX
  8
0
 10
18.1635
 20
19.9444
 30
0.0
 40
0.01
 41
0.01
  0
VERTEX
  8
0
 10
18.1635
 20
19.7476
 30
0.0
 40
0.01
 41
0.01
  0
VERTEX
  8
0
 10
18.5571
 20
19.7476
 30
0.0
 40
0.01
 41
0.01
  0
VERTEX
  8
0
 10
18.5571
 20
19.9444
 30
0.0
 40
0.01
 41
0.01
  0
VERTEX
  8
0
 10
18.9508
 20
19.9444
 30
0.0
 40
0.01
 41
0.01
  0
VERTEX
  8
0
 10
18.9508
 20
19.7476
 30
0.0
 40
0.01
 41
0.01
  0
VERTEX
  8
0
 10
19.3444
 20
19.7476
 30
0.0
 40
0.01
 41
0.01
  0
VERTEX
  8
0
 10
19.3444
 20
19.9444
 30
0.0
 40
0.01
 41
0.01
  0
VERTEX
  8
0
 10
19.7382
 20
19.9444
 30
0.0
 40
0.01
 41
0.01
  0
VERTEX
  8
0
 10
19.7382
 20
19.7476
 30
0.0
 40
0.01
 41
0.01
  0
VERTEX
  8
0
 10
20.1319
 20
19.7476
 30
0.0
 40
0.01
 41
0.01
  0
VERTEX
  8
0
 10
20.1319
 20
19.9444
 30
0.0
 40
0.01
 41
0.01
  0
VERTEX
  8
0
 10
20.5256
 20
19.9444
 30
0.0
 40
0.01
 41
0.01
  0
VERTEX
  8
0
 10
20.5256
 20
19.7476
 30
0.0
 40
0.01
 41
0.01
  0
VERTEX
  8
0
 10
20.9193
 20
19.7476
 30
0.0
 40
0.01
 41
0.01
  0
VERTEX
  8
0
 10
20.9193
 20
19.9444
 30
0.0
 40
0.01
 41
0.01
  0
VERTEX
  8
0
 10
21.3131
 20
19.9444
 30
0.0
 40
0.01
 41
0.01
  0
VERTEX
  8
0
 10
21.3131
 20
19.7476
 30
0.0
 40
0.01
 41
0.01
  0
VERTEX
  8
0
 10
21.7067
 20
19.7476
 30
0.0
 40
0.01
 41
0.01
  0
VERTEX
  8
0
 10
21.7067
 20
19.9444
 30
0.0
 40
0.01
 41
0.01
  0
VERTEX
  8
0
 10
22.1004
 20
19.9444
 30
0.0
 40
0.01
 41
0.01
  0
VERTEX
  8
0
 10
22.1004
 20
19.7476
 30
0.0
 40
0.01
 41
0.01
  0
VERTEX
  8
0
 10
22.494
 20
19.7476
 30
0.0
 40
0.01
 41
0.01
  0
VERTEX
  8
0
 10
22.494
 20
19.9444
 30
0.0
 40
0.01
 41
0.01
  0
VERTEX
  8
0
 10
22.8878
 20
19.9444
 30
0.0
 40
0.01
 41
0.01
  0
VERTEX
  8
0
 10
22.8878
 20
19.7476
 30
0.0
 40
0.01
 41
0.01
  0
VERTEX
  8
0
 10
23.38
 20
19.7476
 30
0.0
 40
0.01
 41
0.01
  0
VERTEX
  8
0
 10
23.38
 20
19.9444
 30
0.0
 40
0.01
 41
0.01
  0
VERTEX
  8
0
 10
23.8721
 20
19.9444
 30
0.0
 40
0.01
 41
0.01
  0
VERTEX
  8
0
 10
23.8721
 20
19.4524
 30
0.0
 40
0.01
 41
0.01
  0
VERTEX
  8
0
 10
23.6751
 20
19.4524
 30
0.0
 40
0.01
 41
0.01
  0
VERTEX
  8
0
 10
23.6751
 20
18.9601
 30
0.0
 40
0.01
 41
0.01
  0
VERTEX
  8
0
 10
23.8721
 20
18.9601
 30
0.0
 40
0.01
 41
0.01
  0
VERTEX
  8
0
 10
23.8721
 20
18.5665
 30
0.0
 40
0.01
 41
0.01
  0
VERTEX
  8
0
 10
23.6751
 20
18.5665
 30
0.0
 40
0.01
 41
0.01
  0
VERTEX
  8
0
 10
23.6751
 20
18.1728
 30
0.0
 40
0.01
 41
0.01
  0
VERTEX
  8
0
 10
23.8721
 20
18.1728
 30
0.0
 40
0.01
 41
0.01
  0
VERTEX
  8
0
 10
23.8721
 20
17.779
 30
0.0
 40
0.01
 41
0.01
  0
VERTEX
  8
0
 10
23.6751
 20
17.779
 30
0.0
 40
0.01
 41
0.01
  0
VERTEX
  8
0
 10
23.6751
 20
17.3854
 30
0.0
 40
0.01
 41
0.01
  0
VERTEX
  8
0
 10
23.8721
 20
17.3854
 30
0.0
 40
0.01
 41
0.01
  0
VERTEX
  8
0
 10
23.8721
 20
16.9917
 30
0.0
 40
0.01
 41
0.01
  0
VERTEX
  8
0
 10
23.6751
 20
16.9917
 30
0.0
 40
0.01
 41
0.01
  0
VERTEX
  8
0
 10
23.6751
 20
16.4996
 30
0.0
 40
0.01
 41
0.01
  0
VERTEX
  8
0
 10
23.8721
 20
16.4996
 30
0.0
 40
0.01
 41
0.01
  0
VERTEX
  8
0
 10
23.8721
 20
16.0075
 30
0.0
 40
0.01
 41
0.01
  0
VERTEX
  8
0
 10
23.38
 20
16.0075
 30
0.0
 40
0.01
 41
0.01
  0
VERTEX
  8
0
 10
23.38
 20
16.2043
 30
0.0
 40
0.01
 41
0.01
  0
VERTEX
  8
0
 10
22.8878
 20
16.2043
 30
0.0
 40
0.01
 41
0.01
  0
VERTEX
  8
0
 10
22.8878
 20
16.0075
 30
0.0
 40
0.01
 41
0.01
  0
VERTEX
  8
0
 10
22.494
 20
16.0075
 30
0.0
 40
0.01
 41
0.01
  0
VERTEX
  8
0
 10
22.494
 20
16.2043
 30
0.0
 40
0.01
 41
0.01
  0
VERTEX
  8
0
 10
22.1004
 20
16.2043
 30
0.0
 40
0.01
 41
0.01
  0
VERTEX
  8
0
 10
22.1004
 20
16.0075
 30
0.0
 40
0.01
 41
0.01
  0
VERTEX
  8
0
 10
21.7067
 20
16.0075
 30
0.0
 40
0.01
 41
0.01
  0
VERTEX
  8
0
 10
21.7067
 20
16.2043
 30
0.0
 40
0.01
 41
0.01
  0
VERTEX
  8
0
 10
21.3131
 20
16.2043
 30
0.0
 40
0.01
 41
0.01
  0
VERTEX
  8
0
 10
21.3131
 20
16.0075
 30
0.0
 40
0.01
 41
0.01
  0
VERTEX
  8
0
 10
20.9193
 20
16.0075
 30
0.0
 40
0.01
 41
0.01
  0
VERTEX
  8
0
 10
20.9193
 20
16.2043
 30
0.0
 40
0.01
 41
0.01
  0
VERTEX
  8
0
 10
20.5256
 20
16.2043
 30
0.0
 40
0.01
 41
0.01
  0
VERTEX
  8
0
 10
20.5256
 20
16.0075
 30
0.0
 40
0.01
 41
0.01
  0
VERTEX
  8
0
 10
20.1319
 20
16.0075
 30
0.0
 40
0.01
 41
0.01
  0
VERTEX
  8
0
 10
20.1319
 20
16.2043
 30
0.0
 40
0.01
 41
0.01
  0
VERTEX
  8
0
 10
19.7382
 20
16.2043
 30
0.0
 40
0.01
 41
0.01
  0
VERTEX
  8
0
 10
19.7382
 20
16.0075
 30
0.0
 40
0.01
 41
0.01
  0
VERTEX
  8
0
 10
19.3444
 20
16.0075
 30
0.0
 40
0.01
 41
0.01
  0
VERTEX
  8
0
 10
19.3444
 20
16.2043
 30
0.0
 40
0.01
 41
0.01
  0
VERTEX
  8
0
 10
18.9508
 20
16.2043
 30
0.0
 40
0.01
 41
0.01
  0
VERTEX
  8
0
 10
18.9508
 20
16.0075
 30
0.0
 40
0.01
 41
0.01
  0
VERTEX
  8
0
 10
18.5571
 20
16.0075
 30
0.0
 40
0.01
 41
0.01
  0
VERTEX
  8
0
 10
18.5571
 20
16.2043
 30
0.0
 40
0.01
 41
0.01
  0
VERTEX
  8
0
 10
18.1635
 20
16.2043
 30
0.0
 40
0.01
 41
0.01
  0
VERTEX
  8
0
 10
18.1635
 20
16.0075
 30
0.0
 40
0.01
 41
0.01
  0
VERTEX
  8
0
 10
17.7697
 20
16.0075
 30
0.0
 40
0.01
 41
0.01
  0
VERTEX
  8
0
 10
17.7697
 20
16.2043
 30
0.0
 40
0.01
 41
0.01
  0
VERTEX
  8
0
 10
17.376
 20
16.2043
 30
0.0
 40
0.01
 41
0.01
  0
VERTEX
  8
0
 10
17.376
 20
16.0075
 30
0.0
 40
0.01
 41
0.01
  0
VERTEX
  8
0
 10
16.9822
 20
16.0075
 30
0.0
 40
0.01
 41
0.01
  0
VERTEX
  8
0
 10
16.9822
 20
16.2043
 30
0.0
 40
0.01
 41
0.01
  0
VERTEX
  8
0
 10
16.5886
 20
16.2043
 30
0.0
 40
0.01
 41
0.01
  0
VERTEX
  8
0
 10
16.5886
 20
16.0075
 30
0.0
 40
0.01
 41
0.01
  0
VERTEX
  8
0
 10
16.1949
 20
16.0075
 30
0.0
 40
0.01
 41
0.01
  0
VERTEX
  8
0
 10
16.1949
 20
16.2043
 30
0.0
 40
0.01
 41
0.01
  0
VERTEX
  8
0
 10
15.8011
 20
16.2043
 30
0.0
 40
0.01
 41
0.01
  0
VERTEX
  8
0
 10
15.8011
 20
16.0075
 30
0.0
 40
0.01
 41
0.01
  0
VERTEX
  8
0
 10
15.4075
 20
16.0075
 30
0.0
 40
0.01
 41
0.01
  0
VERTEX
  8
0
 10
15.4075
 20
16.2043
 30
0.0
 40
0.01
 41
0.01
  0
VERTEX
  8
0
 10
15.0137
 20
16.2043
 30
0.0
 40
0.01
 41
0.01
  0
VERTEX
  8
0
 10
15.0137
 20
16.0075
 30
0.0
 40
0.01
 41
0.01
  0
VERTEX
  8
0
 10
14.62
 20
16.0075
 30
0.0
 40
0.01
 41
0.01
  0
VERTEX
  8
0
 10
14.62
 20
16.2043
 30
0.0
 40
0.01
 41
0.01
  0
VERTEX
  8
0
 10
14.2264
 20
16.2043
 30
0.0
 40
0.01
 41
0.01
  0
VERTEX
  8
0
 10
14.2264
 20
16.0075
 30
0.0
 40
0.01
 41
0.01
  0
VERTEX
  8
0
 10
13.8327
 20
16.0075
 30
0.0
 40
0.01
 41
0.01
  0
VERTEX
  8
0
 10
13.8327
 20
16.2043
 30
0.0
 40
0.01
 41
0.01
  0
VERTEX
  8
0
 10
13.439
 20
16.2043
 30
0.0
 40
0.01
 41
0.01
  0
VERTEX
  8
0
 10
13.439
 20
16.0075
 30
0.0
 40
0.01
 41
0.01
  0
VERTEX
  8
0
 10
13.0453
 20
16.0075
 30
0.0
 40
0.01
 41
0.01
  0
VERTEX
  8
0
 10
13.0453
 20
16.2043
 30
0.0
 40
0.01
 41
0.01
  0
VERTEX
  8
0
 10
12.5532
 20
16.2043
 30
0.0
 40
0.01
 41
0.01
  0
VERTEX
  8
0
 10
12.5532
 20
16.0075
 30
0.0
 40
0.01
 41
0.01
  0
VERTEX
  8
0
 10
12.061
 20
16.0075
 30
0.0
 40
0.01
 41
0.01
  0
VERTEX
  8
0
 10
12.061
 20
16.4996
 30
0.0
 40
0.01
 41
0.01
  0
VERTEX
  8
0
 10
12.2579
 20
16.4996
 30
0.0
 40
0.01
 41
0.01
  0
VERTEX
  8
0
 10
12.2579
 20
16.9917
 30
0.0
 40
0.01
 41
0.01
  0
VERTEX
  8
0
 10
12.061
 20
16.9917
 30
0.0
 40
0.01
 41
0.01
  0
VERTEX
  8
0
 10
12.061
 20
17.3854
 30
0.0
 40
0.01
 41
0.01
  0
VERTEX
  8
0
 10
12.2579
 20
17.3854
 30
0.0
 40
0.01
 41
0.01
  0
VERTEX
  8
0
 10
12.2579
 20
17.779
 30
0.0
 40
0.01
 41
0.01
  0
VERTEX
  8
0
 10
12.061
 20
17.779
 30
0.0
 40
0.01
 41
0.01
  0
VERTEX
  8
0
 10
12.061
 20
18.1728
 30
0.0
 40
0.01
 41
0.01
  0
VERTEX
  8
0
 10
12.2579
 20
18.1728
 30
0.0
 40
0.01
 41
0.01
  0
VERTEX
  8
0
 10
12.2579
 20
18.5665
 30
0.0
 40
0.01
 41
0.01
  0
VERTEX
  8
0
 10
12.061
 20
18.5665
 30
0.0
 40
0.01
 41
0.01
  0
VERTEX
  8
0
 10
12.061
 20
18.9601
 30
0.0
 40
0.01
 41
0.01
  0
VERTEX
  8
0
 10
12.2579
 20
18.9601
 30
0.0
 40
0.01
 41
0.01
  0
VERTEX
  8
0
 10
12.2579
 20
19.4524
 30
0.0
 40
0.01
 41
0.01
  0
VERTEX
  8
0
 10
12.061
 20
19.4524
 30
0.0
 40
0.01
 41
0.01
  0
VERTEX
  8
0
 10
12.061
 20
19.9444
 30
0.0
 40
0.01
 41
0.01
  0
SEQEND
 8
0
  0
POLYLINE
  8
0
 62
     0
 66
     1
 10
0
 20
0
 30
0.0
 70
     1
 40
0.72
 41
0.72
  0
VERTEX
  8
0
 10
24.0689
 20
19.9444
 30
0.0
 40
0.01
 41
0.01
  0
VERTEX
  8
0
 10
24.3642
 20
19.9444
 30
0.0
 40
0.01
 41
0.01
  0
VERTEX
  8
0
 10
24.3642
 20
19.7476
 30
0.0
 40
0.01
 41
0.01
  0
VERTEX
  8
0
 10
24.8563
 20
19.7476
 30
0.0
 40
0.01
 41
0.01
  0
VERTEX
  8
0
 10
24.8563
 20
19.9444
 30
0.0
 40
0.01
 41
0.01
  0
VERTEX
  8
0
 10
25.25
 20
19.9444
 30
0.0
 40
0.01
 41
0.01
  0
VERTEX
  8
0
 10
25.25
 20
19.7476
 30
0.0
 40
0.01
 41
0.01
  0
VERTEX
  8
0
 10
25.6437
 20
19.7476
 30
0.0
 40
0.01
 41
0.01
  0
VERTEX
  8
0
 10
25.6437
 20
19.9444
 30
0.0
 40
0.01
 41
0.01
  0
VERTEX
  8
0
 10
26.0374
 20
19.9444
 30
0.0
 40
0.01
 41
0.01
  0
VERTEX
  8
0
 10
26.0374
 20
19.7476
 30
0.0
 40
0.01
 41
0.01
  0
VERTEX
  8
0
 10
26.4311
 20
19.7476
 30
0.0
 40
0.01
 41
0.01
  0
VERTEX
  8
0
 10
26.4311
 20
19.9444
 30
0.0
 40
0.01
 41
0.01
  0
VERTEX
  8
0
 10
26.8249
 20
19.9444
 30
0.0
 40
0.01
 41
0.01
  0
VERTEX
  8
0
 10
26.8249
 20
19.7476
 30
0.0
 40
0.01
 41
0.01
  0
VERTEX
  8
0
 10
27.2185
 20
19.7476
 30
0.0
 40
0.01
 41
0.01
  0
VERTEX
  8
0
 10
27.2185
 20
19.9444
 30
0.0
 40
0.01
 41
0.01
  0
VERTEX
  8
0
 10
27.6122
 20
19.9444
 30
0.0
 40
0.01
 41
0.01
  0
VERTEX
  8
0
 10
27.6122
 20
19.7476
 30
0.0
 40
0.01
 41
0.01
  0
VERTEX
  8
0
 10
28.006
 20
19.7476
 30
0.0
 40
0.01
 41
0.01
  0
VERTEX
  8
0
 10
28.006
 20
19.9444
 30
0.0
 40
0.01
 41
0.01
  0
VERTEX
  8
0
 10
28.3996
 20
19.9444
 30
0.0
 40
0.01
 41
0.01
  0
VERTEX
  8
0
 10
28.3996
 20
19.7476
 30
0.0
 40
0.01
 41
0.01
  0
VERTEX
  8
0
 10
28.7933
 20
19.7476
 30
0.0
 40
0.01
 41
0.01
  0
VERTEX
  8
0
 10
28.7933
 20
19.9444
 30
0.0
 40
0.01
 41
0.01
  0
VERTEX
  8
0
 10
29.1869
 20
19.9444
 30
0.0
 40
0.01
 41
0.01
  0
VERTEX
  8
0
 10
29.1869
 20
19.7476
 30
0.0
 40
0.01
 41
0.01
  0
VERTEX
  8
0
 10
29.5807
 20
19.7476
 30
0.0
 40
0.01
 41
0.01
  0
VERTEX
  8
0
 10
29.5807
 20
19.9444
 30
0.0
 40
0.01
 41
0.01
  0
VERTEX
  8
0
 10
29.9744
 20
19.9444
 30
0.0
 40
0.01
 41
0.01
  0
VERTEX
  8
0
 10
29.9744
 20
19.7476
 30
0.0
 40
0.01
 41
0.01
  0
VERTEX
  8
0
 10
30.3681
 20
19.7476
 30
0.0
 40
0.01
 41
0.01
  0
VERTEX
  8
0
 10
30.3681
 20
19.9444
 30
0.0
 40
0.01
 41
0.01
  0
VERTEX
  8
0
 10
30.7618
 20
19.9444
 30
0.0
 40
0.01
 41
0.01
  0
VERTEX
  8
0
 10
30.7618
 20
19.7476
 30
0.0
 40
0.01
 41
0.01
  0
VERTEX
  8
0
 10
31.1556
 20
19.7476
 30
0.0
 40
0.01
 41
0.01
  0
VERTEX
  8
0
 10
31.1556
 20
19.9444
 30
0.0
 40
0.01
 41
0.01
  0
VERTEX
  8
0
 10
31.5492
 20
19.9444
 30
0.0
 40
0.01
 41
0.01
  0
VERTEX
  8
0
 10
31.5492
 20
19.7476
 30
0.0
 40
0.01
 41
0.01
  0
VERTEX
  8
0
 10
31.9429
 20
19.7476
 30
0.0
 40
0.01
 41
0.01
  0
VERTEX
  8
0
 10
31.9429
 20
19.9444
 30
0.0
 40
0.01
 41
0.01
  0
VERTEX
  8
0
 10
32.3365
 20
19.9444
 30
0.0
 40
0.01
 41
0.01
  0
VERTEX
  8
0
 10
32.3365
 20
19.7476
 30
0.0
 40
0.01
 41
0.01
  0
VERTEX
  8
0
 10
32.7303
 20
19.7476
 30
0.0
 40
0.01
 41
0.01
  0
VERTEX
  8
0
 10
32.7303
 20
19.9444
 30
0.0
 40
0.01
 41
0.01
  0
VERTEX
  8
0
 10
33.124
 20
19.9444
 30
0.0
 40
0.01
 41
0.01
  0
VERTEX
  8
0
 10
33.124
 20
19.7476
 30
0.0
 40
0.01
 41
0.01
  0
VERTEX
  8
0
 10
33.5178
 20
19.7476
 30
0.0
 40
0.01
 41
0.01
  0
VERTEX
  8
0
 10
33.5178
 20
19.9444
 30
0.0
 40
0.01
 41
0.01
  0
VERTEX
  8
0
 10
33.9114
 20
19.9444
 30
0.0
 40
0.01
 41
0.01
  0
VERTEX
  8
0
 10
33.9114
 20
19.7476
 30
0.0
 40
0.01
 41
0.01
  0
VERTEX
  8
0
 10
34.3051
 20
19.7476
 30
0.0
 40
0.01
 41
0.01
  0
VERTEX
  8
0
 10
34.3051
 20
19.9444
 30
0.0
 40
0.01
 41
0.01
  0
VERTEX
  8
0
 10
34.6989
 20
19.9444
 30
0.0
 40
0.01
 41
0.01
  0
VERTEX
  8
0
 10
34.6989
 20
19.7476
 30
0.0
 40
0.01
 41
0.01
  0
VERTEX
  8
0
 10
35.0925
 20
19.7476
 30
0.0
 40
0.01
 41
0.01
  0
VERTEX
  8
0
 10
35.0925
 20
19.9444
 30
0.0
 40
0.01
 41
0.01
  0
VERTEX
  8
0
 10
35.4863
 20
19.9444
 30
0.0
 40
0.01
 41
0.01
  0
VERTEX
  8
0
 10
35.4863
 20
19.7476
 30
0.0
 40
0.01
 41
0.01
  0
VERTEX
  8
0
 10
35.88
 20
19.7476
 30
0.0
 40
0.01
 41
0.01
  0
VERTEX
  8
0
 10
35.88
 20
19.9444
 30
0.0
 40
0.01
 41
0.01
  0
VERTEX
  8
0
 10
36.2736
 20
19.9444
 30
0.0
 40
0.01
 41
0.01
  0
VERTEX
  8
0
 10
36.2736
 20
19.7476
 30
0.0
 40
0.01
 41
0.01
  0
VERTEX
  8
0
 10
36.6674
 20
19.7476
 30
0.0
 40
0.01
 41
0.01
  0
VERTEX
  8
0
 10
36.6674
 20
19.9444
 30
0.0
 40
0.01
 41
0.01
  0
VERTEX
  8
0
 10
37.061
 20
19.9444
 30
0.0
 40
0.01
 41
0.01
  0
VERTEX
  8
0
 10
37.061
 20
19.7476
 30
0.0
 40
0.01
 41
0.01
  0
VERTEX
  8
0
 10
37.4547
 20
19.7476
 30
0.0
 40
0.01
 41
0.01
  0
VERTEX
  8
0
 10
37.4547
 20
19.9444
 30
0.0
 40
0.01
 41
0.01
  0
VERTEX
  8
0
 10
37.8485
 20
19.9444
 30
0.0
 40
0.01
 41
0.01
  0
VERTEX
  8
0
 10
37.8485
 20
19.7476
 30
0.0
 40
0.01
 41
0.01
  0
VERTEX
  8
0
 10
38.2421
 20
19.7476
 30
0.0
 40
0.01
 41
0.01
  0
VERTEX
  8
0
 10
38.2421
 20
19.9444
 30
0.0
 40
0.01
 41
0.01
  0
VERTEX
  8
0
 10
38.6358
 20
19.9444
 30
0.0
 40
0.01
 41
0.01
  0
VERTEX
  8
0
 10
38.6358
 20
19.7476
 30
0.0
 40
0.01
 41
0.01
  0
VERTEX
  8
0
 10
39.1279
 20
19.7476
 30
0.0
 40
0.01
 41
0.01
  0
VERTEX
  8
0
 10
39.1279
 20
19.9444
 30
0.0
 40
0.01
 41
0.01
  0
VERTEX
  8
0
 10
39.4232
 20
19.9444
 30
0.0
 40
0.01
 41
0.01
  0
VERTEX
  8
0
 10
39.4232
 20
19.4524
 30
0.0
 40
0.01
 41
0.01
  0
VERTEX
  8
0
 10
39.62
 20
19.4524
 30
0.0
 40
0.01
 41
0.01
  0
VERTEX
  8
0
 10
39.62
 20
18.9601
 30
0.0
 40
0.01
 41
0.01
  0
VERTEX
  8
0
 10
39.4232
 20
18.9601
 30
0.0
 40
0.01
 41
0.01
  0
VERTEX
  8
0
 10
39.4232
 20
18.5665
 30
0.0
 40
0.01
 41
0.01
  0
VERTEX
  8
0
 10
39.62
 20
18.5665
 30
0.0
 40
0.01
 41
0.01
  0
VERTEX
  8
0
 10
39.62
 20
18.1728
 30
0.0
 40
0.01
 41
0.01
  0
VERTEX
  8
0
 10
39.4232
 20
18.1728
 30
0.0
 40
0.01
 41
0.01
  0
VERTEX
  8
0
 10
39.4232
 20
17.779
 30
0.0
 40
0.01
 41
0.01
  0
VERTEX
  8
0
 10
39.62
 20
17.779
 30
0.0
 40
0.01
 41
0.01
  0
VERTEX
  8
0
 10
39.62
 20
17.3854
 30
0.0
 40
0.01
 41
0.01
  0
VERTEX
  8
0
 10
39.4232
 20
17.3854
 30
0.0
 40
0.01
 41
0.01
  0
VERTEX
  8
0
 10
39.4232
 20
16.9917
 30
0.0
 40
0.01
 41
0.01
  0
VERTEX
  8
0
 10
39.62
 20
16.9917
 30
0.0
 40
0.01
 41
0.01
  0
VERTEX
  8
0
 10
39.62
 20
16.4996
 30
0.0
 40
0.01
 41
0.01
  0
VERTEX
  8
0
 10
39.4232
 20
16.4996
 30
0.0
 40
0.01
 41
0.01
  0
VERTEX
  8
0
 10
39.4232
 20
16.0075
 30
0.0
 40
0.01
 41
0.01
  0
VERTEX
  8
0
 10
39.1279
 20
16.0075
 30
0.0
 40
0.01
 41
0.01
  0
VERTEX
  8
0
 10
39.1279
 20
16.2043
 30
0.0
 40
0.01
 41
0.01
  0
VERTEX
  8
0
 10
38.6358
 20
16.2043
 30
0.0
 40
0.01
 41
0.01
  0
VERTEX
  8
0
 10
38.6358
 20
16.0075
 30
0.0
 40
0.01
 41
0.01
  0
VERTEX
  8
0
 10
38.2421
 20
16.0075
 30
0.0
 40
0.01
 41
0.01
  0
VERTEX
  8
0
 10
38.2421
 20
16.2043
 30
0.0
 40
0.01
 41
0.01
  0
VERTEX
  8
0
 10
37.8485
 20
16.2043
 30
0.0
 40
0.01
 41
0.01
  0
VERTEX
  8
0
 10
37.8485
 20
16.0075
 30
0.0
 40
0.01
 41
0.01
  0
VERTEX
  8
0
 10
37.4547
 20
16.0075
 30
0.0
 40
0.01
 41
0.01
  0
VERTEX
  8
0
 10
37.4547
 20
16.2043
 30
0.0
 40
0.01
 41
0.01
  0
VERTEX
  8
0
 10
37.061
 20
16.2043
 30
0.0
 40
0.01
 41
0.01
  0
VERTEX
  8
0
 10
37.061
 20
16.0075
 30
0.0
 40
0.01
 41
0.01
  0
VERTEX
  8
0
 10
36.6674
 20
16.0075
 30
0.0
 40
0.01
 41
0.01
  0
VERTEX
  8
0
 10
36.6674
 20
16.2043
 30
0.0
 40
0.01
 41
0.01
  0
VERTEX
  8
0
 10
36.2736
 20
16.2043
 30
0.0
 40
0.01
 41
0.01
  0
VERTEX
  8
0
 10
36.2736
 20
16.0075
 30
0.0
 40
0.01
 41
0.01
  0
VERTEX
  8
0
 10
35.88
 20
16.0075
 30
0.0
 40
0.01
 41
0.01
  0
VERTEX
  8
0
 10
35.88
 20
16.2043
 30
0.0
 40
0.01
 41
0.01
  0
VERTEX
  8
0
 10
35.4863
 20
16.2043
 30
0.0
 40
0.01
 41
0.01
  0
VERTEX
  8
0
 10
35.4863
 20
16.0075
 30
0.0
 40
0.01
 41
0.01
  0
VERTEX
  8
0
 10
35.0925
 20
16.0075
 30
0.0
 40
0.01
 41
0.01
  0
VERTEX
  8
0
 10
35.0925
 20
16.2043
 30
0.0
 40
0.01
 41
0.01
  0
VERTEX
  8
0
 10
34.6989
 20
16.2043
 30
0.0
 40
0.01
 41
0.01
  0
VERTEX
  8
0
 10
34.6989
 20
16.0075
 30
0.0
 40
0.01
 41
0.01
  0
VERTEX
  8
0
 10
34.3051
 20
16.0075
 30
0.0
 40
0.01
 41
0.01
  0
VERTEX
  8
0
 10
34.3051
 20
16.2043
 30
0.0
 40
0.01
 41
0.01
  0
VERTEX
  8
0
 10
33.9114
 20
16.2043
 30
0.0
 40
0.01
 41
0.01
  0
VERTEX
  8
0
 10
33.9114
 20
16.0075
 30
0.0
 40
0.01
 41
0.01
  0
VERTEX
  8
0
 10
33.5178
 20
16.0075
 30
0.0
 40
0.01
 41
0.01
  0
VERTEX
  8
0
 10
33.5178
 20
16.2043
 30
0.0
 40
0.01
 41
0.01
  0
VERTEX
  8
0
 10
33.124
 20
16.2043
 30
0.0
 40
0.01
 41
0.01
  0
VERTEX
  8
0
 10
33.124
 20
16.0075
 30
0.0
 40
0.01
 41
0.01
  0
VERTEX
  8
0
 10
32.7303
 20
16.0075
 30
0.0
 40
0.01
 41
0.01
  0
VERTEX
  8
0
 10
32.7303
 20
16.2043
 30
0.0
 40
0.01
 41
0.01
  0
VERTEX
  8
0
 10
32.3365
 20
16.2043
 30
0.0
 40
0.01
 41
0.01
  0
VERTEX
  8
0
 10
32.3365
 20
16.0075
 30
0.0
 40
0.01
 41
0.01
  0
VERTEX
  8
0
 10
31.9429
 20
16.0075
 30
0.0
 40
0.01
 41
0.01
  0
VERTEX
  8
0
 10
31.9429
 20
16.2043
 30
0.0
 40
0.01
 41
0.01
  0
VERTEX
  8
0
 10
31.5492
 20
16.2043
 30
0.0
 40
0.01
 41
0.01
  0
VERTEX
  8
0
 10
31.5492
 20
16.0075
 30
0.0
 40
0.01
 41
0.01
  0
VERTEX
  8
0
 10
31.1556
 20
16.0075
 30
0.0
 40
0.01
 41
0.01
  0
VERTEX
  8
0
 10
31.1556
 20
16.2043
 30
0.0
 40
0.01
 41
0.01
  0
VERTEX
  8
0
 10
30.7618
 20
16.2043
 30
0.0
 40
0.01
 41
0.01
  0
VERTEX
  8
0
 10
30.7618
 20
16.0075
 30
0.0
 40
0.01
 41
0.01
  0
VERTEX
  8
0
 10
30.3681
 20
16.0075
 30
0.0
 40
0.01
 41
0.01
  0
VERTEX
  8
0
 10
30.3681
 20
16.2043
 30
0.0
 40
0.01
 41
0.01
  0
VERTEX
  8
0
 10
29.9744
 20
16.2043
 30
0.0
 40
0.01
 41
0.01
  0
VERTEX
  8
0
 10
29.9744
 20
16.0075
 30
0.0
 40
0.01
 41
0.01
  0
VERTEX
  8
0
 10
29.5807
 20
16.0075
 30
0.0
 40
0.01
 41
0.01
  0
VERTEX
  8
0
 10
29.5807
 20
16.2043
 30
0.0
 40
0.01
 41
0.01
  0
VERTEX
  8
0
 10
29.1869
 20
16.2043
 30
0.0
 40
0.01
 41
0.01
  0
VERTEX
  8
0
 10
29.1869
 20
16.0075
 30
0.0
 40
0.01
 41
0.01
  0
VERTEX
  8
0
 10
28.7933
 20
16.0075
 30
0.0
 40
0.01
 41
0.01
  0
VERTEX
  8
0
 10
28.7933
 20
16.2043
 30
0.0
 40
0.01
 41
0.01
  0
VERTEX
  8
0
 10
28.3996
 20
16.2043
 30
0.0
 40
0.01
 41
0.01
  0
VERTEX
  8
0
 10
28.3996
 20
16.0075
 30
0.0
 40
0.01
 41
0.01
  0
VERTEX
  8
0
 10
28.006
 20
16.0075
 30
0.0
 40
0.01
 41
0.01
  0
VERTEX
  8
0
 10
28.006
 20
16.2043
 30
0.0
 40
0.01
 41
0.01
  0
VERTEX
  8
0
 10
27.6122
 20
16.2043
 30
0.0
 40
0.01
 41
0.01
  0
VERTEX
  8
0
 10
27.6122
 20
16.0075
 30
0.0
 40
0.01
 41
0.01
  0
VERTEX
  8
0
 10
27.2185
 20
16.0075
 30
0.0
 40
0.01
 41
0.01
  0
VERTEX
  8
0
 10
27.2185
 20
16.2043
 30
0.0
 40
0.01
 41
0.01
  0
VERTEX
  8
0
 10
26.8249
 20
16.2043
 30
0.0
 40
0.01
 41
0.01
  0
VERTEX
  8
0
 10
26.8249
 20
16.0075
 30
0.0
 40
0.01
 41
0.01
  0
VERTEX
  8
0
 10
26.4311
 20
16.0075
 30
0.0
 40
0.01
 41
0.01
  0
VERTEX
  8
0
 10
26.4311
 20
16.2043
 30
0.0
 40
0.01
 41
0.01
  0
VERTEX
  8
0
 10
26.0374
 20
16.2043
 30
0.0
 40
0.01
 41
0.01
  0
VERTEX
  8
0
 10
26.0374
 20
16.0075
 30
0.0
 40
0.01
 41
0.01
  0
VERTEX
  8
0
 10
25.6437
 20
16.0075
 30
0.0
 40
0.01
 41
0.01
  0
VERTEX
  8
0
 10
25.6437
 20
16.2043
 30
0.0
 40
0.01
 41
0.01
  0
VERTEX
  8
0
 10
25.25
 20
16.2043
 30
0.0
 40
0.01
 41
0.01
  0
VERTEX
  8
0
 10
25.25
 20
16.0075
 30
0.0
 40
0.01
 41
0.01
  0
VERTEX
  8
0
 10
24.8563
 20
16.0075
 30
0.0
 40
0.01
 41
0.01
  0
VERTEX
  8
0
 10
24.8563
 20
16.2043
 30
0.0
 40
0.01
 41
0.01
  0
VERTEX
  8
0
 10
24.3642
 20
16.2043
 30
0.0
 40
0.01
 41
0.01
  0
VERTEX
  8
0
 10
24.3642
 20
16.0075
 30
0.0
 40
0.01
 41
0.01
  0
VERTEX
  8
0
 10
24.0689
 20
16.0075
 30
0.0
 40
0.01
 41
0.01
  0
VERTEX
  8
0
 10
24.0689
 20
16.4996
 30
0.0
 40
0.01
 41
0.01
  0
VERTEX
  8
0
 10
23.8721
 20
16.4996
 30
0.0
 40
0.01
 41
0.01
  0
VERTEX
  8
0
 10
23.8721
 20
16.9917
 30
0.0
 40
0.01
 41
0.01
  0
VERTEX
  8
0
 10
24.0689
 20
16.9917
 30
0.0
 40
0.01
 41
0.01
  0
VERTEX
  8
0
 10
24.0689
 20
17.3854
 30
0.0
 40
0.01
 41
0.01
  0
VERTEX
  8
0
 10
23.8721
 20
17.3854
 30
0.0
 40
0.01
 41
0.01
  0
VERTEX
  8
0
 10
23.8721
 20
17.779
 30
0.0
 40
0.01
 41
0.01
  0
VERTEX
  8
0
 10
24.0689
 20
17.779
 30
0.0
 40
0.01
 41
0.01
  0
VERTEX
  8
0
 10
24.0689
 20
18.1728
 30
0.0
 40
0.01
 41
0.01
  0
VERTEX
  8
0
 10
23.8721
 20
18.1728
 30
0.0
 40
0.01
 41
0.01
  0
VERTEX
  8
0
 10
23.8721
 20
18.5665
 30
0.0
 40
0.01
 41
0.01
  0
VERTEX
  8
0
 10
24.0689
 20
18.5665
 30
0.0
 40
0.01
 41
0.01
  0
VERTEX
  8
0
 10
24.0689
 20
18.9601
 30
0.0
 40
0.01
 41
0.01
  0
VERTEX
  8
0
 10
23.8721
 20
18.9601
 30
0.0
 40
0.01
 41
0.01
  0
VERTEX
  8
0
 10
23.8721
 20
19.4524
 30
0.0
 40
0.01
 41
0.01
  0
VERTEX
  8
0
 10
24.0689
 20
19.4524
 30
0.0
 40
0.01
 41
0.01
  0
VERTEX
  8
0
 10
24.0689
 20
19.9444
 30
0.0
 40
0.01
 41
0.01
  0
SEQEND
 8
0
  0
POLYLINE
  8
0
 62
     0
 66
     1
 10
0
 20
0
 30
0.0
 70
     1
 40
0.72
 41
0.72
  0
VERTEX
  8
0
 10
27.809
 20
14.0389
 30
0.0
 40
0.01
 41
0.01
  0
VERTEX
  8
0
 10
27.809
 20
13.9893
 30
0.0
 40
0.01
 41
0.01
  0
VERTEX
  8
0
 10
27.789
 20
13.8406
 30
0.0
 40
0.01
 41
0.01
  0
VERTEX
  8
0
 10
27.7317
 20
13.6559
 30
0.0
 40
0.01
 41
0.01
  0
VERTEX
  8
0
 10
27.641
 20
13.4887
 30
0.0
 40
0.01
 41
0.01
  0
VERTEX
  8
0
 10
27.5208
 20
13.343
 30
0.0
 40
0.01
 41
0.01
  0
VERTEX
  8
0
 10
27.3751
 20
13.2228
 30
0.0
 40
0.01
 41
0.01
  0
VERTEX
  8
0
 10
27.2079
 20
13.1321
 30
0.0
 40
0.01
 41
0.01
  0
VERTEX
  8
0
 10
27.0232
 20
13.0747
 30
0.0
 40
0.01
 41
0.01
  0
VERTEX
  8
0
 10
26.8744
 20
13.0547
 30
0.0
 40
0.01
 41
0.01
  0
VERTEX
  8
0
 10
26.8249
 20
13.0547
 30
0.0
 40
0.01
 41
0.01
  0
VERTEX
  8
0
 10
26.7751
 20
13.0547
 30
0.0
 40
0.01
 41
0.01
  0
VERTEX
  8
0
 10
26.6264
 20
13.0747
 30
0.0
 40
0.01
 41
0.01
  0
VERTEX
  8
0
 10
26.4417
 20
13.1321
 30
0.0
 40
0.01
 41
0.01
  0
VERTEX
  8
0
 10
26.2744
 20
13.2228
 30
0.0
 40
0.01
 41
0.01
  0
VERTEX
  8
0
 10
26.1288
 20
13.343
 30
0.0
 40
0.01
 41
0.01
  0
VERTEX
  8
0
 10
26.0086
 20
13.4887
 30
0.0
 40
0.01
 41
0.01
  0
VERTEX
  8
0
 10
25.9179
 20
13.6559
 30
0.0
 40
0.01
 41
0.01
  0
VERTEX
  8
0
 10
25.8606
 20
13.8406
 30
0.0
 40
0.01
 41
0.01
  0
VERTEX
  8
0
 10
25.8406
 20
13.9893
 30
0.0
 40
0.01
 41
0.01
  0
VERTEX
  8
0
 10
25.8406
 20
14.0389
 30
0.0
 40
0.01
 41
0.01
  0
VERTEX
  8
0
 10
25.8406
 20
14.0886
 30
0.0
 40
0.01
 41
0.01
  0
VERTEX
  8
0
 10
25.8606
 20
14.2374
 30
0.0
 40
0.01
 41
0.01
  0
VERTEX
  8
0
 10
25.9179
 20
14.4221
 30
0.0
 40
0.01
 41
0.01
  0
VERTEX
  8
0
 10
26.0086
 20
14.5893
 30
0.0
 40
0.01
 41
0.01
  0
VERTEX
  8
0
 10
26.1288
 20
14.7349
 30
0.0
 40
0.01
 41
0.01
  0
VERTEX
  8
0
 10
26.2744
 20
14.8551
 30
0.0
 40
0.01
 41
0.01
  0
VERTEX
  8
0
 10
26.4417
 20
14.9458
 30
0.0
 40
0.01
 41
0.01
  0
VERTEX
  8
0
 10
26.6264
 20
15.0032
 30
0.0
 40
0.01
 41
0.01
  0
VERTEX
  8
0
 10
26.7751
 20
15.0232
 30
0.0
 40
0.01
 41
0.01
  0
VERTEX
  8
0
 10
26.8249
 20
15.0232
 30
0.0
 40
0.01
 41
0.01
  0
VERTEX
  8
0
 10
26.8744
 20
15.0232
 30
0.0
 40
0.01
 41
0.01
  0
VERTEX
  8
0
 10
27.0232
 20
15.0032
 30
0.0
 40
0.01
 41
0.01
  0
VERTEX
  8
0
 10
27.2079
 20
14.9458
 30
0.0
 40
0.01
 41
0.01
  0
VERTEX
  8
0
 10
27.3751
 20
14.8551
 30
0.0
 40
0.01
 41
0.01
  0
VERTEX
  8
0
 10
27.5208
 20
14.7349
 30
0.0
 40
0.01
 41
0.01
  0
VERTEX
  8
0
 10
27.641
 20
14.5893
 30
0.0
 40
0.01
 41
0.01
  0
VERTEX
  8
0
 10
27.7317
 20
14.4221
 30
0.0
 40
0.01
 41
0.01
  0
VERTEX
  8
0
 10
27.789
 20
14.2374
 30
0.0
 40
0.01
 41
0.01
  0
VERTEX
  8
0
 10
27.809
 20
14.0886
 30
0.0
 40
0.01
 41
0.01
  0
VERTEX
  8
0
 10
27.809
 20
14.0389
 30
0.0
 40
0.01
 41
0.01
  0
SEQEND
 8
0
  0
POLYLINE
  8
0
 62
     0
 66
     1
 10
0
 20
0
 30
0.0
 70
     1
 40
0.72
 41
0.72
  0
VERTEX
  8
0
 10
30.0275
 20
14.4326
 30
0.0
 40
0.01
 41
0.01
  0
VERTEX
  8
0
 10
37.4015
 20
14.4326
 30
0.0
 40
0.01
 41
0.01
  0
VERTEX
  8
0
 10
37.426
 20
14.4326
 30
0.0
 40
0.01
 41
0.01
  0
VERTEX
  8
0
 10
37.499
 20
14.4131
 30
0.0
 40
0.01
 41
0.01
  0
VERTEX
  8
0
 10
37.5785
 20
14.3596
 30
0.0
 40
0.01
 41
0.01
  0
VERTEX
  8
0
 10
37.6319
 20
14.2801
 30
0.0
 40
0.01
 41
0.01
  0
VERTEX
  8
0
 10
37.6515
 20
14.2071
 30
0.0
 40
0.01
 41
0.01
  0
VERTEX
  8
0
 10
37.6515
 20
14.1826
 30
0.0
 40
0.01
 41
0.01
  0
VERTEX
  8
0
 10
37.6515
 20
13.8953
 30
0.0
 40
0.01
 41
0.01
  0
VERTEX
  8
0
 10
37.6515
 20
13.8709
 30
0.0
 40
0.01
 41
0.01
  0
VERTEX
  8
0
 10
37.6319
 20
13.7977
 30
0.0
 40
0.01
 41
0.01
  0
VERTEX
  8
0
 10
37.5785
 20
13.7183
 30
0.0
 40
0.01
 41
0.01
  0
VERTEX
  8
0
 10
37.499
 20
13.6648
 30
0.0
 40
0.01
 41
0.01
  0
VERTEX
  8
0
 10
37.426
 20
13.6452
 30
0.0
 40
0.01
 41
0.01
  0
VERTEX
  8
0
 10
37.4015
 20
13.6452
 30
0.0
 40
0.01
 41
0.01
  0
VERTEX
  8
0
 10
30.0275
 20
13.6452
 30
0.0
 40
0.01
 41
0.01
  0
VERTEX
  8
0
 10
30.0032
 20
13.6452
 30
0.0
 40
0.01
 41
0.01
  0
VERTEX
  8
0
 10
29.93
 20
13.6648
 30
0.0
 40
0.01
 41
0.01
  0
VERTEX
  8
0
 10
29.8506
 20
13.7183
 30
0.0
 40
0.01
 41
0.01
  0
VERTEX
  8
0
 10
29.7971
 20
13.7977
 30
0.0
 40
0.01
 41
0.01
  0
VERTEX
  8
0
 10
29.7775
 20
13.8709
 30
0.0
 40
0.01
 41
0.01
  0
VERTEX
  8
0
 10
29.7775
 20
13.8953
 30
0.0
 40
0.01
 41
0.01
  0
VERTEX
  8
0
 10
29.7775
 20
14.1826
 30
0.0
 40
0.01
 41
0.01
  0
VERTEX
  8
0
 10
29.7775
 20
14.2071
 30
0.0
 40
0.01
 41
0.01
  0
VERTEX
  8
0
 10
29.7971
 20
14.2801
 30
0.0
 40
0.01
 41
0.01
  0
VERTEX
  8
0
 10
29.8506
 20
14.3596
 30
0.0
 40
0.01
 41
0.01
  0
VERTEX
  8
0
 10
29.93
 20
14.4131
 30
0.0
 40
0.01
 41
0.01
  0
VERTEX
  8
0
 10
30.0032
 20
14.4326
 30
0.0
 40
0.01
 41
0.01
  0
VERTEX
  8
0
 10
30.0275
 20
14.4326
 30
0.0
 40
0.01
 41
0.01
  0
SEQEND
 8
0
  0
POLYLINE
  8
0
 62
     0
 66
     1
 10
0
 20
0
 30
0.0
 70
     1
 40
0.72
 41
0.72
  0
VERTEX
  8
0
 10
24.0689
 20
16.0075
 30
0.0
 40
0.01
 41
0.01
  0
VERTEX
  8
0
 10
24.3642
 20
16.0075
 30
0.0
 40
0.01
 41
0.01
  0
VERTEX
  8
0
 10
24.3642
 20
15.8106
 30
0.0
 40
0.01
 41
0.01
  0
VERTEX
  8
0
 10
24.8563
 20
15.8106
 30
0.0
 40
0.01
 41
0.01
  0
VERTEX
  8
0
 10
24.8563
 20
16.0075
 30
0.0
 40
0.01
 41
0.01
  0
VERTEX
  8
0
 10
25.25
 20
16.0075
 30
0.0
 40
0.01
 41
0.01
  0
VERTEX
  8
0
 10
25.25
 20
15.8106
 30
0.0
 40
0.01
 41
0.01
  0
VERTEX
  8
0
 10
25.6437
 20
15.8106
 30
0.0
 40
0.01
 41
0.01
  0
VERTEX
  8
0
 10
25.6437
 20
16.0075
 30
0.0
 40
0.01
 41
0.01
  0
VERTEX
  8
0
 10
26.0374
 20
16.0075
 30
0.0
 40
0.01
 41
0.01
  0
VERTEX
  8
0
 10
26.0374
 20
15.8106
 30
0.0
 40
0.01
 41
0.01
  0
VERTEX
  8
0
 10
26.4311
 20
15.8106
 30
0.0
 40
0.01
 41
0.01
  0
VERTEX
  8
0
 10
26.4311
 20
16.0075
 30
0.0
 40
0.01
 41
0.01
  0
VERTEX
  8
0
 10
26.8249
 20
16.0075
 30
0.0
 40
0.01
 41
0.01
  0
VERTEX
  8
0
 10
26.8249
 20
15.8106
 30
0.0
 40
0.01
 41
0.01
  0
VERTEX
  8
0
 10
27.2185
 20
15.8106
 30
0.0
 40
0.01
 41
0.01
  0
VERTEX
  8
0
 10
27.2185
 20
16.0075
 30
0.0
 40
0.01
 41
0.01
  0
VERTEX
  8
0
 10
27.6122
 20
16.0075
 30
0.0
 40
0.01
 41
0.01
  0
VERTEX
  8
0
 10
27.6122
 20
15.8106
 30
0.0
 40
0.01
 41
0.01
  0
VERTEX
  8
0
 10
28.006
 20
15.8106
 30
0.0
 40
0.01
 41
0.01
  0
VERTEX
  8
0
 10
28.006
 20
16.0075
 30
0.0
 40
0.01
 41
0.01
  0
VERTEX
  8
0
 10
28.3996
 20
16.0075
 30
0.0
 40
0.01
 41
0.01
  0
VERTEX
  8
0
 10
28.3996
 20
15.8106
 30
0.0
 40
0.01
 41
0.01
  0
VERTEX
  8
0
 10
28.7933
 20
15.8106
 30
0.0
 40
0.01
 41
0.01
  0
VERTEX
  8
0
 10
28.7933
 20
16.0075
 30
0.0
 40
0.01
 41
0.01
  0
VERTEX
  8
0
 10
29.1869
 20
16.0075
 30
0.0
 40
0.01
 41
0.01
  0
VERTEX
  8
0
 10
29.1869
 20
15.8106
 30
0.0
 40
0.01
 41
0.01
  0
VERTEX
  8
0
 10
29.5807
 20
15.8106
 30
0.0
 40
0.01
 41
0.01
  0
VERTEX
  8
0
 10
29.5807
 20
16.0075
 30
0.0
 40
0.01
 41
0.01
  0
VERTEX
  8
0
 10
29.9744
 20
16.0075
 30
0.0
 40
0.01
 41
0.01
  0
VERTEX
  8
0
 10
29.9744
 20
15.8106
 30
0.0
 40
0.01
 41
0.01
  0
VERTEX
  8
0
 10
30.3681
 20
15.8106
 30
0.0
 40
0.01
 41
0.01
  0
VERTEX
  8
0
 10
30.3681
 20
16.0075
 30
0.0
 40
0.01
 41
0.01
  0
VERTEX
  8
0
 10
30.7618
 20
16.0075
 30
0.0
 40
0.01
 41
0.01
  0
VERTEX
  8
0
 10
30.7618
 20
15.8106
 30
0.0
 40
0.01
 41
0.01
  0
VERTEX
  8
0
 10
31.1556
 20
15.8106
 30
0.0
 40
0.01
 41
0.01
  0
VERTEX
  8
0
 10
31.1556
 20
16.0075
 30
0.0
 40
0.01
 41
0.01
  0
VERTEX
  8
0
 10
31.5492
 20
16.0075
 30
0.0
 40
0.01
 41
0.01
  0
VERTEX
  8
0
 10
31.5492
 20
15.8106
 30
0.0
 40
0.01
 41
0.01
  0
VERTEX
  8
0
 10
31.9429
 20
15.8106
 30
0.0
 40
0.01
 41
0.01
  0
VERTEX
  8
0
 10
31.9429
 20
16.0075
 30
0.0
 40
0.01
 41
0.01
  0
VERTEX
  8
0
 10
32.3365
 20
16.0075
 30
0.0
 40
0.01
 41
0.01
  0
VERTEX
  8
0
 10
32.3365
 20
15.8106
 30
0.0
 40
0.01
 41
0.01
  0
VERTEX
  8
0
 10
32.7303
 20
15.8106
 30
0.0
 40
0.01
 41
0.01
  0
VERTEX
  8
0
 10
32.7303
 20
16.0075
 30
0.0
 40
0.01
 41
0.01
  0
VERTEX
  8
0
 10
33.124
 20
16.0075
 30
0.0
 40
0.01
 41
0.01
  0
VERTEX
  8
0
 10
33.124
 20
15.8106
 30
0.0
 40
0.01
 41
0.01
  0
VERTEX
  8
0
 10
33.5178
 20
15.8106
 30
0.0
 40
0.01
 41
0.01
  0
VERTEX
  8
0
 10
33.5178
 20
16.0075
 30
0.0
 40
0.01
 41
0.01
  0
VERTEX
  8
0
 10
33.9114
 20
16.0075
 30
0.0
 40
0.01
 41
0.01
  0
VERTEX
  8
0
 10
33.9114
 20
15.8106
 30
0.0
 40
0.01
 41
0.01
  0
VERTEX
  8
0
 10
34.3051
 20
15.8106
 30
0.0
 40
0.01
 41
0.01
  0
VERTEX
  8
0
 10
34.3051
 20
16.0075
 30
0.0
 40
0.01
 41
0.01
  0
VERTEX
  8
0
 10
34.6989
 20
16.0075
 30
0.0
 40
0.01
 41
0.01
  0
VERTEX
  8
0
 10
34.6989
 20
15.8106
 30
0.0
 40
0.01
 41
0.01
  0
VERTEX
  8
0
 10
35.0925
 20
15.8106
 30
0.0
 40
0.01
 41
0.01
  0
VERTEX
  8
0
 10
35.0925
 20
16.0075
 30
0.0
 40
0.01
 41
0.01
  0
VERTEX
  8
0
 10
35.4863
 20
16.0075
 30
0.0
 40
0.01
 41
0.01
  0
VERTEX
  8
0
 10
35.4863
 20
15.8106
 30
0.0
 40
0.01
 41
0.01
  0
VERTEX
  8
0
 10
35.88
 20
15.8106
 30
0.0
 40
0.01
 41
0.01
  0
VERTEX
  8
0
 10
35.88
 20
16.0075
 30
0.0
 40
0.01
 41
0.01
  0
VERTEX
  8
0
 10
36.2736
 20
16.0075
 30
0.0
 40
0.01
 41
0.01
  0
VERTEX
  8
0
 10
36.2736
 20
15.8106
 30
0.0
 40
0.01
 41
0.01
  0
VERTEX
  8
0
 10
36.6674
 20
15.8106
 30
0.0
 40
0.01
 41
0.01
  0
VERTEX
  8
0
 10
36.6674
 20
16.0075
 30
0.0
 40
0.01
 41
0.01
  0
VERTEX
  8
0
 10
37.061
 20
16.0075
 30
0.0
 40
0.01
 41
0.01
  0
VERTEX
  8
0
 10
37.061
 20
15.8106
 30
0.0
 40
0.01
 41
0.01
  0
VERTEX
  8
0
 10
37.4547
 20
15.8106
 30
0.0
 40
0.01
 41
0.01
  0
VERTEX
  8
0
 10
37.4547
 20
16.0075
 30
0.0
 40
0.01
 41
0.01
  0
VERTEX
  8
0
 10
37.8485
 20
16.0075
 30
0.0
 40
0.01
 41
0.01
  0
VERTEX
  8
0
 10
37.8485
 20
15.8106
 30
0.0
 40
0.01
 41
0.01
  0
VERTEX
  8
0
 10
38.2421
 20
15.8106
 30
0.0
 40
0.01
 41
0.01
  0
VERTEX
  8
0
 10
38.2421
 20
16.0075
 30
0.0
 40
0.01
 41
0.01
  0
VERTEX
  8
0
 10
38.6358
 20
16.0075
 30
0.0
 40
0.01
 41
0.01
  0
VERTEX
  8
0
 10
38.6358
 20
15.8106
 30
0.0
 40
0.01
 41
0.01
  0
VERTEX
  8
0
 10
39.1279
 20
15.8106
 30
0.0
 40
0.01
 41
0.01
  0
VERTEX
  8
0
 10
39.1279
 20
16.0075
 30
0.0
 40
0.01
 41
0.01
  0
VERTEX
  8
0
 10
39.4232
 20
16.0075
 30
0.0
 40
0.01
 41
0.01
  0
VERTEX
  8
0
 10
39.4232
 20
15.5153
 30
0.0
 40
0.01
 41
0.01
  0
VERTEX
  8
0
 10
39.62
 20
15.5153
 30
0.0
 40
0.01
 41
0.01
  0
VERTEX
  8
0
 10
39.62
 20
15.0232
 30
0.0
 40
0.01
 41
0.01
  0
VERTEX
  8
0
 10
39.4232
 20
15.0232
 30
0.0
 40
0.01
 41
0.01
  0
VERTEX
  8
0
 10
39.4232
 20
14.6294
 30
0.0
 40
0.01
 41
0.01
  0
VERTEX
  8
0
 10
39.62
 20
14.6294
 30
0.0
 40
0.01
 41
0.01
  0
VERTEX
  8
0
 10
39.62
 20
14.2358
 30
0.0
 40
0.01
 41
0.01
  0
VERTEX
  8
0
 10
39.4232
 20
14.2358
 30
0.0
 40
0.01
 41
0.01
  0
VERTEX
  8
0
 10
39.4232
 20
13.8421
 30
0.0
 40
0.01
 41
0.01
  0
VERTEX
  8
0
 10
39.62
 20
13.8421
 30
0.0
 40
0.01
 41
0.01
  0
VERTEX
  8
0
 10
39.62
 20
13.4484
 30
0.0
 40
0.01
 41
0.01
  0
VERTEX
  8
0
 10
39.4232
 20
13.4484
 30
0.0
 40
0.01
 41
0.01
  0
VERTEX
  8
0
 10
39.4232
 20
13.0547
 30
0.0
 40
0.01
 41
0.01
  0
VERTEX
  8
0
 10
39.62
 20
13.0547
 30
0.0
 40
0.01
 41
0.01
  0
VERTEX
  8
0
 10
39.62
 20
12.5626
 30
0.0
 40
0.01
 41
0.01
  0
VERTEX
  8
0
 10
39.4232
 20
12.5626
 30
0.0
 40
0.01
 41
0.01
  0
VERTEX
  8
0
 10
39.4232
 20
12.0704
 30
0.0
 40
0.01
 41
0.01
  0
VERTEX
  8
0
 10
39.1279
 20
12.0704
 30
0.0
 40
0.01
 41
0.01
  0
VERTEX
  8
0
 10
39.1279
 20
12.2673
 30
0.0
 40
0.01
 41
0.01
  0
VERTEX
  8
0
 10
38.6358
 20
12.2673
 30
0.0
 40
0.01
 41
0.01
  0
VERTEX
  8
0
 10
38.6358
 20
12.0704
 30
0.0
 40
0.01
 41
0.01
  0
VERTEX
  8
0
 10
38.2421
 20
12.0704
 30
0.0
 40
0.01
 41
0.01
  0
VERTEX
  8
0
 10
38.2421
 20
12.2673
 30
0.0
 40
0.01
 41
0.01
  0
VERTEX
  8
0
 10
37.8485
 20
12.2673
 30
0.0
 40
0.01
 41
0.01
  0
VERTEX
  8
0
 10
37.8485
 20
12.0704
 30
0.0
 40
0.01
 41
0.01
  0
VERTEX
  8
0
 10
37.4547
 20
12.0704
 30
0.0
 40
0.01
 41
0.01
  0
VERTEX
  8
0
 10
37.4547
 20
12.2673
 30
0.0
 40
0.01
 41
0.01
  0
VERTEX
  8
0
 10
37.061
 20
12.2673
 30
0.0
 40
0.01
 41
0.01
  0
VERTEX
  8
0
 10
37.061
 20
12.0704
 30
0.0
 40
0.01
 41
0.01
  0
VERTEX
  8
0
 10
36.6674
 20
12.0704
 30
0.0
 40
0.01
 41
0.01
  0
VERTEX
  8
0
 10
36.6674
 20
12.2673
 30
0.0
 40
0.01
 41
0.01
  0
VERTEX
  8
0
 10
36.2736
 20
12.2673
 30
0.0
 40
0.01
 41
0.01
  0
VERTEX
  8
0
 10
36.2736
 20
12.0704
 30
0.0
 40
0.01
 41
0.01
  0
VERTEX
  8
0
 10
35.88
 20
12.0704
 30
0.0
 40
0.01
 41
0.01
  0
VERTEX
  8
0
 10
35.88
 20
12.2673
 30
0.0
 40
0.01
 41
0.01
  0
VERTEX
  8
0
 10
35.4863
 20
12.2673
 30
0.0
 40
0.01
 41
0.01
  0
VERTEX
  8
0
 10
35.4863
 20
12.0704
 30
0.0
 40
0.01
 41
0.01
  0
VERTEX
  8
0
 10
35.0925
 20
12.0704
 30
0.0
 40
0.01
 41
0.01
  0
VERTEX
  8
0
 10
35.0925
 20
12.2673
 30
0.0
 40
0.01
 41
0.01
  0
VERTEX
  8
0
 10
34.6989
 20
12.2673
 30
0.0
 40
0.01
 41
0.01
  0
VERTEX
  8
0
 10
34.6989
 20
12.0704
 30
0.0
 40
0.01
 41
0.01
  0
VERTEX
  8
0
 10
34.3051
 20
12.0704
 30
0.0
 40
0.01
 41
0.01
  0
VERTEX
  8
0
 10
34.3051
 20
12.2673
 30
0.0
 40
0.01
 41
0.01
  0
VERTEX
  8
0
 10
33.9114
 20
12.2673
 30
0.0
 40
0.01
 41
0.01
  0
VERTEX
  8
0
 10
33.9114
 20
12.0704
 30
0.0
 40
0.01
 41
0.01
  0
VERTEX
  8
0
 10
33.5178
 20
12.0704
 30
0.0
 40
0.01
 41
0.01
  0
VERTEX
  8
0
 10
33.5178
 20
12.2673
 30
0.0
 40
0.01
 41
0.01
  0
VERTEX
  8
0
 10
33.124
 20
12.2673
 30
0.0
 40
0.01
 41
0.01
  0
VERTEX
  8
0
 10
33.124
 20
12.0704
 30
0.0
 40
0.01
 41
0.01
  0
VERTEX
  8
0
 10
32.7303
 20
12.0704
 30
0.0
 40
0.01
 41
0.01
  0
VERTEX
  8
0
 10
32.7303
 20
12.2673
 30
0.0
 40
0.01
 41
0.01
  0
VERTEX
  8
0
 10
32.3365
 20
12.2673
 30
0.0
 40
0.01
 41
0.01
  0
VERTEX
  8
0
 10
32.3365
 20
12.0704
 30
0.0
 40
0.01
 41
0.01
  0
VERTEX
  8
0
 10
31.9429
 20
12.0704
 30
0.0
 40
0.01
 41
0.01
  0
VERTEX
  8
0
 10
31.9429
 20
12.2673
 30
0.0
 40
0.01
 41
0.01
  0
VERTEX
  8
0
 10
31.5492
 20
12.2673
 30
0.0
 40
0.01
 41
0.01
  0
VERTEX
  8
0
 10
31.5492
 20
12.0704
 30
0.0
 40
0.01
 41
0.01
  0
VERTEX
  8
0
 10
31.1556
 20
12.0704
 30
0.0
 40
0.01
 41
0.01
  0
VERTEX
  8
0
 10
31.1556
 20
12.2673
 30
0.0
 40
0.01
 41
0.01
  0
VERTEX
  8
0
 10
30.7618
 20
12.2673
 30
0.0
 40
0.01
 41
0.01
  0
VERTEX
  8
0
 10
30.7618
 20
12.0704
 30
0.0
 40
0.01
 41
0.01
  0
VERTEX
  8
0
 10
30.3681
 20
12.0704
 30
0.0
 40
0.01
 41
0.01
  0
VERTEX
  8
0
 10
30.3681
 20
12.2673
 30
0.0
 40
0.01
 41
0.01
  0
VERTEX
  8
0
 10
29.9744
 20
12.2673
 30
0.0
 40
0.01
 41
0.01
  0
VERTEX
  8
0
 10
29.9744
 20
12.0704
 30
0.0
 40
0.01
 41
0.01
  0
VERTEX
  8
0
 10
29.5807
 20
12.0704
 30
0.0
 40
0.01
 41
0.01
  0
VERTEX
  8
0
 10
29.5807
 20
12.2673
 30
0.0
 40
0.01
 41
0.01
  0
VERTEX
  8
0
 10
29.1869
 20
12.2673
 30
0.0
 40
0.01
 41
0.01
  0
VERTEX
  8
0
 10
29.1869
 20
12.0704
 30
0.0
 40
0.01
 41
0.01
  0
VERTEX
  8
0
 10
28.7933
 20
12.0704
 30
0.0
 40
0.01
 41
0.01
  0
VERTEX
  8
0
 10
28.7933
 20
12.2673
 30
0.0
 40
0.01
 41
0.01
  0
VERTEX
  8
0
 10
28.3996
 20
12.2673
 30
0.0
 40
0.01
 41
0.01
  0
VERTEX
  8
0
 10
28.3996
 20
12.0704
 30
0.0
 40
0.01
 41
0.01
  0
VERTEX
  8
0
 10
28.006
 20
12.0704
 30
0.0
 40
0.01
 41
0.01
  0
VERTEX
  8
0
 10
28.006
 20
12.2673
 30
0.0
 40
0.01
 41
0.01
  0
VERTEX
  8
0
 10
27.6122
 20
12.2673
 30
0.0
 40
0.01
 41
0.01
  0
VERTEX
  8
0
 10
27.6122
 20
12.0704
 30
0.0
 40
0.01
 41
0.01
  0
VERTEX
  8
0
 10
27.2185
 20
12.0704
 30
0.0
 40
0.01
 41
0.01
  0
VERTEX
  8
0
 10
27.2185
 20
12.2673
 30
0.0
 40
0.01
 41
0.01
  0
VERTEX
  8
0
 10
26.8249
 20
12.2673
 30
0.0
 40
0.01
 41
0.01
  0
VERTEX
  8
0
 10
26.8249
 20
12.0704
 30
0.0
 40
0.01
 41
0.01
  0
VERTEX
  8
0
 10
26.4311
 20
12.0704
 30
0.0
 40
0.01
 41
0.01
  0
VERTEX
  8
0
 10
26.4311
 20
12.2673
 30
0.0
 40
0.01
 41
0.01
  0
VERTEX
  8
0
 10
26.0374
 20
12.2673
 30
0.0
 40
0.01
 41
0.01
  0
VERTEX
  8
0
 10
26.0374
 20
12.0704
 30
0.0
 40
0.01
 41
0.01
  0
VERTEX
  8
0
 10
25.6437
 20
12.0704
 30
0.0
 40
0.01
 41
0.01
  0
VERTEX
  8
0
 10
25.6437
 20
12.2673
 30
0.0
 40
0.01
 41
0.01
  0
VERTEX
  8
0
 10
25.25
 20
12.2673
 30
0.0
 40
0.01
 41
0.01
  0
VERTEX
  8
0
 10
25.25
 20
12.0704
 30
0.0
 40
0.01
 41
0.01
  0
VERTEX
  8
0
 10
24.8563
 20
12.0704
 30
0.0
 40
0.01
 41
0.01
  0
VERTEX
  8
0
 10
24.8563
 20
12.2673
 30
0.0
 40
0.01
 41
0.01
  0
VERTEX
  8
0
 10
24.3642
 20
12.2673
 30
0.0
 40
0.01
 41
0.01
  0
VERTEX
  8
0
 10
24.3642
 20
12.0704
 30
0.0
 40
0.01
 41
0.01
  0
VERTEX
  8
0
 10
24.0689
 20
12.0704
 30
0.0
 40
0.01
 41
0.01
  0
VERTEX
  8
0
 10
24.0689
 20
12.5626
 30
0.0
 40
0.01
 41
0.01
  0
VERTEX
  8
0
 10
23.8721
 20
12.5626
 30
0.0
 40
0.01
 41
0.01
  0
VERTEX
  8
0
 10
23.8721
 20
13.0547
 30
0.0
 40
0.01
 41
0.01
  0
VERTEX
  8
0
 10
24.0689
 20
13.0547
 30
0.0
 40
0.01
 41
0.01
  0
VERTEX
  8
0
 10
24.0689
 20
13.4484
 30
0.0
 40
0.01
 41
0.01
  0
VERTEX
  8
0
 10
23.8721
 20
13.4484
 30
0.0
 40
0.01
 41
0.01
  0
VERTEX
  8
0
 10
23.8721
 20
13.8421
 30
0.0
 40
0.01
 41
0.01
  0
VERTEX
  8
0
 10
24.0689
 20
13.8421
 30
0.0
 40
0.01
 41
0.01
  0
VERTEX
  8
0
 10
24.0689
 20
14.2358
 30
0.0
 40
0.01
 41
0.01
  0
VERTEX
  8
0
 10
23.8721
 20
14.2358
 30
0.0
 40
0.01
 41
0.01
  0
VERTEX
  8
0
 10
23.8721
 20
14.6294
 30
0.0
 40
0.01
 41
0.01
  0
VERTEX
  8
0
 10
24.0689
 20
14.6294
 30
0.0
 40
0.01
 41
0.01
  0
VERTEX
  8
0
 10
24.0689
 20
15.0232
 30
0.0
 40
0.01
 41
0.01
  0
VERTEX
  8
0
 10
23.8721
 20
15.0232
 30
0.0
 40
0.01
 41
0.01
  0
VERTEX
  8
0
 10
23.8721
 20
15.5153
 30
0.0
 40
0.01
 41
0.01
  0
VERTEX
  8
0
 10
24.0689
 20
15.5153
 30
0.0
 40
0.01
 41
0.01
  0
VERTEX
  8
0
 10
24.0689
 20
16.0075
 30
0.0
 40
0.01
 41
0.01
  0
SEQEND
 8
0
  0
POLYLINE
  8
0
 62
     0
 66
     1
 10
0
 20
0
 30
0.0
 70
     1
 40
0.72
 41
0.72
  0
VERTEX
  8
0
 10
2.46847
 20
10.1019
 30
0.0
 40
0.01
 41
0.01
  0
VERTEX
  8
0
 10
9.8425
 20
10.1019
 30
0.0
 40
0.01
 41
0.01
  0
VERTEX
  8
0
 10
9.86686
 20
10.1019
 30
0.0
 40
0.01
 41
0.01
  0
VERTEX
  8
0
 10
9.94
 20
10.0824
 30
0.0
 40
0.01
 41
0.01
  0
VERTEX
  8
0
 10
10.0194
 20
10.0289
 30
0.0
 40
0.01
 41
0.01
  0
VERTEX
  8
0
 10
10.0729
 20
9.94949
 30
0.0
 40
0.01
 41
0.01
  0
VERTEX
  8
0
 10
10.0925
 20
9.87636
 30
0.0
 40
0.01
 41
0.01
  0
VERTEX
  8
0
 10
10.0925
 20
9.85194
 30
0.0
 40
0.01
 41
0.01
  0
VERTEX
  8
0
 10
10.0925
 20
9.56451
 30
0.0
 40
0.01
 41
0.01
  0
VERTEX
  8
0
 10
10.0925
 20
9.54015
 30
0.0
 40
0.01
 41
0.01
  0
VERTEX
  8
0
 10
10.0729
 20
9.46701
 30
0.0
 40
0.01
 41
0.01
  0
VERTEX
  8
0
 10
10.0194
 20
9.38758
 30
0.0
 40
0.01
 41
0.01
  0
VERTEX
  8
0
 10
9.94
 20
9.3341
 30
0.0
 40
0.01
 41
0.01
  0
VERTEX
  8
0
 10
9.86686
 20
9.31451
 30
0.0
 40
0.01
 41
0.01
  0
VERTEX
  8
0
 10
9.8425
 20
9.31451
 30
0.0
 40
0.01
 41
0.01
  0
VERTEX
  8
0
 10
2.46847
 20
9.31451
 30
0.0
 40
0.01
 41
0.01
  0
VERTEX
  8
0
 10
2.44407
 20
9.31451
 30
0.0
 40
0.01
 41
0.01
  0
VERTEX
  8
0
 10
2.37099
 20
9.3341
 30
0.0
 40
0.01
 41
0.01
  0
VERTEX
  8
0
 10
2.29156
 20
9.38758
 30
0.0
 40
0.01
 41
0.01
  0
VERTEX
  8
0
 10
2.23807
 20
9.46701
 30
0.0
 40
0.01
 41
0.01
  0
VERTEX
  8
0
 10
2.21847
 20
9.54015
 30
0.0
 40
0.01
 41
0.01
  0
VERTEX
  8
0
 10
2.21847
 20
9.56451
 30
0.0
 40
0.01
 41
0.01
  0
VERTEX
  8
0
 10
2.21847
 20
9.85194
 30
0.0
 40
0.01
 41
0.01
  0
VERTEX
  8
0
 10
2.21847
 20
9.87636
 30
0.0
 40
0.01
 41
0.01
  0
VERTEX
  8
0
 10
2.23807
 20
9.94949
 30
0.0
 40
0.01
 41
0.01
  0
VERTEX
  8
0
 10
2.29156
 20
10.0289
 30
0.0
 40
0.01
 41
0.01
  0
VERTEX
  8
0
 10
2.37099
 20
10.0824
 30
0.0
 40
0.01
 41
0.01
  0
VERTEX
  8
0
 10
2.44407
 20
10.1019
 30
0.0
 40
0.01
 41
0.01
  0
VERTEX
  8
0
 10
2.46847
 20
10.1019
 30
0.0
 40
0.01
 41
0.01
  0
SEQEND
 8
0
  0
POLYLINE
  8
0
 62
     0
 66
     1
 10
0
 20
0
 30
0.0
 70
     1
 40
0.72
 41
0.72
  0
VERTEX
  8
0
 10
2.46847
 20
3.39719
 30
0.0
 40
0.01
 41
0.01
  0
VERTEX
  8
0
 10
9.8425
 20
3.39719
 30
0.0
 40
0.01
 41
0.01
  0
VERTEX
  8
0
 10
9.86686
 20
3.39719
 30
0.0
 40
0.01
 41
0.01
  0
VERTEX
  8
0
 10
9.94
 20
3.37765
 30
0.0
 40
0.01
 41
0.01
  0
VERTEX
  8
0
 10
10.0194
 20
3.32417
 30
0.0
 40
0.01
 41
0.01
  0
VERTEX
  8
0
 10
10.0729
 20
3.24474
 30
0.0
 40
0.01
 41
0.01
  0
VERTEX
  8
0
 10
10.0925
 20
3.1716
 30
0.0
 40
0.01
 41
0.01
  0
VERTEX
  8
0
 10
10.0925
 20
3.14719
 30
0.0
 40
0.01
 41
0.01
  0
VERTEX
  8
0
 10
10.0925
 20
2.85981
 30
0.0
 40
0.01
 41
0.01
  0
VERTEX
  8
0
 10
10.0925
 20
2.83544
 30
0.0
 40
0.01
 41
0.01
  0
VERTEX
  8
0
 10
10.0729
 20
2.76232
 30
0.0
 40
0.01
 41
0.01
  0
VERTEX
  8
0
 10
10.0194
 20
2.68289
 30
0.0
 40
0.01
 41
0.01
  0
VERTEX
  8
0
 10
9.94
 20
2.62939
 30
0.0
 40
0.01
 41
0.01
  0
VERTEX
  8
0
 10
9.86686
 20
2.60981
 30
0.0
 40
0.01
 41
0.01
  0
VERTEX
  8
0
 10
9.8425
 20
2.60981
 30
0.0
 40
0.01
 41
0.01
  0
VERTEX
  8
0
 10
2.46847
 20
2.60981
 30
0.0
 40
0.01
 41
0.01
  0
VERTEX
  8
0
 10
2.44407
 20
2.60981
 30
0.0
 40
0.01
 41
0.01
  0
VERTEX
  8
0
 10
2.37099
 20
2.62939
 30
0.0
 40
0.01
 41
0.01
  0
VERTEX
  8
0
 10
2.29156
 20
2.68289
 30
0.0
 40
0.01
 41
0.01
  0
VERTEX
  8
0
 10
2.23807
 20
2.76232
 30
0.0
 40
0.01
 41
0.01
  0
VERTEX
  8
0
 10
2.21847
 20
2.83544
 30
0.0
 40
0.01
 41
0.01
  0
VERTEX
  8
0
 10
2.21847
 20
2.85981
 30
0.0
 40
0.01
 41
0.01
  0
VERTEX
  8
0
 10
2.21847
 20
3.14719
 30
0.0
 40
0.01
 41
0.01
  0
VERTEX
  8
0
 10
2.21847
 20
3.1716
 30
0.0
 40
0.01
 41
0.01
  0
VERTEX
  8
0
 10
2.23807
 20
3.24474
 30
0.0
 40
0.01
 41
0.01
  0
VERTEX
  8
0
 10
2.29156
 20
3.32417
 30
0.0
 40
0.01
 41
0.01
  0
VERTEX
  8
0
 10
2.37099
 20
3.37765
 30
0.0
 40
0.01
 41
0.01
  0
VERTEX
  8
0
 10
2.44407
 20
3.39719
 30
0.0
 40
0.01
 41
0.01
  0
VERTEX
  8
0
 10
2.46847
 20
3.39719
 30
0.0
 40
0.01
 41
0.01
  0
SEQEND
 8
0
  0
POLYLINE
  8
0
 62
     0
 66
     1
 10
0
 20
0
 30
0.0
 70
     1
 40
0.72
 41
0.72
  0
VERTEX
  8
0
 10
0.446832
 20
15.8106
 30
0.0
 40
0.01
 41
0.01
  0
VERTEX
  8
0
 10
0.742133
 20
15.8106
 30
0.0
 40
0.01
 41
0.01
  0
VERTEX
  8
0
 10
0.742133
 20
16.0075
 30
0.0
 40
0.01
 41
0.01
  0
VERTEX
  8
0
 10
1.23427
 20
16.0075
 30
0.0
 40
0.01
 41
0.01
  0
VERTEX
  8
0
 10
1.23427
 20
15.8106
 30
0.0
 40
0.01
 41
0.01
  0
VERTEX
  8
0
 10
1.62793
 20
15.8106
 30
0.0
 40
0.01
 41
0.01
  0
VERTEX
  8
0
 10
1.62793
 20
16.0075
 30
0.0
 40
0.01
 41
0.01
  0
VERTEX
  8
0
 10
2.02165
 20
16.0075
 30
0.0
 40
0.01
 41
0.01
  0
VERTEX
  8
0
 10
2.02165
 20
15.8106
 30
0.0
 40
0.01
 41
0.01
  0
VERTEX
  8
0
 10
2.41536
 20
15.8106
 30
0.0
 40
0.01
 41
0.01
  0
VERTEX
  8
0
 10
2.41536
 20
16.0075
 30
0.0
 40
0.01
 41
0.01
  0
VERTEX
  8
0
 10
2.80908
 20
16.0075
 30
0.0
 40
0.01
 41
0.01
  0
VERTEX
  8
0
 10
2.80908
 20
15.8106
 30
0.0
 40
0.01
 41
0.01
  0
VERTEX
  8
0
 10
3.20275
 20
15.8106
 30
0.0
 40
0.01
 41
0.01
  0
VERTEX
  8
0
 10
3.20275
 20
16.0075
 30
0.0
 40
0.01
 41
0.01
  0
VERTEX
  8
0
 10
3.59646
 20
16.0075
 30
0.0
 40
0.01
 41
0.01
  0
VERTEX
  8
0
 10
3.59646
 20
15.8106
 30
0.0
 40
0.01
 41
0.01
  0
VERTEX
  8
0
 10
3.99018
 20
15.8106
 30
0.0
 40
0.01
 41
0.01
  0
VERTEX
  8
0
 10
3.99018
 20
16.0075
 30
0.0
 40
0.01
 41
0.01
  0
VERTEX
  8
0
 10
4.38385
 20
16.0075
 30
0.0
 40
0.01
 41
0.01
  0
VERTEX
  8
0
 10
4.38385
 20
15.8106
 30
0.0
 40
0.01
 41
0.01
  0
VERTEX
  8
0
 10
4.77756
 20
15.8106
 30
0.0
 40
0.01
 41
0.01
  0
VERTEX
  8
0
 10
4.77756
 20
16.0075
 30
0.0
 40
0.01
 41
0.01
  0
VERTEX
  8
0
 10
5.17128
 20
16.0075
 30
0.0
 40
0.01
 41
0.01
  0
VERTEX
  8
0
 10
5.17128
 20
15.8106
 30
0.0
 40
0.01
 41
0.01
  0
VERTEX
  8
0
 10
5.56494
 20
15.8106
 30
0.0
 40
0.01
 41
0.01
  0
VERTEX
  8
0
 10
5.56494
 20
16.0075
 30
0.0
 40
0.01
 41
0.01
  0
VERTEX
  8
0
 10
5.95865
 20
16.0075
 30
0.0
 40
0.01
 41
0.01
  0
VERTEX
  8
0
 10
5.95865
 20
15.8106
 30
0.0
 40
0.01
 41
0.01
  0
VERTEX
  8
0
 10
6.35238
 20
15.8106
 30
0.0
 40
0.01
 41
0.01
  0
VERTEX
  8
0
 10
6.35238
 20
16.0075
 30
0.0
 40
0.01
 41
0.01
  0
VERTEX
  8
0
 10
6.74604
 20
16.0075
 30
0.0
 40
0.01
 41
0.01
  0
VERTEX
  8
0
 10
6.74604
 20
15.8106
 30
0.0
 40
0.01
 41
0.01
  0
VERTEX
  8
0
 10
7.13976
 20
15.8106
 30
0.0
 40
0.01
 41
0.01
  0
VERTEX
  8
0
 10
7.13976
 20
16.0075
 30
0.0
 40
0.01
 41
0.01
  0
VERTEX
  8
0
 10
7.53347
 20
16.0075
 30
0.0
 40
0.01
 41
0.01
  0
VERTEX
  8
0
 10
7.53347
 20
15.8106
 30
0.0
 40
0.01
 41
0.01
  0
VERTEX
  8
0
 10
7.92719
 20
15.8106
 30
0.0
 40
0.01
 41
0.01
  0
VERTEX
  8
0
 10
7.92719
 20
16.0075
 30
0.0
 40
0.01
 41
0.01
  0
VERTEX
  8
0
 10
8.32086
 20
16.0075
 30
0.0
 40
0.01
 41
0.01
  0
VERTEX
  8
0
 10
8.32086
 20
15.8106
 30
0.0
 40
0.01
 41
0.01
  0
VERTEX
  8
0
 10
8.71457
 20
15.8106
 30
0.0
 40
0.01
 41
0.01
  0
VERTEX
  8
0
 10
8.71457
 20
16.0075
 30
0.0
 40
0.01
 41
0.01
  0
VERTEX
  8
0
 10
9.10829
 20
16.0075
 30
0.0
 40
0.01
 41
0.01
  0
VERTEX
  8
0
 10
9.10829
 20
15.8106
 30
0.0
 40
0.01
 41
0.01
  0
VERTEX
  8
0
 10
9.50196
 20
15.8106
 30
0.0
 40
0.01
 41
0.01
  0
VERTEX
  8
0
 10
9.50196
 20
16.0075
 30
0.0
 40
0.01
 41
0.01
  0
VERTEX
  8
0
 10
9.89567
 20
16.0075
 30
0.0
 40
0.01
 41
0.01
  0
VERTEX
  8
0
 10
9.89567
 20
15.8106
 30
0.0
 40
0.01
 41
0.01
  0
VERTEX
  8
0
 10
10.2894
 20
15.8106
 30
0.0
 40
0.01
 41
0.01
  0
VERTEX
  8
0
 10
10.2894
 20
16.0075
 30
0.0
 40
0.01
 41
0.01
  0
VERTEX
  8
0
 10
10.6831
 20
16.0075
 30
0.0
 40
0.01
 41
0.01
  0
VERTEX
  8
0
 10
10.6831
 20
15.8106
 30
0.0
 40
0.01
 41
0.01
  0
VERTEX
  8
0
 10
11.0768
 20
15.8106
 30
0.0
 40
0.01
 41
0.01
  0
VERTEX
  8
0
 10
11.0768
 20
16.0075
 30
0.0
 40
0.01
 41
0.01
  0
VERTEX
  8
0
 10
11.5689
 20
16.0075
 30
0.0
 40
0.01
 41
0.01
  0
VERTEX
  8
0
 10
11.5689
 20
15.8106
 30
0.0
 40
0.01
 41
0.01
  0
VERTEX
  8
0
 10
11.8642
 20
15.8106
 30
0.0
 40
0.01
 41
0.01
  0
VERTEX
  8
0
 10
11.8642
 20
15.5153
 30
0.0
 40
0.01
 41
0.01
  0
VERTEX
  8
0
 10
12.061
 20
15.5153
 30
0.0
 40
0.01
 41
0.01
  0
VERTEX
  8
0
 10
12.061
 20
15.0232
 30
0.0
 40
0.01
 41
0.01
  0
VERTEX
  8
0
 10
11.8642
 20
15.0232
 30
0.0
 40
0.01
 41
0.01
  0
VERTEX
  8
0
 10
11.8642
 20
14.6294
 30
0.0
 40
0.01
 41
0.01
  0
VERTEX
  8
0
 10
12.061
 20
14.6294
 30
0.0
 40
0.01
 41
0.01
  0
VERTEX
  8
0
 10
12.061
 20
14.2358
 30
0.0
 40
0.01
 41
0.01
  0
VERTEX
  8
0
 10
11.8642
 20
14.2358
 30
0.0
 40
0.01
 41
0.01
  0
VERTEX
  8
0
 10
11.8642
 20
13.8421
 30
0.0
 40
0.01
 41
0.01
  0
VERTEX
  8
0
 10
12.061
 20
13.8421
 30
0.0
 40
0.01
 41
0.01
  0
VERTEX
  8
0
 10
12.061
 20
13.4484
 30
0.0
 40
0.01
 41
0.01
  0
VERTEX
  8
0
 10
11.8642
 20
13.4484
 30
0.0
 40
0.01
 41
0.01
  0
VERTEX
  8
0
 10
11.8642
 20
13.0547
 30
0.0
 40
0.01
 41
0.01
  0
VERTEX
  8
0
 10
12.061
 20
13.0547
 30
0.0
 40
0.01
 41
0.01
  0
VERTEX
  8
0
 10
12.061
 20
12.661
 30
0.0
 40
0.01
 41
0.01
  0
VERTEX
  8
0
 10
11.8642
 20
12.661
 30
0.0
 40
0.01
 41
0.01
  0
VERTEX
  8
0
 10
11.8642
 20
12.2673
 30
0.0
 40
0.01
 41
0.01
  0
VERTEX
  8
0
 10
12.061
 20
12.2673
 30
0.0
 40
0.01
 41
0.01
  0
VERTEX
  8
0
 10
12.061
 20
11.8736
 30
0.0
 40
0.01
 41
0.01
  0
VERTEX
  8
0
 10
11.8642
 20
11.8736
 30
0.0
 40
0.01
 41
0.01
  0
VERTEX
  8
0
 10
11.8642
 20
11.4799
 30
0.0
 40
0.01
 41
0.01
  0
VERTEX
  8
0
 10
12.061
 20
11.4799
 30
0.0
 40
0.01
 41
0.01
  0
VERTEX
  8
0
 10
12.061
 20
11.0862
 30
0.0
 40
0.01
 41
0.01
  0
VERTEX
  8
0
 10
11.8642
 20
11.0862
 30
0.0
 40
0.01
 41
0.01
  0
VERTEX
  8
0
 10
11.8642
 20
10.6925
 30
0.0
 40
0.01
 41
0.01
  0
VERTEX
  8
0
 10
12.061
 20
10.6925
 30
0.0
 40
0.01
 41
0.01
  0
VERTEX
  8
0
 10
12.061
 20
10.2988
 30
0.0
 40
0.01
 41
0.01
  0
VERTEX
  8
0
 10
11.8642
 20
10.2988
 30
0.0
 40
0.01
 41
0.01
  0
VERTEX
  8
0
 10
11.8642
 20
9.90506
 30
0.0
 40
0.01
 41
0.01
  0
VERTEX
  8
0
 10
12.061
 20
9.90506
 30
0.0
 40
0.01
 41
0.01
  0
VERTEX
  8
0
 10
12.061
 20
9.51139
 30
0.0
 40
0.01
 41
0.01
  0
VERTEX
  8
0
 10
11.8642
 20
9.51139
 30
0.0
 40
0.01
 41
0.01
  0
VERTEX
  8
0
 10
11.8642
 20
9.11768
 30
0.0
 40
0.01
 41
0.01
  0
VERTEX
  8
0
 10
12.061
 20
9.11768
 30
0.0
 40
0.01
 41
0.01
  0
VERTEX
  8
0
 10
12.061
 20
8.72396
 30
0.0
 40
0.01
 41
0.01
  0
VERTEX
  8
0
 10
11.8642
 20
8.72396
 30
0.0
 40
0.01
 41
0.01
  0
VERTEX
  8
0
 10
11.8642
 20
8.33029
 30
0.0
 40
0.01
 41
0.01
  0
VERTEX
  8
0
 10
12.061
 20
8.33029
 30
0.0
 40
0.01
 41
0.01
  0
VERTEX
  8
0
 10
12.061
 20
7.93658
 30
0.0
 40
0.01
 41
0.01
  0
VERTEX
  8
0
 10
11.8642
 20
7.93658
 30
0.0
 40
0.01
 41
0.01
  0
VERTEX
  8
0
 10
11.8642
 20
7.54286
 30
0.0
 40
0.01
 41
0.01
  0
VERTEX
  8
0
 10
12.061
 20
7.54286
 30
0.0
 40
0.01
 41
0.01
  0
VERTEX
  8
0
 10
12.061
 20
7.14914
 30
0.0
 40
0.01
 41
0.01
  0
VERTEX
  8
0
 10
11.8642
 20
7.14914
 30
0.0
 40
0.01
 41
0.01
  0
VERTEX
  8
0
 10
11.8642
 20
6.75549
 30
0.0
 40
0.01
 41
0.01
  0
VERTEX
  8
0
 10
12.061
 20
6.75549
 30
0.0
 40
0.01
 41
0.01
  0
VERTEX
  8
0
 10
12.061
 20
6.36176
 30
0.0
 40
0.01
 41
0.01
  0
VERTEX
  8
0
 10
11.8642
 20
6.36176
 30
0.0
 40
0.01
 41
0.01
  0
VERTEX
  8
0
 10
11.8642
 20
5.96804
 30
0.0
 40
0.01
 41
0.01
  0
VERTEX
  8
0
 10
12.061
 20
5.96804
 30
0.0
 40
0.01
 41
0.01
  0
VERTEX
  8
0
 10
12.061
 20
5.57438
 30
0.0
 40
0.01
 41
0.01
  0
VERTEX
  8
0
 10
11.8642
 20
5.57438
 30
0.0
 40
0.01
 41
0.01
  0
VERTEX
  8
0
 10
11.8642
 20
5.18067
 30
0.0
 40
0.01
 41
0.01
  0
VERTEX
  8
0
 10
12.061
 20
5.18067
 30
0.0
 40
0.01
 41
0.01
  0
VERTEX
  8
0
 10
12.061
 20
4.78694
 30
0.0
 40
0.01
 41
0.01
  0
VERTEX
  8
0
 10
11.8642
 20
4.78694
 30
0.0
 40
0.01
 41
0.01
  0
VERTEX
  8
0
 10
11.8642
 20
4.39328
 30
0.0
 40
0.01
 41
0.01
  0
VERTEX
  8
0
 10
12.061
 20
4.39328
 30
0.0
 40
0.01
 41
0.01
  0
VERTEX
  8
0
 10
12.061
 20
3.99957
 30
0.0
 40
0.01
 41
0.01
  0
VERTEX
  8
0
 10
11.8642
 20
3.99957
 30
0.0
 40
0.01
 41
0.01
  0
VERTEX
  8
0
 10
11.8642
 20
3.60585
 30
0.0
 40
0.01
 41
0.01
  0
VERTEX
  8
0
 10
12.061
 20
3.60585
 30
0.0
 40
0.01
 41
0.01
  0
VERTEX
  8
0
 10
12.061
 20
3.21218
 30
0.0
 40
0.01
 41
0.01
  0
VERTEX
  8
0
 10
11.8642
 20
3.21218
 30
0.0
 40
0.01
 41
0.01
  0
VERTEX
  8
0
 10
11.8642
 20
2.81847
 30
0.0
 40
0.01
 41
0.01
  0
VERTEX
  8
0
 10
12.061
 20
2.81847
 30
0.0
 40
0.01
 41
0.01
  0
VERTEX
  8
0
 10
12.061
 20
2.42475
 30
0.0
 40
0.01
 41
0.01
  0
VERTEX
  8
0
 10
11.8642
 20
2.42475
 30
0.0
 40
0.01
 41
0.01
  0
VERTEX
  8
0
 10
11.8642
 20
2.03103
 30
0.0
 40
0.01
 41
0.01
  0
VERTEX
  8
0
 10
12.061
 20
2.03103
 30
0.0
 40
0.01
 41
0.01
  0
VERTEX
  8
0
 10
12.061
 20
1.63737
 30
0.0
 40
0.01
 41
0.01
  0
VERTEX
  8
0
 10
11.8642
 20
1.63737
 30
0.0
 40
0.01
 41
0.01
  0
VERTEX
  8
0
 10
11.8642
 20
1.24365
 30
0.0
 40
0.01
 41
0.01
  0
VERTEX
  8
0
 10
12.061
 20
1.24365
 30
0.0
 40
0.01
 41
0.01
  0
VERTEX
  8
0
 10
12.061
 20
0.751519
 30
0.0
 40
0.01
 41
0.01
  0
VERTEX
  8
0
 10
11.8642
 20
0.751519
 30
0.0
 40
0.01
 41
0.01
  0
VERTEX
  8
0
 10
11.8642
 20
0.456272
 30
0.0
 40
0.01
 41
0.01
  0
VERTEX
  8
0
 10
11.5689
 20
0.456272
 30
0.0
 40
0.01
 41
0.01
  0
VERTEX
  8
0
 10
11.5689
 20
0.259386
 30
0.0
 40
0.01
 41
0.01
  0
VERTEX
  8
0
 10
11.0768
 20
0.259386
 30
0.0
 40
0.01
 41
0.01
  0
VERTEX
  8
0
 10
11.0768
 20
0.456272
 30
0.0
 40
0.01
 41
0.01
  0
VERTEX
  8
0
 10
10.6831
 20
0.456272
 30
0.0
 40
0.01
 41
0.01
  0
VERTEX
  8
0
 10
10.6831
 20
0.259386
 30
0.0
 40
0.01
 41
0.01
  0
VERTEX
  8
0
 10
10.2894
 20
0.259386
 30
0.0
 40
0.01
 41
0.01
  0
VERTEX
  8
0
 10
10.2894
 20
0.456272
 30
0.0
 40
0.01
 41
0.01
  0
VERTEX
  8
0
 10
9.89567
 20
0.456272
 30
0.0
 40
0.01
 41
0.01
  0
VERTEX
  8
0
 10
9.89567
 20
0.259386
 30
0.0
 40
0.01
 41
0.01
  0
VERTEX
  8
0
 10
9.50196
 20
0.259386
 30
0.0
 40
0.01
 41
0.01
  0
VERTEX
  8
0
 10
9.50196
 20
0.456272
 30
0.0
 40
0.01
 41
0.01
  0
VERTEX
  8
0
 10
9.10829
 20
0.456272
 30
0.0
 40
0.01
 41
0.01
  0
VERTEX
  8
0
 10
9.10829
 20
0.259386
 30
0.0
 40
0.01
 41
0.01
  0
VERTEX
  8
0
 10
8.71457
 20
0.259386
 30
0.0
 40
0.01
 41
0.01
  0
VERTEX
  8
0
 10
8.71457
 20
0.456272
 30
0.0
 40
0.01
 41
0.01
  0
VERTEX
  8
0
 10
8.32086
 20
0.456272
 30
0.0
 40
0.01
 41
0.01
  0
VERTEX
  8
0
 10
8.32086
 20
0.259386
 30
0.0
 40
0.01
 41
0.01
  0
VERTEX
  8
0
 10
7.92719
 20
0.259386
 30
0.0
 40
0.01
 41
0.01
  0
VERTEX
  8
0
 10
7.92719
 20
0.456272
 30
0.0
 40
0.01
 41
0.01
  0
VERTEX
  8
0
 10
7.53347
 20
0.456272
 30
0.0
 40
0.01
 41
0.01
  0
VERTEX
  8
0
 10
7.53347
 20
0.259386
 30
0.0
 40
0.01
 41
0.01
  0
VERTEX
  8
0
 10
7.13976
 20
0.259386
 30
0.0
 40
0.01
 41
0.01
  0
VERTEX
  8
0
 10
7.13976
 20
0.456272
 30
0.0
 40
0.01
 41
0.01
  0
VERTEX
  8
0
 10
6.74604
 20
0.456272
 30
0.0
 40
0.01
 41
0.01
  0
VERTEX
  8
0
 10
6.74604
 20
0.259386
 30
0.0
 40
0.01
 41
0.01
  0
VERTEX
  8
0
 10
6.35238
 20
0.259386
 30
0.0
 40
0.01
 41
0.01
  0
VERTEX
  8
0
 10
6.35238
 20
0.456272
 30
0.0
 40
0.01
 41
0.01
  0
VERTEX
  8
0
 10
5.95865
 20
0.456272
 30
0.0
 40
0.01
 41
0.01
  0
VERTEX
  8
0
 10
5.95865
 20
0.259386
 30
0.0
 40
0.01
 41
0.01
  0
VERTEX
  8
0
 10
5.56494
 20
0.259386
 30
0.0
 40
0.01
 41
0.01
  0
VERTEX
  8
0
 10
5.56494
 20
0.456272
 30
0.0
 40
0.01
 41
0.01
  0
VERTEX
  8
0
 10
5.17128
 20
0.456272
 30
0.0
 40
0.01
 41
0.01
  0
VERTEX
  8
0
 10
5.17128
 20
0.259386
 30
0.0
 40
0.01
 41
0.01
  0
VERTEX
  8
0
 10
4.77756
 20
0.259386
 30
0.0
 40
0.01
 41
0.01
  0
VERTEX
  8
0
 10
4.77756
 20
0.456272
 30
0.0
 40
0.01
 41
0.01
  0
VERTEX
  8
0
 10
4.38385
 20
0.456272
 30
0.0
 40
0.01
 41
0.01
  0
VERTEX
  8
0
 10
4.38385
 20
0.259386
 30
0.0
 40
0.01
 41
0.01
  0
VERTEX
  8
0
 10
3.99018
 20
0.259386
 30
0.0
 40
0.01
 41
0.01
  0
VERTEX
  8
0
 10
3.99018
 20
0.456272
 30
0.0
 40
0.01
 41
0.01
  0
VERTEX
  8
0
 10
3.59646
 20
0.456272
 30
0.0
 40
0.01
 41
0.01
  0
VERTEX
  8
0
 10
3.59646
 20
0.259386
 30
0.0
 40
0.01
 41
0.01
  0
VERTEX
  8
0
 10
3.20275
 20
0.259386
 30
0.0
 40
0.01
 41
0.01
  0
VERTEX
  8
0
 10
3.20275
 20
0.456272
 30
0.0
 40
0.01
 41
0.01
  0
VERTEX
  8
0
 10
2.80908
 20
0.456272
 30
0.0
 40
0.01
 41
0.01
  0
VERTEX
  8
0
 10
2.80908
 20
0.259386
 30
0.0
 40
0.01
 41
0.01
  0
VERTEX
  8
0
 10
2.41536
 20
0.259386
 30
0.0
 40
0.01
 41
0.01
  0
VERTEX
  8
0
 10
2.41536
 20
0.456272
 30
0.0
 40
0.01
 41
0.01
  0
VERTEX
  8
0
 10
2.02165
 20
0.456272
 30
0.0
 40
0.01
 41
0.01
  0
VERTEX
  8
0
 10
2.02165
 20
0.259386
 30
0.0
 40
0.01
 41
0.01
  0
VERTEX
  8
0
 10
1.62793
 20
0.259386
 30
0.0
 40
0.01
 41
0.01
  0
VERTEX
  8
0
 10
1.62793
 20
0.456272
 30
0.0
 40
0.01
 41
0.01
  0
VERTEX
  8
0
 10
1.23427
 20
0.456272
 30
0.0
 40
0.01
 41
0.01
  0
VERTEX
  8
0
 10
1.23427
 20
0.259386
 30
0.0
 40
0.01
 41
0.01
  0
VERTEX
  8
0
 10
0.742133
 20
0.259386
 30
0.0
 40
0.01
 41
0.01
  0
VERTEX
  8
0
 10
0.742133
 20
0.456272
 30
0.0
 40
0.01
 41
0.01
  0
VERTEX
  8
0
 10
0.446832
 20
0.456272
 30
0.0
 40
0.01
 41
0.01
  0
VERTEX
  8
0
 10
0.446832
 20
0.751519
 30
0.0
 40
0.01
 41
0.01
  0
VERTEX
  8
0
 10
0.25
 20
0.751519
 30
0.0
 40
0.01
 41
0.01
  0
VERTEX
  8
0
 10
0.25
 20
1.24365
 30
0.0
 40
0.01
 41
0.01
  0
VERTEX
  8
0
 10
0.446832
 20
1.24365
 30
0.0
 40
0.01
 41
0.01
  0
VERTEX
  8
0
 10
0.446832
 20
1.63737
 30
0.0
 40
0.01
 41
0.01
  0
VERTEX
  8
0
 10
0.25
 20
1.63737
 30
0.0
 40
0.01
 41
0.01
  0
VERTEX
  8
0
 10
0.25
 20
2.03103
 30
0.0
 40
0.01
 41
0.01
  0
VERTEX
  8
0
 10
0.446832
 20
2.03103
 30
0.0
 40
0.01
 41
0.01
  0
VERTEX
  8
0
 10
0.446832
 20
2.42475
 30
0.0
 40
0.01
 41
0.01
  0
VERTEX
  8
0
 10
0.25
 20
2.42475
 30
0.0
 40
0.01
 41
0.01
  0
VERTEX
  8
0
 10
0.25
 20
2.81847
 30
0.0
 40
0.01
 41
0.01
  0
VERTEX
  8
0
 10
0.446832
 20
2.81847
 30
0.0
 40
0.01
 41
0.01
  0
VERTEX
  8
0
 10
0.446832
 20
3.21218
 30
0.0
 40
0.01
 41
0.01
  0
VERTEX
  8
0
 10
0.25
 20
3.21218
 30
0.0
 40
0.01
 41
0.01
  0
VERTEX
  8
0
 10
0.25
 20
3.60585
 30
0.0
 40
0.01
 41
0.01
  0
VERTEX
  8
0
 10
0.446832
 20
3.60585
 30
0.0
 40
0.01
 41
0.01
  0
VERTEX
  8
0
 10
0.446832
 20
3.99957
 30
0.0
 40
0.01
 41
0.01
  0
VERTEX
  8
0
 10
0.25
 20
3.99957
 30
0.0
 40
0.01
 41
0.01
  0
VERTEX
  8
0
 10
0.25
 20
4.39328
 30
0.0
 40
0.01
 41
0.01
  0
VERTEX
  8
0
 10
0.446832
 20
4.39328
 30
0.0
 40
0.01
 41
0.01
  0
VERTEX
  8
0
 10
0.446832
 20
4.78694
 30
0.0
 40
0.01
 41
0.01
  0
VERTEX
  8
0
 10
0.25
 20
4.78694
 30
0.0
 40
0.01
 41
0.01
  0
VERTEX
  8
0
 10
0.25
 20
5.18067
 30
0.0
 40
0.01
 41
0.01
  0
VERTEX
  8
0
 10
0.446832
 20
5.18067
 30
0.0
 40
0.01
 41
0.01
  0
VERTEX
  8
0
 10
0.446832
 20
5.57438
 30
0.0
 40
0.01
 41
0.01
  0
VERTEX
  8
0
 10
0.25
 20
5.57438
 30
0.0
 40
0.01
 41
0.01
  0
VERTEX
  8
0
 10
0.25
 20
5.96804
 30
0.0
 40
0.01
 41
0.01
  0
VERTEX
  8
0
 10
0.446832
 20
5.96804
 30
0.0
 40
0.01
 41
0.01
  0
VERTEX
  8
0
 10
0.446832
 20
6.36176
 30
0.0
 40
0.01
 41
0.01
  0
VERTEX
  8
0
 10
0.25
 20
6.36176
 30
0.0
 40
0.01
 41
0.01
  0
VERTEX
  8
0
 10
0.25
 20
6.75549
 30
0.0
 40
0.01
 41
0.01
  0
VERTEX
  8
0
 10
0.446832
 20
6.75549
 30
0.0
 40
0.01
 41
0.01
  0
VERTEX
  8
0
 10
0.446832
 20
7.14914
 30
0.0
 40
0.01
 41
0.01
  0
VERTEX
  8
0
 10
0.25
 20
7.14914
 30
0.0
 40
0.01
 41
0.01
  0
VERTEX
  8
0
 10
0.25
 20
7.54286
 30
0.0
 40
0.01
 41
0.01
  0
VERTEX
  8
0
 10
0.446832
 20
7.54286
 30
0.0
 40
0.01
 41
0.01
  0
VERTEX
  8
0
 10
0.446832
 20
7.93658
 30
0.0
 40
0.01
 41
0.01
  0
VERTEX
  8
0
 10
0.25
 20
7.93658
 30
0.0
 40
0.01
 41
0.01
  0
VERTEX
  8
0
 10
0.25
 20
8.33029
 30
0.0
 40
0.01
 41
0.01
  0
VERTEX
  8
0
 10
0.446832
 20
8.33029
 30
0.0
 40
0.01
 41
0.01
  0
VERTEX
  8
0
 10
0.446832
 20
8.72396
 30
0.0
 40
0.01
 41
0.01
  0
VERTEX
  8
0
 10
0.25
 20
8.72396
 30
0.0
 40
0.01
 41
0.01
  0
VERTEX
  8
0
 10
0.25
 20
9.11768
 30
0.0
 40
0.01
 41
0.01
  0
VERTEX
  8
0
 10
0.446832
 20
9.11768
 30
0.0
 40
0.01
 41
0.01
  0
VERTEX
  8
0
 10
0.446832
 20
9.51139
 30
0.0
 40
0.01
 41
0.01
  0
VERTEX
  8
0
 10
0.25
 20
9.51139
 30
0.0
 40
0.01
 41
0.01
  0
VERTEX
  8
0
 10
0.25
 20
9.90506
 30
0.0
 40
0.01
 41
0.01
  0
VERTEX
  8
0
 10
0.446832
 20
9.90506
 30
0.0
 40
0.01
 41
0.01
  0
VERTEX
  8
0
 10
0.446832
 20
10.2988
 30
0.0
 40
0.01
 41
0.01
  0
VERTEX
  8
0
 10
0.25
 20
10.2988
 30
0.0
 40
0.01
 41
0.01
  0
VERTEX
  8
0
 10
0.25
 20
10.6925
 30
0.0
 40
0.01
 41
0.01
  0
VERTEX
  8
0
 10
0.446832
 20
10.6925
 30
0.0
 40
0.01
 41
0.01
  0
VERTEX
  8
0
 10
0.446832
 20
11.0862
 30
0.0
 40
0.01
 41
0.01
  0
VERTEX
  8
0
 10
0.25
 20
11.0862
 30
0.0
 40
0.01
 41
0.01
  0
VERTEX
  8
0
 10
0.25
 20
11.4799
 30
0.0
 40
0.01
 41
0.01
  0
VERTEX
  8
0
 10
0.446832
 20
11.4799
 30
0.0
 40
0.01
 41
0.01
  0
VERTEX
  8
0
 10
0.446832
 20
11.8736
 30
0.0
 40
0.01
 41
0.01
  0
VERTEX
  8
0
 10
0.25
 20
11.8736
 30
0.0
 40
0.01
 41
0.01
  0
VERTEX
  8
0
 10
0.25
 20
12.2673
 30
0.0
 40
0.01
 41
0.01
  0
VERTEX
  8
0
 10
0.446832
 20
12.2673
 30
0.0
 40
0.01
 41
0.01
  0
VERTEX
  8
0
 10
0.446832
 20
12.661
 30
0.0
 40
0.01
 41
0.01
  0
VERTEX
  8
0
 10
0.25
 20
12.661
 30
0.0
 40
0.01
 41
0.01
  0
VERTEX
  8
0
 10
0.25
 20
13.0547
 30
0.0
 40
0.01
 41
0.01
  0
VERTEX
  8
0
 10
0.446832
 20
13.0547
 30
0.0
 40
0.01
 41
0.01
  0
VERTEX
  8
0
 10
0.446832
 20
13.4484
 30
0.0
 40
0.01
 41
0.01
  0
VERTEX
  8
0
 10
0.25
 20
13.4484
 30
0.0
 40
0.01
 41
0.01
  0
VERTEX
  8
0
 10
0.25
 20
13.8421
 30
0.0
 40
0.01
 41
0.01
  0
VERTEX
  8
0
 10
0.446832
 20
13.8421
 30
0.0
 40
0.01
 41
0.01
  0
VERTEX
  8
0
 10
0.446832
 20
14.2358
 30
0.0
 40
0.01
 41
0.01
  0
VERTEX
  8
0
 10
0.25
 20
14.2358
 30
0.0
 40
0.01
 41
0.01
  0
VERTEX
  8
0
 10
0.25
 20
14.6294
 30
0.0
 40
0.01
 41
0.01
  0
VERTEX
  8
0
 10
0.446832
 20
14.6294
 30
0.0
 40
0.01
 41
0.01
  0
VERTEX
  8
0
 10
0.446832
 20
15.0232
 30
0.0
 40
0.01
 41
0.01
  0
VERTEX
  8
0
 10
0.25
 20
15.0232
 30
0.0
 40
0.01
 41
0.01
  0
VERTEX
  8
0
 10
0.25
 20
15.5153
 30
0.0
 40
0.01
 41
0.01
  0
VERTEX
  8
0
 10
0.446832
 20
15.5153
 30
0.0
 40
0.01
 41
0.01
  0
VERTEX
  8
0
 10
0.446832
 20
15.8106
 30
0.0
 40
0.01
 41
0.01
  0
SEQEND
 8
0
  0
POLYLINE
  8
0
 62
     0
 66
     1
 10
0
 20
0
 30
0.0
 70
     1
 40
0.72
 41
0.72
  0
VERTEX
  8
0
 10
12.2579
 20
15.8106
 30
0.0
 40
0.01
 41
0.01
  0
VERTEX
  8
0
 10
12.5532
 20
15.8106
 30
0.0
 40
0.01
 41
0.01
  0
VERTEX
  8
0
 10
12.5532
 20
16.0075
 30
0.0
 40
0.01
 41
0.01
  0
VERTEX
  8
0
 10
13.0453
 20
16.0075
 30
0.0
 40
0.01
 41
0.01
  0
VERTEX
  8
0
 10
13.0453
 20
15.8106
 30
0.0
 40
0.01
 41
0.01
  0
VERTEX
  8
0
 10
13.439
 20
15.8106
 30
0.0
 40
0.01
 41
0.01
  0
VERTEX
  8
0
 10
13.439
 20
16.0075
 30
0.0
 40
0.01
 41
0.01
  0
VERTEX
  8
0
 10
13.8327
 20
16.0075
 30
0.0
 40
0.01
 41
0.01
  0
VERTEX
  8
0
 10
13.8327
 20
15.8106
 30
0.0
 40
0.01
 41
0.01
  0
VERTEX
  8
0
 10
14.2264
 20
15.8106
 30
0.0
 40
0.01
 41
0.01
  0
VERTEX
  8
0
 10
14.2264
 20
16.0075
 30
0.0
 40
0.01
 41
0.01
  0
VERTEX
  8
0
 10
14.62
 20
16.0075
 30
0.0
 40
0.01
 41
0.01
  0
VERTEX
  8
0
 10
14.62
 20
15.8106
 30
0.0
 40
0.01
 41
0.01
  0
VERTEX
  8
0
 10
15.0137
 20
15.8106
 30
0.0
 40
0.01
 41
0.01
  0
VERTEX
  8
0
 10
15.0137
 20
16.0075
 30
0.0
 40
0.01
 41
0.01
  0
VERTEX
  8
0
 10
15.4075
 20
16.0075
 30
0.0
 40
0.01
 41
0.01
  0
VERTEX
  8
0
 10
15.4075
 20
15.8106
 30
0.0
 40
0.01
 41
0.01
  0
VERTEX
  8
0
 10
15.8011
 20
15.8106
 30
0.0
 40
0.01
 41
0.01
  0
VERTEX
  8
0
 10
15.8011
 20
16.0075
 30
0.0
 40
0.01
 41
0.01
  0
VERTEX
  8
0
 10
16.1949
 20
16.0075
 30
0.0
 40
0.01
 41
0.01
  0
VERTEX
  8
0
 10
16.1949
 20
15.8106
 30
0.0
 40
0.01
 41
0.01
  0
VERTEX
  8
0
 10
16.5886
 20
15.8106
 30
0.0
 40
0.01
 41
0.01
  0
VERTEX
  8
0
 10
16.5886
 20
16.0075
 30
0.0
 40
0.01
 41
0.01
  0
VERTEX
  8
0
 10
16.9822
 20
16.0075
 30
0.0
 40
0.01
 41
0.01
  0
VERTEX
  8
0
 10
16.9822
 20
15.8106
 30
0.0
 40
0.01
 41
0.01
  0
VERTEX
  8
0
 10
17.376
 20
15.8106
 30
0.0
 40
0.01
 41
0.01
  0
VERTEX
  8
0
 10
17.376
 20
16.0075
 30
0.0
 40
0.01
 41
0.01
  0
VERTEX
  8
0
 10
17.7697
 20
16.0075
 30
0.0
 40
0.01
 41
0.01
  0
VERTEX
  8
0
 10
17.7697
 20
15.8106
 30
0.0
 40
0.01
 41
0.01
  0
VERTEX
  8
0
 10
18.1635
 20
15.8106
 30
0.0
 40
0.01
 41
0.01
  0
VERTEX
  8
0
 10
18.1635
 20
16.0075
 30
0.0
 40
0.01
 41
0.01
  0
VERTEX
  8
0
 10
18.5571
 20
16.0075
 30
0.0
 40
0.01
 41
0.01
  0
VERTEX
  8
0
 10
18.5571
 20
15.8106
 30
0.0
 40
0.01
 41
0.01
  0
VERTEX
  8
0
 10
18.9508
 20
15.8106
 30
0.0
 40
0.01
 41
0.01
  0
VERTEX
  8
0
 10
18.9508
 20
16.0075
 30
0.0
 40
0.01
 41
0.01
  0
VERTEX
  8
0
 10
19.3444
 20
16.0075
 30
0.0
 40
0.01
 41
0.01
  0
VERTEX
  8
0
 10
19.3444
 20
15.8106
 30
0.0
 40
0.01
 41
0.01
  0
VERTEX
  8
0
 10
19.7382
 20
15.8106
 30
0.0
 40
0.01
 41
0.01
  0
VERTEX
  8
0
 10
19.7382
 20
16.0075
 30
0.0
 40
0.01
 41
0.01
  0
VERTEX
  8
0
 10
20.1319
 20
16.0075
 30
0.0
 40
0.01
 41
0.01
  0
VERTEX
  8
0
 10
20.1319
 20
15.8106
 30
0.0
 40
0.01
 41
0.01
  0
VERTEX
  8
0
 10
20.5256
 20
15.8106
 30
0.0
 40
0.01
 41
0.01
  0
VERTEX
  8
0
 10
20.5256
 20
16.0075
 30
0.0
 40
0.01
 41
0.01
  0
VERTEX
  8
0
 10
20.9193
 20
16.0075
 30
0.0
 40
0.01
 41
0.01
  0
VERTEX
  8
0
 10
20.9193
 20
15.8106
 30
0.0
 40
0.01
 41
0.01
  0
VERTEX
  8
0
 10
21.3131
 20
15.8106
 30
0.0
 40
0.01
 41
0.01
  0
VERTEX
  8
0
 10
21.3131
 20
16.0075
 30
0.0
 40
0.01
 41
0.01
  0
VERTEX
  8
0
 10
21.7067
 20
16.0075
 30
0.0
 40
0.01
 41
0.01
  0
VERTEX
  8
0
 10
21.7067
 20
15.8106
 30
0.0
 40
0.01
 41
0.01
  0
VERTEX
  8
0
 10
22.1004
 20
15.8106
 30
0.0
 40
0.01
 41
0.01
  0
VERTEX
  8
0
 10
22.1004
 20
16.0075
 30
0.0
 40
0.01
 41
0.01
  0
VERTEX
  8
0
 10
22.494
 20
16.0075
 30
0.0
 40
0.01
 41
0.01
  0
VERTEX
  8
0
 10
22.494
 20
15.8106
 30
0.0
 40
0.01
 41
0.01
  0
VERTEX
  8
0
 10
22.8878
 20
15.8106
 30
0.0
 40
0.01
 41
0.01
  0
VERTEX
  8
0
 10
22.8878
 20
16.0075
 30
0.0
 40
0.01
 41
0.01
  0
VERTEX
  8
0
 10
23.38
 20
16.0075
 30
0.0
 40
0.01
 41
0.01
  0
VERTEX
  8
0
 10
23.38
 20
15.8106
 30
0.0
 40
0.01
 41
0.01
  0
VERTEX
  8
0
 10
23.6751
 20
15.8106
 30
0.0
 40
0.01
 41
0.01
  0
VERTEX
  8
0
 10
23.6751
 20
15.5153
 30
0.0
 40
0.01
 41
0.01
  0
VERTEX
  8
0
 10
23.8721
 20
15.5153
 30
0.0
 40
0.01
 41
0.01
  0
VERTEX
  8
0
 10
23.8721
 20
15.0232
 30
0.0
 40
0.01
 41
0.01
  0
VERTEX
  8
0
 10
23.6751
 20
15.0232
 30
0.0
 40
0.01
 41
0.01
  0
VERTEX
  8
0
 10
23.6751
 20
14.6294
 30
0.0
 40
0.01
 41
0.01
  0
VERTEX
  8
0
 10
23.8721
 20
14.6294
 30
0.0
 40
0.01
 41
0.01
  0
VERTEX
  8
0
 10
23.8721
 20
14.2358
 30
0.0
 40
0.01
 41
0.01
  0
VERTEX
  8
0
 10
23.6751
 20
14.2358
 30
0.0
 40
0.01
 41
0.01
  0
VERTEX
  8
0
 10
23.6751
 20
13.8421
 30
0.0
 40
0.01
 41
0.01
  0
VERTEX
  8
0
 10
23.8721
 20
13.8421
 30
0.0
 40
0.01
 41
0.01
  0
VERTEX
  8
0
 10
23.8721
 20
13.4484
 30
0.0
 40
0.01
 41
0.01
  0
VERTEX
  8
0
 10
23.6751
 20
13.4484
 30
0.0
 40
0.01
 41
0.01
  0
VERTEX
  8
0
 10
23.6751
 20
13.0547
 30
0.0
 40
0.01
 41
0.01
  0
VERTEX
  8
0
 10
23.8721
 20
13.0547
 30
0.0
 40
0.01
 41
0.01
  0
VERTEX
  8
0
 10
23.8721
 20
12.661
 30
0.0
 40
0.01
 41
0.01
  0
VERTEX
  8
0
 10
23.6751
 20
12.661
 30
0.0
 40
0.01
 41
0.01
  0
VERTEX
  8
0
 10
23.6751
 20
12.2673
 30
0.0
 40
0.01
 41
0.01
  0
VERTEX
  8
0
 10
23.8721
 20
12.2673
 30
0.0
 40
0.01
 41
0.01
  0
VERTEX
  8
0
 10
23.8721
 20
11.8736
 30
0.0
 40
0.01
 41
0.01
  0
VERTEX
  8
0
 10
23.6751
 20
11.8736
 30
0.0
 40
0.01
 41
0.01
  0
VERTEX
  8
0
 10
23.6751
 20
11.4799
 30
0.0
 40
0.01
 41
0.01
  0
VERTEX
  8
0
 10
23.8721
 20
11.4799
 30
0.0
 40
0.01
 41
0.01
  0
VERTEX
  8
0
 10
23.8721
 20
11.0862
 30
0.0
 40
0.01
 41
0.01
  0
VERTEX
  8
0
 10
23.6751
 20
11.0862
 30
0.0
 40
0.01
 41
0.01
  0
VERTEX
  8
0
 10
23.6751
 20
10.6925
 30
0.0
 40
0.01
 41
0.01
  0
VERTEX
  8
0
 10
23.8721
 20
10.6925
 30
0.0
 40
0.01
 41
0.01
  0
VERTEX
  8
0
 10
23.8721
 20
10.2988
 30
0.0
 40
0.01
 41
0.01
  0
VERTEX
  8
0
 10
23.6751
 20
10.2988
 30
0.0
 40
0.01
 41
0.01
  0
VERTEX
  8
0
 10
23.6751
 20
9.90506
 30
0.0
 40
0.01
 41
0.01
  0
VERTEX
  8
0
 10
23.8721
 20
9.90506
 30
0.0
 40
0.01
 41
0.01
  0
VERTEX
  8
0
 10
23.8721
 20
9.51139
 30
0.0
 40
0.01
 41
0.01
  0
VERTEX
  8
0
 10
23.6751
 20
9.51139
 30
0.0
 40
0.01
 41
0.01
  0
VERTEX
  8
0
 10
23.6751
 20
9.11768
 30
0.0
 40
0.01
 41
0.01
  0
VERTEX
  8
0
 10
23.8721
 20
9.11768
 30
0.0
 40
0.01
 41
0.01
  0
VERTEX
  8
0
 10
23.8721
 20
8.72396
 30
0.0
 40
0.01
 41
0.01
  0
VERTEX
  8
0
 10
23.6751
 20
8.72396
 30
0.0
 40
0.01
 41
0.01
  0
VERTEX
  8
0
 10
23.6751
 20
8.33029
 30
0.0
 40
0.01
 41
0.01
  0
VERTEX
  8
0
 10
23.8721
 20
8.33029
 30
0.0
 40
0.01
 41
0.01
  0
VERTEX
  8
0
 10
23.8721
 20
7.93658
 30
0.0
 40
0.01
 41
0.01
  0
VERTEX
  8
0
 10
23.6751
 20
7.93658
 30
0.0
 40
0.01
 41
0.01
  0
VERTEX
  8
0
 10
23.6751
 20
7.54286
 30
0.0
 40
0.01
 41
0.01
  0
VERTEX
  8
0
 10
23.8721
 20
7.54286
 30
0.0
 40
0.01
 41
0.01
  0
VERTEX
  8
0
 10
23.8721
 20
7.14914
 30
0.0
 40
0.01
 41
0.01
  0
VERTEX
  8
0
 10
23.6751
 20
7.14914
 30
0.0
 40
0.01
 41
0.01
  0
VERTEX
  8
0
 10
23.6751
 20
6.75549
 30
0.0
 40
0.01
 41
0.01
  0
VERTEX
  8
0
 10
23.8721
 20
6.75549
 30
0.0
 40
0.01
 41
0.01
  0
VERTEX
  8
0
 10
23.8721
 20
6.36176
 30
0.0
 40
0.01
 41
0.01
  0
VERTEX
  8
0
 10
23.6751
 20
6.36176
 30
0.0
 40
0.01
 41
0.01
  0
VERTEX
  8
0
 10
23.6751
 20
5.96804
 30
0.0
 40
0.01
 41
0.01
  0
VERTEX
  8
0
 10
23.8721
 20
5.96804
 30
0.0
 40
0.01
 41
0.01
  0
VERTEX
  8
0
 10
23.8721
 20
5.57438
 30
0.0
 40
0.01
 41
0.01
  0
VERTEX
  8
0
 10
23.6751
 20
5.57438
 30
0.0
 40
0.01
 41
0.01
  0
VERTEX
  8
0
 10
23.6751
 20
5.18067
 30
0.0
 40
0.01
 41
0.01
  0
VERTEX
  8
0
 10
23.8721
 20
5.18067
 30
0.0
 40
0.01
 41
0.01
  0
VERTEX
  8
0
 10
23.8721
 20
4.78694
 30
0.0
 40
0.01
 41
0.01
  0
VERTEX
  8
0
 10
23.6751
 20
4.78694
 30
0.0
 40
0.01
 41
0.01
  0
VERTEX
  8
0
 10
23.6751
 20
4.39328
 30
0.0
 40
0.01
 41
0.01
  0
VERTEX
  8
0
 10
23.8721
 20
4.39328
 30
0.0
 40
0.01
 41
0.01
  0
VERTEX
  8
0
 10
23.8721
 20
3.99957
 30
0.0
 40
0.01
 41
0.01
  0
VERTEX
  8
0
 10
23.6751
 20
3.99957
 30
0.0
 40
0.01
 41
0.01
  0
VERTEX
  8
0
 10
23.6751
 20
3.60585
 30
0.0
 40
0.01
 41
0.01
  0
VERTEX
  8
0
 10
23.8721
 20
3.60585
 30
0.0
 40
0.01
 41
0.01
  0
VERTEX
  8
0
 10
23.8721
 20
3.21218
 30
0.0
 40
0.01
 41
0.01
  0
VERTEX
  8
0
 10
23.6751
 20
3.21218
 30
0.0
 40
0.01
 41
0.01
  0
VERTEX
  8
0
 10
23.6751
 20
2.81847
 30
0.0
 40
0.01
 41
0.01
  0
VERTEX
  8
0
 10
23.8721
 20
2.81847
 30
0.0
 40
0.01
 41
0.01
  0
VERTEX
  8
0
 10
23.8721
 20
2.42475
 30
0.0
 40
0.01
 41
0.01
  0
VERTEX
  8
0
 10
23.6751
 20
2.42475
 30
0.0
 40
0.01
 41
0.01
  0
VERTEX
  8
0
 10
23.6751
 20
2.03103
 30
0.0
 40
0.01
 41
0.01
  0
VERTEX
  8
0
 10
23.8721
 20
2.03103
 30
0.0
 40
0.01
 41
0.01
  0
VERTEX
  8
0
 10
23.8721
 20
1.63737
 30
0.0
 40
0.01
 41
0.01
  0
VERTEX
  8
0
 10
23.6751
 20
1.63737
 30
0.0
 40
0.01
 41
0.01
  0
VERTEX
  8
0
 10
23.6751
 20
1.24365
 30
0.0
 40
0.01
 41
0.01
  0
VERTEX
  8
0
 10
23.8721
 20
1.24365
 30
0.0
 40
0.01
 41
0.01
  0
VERTEX
  8
0
 10
23.8721
 20
0.751519
 30
0.0
 40
0.01
 41
0.01
  0
VERTEX
  8
0
 10
23.6751
 20
0.751519
 30
0.0
 40
0.01
 41
0.01
  0
VERTEX
  8
0
 10
23.6751
 20
0.456272
 30
0.0
 40
0.01
 41
0.01
  0
VERTEX
  8
0
 10
23.38
 20
0.456272
 30
0.0
 40
0.01
 41
0.01
  0
VERTEX
  8
0
 10
23.38
 20
0.259386
 30
0.0
 40
0.01
 41
0.01
  0
VERTEX
  8
0
 10
22.8878
 20
0.259386
 30
0.0
 40
0.01
 41
0.01
  0
VERTEX
  8
0
 10
22.8878
 20
0.456272
 30
0.0
 40
0.01
 41
0.01
  0
VERTEX
  8
0
 10
22.494
 20
0.456272
 30
0.0
 40
0.01
 41
0.01
  0
VERTEX
  8
0
 10
22.494
 20
0.259386
 30
0.0
 40
0.01
 41
0.01
  0
VERTEX
  8
0
 10
22.1004
 20
0.259386
 30
0.0
 40
0.01
 41
0.01
  0
VERTEX
  8
0
 10
22.1004
 20
0.456272
 30
0.0
 40
0.01
 41
0.01
  0
VERTEX
  8
0
 10
21.7067
 20
0.456272
 30
0.0
 40
0.01
 41
0.01
  0
VERTEX
  8
0
 10
21.7067
 20
0.259386
 30
0.0
 40
0.01
 41
0.01
  0
VERTEX
  8
0
 10
21.3131
 20
0.259386
 30
0.0
 40
0.01
 41
0.01
  0
VERTEX
  8
0
 10
21.3131
 20
0.456272
 30
0.0
 40
0.01
 41
0.01
  0
VERTEX
  8
0
 10
20.9193
 20
0.456272
 30
0.0
 40
0.01
 41
0.01
  0
VERTEX
  8
0
 10
20.9193
 20
0.259386
 30
0.0
 40
0.01
 41
0.01
  0
VERTEX
  8
0
 10
20.5256
 20
0.259386
 30
0.0
 40
0.01
 41
0.01
  0
VERTEX
  8
0
 10
20.5256
 20
0.456272
 30
0.0
 40
0.01
 41
0.01
  0
VERTEX
  8
0
 10
20.1319
 20
0.456272
 30
0.0
 40
0.01
 41
0.01
  0
VERTEX
  8
0
 10
20.1319
 20
0.259386
 30
0.0
 40
0.01
 41
0.01
  0
VERTEX
  8
0
 10
19.7382
 20
0.259386
 30
0.0
 40
0.01
 41
0.01
  0
VERTEX
  8
0
 10
19.7382
 20
0.456272
 30
0.0
 40
0.01
 41
0.01
  0
VERTEX
  8
0
 10
19.3444
 20
0.456272
 30
0.0
 40
0.01
 41
0.01
  0
VERTEX
  8
0
 10
19.3444
 20
0.259386
 30
0.0
 40
0.01
 41
0.01
  0
VERTEX
  8
0
 10
18.9508
 20
0.259386
 30
0.0
 40
0.01
 41
0.01
  0
VERTEX
  8
0
 10
18.9508
 20
0.456272
 30
0.0
 40
0.01
 41
0.01
  0
VERTEX
  8
0
 10
18.5571
 20
0.456272
 30
0.0
 40
0.01
 41
0.01
  0
VERTEX
  8
0
 10
18.5571
 20
0.259386
 30
0.0
 40
0.01
 41
0.01
  0
VERTEX
  8
0
 10
18.1635
 20
0.259386
 30
0.0
 40
0.01
 41
0.01
  0
VERTEX
  8
0
 10
18.1635
 20
0.456272
 30
0.0
 40
0.01
 41
0.01
  0
VERTEX
  8
0
 10
17.7697
 20
0.456272
 30
0.0
 40
0.01
 41
0.01
  0
VERTEX
  8
0
 10
17.7697
 20
0.259386
 30
0.0
 40
0.01
 41
0.01
  0
VERTEX
  8
0
 10
17.376
 20
0.259386
 30
0.0
 40
0.01
 41
0.01
  0
VERTEX
  8
0
 10
17.376
 20
0.456272
 30
0.0
 40
0.01
 41
0.01
  0
VERTEX
  8
0
 10
16.9822
 20
0.456272
 30
0.0
 40
0.01
 41
0.01
  0
VERTEX
  8
0
 10
16.9822
 20
0.259386
 30
0.0
 40
0.01
 41
0.01
  0
VERTEX
  8
0
 10
16.5886
 20
0.259386
 30
0.0
 40
0.01
 41
0.01
  0
VERTEX
  8
0
 10
16.5886
 20
0.456272
 30
0.0
 40
0.01
 41
0.01
  0
VERTEX
  8
0
 10
16.1949
 20
0.456272
 30
0.0
 40
0.01
 41
0.01
  0
VERTEX
  8
0
 10
16.1949
 20
0.259386
 30
0.0
 40
0.01
 41
0.01
  0
VERTEX
  8
0
 10
15.8011
 20
0.259386
 30
0.0
 40
0.01
 41
0.01
  0
VERTEX
  8
0
 10
15.8011
 20
0.456272
 30
0.0
 40
0.01
 41
0.01
  0
VERTEX
  8
0
 10
15.4075
 20
0.456272
 30
0.0
 40
0.01
 41
0.01
  0
VERTEX
  8
0
 10
15.4075
 20
0.259386
 30
0.0
 40
0.01
 41
0.01
  0
VERTEX
  8
0
 10
15.0137
 20
0.259386
 30
0.0
 40
0.01
 41
0.01
  0
VERTEX
  8
0
 10
15.0137
 20
0.456272
 30
0.0
 40
0.01
 41
0.01
  0
VERTEX
  8
0
 10
14.62
 20
0.456272
 30
0.0
 40
0.01
 41
0.01
  0
VERTEX
  8
0
 10
14.62
 20
0.259386
 30
0.0
 40
0.01
 41
0.01
  0
VERTEX
  8
0
 10
14.2264
 20
0.259386
 30
0.0
 40
0.01
 41
0.01
  0
VERTEX
  8
0
 10
14.2264
 20
0.456272
 30
0.0
 40
0.01
 41
0.01
  0
VERTEX
  8
0
 10
13.8327
 20
0.456272
 30
0.0
 40
0.01
 41
0.01
  0
VERTEX
  8
0
 10
13.8327
 20
0.259386
 30
0.0
 40
0.01
 41
0.01
  0
VERTEX
  8
0
 10
13.439
 20
0.259386
 30
0.0
 40
0.01
 41
0.01
  0
VERTEX
  8
0
 10
13.439
 20
0.456272
 30
0.0
 40
0.01
 41
0.01
  0
VERTEX
  8
0
 10
13.0453
 20
0.456272
 30
0.0
 40
0.01
 41
0.01
  0
VERTEX
  8
0
 10
13.0453
 20
0.259386
 30
0.0
 40
0.01
 41
0.01
  0
VERTEX
  8
0
 10
12.5532
 20
0.259386
 30
0.0
 40
0.01
 41
0.01
  0
VERTEX
  8
0
 10
12.5532
 20
0.456272
 30
0.0
 40
0.01
 41
0.01
  0
VERTEX
  8
0
 10
12.2579
 20
0.456272
 30
0.0
 40
0.01
 41
0.01
  0
VERTEX
  8
0
 10
12.2579
 20
0.751519
 30
0.0
 40
0.01
 41
0.01
  0
VERTEX
  8
0
 10
12.061
 20
0.751519
 30
0.0
 40
0.01
 41
0.01
  0
VERTEX
  8
0
 10
12.061
 20
1.24365
 30
0.0
 40
0.01
 41
0.01
  0
VERTEX
  8
0
 10
12.2579
 20
1.24365
 30
0.0
 40
0.01
 41
0.01
  0
VERTEX
  8
0
 10
12.2579
 20
1.63737
 30
0.0
 40
0.01
 41
0.01
  0
VERTEX
  8
0
 10
12.061
 20
1.63737
 30
0.0
 40
0.01
 41
0.01
  0
VERTEX
  8
0
 10
12.061
 20
2.03103
 30
0.0
 40
0.01
 41
0.01
  0
VERTEX
  8
0
 10
12.2579
 20
2.03103
 30
0.0
 40
0.01
 41
0.01
  0
VERTEX
  8
0
 10
12.2579
 20
2.42475
 30
0.0
 40
0.01
 41
0.01
  0
VERTEX
  8
0
 10
12.061
 20
2.42475
 30
0.0
 40
0.01
 41
0.01
  0
VERTEX
  8
0
 10
12.061
 20
2.81847
 30
0.0
 40
0.01
 41
0.01
  0
VERTEX
  8
0
 10
12.2579
 20
2.81847
 30
0.0
 40
0.01
 41
0.01
  0
VERTEX
  8
0
 10
12.2579
 20
3.21218
 30
0.0
 40
0.01
 41
0.01
  0
VERTEX
  8
0
 10
12.061
 20
3.21218
 30
0.0
 40
0.01
 41
0.01
  0
VERTEX
  8
0
 10
12.061
 20
3.60585
 30
0.0
 40
0.01
 41
0.01
  0
VERTEX
  8
0
 10
12.2579
 20
3.60585
 30
0.0
 40
0.01
 41
0.01
  0
VERTEX
  8
0
 10
12.2579
 20
3.99957
 30
0.0
 40
0.01
 41
0.01
  0
VERTEX
  8
0
 10
12.061
 20
3.99957
 30
0.0
 40
0.01
 41
0.01
  0
VERTEX
  8
0
 10
12.061
 20
4.39328
 30
0.0
 40
0.01
 41
0.01
  0
VERTEX
  8
0
 10
12.2579
 20
4.39328
 30
0.0
 40
0.01
 41
0.01
  0
VERTEX
  8
0
 10
12.2579
 20
4.78694
 30
0.0
 40
0.01
 41
0.01
  0
VERTEX
  8
0
 10
12.061
 20
4.78694
 30
0.0
 40
0.01
 41
0.01
  0
VERTEX
  8
0
 10
12.061
 20
5.18067
 30
0.0
 40
0.01
 41
0.01
  0
VERTEX
  8
0
 10
12.2579
 20
5.18067
 30
0.0
 40
0.01
 41
0.01
  0
VERTEX
  8
0
 10
12.2579
 20
5.57438
 30
0.0
 40
0.01
 41
0.01
  0
VERTEX
  8
0
 10
12.061
 20
5.57438
 30
0.0
 40
0.01
 41
0.01
  0
VERTEX
  8
0
 10
12.061
 20
5.96804
 30
0.0
 40
0.01
 41
0.01
  0
VERTEX
  8
0
 10
12.2579
 20
5.96804
 30
0.0
 40
0.01
 41
0.01
  0
VERTEX
  8
0
 10
12.2579
 20
6.36176
 30
0.0
 40
0.01
 41
0.01
  0
VERTEX
  8
0
 10
12.061
 20
6.36176
 30
0.0
 40
0.01
 41
0.01
  0
VERTEX
  8
0
 10
12.061
 20
6.75549
 30
0.0
 40
0.01
 41
0.01
  0
VERTEX
  8
0
 10
12.2579
 20
6.75549
 30
0.0
 40
0.01
 41
0.01
  0
VERTEX
  8
0
 10
12.2579
 20
7.14914
 30
0.0
 40
0.01
 41
0.01
  0
VERTEX
  8
0
 10
12.061
 20
7.14914
 30
0.0
 40
0.01
 41
0.01
  0
VERTEX
  8
0
 10
12.061
 20
7.54286
 30
0.0
 40
0.01
 41
0.01
  0
VERTEX
  8
0
 10
12.2579
 20
7.54286
 30
0.0
 40
0.01
 41
0.01
  0
VERTEX
  8
0
 10
12.2579
 20
7.93658
 30
0.0
 40
0.01
 41
0.01
  0
VERTEX
  8
0
 10
12.061
 20
7.93658
 30
0.0
 40
0.01
 41
0.01
  0
VERTEX
  8
0
 10
12.061
 20
8.33029
 30
0.0
 40
0.01
 41
0.01
  0
VERTEX
  8
0
 10
12.2579
 20
8.33029
 30
0.0
 40
0.01
 41
0.01
  0
VERTEX
  8
0
 10
12.2579
 20
8.72396
 30
0.0
 40
0.01
 41
0.01
  0
VERTEX
  8
0
 10
12.061
 20
8.72396
 30
0.0
 40
0.01
 41
0.01
  0
VERTEX
  8
0
 10
12.061
 20
9.11768
 30
0.0
 40
0.01
 41
0.01
  0
VERTEX
  8
0
 10
12.2579
 20
9.11768
 30
0.0
 40
0.01
 41
0.01
  0
VERTEX
  8
0
 10
12.2579
 20
9.51139
 30
0.0
 40
0.01
 41
0.01
  0
VERTEX
  8
0
 10
12.061
 20
9.51139
 30
0.0
 40
0.01
 41
0.01
  0
VERTEX
  8
0
 10
12.061
 20
9.90506
 30
0.0
 40
0.01
 41
0.01
  0
VERTEX
  8
0
 10
12.2579
 20
9.90506
 30
0.0
 40
0.01
 41
0.01
  0
VERTEX
  8
0
 10
12.2579
 20
10.2988
 30
0.0
 40
0.01
 41
0.01
  0
VERTEX
  8
0
 10
12.061
 20
10.2988
 30
0.0
 40
0.01
 41
0.01
  0
VERTEX
  8
0
 10
12.061
 20
10.6925
 30
0.0
 40
0.01
 41
0.01
  0
VERTEX
  8
0
 10
12.2579
 20
10.6925
 30
0.0
 40
0.01
 41
0.01
  0
VERTEX
  8
0
 10
12.2579
 20
11.0862
 30
0.0
 40
0.01
 41
0.01
  0
VERTEX
  8
0
 10
12.061
 20
11.0862
 30
0.0
 40
0.01
 41
0.01
  0
VERTEX
  8
0
 10
12.061
 20
11.4799
 30
0.0
 40
0.01
 41
0.01
  0
VERTEX
  8
0
 10
12.2579
 20
11.4799
 30
0.0
 40
0.01
 41
0.01
  0
VERTEX
  8
0
 10
12.2579
 20
11.8736
 30
0.0
 40
0.01
 41
0.01
  0
VERTEX
  8
0
 10
12.061
 20
11.8736
 30
0.0
 40
0.01
 41
0.01
  0
VERTEX
  8
0
 10
12.061
 20
12.2673
 30
0.0
 40
0.01
 41
0.01
  0
VERTEX
  8
0
 10
12.2579
 20
12.2673
 30
0.0
 40
0.01
 41
0.01
  0
VERTEX
  8
0
 10
12.2579
 20
12.661
 30
0.0
 40
0.01
 41
0.01
  0
VERTEX
  8
0
 10
12.061
 20
12.661
 30
0.0
 40
0.01
 41
0.01
  0
VERTEX
  8
0
 10
12.061
 20
13.0547
 30
0.0
 40
0.01
 41
0.01
  0
VERTEX
  8
0
 10
12.2579
 20
13.0547
 30
0.0
 40
0.01
 41
0.01
  0
VERTEX
  8
0
 10
12.2579
 20
13.4484
 30
0.0
 40
0.01
 41
0.01
  0
VERTEX
  8
0
 10
12.061
 20
13.4484
 30
0.0
 40
0.01
 41
0.01
  0
VERTEX
  8
0
 10
12.061
 20
13.8421
 30
0.0
 40
0.01
 41
0.01
  0
VERTEX
  8
0
 10
12.2579
 20
13.8421
 30
0.0
 40
0.01
 41
0.01
  0
VERTEX
  8
0
 10
12.2579
 20
14.2358
 30
0.0
 40
0.01
 41
0.01
  0
VERTEX
  8
0
 10
12.061
 20
14.2358
 30
0.0
 40
0.01
 41
0.01
  0
VERTEX
  8
0
 10
12.061
 20
14.6294
 30
0.0
 40
0.01
 41
0.01
  0
VERTEX
  8
0
 10
12.2579
 20
14.6294
 30
0.0
 40
0.01
 41
0.01
  0
VERTEX
  8
0
 10
12.2579
 20
15.0232
 30
0.0
 40
0.01
 41
0.01
  0
VERTEX
  8
0
 10
12.061
 20
15.0232
 30
0.0
 40
0.01
 41
0.01
  0
VERTEX
  8
0
 10
12.061
 20
15.5153
 30
0.0
 40
0.01
 41
0.01
  0
VERTEX
  8
0
 10
12.2579
 20
15.5153
 30
0.0
 40
0.01
 41
0.01
  0
VERTEX
  8
0
 10
12.2579
 20
15.8106
 30
0.0
 40
0.01
 41
0.01
  0
SEQEND
 8
0
  0
ENDSEC
  0
EOF
