  0
SECTION
  2
HEADER
  9
$ACADVER
  1
AC1009
  9
$EXTMIN
 10
0.0
 20
0.0
 30
0.0
  9
$EXTMAX
 10
1000.0
 20
1000.0
 30
0.0
  9
$FILLMODE
 70
 0
  9
$SPLFRAME
 70
 1
  0
ENDSEC
  0
SECTION
  2
TABLES
  0
TABLE
  2
LAYER
 70
1
  0
LAYER
  2
0
 70
     0
 62
     7
  6
CONTINUOUS
  0
ENDTAB
  0
ENDSEC
  0
SECTION
  2
ENTITIES
  0
POLYLINE
  8
0
 62
     0
 66
     1
 10
0
 20
0
 30
0.0
 70
     1
 40
0.72
 41
0.72
  0
VERTEX
  8
0
 10
0.25
 20
19.9444
 30
0.0
 40
0.01
 41
0.01
  0
VERTEX
  8
0
 10
12.061
 20
19.9444
 30
0.0
 40
0.01
 41
0.01
  0
VERTEX
  8
0
 10
12.061
 20
16.0075
 30
0.0
 40
0.01
 41
0.01
  0
VERTEX
  8
0
 10
0.25
 20
16.0075
 30
0.0
 40
0.01
 41
0.01
  0
VERTEX
  8
0
 10
0.25
 20
19.9444
 30
0.0
 40
0.01
 41
0.01
  0
SEQEND
 8
0
  0
POLYLINE
  8
0
 62
     0
 66
     1
 10
0
 20
0
 30
0.0
 40
0.72
 41
0.72
  0
VERTEX
  8
0
 10
12.061
 20
19.9444
 30
0.0
 40
0.01
 41
0.01
  0
VERTEX
  8
0
 10
23.8721
 20
19.9444
 30
0.0
 40
0.01
 41
0.01
  0
VERTEX
  8
0
 10
23.8721
 20
16.0075
 30
0.0
 40
0.01
 41
0.01
  0
VERTEX
  8
0
 10
12.061
 20
16.0075
 30
0.0
 40
0.01
 41
0.01
  0
SEQEND
 8
0
  0
POLYLINE
  8
0
 62
     0
 66
     1
 10
0
 20
0
 30
0.0
 40
0.72
 41
0.72
  0
VERTEX
  8
0
 10
23.8721
 20
19.7082
 30
0.0
 40
0.01
 41
0.01
  0
VERTEX
  8
0
 10
39.3839
 20
19.7082
 30
0.0
 40
0.01
 41
0.01
  0
VERTEX
  8
0
 10
39.3839
 20
16.0075
 30
0.0
 40
0.01
 41
0.01
  0
VERTEX
  8
0
 10
23.8721
 20
16.0075
 30
0.0
 40
0.01
 41
0.01
  0
SEQEND
 8
0
  0
POLYLINE
  8
0
 62
     0
 66
     1
 10
0
 20
0
 30
0.0
 40
0.72
 41
0.72
  0
VERTEX
  8
0
 10
39.3839
 20
16.0075
 30
0.0
 40
0.01
 41
0.01
  0
VERTEX
  8
0
 10
39.3839
 20
12.3066
 30
0.0
 40
0.01
 41
0.01
  0
VERTEX
  8
0
 10
23.8721
 20
12.3066
 30
0.0
 40
0.01
 41
0.01
  0
SEQEND
 8
0
  0
POLYLINE
  8
0
 62
     0
 66
     1
 10
0
 20
0
 30
0.0
 70
     1
 40
0.72
 41
0.72
  0
VERTEX
  8
0
 10
27.691
 20
14.1571
 30
0.0
 40
0.01
 41
0.01
  0
VERTEX
  8
0
 10
27.691
 20
14.1075
 30
0.0
 40
0.01
 41
0.01
  0
VERTEX
  8
0
 10
27.671
 20
13.9588
 30
0.0
 40
0.01
 41
0.01
  0
VERTEX
  8
0
 10
27.6136
 20
13.774
 30
0.0
 40
0.01
 41
0.01
  0
VERTEX
  8
0
 10
27.5228
 20
13.6068
 30
0.0
 40
0.01
 41
0.01
  0
VERTEX
  8
0
 10
27.4026
 20
13.4611
 30
0.0
 40
0.01
 41
0.01
  0
VERTEX
  8
0
 10
27.2569
 20
13.3409
 30
0.0
 40
0.01
 41
0.01
  0
VERTEX
  8
0
 10
27.0897
 20
13.2502
 30
0.0
 40
0.01
 41
0.01
  0
VERTEX
  8
0
 10
26.905
 20
13.1928
 30
0.0
 40
0.01
 41
0.01
  0
VERTEX
  8
0
 10
26.7562
 20
13.1728
 30
0.0
 40
0.01
 41
0.01
  0
VERTEX
  8
0
 10
26.7067
 20
13.1728
 30
0.0
 40
0.01
 41
0.01
  0
VERTEX
  8
0
 10
26.6571
 20
13.1728
 30
0.0
 40
0.01
 41
0.01
  0
VERTEX
  8
0
 10
26.5083
 20
13.1928
 30
0.0
 40
0.01
 41
0.01
  0
VERTEX
  8
0
 10
26.3236
 20
13.2502
 30
0.0
 40
0.01
 41
0.01
  0
VERTEX
  8
0
 10
26.1564
 20
13.3409
 30
0.0
 40
0.01
 41
0.01
  0
VERTEX
  8
0
 10
26.0107
 20
13.4611
 30
0.0
 40
0.01
 41
0.01
  0
VERTEX
  8
0
 10
25.8906
 20
13.6068
 30
0.0
 40
0.01
 41
0.01
  0
VERTEX
  8
0
 10
25.7997
 20
13.774
 30
0.0
 40
0.01
 41
0.01
  0
VERTEX
  8
0
 10
25.7424
 20
13.9588
 30
0.0
 40
0.01
 41
0.01
  0
VERTEX
  8
0
 10
25.7225
 20
14.1075
 30
0.0
 40
0.01
 41
0.01
  0
VERTEX
  8
0
 10
25.7225
 20
14.1571
 30
0.0
 40
0.01
 41
0.01
  0
VERTEX
  8
0
 10
25.7225
 20
14.2067
 30
0.0
 40
0.01
 41
0.01
  0
VERTEX
  8
0
 10
25.7424
 20
14.3554
 30
0.0
 40
0.01
 41
0.01
  0
VERTEX
  8
0
 10
25.7997
 20
14.5401
 30
0.0
 40
0.01
 41
0.01
  0
VERTEX
  8
0
 10
25.8906
 20
14.7074
 30
0.0
 40
0.01
 41
0.01
  0
VERTEX
  8
0
 10
26.0107
 20
14.8531
 30
0.0
 40
0.01
 41
0.01
  0
VERTEX
  8
0
 10
26.1564
 20
14.9732
 30
0.0
 40
0.01
 41
0.01
  0
VERTEX
  8
0
 10
26.3236
 20
15.064
 30
0.0
 40
0.01
 41
0.01
  0
VERTEX
  8
0
 10
26.5083
 20
15.1212
 30
0.0
 40
0.01
 41
0.01
  0
VERTEX
  8
0
 10
26.6571
 20
15.1413
 30
0.0
 40
0.01
 41
0.01
  0
VERTEX
  8
0
 10
26.7067
 20
15.1413
 30
0.0
 40
0.01
 41
0.01
  0
VERTEX
  8
0
 10
26.7562
 20
15.1413
 30
0.0
 40
0.01
 41
0.01
  0
VERTEX
  8
0
 10
26.905
 20
15.1212
 30
0.0
 40
0.01
 41
0.01
  0
VERTEX
  8
0
 10
27.0897
 20
15.064
 30
0.0
 40
0.01
 41
0.01
  0
VERTEX
  8
0
 10
27.2569
 20
14.9732
 30
0.0
 40
0.01
 41
0.01
  0
VERTEX
  8
0
 10
27.4026
 20
14.8531
 30
0.0
 40
0.01
 41
0.01
  0
VERTEX
  8
0
 10
27.5228
 20
14.7074
 30
0.0
 40
0.01
 41
0.01
  0
VERTEX
  8
0
 10
27.6136
 20
14.5401
 30
0.0
 40
0.01
 41
0.01
  0
VERTEX
  8
0
 10
27.671
 20
14.3554
 30
0.0
 40
0.01
 41
0.01
  0
VERTEX
  8
0
 10
27.691
 20
14.2067
 30
0.0
 40
0.01
 41
0.01
  0
VERTEX
  8
0
 10
27.691
 20
14.1571
 30
0.0
 40
0.01
 41
0.01
  0
SEQEND
 8
0
  0
POLYLINE
  8
0
 62
     0
 66
     1
 10
0
 20
0
 30
0.0
 70
     1
 40
0.72
 41
0.72
  0
VERTEX
  8
0
 10
29.9094
 20
14.5507
 30
0.0
 40
0.01
 41
0.01
  0
VERTEX
  8
0
 10
37.2835
 20
14.5507
 30
0.0
 40
0.01
 41
0.01
  0
VERTEX
  8
0
 10
37.3078
 20
14.5507
 30
0.0
 40
0.01
 41
0.01
  0
VERTEX
  8
0
 10
37.381
 20
14.5313
 30
0.0
 40
0.01
 41
0.01
  0
VERTEX
  8
0
 10
37.4604
 20
14.4776
 30
0.0
 40
0.01
 41
0.01
  0
VERTEX
  8
0
 10
37.5139
 20
14.3983
 30
0.0
 40
0.01
 41
0.01
  0
VERTEX
  8
0
 10
37.5335
 20
14.3251
 30
0.0
 40
0.01
 41
0.01
  0
VERTEX
  8
0
 10
37.5335
 20
14.3007
 30
0.0
 40
0.01
 41
0.01
  0
VERTEX
  8
0
 10
37.5335
 20
14.0133
 30
0.0
 40
0.01
 41
0.01
  0
VERTEX
  8
0
 10
37.5335
 20
13.989
 30
0.0
 40
0.01
 41
0.01
  0
VERTEX
  8
0
 10
37.5139
 20
13.9158
 30
0.0
 40
0.01
 41
0.01
  0
VERTEX
  8
0
 10
37.4604
 20
13.8364
 30
0.0
 40
0.01
 41
0.01
  0
VERTEX
  8
0
 10
37.381
 20
13.7829
 30
0.0
 40
0.01
 41
0.01
  0
VERTEX
  8
0
 10
37.3078
 20
13.7633
 30
0.0
 40
0.01
 41
0.01
  0
VERTEX
  8
0
 10
37.2835
 20
13.7633
 30
0.0
 40
0.01
 41
0.01
  0
VERTEX
  8
0
 10
29.9094
 20
13.7633
 30
0.0
 40
0.01
 41
0.01
  0
VERTEX
  8
0
 10
29.885
 20
13.7633
 30
0.0
 40
0.01
 41
0.01
  0
VERTEX
  8
0
 10
29.8119
 20
13.7829
 30
0.0
 40
0.01
 41
0.01
  0
VERTEX
  8
0
 10
29.7325
 20
13.8364
 30
0.0
 40
0.01
 41
0.01
  0
VERTEX
  8
0
 10
29.679
 20
13.9158
 30
0.0
 40
0.01
 41
0.01
  0
VERTEX
  8
0
 10
29.6594
 20
13.989
 30
0.0
 40
0.01
 41
0.01
  0
VERTEX
  8
0
 10
29.6594
 20
14.0133
 30
0.0
 40
0.01
 41
0.01
  0
VERTEX
  8
0
 10
29.6594
 20
14.3007
 30
0.0
 40
0.01
 41
0.01
  0
VERTEX
  8
0
 10
29.6594
 20
14.3251
 30
0.0
 40
0.01
 41
0.01
  0
VERTEX
  8
0
 10
29.679
 20
14.3983
 30
0.0
 40
0.01
 41
0.01
  0
VERTEX
  8
0
 10
29.7325
 20
14.4776
 30
0.0
 40
0.01
 41
0.01
  0
VERTEX
  8
0
 10
29.8119
 20
14.5313
 30
0.0
 40
0.01
 41
0.01
  0
VERTEX
  8
0
 10
29.885
 20
14.5507
 30
0.0
 40
0.01
 41
0.01
  0
VERTEX
  8
0
 10
29.9094
 20
14.5507
 30
0.0
 40
0.01
 41
0.01
  0
SEQEND
 8
0
  0
POLYLINE
  8
0
 62
     0
 66
     1
 10
0
 20
0
 30
0.0
 40
0.72
 41
0.72
  0
VERTEX
  8
0
 10
0.25
 20
16.0075
 30
0.0
 40
0.01
 41
0.01
  0
VERTEX
  8
0
 10
0.25
 20
0.495606
 30
0.0
 40
0.01
 41
0.01
  0
VERTEX
  8
0
 10
12.061
 20
0.495606
 30
0.0
 40
0.01
 41
0.01
  0
VERTEX
  8
0
 10
12.061
 20
16.0075
 30
0.0
 40
0.01
 41
0.01
  0
SEQEND
 8
0
  0
POLYLINE
  8
0
 62
     0
 66
     1
 10
0
 20
0
 30
0.0
 70
     1
 40
0.72
 41
0.72
  0
VERTEX
  8
0
 10
2.46847
 20
10.2201
 30
0.0
 40
0.01
 41
0.01
  0
VERTEX
  8
0
 10
9.8425
 20
10.2201
 30
0.0
 40
0.01
 41
0.01
  0
VERTEX
  8
0
 10
9.86686
 20
10.2201
 30
0.0
 40
0.01
 41
0.01
  0
VERTEX
  8
0
 10
9.94
 20
10.2005
 30
0.0
 40
0.01
 41
0.01
  0
VERTEX
  8
0
 10
10.0194
 20
10.147
 30
0.0
 40
0.01
 41
0.01
  0
VERTEX
  8
0
 10
10.0729
 20
10.0676
 30
0.0
 40
0.01
 41
0.01
  0
VERTEX
  8
0
 10
10.0925
 20
9.99447
 30
0.0
 40
0.01
 41
0.01
  0
VERTEX
  8
0
 10
10.0925
 20
9.97006
 30
0.0
 40
0.01
 41
0.01
  0
VERTEX
  8
0
 10
10.0925
 20
9.68261
 30
0.0
 40
0.01
 41
0.01
  0
VERTEX
  8
0
 10
10.0925
 20
9.65826
 30
0.0
 40
0.01
 41
0.01
  0
VERTEX
  8
0
 10
10.0729
 20
9.58513
 30
0.0
 40
0.01
 41
0.01
  0
VERTEX
  8
0
 10
10.0194
 20
9.50569
 30
0.0
 40
0.01
 41
0.01
  0
VERTEX
  8
0
 10
9.94
 20
9.45221
 30
0.0
 40
0.01
 41
0.01
  0
VERTEX
  8
0
 10
9.86686
 20
9.43261
 30
0.0
 40
0.01
 41
0.01
  0
VERTEX
  8
0
 10
9.8425
 20
9.43261
 30
0.0
 40
0.01
 41
0.01
  0
VERTEX
  8
0
 10
2.46847
 20
9.43261
 30
0.0
 40
0.01
 41
0.01
  0
VERTEX
  8
0
 10
2.44407
 20
9.43261
 30
0.0
 40
0.01
 41
0.01
  0
VERTEX
  8
0
 10
2.37099
 20
9.45221
 30
0.0
 40
0.01
 41
0.01
  0
VERTEX
  8
0
 10
2.29156
 20
9.50569
 30
0.0
 40
0.01
 41
0.01
  0
VERTEX
  8
0
 10
2.23807
 20
9.58513
 30
0.0
 40
0.01
 41
0.01
  0
VERTEX
  8
0
 10
2.21847
 20
9.65826
 30
0.0
 40
0.01
 41
0.01
  0
VERTEX
  8
0
 10
2.21847
 20
9.68261
 30
0.0
 40
0.01
 41
0.01
  0
VERTEX
  8
0
 10
2.21847
 20
9.97006
 30
0.0
 40
0.01
 41
0.01
  0
VERTEX
  8
0
 10
2.21847
 20
9.99447
 30
0.0
 40
0.01
 41
0.01
  0
VERTEX
  8
0
 10
2.23807
 20
10.0676
 30
0.0
 40
0.01
 41
0.01
  0
VERTEX
  8
0
 10
2.29156
 20
10.147
 30
0.0
 40
0.01
 41
0.01
  0
VERTEX
  8
0
 10
2.37099
 20
10.2005
 30
0.0
 40
0.01
 41
0.01
  0
VERTEX
  8
0
 10
2.44407
 20
10.2201
 30
0.0
 40
0.01
 41
0.01
  0
VERTEX
  8
0
 10
2.46847
 20
10.2201
 30
0.0
 40
0.01
 41
0.01
  0
SEQEND
 8
0
  0
POLYLINE
  8
0
 62
     0
 66
     1
 10
0
 20
0
 30
0.0
 70
     1
 40
0.72
 41
0.72
  0
VERTEX
  8
0
 10
2.46847
 20
3.51531
 30
0.0
 40
0.01
 41
0.01
  0
VERTEX
  8
0
 10
9.8425
 20
3.51531
 30
0.0
 40
0.01
 41
0.01
  0
VERTEX
  8
0
 10
9.86686
 20
3.51531
 30
0.0
 40
0.01
 41
0.01
  0
VERTEX
  8
0
 10
9.94
 20
3.49576
 30
0.0
 40
0.01
 41
0.01
  0
VERTEX
  8
0
 10
10.0194
 20
3.44228
 30
0.0
 40
0.01
 41
0.01
  0
VERTEX
  8
0
 10
10.0729
 20
3.36285
 30
0.0
 40
0.01
 41
0.01
  0
VERTEX
  8
0
 10
10.0925
 20
3.28971
 30
0.0
 40
0.01
 41
0.01
  0
VERTEX
  8
0
 10
10.0925
 20
3.26531
 30
0.0
 40
0.01
 41
0.01
  0
VERTEX
  8
0
 10
10.0925
 20
2.97792
 30
0.0
 40
0.01
 41
0.01
  0
VERTEX
  8
0
 10
10.0925
 20
2.95356
 30
0.0
 40
0.01
 41
0.01
  0
VERTEX
  8
0
 10
10.0729
 20
2.88043
 30
0.0
 40
0.01
 41
0.01
  0
VERTEX
  8
0
 10
10.0194
 20
2.801
 30
0.0
 40
0.01
 41
0.01
  0
VERTEX
  8
0
 10
9.94
 20
2.7475
 30
0.0
 40
0.01
 41
0.01
  0
VERTEX
  8
0
 10
9.86686
 20
2.72792
 30
0.0
 40
0.01
 41
0.01
  0
VERTEX
  8
0
 10
9.8425
 20
2.72792
 30
0.0
 40
0.01
 41
0.01
  0
VERTEX
  8
0
 10
2.46847
 20
2.72792
 30
0.0
 40
0.01
 41
0.01
  0
VERTEX
  8
0
 10
2.44407
 20
2.72792
 30
0.0
 40
0.01
 41
0.01
  0
VERTEX
  8
0
 10
2.37099
 20
2.7475
 30
0.0
 40
0.01
 41
0.01
  0
VERTEX
  8
0
 10
2.29156
 20
2.801
 30
0.0
 40
0.01
 41
0.01
  0
VERTEX
  8
0
 10
2.23807
 20
2.88043
 30
0.0
 40
0.01
 41
0.01
  0
VERTEX
  8
0
 10
2.21847
 20
2.95356
 30
0.0
 40
0.01
 41
0.01
  0
VERTEX
  8
0
 10
2.21847
 20
2.97792
 30
0.0
 40
0.01
 41
0.01
  0
VERTEX
  8
0
 10
2.21847
 20
3.26531
 30
0.0
 40
0.01
 41
0.01
  0
VERTEX
  8
0
 10
2.21847
 20
3.28971
 30
0.0
 40
0.01
 41
0.01
  0
VERTEX
  8
0
 10
2.23807
 20
3.36285
 30
0.0
 40
0.01
 41
0.01
  0
VERTEX
  8
0
 10
2.29156
 20
3.44228
 30
0.0
 40
0.01
 41
0.01
  0
VERTEX
  8
0
 10
2.37099
 20
3.49576
 30
0.0
 40
0.01
 41
0.01
  0
VERTEX
  8
0
 10
2.44407
 20
3.51531
 30
0.0
 40
0.01
 41
0.01
  0
VERTEX
  8
0
 10
2.46847
 20
3.51531
 30
0.0
 40
0.01
 41
0.01
  0
SEQEND
 8
0
  0
POLYLINE
  8
0
 62
     0
 66
     1
 10
0
 20
0
 30
0.0
 40
0.72
 41
0.72
  0
VERTEX
  8
0
 10
12.061
 20
0.495606
 30
0.0
 40
0.01
 41
0.01
  0
VERTEX
  8
0
 10
23.8721
 20
0.495606
 30
0.0
 40
0.01
 41
0.01
  0
VERTEX
  8
0
 10
23.8721
 20
16.0075
 30
0.0
 40
0.01
 41
0.01
  0
SEQEND
 8
0
  0
ENDSEC
  0
EOF
