solid ascii
  facet normal 0.000000e+000 0.000000e+000 1.000000e+000
    outer loop
      vertex   -7.554736e+001 1.050518e+002 5.000000e+001
      vertex   -8.054736e+001 1.050518e+002 5.000000e+001
      vertex   -7.554736e+001 1.000518e+002 5.000000e+001
    endloop
  endfacet
  facet normal 0.000000e+000 0.000000e+000 7.071068e-001
    outer loop
      vertex   -7.554736e+001 1.000518e+002 5.000000e+001
      vertex   -8.054736e+001 1.050518e+002 5.000000e+001
      vertex   -8.054736e+001 1.000518e+002 5.000000e+001
    endloop
  endfacet
  facet normal 0.000000e+000 0.000000e+000 -1.000000e+000
    outer loop
      vertex   -7.554736e+001 1.000518e+002 0.000000e+000
      vertex   -8.054736e+001 1.000518e+002 0.000000e+000
      vertex   -7.554736e+001 1.050518e+002 0.000000e+000
    endloop
  endfacet
  facet normal -0.000000e+000 0.000000e+000 -7.071068e-001
    outer loop
      vertex   -7.554736e+001 1.050518e+002 0.000000e+000
      vertex   -8.054736e+001 1.000518e+002 0.000000e+000
      vertex   -8.054736e+001 1.050518e+002 0.000000e+000
    endloop
  endfacet
  facet normal 0.000000e+000 -1.000000e+000 0.000000e+000
    outer loop
      vertex   -8.054736e+001 1.000518e+002 5.000000e+001
      vertex   -8.054736e+001 1.000518e+002 0.000000e+000
      vertex   -7.554736e+001 1.000518e+002 5.000000e+001
    endloop
  endfacet
  facet normal 0.000000e+000 -9.950372e-002 -0.000000e+000
    outer loop
      vertex   -7.554736e+001 1.000518e+002 5.000000e+001
      vertex   -8.054736e+001 1.000518e+002 0.000000e+000
      vertex   -7.554736e+001 1.000518e+002 0.000000e+000
    endloop
  endfacet
  facet normal -1.000000e+000 -0.000000e+000 -0.000000e+000
    outer loop
      vertex   -8.054736e+001 1.050518e+002 5.000000e+001
      vertex   -8.054736e+001 1.050518e+002 0.000000e+000
      vertex   -8.054736e+001 1.000518e+002 5.000000e+001
    endloop
  endfacet
  facet normal -9.950372e-002 0.000000e+000 0.000000e+000
    outer loop
      vertex   -8.054736e+001 1.000518e+002 5.000000e+001
      vertex   -8.054736e+001 1.050518e+002 0.000000e+000
      vertex   -8.054736e+001 1.000518e+002 0.000000e+000
    endloop
  endfacet
  facet normal 0.000000e+000 1.000000e+000 0.000000e+000
    outer loop
      vertex   -7.554736e+001 1.050518e+002 5.000000e+001
      vertex   -7.554736e+001 1.050518e+002 0.000000e+000
      vertex   -8.054736e+001 1.050518e+002 5.000000e+001
    endloop
  endfacet
  facet normal 0.000000e+000 9.950372e-002 0.000000e+000
    outer loop
      vertex   -8.054736e+001 1.050518e+002 5.000000e+001
      vertex   -7.554736e+001 1.050518e+002 0.000000e+000
      vertex   -8.054736e+001 1.050518e+002 0.000000e+000
    endloop
  endfacet
  facet normal 1.000000e+000 -0.000000e+000 0.000000e+000
    outer loop
      vertex   -7.554736e+001 1.000518e+002 5.000000e+001
      vertex   -7.554736e+001 1.000518e+002 0.000000e+000
      vertex   -7.554736e+001 1.050518e+002 5.000000e+001
    endloop
  endfacet
  facet normal 9.950372e-002 0.000000e+000 0.000000e+000
    outer loop
      vertex   -7.554736e+001 1.050518e+002 5.000000e+001
      vertex   -7.554736e+001 1.000518e+002 0.000000e+000
      vertex   -7.554736e+001 1.050518e+002 0.000000e+000
    endloop
  endfacet
endsolid
solid ascii
  facet normal 0.000000e+000 0.000000e+000 1.000000e+000
    outer loop
      vertex   -7.498507e+001 1.743575e+002 5.000000e+001
      vertex   -7.998507e+001 1.743575e+002 5.000000e+001
      vertex   -7.498507e+001 1.693575e+002 5.000000e+001
    endloop
  endfacet
  facet normal 0.000000e+000 0.000000e+000 7.071068e-001
    outer loop
      vertex   -7.498507e+001 1.693575e+002 5.000000e+001
      vertex   -7.998507e+001 1.743575e+002 5.000000e+001
      vertex   -7.998507e+001 1.693575e+002 5.000000e+001
    endloop
  endfacet
  facet normal 0.000000e+000 0.000000e+000 -1.000000e+000
    outer loop
      vertex   -7.498507e+001 1.693575e+002 0.000000e+000
      vertex   -7.998507e+001 1.693575e+002 0.000000e+000
      vertex   -7.498507e+001 1.743575e+002 0.000000e+000
    endloop
  endfacet
  facet normal -0.000000e+000 0.000000e+000 -7.071068e-001
    outer loop
      vertex   -7.498507e+001 1.743575e+002 0.000000e+000
      vertex   -7.998507e+001 1.693575e+002 0.000000e+000
      vertex   -7.998507e+001 1.743575e+002 0.000000e+000
    endloop
  endfacet
  facet normal 0.000000e+000 -1.000000e+000 0.000000e+000
    outer loop
      vertex   -7.998507e+001 1.693575e+002 5.000000e+001
      vertex   -7.998507e+001 1.693575e+002 0.000000e+000
      vertex   -7.498507e+001 1.693575e+002 5.000000e+001
    endloop
  endfacet
  facet normal 0.000000e+000 -9.950372e-002 -0.000000e+000
    outer loop
      vertex   -7.498507e+001 1.693575e+002 5.000000e+001
      vertex   -7.998507e+001 1.693575e+002 0.000000e+000
      vertex   -7.498507e+001 1.693575e+002 0.000000e+000
    endloop
  endfacet
  facet normal -1.000000e+000 -0.000000e+000 -0.000000e+000
    outer loop
      vertex   -7.998507e+001 1.743575e+002 5.000000e+001
      vertex   -7.998507e+001 1.743575e+002 0.000000e+000
      vertex   -7.998507e+001 1.693575e+002 5.000000e+001
    endloop
  endfacet
  facet normal -9.950372e-002 0.000000e+000 0.000000e+000
    outer loop
      vertex   -7.998507e+001 1.693575e+002 5.000000e+001
      vertex   -7.998507e+001 1.743575e+002 0.000000e+000
      vertex   -7.998507e+001 1.693575e+002 0.000000e+000
    endloop
  endfacet
  facet normal 0.000000e+000 1.000000e+000 0.000000e+000
    outer loop
      vertex   -7.498507e+001 1.743575e+002 5.000000e+001
      vertex   -7.498507e+001 1.743575e+002 0.000000e+000
      vertex   -7.998507e+001 1.743575e+002 5.000000e+001
    endloop
  endfacet
  facet normal 0.000000e+000 9.950372e-002 0.000000e+000
    outer loop
      vertex   -7.998507e+001 1.743575e+002 5.000000e+001
      vertex   -7.498507e+001 1.743575e+002 0.000000e+000
      vertex   -7.998507e+001 1.743575e+002 0.000000e+000
    endloop
  endfacet
  facet normal 1.000000e+000 -0.000000e+000 0.000000e+000
    outer loop
      vertex   -7.498507e+001 1.693575e+002 5.000000e+001
      vertex   -7.498507e+001 1.693575e+002 0.000000e+000
      vertex   -7.498507e+001 1.743575e+002 5.000000e+001
    endloop
  endfacet
  facet normal 9.950372e-002 0.000000e+000 0.000000e+000
    outer loop
      vertex   -7.498507e+001 1.743575e+002 5.000000e+001
      vertex   -7.498507e+001 1.693575e+002 0.000000e+000
      vertex   -7.498507e+001 1.743575e+002 0.000000e+000
    endloop
  endfacet
endsolid
solid ascii
  facet normal 0.000000e+000 0.000000e+000 1.000000e+000
    outer loop
      vertex   -1.187428e+002 1.749081e+002 5.000000e+001
      vertex   -1.237428e+002 1.749081e+002 5.000000e+001
      vertex   -1.187428e+002 1.699081e+002 5.000000e+001
    endloop
  endfacet
  facet normal 0.000000e+000 0.000000e+000 7.071068e-001
    outer loop
      vertex   -1.187428e+002 1.699081e+002 5.000000e+001
      vertex   -1.237428e+002 1.749081e+002 5.000000e+001
      vertex   -1.237428e+002 1.699081e+002 5.000000e+001
    endloop
  endfacet
  facet normal 0.000000e+000 0.000000e+000 -1.000000e+000
    outer loop
      vertex   -1.187428e+002 1.699081e+002 0.000000e+000
      vertex   -1.237428e+002 1.699081e+002 0.000000e+000
      vertex   -1.187428e+002 1.749081e+002 0.000000e+000
    endloop
  endfacet
  facet normal -0.000000e+000 0.000000e+000 -7.071068e-001
    outer loop
      vertex   -1.187428e+002 1.749081e+002 0.000000e+000
      vertex   -1.237428e+002 1.699081e+002 0.000000e+000
      vertex   -1.237428e+002 1.749081e+002 0.000000e+000
    endloop
  endfacet
  facet normal 0.000000e+000 -1.000000e+000 0.000000e+000
    outer loop
      vertex   -1.237428e+002 1.699081e+002 5.000000e+001
      vertex   -1.237428e+002 1.699081e+002 0.000000e+000
      vertex   -1.187428e+002 1.699081e+002 5.000000e+001
    endloop
  endfacet
  facet normal 0.000000e+000 -9.950372e-002 -0.000000e+000
    outer loop
      vertex   -1.187428e+002 1.699081e+002 5.000000e+001
      vertex   -1.237428e+002 1.699081e+002 0.000000e+000
      vertex   -1.187428e+002 1.699081e+002 0.000000e+000
    endloop
  endfacet
  facet normal -1.000000e+000 -0.000000e+000 -0.000000e+000
    outer loop
      vertex   -1.237428e+002 1.749081e+002 5.000000e+001
      vertex   -1.237428e+002 1.749081e+002 0.000000e+000
      vertex   -1.237428e+002 1.699081e+002 5.000000e+001
    endloop
  endfacet
  facet normal -9.950372e-002 0.000000e+000 0.000000e+000
    outer loop
      vertex   -1.237428e+002 1.699081e+002 5.000000e+001
      vertex   -1.237428e+002 1.749081e+002 0.000000e+000
      vertex   -1.237428e+002 1.699081e+002 0.000000e+000
    endloop
  endfacet
  facet normal 0.000000e+000 1.000000e+000 0.000000e+000
    outer loop
      vertex   -1.187428e+002 1.749081e+002 5.000000e+001
      vertex   -1.187428e+002 1.749081e+002 0.000000e+000
      vertex   -1.237428e+002 1.749081e+002 5.000000e+001
    endloop
  endfacet
  facet normal 0.000000e+000 9.950372e-002 0.000000e+000
    outer loop
      vertex   -1.237428e+002 1.749081e+002 5.000000e+001
      vertex   -1.187428e+002 1.749081e+002 0.000000e+000
      vertex   -1.237428e+002 1.749081e+002 0.000000e+000
    endloop
  endfacet
  facet normal 1.000000e+000 -0.000000e+000 0.000000e+000
    outer loop
      vertex   -1.187428e+002 1.699081e+002 5.000000e+001
      vertex   -1.187428e+002 1.699081e+002 0.000000e+000
      vertex   -1.187428e+002 1.749081e+002 5.000000e+001
    endloop
  endfacet
  facet normal 9.950372e-002 0.000000e+000 0.000000e+000
    outer loop
      vertex   -1.187428e+002 1.749081e+002 5.000000e+001
      vertex   -1.187428e+002 1.699081e+002 0.000000e+000
      vertex   -1.187428e+002 1.749081e+002 0.000000e+000
    endloop
  endfacet
endsolid
solid ascii
  facet normal 0.000000e+000 0.000000e+000 1.000000e+000
    outer loop
      vertex   -1.199611e+002 1.050582e+002 5.000000e+001
      vertex   -1.249611e+002 1.050582e+002 5.000000e+001
      vertex   -1.199611e+002 1.000582e+002 5.000000e+001
    endloop
  endfacet
  facet normal 0.000000e+000 0.000000e+000 7.071068e-001
    outer loop
      vertex   -1.199611e+002 1.000582e+002 5.000000e+001
      vertex   -1.249611e+002 1.050582e+002 5.000000e+001
      vertex   -1.249611e+002 1.000582e+002 5.000000e+001
    endloop
  endfacet
  facet normal 0.000000e+000 0.000000e+000 -1.000000e+000
    outer loop
      vertex   -1.199611e+002 1.000582e+002 0.000000e+000
      vertex   -1.249611e+002 1.000582e+002 0.000000e+000
      vertex   -1.199611e+002 1.050582e+002 0.000000e+000
    endloop
  endfacet
  facet normal -0.000000e+000 0.000000e+000 -7.071068e-001
    outer loop
      vertex   -1.199611e+002 1.050582e+002 0.000000e+000
      vertex   -1.249611e+002 1.000582e+002 0.000000e+000
      vertex   -1.249611e+002 1.050582e+002 0.000000e+000
    endloop
  endfacet
  facet normal 0.000000e+000 -1.000000e+000 0.000000e+000
    outer loop
      vertex   -1.249611e+002 1.000582e+002 5.000000e+001
      vertex   -1.249611e+002 1.000582e+002 0.000000e+000
      vertex   -1.199611e+002 1.000582e+002 5.000000e+001
    endloop
  endfacet
  facet normal 0.000000e+000 -9.950372e-002 -0.000000e+000
    outer loop
      vertex   -1.199611e+002 1.000582e+002 5.000000e+001
      vertex   -1.249611e+002 1.000582e+002 0.000000e+000
      vertex   -1.199611e+002 1.000582e+002 0.000000e+000
    endloop
  endfacet
  facet normal -1.000000e+000 -0.000000e+000 -0.000000e+000
    outer loop
      vertex   -1.249611e+002 1.050582e+002 5.000000e+001
      vertex   -1.249611e+002 1.050582e+002 0.000000e+000
      vertex   -1.249611e+002 1.000582e+002 5.000000e+001
    endloop
  endfacet
  facet normal -9.950372e-002 0.000000e+000 0.000000e+000
    outer loop
      vertex   -1.249611e+002 1.000582e+002 5.000000e+001
      vertex   -1.249611e+002 1.050582e+002 0.000000e+000
      vertex   -1.249611e+002 1.000582e+002 0.000000e+000
    endloop
  endfacet
  facet normal 0.000000e+000 1.000000e+000 0.000000e+000
    outer loop
      vertex   -1.199611e+002 1.050582e+002 5.000000e+001
      vertex   -1.199611e+002 1.050582e+002 0.000000e+000
      vertex   -1.249611e+002 1.050582e+002 5.000000e+001
    endloop
  endfacet
  facet normal 0.000000e+000 9.950372e-002 0.000000e+000
    outer loop
      vertex   -1.249611e+002 1.050582e+002 5.000000e+001
      vertex   -1.199611e+002 1.050582e+002 0.000000e+000
      vertex   -1.249611e+002 1.050582e+002 0.000000e+000
    endloop
  endfacet
  facet normal 1.000000e+000 -0.000000e+000 0.000000e+000
    outer loop
      vertex   -1.199611e+002 1.000582e+002 5.000000e+001
      vertex   -1.199611e+002 1.000582e+002 0.000000e+000
      vertex   -1.199611e+002 1.050582e+002 5.000000e+001
    endloop
  endfacet
  facet normal 9.950372e-002 0.000000e+000 0.000000e+000
    outer loop
      vertex   -1.199611e+002 1.050582e+002 5.000000e+001
      vertex   -1.199611e+002 1.000582e+002 0.000000e+000
      vertex   -1.199611e+002 1.050582e+002 0.000000e+000
    endloop
  endfacet
endsolid
solid ascii
  facet normal 0.000000e+000 0.000000e+000 1.000000e+000
    outer loop
      vertex   -1.249421e+002 9.951915e+001 5.500000e+001
      vertex   -7.494215e+001 9.951915e+001 5.500000e+001
      vertex   -1.249421e+002 1.370191e+002 5.500000e+001
    endloop
  endfacet
  facet normal -0.000000e+000 0.000000e+000 6.000000e-001
    outer loop
      vertex   -1.249421e+002 1.370191e+002 5.500000e+001
      vertex   -7.494215e+001 9.951915e+001 5.500000e+001
      vertex   -7.494215e+001 1.370191e+002 5.500000e+001
    endloop
  endfacet
  facet normal 0.000000e+000 0.000000e+000 1.000000e+000
    outer loop
      vertex   -1.249421e+002 1.370191e+002 5.500000e+001
      vertex   -7.494215e+001 1.370191e+002 5.500000e+001
      vertex   -1.249421e+002 1.745191e+002 5.500000e+001
    endloop
  endfacet
  facet normal -0.000000e+000 0.000000e+000 6.000000e-001
    outer loop
      vertex   -1.249421e+002 1.745191e+002 5.500000e+001
      vertex   -7.494215e+001 1.370191e+002 5.500000e+001
      vertex   -7.494215e+001 1.745191e+002 5.500000e+001
    endloop
  endfacet
  facet normal 0.000000e+000 0.000000e+000 -1.000000e+000
    outer loop
      vertex   -1.249421e+002 1.745191e+002 5.000000e+001
      vertex   -7.494215e+001 1.745191e+002 5.000000e+001
      vertex   -1.249421e+002 1.370191e+002 5.000000e+001
    endloop
  endfacet
  facet normal 0.000000e+000 0.000000e+000 -6.000000e-001
    outer loop
      vertex   -1.249421e+002 1.370191e+002 5.000000e+001
      vertex   -7.494215e+001 1.745191e+002 5.000000e+001
      vertex   -7.494215e+001 1.370191e+002 5.000000e+001
    endloop
  endfacet
  facet normal 0.000000e+000 0.000000e+000 -1.000000e+000
    outer loop
      vertex   -1.249421e+002 1.370191e+002 5.000000e+001
      vertex   -7.494215e+001 1.370191e+002 5.000000e+001
      vertex   -1.249421e+002 9.951915e+001 5.000000e+001
    endloop
  endfacet
  facet normal 0.000000e+000 0.000000e+000 -6.000000e-001
    outer loop
      vertex   -1.249421e+002 9.951915e+001 5.000000e+001
      vertex   -7.494215e+001 1.370191e+002 5.000000e+001
      vertex   -7.494215e+001 9.951915e+001 5.000000e+001
    endloop
  endfacet
  facet normal 0.000000e+000 -1.000000e+000 0.000000e+000
    outer loop
      vertex   -1.249421e+002 9.951915e+001 5.500000e+001
      vertex   -1.249421e+002 9.951915e+001 5.000000e+001
      vertex   -7.494215e+001 9.951915e+001 5.500000e+001
    endloop
  endfacet
  facet normal 0.000000e+000 -9.950372e-001 -0.000000e+000
    outer loop
      vertex   -7.494215e+001 9.951915e+001 5.500000e+001
      vertex   -1.249421e+002 9.951915e+001 5.000000e+001
      vertex   -7.494215e+001 9.951915e+001 5.000000e+001
    endloop
  endfacet
  facet normal -1.000000e+000 -0.000000e+000 -0.000000e+000
    outer loop
      vertex   -1.249421e+002 1.745191e+002 5.500000e+001
      vertex   -1.249421e+002 1.745191e+002 5.000000e+001
      vertex   -1.249421e+002 1.370191e+002 5.500000e+001
    endloop
  endfacet
  facet normal -9.912279e-001 0.000000e+000 0.000000e+000
    outer loop
      vertex   -1.249421e+002 1.370191e+002 5.500000e+001
      vertex   -1.249421e+002 1.745191e+002 5.000000e+001
      vertex   -1.249421e+002 1.370191e+002 5.000000e+001
    endloop
  endfacet
  facet normal -1.000000e+000 -0.000000e+000 -0.000000e+000
    outer loop
      vertex   -1.249421e+002 1.370191e+002 5.500000e+001
      vertex   -1.249421e+002 1.370191e+002 5.000000e+001
      vertex   -1.249421e+002 9.951915e+001 5.500000e+001
    endloop
  endfacet
  facet normal -9.912279e-001 0.000000e+000 0.000000e+000
    outer loop
      vertex   -1.249421e+002 9.951915e+001 5.500000e+001
      vertex   -1.249421e+002 1.370191e+002 5.000000e+001
      vertex   -1.249421e+002 9.951915e+001 5.000000e+001
    endloop
  endfacet
  facet normal 0.000000e+000 1.000000e+000 0.000000e+000
    outer loop
      vertex   -7.494215e+001 1.745191e+002 5.500000e+001
      vertex   -7.494215e+001 1.745191e+002 5.000000e+001
      vertex   -1.249421e+002 1.745191e+002 5.500000e+001
    endloop
  endfacet
  facet normal 0.000000e+000 9.950372e-001 0.000000e+000
    outer loop
      vertex   -1.249421e+002 1.745191e+002 5.500000e+001
      vertex   -7.494215e+001 1.745191e+002 5.000000e+001
      vertex   -1.249421e+002 1.745191e+002 5.000000e+001
    endloop
  endfacet
  facet normal 1.000000e+000 -0.000000e+000 0.000000e+000
    outer loop
      vertex   -7.494215e+001 9.951915e+001 5.500000e+001
      vertex   -7.494215e+001 9.951915e+001 5.000000e+001
      vertex   -7.494215e+001 1.370191e+002 5.500000e+001
    endloop
  endfacet
  facet normal 9.912279e-001 0.000000e+000 0.000000e+000
    outer loop
      vertex   -7.494215e+001 1.370191e+002 5.500000e+001
      vertex   -7.494215e+001 9.951915e+001 5.000000e+001
      vertex   -7.494215e+001 1.370191e+002 5.000000e+001
    endloop
  endfacet
  facet normal 1.000000e+000 -0.000000e+000 0.000000e+000
    outer loop
      vertex   -7.494215e+001 1.370191e+002 5.500000e+001
      vertex   -7.494215e+001 1.370191e+002 5.000000e+001
      vertex   -7.494215e+001 1.745191e+002 5.500000e+001
    endloop
  endfacet
  facet normal 9.912279e-001 0.000000e+000 0.000000e+000
    outer loop
      vertex   -7.494215e+001 1.745191e+002 5.500000e+001
      vertex   -7.494215e+001 1.370191e+002 5.000000e+001
      vertex   -7.494215e+001 1.745191e+002 5.000000e+001
    endloop
  endfacet
endsolid
