  0
SECTION
  2
HEADER
  9
$ACADVER
  1
AC1021
  9
$ACADMAINTVER
 70
    25
  9
$DWGCODEPAGE
  3
ANSI_936
  9
$INSBASE
 10
0.0
 20
0.0
 30
0.0
  9
$EXTMIN
 10
-90.7576
 20
-109.8532
 30
0.0
  9
$EXTMAX
 10
100.1815
 20
137.8276
 30
0.0
  9
$LIMMIN
 10
0.0
 20
0.0
  9
$LIMMAX
 10
12.0
 20
9.0
  9
$ORTHOMODE
 70
     0
  9
$REGENMODE
 70
     1
  9
$FILLMODE
 70
     1
  9
$QTEXTMODE
 70
     0
  9
$MIRRTEXT
 70
     1
  9
$LTSCALE
 40
1.0
  9
$ATTMODE
 70
     1
  9
$TEXTSIZE
 40
0.2
  9
$TRACEWID
 40
0.05
  9
$TEXTSTYLE
  7
Standard
  9
$CLAYER
  8
0
  9
$CELTYPE
  6
ByLayer
  9
$CECOLOR
 62
   256
  9
$CELTSCALE
 40
1.0
  9
$DISPSILH
 70
     0
  9
$DIMSCALE
 40
1.0
  9
$DIMASZ
 40
0.18
  9
$DIMEXO
 40
0.0625
  9
$DIMDLI
 40
0.38
  9
$DIMRND
 40
0.0
  9
$DIMDLE
 40
0.0
  9
$DIMEXE
 40
0.18
  9
$DIMTP
 40
0.0
  9
$DIMTM
 40
0.0
  9
$DIMTXT
 40
0.18
  9
$DIMCEN
 40
0.09
  9
$DIMTSZ
 40
0.0
  9
$DIMTOL
 70
     0
  9
$DIMLIM
 70
     0
  9
$DIMTIH
 70
     1
  9
$DIMTOH
 70
     1
  9
$DIMSE1
 70
     0
  9
$DIMSE2
 70
     0
  9
$DIMTAD
 70
     0
  9
$DIMZIN
 70
     0
  9
$DIMBLK
  1

  9
$DIMASO
 70
     1
  9
$DIMSHO
 70
     1
  9
$DIMPOST
  1

  9
$DIMAPOST
  1

  9
$DIMALT
 70
     0
  9
$DIMALTD
 70
     2
  9
$DIMALTF
 40
25.4
  9
$DIMLFAC
 40
1.0
  9
$DIMTOFL
 70
     0
  9
$DIMTVP
 40
0.0
  9
$DIMTIX
 70
     0
  9
$DIMSOXD
 70
     0
  9
$DIMSAH
 70
     0
  9
$DIMBLK1
  1

  9
$DIMBLK2
  1

  9
$DIMSTYLE
  2
Standard
  9
$DIMCLRD
 70
     0
  9
$DIMCLRE
 70
     0
  9
$DIMCLRT
 70
     0
  9
$DIMTFAC
 40
1.0
  9
$DIMGAP
 40
0.09
  9
$DIMJUST
 70
     0
  9
$DIMSD1
 70
     0
  9
$DIMSD2
 70
     0
  9
$DIMTOLJ
 70
     1
  9
$DIMTZIN
 70
     0
  9
$DIMALTZ
 70
     0
  9
$DIMALTTZ
 70
     0
  9
$DIMUPT
 70
     0
  9
$DIMDEC
 70
     4
  9
$DIMTDEC
 70
     4
  9
$DIMALTU
 70
     2
  9
$DIMALTTD
 70
     2
  9
$DIMTXSTY
  7
Standard
  9
$DIMAUNIT
 70
     0
  9
$DIMADEC
 70
     0
  9
$DIMALTRND
 40
0.0
  9
$DIMAZIN
 70
     0
  9
$DIMDSEP
 70
    46
  9
$DIMATFIT
 70
     3
  9
$DIMFRAC
 70
     0
  9
$DIMLDRBLK
  1

  9
$DIMLUNIT
 70
     2
  9
$DIMLWD
 70
    -2
  9
$DIMLWE
 70
    -2
  9
$DIMTMOVE
 70
     0
  9
$DIMFXL
 40
1.0
  9
$DIMFXLON
 70
     0
  9
$DIMJOGANG
 40
0.7853981633974483
  9
$DIMTFILL
 70
     0
  9
$DIMTFILLCLR
 70
     0
  9
$DIMARCSYM
 70
     0
  9
$DIMLTYPE
  6

  9
$DIMLTEX1
  6

  9
$DIMLTEX2
  6

  9
$LUNITS
 70
     2
  9
$LUPREC
 70
     4
  9
$SKETCHINC
 40
0.1
  9
$FILLETRAD
 40
0.5
  9
$AUNITS
 70
     0
  9
$AUPREC
 70
     0
  9
$MENU
  1
.
  9
$ELEVATION
 40
0.0
  9
$PELEVATION
 40
0.0
  9
$THICKNESS
 40
0.0
  9
$LIMCHECK
 70
     0
  9
$CHAMFERA
 40
0.5
  9
$CHAMFERB
 40
0.5
  9
$CHAMFERC
 40
1.0
  9
$CHAMFERD
 40
0.0
  9
$SKPOLY
 70
     0
  9
$TDCREATE
 40
2458220.789091192
  9
$TDUCREATE
 40
2458220.455757859
  9
$TDUPDATE
 40
2458220.789091204
  9
$TDUUPDATE
 40
2458220.45575787
  9
$TDINDWG
 40
0.0000000116
  9
$TDUSRTIMER
 40
0.0000000116
  9
$USRTIMER
 70
     1
  9
$ANGBASE
 50
0.0
  9
$ANGDIR
 70
     0
  9
$PDMODE
 70
     0
  9
$PDSIZE
 40
0.0
  9
$PLINEWID
 40
0.0
  9
$SPLFRAME
 70
     0
  9
$SPLINETYPE
 70
     6
  9
$SPLINESEGS
 70
     8
  9
$HANDSEED
  5
69
  9
$SURFTAB1
 70
     6
  9
$SURFTAB2
 70
     6
  9
$SURFTYPE
 70
     6
  9
$SURFU
 70
     6
  9
$SURFV
 70
     6
  9
$UCSBASE
  2

  9
$UCSNAME
  2

  9
$UCSORG
 10
0.0
 20
0.0
 30
0.0
  9
$UCSXDIR
 10
1.0
 20
0.0
 30
0.0
  9
$UCSYDIR
 10
0.0
 20
1.0
 30
0.0
  9
$UCSORTHOREF
  2

  9
$UCSORTHOVIEW
 70
     0
  9
$UCSORGTOP
 10
0.0
 20
0.0
 30
0.0
  9
$UCSORGBOTTOM
 10
0.0
 20
0.0
 30
0.0
  9
$UCSORGLEFT
 10
0.0
 20
0.0
 30
0.0
  9
$UCSORGRIGHT
 10
0.0
 20
0.0
 30
0.0
  9
$UCSORGFRONT
 10
0.0
 20
0.0
 30
0.0
  9
$UCSORGBACK
 10
0.0
 20
0.0
 30
0.0
  9
$PUCSBASE
  2

  9
$PUCSNAME
  2

  9
$PUCSORG
 10
0.0
 20
0.0
 30
0.0
  9
$PUCSXDIR
 10
1.0
 20
0.0
 30
0.0
  9
$PUCSYDIR
 10
0.0
 20
1.0
 30
0.0
  9
$PUCSORTHOREF
  2

  9
$PUCSORTHOVIEW
 70
     0
  9
$PUCSORGTOP
 10
0.0
 20
0.0
 30
0.0
  9
$PUCSORGBOTTOM
 10
0.0
 20
0.0
 30
0.0
  9
$PUCSORGLEFT
 10
0.0
 20
0.0
 30
0.0
  9
$PUCSORGRIGHT
 10
0.0
 20
0.0
 30
0.0
  9
$PUCSORGFRONT
 10
0.0
 20
0.0
 30
0.0
  9
$PUCSORGBACK
 10
0.0
 20
0.0
 30
0.0
  9
$USERI1
 70
     0
  9
$USERI2
 70
     0
  9
$USERI3
 70
     0
  9
$USERI4
 70
     0
  9
$USERI5
 70
     0
  9
$USERR1
 40
0.0
  9
$USERR2
 40
0.0
  9
$USERR3
 40
0.0
  9
$USERR4
 40
0.0
  9
$USERR5
 40
0.0
  9
$WORLDVIEW
 70
     1
  9
$SHADEDGE
 70
     3
  9
$SHADEDIF
 70
    70
  9
$TILEMODE
 70
     1
  9
$MAXACTVP
 70
    64
  9
$PINSBASE
 10
0.0
 20
0.0
 30
0.0
  9
$PLIMCHECK
 70
     0
  9
$PEXTMIN
 10
1.000000000000000E+20
 20
1.000000000000000E+20
 30
1.000000000000000E+20
  9
$PEXTMAX
 10
-1.000000000000000E+20
 20
-1.000000000000000E+20
 30
-1.000000000000000E+20
  9
$PLIMMIN
 10
0.0
 20
0.0
  9
$PLIMMAX
 10
12.0
 20
9.0
  9
$UNITMODE
 70
     0
  9
$VISRETAIN
 70
     1
  9
$PLINEGEN
 70
     0
  9
$PSLTSCALE
 70
     1
  9
$TREEDEPTH
 70
  3020
  9
$CMLSTYLE
  2
Standard
  9
$CMLJUST
 70
     0
  9
$CMLSCALE
 40
1.0
  9
$PROXYGRAPHICS
 70
     1
  9
$MEASUREMENT
 70
     0
  9
$CELWEIGHT
370
    -1
  9
$ENDCAPS
280
     0
  9
$JOINSTYLE
280
     0
  9
$LWDISPLAY
290
     0
  9
$INSUNITS
 70
     4
  9
$HYPERLINKBASE
  1

  9
$STYLESHEET
  1

  9
$XEDIT
290
     1
  9
$CEPSNTYPE
380
     0
  9
$PSTYLEMODE
290
     1
  9
$FINGERPRINTGUID
  2
{5F573C12-FE49-4904-B31D-CD84E3AD4F53}
  9
$VERSIONGUID
  2
{FAEB1C32-E019-11D5-929B-00C0DF256EC4}
  9
$EXTNAMES
290
     1
  9
$PSVPSCALE
 40
0.0
  9
$OLESTARTUP
290
     0
  9
$SORTENTS
280
   127
  9
$INDEXCTL
280
     0
  9
$HIDETEXT
280
     1
  9
$XCLIPFRAME
290
     0
  9
$HALOGAP
280
     0
  9
$OBSCOLOR
 70
   257
  9
$OBSLTYPE
280
     0
  9
$INTERSECTIONDISPLAY
280
     0
  9
$INTERSECTIONCOLOR
 70
   257
  9
$DIMASSOC
280
     2
  9
$PROJECTNAME
  1

  9
$CAMERADISPLAY
290
     0
  9
$LENSLENGTH
 40
50.0
  9
$CAMERAHEIGHT
 40
0.0
  9
$STEPSPERSEC
 40
2.0
  9
$STEPSIZE
 40
6.0
  9
$3DDWFPREC
 40
2.0
  9
$PSOLWIDTH
 40
0.25
  9
$PSOLHEIGHT
 40
4.0
  9
$LOFTANG1
 40
1.570796326794897
  9
$LOFTANG2
 40
1.570796326794897
  9
$LOFTMAG1
 40
0.0
  9
$LOFTMAG2
 40
0.0
  9
$LOFTPARAM
 70
     7
  9
$LOFTNORMALS
280
     1
  9
$LATITUDE
 40
37.795
  9
$LONGITUDE
 40
-122.394
  9
$NORTHDIRECTION
 40
0.0
  9
$TIMEZONE
 70
 -8000
  9
$LIGHTGLYPHDISPLAY
280
     1
  9
$TILEMODELIGHTSYNCH
280
     1
  9
$SOLIDHIST
280
     1
  9
$SHOWHIST
280
     1
  9
$DWFFRAME
280
     2
  9
$DGNFRAME
280
     2
  9
$REALWORLDSCALE
290
     1
  9
$INTERFERECOLOR
 62
   256
  9
$CSHADOW
280
     0
  9
$SHADOWPLANELOCATION
 40
0.0
  0
ENDSEC
  0
SECTION
  2
CLASSES
  0
CLASS
  1
ACDBDICTIONARYWDFLT
  2
AcDbDictionaryWithDefault
  3
ObjectDBX Classes
 90
        0
 91
        3
280
     0
281
     0
  0
CLASS
  1
VISUALSTYLE
  2
AcDbVisualStyle
  3
ObjectDBX Classes
 90
     4095
 91
        3
280
     0
281
     0
  0
CLASS
  1
SCALE
  2
AcDbScale
  3
ObjectDBX Classes
 90
     1153
 91
        3
280
     0
281
     0
  0
ENDSEC
  0
SECTION
  2
TABLES
  0
TABLE
  2
VPORT
  5
8
330
0
100
AcDbSymbolTable
 70
     1
  0
VPORT
  5
29
330
8
100
AcDbSymbolTableRecord
100
AcDbViewportTableRecord
  2
*Active
 70
     0
 10
0.0
 20
0.0
 11
1.0
 21
1.0
 12
10.42990654205607
 22
4.5
 13
0.0
 23
0.0
 14
0.5
 24
0.5
 15
0.5
 25
0.5
 16
0.0
 26
0.0
 36
1.0
 17
0.0
 27
0.0
 37
0.0
 40
9.0
 41
1.972972972850329
 42
50.0
 43
0.0
 44
0.0
 50
0.0
 51
0.0
 71
     0
 72
   100
 73
     1
 74
     3
 75
     0
 76
     0
 77
     0
 78
     0
281
     0
 65
     1
110
0.0
120
0.0
130
0.0
111
1.0
121
0.0
131
0.0
112
0.0
122
1.0
132
0.0
 79
     0
146
0.0
 60
     3
 61
     5
292
     1
282
     1
141
0.0
142
0.0
 63
   256
  0
ENDTAB
  0
TABLE
  2
LTYPE
  5
5
330
0
100
AcDbSymbolTable
 70
     1
  0
LTYPE
  5
14
330
5
100
AcDbSymbolTableRecord
100
AcDbLinetypeTableRecord
  2
ByBlock
 70
     0
  3

 72
    65
 73
     0
 40
0.0
  0
LTYPE
  5
15
330
5
100
AcDbSymbolTableRecord
100
AcDbLinetypeTableRecord
  2
ByLayer
 70
     0
  3

 72
    65
 73
     0
 40
0.0
  0
LTYPE
  5
16
330
5
100
AcDbSymbolTableRecord
100
AcDbLinetypeTableRecord
  2
Continuous
 70
     0
  3
Solid line
 72
    65
 73
     0
 40
0.0
  0
ENDTAB
  0
TABLE
  2
LAYER
  5
2
330
0
100
AcDbSymbolTable
 70
     2
  0
LAYER
  5
10
330
2
100
AcDbSymbolTableRecord
100
AcDbLayerTableRecord
  2
0
 70
     0
 62
     7
  6
Continuous
370
    -3
390
F
347
0
  0
LAYER
  5
5E
330
2
100
AcDbSymbolTableRecord
100
AcDbLayerTableRecord
  2
layer 1
 70
     0
 62
     7
  6
Continuous
370
    -3
390
F
347
0
  0
ENDTAB
  0
TABLE
  2
STYLE
  5
3
330
0
100
AcDbSymbolTable
 70
     1
  0
STYLE
  5
11
330
3
100
AcDbSymbolTableRecord
100
AcDbTextStyleTableRecord
  2
Standard
 70
     0
 40
0.0
 41
1.0
 50
0.0
 71
     0
 42
0.2
  3
txt
  4

  0
ENDTAB
  0
TABLE
  2
VIEW
  5
6
330
0
100
AcDbSymbolTable
 70
     0
  0
ENDTAB
  0
TABLE
  2
UCS
  5
7
330
0
100
AcDbSymbolTable
 70
     0
  0
ENDTAB
  0
TABLE
  2
APPID
  5
9
330
0
100
AcDbSymbolTable
 70
     2
  0
APPID
  5
12
330
9
100
AcDbSymbolTableRecord
100
AcDbRegAppTableRecord
  2
ACAD
 70
     0
  0
APPID
  5
5D
330
9
100
AcDbSymbolTableRecord
100
AcDbRegAppTableRecord
  2
ODA
 70
     0
  0
ENDTAB
  0
TABLE
  2
DIMSTYLE
  5
A
330
0
100
AcDbSymbolTable
 70
     1
100
AcDbDimStyleTable
  0
DIMSTYLE
105
27
330
A
100
AcDbSymbolTableRecord
100
AcDbDimStyleTableRecord
  2
Standard
 70
     0
340
11
  0
ENDTAB
  0
TABLE
  2
BLOCK_RECORD
  5
1
330
0
100
AcDbSymbolTable
 70
     1
  0
BLOCK_RECORD
  5
1F
330
1
100
AcDbSymbolTableRecord
100
AcDbBlockTableRecord
  2
*Model_Space
340
22
 70
     0
280
     1
281
     0
  0
BLOCK_RECORD
  5
1B
330
1
100
AcDbSymbolTableRecord
100
AcDbBlockTableRecord
  2
*Paper_Space
340
1E
 70
     0
280
     1
281
     0
  0
BLOCK_RECORD
  5
23
330
1
100
AcDbSymbolTableRecord
100
AcDbBlockTableRecord
  2
*Paper_Space0
340
26
 70
     0
280
     1
281
     0
  0
ENDTAB
  0
ENDSEC
  0
SECTION
  2
BLOCKS
  0
BLOCK
  5
20
330
1F
100
AcDbEntity
  8
0
100
AcDbBlockBegin
  2
*Model_Space
 70
     0
 10
0.0
 20
0.0
 30
0.0
  3
*Model_Space
  1

  0
ENDBLK
  5
21
330
1F
100
AcDbEntity
  8
0
100
AcDbBlockEnd
  0
BLOCK
  5
1C
330
1B
100
AcDbEntity
 67
     1
  8
0
100
AcDbBlockBegin
  2
*Paper_Space
 70
     0
 10
0.0
 20
0.0
 30
0.0
  3
*Paper_Space
  1

  0
ENDBLK
  5
1D
330
1B
100
AcDbEntity
 67
     1
  8
0
100
AcDbBlockEnd
  0
BLOCK
  5
24
330
23
100
AcDbEntity
  8
0
100
AcDbBlockBegin
  2
*Paper_Space0
 70
     0
 10
0.0
 20
0.0
 30
0.0
  3
*Paper_Space0
  1

  0
ENDBLK
  5
25
330
23
100
AcDbEntity
  8
0
100
AcDbBlockEnd
  0
ENDSEC
  0
SECTION
  2
ENTITIES
  0
SPLINE
  5
5F
330
1F
100
AcDbEntity
  8
layer 1
370
    25
100
AcDbSpline
210
0.0
220
0.0
230
1.0
 70
    11
 71
     3
 72
   340
 73
   336
 74
     0
 42
0.0000000001
 43
0.0000000001
 40
0.0
 40
0.0
 40
0.0
 40
0.0
 40
0.0119047619047619
 40
0.0119047619047619
 40
0.0119047619047619
 40
0.0119047619047619
 40
0.0238095238095238
 40
0.0238095238095238
 40
0.0238095238095238
 40
0.0238095238095238
 40
0.0357142857142857
 40
0.0357142857142857
 40
0.0357142857142857
 40
0.0357142857142857
 40
0.0476190476190476
 40
0.0476190476190476
 40
0.0476190476190476
 40
0.0476190476190476
 40
0.0595238095238095
 40
0.0595238095238095
 40
0.0595238095238095
 40
0.0595238095238095
 40
0.0714285714285714
 40
0.0714285714285714
 40
0.0714285714285714
 40
0.0714285714285714
 40
0.0833333333333333
 40
0.0833333333333333
 40
0.0833333333333333
 40
0.0833333333333333
 40
0.0952380952380952
 40
0.0952380952380952
 40
0.0952380952380952
 40
0.0952380952380952
 40
0.1071428571428571
 40
0.1071428571428571
 40
0.1071428571428571
 40
0.1071428571428571
 40
0.119047619047619
 40
0.119047619047619
 40
0.119047619047619
 40
0.119047619047619
 40
0.1309523809523809
 40
0.1309523809523809
 40
0.1309523809523809
 40
0.1309523809523809
 40
0.1428571428571428
 40
0.1428571428571428
 40
0.1428571428571428
 40
0.1428571428571428
 40
0.1547619047619048
 40
0.1547619047619048
 40
0.1547619047619048
 40
0.1547619047619048
 40
0.1666666666666667
 40
0.1666666666666667
 40
0.1666666666666667
 40
0.1666666666666667
 40
0.1785714285714286
 40
0.1785714285714286
 40
0.1785714285714286
 40
0.1785714285714286
 40
0.1904761904761905
 40
0.1904761904761905
 40
0.1904761904761905
 40
0.1904761904761905
 40
0.2023809523809524
 40
0.2023809523809524
 40
0.2023809523809524
 40
0.2023809523809524
 40
0.2142857142857144
 40
0.2142857142857144
 40
0.2142857142857144
 40
0.2142857142857144
 40
0.2261904761904763
 40
0.2261904761904763
 40
0.2261904761904763
 40
0.2261904761904763
 40
0.2380952380952382
 40
0.2380952380952382
 40
0.2380952380952382
 40
0.2380952380952382
 40
0.2500000000000001
 40
0.2500000000000001
 40
0.2500000000000001
 40
0.2500000000000001
 40
0.261904761904762
 40
0.261904761904762
 40
0.261904761904762
 40
0.261904761904762
 40
0.2738095238095239
 40
0.2738095238095239
 40
0.2738095238095239
 40
0.2738095238095239
 40
0.2857142857142859
 40
0.2857142857142859
 40
0.2857142857142859
 40
0.2857142857142859
 40
0.2976190476190478
 40
0.2976190476190478
 40
0.2976190476190478
 40
0.2976190476190478
 40
0.3095238095238097
 40
0.3095238095238097
 40
0.3095238095238097
 40
0.3095238095238097
 40
0.3214285714285716
 40
0.3214285714285716
 40
0.3214285714285716
 40
0.3214285714285716
 40
0.3333333333333335
 40
0.3333333333333335
 40
0.3333333333333335
 40
0.3333333333333335
 40
0.3452380952380955
 40
0.3452380952380955
 40
0.3452380952380955
 40
0.3452380952380955
 40
0.3571428571428574
 40
0.3571428571428574
 40
0.3571428571428574
 40
0.3571428571428574
 40
0.3690476190476193
 40
0.3690476190476193
 40
0.3690476190476193
 40
0.3690476190476193
 40
0.3809523809523812
 40
0.3809523809523812
 40
0.3809523809523812
 40
0.3809523809523812
 40
0.3928571428571431
 40
0.3928571428571431
 40
0.3928571428571431
 40
0.3928571428571431
 40
0.404761904761905
 40
0.404761904761905
 40
0.404761904761905
 40
0.404761904761905
 40
0.416666666666667
 40
0.416666666666667
 40
0.416666666666667
 40
0.416666666666667
 40
0.4285714285714289
 40
0.4285714285714289
 40
0.4285714285714289
 40
0.4285714285714289
 40
0.4404761904761908
 40
0.4404761904761908
 40
0.4404761904761908
 40
0.4404761904761908
 40
0.4523809523809527
 40
0.4523809523809527
 40
0.4523809523809527
 40
0.4523809523809527
 40
0.4642857142857146
 40
0.4642857142857146
 40
0.4642857142857146
 40
0.4642857142857146
 40
0.4761904761904766
 40
0.4761904761904766
 40
0.4761904761904766
 40
0.4761904761904766
 40
0.4880952380952385
 40
0.4880952380952385
 40
0.4880952380952385
 40
0.4880952380952385
 40
0.5000000000000003
 40
0.5000000000000003
 40
0.5000000000000003
 40
0.5000000000000003
 40
0.5119047619047622
 40
0.5119047619047622
 40
0.5119047619047622
 40
0.5119047619047622
 40
0.5238095238095241
 40
0.5238095238095241
 40
0.5238095238095241
 40
0.5238095238095241
 40
0.5357142857142859
 40
0.5357142857142859
 40
0.5357142857142859
 40
0.5357142857142859
 40
0.5476190476190478
 40
0.5476190476190478
 40
0.5476190476190478
 40
0.5476190476190478
 40
0.5595238095238096
 40
0.5595238095238096
 40
0.5595238095238096
 40
0.5595238095238096
 40
0.5714285714285715
 40
0.5714285714285715
 40
0.5714285714285715
 40
0.5714285714285715
 40
0.5833333333333334
 40
0.5833333333333334
 40
0.5833333333333334
 40
0.5833333333333334
 40
0.5952380952380952
 40
0.5952380952380952
 40
0.5952380952380952
 40
0.5952380952380952
 40
0.6071428571428571
 40
0.6071428571428571
 40
0.6071428571428571
 40
0.6071428571428571
 40
0.619047619047619
 40
0.619047619047619
 40
0.619047619047619
 40
0.619047619047619
 40
0.6309523809523808
 40
0.6309523809523808
 40
0.6309523809523808
 40
0.6309523809523808
 40
0.6428571428571427
 40
0.6428571428571427
 40
0.6428571428571427
 40
0.6428571428571427
 40
0.6547619047619045
 40
0.6547619047619045
 40
0.6547619047619045
 40
0.6547619047619045
 40
0.6666666666666664
 40
0.6666666666666664
 40
0.6666666666666664
 40
0.6666666666666664
 40
0.6785714285714283
 40
0.6785714285714283
 40
0.6785714285714283
 40
0.6785714285714283
 40
0.6904761904761901
 40
0.6904761904761901
 40
0.6904761904761901
 40
0.6904761904761901
 40
0.702380952380952
 40
0.702380952380952
 40
0.702380952380952
 40
0.702380952380952
 40
0.7142857142857139
 40
0.7142857142857139
 40
0.7142857142857139
 40
0.7142857142857139
 40
0.7261904761904757
 40
0.7261904761904757
 40
0.7261904761904757
 40
0.7261904761904757
 40
0.7380952380952376
 40
0.7380952380952376
 40
0.7380952380952376
 40
0.7380952380952376
 40
0.7499999999999994
 40
0.7499999999999994
 40
0.7499999999999994
 40
0.7499999999999994
 40
0.7619047619047613
 40
0.7619047619047613
 40
0.7619047619047613
 40
0.7619047619047613
 40
0.7738095238095232
 40
0.7738095238095232
 40
0.7738095238095232
 40
0.7738095238095232
 40
0.785714285714285
 40
0.785714285714285
 40
0.785714285714285
 40
0.785714285714285
 40
0.7976190476190469
 40
0.7976190476190469
 40
0.7976190476190469
 40
0.7976190476190469
 40
0.8095238095238088
 40
0.8095238095238088
 40
0.8095238095238088
 40
0.8095238095238088
 40
0.8214285714285706
 40
0.8214285714285706
 40
0.8214285714285706
 40
0.8214285714285706
 40
0.8333333333333325
 40
0.8333333333333325
 40
0.8333333333333325
 40
0.8333333333333325
 40
0.8452380952380943
 40
0.8452380952380943
 40
0.8452380952380943
 40
0.8452380952380943
 40
0.8571428571428562
 40
0.8571428571428562
 40
0.8571428571428562
 40
0.8571428571428562
 40
0.8690476190476181
 40
0.8690476190476181
 40
0.8690476190476181
 40
0.8690476190476181
 40
0.8809523809523799
 40
0.8809523809523799
 40
0.8809523809523799
 40
0.8809523809523799
 40
0.8928571428571418
 40
0.8928571428571418
 40
0.8928571428571418
 40
0.8928571428571418
 40
0.9047619047619037
 40
0.9047619047619037
 40
0.9047619047619037
 40
0.9047619047619037
 40
0.9166666666666655
 40
0.9166666666666655
 40
0.9166666666666655
 40
0.9166666666666655
 40
0.9285714285714274
 40
0.9285714285714274
 40
0.9285714285714274
 40
0.9285714285714274
 40
0.9404761904761892
 40
0.9404761904761892
 40
0.9404761904761892
 40
0.9404761904761892
 40
0.9523809523809511
 40
0.9523809523809511
 40
0.9523809523809511
 40
0.9523809523809511
 40
0.964285714285713
 40
0.964285714285713
 40
0.964285714285713
 40
0.964285714285713
 40
0.9761904761904748
 40
0.9761904761904748
 40
0.9761904761904748
 40
0.9761904761904748
 40
0.9880952380952367
 40
0.9880952380952367
 40
0.9880952380952367
 40
0.9880952380952367
 40
1.0
 40
1.0
 40
1.0
 40
1.0
 10
-90.6306
 20
136.9388
 30
0.0
 10
-90.6306
 20
136.9388
 30
0.0
 10
-84.8806
 20
136.9388
 30
0.0
 10
-84.8806
 20
136.9388
 30
0.0
 10
-84.8806
 20
136.9388
 30
0.0
 10
-84.8806
 20
136.9388
 30
0.0
 10
-84.8806
 20
134.9388
 30
0.0
 10
-84.8806
 20
134.9388
 30
0.0
 10
-84.8806
 20
134.9388
 30
0.0
 10
-84.8806
 20
134.9388
 30
0.0
 10
-79.1306
 20
134.9388
 30
0.0
 10
-79.1306
 20
134.9388
 30
0.0
 10
-79.1306
 20
134.9388
 30
0.0
 10
-79.1306
 20
134.9388
 30
0.0
 10
-79.1306
 20
136.9388
 30
0.0
 10
-79.1306
 20
136.9388
 30
0.0
 10
-79.1306
 20
136.9388
 30
0.0
 10
-79.1306
 20
136.9388
 30
0.0
 10
-75.1306
 20
136.9388
 30
0.0
 10
-75.1306
 20
136.9388
 30
0.0
 10
-75.1306
 20
136.9388
 30
0.0
 10
-75.1306
 20
136.9388
 30
0.0
 10
-75.1306
 20
134.9388
 30
0.0
 10
-75.1306
 20
134.9388
 30
0.0
 10
-75.1306
 20
134.9388
 30
0.0
 10
-75.1306
 20
134.9388
 30
0.0
 10
-71.1306
 20
134.9388
 30
0.0
 10
-71.1306
 20
134.9388
 30
0.0
 10
-71.1306
 20
134.9388
 30
0.0
 10
-71.1306
 20
134.9388
 30
0.0
 10
-71.1306
 20
136.9388
 30
0.0
 10
-71.1306
 20
136.9388
 30
0.0
 10
-71.1306
 20
136.9388
 30
0.0
 10
-71.1306
 20
136.9388
 30
0.0
 10
-67.1306
 20
136.9388
 30
0.0
 10
-67.1306
 20
136.9388
 30
0.0
 10
-67.1306
 20
136.9388
 30
0.0
 10
-67.1306
 20
136.9388
 30
0.0
 10
-67.1306
 20
134.9388
 30
0.0
 10
-67.1306
 20
134.9388
 30
0.0
 10
-67.1306
 20
134.9388
 30
0.0
 10
-67.1306
 20
134.9388
 30
0.0
 10
-63.1306
 20
134.9388
 30
0.0
 10
-63.1306
 20
134.9388
 30
0.0
 10
-63.1306
 20
134.9388
 30
0.0
 10
-63.1306
 20
134.9388
 30
0.0
 10
-63.1306
 20
136.9388
 30
0.0
 10
-63.1306
 20
136.9388
 30
0.0
 10
-63.1306
 20
136.9388
 30
0.0
 10
-63.1306
 20
136.9388
 30
0.0
 10
-59.1306
 20
136.9388
 30
0.0
 10
-59.1306
 20
136.9388
 30
0.0
 10
-59.1306
 20
136.9388
 30
0.0
 10
-59.1306
 20
136.9388
 30
0.0
 10
-59.1306
 20
134.9388
 30
0.0
 10
-59.1306
 20
134.9388
 30
0.0
 10
-59.1306
 20
134.9388
 30
0.0
 10
-59.1306
 20
134.9388
 30
0.0
 10
-55.1306
 20
134.9388
 30
0.0
 10
-55.1306
 20
134.9388
 30
0.0
 10
-55.1306
 20
134.9388
 30
0.0
 10
-55.1306
 20
134.9388
 30
0.0
 10
-55.1306
 20
136.9388
 30
0.0
 10
-55.1306
 20
136.9388
 30
0.0
 10
-55.1306
 20
136.9388
 30
0.0
 10
-55.1306
 20
136.9388
 30
0.0
 10
-51.1306
 20
136.9388
 30
0.0
 10
-51.1306
 20
136.9388
 30
0.0
 10
-51.1306
 20
136.9388
 30
0.0
 10
-51.1306
 20
136.9388
 30
0.0
 10
-51.1306
 20
134.9388
 30
0.0
 10
-51.1306
 20
134.9388
 30
0.0
 10
-51.1306
 20
134.9388
 30
0.0
 10
-51.1306
 20
134.9388
 30
0.0
 10
-47.1306
 20
134.9388
 30
0.0
 10
-47.1306
 20
134.9388
 30
0.0
 10
-47.1306
 20
134.9388
 30
0.0
 10
-47.1306
 20
134.9388
 30
0.0
 10
-47.1306
 20
136.9388
 30
0.0
 10
-47.1306
 20
136.9388
 30
0.0
 10
-47.1306
 20
136.9388
 30
0.0
 10
-47.1306
 20
136.9388
 30
0.0
 10
-43.1306
 20
136.9388
 30
0.0
 10
-43.1306
 20
136.9388
 30
0.0
 10
-43.1306
 20
136.9388
 30
0.0
 10
-43.1306
 20
136.9388
 30
0.0
 10
-43.1306
 20
134.9388
 30
0.0
 10
-43.1306
 20
134.9388
 30
0.0
 10
-43.1306
 20
134.9388
 30
0.0
 10
-43.1306
 20
134.9388
 30
0.0
 10
-39.1306
 20
134.9388
 30
0.0
 10
-39.1306
 20
134.9388
 30
0.0
 10
-39.1306
 20
134.9388
 30
0.0
 10
-39.1306
 20
134.9388
 30
0.0
 10
-39.1306
 20
136.9388
 30
0.0
 10
-39.1306
 20
136.9388
 30
0.0
 10
-39.1306
 20
136.9388
 30
0.0
 10
-39.1306
 20
136.9388
 30
0.0
 10
-35.1306
 20
136.9388
 30
0.0
 10
-35.1306
 20
136.9388
 30
0.0
 10
-35.1306
 20
136.9388
 30
0.0
 10
-35.1306
 20
136.9388
 30
0.0
 10
-35.1306
 20
134.9388
 30
0.0
 10
-35.1306
 20
134.9388
 30
0.0
 10
-35.1306
 20
134.9388
 30
0.0
 10
-35.1306
 20
134.9388
 30
0.0
 10
-31.1306
 20
134.9388
 30
0.0
 10
-31.1306
 20
134.9388
 30
0.0
 10
-31.1306
 20
134.9388
 30
0.0
 10
-31.1306
 20
134.9388
 30
0.0
 10
-31.1306
 20
136.9388
 30
0.0
 10
-31.1306
 20
136.9388
 30
0.0
 10
-31.1306
 20
136.9388
 30
0.0
 10
-31.1306
 20
136.9388
 30
0.0
 10
-27.1306
 20
136.9388
 30
0.0
 10
-27.1306
 20
136.9388
 30
0.0
 10
-27.1306
 20
136.9388
 30
0.0
 10
-27.1306
 20
136.9388
 30
0.0
 10
-27.1306
 20
134.9388
 30
0.0
 10
-27.1306
 20
134.9388
 30
0.0
 10
-27.1306
 20
134.9388
 30
0.0
 10
-27.1306
 20
134.9388
 30
0.0
 10
-21.3806
 20
134.9388
 30
0.0
 10
-21.3806
 20
134.9388
 30
0.0
 10
-21.3806
 20
134.9388
 30
0.0
 10
-21.3806
 20
134.9388
 30
0.0
 10
-21.3806
 20
136.9388
 30
0.0
 10
-21.3806
 20
136.9388
 30
0.0
 10
-21.3806
 20
136.9388
 30
0.0
 10
-21.3806
 20
136.9388
 30
0.0
 10
-15.6306
 20
136.9388
 30
0.0
 10
-15.6306
 20
136.9388
 30
0.0
 10
-15.6306
 20
136.9388
 30
0.0
 10
-15.6306
 20
136.9388
 30
0.0
 10
-15.6306
 20
132.9388
 30
0.0
 10
-15.6306
 20
132.9388
 30
0.0
 10
-15.6306
 20
132.9388
 30
0.0
 10
-15.6306
 20
132.9388
 30
0.0
 10
-17.6306
 20
132.9388
 30
0.0
 10
-17.6306
 20
132.9388
 30
0.0
 10
-17.6306
 20
132.9388
 30
0.0
 10
-17.6306
 20
132.9388
 30
0.0
 10
-17.6306
 20
128.9388
 30
0.0
 10
-17.6306
 20
128.9388
 30
0.0
 10
-17.6306
 20
128.9388
 30
0.0
 10
-17.6306
 20
128.9388
 30
0.0
 10
-15.6306
 20
128.9388
 30
0.0
 10
-15.6306
 20
128.9388
 30
0.0
 10
-15.6306
 20
128.9388
 30
0.0
 10
-15.6306
 20
128.9388
 30
0.0
 10
-15.6306
 20
124.9388
 30
0.0
 10
-15.6306
 20
124.9388
 30
0.0
 10
-15.6306
 20
124.9388
 30
0.0
 10
-15.6306
 20
124.9388
 30
0.0
 10
-17.6306
 20
124.9388
 30
0.0
 10
-17.6306
 20
124.9388
 30
0.0
 10
-17.6306
 20
124.9388
 30
0.0
 10
-17.6306
 20
124.9388
 30
0.0
 10
-17.6306
 20
120.9388
 30
0.0
 10
-17.6306
 20
120.9388
 30
0.0
 10
-17.6306
 20
120.9388
 30
0.0
 10
-17.6306
 20
120.9388
 30
0.0
 10
-15.6306
 20
120.9388
 30
0.0
 10
-15.6306
 20
120.9388
 30
0.0
 10
-15.6306
 20
120.9388
 30
0.0
 10
-15.6306
 20
120.9388
 30
0.0
 10
-15.6306
 20
116.9388
 30
0.0
 10
-15.6306
 20
116.9388
 30
0.0
 10
-15.6306
 20
116.9388
 30
0.0
 10
-15.6306
 20
116.9388
 30
0.0
 10
-21.3806
 20
116.9388
 30
0.0
 10
-21.3806
 20
116.9388
 30
0.0
 10
-21.3806
 20
116.9388
 30
0.0
 10
-21.3806
 20
116.9388
 30
0.0
 10
-21.3806
 20
118.9388
 30
0.0
 10
-21.3806
 20
118.9388
 30
0.0
 10
-21.3806
 20
118.9388
 30
0.0
 10
-21.3806
 20
118.9388
 30
0.0
 10
-27.1306
 20
118.9388
 30
0.0
 10
-27.1306
 20
118.9388
 30
0.0
 10
-27.1306
 20
118.9388
 30
0.0
 10
-27.1306
 20
118.9388
 30
0.0
 10
-27.1306
 20
116.9388
 30
0.0
 10
-27.1306
 20
116.9388
 30
0.0
 10
-27.1306
 20
116.9388
 30
0.0
 10
-27.1306
 20
116.9388
 30
0.0
 10
-31.1306
 20
116.9388
 30
0.0
 10
-31.1306
 20
116.9388
 30
0.0
 10
-31.1306
 20
116.9388
 30
0.0
 10
-31.1306
 20
116.9388
 30
0.0
 10
-31.1306
 20
118.9388
 30
0.0
 10
-31.1306
 20
118.9388
 30
0.0
 10
-31.1306
 20
118.9388
 30
0.0
 10
-31.1306
 20
118.9388
 30
0.0
 10
-35.1306
 20
118.9388
 30
0.0
 10
-35.1306
 20
118.9388
 30
0.0
 10
-35.1306
 20
118.9388
 30
0.0
 10
-35.1306
 20
118.9388
 30
0.0
 10
-35.1306
 20
116.9388
 30
0.0
 10
-35.1306
 20
116.9388
 30
0.0
 10
-35.1306
 20
116.9388
 30
0.0
 10
-35.1306
 20
116.9388
 30
0.0
 10
-39.1306
 20
116.9388
 30
0.0
 10
-39.1306
 20
116.9388
 30
0.0
 10
-39.1306
 20
116.9388
 30
0.0
 10
-39.1306
 20
116.9388
 30
0.0
 10
-39.1306
 20
118.9388
 30
0.0
 10
-39.1306
 20
118.9388
 30
0.0
 10
-39.1306
 20
118.9388
 30
0.0
 10
-39.1306
 20
118.9388
 30
0.0
 10
-43.1306
 20
118.9388
 30
0.0
 10
-43.1306
 20
118.9388
 30
0.0
 10
-43.1306
 20
118.9388
 30
0.0
 10
-43.1306
 20
118.9388
 30
0.0
 10
-43.1306
 20
116.9388
 30
0.0
 10
-43.1306
 20
116.9388
 30
0.0
 10
-43.1306
 20
116.9388
 30
0.0
 10
-43.1306
 20
116.9388
 30
0.0
 10
-47.1306
 20
116.9388
 30
0.0
 10
-47.1306
 20
116.9388
 30
0.0
 10
-47.1306
 20
116.9388
 30
0.0
 10
-47.1306
 20
116.9388
 30
0.0
 10
-47.1306
 20
118.9388
 30
0.0
 10
-47.1306
 20
118.9388
 30
0.0
 10
-47.1306
 20
118.9388
 30
0.0
 10
-47.1306
 20
118.9388
 30
0.0
 10
-51.1306
 20
118.9388
 30
0.0
 10
-51.1306
 20
118.9388
 30
0.0
 10
-51.1306
 20
118.9388
 30
0.0
 10
-51.1306
 20
118.9388
 30
0.0
 10
-51.1306
 20
116.9388
 30
0.0
 10
-51.1306
 20
116.9388
 30
0.0
 10
-51.1306
 20
116.9388
 30
0.0
 10
-51.1306
 20
116.9388
 30
0.0
 10
-55.1306
 20
116.9388
 30
0.0
 10
-55.1306
 20
116.9388
 30
0.0
 10
-55.1306
 20
116.9388
 30
0.0
 10
-55.1306
 20
116.9388
 30
0.0
 10
-55.1306
 20
118.9388
 30
0.0
 10
-55.1306
 20
118.9388
 30
0.0
 10
-55.1306
 20
118.9388
 30
0.0
 10
-55.1306
 20
118.9388
 30
0.0
 10
-59.1306
 20
118.9388
 30
0.0
 10
-59.1306
 20
118.9388
 30
0.0
 10
-59.1306
 20
118.9388
 30
0.0
 10
-59.1306
 20
118.9388
 30
0.0
 10
-59.1306
 20
116.9388
 30
0.0
 10
-59.1306
 20
116.9388
 30
0.0
 10
-59.1306
 20
116.9388
 30
0.0
 10
-59.1306
 20
116.9388
 30
0.0
 10
-63.1306
 20
116.9388
 30
0.0
 10
-63.1306
 20
116.9388
 30
0.0
 10
-63.1306
 20
116.9388
 30
0.0
 10
-63.1306
 20
116.9388
 30
0.0
 10
-63.1306
 20
118.9388
 30
0.0
 10
-63.1306
 20
118.9388
 30
0.0
 10
-63.1306
 20
118.9388
 30
0.0
 10
-63.1306
 20
118.9388
 30
0.0
 10
-67.1306
 20
118.9388
 30
0.0
 10
-67.1306
 20
118.9388
 30
0.0
 10
-67.1306
 20
118.9388
 30
0.0
 10
-67.1306
 20
118.9388
 30
0.0
 10
-67.1306
 20
116.9388
 30
0.0
 10
-67.1306
 20
116.9388
 30
0.0
 10
-67.1306
 20
116.9388
 30
0.0
 10
-67.1306
 20
116.9388
 30
0.0
 10
-71.1306
 20
116.9388
 30
0.0
 10
-71.1306
 20
116.9388
 30
0.0
 10
-71.1306
 20
116.9388
 30
0.0
 10
-71.1306
 20
116.9388
 30
0.0
 10
-71.1306
 20
118.9388
 30
0.0
 10
-71.1306
 20
118.9388
 30
0.0
 10
-71.1306
 20
118.9388
 30
0.0
 10
-71.1306
 20
118.9388
 30
0.0
 10
-75.1306
 20
118.9388
 30
0.0
 10
-75.1306
 20
118.9388
 30
0.0
 10
-75.1306
 20
118.9388
 30
0.0
 10
-75.1306
 20
118.9388
 30
0.0
 10
-75.1306
 20
116.9388
 30
0.0
 10
-75.1306
 20
116.9388
 30
0.0
 10
-75.1306
 20
116.9388
 30
0.0
 10
-75.1306
 20
116.9388
 30
0.0
 10
-79.1306
 20
116.9388
 30
0.0
 10
-79.1306
 20
116.9388
 30
0.0
 10
-79.1306
 20
116.9388
 30
0.0
 10
-79.1306
 20
116.9388
 30
0.0
 10
-79.1306
 20
118.9388
 30
0.0
 10
-79.1306
 20
118.9388
 30
0.0
 10
-79.1306
 20
118.9388
 30
0.0
 10
-79.1306
 20
118.9388
 30
0.0
 10
-84.8806
 20
118.9388
 30
0.0
 10
-84.8806
 20
118.9388
 30
0.0
 10
-84.8806
 20
118.9388
 30
0.0
 10
-84.8806
 20
118.9388
 30
0.0
 10
-84.8806
 20
116.9388
 30
0.0
 10
-84.8806
 20
116.9388
 30
0.0
 10
-84.8806
 20
116.9388
 30
0.0
 10
-84.8806
 20
116.9388
 30
0.0
 10
-90.6306
 20
116.9388
 30
0.0
 10
-90.6306
 20
116.9388
 30
0.0
 10
-90.6306
 20
116.9388
 30
0.0
 10
-90.6306
 20
116.9388
 30
0.0
 10
-90.6306
 20
120.9388
 30
0.0
 10
-90.6306
 20
120.9388
 30
0.0
 10
-90.6306
 20
120.9388
 30
0.0
 10
-90.6306
 20
120.9388
 30
0.0
 10
-88.6306
 20
120.9388
 30
0.0
 10
-88.6306
 20
120.9388
 30
0.0
 10
-88.6306
 20
120.9388
 30
0.0
 10
-88.6306
 20
120.9388
 30
0.0
 10
-88.6306
 20
124.9388
 30
0.0
 10
-88.6306
 20
124.9388
 30
0.0
 10
-88.6306
 20
124.9388
 30
0.0
 10
-88.6306
 20
124.9388
 30
0.0
 10
-90.6306
 20
124.9388
 30
0.0
 10
-90.6306
 20
124.9388
 30
0.0
 10
-90.6306
 20
124.9388
 30
0.0
 10
-90.6306
 20
124.9388
 30
0.0
 10
-90.6306
 20
128.9388
 30
0.0
 10
-90.6306
 20
128.9388
 30
0.0
 10
-90.6306
 20
128.9388
 30
0.0
 10
-90.6306
 20
128.9388
 30
0.0
 10
-88.6306
 20
128.9388
 30
0.0
 10
-88.6306
 20
128.9388
 30
0.0
 10
-88.6306
 20
128.9388
 30
0.0
 10
-88.6306
 20
128.9388
 30
0.0
 10
-88.6306
 20
132.9388
 30
0.0
 10
-88.6306
 20
132.9388
 30
0.0
 10
-88.6306
 20
132.9388
 30
0.0
 10
-88.6306
 20
132.9388
 30
0.0
 10
-90.6306
 20
132.9388
 30
0.0
 10
-90.6306
 20
132.9388
 30
0.0
 10
-90.6306
 20
132.9388
 30
0.0
 10
-90.6306
 20
132.9388
 30
0.0
 10
-90.6306
 20
136.9388
 30
0.0
 10
-90.6306
 20
136.9388
 30
0.0
  0
SPLINE
  5
60
330
1F
100
AcDbEntity
  8
layer 1
370
    25
100
AcDbSpline
210
0.0
220
0.0
230
1.0
 70
    11
 71
     3
 72
   340
 73
   336
 74
     0
 42
0.0000000001
 43
0.0000000001
 40
0.0
 40
0.0
 40
0.0
 40
0.0
 40
0.0119047619047619
 40
0.0119047619047619
 40
0.0119047619047619
 40
0.0119047619047619
 40
0.0238095238095238
 40
0.0238095238095238
 40
0.0238095238095238
 40
0.0238095238095238
 40
0.0357142857142857
 40
0.0357142857142857
 40
0.0357142857142857
 40
0.0357142857142857
 40
0.0476190476190476
 40
0.0476190476190476
 40
0.0476190476190476
 40
0.0476190476190476
 40
0.0595238095238095
 40
0.0595238095238095
 40
0.0595238095238095
 40
0.0595238095238095
 40
0.0714285714285714
 40
0.0714285714285714
 40
0.0714285714285714
 40
0.0714285714285714
 40
0.0833333333333333
 40
0.0833333333333333
 40
0.0833333333333333
 40
0.0833333333333333
 40
0.0952380952380952
 40
0.0952380952380952
 40
0.0952380952380952
 40
0.0952380952380952
 40
0.1071428571428571
 40
0.1071428571428571
 40
0.1071428571428571
 40
0.1071428571428571
 40
0.119047619047619
 40
0.119047619047619
 40
0.119047619047619
 40
0.119047619047619
 40
0.1309523809523809
 40
0.1309523809523809
 40
0.1309523809523809
 40
0.1309523809523809
 40
0.1428571428571428
 40
0.1428571428571428
 40
0.1428571428571428
 40
0.1428571428571428
 40
0.1547619047619048
 40
0.1547619047619048
 40
0.1547619047619048
 40
0.1547619047619048
 40
0.1666666666666667
 40
0.1666666666666667
 40
0.1666666666666667
 40
0.1666666666666667
 40
0.1785714285714286
 40
0.1785714285714286
 40
0.1785714285714286
 40
0.1785714285714286
 40
0.1904761904761905
 40
0.1904761904761905
 40
0.1904761904761905
 40
0.1904761904761905
 40
0.2023809523809524
 40
0.2023809523809524
 40
0.2023809523809524
 40
0.2023809523809524
 40
0.2142857142857144
 40
0.2142857142857144
 40
0.2142857142857144
 40
0.2142857142857144
 40
0.2261904761904763
 40
0.2261904761904763
 40
0.2261904761904763
 40
0.2261904761904763
 40
0.2380952380952382
 40
0.2380952380952382
 40
0.2380952380952382
 40
0.2380952380952382
 40
0.2500000000000001
 40
0.2500000000000001
 40
0.2500000000000001
 40
0.2500000000000001
 40
0.261904761904762
 40
0.261904761904762
 40
0.261904761904762
 40
0.261904761904762
 40
0.2738095238095239
 40
0.2738095238095239
 40
0.2738095238095239
 40
0.2738095238095239
 40
0.2857142857142859
 40
0.2857142857142859
 40
0.2857142857142859
 40
0.2857142857142859
 40
0.2976190476190478
 40
0.2976190476190478
 40
0.2976190476190478
 40
0.2976190476190478
 40
0.3095238095238097
 40
0.3095238095238097
 40
0.3095238095238097
 40
0.3095238095238097
 40
0.3214285714285716
 40
0.3214285714285716
 40
0.3214285714285716
 40
0.3214285714285716
 40
0.3333333333333335
 40
0.3333333333333335
 40
0.3333333333333335
 40
0.3333333333333335
 40
0.3452380952380955
 40
0.3452380952380955
 40
0.3452380952380955
 40
0.3452380952380955
 40
0.3571428571428574
 40
0.3571428571428574
 40
0.3571428571428574
 40
0.3571428571428574
 40
0.3690476190476193
 40
0.3690476190476193
 40
0.3690476190476193
 40
0.3690476190476193
 40
0.3809523809523812
 40
0.3809523809523812
 40
0.3809523809523812
 40
0.3809523809523812
 40
0.3928571428571431
 40
0.3928571428571431
 40
0.3928571428571431
 40
0.3928571428571431
 40
0.404761904761905
 40
0.404761904761905
 40
0.404761904761905
 40
0.404761904761905
 40
0.416666666666667
 40
0.416666666666667
 40
0.416666666666667
 40
0.416666666666667
 40
0.4285714285714289
 40
0.4285714285714289
 40
0.4285714285714289
 40
0.4285714285714289
 40
0.4404761904761908
 40
0.4404761904761908
 40
0.4404761904761908
 40
0.4404761904761908
 40
0.4523809523809527
 40
0.4523809523809527
 40
0.4523809523809527
 40
0.4523809523809527
 40
0.4642857142857146
 40
0.4642857142857146
 40
0.4642857142857146
 40
0.4642857142857146
 40
0.4761904761904766
 40
0.4761904761904766
 40
0.4761904761904766
 40
0.4761904761904766
 40
0.4880952380952385
 40
0.4880952380952385
 40
0.4880952380952385
 40
0.4880952380952385
 40
0.5000000000000003
 40
0.5000000000000003
 40
0.5000000000000003
 40
0.5000000000000003
 40
0.5119047619047622
 40
0.5119047619047622
 40
0.5119047619047622
 40
0.5119047619047622
 40
0.5238095238095241
 40
0.5238095238095241
 40
0.5238095238095241
 40
0.5238095238095241
 40
0.5357142857142859
 40
0.5357142857142859
 40
0.5357142857142859
 40
0.5357142857142859
 40
0.5476190476190478
 40
0.5476190476190478
 40
0.5476190476190478
 40
0.5476190476190478
 40
0.5595238095238096
 40
0.5595238095238096
 40
0.5595238095238096
 40
0.5595238095238096
 40
0.5714285714285715
 40
0.5714285714285715
 40
0.5714285714285715
 40
0.5714285714285715
 40
0.5833333333333334
 40
0.5833333333333334
 40
0.5833333333333334
 40
0.5833333333333334
 40
0.5952380952380952
 40
0.5952380952380952
 40
0.5952380952380952
 40
0.5952380952380952
 40
0.6071428571428571
 40
0.6071428571428571
 40
0.6071428571428571
 40
0.6071428571428571
 40
0.619047619047619
 40
0.619047619047619
 40
0.619047619047619
 40
0.619047619047619
 40
0.6309523809523808
 40
0.6309523809523808
 40
0.6309523809523808
 40
0.6309523809523808
 40
0.6428571428571427
 40
0.6428571428571427
 40
0.6428571428571427
 40
0.6428571428571427
 40
0.6547619047619045
 40
0.6547619047619045
 40
0.6547619047619045
 40
0.6547619047619045
 40
0.6666666666666664
 40
0.6666666666666664
 40
0.6666666666666664
 40
0.6666666666666664
 40
0.6785714285714283
 40
0.6785714285714283
 40
0.6785714285714283
 40
0.6785714285714283
 40
0.6904761904761901
 40
0.6904761904761901
 40
0.6904761904761901
 40
0.6904761904761901
 40
0.702380952380952
 40
0.702380952380952
 40
0.702380952380952
 40
0.702380952380952
 40
0.7142857142857139
 40
0.7142857142857139
 40
0.7142857142857139
 40
0.7142857142857139
 40
0.7261904761904757
 40
0.7261904761904757
 40
0.7261904761904757
 40
0.7261904761904757
 40
0.7380952380952376
 40
0.7380952380952376
 40
0.7380952380952376
 40
0.7380952380952376
 40
0.7499999999999994
 40
0.7499999999999994
 40
0.7499999999999994
 40
0.7499999999999994
 40
0.7619047619047613
 40
0.7619047619047613
 40
0.7619047619047613
 40
0.7619047619047613
 40
0.7738095238095232
 40
0.7738095238095232
 40
0.7738095238095232
 40
0.7738095238095232
 40
0.785714285714285
 40
0.785714285714285
 40
0.785714285714285
 40
0.785714285714285
 40
0.7976190476190469
 40
0.7976190476190469
 40
0.7976190476190469
 40
0.7976190476190469
 40
0.8095238095238088
 40
0.8095238095238088
 40
0.8095238095238088
 40
0.8095238095238088
 40
0.8214285714285706
 40
0.8214285714285706
 40
0.8214285714285706
 40
0.8214285714285706
 40
0.8333333333333325
 40
0.8333333333333325
 40
0.8333333333333325
 40
0.8333333333333325
 40
0.8452380952380943
 40
0.8452380952380943
 40
0.8452380952380943
 40
0.8452380952380943
 40
0.8571428571428562
 40
0.8571428571428562
 40
0.8571428571428562
 40
0.8571428571428562
 40
0.8690476190476181
 40
0.8690476190476181
 40
0.8690476190476181
 40
0.8690476190476181
 40
0.8809523809523799
 40
0.8809523809523799
 40
0.8809523809523799
 40
0.8809523809523799
 40
0.8928571428571418
 40
0.8928571428571418
 40
0.8928571428571418
 40
0.8928571428571418
 40
0.9047619047619037
 40
0.9047619047619037
 40
0.9047619047619037
 40
0.9047619047619037
 40
0.9166666666666655
 40
0.9166666666666655
 40
0.9166666666666655
 40
0.9166666666666655
 40
0.9285714285714274
 40
0.9285714285714274
 40
0.9285714285714274
 40
0.9285714285714274
 40
0.9404761904761892
 40
0.9404761904761892
 40
0.9404761904761892
 40
0.9404761904761892
 40
0.9523809523809511
 40
0.9523809523809511
 40
0.9523809523809511
 40
0.9523809523809511
 40
0.964285714285713
 40
0.964285714285713
 40
0.964285714285713
 40
0.964285714285713
 40
0.9761904761904748
 40
0.9761904761904748
 40
0.9761904761904748
 40
0.9761904761904748
 40
0.9880952380952367
 40
0.9880952380952367
 40
0.9880952380952367
 40
0.9880952380952367
 40
1.0
 40
1.0
 40
1.0
 40
1.0
 10
9.8888
 20
137.7006
 30
0.0
 10
9.8888
 20
137.7006
 30
0.0
 10
15.6388
 20
137.7006
 30
0.0
 10
15.6388
 20
137.7006
 30
0.0
 10
15.6388
 20
137.7006
 30
0.0
 10
15.6388
 20
137.7006
 30
0.0
 10
15.6388
 20
135.7006
 30
0.0
 10
15.6388
 20
135.7006
 30
0.0
 10
15.6388
 20
135.7006
 30
0.0
 10
15.6388
 20
135.7006
 30
0.0
 10
21.3888
 20
135.7006
 30
0.0
 10
21.3888
 20
135.7006
 30
0.0
 10
21.3888
 20
135.7006
 30
0.0
 10
21.3888
 20
135.7006
 30
0.0
 10
21.3888
 20
137.7006
 30
0.0
 10
21.3888
 20
137.7006
 30
0.0
 10
21.3888
 20
137.7006
 30
0.0
 10
21.3888
 20
137.7006
 30
0.0
 10
25.3888
 20
137.7006
 30
0.0
 10
25.3888
 20
137.7006
 30
0.0
 10
25.3888
 20
137.7006
 30
0.0
 10
25.3888
 20
137.7006
 30
0.0
 10
25.3888
 20
135.7006
 30
0.0
 10
25.3888
 20
135.7006
 30
0.0
 10
25.3888
 20
135.7006
 30
0.0
 10
25.3888
 20
135.7006
 30
0.0
 10
29.3888
 20
135.7006
 30
0.0
 10
29.3888
 20
135.7006
 30
0.0
 10
29.3888
 20
135.7006
 30
0.0
 10
29.3888
 20
135.7006
 30
0.0
 10
29.3888
 20
137.7006
 30
0.0
 10
29.3888
 20
137.7006
 30
0.0
 10
29.3888
 20
137.7006
 30
0.0
 10
29.3888
 20
137.7006
 30
0.0
 10
33.3888
 20
137.7006
 30
0.0
 10
33.3888
 20
137.7006
 30
0.0
 10
33.3888
 20
137.7006
 30
0.0
 10
33.3888
 20
137.7006
 30
0.0
 10
33.3888
 20
135.7006
 30
0.0
 10
33.3888
 20
135.7006
 30
0.0
 10
33.3888
 20
135.7006
 30
0.0
 10
33.3888
 20
135.7006
 30
0.0
 10
37.3888
 20
135.7006
 30
0.0
 10
37.3888
 20
135.7006
 30
0.0
 10
37.3888
 20
135.7006
 30
0.0
 10
37.3888
 20
135.7006
 30
0.0
 10
37.3888
 20
137.7006
 30
0.0
 10
37.3888
 20
137.7006
 30
0.0
 10
37.3888
 20
137.7006
 30
0.0
 10
37.3888
 20
137.7006
 30
0.0
 10
41.3888
 20
137.7006
 30
0.0
 10
41.3888
 20
137.7006
 30
0.0
 10
41.3888
 20
137.7006
 30
0.0
 10
41.3888
 20
137.7006
 30
0.0
 10
41.3888
 20
135.7006
 30
0.0
 10
41.3888
 20
135.7006
 30
0.0
 10
41.3888
 20
135.7006
 30
0.0
 10
41.3888
 20
135.7006
 30
0.0
 10
45.3888
 20
135.7006
 30
0.0
 10
45.3888
 20
135.7006
 30
0.0
 10
45.3888
 20
135.7006
 30
0.0
 10
45.3888
 20
135.7006
 30
0.0
 10
45.3888
 20
137.7006
 30
0.0
 10
45.3888
 20
137.7006
 30
0.0
 10
45.3888
 20
137.7006
 30
0.0
 10
45.3888
 20
137.7006
 30
0.0
 10
49.3888
 20
137.7006
 30
0.0
 10
49.3888
 20
137.7006
 30
0.0
 10
49.3888
 20
137.7006
 30
0.0
 10
49.3888
 20
137.7006
 30
0.0
 10
49.3888
 20
135.7006
 30
0.0
 10
49.3888
 20
135.7006
 30
0.0
 10
49.3888
 20
135.7006
 30
0.0
 10
49.3888
 20
135.7006
 30
0.0
 10
53.3888
 20
135.7006
 30
0.0
 10
53.3888
 20
135.7006
 30
0.0
 10
53.3888
 20
135.7006
 30
0.0
 10
53.3888
 20
135.7006
 30
0.0
 10
53.3888
 20
137.7006
 30
0.0
 10
53.3888
 20
137.7006
 30
0.0
 10
53.3888
 20
137.7006
 30
0.0
 10
53.3888
 20
137.7006
 30
0.0
 10
57.3888
 20
137.7006
 30
0.0
 10
57.3888
 20
137.7006
 30
0.0
 10
57.3888
 20
137.7006
 30
0.0
 10
57.3888
 20
137.7006
 30
0.0
 10
57.3888
 20
135.7006
 30
0.0
 10
57.3888
 20
135.7006
 30
0.0
 10
57.3888
 20
135.7006
 30
0.0
 10
57.3888
 20
135.7006
 30
0.0
 10
61.3888
 20
135.7006
 30
0.0
 10
61.3888
 20
135.7006
 30
0.0
 10
61.3888
 20
135.7006
 30
0.0
 10
61.3888
 20
135.7006
 30
0.0
 10
61.3888
 20
137.7006
 30
0.0
 10
61.3888
 20
137.7006
 30
0.0
 10
61.3888
 20
137.7006
 30
0.0
 10
61.3888
 20
137.7006
 30
0.0
 10
65.3888
 20
137.7006
 30
0.0
 10
65.3888
 20
137.7006
 30
0.0
 10
65.3888
 20
137.7006
 30
0.0
 10
65.3888
 20
137.7006
 30
0.0
 10
65.3888
 20
135.7006
 30
0.0
 10
65.3888
 20
135.7006
 30
0.0
 10
65.3888
 20
135.7006
 30
0.0
 10
65.3888
 20
135.7006
 30
0.0
 10
69.3888
 20
135.7006
 30
0.0
 10
69.3888
 20
135.7006
 30
0.0
 10
69.3888
 20
135.7006
 30
0.0
 10
69.3888
 20
135.7006
 30
0.0
 10
69.3888
 20
137.7006
 30
0.0
 10
69.3888
 20
137.7006
 30
0.0
 10
69.3888
 20
137.7006
 30
0.0
 10
69.3888
 20
137.7006
 30
0.0
 10
73.3888
 20
137.7006
 30
0.0
 10
73.3888
 20
137.7006
 30
0.0
 10
73.3888
 20
137.7006
 30
0.0
 10
73.3888
 20
137.7006
 30
0.0
 10
73.3888
 20
135.7006
 30
0.0
 10
73.3888
 20
135.7006
 30
0.0
 10
73.3888
 20
135.7006
 30
0.0
 10
73.3888
 20
135.7006
 30
0.0
 10
79.1388
 20
135.7006
 30
0.0
 10
79.1388
 20
135.7006
 30
0.0
 10
79.1388
 20
135.7006
 30
0.0
 10
79.1388
 20
135.7006
 30
0.0
 10
79.1388
 20
137.7006
 30
0.0
 10
79.1388
 20
137.7006
 30
0.0
 10
79.1388
 20
137.7006
 30
0.0
 10
79.1388
 20
137.7006
 30
0.0
 10
84.8888
 20
137.7006
 30
0.0
 10
84.8888
 20
137.7006
 30
0.0
 10
84.8888
 20
137.7006
 30
0.0
 10
84.8888
 20
137.7006
 30
0.0
 10
84.8888
 20
133.7006
 30
0.0
 10
84.8888
 20
133.7006
 30
0.0
 10
84.8888
 20
133.7006
 30
0.0
 10
84.8888
 20
133.7006
 30
0.0
 10
82.8888
 20
133.7006
 30
0.0
 10
82.8888
 20
133.7006
 30
0.0
 10
82.8888
 20
133.7006
 30
0.0
 10
82.8888
 20
133.7006
 30
0.0
 10
82.8888
 20
129.7006
 30
0.0
 10
82.8888
 20
129.7006
 30
0.0
 10
82.8888
 20
129.7006
 30
0.0
 10
82.8888
 20
129.7006
 30
0.0
 10
84.8888
 20
129.7006
 30
0.0
 10
84.8888
 20
129.7006
 30
0.0
 10
84.8888
 20
129.7006
 30
0.0
 10
84.8888
 20
129.7006
 30
0.0
 10
84.8888
 20
125.7006
 30
0.0
 10
84.8888
 20
125.7006
 30
0.0
 10
84.8888
 20
125.7006
 30
0.0
 10
84.8888
 20
125.7006
 30
0.0
 10
82.8888
 20
125.7006
 30
0.0
 10
82.8888
 20
125.7006
 30
0.0
 10
82.8888
 20
125.7006
 30
0.0
 10
82.8888
 20
125.7006
 30
0.0
 10
82.8888
 20
121.7006
 30
0.0
 10
82.8888
 20
121.7006
 30
0.0
 10
82.8888
 20
121.7006
 30
0.0
 10
82.8888
 20
121.7006
 30
0.0
 10
84.8888
 20
121.7006
 30
0.0
 10
84.8888
 20
121.7006
 30
0.0
 10
84.8888
 20
121.7006
 30
0.0
 10
84.8888
 20
121.7006
 30
0.0
 10
84.8888
 20
117.7006
 30
0.0
 10
84.8888
 20
117.7006
 30
0.0
 10
84.8888
 20
117.7006
 30
0.0
 10
84.8888
 20
117.7006
 30
0.0
 10
79.1388
 20
117.7006
 30
0.0
 10
79.1388
 20
117.7006
 30
0.0
 10
79.1388
 20
117.7006
 30
0.0
 10
79.1388
 20
117.7006
 30
0.0
 10
79.1388
 20
119.7006
 30
0.0
 10
79.1388
 20
119.7006
 30
0.0
 10
79.1388
 20
119.7006
 30
0.0
 10
79.1388
 20
119.7006
 30
0.0
 10
73.3888
 20
119.7006
 30
0.0
 10
73.3888
 20
119.7006
 30
0.0
 10
73.3888
 20
119.7006
 30
0.0
 10
73.3888
 20
119.7006
 30
0.0
 10
73.3888
 20
117.7006
 30
0.0
 10
73.3888
 20
117.7006
 30
0.0
 10
73.3888
 20
117.7006
 30
0.0
 10
73.3888
 20
117.7006
 30
0.0
 10
69.3888
 20
117.7006
 30
0.0
 10
69.3888
 20
117.7006
 30
0.0
 10
69.3888
 20
117.7006
 30
0.0
 10
69.3888
 20
117.7006
 30
0.0
 10
69.3888
 20
119.7006
 30
0.0
 10
69.3888
 20
119.7006
 30
0.0
 10
69.3888
 20
119.7006
 30
0.0
 10
69.3888
 20
119.7006
 30
0.0
 10
65.3888
 20
119.7006
 30
0.0
 10
65.3888
 20
119.7006
 30
0.0
 10
65.3888
 20
119.7006
 30
0.0
 10
65.3888
 20
119.7006
 30
0.0
 10
65.3888
 20
117.7006
 30
0.0
 10
65.3888
 20
117.7006
 30
0.0
 10
65.3888
 20
117.7006
 30
0.0
 10
65.3888
 20
117.7006
 30
0.0
 10
61.3888
 20
117.7006
 30
0.0
 10
61.3888
 20
117.7006
 30
0.0
 10
61.3888
 20
117.7006
 30
0.0
 10
61.3888
 20
117.7006
 30
0.0
 10
61.3888
 20
119.7006
 30
0.0
 10
61.3888
 20
119.7006
 30
0.0
 10
61.3888
 20
119.7006
 30
0.0
 10
61.3888
 20
119.7006
 30
0.0
 10
57.3888
 20
119.7006
 30
0.0
 10
57.3888
 20
119.7006
 30
0.0
 10
57.3888
 20
119.7006
 30
0.0
 10
57.3888
 20
119.7006
 30
0.0
 10
57.3888
 20
117.7006
 30
0.0
 10
57.3888
 20
117.7006
 30
0.0
 10
57.3888
 20
117.7006
 30
0.0
 10
57.3888
 20
117.7006
 30
0.0
 10
53.3888
 20
117.7006
 30
0.0
 10
53.3888
 20
117.7006
 30
0.0
 10
53.3888
 20
117.7006
 30
0.0
 10
53.3888
 20
117.7006
 30
0.0
 10
53.3888
 20
119.7006
 30
0.0
 10
53.3888
 20
119.7006
 30
0.0
 10
53.3888
 20
119.7006
 30
0.0
 10
53.3888
 20
119.7006
 30
0.0
 10
49.3888
 20
119.7006
 30
0.0
 10
49.3888
 20
119.7006
 30
0.0
 10
49.3888
 20
119.7006
 30
0.0
 10
49.3888
 20
119.7006
 30
0.0
 10
49.3888
 20
117.7006
 30
0.0
 10
49.3888
 20
117.7006
 30
0.0
 10
49.3888
 20
117.7006
 30
0.0
 10
49.3888
 20
117.7006
 30
0.0
 10
45.3888
 20
117.7006
 30
0.0
 10
45.3888
 20
117.7006
 30
0.0
 10
45.3888
 20
117.7006
 30
0.0
 10
45.3888
 20
117.7006
 30
0.0
 10
45.3888
 20
119.7006
 30
0.0
 10
45.3888
 20
119.7006
 30
0.0
 10
45.3888
 20
119.7006
 30
0.0
 10
45.3888
 20
119.7006
 30
0.0
 10
41.3888
 20
119.7006
 30
0.0
 10
41.3888
 20
119.7006
 30
0.0
 10
41.3888
 20
119.7006
 30
0.0
 10
41.3888
 20
119.7006
 30
0.0
 10
41.3888
 20
117.7006
 30
0.0
 10
41.3888
 20
117.7006
 30
0.0
 10
41.3888
 20
117.7006
 30
0.0
 10
41.3888
 20
117.7006
 30
0.0
 10
37.3888
 20
117.7006
 30
0.0
 10
37.3888
 20
117.7006
 30
0.0
 10
37.3888
 20
117.7006
 30
0.0
 10
37.3888
 20
117.7006
 30
0.0
 10
37.3888
 20
119.7006
 30
0.0
 10
37.3888
 20
119.7006
 30
0.0
 10
37.3888
 20
119.7006
 30
0.0
 10
37.3888
 20
119.7006
 30
0.0
 10
33.3888
 20
119.7006
 30
0.0
 10
33.3888
 20
119.7006
 30
0.0
 10
33.3888
 20
119.7006
 30
0.0
 10
33.3888
 20
119.7006
 30
0.0
 10
33.3888
 20
117.7006
 30
0.0
 10
33.3888
 20
117.7006
 30
0.0
 10
33.3888
 20
117.7006
 30
0.0
 10
33.3888
 20
117.7006
 30
0.0
 10
29.3888
 20
117.7006
 30
0.0
 10
29.3888
 20
117.7006
 30
0.0
 10
29.3888
 20
117.7006
 30
0.0
 10
29.3888
 20
117.7006
 30
0.0
 10
29.3888
 20
119.7006
 30
0.0
 10
29.3888
 20
119.7006
 30
0.0
 10
29.3888
 20
119.7006
 30
0.0
 10
29.3888
 20
119.7006
 30
0.0
 10
25.3888
 20
119.7006
 30
0.0
 10
25.3888
 20
119.7006
 30
0.0
 10
25.3888
 20
119.7006
 30
0.0
 10
25.3888
 20
119.7006
 30
0.0
 10
25.3888
 20
117.7006
 30
0.0
 10
25.3888
 20
117.7006
 30
0.0
 10
25.3888
 20
117.7006
 30
0.0
 10
25.3888
 20
117.7006
 30
0.0
 10
21.3888
 20
117.7006
 30
0.0
 10
21.3888
 20
117.7006
 30
0.0
 10
21.3888
 20
117.7006
 30
0.0
 10
21.3888
 20
117.7006
 30
0.0
 10
21.3888
 20
119.7006
 30
0.0
 10
21.3888
 20
119.7006
 30
0.0
 10
21.3888
 20
119.7006
 30
0.0
 10
21.3888
 20
119.7006
 30
0.0
 10
15.6388
 20
119.7006
 30
0.0
 10
15.6388
 20
119.7006
 30
0.0
 10
15.6388
 20
119.7006
 30
0.0
 10
15.6388
 20
119.7006
 30
0.0
 10
15.6388
 20
117.7006
 30
0.0
 10
15.6388
 20
117.7006
 30
0.0
 10
15.6388
 20
117.7006
 30
0.0
 10
15.6388
 20
117.7006
 30
0.0
 10
9.8888
 20
117.7006
 30
0.0
 10
9.8888
 20
117.7006
 30
0.0
 10
9.8888
 20
117.7006
 30
0.0
 10
9.8888
 20
117.7006
 30
0.0
 10
9.8888
 20
121.7006
 30
0.0
 10
9.8888
 20
121.7006
 30
0.0
 10
9.8888
 20
121.7006
 30
0.0
 10
9.8888
 20
121.7006
 30
0.0
 10
11.8888
 20
121.7006
 30
0.0
 10
11.8888
 20
121.7006
 30
0.0
 10
11.8888
 20
121.7006
 30
0.0
 10
11.8888
 20
121.7006
 30
0.0
 10
11.8888
 20
125.7006
 30
0.0
 10
11.8888
 20
125.7006
 30
0.0
 10
11.8888
 20
125.7006
 30
0.0
 10
11.8888
 20
125.7006
 30
0.0
 10
9.8888
 20
125.7006
 30
0.0
 10
9.8888
 20
125.7006
 30
0.0
 10
9.8888
 20
125.7006
 30
0.0
 10
9.8888
 20
125.7006
 30
0.0
 10
9.8888
 20
129.7006
 30
0.0
 10
9.8888
 20
129.7006
 30
0.0
 10
9.8888
 20
129.7006
 30
0.0
 10
9.8888
 20
129.7006
 30
0.0
 10
11.8888
 20
129.7006
 30
0.0
 10
11.8888
 20
129.7006
 30
0.0
 10
11.8888
 20
129.7006
 30
0.0
 10
11.8888
 20
129.7006
 30
0.0
 10
11.8888
 20
133.7006
 30
0.0
 10
11.8888
 20
133.7006
 30
0.0
 10
11.8888
 20
133.7006
 30
0.0
 10
11.8888
 20
133.7006
 30
0.0
 10
9.8888
 20
133.7006
 30
0.0
 10
9.8888
 20
133.7006
 30
0.0
 10
9.8888
 20
133.7006
 30
0.0
 10
9.8888
 20
133.7006
 30
0.0
 10
9.8888
 20
137.7006
 30
0.0
 10
9.8888
 20
137.7006
 30
0.0
  0
SPLINE
  5
61
330
1F
100
AcDbEntity
  8
layer 1
370
    25
100
AcDbSpline
210
0.0
220
0.0
230
1.0
 70
    11
 71
     3
 72
   468
 73
   464
 74
     0
 42
0.0000000001
 43
0.0000000001
 40
0.0
 40
0.0
 40
0.0
 40
0.0
 40
0.0086206896551724
 40
0.0086206896551724
 40
0.0086206896551724
 40
0.0086206896551724
 40
0.0172413793103448
 40
0.0172413793103448
 40
0.0172413793103448
 40
0.0172413793103448
 40
0.0258620689655172
 40
0.0258620689655172
 40
0.0258620689655172
 40
0.0258620689655172
 40
0.0344827586206897
 40
0.0344827586206897
 40
0.0344827586206897
 40
0.0344827586206897
 40
0.0431034482758621
 40
0.0431034482758621
 40
0.0431034482758621
 40
0.0431034482758621
 40
0.0517241379310345
 40
0.0517241379310345
 40
0.0517241379310345
 40
0.0517241379310345
 40
0.0603448275862069
 40
0.0603448275862069
 40
0.0603448275862069
 40
0.0603448275862069
 40
0.0689655172413793
 40
0.0689655172413793
 40
0.0689655172413793
 40
0.0689655172413793
 40
0.0775862068965517
 40
0.0775862068965517
 40
0.0775862068965517
 40
0.0775862068965517
 40
0.0862068965517242
 40
0.0862068965517242
 40
0.0862068965517242
 40
0.0862068965517242
 40
0.0948275862068966
 40
0.0948275862068966
 40
0.0948275862068966
 40
0.0948275862068966
 40
0.103448275862069
 40
0.103448275862069
 40
0.103448275862069
 40
0.103448275862069
 40
0.1120689655172414
 40
0.1120689655172414
 40
0.1120689655172414
 40
0.1120689655172414
 40
0.1206896551724138
 40
0.1206896551724138
 40
0.1206896551724138
 40
0.1206896551724138
 40
0.1293103448275862
 40
0.1293103448275862
 40
0.1293103448275862
 40
0.1293103448275862
 40
0.1379310344827586
 40
0.1379310344827586
 40
0.1379310344827586
 40
0.1379310344827586
 40
0.146551724137931
 40
0.146551724137931
 40
0.146551724137931
 40
0.146551724137931
 40
0.1551724137931035
 40
0.1551724137931035
 40
0.1551724137931035
 40
0.1551724137931035
 40
0.1637931034482759
 40
0.1637931034482759
 40
0.1637931034482759
 40
0.1637931034482759
 40
0.1724137931034483
 40
0.1724137931034483
 40
0.1724137931034483
 40
0.1724137931034483
 40
0.1810344827586207
 40
0.1810344827586207
 40
0.1810344827586207
 40
0.1810344827586207
 40
0.1896551724137931
 40
0.1896551724137931
 40
0.1896551724137931
 40
0.1896551724137931
 40
0.1982758620689655
 40
0.1982758620689655
 40
0.1982758620689655
 40
0.1982758620689655
 40
0.2068965517241379
 40
0.2068965517241379
 40
0.2068965517241379
 40
0.2068965517241379
 40
0.2155172413793103
 40
0.2155172413793103
 40
0.2155172413793103
 40
0.2155172413793103
 40
0.2241379310344827
 40
0.2241379310344827
 40
0.2241379310344827
 40
0.2241379310344827
 40
0.2327586206896551
 40
0.2327586206896551
 40
0.2327586206896551
 40
0.2327586206896551
 40
0.2413793103448275
 40
0.2413793103448275
 40
0.2413793103448275
 40
0.2413793103448275
 40
0.2499999999999999
 40
0.2499999999999999
 40
0.2499999999999999
 40
0.2499999999999999
 40
0.2586206896551723
 40
0.2586206896551723
 40
0.2586206896551723
 40
0.2586206896551723
 40
0.2672413793103448
 40
0.2672413793103448
 40
0.2672413793103448
 40
0.2672413793103448
 40
0.2758620689655172
 40
0.2758620689655172
 40
0.2758620689655172
 40
0.2758620689655172
 40
0.2844827586206896
 40
0.2844827586206896
 40
0.2844827586206896
 40
0.2844827586206896
 40
0.293103448275862
 40
0.293103448275862
 40
0.293103448275862
 40
0.293103448275862
 40
0.3017241379310345
 40
0.3017241379310345
 40
0.3017241379310345
 40
0.3017241379310345
 40
0.3103448275862069
 40
0.3103448275862069
 40
0.3103448275862069
 40
0.3103448275862069
 40
0.3189655172413793
 40
0.3189655172413793
 40
0.3189655172413793
 40
0.3189655172413793
 40
0.3275862068965518
 40
0.3275862068965518
 40
0.3275862068965518
 40
0.3275862068965518
 40
0.3362068965517242
 40
0.3362068965517242
 40
0.3362068965517242
 40
0.3362068965517242
 40
0.3448275862068966
 40
0.3448275862068966
 40
0.3448275862068966
 40
0.3448275862068966
 40
0.3534482758620691
 40
0.3534482758620691
 40
0.3534482758620691
 40
0.3534482758620691
 40
0.3620689655172415
 40
0.3620689655172415
 40
0.3620689655172415
 40
0.3620689655172415
 40
0.3706896551724139
 40
0.3706896551724139
 40
0.3706896551724139
 40
0.3706896551724139
 40
0.3793103448275864
 40
0.3793103448275864
 40
0.3793103448275864
 40
0.3793103448275864
 40
0.3879310344827588
 40
0.3879310344827588
 40
0.3879310344827588
 40
0.3879310344827588
 40
0.3965517241379312
 40
0.3965517241379312
 40
0.3965517241379312
 40
0.3965517241379312
 40
0.4051724137931036
 40
0.4051724137931036
 40
0.4051724137931036
 40
0.4051724137931036
 40
0.4137931034482761
 40
0.4137931034482761
 40
0.4137931034482761
 40
0.4137931034482761
 40
0.4224137931034485
 40
0.4224137931034485
 40
0.4224137931034485
 40
0.4224137931034485
 40
0.4310344827586209
 40
0.4310344827586209
 40
0.4310344827586209
 40
0.4310344827586209
 40
0.4396551724137934
 40
0.4396551724137934
 40
0.4396551724137934
 40
0.4396551724137934
 40
0.4482758620689658
 40
0.4482758620689658
 40
0.4482758620689658
 40
0.4482758620689658
 40
0.4568965517241382
 40
0.4568965517241382
 40
0.4568965517241382
 40
0.4568965517241382
 40
0.4655172413793107
 40
0.4655172413793107
 40
0.4655172413793107
 40
0.4655172413793107
 40
0.4741379310344831
 40
0.4741379310344831
 40
0.4741379310344831
 40
0.4741379310344831
 40
0.4827586206896555
 40
0.4827586206896555
 40
0.4827586206896555
 40
0.4827586206896555
 40
0.491379310344828
 40
0.491379310344828
 40
0.491379310344828
 40
0.491379310344828
 40
0.5000000000000003
 40
0.5000000000000003
 40
0.5000000000000003
 40
0.5000000000000003
 40
0.5086206896551727
 40
0.5086206896551727
 40
0.5086206896551727
 40
0.5086206896551727
 40
0.5172413793103451
 40
0.5172413793103451
 40
0.5172413793103451
 40
0.5172413793103451
 40
0.5258620689655175
 40
0.5258620689655175
 40
0.5258620689655175
 40
0.5258620689655175
 40
0.5344827586206898
 40
0.5344827586206898
 40
0.5344827586206898
 40
0.5344827586206898
 40
0.5431034482758622
 40
0.5431034482758622
 40
0.5431034482758622
 40
0.5431034482758622
 40
0.5517241379310346
 40
0.5517241379310346
 40
0.5517241379310346
 40
0.5517241379310346
 40
0.560344827586207
 40
0.560344827586207
 40
0.560344827586207
 40
0.560344827586207
 40
0.5689655172413793
 40
0.5689655172413793
 40
0.5689655172413793
 40
0.5689655172413793
 40
0.5775862068965517
 40
0.5775862068965517
 40
0.5775862068965517
 40
0.5775862068965517
 40
0.5862068965517241
 40
0.5862068965517241
 40
0.5862068965517241
 40
0.5862068965517241
 40
0.5948275862068965
 40
0.5948275862068965
 40
0.5948275862068965
 40
0.5948275862068965
 40
0.6034482758620688
 40
0.6034482758620688
 40
0.6034482758620688
 40
0.6034482758620688
 40
0.6120689655172412
 40
0.6120689655172412
 40
0.6120689655172412
 40
0.6120689655172412
 40
0.6206896551724136
 40
0.6206896551724136
 40
0.6206896551724136
 40
0.6206896551724136
 40
0.629310344827586
 40
0.629310344827586
 40
0.629310344827586
 40
0.629310344827586
 40
0.6379310344827583
 40
0.6379310344827583
 40
0.6379310344827583
 40
0.6379310344827583
 40
0.6465517241379307
 40
0.6465517241379307
 40
0.6465517241379307
 40
0.6465517241379307
 40
0.6551724137931031
 40
0.6551724137931031
 40
0.6551724137931031
 40
0.6551724137931031
 40
0.6637931034482755
 40
0.6637931034482755
 40
0.6637931034482755
 40
0.6637931034482755
 40
0.6724137931034478
 40
0.6724137931034478
 40
0.6724137931034478
 40
0.6724137931034478
 40
0.6810344827586202
 40
0.6810344827586202
 40
0.6810344827586202
 40
0.6810344827586202
 40
0.6896551724137926
 40
0.6896551724137926
 40
0.6896551724137926
 40
0.6896551724137926
 40
0.698275862068965
 40
0.698275862068965
 40
0.698275862068965
 40
0.698275862068965
 40
0.7068965517241373
 40
0.7068965517241373
 40
0.7068965517241373
 40
0.7068965517241373
 40
0.7155172413793097
 40
0.7155172413793097
 40
0.7155172413793097
 40
0.7155172413793097
 40
0.7241379310344821
 40
0.7241379310344821
 40
0.7241379310344821
 40
0.7241379310344821
 40
0.7327586206896545
 40
0.7327586206896545
 40
0.7327586206896545
 40
0.7327586206896545
 40
0.7413793103448268
 40
0.7413793103448268
 40
0.7413793103448268
 40
0.7413793103448268
 40
0.7499999999999992
 40
0.7499999999999992
 40
0.7499999999999992
 40
0.7499999999999992
 40
0.7586206896551716
 40
0.7586206896551716
 40
0.7586206896551716
 40
0.7586206896551716
 40
0.767241379310344
 40
0.767241379310344
 40
0.767241379310344
 40
0.767241379310344
 40
0.7758620689655163
 40
0.7758620689655163
 40
0.7758620689655163
 40
0.7758620689655163
 40
0.7844827586206887
 40
0.7844827586206887
 40
0.7844827586206887
 40
0.7844827586206887
 40
0.7931034482758611
 40
0.7931034482758611
 40
0.7931034482758611
 40
0.7931034482758611
 40
0.8017241379310335
 40
0.8017241379310335
 40
0.8017241379310335
 40
0.8017241379310335
 40
0.8103448275862059
 40
0.8103448275862059
 40
0.8103448275862059
 40
0.8103448275862059
 40
0.8189655172413782
 40
0.8189655172413782
 40
0.8189655172413782
 40
0.8189655172413782
 40
0.8275862068965506
 40
0.8275862068965506
 40
0.8275862068965506
 40
0.8275862068965506
 40
0.836206896551723
 40
0.836206896551723
 40
0.836206896551723
 40
0.836206896551723
 40
0.8448275862068954
 40
0.8448275862068954
 40
0.8448275862068954
 40
0.8448275862068954
 40
0.8534482758620677
 40
0.8534482758620677
 40
0.8534482758620677
 40
0.8534482758620677
 40
0.8620689655172401
 40
0.8620689655172401
 40
0.8620689655172401
 40
0.8620689655172401
 40
0.8706896551724125
 40
0.8706896551724125
 40
0.8706896551724125
 40
0.8706896551724125
 40
0.8793103448275849
 40
0.8793103448275849
 40
0.8793103448275849
 40
0.8793103448275849
 40
0.8879310344827572
 40
0.8879310344827572
 40
0.8879310344827572
 40
0.8879310344827572
 40
0.8965517241379296
 40
0.8965517241379296
 40
0.8965517241379296
 40
0.8965517241379296
 40
0.905172413793102
 40
0.905172413793102
 40
0.905172413793102
 40
0.905172413793102
 40
0.9137931034482744
 40
0.9137931034482744
 40
0.9137931034482744
 40
0.9137931034482744
 40
0.9224137931034467
 40
0.9224137931034467
 40
0.9224137931034467
 40
0.9224137931034467
 40
0.9310344827586191
 40
0.9310344827586191
 40
0.9310344827586191
 40
0.9310344827586191
 40
0.9396551724137915
 40
0.9396551724137915
 40
0.9396551724137915
 40
0.9396551724137915
 40
0.9482758620689639
 40
0.9482758620689639
 40
0.9482758620689639
 40
0.9482758620689639
 40
0.9568965517241362
 40
0.9568965517241362
 40
0.9568965517241362
 40
0.9568965517241362
 40
0.9655172413793086
 40
0.9655172413793086
 40
0.9655172413793086
 40
0.9655172413793086
 40
0.974137931034481
 40
0.974137931034481
 40
0.974137931034481
 40
0.974137931034481
 40
0.9827586206896534
 40
0.9827586206896534
 40
0.9827586206896534
 40
0.9827586206896534
 40
0.9913793103448257
 40
0.9913793103448257
 40
0.9913793103448257
 40
0.9913793103448257
 40
1.0
 40
1.0
 40
1.0
 40
1.0
 10
-3.3199
 20
96.3198
 30
0.0
 10
-3.3199
 20
96.3198
 30
0.0
 10
-0.0699
 20
96.3198
 30
0.0
 10
-0.0699
 20
96.3198
 30
0.0
 10
-0.0699
 20
96.3198
 30
0.0
 10
-0.0699
 20
96.3198
 30
0.0
 10
-0.0699
 20
94.3198
 30
0.0
 10
-0.0699
 20
94.3198
 30
0.0
 10
-0.0699
 20
94.3198
 30
0.0
 10
-0.0699
 20
94.3198
 30
0.0
 10
5.1801
 20
94.3198
 30
0.0
 10
5.1801
 20
94.3198
 30
0.0
 10
5.1801
 20
94.3198
 30
0.0
 10
5.1801
 20
94.3198
 30
0.0
 10
5.1801
 20
96.3198
 30
0.0
 10
5.1801
 20
96.3198
 30
0.0
 10
5.1801
 20
96.3198
 30
0.0
 10
5.1801
 20
96.3198
 30
0.0
 10
9.1801
 20
96.3198
 30
0.0
 10
9.1801
 20
96.3198
 30
0.0
 10
9.1801
 20
96.3198
 30
0.0
 10
9.1801
 20
96.3198
 30
0.0
 10
9.1801
 20
94.3198
 30
0.0
 10
9.1801
 20
94.3198
 30
0.0
 10
9.1801
 20
94.3198
 30
0.0
 10
9.1801
 20
94.3198
 30
0.0
 10
13.1801
 20
94.3198
 30
0.0
 10
13.1801
 20
94.3198
 30
0.0
 10
13.1801
 20
94.3198
 30
0.0
 10
13.1801
 20
94.3198
 30
0.0
 10
13.1801
 20
96.3198
 30
0.0
 10
13.1801
 20
96.3198
 30
0.0
 10
13.1801
 20
96.3198
 30
0.0
 10
13.1801
 20
96.3198
 30
0.0
 10
17.1801
 20
96.3198
 30
0.0
 10
17.1801
 20
96.3198
 30
0.0
 10
17.1801
 20
96.3198
 30
0.0
 10
17.1801
 20
96.3198
 30
0.0
 10
17.1801
 20
94.3198
 30
0.0
 10
17.1801
 20
94.3198
 30
0.0
 10
17.1801
 20
94.3198
 30
0.0
 10
17.1801
 20
94.3198
 30
0.0
 10
21.1801
 20
94.3198
 30
0.0
 10
21.1801
 20
94.3198
 30
0.0
 10
21.1801
 20
94.3198
 30
0.0
 10
21.1801
 20
94.3198
 30
0.0
 10
21.1801
 20
96.3198
 30
0.0
 10
21.1801
 20
96.3198
 30
0.0
 10
21.1801
 20
96.3198
 30
0.0
 10
21.1801
 20
96.3198
 30
0.0
 10
25.1801
 20
96.3198
 30
0.0
 10
25.1801
 20
96.3198
 30
0.0
 10
25.1801
 20
96.3198
 30
0.0
 10
25.1801
 20
96.3198
 30
0.0
 10
25.1801
 20
94.3198
 30
0.0
 10
25.1801
 20
94.3198
 30
0.0
 10
25.1801
 20
94.3198
 30
0.0
 10
25.1801
 20
94.3198
 30
0.0
 10
29.1801
 20
94.3198
 30
0.0
 10
29.1801
 20
94.3198
 30
0.0
 10
29.1801
 20
94.3198
 30
0.0
 10
29.1801
 20
94.3198
 30
0.0
 10
29.1801
 20
96.3198
 30
0.0
 10
29.1801
 20
96.3198
 30
0.0
 10
29.1801
 20
96.3198
 30
0.0
 10
29.1801
 20
96.3198
 30
0.0
 10
33.1801
 20
96.3198
 30
0.0
 10
33.1801
 20
96.3198
 30
0.0
 10
33.1801
 20
96.3198
 30
0.0
 10
33.1801
 20
96.3198
 30
0.0
 10
33.1801
 20
94.3198
 30
0.0
 10
33.1801
 20
94.3198
 30
0.0
 10
33.1801
 20
94.3198
 30
0.0
 10
33.1801
 20
94.3198
 30
0.0
 10
37.1801
 20
94.3198
 30
0.0
 10
37.1801
 20
94.3198
 30
0.0
 10
37.1801
 20
94.3198
 30
0.0
 10
37.1801
 20
94.3198
 30
0.0
 10
37.1801
 20
96.3198
 30
0.0
 10
37.1801
 20
96.3198
 30
0.0
 10
37.1801
 20
96.3198
 30
0.0
 10
37.1801
 20
96.3198
 30
0.0
 10
41.1801
 20
96.3198
 30
0.0
 10
41.1801
 20
96.3198
 30
0.0
 10
41.1801
 20
96.3198
 30
0.0
 10
41.1801
 20
96.3198
 30
0.0
 10
41.1801
 20
94.3198
 30
0.0
 10
41.1801
 20
94.3198
 30
0.0
 10
41.1801
 20
94.3198
 30
0.0
 10
41.1801
 20
94.3198
 30
0.0
 10
45.1801
 20
94.3198
 30
0.0
 10
45.1801
 20
94.3198
 30
0.0
 10
45.1801
 20
94.3198
 30
0.0
 10
45.1801
 20
94.3198
 30
0.0
 10
45.1801
 20
96.3198
 30
0.0
 10
45.1801
 20
96.3198
 30
0.0
 10
45.1801
 20
96.3198
 30
0.0
 10
45.1801
 20
96.3198
 30
0.0
 10
49.1801
 20
96.3198
 30
0.0
 10
49.1801
 20
96.3198
 30
0.0
 10
49.1801
 20
96.3198
 30
0.0
 10
49.1801
 20
96.3198
 30
0.0
 10
49.1801
 20
94.3198
 30
0.0
 10
49.1801
 20
94.3198
 30
0.0
 10
49.1801
 20
94.3198
 30
0.0
 10
49.1801
 20
94.3198
 30
0.0
 10
53.1801
 20
94.3198
 30
0.0
 10
53.1801
 20
94.3198
 30
0.0
 10
53.1801
 20
94.3198
 30
0.0
 10
53.1801
 20
94.3198
 30
0.0
 10
53.1801
 20
96.3198
 30
0.0
 10
53.1801
 20
96.3198
 30
0.0
 10
53.1801
 20
96.3198
 30
0.0
 10
53.1801
 20
96.3198
 30
0.0
 10
57.1801
 20
96.3198
 30
0.0
 10
57.1801
 20
96.3198
 30
0.0
 10
57.1801
 20
96.3198
 30
0.0
 10
57.1801
 20
96.3198
 30
0.0
 10
57.1801
 20
94.3198
 30
0.0
 10
57.1801
 20
94.3198
 30
0.0
 10
57.1801
 20
94.3198
 30
0.0
 10
57.1801
 20
94.3198
 30
0.0
 10
61.1801
 20
94.3198
 30
0.0
 10
61.1801
 20
94.3198
 30
0.0
 10
61.1801
 20
94.3198
 30
0.0
 10
61.1801
 20
94.3198
 30
0.0
 10
61.1801
 20
96.3198
 30
0.0
 10
61.1801
 20
96.3198
 30
0.0
 10
61.1801
 20
96.3198
 30
0.0
 10
61.1801
 20
96.3198
 30
0.0
 10
65.1801
 20
96.3198
 30
0.0
 10
65.1801
 20
96.3198
 30
0.0
 10
65.1801
 20
96.3198
 30
0.0
 10
65.1801
 20
96.3198
 30
0.0
 10
65.1801
 20
94.3198
 30
0.0
 10
65.1801
 20
94.3198
 30
0.0
 10
65.1801
 20
94.3198
 30
0.0
 10
65.1801
 20
94.3198
 30
0.0
 10
69.1801
 20
94.3198
 30
0.0
 10
69.1801
 20
94.3198
 30
0.0
 10
69.1801
 20
94.3198
 30
0.0
 10
69.1801
 20
94.3198
 30
0.0
 10
69.1801
 20
96.3198
 30
0.0
 10
69.1801
 20
96.3198
 30
0.0
 10
69.1801
 20
96.3198
 30
0.0
 10
69.1801
 20
96.3198
 30
0.0
 10
73.1801
 20
96.3198
 30
0.0
 10
73.1801
 20
96.3198
 30
0.0
 10
73.1801
 20
96.3198
 30
0.0
 10
73.1801
 20
96.3198
 30
0.0
 10
73.1801
 20
94.3198
 30
0.0
 10
73.1801
 20
94.3198
 30
0.0
 10
73.1801
 20
94.3198
 30
0.0
 10
73.1801
 20
94.3198
 30
0.0
 10
77.1801
 20
94.3198
 30
0.0
 10
77.1801
 20
94.3198
 30
0.0
 10
77.1801
 20
94.3198
 30
0.0
 10
77.1801
 20
94.3198
 30
0.0
 10
77.1801
 20
96.3198
 30
0.0
 10
77.1801
 20
96.3198
 30
0.0
 10
77.1801
 20
96.3198
 30
0.0
 10
77.1801
 20
96.3198
 30
0.0
 10
81.1801
 20
96.3198
 30
0.0
 10
81.1801
 20
96.3198
 30
0.0
 10
81.1801
 20
96.3198
 30
0.0
 10
81.1801
 20
96.3198
 30
0.0
 10
81.1801
 20
94.3198
 30
0.0
 10
81.1801
 20
94.3198
 30
0.0
 10
81.1801
 20
94.3198
 30
0.0
 10
81.1801
 20
94.3198
 30
0.0
 10
85.1801
 20
94.3198
 30
0.0
 10
85.1801
 20
94.3198
 30
0.0
 10
85.1801
 20
94.3198
 30
0.0
 10
85.1801
 20
94.3198
 30
0.0
 10
85.1801
 20
96.3198
 30
0.0
 10
85.1801
 20
96.3198
 30
0.0
 10
85.1801
 20
96.3198
 30
0.0
 10
85.1801
 20
96.3198
 30
0.0
 10
89.1801
 20
96.3198
 30
0.0
 10
89.1801
 20
96.3198
 30
0.0
 10
89.1801
 20
96.3198
 30
0.0
 10
89.1801
 20
96.3198
 30
0.0
 10
89.1801
 20
94.3198
 30
0.0
 10
89.1801
 20
94.3198
 30
0.0
 10
89.1801
 20
94.3198
 30
0.0
 10
89.1801
 20
94.3198
 30
0.0
 10
94.4301
 20
94.3198
 30
0.0
 10
94.4301
 20
94.3198
 30
0.0
 10
94.4301
 20
94.3198
 30
0.0
 10
94.4301
 20
94.3198
 30
0.0
 10
94.4301
 20
96.3198
 30
0.0
 10
94.4301
 20
96.3198
 30
0.0
 10
94.4301
 20
96.3198
 30
0.0
 10
94.4301
 20
96.3198
 30
0.0
 10
97.6801
 20
96.3198
 30
0.0
 10
97.6801
 20
96.3198
 30
0.0
 10
97.6801
 20
96.3198
 30
0.0
 10
97.6801
 20
96.3198
 30
0.0
 10
97.6801
 20
92.3198
 30
0.0
 10
97.6801
 20
92.3198
 30
0.0
 10
97.6801
 20
92.3198
 30
0.0
 10
97.6801
 20
92.3198
 30
0.0
 10
99.6801
 20
92.3198
 30
0.0
 10
99.6801
 20
92.3198
 30
0.0
 10
99.6801
 20
92.3198
 30
0.0
 10
99.6801
 20
92.3198
 30
0.0
 10
99.6801
 20
88.3198
 30
0.0
 10
99.6801
 20
88.3198
 30
0.0
 10
99.6801
 20
88.3198
 30
0.0
 10
99.6801
 20
88.3198
 30
0.0
 10
97.6801
 20
88.3198
 30
0.0
 10
97.6801
 20
88.3198
 30
0.0
 10
97.6801
 20
88.3198
 30
0.0
 10
97.6801
 20
88.3198
 30
0.0
 10
97.6801
 20
84.3198
 30
0.0
 10
97.6801
 20
84.3198
 30
0.0
 10
97.6801
 20
84.3198
 30
0.0
 10
97.6801
 20
84.3198
 30
0.0
 10
99.6801
 20
84.3198
 30
0.0
 10
99.6801
 20
84.3198
 30
0.0
 10
99.6801
 20
84.3198
 30
0.0
 10
99.6801
 20
84.3198
 30
0.0
 10
99.6801
 20
80.3198
 30
0.0
 10
99.6801
 20
80.3198
 30
0.0
 10
99.6801
 20
80.3198
 30
0.0
 10
99.6801
 20
80.3198
 30
0.0
 10
97.6801
 20
80.3198
 30
0.0
 10
97.6801
 20
80.3198
 30
0.0
 10
97.6801
 20
80.3198
 30
0.0
 10
97.6801
 20
80.3198
 30
0.0
 10
97.6801
 20
76.3198
 30
0.0
 10
97.6801
 20
76.3198
 30
0.0
 10
97.6801
 20
76.3198
 30
0.0
 10
97.6801
 20
76.3198
 30
0.0
 10
94.4301
 20
76.3198
 30
0.0
 10
94.4301
 20
76.3198
 30
0.0
 10
94.4301
 20
76.3198
 30
0.0
 10
94.4301
 20
76.3198
 30
0.0
 10
94.4301
 20
78.3198
 30
0.0
 10
94.4301
 20
78.3198
 30
0.0
 10
94.4301
 20
78.3198
 30
0.0
 10
94.4301
 20
78.3198
 30
0.0
 10
89.1801
 20
78.3198
 30
0.0
 10
89.1801
 20
78.3198
 30
0.0
 10
89.1801
 20
78.3198
 30
0.0
 10
89.1801
 20
78.3198
 30
0.0
 10
89.1801
 20
76.3198
 30
0.0
 10
89.1801
 20
76.3198
 30
0.0
 10
89.1801
 20
76.3198
 30
0.0
 10
89.1801
 20
76.3198
 30
0.0
 10
85.1801
 20
76.3198
 30
0.0
 10
85.1801
 20
76.3198
 30
0.0
 10
85.1801
 20
76.3198
 30
0.0
 10
85.1801
 20
76.3198
 30
0.0
 10
85.1801
 20
78.3198
 30
0.0
 10
85.1801
 20
78.3198
 30
0.0
 10
85.1801
 20
78.3198
 30
0.0
 10
85.1801
 20
78.3198
 30
0.0
 10
81.1801
 20
78.3198
 30
0.0
 10
81.1801
 20
78.3198
 30
0.0
 10
81.1801
 20
78.3198
 30
0.0
 10
81.1801
 20
78.3198
 30
0.0
 10
81.1801
 20
76.3198
 30
0.0
 10
81.1801
 20
76.3198
 30
0.0
 10
81.1801
 20
76.3198
 30
0.0
 10
81.1801
 20
76.3198
 30
0.0
 10
77.1801
 20
76.3198
 30
0.0
 10
77.1801
 20
76.3198
 30
0.0
 10
77.1801
 20
76.3198
 30
0.0
 10
77.1801
 20
76.3198
 30
0.0
 10
77.1801
 20
78.3198
 30
0.0
 10
77.1801
 20
78.3198
 30
0.0
 10
77.1801
 20
78.3198
 30
0.0
 10
77.1801
 20
78.3198
 30
0.0
 10
73.1801
 20
78.3198
 30
0.0
 10
73.1801
 20
78.3198
 30
0.0
 10
73.1801
 20
78.3198
 30
0.0
 10
73.1801
 20
78.3198
 30
0.0
 10
73.1801
 20
76.3198
 30
0.0
 10
73.1801
 20
76.3198
 30
0.0
 10
73.1801
 20
76.3198
 30
0.0
 10
73.1801
 20
76.3198
 30
0.0
 10
69.1801
 20
76.3198
 30
0.0
 10
69.1801
 20
76.3198
 30
0.0
 10
69.1801
 20
76.3198
 30
0.0
 10
69.1801
 20
76.3198
 30
0.0
 10
69.1801
 20
78.3198
 30
0.0
 10
69.1801
 20
78.3198
 30
0.0
 10
69.1801
 20
78.3198
 30
0.0
 10
69.1801
 20
78.3198
 30
0.0
 10
65.1801
 20
78.3198
 30
0.0
 10
65.1801
 20
78.3198
 30
0.0
 10
65.1801
 20
78.3198
 30
0.0
 10
65.1801
 20
78.3198
 30
0.0
 10
65.1801
 20
76.3198
 30
0.0
 10
65.1801
 20
76.3198
 30
0.0
 10
65.1801
 20
76.3198
 30
0.0
 10
65.1801
 20
76.3198
 30
0.0
 10
61.1801
 20
76.3198
 30
0.0
 10
61.1801
 20
76.3198
 30
0.0
 10
61.1801
 20
76.3198
 30
0.0
 10
61.1801
 20
76.3198
 30
0.0
 10
61.1801
 20
78.3198
 30
0.0
 10
61.1801
 20
78.3198
 30
0.0
 10
61.1801
 20
78.3198
 30
0.0
 10
61.1801
 20
78.3198
 30
0.0
 10
57.1801
 20
78.3198
 30
0.0
 10
57.1801
 20
78.3198
 30
0.0
 10
57.1801
 20
78.3198
 30
0.0
 10
57.1801
 20
78.3198
 30
0.0
 10
57.1801
 20
76.3198
 30
0.0
 10
57.1801
 20
76.3198
 30
0.0
 10
57.1801
 20
76.3198
 30
0.0
 10
57.1801
 20
76.3198
 30
0.0
 10
53.1801
 20
76.3198
 30
0.0
 10
53.1801
 20
76.3198
 30
0.0
 10
53.1801
 20
76.3198
 30
0.0
 10
53.1801
 20
76.3198
 30
0.0
 10
53.1801
 20
78.3198
 30
0.0
 10
53.1801
 20
78.3198
 30
0.0
 10
53.1801
 20
78.3198
 30
0.0
 10
53.1801
 20
78.3198
 30
0.0
 10
49.1801
 20
78.3198
 30
0.0
 10
49.1801
 20
78.3198
 30
0.0
 10
49.1801
 20
78.3198
 30
0.0
 10
49.1801
 20
78.3198
 30
0.0
 10
49.1801
 20
76.3198
 30
0.0
 10
49.1801
 20
76.3198
 30
0.0
 10
49.1801
 20
76.3198
 30
0.0
 10
49.1801
 20
76.3198
 30
0.0
 10
45.1801
 20
76.3198
 30
0.0
 10
45.1801
 20
76.3198
 30
0.0
 10
45.1801
 20
76.3198
 30
0.0
 10
45.1801
 20
76.3198
 30
0.0
 10
45.1801
 20
78.3198
 30
0.0
 10
45.1801
 20
78.3198
 30
0.0
 10
45.1801
 20
78.3198
 30
0.0
 10
45.1801
 20
78.3198
 30
0.0
 10
41.1801
 20
78.3198
 30
0.0
 10
41.1801
 20
78.3198
 30
0.0
 10
41.1801
 20
78.3198
 30
0.0
 10
41.1801
 20
78.3198
 30
0.0
 10
41.1801
 20
76.3198
 30
0.0
 10
41.1801
 20
76.3198
 30
0.0
 10
41.1801
 20
76.3198
 30
0.0
 10
41.1801
 20
76.3198
 30
0.0
 10
37.1801
 20
76.3198
 30
0.0
 10
37.1801
 20
76.3198
 30
0.0
 10
37.1801
 20
76.3198
 30
0.0
 10
37.1801
 20
76.3198
 30
0.0
 10
37.1801
 20
78.3198
 30
0.0
 10
37.1801
 20
78.3198
 30
0.0
 10
37.1801
 20
78.3198
 30
0.0
 10
37.1801
 20
78.3198
 30
0.0
 10
33.1801
 20
78.3198
 30
0.0
 10
33.1801
 20
78.3198
 30
0.0
 10
33.1801
 20
78.3198
 30
0.0
 10
33.1801
 20
78.3198
 30
0.0
 10
33.1801
 20
76.3198
 30
0.0
 10
33.1801
 20
76.3198
 30
0.0
 10
33.1801
 20
76.3198
 30
0.0
 10
33.1801
 20
76.3198
 30
0.0
 10
29.1801
 20
76.3198
 30
0.0
 10
29.1801
 20
76.3198
 30
0.0
 10
29.1801
 20
76.3198
 30
0.0
 10
29.1801
 20
76.3198
 30
0.0
 10
29.1801
 20
78.3198
 30
0.0
 10
29.1801
 20
78.3198
 30
0.0
 10
29.1801
 20
78.3198
 30
0.0
 10
29.1801
 20
78.3198
 30
0.0
 10
25.1801
 20
78.3198
 30
0.0
 10
25.1801
 20
78.3198
 30
0.0
 10
25.1801
 20
78.3198
 30
0.0
 10
25.1801
 20
78.3198
 30
0.0
 10
25.1801
 20
76.3198
 30
0.0
 10
25.1801
 20
76.3198
 30
0.0
 10
25.1801
 20
76.3198
 30
0.0
 10
25.1801
 20
76.3198
 30
0.0
 10
21.1801
 20
76.3198
 30
0.0
 10
21.1801
 20
76.3198
 30
0.0
 10
21.1801
 20
76.3198
 30
0.0
 10
21.1801
 20
76.3198
 30
0.0
 10
21.1801
 20
78.3198
 30
0.0
 10
21.1801
 20
78.3198
 30
0.0
 10
21.1801
 20
78.3198
 30
0.0
 10
21.1801
 20
78.3198
 30
0.0
 10
17.1801
 20
78.3198
 30
0.0
 10
17.1801
 20
78.3198
 30
0.0
 10
17.1801
 20
78.3198
 30
0.0
 10
17.1801
 20
78.3198
 30
0.0
 10
17.1801
 20
76.3198
 30
0.0
 10
17.1801
 20
76.3198
 30
0.0
 10
17.1801
 20
76.3198
 30
0.0
 10
17.1801
 20
76.3198
 30
0.0
 10
13.1801
 20
76.3198
 30
0.0
 10
13.1801
 20
76.3198
 30
0.0
 10
13.1801
 20
76.3198
 30
0.0
 10
13.1801
 20
76.3198
 30
0.0
 10
13.1801
 20
78.3198
 30
0.0
 10
13.1801
 20
78.3198
 30
0.0
 10
13.1801
 20
78.3198
 30
0.0
 10
13.1801
 20
78.3198
 30
0.0
 10
9.1801
 20
78.3198
 30
0.0
 10
9.1801
 20
78.3198
 30
0.0
 10
9.1801
 20
78.3198
 30
0.0
 10
9.1801
 20
78.3198
 30
0.0
 10
9.1801
 20
76.3198
 30
0.0
 10
9.1801
 20
76.3198
 30
0.0
 10
9.1801
 20
76.3198
 30
0.0
 10
9.1801
 20
76.3198
 30
0.0
 10
5.1801
 20
76.3198
 30
0.0
 10
5.1801
 20
76.3198
 30
0.0
 10
5.1801
 20
76.3198
 30
0.0
 10
5.1801
 20
76.3198
 30
0.0
 10
5.1801
 20
78.3198
 30
0.0
 10
5.1801
 20
78.3198
 30
0.0
 10
5.1801
 20
78.3198
 30
0.0
 10
5.1801
 20
78.3198
 30
0.0
 10
-0.0699
 20
78.3198
 30
0.0
 10
-0.0699
 20
78.3198
 30
0.0
 10
-0.0699
 20
78.3198
 30
0.0
 10
-0.0699
 20
78.3198
 30
0.0
 10
-0.0699
 20
76.3198
 30
0.0
 10
-0.0699
 20
76.3198
 30
0.0
 10
-0.0699
 20
76.3198
 30
0.0
 10
-0.0699
 20
76.3198
 30
0.0
 10
-3.3199
 20
76.3198
 30
0.0
 10
-3.3199
 20
76.3198
 30
0.0
 10
-3.3199
 20
76.3198
 30
0.0
 10
-3.3199
 20
76.3198
 30
0.0
 10
-3.3199
 20
80.3198
 30
0.0
 10
-3.3199
 20
80.3198
 30
0.0
 10
-3.3199
 20
80.3198
 30
0.0
 10
-3.3199
 20
80.3198
 30
0.0
 10
-5.3199
 20
80.3198
 30
0.0
 10
-5.3199
 20
80.3198
 30
0.0
 10
-5.3199
 20
80.3198
 30
0.0
 10
-5.3199
 20
80.3198
 30
0.0
 10
-5.3199
 20
84.3198
 30
0.0
 10
-5.3199
 20
84.3198
 30
0.0
 10
-5.3199
 20
84.3198
 30
0.0
 10
-5.3199
 20
84.3198
 30
0.0
 10
-3.3199
 20
84.3198
 30
0.0
 10
-3.3199
 20
84.3198
 30
0.0
 10
-3.3199
 20
84.3198
 30
0.0
 10
-3.3199
 20
84.3198
 30
0.0
 10
-3.3199
 20
88.3198
 30
0.0
 10
-3.3199
 20
88.3198
 30
0.0
 10
-3.3199
 20
88.3198
 30
0.0
 10
-3.3199
 20
88.3198
 30
0.0
 10
-5.3199
 20
88.3198
 30
0.0
 10
-5.3199
 20
88.3198
 30
0.0
 10
-5.3199
 20
88.3198
 30
0.0
 10
-5.3199
 20
88.3198
 30
0.0
 10
-5.3199
 20
92.3198
 30
0.0
 10
-5.3199
 20
92.3198
 30
0.0
 10
-5.3199
 20
92.3198
 30
0.0
 10
-5.3199
 20
92.3198
 30
0.0
 10
-3.3199
 20
92.3198
 30
0.0
 10
-3.3199
 20
92.3198
 30
0.0
 10
-3.3199
 20
92.3198
 30
0.0
 10
-3.3199
 20
92.3198
 30
0.0
 10
-3.3199
 20
96.3198
 30
0.0
 10
-3.3199
 20
96.3198
 30
0.0
  0
SPLINE
  5
62
330
1F
100
AcDbEntity
  8
layer 1
370
    25
100
AcDbSpline
210
0.0
220
0.0
230
1.0
 70
    11
 71
     3
 72
   468
 73
   464
 74
     0
 42
0.0000000001
 43
0.0000000001
 40
0.0
 40
0.0
 40
0.0
 40
0.0
 40
0.0086206896551724
 40
0.0086206896551724
 40
0.0086206896551724
 40
0.0086206896551724
 40
0.0172413793103448
 40
0.0172413793103448
 40
0.0172413793103448
 40
0.0172413793103448
 40
0.0258620689655172
 40
0.0258620689655172
 40
0.0258620689655172
 40
0.0258620689655172
 40
0.0344827586206897
 40
0.0344827586206897
 40
0.0344827586206897
 40
0.0344827586206897
 40
0.0431034482758621
 40
0.0431034482758621
 40
0.0431034482758621
 40
0.0431034482758621
 40
0.0517241379310345
 40
0.0517241379310345
 40
0.0517241379310345
 40
0.0517241379310345
 40
0.0603448275862069
 40
0.0603448275862069
 40
0.0603448275862069
 40
0.0603448275862069
 40
0.0689655172413793
 40
0.0689655172413793
 40
0.0689655172413793
 40
0.0689655172413793
 40
0.0775862068965517
 40
0.0775862068965517
 40
0.0775862068965517
 40
0.0775862068965517
 40
0.0862068965517242
 40
0.0862068965517242
 40
0.0862068965517242
 40
0.0862068965517242
 40
0.0948275862068966
 40
0.0948275862068966
 40
0.0948275862068966
 40
0.0948275862068966
 40
0.103448275862069
 40
0.103448275862069
 40
0.103448275862069
 40
0.103448275862069
 40
0.1120689655172414
 40
0.1120689655172414
 40
0.1120689655172414
 40
0.1120689655172414
 40
0.1206896551724138
 40
0.1206896551724138
 40
0.1206896551724138
 40
0.1206896551724138
 40
0.1293103448275862
 40
0.1293103448275862
 40
0.1293103448275862
 40
0.1293103448275862
 40
0.1379310344827586
 40
0.1379310344827586
 40
0.1379310344827586
 40
0.1379310344827586
 40
0.146551724137931
 40
0.146551724137931
 40
0.146551724137931
 40
0.146551724137931
 40
0.1551724137931035
 40
0.1551724137931035
 40
0.1551724137931035
 40
0.1551724137931035
 40
0.1637931034482759
 40
0.1637931034482759
 40
0.1637931034482759
 40
0.1637931034482759
 40
0.1724137931034483
 40
0.1724137931034483
 40
0.1724137931034483
 40
0.1724137931034483
 40
0.1810344827586207
 40
0.1810344827586207
 40
0.1810344827586207
 40
0.1810344827586207
 40
0.1896551724137931
 40
0.1896551724137931
 40
0.1896551724137931
 40
0.1896551724137931
 40
0.1982758620689655
 40
0.1982758620689655
 40
0.1982758620689655
 40
0.1982758620689655
 40
0.2068965517241379
 40
0.2068965517241379
 40
0.2068965517241379
 40
0.2068965517241379
 40
0.2155172413793103
 40
0.2155172413793103
 40
0.2155172413793103
 40
0.2155172413793103
 40
0.2241379310344827
 40
0.2241379310344827
 40
0.2241379310344827
 40
0.2241379310344827
 40
0.2327586206896551
 40
0.2327586206896551
 40
0.2327586206896551
 40
0.2327586206896551
 40
0.2413793103448275
 40
0.2413793103448275
 40
0.2413793103448275
 40
0.2413793103448275
 40
0.2499999999999999
 40
0.2499999999999999
 40
0.2499999999999999
 40
0.2499999999999999
 40
0.2586206896551723
 40
0.2586206896551723
 40
0.2586206896551723
 40
0.2586206896551723
 40
0.2672413793103448
 40
0.2672413793103448
 40
0.2672413793103448
 40
0.2672413793103448
 40
0.2758620689655172
 40
0.2758620689655172
 40
0.2758620689655172
 40
0.2758620689655172
 40
0.2844827586206896
 40
0.2844827586206896
 40
0.2844827586206896
 40
0.2844827586206896
 40
0.293103448275862
 40
0.293103448275862
 40
0.293103448275862
 40
0.293103448275862
 40
0.3017241379310345
 40
0.3017241379310345
 40
0.3017241379310345
 40
0.3017241379310345
 40
0.3103448275862069
 40
0.3103448275862069
 40
0.3103448275862069
 40
0.3103448275862069
 40
0.3189655172413793
 40
0.3189655172413793
 40
0.3189655172413793
 40
0.3189655172413793
 40
0.3275862068965518
 40
0.3275862068965518
 40
0.3275862068965518
 40
0.3275862068965518
 40
0.3362068965517242
 40
0.3362068965517242
 40
0.3362068965517242
 40
0.3362068965517242
 40
0.3448275862068966
 40
0.3448275862068966
 40
0.3448275862068966
 40
0.3448275862068966
 40
0.3534482758620691
 40
0.3534482758620691
 40
0.3534482758620691
 40
0.3534482758620691
 40
0.3620689655172415
 40
0.3620689655172415
 40
0.3620689655172415
 40
0.3620689655172415
 40
0.3706896551724139
 40
0.3706896551724139
 40
0.3706896551724139
 40
0.3706896551724139
 40
0.3793103448275864
 40
0.3793103448275864
 40
0.3793103448275864
 40
0.3793103448275864
 40
0.3879310344827588
 40
0.3879310344827588
 40
0.3879310344827588
 40
0.3879310344827588
 40
0.3965517241379312
 40
0.3965517241379312
 40
0.3965517241379312
 40
0.3965517241379312
 40
0.4051724137931036
 40
0.4051724137931036
 40
0.4051724137931036
 40
0.4051724137931036
 40
0.4137931034482761
 40
0.4137931034482761
 40
0.4137931034482761
 40
0.4137931034482761
 40
0.4224137931034485
 40
0.4224137931034485
 40
0.4224137931034485
 40
0.4224137931034485
 40
0.4310344827586209
 40
0.4310344827586209
 40
0.4310344827586209
 40
0.4310344827586209
 40
0.4396551724137934
 40
0.4396551724137934
 40
0.4396551724137934
 40
0.4396551724137934
 40
0.4482758620689658
 40
0.4482758620689658
 40
0.4482758620689658
 40
0.4482758620689658
 40
0.4568965517241382
 40
0.4568965517241382
 40
0.4568965517241382
 40
0.4568965517241382
 40
0.4655172413793107
 40
0.4655172413793107
 40
0.4655172413793107
 40
0.4655172413793107
 40
0.4741379310344831
 40
0.4741379310344831
 40
0.4741379310344831
 40
0.4741379310344831
 40
0.4827586206896555
 40
0.4827586206896555
 40
0.4827586206896555
 40
0.4827586206896555
 40
0.491379310344828
 40
0.491379310344828
 40
0.491379310344828
 40
0.491379310344828
 40
0.5000000000000003
 40
0.5000000000000003
 40
0.5000000000000003
 40
0.5000000000000003
 40
0.5086206896551727
 40
0.5086206896551727
 40
0.5086206896551727
 40
0.5086206896551727
 40
0.5172413793103451
 40
0.5172413793103451
 40
0.5172413793103451
 40
0.5172413793103451
 40
0.5258620689655175
 40
0.5258620689655175
 40
0.5258620689655175
 40
0.5258620689655175
 40
0.5344827586206898
 40
0.5344827586206898
 40
0.5344827586206898
 40
0.5344827586206898
 40
0.5431034482758622
 40
0.5431034482758622
 40
0.5431034482758622
 40
0.5431034482758622
 40
0.5517241379310346
 40
0.5517241379310346
 40
0.5517241379310346
 40
0.5517241379310346
 40
0.560344827586207
 40
0.560344827586207
 40
0.560344827586207
 40
0.560344827586207
 40
0.5689655172413793
 40
0.5689655172413793
 40
0.5689655172413793
 40
0.5689655172413793
 40
0.5775862068965517
 40
0.5775862068965517
 40
0.5775862068965517
 40
0.5775862068965517
 40
0.5862068965517241
 40
0.5862068965517241
 40
0.5862068965517241
 40
0.5862068965517241
 40
0.5948275862068965
 40
0.5948275862068965
 40
0.5948275862068965
 40
0.5948275862068965
 40
0.6034482758620688
 40
0.6034482758620688
 40
0.6034482758620688
 40
0.6034482758620688
 40
0.6120689655172412
 40
0.6120689655172412
 40
0.6120689655172412
 40
0.6120689655172412
 40
0.6206896551724136
 40
0.6206896551724136
 40
0.6206896551724136
 40
0.6206896551724136
 40
0.629310344827586
 40
0.629310344827586
 40
0.629310344827586
 40
0.629310344827586
 40
0.6379310344827583
 40
0.6379310344827583
 40
0.6379310344827583
 40
0.6379310344827583
 40
0.6465517241379307
 40
0.6465517241379307
 40
0.6465517241379307
 40
0.6465517241379307
 40
0.6551724137931031
 40
0.6551724137931031
 40
0.6551724137931031
 40
0.6551724137931031
 40
0.6637931034482755
 40
0.6637931034482755
 40
0.6637931034482755
 40
0.6637931034482755
 40
0.6724137931034478
 40
0.6724137931034478
 40
0.6724137931034478
 40
0.6724137931034478
 40
0.6810344827586202
 40
0.6810344827586202
 40
0.6810344827586202
 40
0.6810344827586202
 40
0.6896551724137926
 40
0.6896551724137926
 40
0.6896551724137926
 40
0.6896551724137926
 40
0.698275862068965
 40
0.698275862068965
 40
0.698275862068965
 40
0.698275862068965
 40
0.7068965517241373
 40
0.7068965517241373
 40
0.7068965517241373
 40
0.7068965517241373
 40
0.7155172413793097
 40
0.7155172413793097
 40
0.7155172413793097
 40
0.7155172413793097
 40
0.7241379310344821
 40
0.7241379310344821
 40
0.7241379310344821
 40
0.7241379310344821
 40
0.7327586206896545
 40
0.7327586206896545
 40
0.7327586206896545
 40
0.7327586206896545
 40
0.7413793103448268
 40
0.7413793103448268
 40
0.7413793103448268
 40
0.7413793103448268
 40
0.7499999999999992
 40
0.7499999999999992
 40
0.7499999999999992
 40
0.7499999999999992
 40
0.7586206896551716
 40
0.7586206896551716
 40
0.7586206896551716
 40
0.7586206896551716
 40
0.767241379310344
 40
0.767241379310344
 40
0.767241379310344
 40
0.767241379310344
 40
0.7758620689655163
 40
0.7758620689655163
 40
0.7758620689655163
 40
0.7758620689655163
 40
0.7844827586206887
 40
0.7844827586206887
 40
0.7844827586206887
 40
0.7844827586206887
 40
0.7931034482758611
 40
0.7931034482758611
 40
0.7931034482758611
 40
0.7931034482758611
 40
0.8017241379310335
 40
0.8017241379310335
 40
0.8017241379310335
 40
0.8017241379310335
 40
0.8103448275862059
 40
0.8103448275862059
 40
0.8103448275862059
 40
0.8103448275862059
 40
0.8189655172413782
 40
0.8189655172413782
 40
0.8189655172413782
 40
0.8189655172413782
 40
0.8275862068965506
 40
0.8275862068965506
 40
0.8275862068965506
 40
0.8275862068965506
 40
0.836206896551723
 40
0.836206896551723
 40
0.836206896551723
 40
0.836206896551723
 40
0.8448275862068954
 40
0.8448275862068954
 40
0.8448275862068954
 40
0.8448275862068954
 40
0.8534482758620677
 40
0.8534482758620677
 40
0.8534482758620677
 40
0.8534482758620677
 40
0.8620689655172401
 40
0.8620689655172401
 40
0.8620689655172401
 40
0.8620689655172401
 40
0.8706896551724125
 40
0.8706896551724125
 40
0.8706896551724125
 40
0.8706896551724125
 40
0.8793103448275849
 40
0.8793103448275849
 40
0.8793103448275849
 40
0.8793103448275849
 40
0.8879310344827572
 40
0.8879310344827572
 40
0.8879310344827572
 40
0.8879310344827572
 40
0.8965517241379296
 40
0.8965517241379296
 40
0.8965517241379296
 40
0.8965517241379296
 40
0.905172413793102
 40
0.905172413793102
 40
0.905172413793102
 40
0.905172413793102
 40
0.9137931034482744
 40
0.9137931034482744
 40
0.9137931034482744
 40
0.9137931034482744
 40
0.9224137931034467
 40
0.9224137931034467
 40
0.9224137931034467
 40
0.9224137931034467
 40
0.9310344827586191
 40
0.9310344827586191
 40
0.9310344827586191
 40
0.9310344827586191
 40
0.9396551724137915
 40
0.9396551724137915
 40
0.9396551724137915
 40
0.9396551724137915
 40
0.9482758620689639
 40
0.9482758620689639
 40
0.9482758620689639
 40
0.9482758620689639
 40
0.9568965517241362
 40
0.9568965517241362
 40
0.9568965517241362
 40
0.9568965517241362
 40
0.9655172413793086
 40
0.9655172413793086
 40
0.9655172413793086
 40
0.9655172413793086
 40
0.974137931034481
 40
0.974137931034481
 40
0.974137931034481
 40
0.974137931034481
 40
0.9827586206896534
 40
0.9827586206896534
 40
0.9827586206896534
 40
0.9827586206896534
 40
0.9913793103448257
 40
0.9913793103448257
 40
0.9913793103448257
 40
0.9913793103448257
 40
1.0
 40
1.0
 40
1.0
 40
1.0
 10
-2.9455
 20
63.9454
 30
0.0
 10
-2.9455
 20
63.9454
 30
0.0
 10
0.3045
 20
63.9454
 30
0.0
 10
0.3045
 20
63.9454
 30
0.0
 10
0.3045
 20
63.9454
 30
0.0
 10
0.3045
 20
63.9454
 30
0.0
 10
0.3045
 20
61.9454
 30
0.0
 10
0.3045
 20
61.9454
 30
0.0
 10
0.3045
 20
61.9454
 30
0.0
 10
0.3045
 20
61.9454
 30
0.0
 10
5.5545
 20
61.9454
 30
0.0
 10
5.5545
 20
61.9454
 30
0.0
 10
5.5545
 20
61.9454
 30
0.0
 10
5.5545
 20
61.9454
 30
0.0
 10
5.5545
 20
63.9454
 30
0.0
 10
5.5545
 20
63.9454
 30
0.0
 10
5.5545
 20
63.9454
 30
0.0
 10
5.5545
 20
63.9454
 30
0.0
 10
9.5545
 20
63.9454
 30
0.0
 10
9.5545
 20
63.9454
 30
0.0
 10
9.5545
 20
63.9454
 30
0.0
 10
9.5545
 20
63.9454
 30
0.0
 10
9.5545
 20
61.9454
 30
0.0
 10
9.5545
 20
61.9454
 30
0.0
 10
9.5545
 20
61.9454
 30
0.0
 10
9.5545
 20
61.9454
 30
0.0
 10
13.5545
 20
61.9454
 30
0.0
 10
13.5545
 20
61.9454
 30
0.0
 10
13.5545
 20
61.9454
 30
0.0
 10
13.5545
 20
61.9454
 30
0.0
 10
13.5545
 20
63.9454
 30
0.0
 10
13.5545
 20
63.9454
 30
0.0
 10
13.5545
 20
63.9454
 30
0.0
 10
13.5545
 20
63.9454
 30
0.0
 10
17.5545
 20
63.9454
 30
0.0
 10
17.5545
 20
63.9454
 30
0.0
 10
17.5545
 20
63.9454
 30
0.0
 10
17.5545
 20
63.9454
 30
0.0
 10
17.5545
 20
61.9454
 30
0.0
 10
17.5545
 20
61.9454
 30
0.0
 10
17.5545
 20
61.9454
 30
0.0
 10
17.5545
 20
61.9454
 30
0.0
 10
21.5545
 20
61.9454
 30
0.0
 10
21.5545
 20
61.9454
 30
0.0
 10
21.5545
 20
61.9454
 30
0.0
 10
21.5545
 20
61.9454
 30
0.0
 10
21.5545
 20
63.9454
 30
0.0
 10
21.5545
 20
63.9454
 30
0.0
 10
21.5545
 20
63.9454
 30
0.0
 10
21.5545
 20
63.9454
 30
0.0
 10
25.5545
 20
63.9454
 30
0.0
 10
25.5545
 20
63.9454
 30
0.0
 10
25.5545
 20
63.9454
 30
0.0
 10
25.5545
 20
63.9454
 30
0.0
 10
25.5545
 20
61.9454
 30
0.0
 10
25.5545
 20
61.9454
 30
0.0
 10
25.5545
 20
61.9454
 30
0.0
 10
25.5545
 20
61.9454
 30
0.0
 10
29.5545
 20
61.9454
 30
0.0
 10
29.5545
 20
61.9454
 30
0.0
 10
29.5545
 20
61.9454
 30
0.0
 10
29.5545
 20
61.9454
 30
0.0
 10
29.5545
 20
63.9454
 30
0.0
 10
29.5545
 20
63.9454
 30
0.0
 10
29.5545
 20
63.9454
 30
0.0
 10
29.5545
 20
63.9454
 30
0.0
 10
33.5545
 20
63.9454
 30
0.0
 10
33.5545
 20
63.9454
 30
0.0
 10
33.5545
 20
63.9454
 30
0.0
 10
33.5545
 20
63.9454
 30
0.0
 10
33.5545
 20
61.9454
 30
0.0
 10
33.5545
 20
61.9454
 30
0.0
 10
33.5545
 20
61.9454
 30
0.0
 10
33.5545
 20
61.9454
 30
0.0
 10
37.5545
 20
61.9454
 30
0.0
 10
37.5545
 20
61.9454
 30
0.0
 10
37.5545
 20
61.9454
 30
0.0
 10
37.5545
 20
61.9454
 30
0.0
 10
37.5545
 20
63.9454
 30
0.0
 10
37.5545
 20
63.9454
 30
0.0
 10
37.5545
 20
63.9454
 30
0.0
 10
37.5545
 20
63.9454
 30
0.0
 10
41.5545
 20
63.9454
 30
0.0
 10
41.5545
 20
63.9454
 30
0.0
 10
41.5545
 20
63.9454
 30
0.0
 10
41.5545
 20
63.9454
 30
0.0
 10
41.5545
 20
61.9454
 30
0.0
 10
41.5545
 20
61.9454
 30
0.0
 10
41.5545
 20
61.9454
 30
0.0
 10
41.5545
 20
61.9454
 30
0.0
 10
45.5545
 20
61.9454
 30
0.0
 10
45.5545
 20
61.9454
 30
0.0
 10
45.5545
 20
61.9454
 30
0.0
 10
45.5545
 20
61.9454
 30
0.0
 10
45.5545
 20
63.9454
 30
0.0
 10
45.5545
 20
63.9454
 30
0.0
 10
45.5545
 20
63.9454
 30
0.0
 10
45.5545
 20
63.9454
 30
0.0
 10
49.5545
 20
63.9454
 30
0.0
 10
49.5545
 20
63.9454
 30
0.0
 10
49.5545
 20
63.9454
 30
0.0
 10
49.5545
 20
63.9454
 30
0.0
 10
49.5545
 20
61.9454
 30
0.0
 10
49.5545
 20
61.9454
 30
0.0
 10
49.5545
 20
61.9454
 30
0.0
 10
49.5545
 20
61.9454
 30
0.0
 10
53.5545
 20
61.9454
 30
0.0
 10
53.5545
 20
61.9454
 30
0.0
 10
53.5545
 20
61.9454
 30
0.0
 10
53.5545
 20
61.9454
 30
0.0
 10
53.5545
 20
63.9454
 30
0.0
 10
53.5545
 20
63.9454
 30
0.0
 10
53.5545
 20
63.9454
 30
0.0
 10
53.5545
 20
63.9454
 30
0.0
 10
57.5545
 20
63.9454
 30
0.0
 10
57.5545
 20
63.9454
 30
0.0
 10
57.5545
 20
63.9454
 30
0.0
 10
57.5545
 20
63.9454
 30
0.0
 10
57.5545
 20
61.9454
 30
0.0
 10
57.5545
 20
61.9454
 30
0.0
 10
57.5545
 20
61.9454
 30
0.0
 10
57.5545
 20
61.9454
 30
0.0
 10
61.5545
 20
61.9454
 30
0.0
 10
61.5545
 20
61.9454
 30
0.0
 10
61.5545
 20
61.9454
 30
0.0
 10
61.5545
 20
61.9454
 30
0.0
 10
61.5545
 20
63.9454
 30
0.0
 10
61.5545
 20
63.9454
 30
0.0
 10
61.5545
 20
63.9454
 30
0.0
 10
61.5545
 20
63.9454
 30
0.0
 10
65.5545
 20
63.9454
 30
0.0
 10
65.5545
 20
63.9454
 30
0.0
 10
65.5545
 20
63.9454
 30
0.0
 10
65.5545
 20
63.9454
 30
0.0
 10
65.5545
 20
61.9454
 30
0.0
 10
65.5545
 20
61.9454
 30
0.0
 10
65.5545
 20
61.9454
 30
0.0
 10
65.5545
 20
61.9454
 30
0.0
 10
69.5545
 20
61.9454
 30
0.0
 10
69.5545
 20
61.9454
 30
0.0
 10
69.5545
 20
61.9454
 30
0.0
 10
69.5545
 20
61.9454
 30
0.0
 10
69.5545
 20
63.9454
 30
0.0
 10
69.5545
 20
63.9454
 30
0.0
 10
69.5545
 20
63.9454
 30
0.0
 10
69.5545
 20
63.9454
 30
0.0
 10
73.5545
 20
63.9454
 30
0.0
 10
73.5545
 20
63.9454
 30
0.0
 10
73.5545
 20
63.9454
 30
0.0
 10
73.5545
 20
63.9454
 30
0.0
 10
73.5545
 20
61.9454
 30
0.0
 10
73.5545
 20
61.9454
 30
0.0
 10
73.5545
 20
61.9454
 30
0.0
 10
73.5545
 20
61.9454
 30
0.0
 10
77.5545
 20
61.9454
 30
0.0
 10
77.5545
 20
61.9454
 30
0.0
 10
77.5545
 20
61.9454
 30
0.0
 10
77.5545
 20
61.9454
 30
0.0
 10
77.5545
 20
63.9454
 30
0.0
 10
77.5545
 20
63.9454
 30
0.0
 10
77.5545
 20
63.9454
 30
0.0
 10
77.5545
 20
63.9454
 30
0.0
 10
81.5545
 20
63.9454
 30
0.0
 10
81.5545
 20
63.9454
 30
0.0
 10
81.5545
 20
63.9454
 30
0.0
 10
81.5545
 20
63.9454
 30
0.0
 10
81.5545
 20
61.9454
 30
0.0
 10
81.5545
 20
61.9454
 30
0.0
 10
81.5545
 20
61.9454
 30
0.0
 10
81.5545
 20
61.9454
 30
0.0
 10
85.5545
 20
61.9454
 30
0.0
 10
85.5545
 20
61.9454
 30
0.0
 10
85.5545
 20
61.9454
 30
0.0
 10
85.5545
 20
61.9454
 30
0.0
 10
85.5545
 20
63.9454
 30
0.0
 10
85.5545
 20
63.9454
 30
0.0
 10
85.5545
 20
63.9454
 30
0.0
 10
85.5545
 20
63.9454
 30
0.0
 10
89.5545
 20
63.9454
 30
0.0
 10
89.5545
 20
63.9454
 30
0.0
 10
89.5545
 20
63.9454
 30
0.0
 10
89.5545
 20
63.9454
 30
0.0
 10
89.5545
 20
61.9454
 30
0.0
 10
89.5545
 20
61.9454
 30
0.0
 10
89.5545
 20
61.9454
 30
0.0
 10
89.5545
 20
61.9454
 30
0.0
 10
94.8045
 20
61.9454
 30
0.0
 10
94.8045
 20
61.9454
 30
0.0
 10
94.8045
 20
61.9454
 30
0.0
 10
94.8045
 20
61.9454
 30
0.0
 10
94.8045
 20
63.9454
 30
0.0
 10
94.8045
 20
63.9454
 30
0.0
 10
94.8045
 20
63.9454
 30
0.0
 10
94.8045
 20
63.9454
 30
0.0
 10
98.0545
 20
63.9454
 30
0.0
 10
98.0545
 20
63.9454
 30
0.0
 10
98.0545
 20
63.9454
 30
0.0
 10
98.0545
 20
63.9454
 30
0.0
 10
98.0545
 20
59.9454
 30
0.0
 10
98.0545
 20
59.9454
 30
0.0
 10
98.0545
 20
59.9454
 30
0.0
 10
98.0545
 20
59.9454
 30
0.0
 10
100.0545
 20
59.9454
 30
0.0
 10
100.0545
 20
59.9454
 30
0.0
 10
100.0545
 20
59.9454
 30
0.0
 10
100.0545
 20
59.9454
 30
0.0
 10
100.0545
 20
55.9454
 30
0.0
 10
100.0545
 20
55.9454
 30
0.0
 10
100.0545
 20
55.9454
 30
0.0
 10
100.0545
 20
55.9454
 30
0.0
 10
98.0545
 20
55.9454
 30
0.0
 10
98.0545
 20
55.9454
 30
0.0
 10
98.0545
 20
55.9454
 30
0.0
 10
98.0545
 20
55.9454
 30
0.0
 10
98.0545
 20
51.9454
 30
0.0
 10
98.0545
 20
51.9454
 30
0.0
 10
98.0545
 20
51.9454
 30
0.0
 10
98.0545
 20
51.9454
 30
0.0
 10
100.0545
 20
51.9454
 30
0.0
 10
100.0545
 20
51.9454
 30
0.0
 10
100.0545
 20
51.9454
 30
0.0
 10
100.0545
 20
51.9454
 30
0.0
 10
100.0545
 20
47.9454
 30
0.0
 10
100.0545
 20
47.9454
 30
0.0
 10
100.0545
 20
47.9454
 30
0.0
 10
100.0545
 20
47.9454
 30
0.0
 10
98.0545
 20
47.9454
 30
0.0
 10
98.0545
 20
47.9454
 30
0.0
 10
98.0545
 20
47.9454
 30
0.0
 10
98.0545
 20
47.9454
 30
0.0
 10
98.0545
 20
43.9454
 30
0.0
 10
98.0545
 20
43.9454
 30
0.0
 10
98.0545
 20
43.9454
 30
0.0
 10
98.0545
 20
43.9454
 30
0.0
 10
94.8045
 20
43.9454
 30
0.0
 10
94.8045
 20
43.9454
 30
0.0
 10
94.8045
 20
43.9454
 30
0.0
 10
94.8045
 20
43.9454
 30
0.0
 10
94.8045
 20
45.9454
 30
0.0
 10
94.8045
 20
45.9454
 30
0.0
 10
94.8045
 20
45.9454
 30
0.0
 10
94.8045
 20
45.9454
 30
0.0
 10
89.5545
 20
45.9454
 30
0.0
 10
89.5545
 20
45.9454
 30
0.0
 10
89.5545
 20
45.9454
 30
0.0
 10
89.5545
 20
45.9454
 30
0.0
 10
89.5545
 20
43.9454
 30
0.0
 10
89.5545
 20
43.9454
 30
0.0
 10
89.5545
 20
43.9454
 30
0.0
 10
89.5545
 20
43.9454
 30
0.0
 10
85.5545
 20
43.9454
 30
0.0
 10
85.5545
 20
43.9454
 30
0.0
 10
85.5545
 20
43.9454
 30
0.0
 10
85.5545
 20
43.9454
 30
0.0
 10
85.5545
 20
45.9454
 30
0.0
 10
85.5545
 20
45.9454
 30
0.0
 10
85.5545
 20
45.9454
 30
0.0
 10
85.5545
 20
45.9454
 30
0.0
 10
81.5545
 20
45.9454
 30
0.0
 10
81.5545
 20
45.9454
 30
0.0
 10
81.5545
 20
45.9454
 30
0.0
 10
81.5545
 20
45.9454
 30
0.0
 10
81.5545
 20
43.9454
 30
0.0
 10
81.5545
 20
43.9454
 30
0.0
 10
81.5545
 20
43.9454
 30
0.0
 10
81.5545
 20
43.9454
 30
0.0
 10
77.5545
 20
43.9454
 30
0.0
 10
77.5545
 20
43.9454
 30
0.0
 10
77.5545
 20
43.9454
 30
0.0
 10
77.5545
 20
43.9454
 30
0.0
 10
77.5545
 20
45.9454
 30
0.0
 10
77.5545
 20
45.9454
 30
0.0
 10
77.5545
 20
45.9454
 30
0.0
 10
77.5545
 20
45.9454
 30
0.0
 10
73.5545
 20
45.9454
 30
0.0
 10
73.5545
 20
45.9454
 30
0.0
 10
73.5545
 20
45.9454
 30
0.0
 10
73.5545
 20
45.9454
 30
0.0
 10
73.5545
 20
43.9454
 30
0.0
 10
73.5545
 20
43.9454
 30
0.0
 10
73.5545
 20
43.9454
 30
0.0
 10
73.5545
 20
43.9454
 30
0.0
 10
69.5545
 20
43.9454
 30
0.0
 10
69.5545
 20
43.9454
 30
0.0
 10
69.5545
 20
43.9454
 30
0.0
 10
69.5545
 20
43.9454
 30
0.0
 10
69.5545
 20
45.9454
 30
0.0
 10
69.5545
 20
45.9454
 30
0.0
 10
69.5545
 20
45.9454
 30
0.0
 10
69.5545
 20
45.9454
 30
0.0
 10
65.5545
 20
45.9454
 30
0.0
 10
65.5545
 20
45.9454
 30
0.0
 10
65.5545
 20
45.9454
 30
0.0
 10
65.5545
 20
45.9454
 30
0.0
 10
65.5545
 20
43.9454
 30
0.0
 10
65.5545
 20
43.9454
 30
0.0
 10
65.5545
 20
43.9454
 30
0.0
 10
65.5545
 20
43.9454
 30
0.0
 10
61.5545
 20
43.9454
 30
0.0
 10
61.5545
 20
43.9454
 30
0.0
 10
61.5545
 20
43.9454
 30
0.0
 10
61.5545
 20
43.9454
 30
0.0
 10
61.5545
 20
45.9454
 30
0.0
 10
61.5545
 20
45.9454
 30
0.0
 10
61.5545
 20
45.9454
 30
0.0
 10
61.5545
 20
45.9454
 30
0.0
 10
57.5545
 20
45.9454
 30
0.0
 10
57.5545
 20
45.9454
 30
0.0
 10
57.5545
 20
45.9454
 30
0.0
 10
57.5545
 20
45.9454
 30
0.0
 10
57.5545
 20
43.9454
 30
0.0
 10
57.5545
 20
43.9454
 30
0.0
 10
57.5545
 20
43.9454
 30
0.0
 10
57.5545
 20
43.9454
 30
0.0
 10
53.5545
 20
43.9454
 30
0.0
 10
53.5545
 20
43.9454
 30
0.0
 10
53.5545
 20
43.9454
 30
0.0
 10
53.5545
 20
43.9454
 30
0.0
 10
53.5545
 20
45.9454
 30
0.0
 10
53.5545
 20
45.9454
 30
0.0
 10
53.5545
 20
45.9454
 30
0.0
 10
53.5545
 20
45.9454
 30
0.0
 10
49.5545
 20
45.9454
 30
0.0
 10
49.5545
 20
45.9454
 30
0.0
 10
49.5545
 20
45.9454
 30
0.0
 10
49.5545
 20
45.9454
 30
0.0
 10
49.5545
 20
43.9454
 30
0.0
 10
49.5545
 20
43.9454
 30
0.0
 10
49.5545
 20
43.9454
 30
0.0
 10
49.5545
 20
43.9454
 30
0.0
 10
45.5545
 20
43.9454
 30
0.0
 10
45.5545
 20
43.9454
 30
0.0
 10
45.5545
 20
43.9454
 30
0.0
 10
45.5545
 20
43.9454
 30
0.0
 10
45.5545
 20
45.9454
 30
0.0
 10
45.5545
 20
45.9454
 30
0.0
 10
45.5545
 20
45.9454
 30
0.0
 10
45.5545
 20
45.9454
 30
0.0
 10
41.5545
 20
45.9454
 30
0.0
 10
41.5545
 20
45.9454
 30
0.0
 10
41.5545
 20
45.9454
 30
0.0
 10
41.5545
 20
45.9454
 30
0.0
 10
41.5545
 20
43.9454
 30
0.0
 10
41.5545
 20
43.9454
 30
0.0
 10
41.5545
 20
43.9454
 30
0.0
 10
41.5545
 20
43.9454
 30
0.0
 10
37.5545
 20
43.9454
 30
0.0
 10
37.5545
 20
43.9454
 30
0.0
 10
37.5545
 20
43.9454
 30
0.0
 10
37.5545
 20
43.9454
 30
0.0
 10
37.5545
 20
45.9454
 30
0.0
 10
37.5545
 20
45.9454
 30
0.0
 10
37.5545
 20
45.9454
 30
0.0
 10
37.5545
 20
45.9454
 30
0.0
 10
33.5545
 20
45.9454
 30
0.0
 10
33.5545
 20
45.9454
 30
0.0
 10
33.5545
 20
45.9454
 30
0.0
 10
33.5545
 20
45.9454
 30
0.0
 10
33.5545
 20
43.9454
 30
0.0
 10
33.5545
 20
43.9454
 30
0.0
 10
33.5545
 20
43.9454
 30
0.0
 10
33.5545
 20
43.9454
 30
0.0
 10
29.5545
 20
43.9454
 30
0.0
 10
29.5545
 20
43.9454
 30
0.0
 10
29.5545
 20
43.9454
 30
0.0
 10
29.5545
 20
43.9454
 30
0.0
 10
29.5545
 20
45.9454
 30
0.0
 10
29.5545
 20
45.9454
 30
0.0
 10
29.5545
 20
45.9454
 30
0.0
 10
29.5545
 20
45.9454
 30
0.0
 10
25.5545
 20
45.9454
 30
0.0
 10
25.5545
 20
45.9454
 30
0.0
 10
25.5545
 20
45.9454
 30
0.0
 10
25.5545
 20
45.9454
 30
0.0
 10
25.5545
 20
43.9454
 30
0.0
 10
25.5545
 20
43.9454
 30
0.0
 10
25.5545
 20
43.9454
 30
0.0
 10
25.5545
 20
43.9454
 30
0.0
 10
21.5545
 20
43.9454
 30
0.0
 10
21.5545
 20
43.9454
 30
0.0
 10
21.5545
 20
43.9454
 30
0.0
 10
21.5545
 20
43.9454
 30
0.0
 10
21.5545
 20
45.9454
 30
0.0
 10
21.5545
 20
45.9454
 30
0.0
 10
21.5545
 20
45.9454
 30
0.0
 10
21.5545
 20
45.9454
 30
0.0
 10
17.5545
 20
45.9454
 30
0.0
 10
17.5545
 20
45.9454
 30
0.0
 10
17.5545
 20
45.9454
 30
0.0
 10
17.5545
 20
45.9454
 30
0.0
 10
17.5545
 20
43.9454
 30
0.0
 10
17.5545
 20
43.9454
 30
0.0
 10
17.5545
 20
43.9454
 30
0.0
 10
17.5545
 20
43.9454
 30
0.0
 10
13.5545
 20
43.9454
 30
0.0
 10
13.5545
 20
43.9454
 30
0.0
 10
13.5545
 20
43.9454
 30
0.0
 10
13.5545
 20
43.9454
 30
0.0
 10
13.5545
 20
45.9454
 30
0.0
 10
13.5545
 20
45.9454
 30
0.0
 10
13.5545
 20
45.9454
 30
0.0
 10
13.5545
 20
45.9454
 30
0.0
 10
9.5545
 20
45.9454
 30
0.0
 10
9.5545
 20
45.9454
 30
0.0
 10
9.5545
 20
45.9454
 30
0.0
 10
9.5545
 20
45.9454
 30
0.0
 10
9.5545
 20
43.9454
 30
0.0
 10
9.5545
 20
43.9454
 30
0.0
 10
9.5545
 20
43.9454
 30
0.0
 10
9.5545
 20
43.9454
 30
0.0
 10
5.5545
 20
43.9454
 30
0.0
 10
5.5545
 20
43.9454
 30
0.0
 10
5.5545
 20
43.9454
 30
0.0
 10
5.5545
 20
43.9454
 30
0.0
 10
5.5545
 20
45.9454
 30
0.0
 10
5.5545
 20
45.9454
 30
0.0
 10
5.5545
 20
45.9454
 30
0.0
 10
5.5545
 20
45.9454
 30
0.0
 10
0.3045
 20
45.9454
 30
0.0
 10
0.3045
 20
45.9454
 30
0.0
 10
0.3045
 20
45.9454
 30
0.0
 10
0.3045
 20
45.9454
 30
0.0
 10
0.3045
 20
43.9454
 30
0.0
 10
0.3045
 20
43.9454
 30
0.0
 10
0.3045
 20
43.9454
 30
0.0
 10
0.3045
 20
43.9454
 30
0.0
 10
-2.9455
 20
43.9454
 30
0.0
 10
-2.9455
 20
43.9454
 30
0.0
 10
-2.9455
 20
43.9454
 30
0.0
 10
-2.9455
 20
43.9454
 30
0.0
 10
-2.9455
 20
47.9454
 30
0.0
 10
-2.9455
 20
47.9454
 30
0.0
 10
-2.9455
 20
47.9454
 30
0.0
 10
-2.9455
 20
47.9454
 30
0.0
 10
-4.9455
 20
47.9454
 30
0.0
 10
-4.9455
 20
47.9454
 30
0.0
 10
-4.9455
 20
47.9454
 30
0.0
 10
-4.9455
 20
47.9454
 30
0.0
 10
-4.9455
 20
51.9454
 30
0.0
 10
-4.9455
 20
51.9454
 30
0.0
 10
-4.9455
 20
51.9454
 30
0.0
 10
-4.9455
 20
51.9454
 30
0.0
 10
-2.9455
 20
51.9454
 30
0.0
 10
-2.9455
 20
51.9454
 30
0.0
 10
-2.9455
 20
51.9454
 30
0.0
 10
-2.9455
 20
51.9454
 30
0.0
 10
-2.9455
 20
55.9454
 30
0.0
 10
-2.9455
 20
55.9454
 30
0.0
 10
-2.9455
 20
55.9454
 30
0.0
 10
-2.9455
 20
55.9454
 30
0.0
 10
-4.9455
 20
55.9454
 30
0.0
 10
-4.9455
 20
55.9454
 30
0.0
 10
-4.9455
 20
55.9454
 30
0.0
 10
-4.9455
 20
55.9454
 30
0.0
 10
-4.9455
 20
59.9454
 30
0.0
 10
-4.9455
 20
59.9454
 30
0.0
 10
-4.9455
 20
59.9454
 30
0.0
 10
-4.9455
 20
59.9454
 30
0.0
 10
-2.9455
 20
59.9454
 30
0.0
 10
-2.9455
 20
59.9454
 30
0.0
 10
-2.9455
 20
59.9454
 30
0.0
 10
-2.9455
 20
59.9454
 30
0.0
 10
-2.9455
 20
63.9454
 30
0.0
 10
-2.9455
 20
63.9454
 30
0.0
  0
SPLINE
  5
63
330
1F
100
AcDbEntity
  8
layer 1
370
    25
100
AcDbSpline
210
0.0
220
0.0
230
1.0
 70
    11
 71
     3
 72
   660
 73
   656
 74
     0
 42
0.0000000001
 43
0.0000000001
 40
0.0
 40
0.0
 40
0.0
 40
0.0
 40
0.0060975609756098
 40
0.0060975609756098
 40
0.0060975609756098
 40
0.0060975609756098
 40
0.0121951219512195
 40
0.0121951219512195
 40
0.0121951219512195
 40
0.0121951219512195
 40
0.0182926829268293
 40
0.0182926829268293
 40
0.0182926829268293
 40
0.0182926829268293
 40
0.024390243902439
 40
0.024390243902439
 40
0.024390243902439
 40
0.024390243902439
 40
0.0304878048780488
 40
0.0304878048780488
 40
0.0304878048780488
 40
0.0304878048780488
 40
0.0365853658536585
 40
0.0365853658536585
 40
0.0365853658536585
 40
0.0365853658536585
 40
0.0426829268292683
 40
0.0426829268292683
 40
0.0426829268292683
 40
0.0426829268292683
 40
0.048780487804878
 40
0.048780487804878
 40
0.048780487804878
 40
0.048780487804878
 40
0.0548780487804878
 40
0.0548780487804878
 40
0.0548780487804878
 40
0.0548780487804878
 40
0.0609756097560976
 40
0.0609756097560976
 40
0.0609756097560976
 40
0.0609756097560976
 40
0.0670731707317073
 40
0.0670731707317073
 40
0.0670731707317073
 40
0.0670731707317073
 40
0.0731707317073171
 40
0.0731707317073171
 40
0.0731707317073171
 40
0.0731707317073171
 40
0.0792682926829268
 40
0.0792682926829268
 40
0.0792682926829268
 40
0.0792682926829268
 40
0.0853658536585366
 40
0.0853658536585366
 40
0.0853658536585366
 40
0.0853658536585366
 40
0.0914634146341464
 40
0.0914634146341464
 40
0.0914634146341464
 40
0.0914634146341464
 40
0.0975609756097561
 40
0.0975609756097561
 40
0.0975609756097561
 40
0.0975609756097561
 40
0.1036585365853659
 40
0.1036585365853659
 40
0.1036585365853659
 40
0.1036585365853659
 40
0.1097560975609756
 40
0.1097560975609756
 40
0.1097560975609756
 40
0.1097560975609756
 40
0.1158536585365854
 40
0.1158536585365854
 40
0.1158536585365854
 40
0.1158536585365854
 40
0.1219512195121952
 40
0.1219512195121952
 40
0.1219512195121952
 40
0.1219512195121952
 40
0.1280487804878049
 40
0.1280487804878049
 40
0.1280487804878049
 40
0.1280487804878049
 40
0.1341463414634147
 40
0.1341463414634147
 40
0.1341463414634147
 40
0.1341463414634147
 40
0.1402439024390244
 40
0.1402439024390244
 40
0.1402439024390244
 40
0.1402439024390244
 40
0.1463414634146342
 40
0.1463414634146342
 40
0.1463414634146342
 40
0.1463414634146342
 40
0.152439024390244
 40
0.152439024390244
 40
0.152439024390244
 40
0.152439024390244
 40
0.1585365853658537
 40
0.1585365853658537
 40
0.1585365853658537
 40
0.1585365853658537
 40
0.1646341463414635
 40
0.1646341463414635
 40
0.1646341463414635
 40
0.1646341463414635
 40
0.1707317073170732
 40
0.1707317073170732
 40
0.1707317073170732
 40
0.1707317073170732
 40
0.176829268292683
 40
0.176829268292683
 40
0.176829268292683
 40
0.176829268292683
 40
0.1829268292682928
 40
0.1829268292682928
 40
0.1829268292682928
 40
0.1829268292682928
 40
0.1890243902439025
 40
0.1890243902439025
 40
0.1890243902439025
 40
0.1890243902439025
 40
0.1951219512195123
 40
0.1951219512195123
 40
0.1951219512195123
 40
0.1951219512195123
 40
0.201219512195122
 40
0.201219512195122
 40
0.201219512195122
 40
0.201219512195122
 40
0.2073170731707318
 40
0.2073170731707318
 40
0.2073170731707318
 40
0.2073170731707318
 40
0.2134146341463416
 40
0.2134146341463416
 40
0.2134146341463416
 40
0.2134146341463416
 40
0.2195121951219513
 40
0.2195121951219513
 40
0.2195121951219513
 40
0.2195121951219513
 40
0.2256097560975611
 40
0.2256097560975611
 40
0.2256097560975611
 40
0.2256097560975611
 40
0.2317073170731709
 40
0.2317073170731709
 40
0.2317073170731709
 40
0.2317073170731709
 40
0.2378048780487806
 40
0.2378048780487806
 40
0.2378048780487806
 40
0.2378048780487806
 40
0.2439024390243904
 40
0.2439024390243904
 40
0.2439024390243904
 40
0.2439024390243904
 40
0.2500000000000001
 40
0.2500000000000001
 40
0.2500000000000001
 40
0.2500000000000001
 40
0.2560975609756099
 40
0.2560975609756099
 40
0.2560975609756099
 40
0.2560975609756099
 40
0.2621951219512196
 40
0.2621951219512196
 40
0.2621951219512196
 40
0.2621951219512196
 40
0.2682926829268294
 40
0.2682926829268294
 40
0.2682926829268294
 40
0.2682926829268294
 40
0.2743902439024392
 40
0.2743902439024392
 40
0.2743902439024392
 40
0.2743902439024392
 40
0.2804878048780489
 40
0.2804878048780489
 40
0.2804878048780489
 40
0.2804878048780489
 40
0.2865853658536587
 40
0.2865853658536587
 40
0.2865853658536587
 40
0.2865853658536587
 40
0.2926829268292684
 40
0.2926829268292684
 40
0.2926829268292684
 40
0.2926829268292684
 40
0.2987804878048782
 40
0.2987804878048782
 40
0.2987804878048782
 40
0.2987804878048782
 40
0.304878048780488
 40
0.304878048780488
 40
0.304878048780488
 40
0.304878048780488
 40
0.3109756097560977
 40
0.3109756097560977
 40
0.3109756097560977
 40
0.3109756097560977
 40
0.3170731707317075
 40
0.3170731707317075
 40
0.3170731707317075
 40
0.3170731707317075
 40
0.3231707317073172
 40
0.3231707317073172
 40
0.3231707317073172
 40
0.3231707317073172
 40
0.329268292682927
 40
0.329268292682927
 40
0.329268292682927
 40
0.329268292682927
 40
0.3353658536585368
 40
0.3353658536585368
 40
0.3353658536585368
 40
0.3353658536585368
 40
0.3414634146341465
 40
0.3414634146341465
 40
0.3414634146341465
 40
0.3414634146341465
 40
0.3475609756097563
 40
0.3475609756097563
 40
0.3475609756097563
 40
0.3475609756097563
 40
0.3536585365853661
 40
0.3536585365853661
 40
0.3536585365853661
 40
0.3536585365853661
 40
0.3597560975609758
 40
0.3597560975609758
 40
0.3597560975609758
 40
0.3597560975609758
 40
0.3658536585365856
 40
0.3658536585365856
 40
0.3658536585365856
 40
0.3658536585365856
 40
0.3719512195121953
 40
0.3719512195121953
 40
0.3719512195121953
 40
0.3719512195121953
 40
0.3780487804878051
 40
0.3780487804878051
 40
0.3780487804878051
 40
0.3780487804878051
 40
0.3841463414634149
 40
0.3841463414634149
 40
0.3841463414634149
 40
0.3841463414634149
 40
0.3902439024390246
 40
0.3902439024390246
 40
0.3902439024390246
 40
0.3902439024390246
 40
0.3963414634146344
 40
0.3963414634146344
 40
0.3963414634146344
 40
0.3963414634146344
 40
0.4024390243902441
 40
0.4024390243902441
 40
0.4024390243902441
 40
0.4024390243902441
 40
0.4085365853658539
 40
0.4085365853658539
 40
0.4085365853658539
 40
0.4085365853658539
 40
0.4146341463414637
 40
0.4146341463414637
 40
0.4146341463414637
 40
0.4146341463414637
 40
0.4207317073170734
 40
0.4207317073170734
 40
0.4207317073170734
 40
0.4207317073170734
 40
0.4268292682926832
 40
0.4268292682926832
 40
0.4268292682926832
 40
0.4268292682926832
 40
0.432926829268293
 40
0.432926829268293
 40
0.432926829268293
 40
0.432926829268293
 40
0.4390243902439027
 40
0.4390243902439027
 40
0.4390243902439027
 40
0.4390243902439027
 40
0.4451219512195125
 40
0.4451219512195125
 40
0.4451219512195125
 40
0.4451219512195125
 40
0.4512195121951222
 40
0.4512195121951222
 40
0.4512195121951222
 40
0.4512195121951222
 40
0.457317073170732
 40
0.457317073170732
 40
0.457317073170732
 40
0.457317073170732
 40
0.4634146341463418
 40
0.4634146341463418
 40
0.4634146341463418
 40
0.4634146341463418
 40
0.4695121951219515
 40
0.4695121951219515
 40
0.4695121951219515
 40
0.4695121951219515
 40
0.4756097560975613
 40
0.4756097560975613
 40
0.4756097560975613
 40
0.4756097560975613
 40
0.481707317073171
 40
0.481707317073171
 40
0.481707317073171
 40
0.481707317073171
 40
0.4878048780487808
 40
0.4878048780487808
 40
0.4878048780487808
 40
0.4878048780487808
 40
0.4939024390243906
 40
0.4939024390243906
 40
0.4939024390243906
 40
0.4939024390243906
 40
0.5000000000000003
 40
0.5000000000000003
 40
0.5000000000000003
 40
0.5000000000000003
 40
0.5060975609756101
 40
0.5060975609756101
 40
0.5060975609756101
 40
0.5060975609756101
 40
0.5121951219512199
 40
0.5121951219512199
 40
0.5121951219512199
 40
0.5121951219512199
 40
0.5182926829268296
 40
0.5182926829268296
 40
0.5182926829268296
 40
0.5182926829268296
 40
0.5243902439024394
 40
0.5243902439024394
 40
0.5243902439024394
 40
0.5243902439024394
 40
0.5304878048780491
 40
0.5304878048780491
 40
0.5304878048780491
 40
0.5304878048780491
 40
0.5365853658536589
 40
0.5365853658536589
 40
0.5365853658536589
 40
0.5365853658536589
 40
0.5426829268292687
 40
0.5426829268292687
 40
0.5426829268292687
 40
0.5426829268292687
 40
0.5487804878048784
 40
0.5487804878048784
 40
0.5487804878048784
 40
0.5487804878048784
 40
0.5548780487804882
 40
0.5548780487804882
 40
0.5548780487804882
 40
0.5548780487804882
 40
0.560975609756098
 40
0.560975609756098
 40
0.560975609756098
 40
0.560975609756098
 40
0.5670731707317077
 40
0.5670731707317077
 40
0.5670731707317077
 40
0.5670731707317077
 40
0.5731707317073175
 40
0.5731707317073175
 40
0.5731707317073175
 40
0.5731707317073175
 40
0.5792682926829272
 40
0.5792682926829272
 40
0.5792682926829272
 40
0.5792682926829272
 40
0.585365853658537
 40
0.585365853658537
 40
0.585365853658537
 40
0.585365853658537
 40
0.5914634146341468
 40
0.5914634146341468
 40
0.5914634146341468
 40
0.5914634146341468
 40
0.5975609756097565
 40
0.5975609756097565
 40
0.5975609756097565
 40
0.5975609756097565
 40
0.6036585365853663
 40
0.6036585365853663
 40
0.6036585365853663
 40
0.6036585365853663
 40
0.609756097560976
 40
0.609756097560976
 40
0.609756097560976
 40
0.609756097560976
 40
0.6158536585365858
 40
0.6158536585365858
 40
0.6158536585365858
 40
0.6158536585365858
 40
0.6219512195121956
 40
0.6219512195121956
 40
0.6219512195121956
 40
0.6219512195121956
 40
0.6280487804878053
 40
0.6280487804878053
 40
0.6280487804878053
 40
0.6280487804878053
 40
0.6341463414634151
 40
0.6341463414634151
 40
0.6341463414634151
 40
0.6341463414634151
 40
0.6402439024390248
 40
0.6402439024390248
 40
0.6402439024390248
 40
0.6402439024390248
 40
0.6463414634146346
 40
0.6463414634146346
 40
0.6463414634146346
 40
0.6463414634146346
 40
0.6524390243902444
 40
0.6524390243902444
 40
0.6524390243902444
 40
0.6524390243902444
 40
0.6585365853658541
 40
0.6585365853658541
 40
0.6585365853658541
 40
0.6585365853658541
 40
0.6646341463414639
 40
0.6646341463414639
 40
0.6646341463414639
 40
0.6646341463414639
 40
0.6707317073170737
 40
0.6707317073170737
 40
0.6707317073170737
 40
0.6707317073170737
 40
0.6768292682926834
 40
0.6768292682926834
 40
0.6768292682926834
 40
0.6768292682926834
 40
0.6829268292682932
 40
0.6829268292682932
 40
0.6829268292682932
 40
0.6829268292682932
 40
0.6890243902439029
 40
0.6890243902439029
 40
0.6890243902439029
 40
0.6890243902439029
 40
0.6951219512195127
 40
0.6951219512195127
 40
0.6951219512195127
 40
0.6951219512195127
 40
0.7012195121951225
 40
0.7012195121951225
 40
0.7012195121951225
 40
0.7012195121951225
 40
0.7073170731707322
 40
0.7073170731707322
 40
0.7073170731707322
 40
0.7073170731707322
 40
0.713414634146342
 40
0.713414634146342
 40
0.713414634146342
 40
0.713414634146342
 40
0.7195121951219517
 40
0.7195121951219517
 40
0.7195121951219517
 40
0.7195121951219517
 40
0.7256097560975615
 40
0.7256097560975615
 40
0.7256097560975615
 40
0.7256097560975615
 40
0.7317073170731713
 40
0.7317073170731713
 40
0.7317073170731713
 40
0.7317073170731713
 40
0.737804878048781
 40
0.737804878048781
 40
0.737804878048781
 40
0.737804878048781
 40
0.7439024390243908
 40
0.7439024390243908
 40
0.7439024390243908
 40
0.7439024390243908
 40
0.7500000000000006
 40
0.7500000000000006
 40
0.7500000000000006
 40
0.7500000000000006
 40
0.7560975609756103
 40
0.7560975609756103
 40
0.7560975609756103
 40
0.7560975609756103
 40
0.7621951219512201
 40
0.7621951219512201
 40
0.7621951219512201
 40
0.7621951219512201
 40
0.7682926829268298
 40
0.7682926829268298
 40
0.7682926829268298
 40
0.7682926829268298
 40
0.7743902439024396
 40
0.7743902439024396
 40
0.7743902439024396
 40
0.7743902439024396
 40
0.7804878048780494
 40
0.7804878048780494
 40
0.7804878048780494
 40
0.7804878048780494
 40
0.7865853658536591
 40
0.7865853658536591
 40
0.7865853658536591
 40
0.7865853658536591
 40
0.7926829268292689
 40
0.7926829268292689
 40
0.7926829268292689
 40
0.7926829268292689
 40
0.7987804878048786
 40
0.7987804878048786
 40
0.7987804878048786
 40
0.7987804878048786
 40
0.8048780487804884
 40
0.8048780487804884
 40
0.8048780487804884
 40
0.8048780487804884
 40
0.8109756097560982
 40
0.8109756097560982
 40
0.8109756097560982
 40
0.8109756097560982
 40
0.8170731707317079
 40
0.8170731707317079
 40
0.8170731707317079
 40
0.8170731707317079
 40
0.8231707317073177
 40
0.8231707317073177
 40
0.8231707317073177
 40
0.8231707317073177
 40
0.8292682926829275
 40
0.8292682926829275
 40
0.8292682926829275
 40
0.8292682926829275
 40
0.8353658536585372
 40
0.8353658536585372
 40
0.8353658536585372
 40
0.8353658536585372
 40
0.841463414634147
 40
0.841463414634147
 40
0.841463414634147
 40
0.841463414634147
 40
0.8475609756097567
 40
0.8475609756097567
 40
0.8475609756097567
 40
0.8475609756097567
 40
0.8536585365853665
 40
0.8536585365853665
 40
0.8536585365853665
 40
0.8536585365853665
 40
0.8597560975609763
 40
0.8597560975609763
 40
0.8597560975609763
 40
0.8597560975609763
 40
0.865853658536586
 40
0.865853658536586
 40
0.865853658536586
 40
0.865853658536586
 40
0.8719512195121958
 40
0.8719512195121958
 40
0.8719512195121958
 40
0.8719512195121958
 40
0.8780487804878055
 40
0.8780487804878055
 40
0.8780487804878055
 40
0.8780487804878055
 40
0.8841463414634153
 40
0.8841463414634153
 40
0.8841463414634153
 40
0.8841463414634153
 40
0.8902439024390251
 40
0.8902439024390251
 40
0.8902439024390251
 40
0.8902439024390251
 40
0.8963414634146348
 40
0.8963414634146348
 40
0.8963414634146348
 40
0.8963414634146348
 40
0.9024390243902446
 40
0.9024390243902446
 40
0.9024390243902446
 40
0.9024390243902446
 40
0.9085365853658544
 40
0.9085365853658544
 40
0.9085365853658544
 40
0.9085365853658544
 40
0.9146341463414641
 40
0.9146341463414641
 40
0.9146341463414641
 40
0.9146341463414641
 40
0.9207317073170739
 40
0.9207317073170739
 40
0.9207317073170739
 40
0.9207317073170739
 40
0.9268292682926836
 40
0.9268292682926836
 40
0.9268292682926836
 40
0.9268292682926836
 40
0.9329268292682934
 40
0.9329268292682934
 40
0.9329268292682934
 40
0.9329268292682934
 40
0.9390243902439032
 40
0.9390243902439032
 40
0.9390243902439032
 40
0.9390243902439032
 40
0.9451219512195129
 40
0.9451219512195129
 40
0.9451219512195129
 40
0.9451219512195129
 40
0.9512195121951227
 40
0.9512195121951227
 40
0.9512195121951227
 40
0.9512195121951227
 40
0.9573170731707324
 40
0.9573170731707324
 40
0.9573170731707324
 40
0.9573170731707324
 40
0.9634146341463422
 40
0.9634146341463422
 40
0.9634146341463422
 40
0.9634146341463422
 40
0.969512195121952
 40
0.969512195121952
 40
0.969512195121952
 40
0.969512195121952
 40
0.9756097560975617
 40
0.9756097560975617
 40
0.9756097560975617
 40
0.9756097560975617
 40
0.9817073170731715
 40
0.9817073170731715
 40
0.9817073170731715
 40
0.9817073170731715
 40
0.9878048780487813
 40
0.9878048780487813
 40
0.9878048780487813
 40
0.9878048780487813
 40
0.993902439024391
 40
0.993902439024391
 40
0.993902439024391
 40
0.993902439024391
 40
1.0
 40
1.0
 40
1.0
 40
1.0
 10
-87.8386
 20
105.0624
 30
0.0
 10
-87.8386
 20
105.0624
 30
0.0
 10
-84.0886
 20
105.0624
 30
0.0
 10
-84.0886
 20
105.0624
 30
0.0
 10
-84.0886
 20
105.0624
 30
0.0
 10
-84.0886
 20
105.0624
 30
0.0
 10
-84.0886
 20
107.0624
 30
0.0
 10
-84.0886
 20
107.0624
 30
0.0
 10
-84.0886
 20
107.0624
 30
0.0
 10
-84.0886
 20
107.0624
 30
0.0
 10
-78.3386
 20
107.0624
 30
0.0
 10
-78.3386
 20
107.0624
 30
0.0
 10
-78.3386
 20
107.0624
 30
0.0
 10
-78.3386
 20
107.0624
 30
0.0
 10
-78.3386
 20
105.0624
 30
0.0
 10
-78.3386
 20
105.0624
 30
0.0
 10
-78.3386
 20
105.0624
 30
0.0
 10
-78.3386
 20
105.0624
 30
0.0
 10
-74.3386
 20
105.0624
 30
0.0
 10
-74.3386
 20
105.0624
 30
0.0
 10
-74.3386
 20
105.0624
 30
0.0
 10
-74.3386
 20
105.0624
 30
0.0
 10
-74.3386
 20
107.0624
 30
0.0
 10
-74.3386
 20
107.0624
 30
0.0
 10
-74.3386
 20
107.0624
 30
0.0
 10
-74.3386
 20
107.0624
 30
0.0
 10
-70.3386
 20
107.0624
 30
0.0
 10
-70.3386
 20
107.0624
 30
0.0
 10
-70.3386
 20
107.0624
 30
0.0
 10
-70.3386
 20
107.0624
 30
0.0
 10
-70.3386
 20
105.0624
 30
0.0
 10
-70.3386
 20
105.0624
 30
0.0
 10
-70.3386
 20
105.0624
 30
0.0
 10
-70.3386
 20
105.0624
 30
0.0
 10
-66.3386
 20
105.0624
 30
0.0
 10
-66.3386
 20
105.0624
 30
0.0
 10
-66.3386
 20
105.0624
 30
0.0
 10
-66.3386
 20
105.0624
 30
0.0
 10
-66.3386
 20
107.0624
 30
0.0
 10
-66.3386
 20
107.0624
 30
0.0
 10
-66.3386
 20
107.0624
 30
0.0
 10
-66.3386
 20
107.0624
 30
0.0
 10
-62.3386
 20
107.0624
 30
0.0
 10
-62.3386
 20
107.0624
 30
0.0
 10
-62.3386
 20
107.0624
 30
0.0
 10
-62.3386
 20
107.0624
 30
0.0
 10
-62.3386
 20
105.0624
 30
0.0
 10
-62.3386
 20
105.0624
 30
0.0
 10
-62.3386
 20
105.0624
 30
0.0
 10
-62.3386
 20
105.0624
 30
0.0
 10
-58.3386
 20
105.0624
 30
0.0
 10
-58.3386
 20
105.0624
 30
0.0
 10
-58.3386
 20
105.0624
 30
0.0
 10
-58.3386
 20
105.0624
 30
0.0
 10
-58.3386
 20
107.0624
 30
0.0
 10
-58.3386
 20
107.0624
 30
0.0
 10
-58.3386
 20
107.0624
 30
0.0
 10
-58.3386
 20
107.0624
 30
0.0
 10
-54.3386
 20
107.0624
 30
0.0
 10
-54.3386
 20
107.0624
 30
0.0
 10
-54.3386
 20
107.0624
 30
0.0
 10
-54.3386
 20
107.0624
 30
0.0
 10
-54.3386
 20
105.0624
 30
0.0
 10
-54.3386
 20
105.0624
 30
0.0
 10
-54.3386
 20
105.0624
 30
0.0
 10
-54.3386
 20
105.0624
 30
0.0
 10
-50.3386
 20
105.0624
 30
0.0
 10
-50.3386
 20
105.0624
 30
0.0
 10
-50.3386
 20
105.0624
 30
0.0
 10
-50.3386
 20
105.0624
 30
0.0
 10
-50.3386
 20
107.0624
 30
0.0
 10
-50.3386
 20
107.0624
 30
0.0
 10
-50.3386
 20
107.0624
 30
0.0
 10
-50.3386
 20
107.0624
 30
0.0
 10
-46.3386
 20
107.0624
 30
0.0
 10
-46.3386
 20
107.0624
 30
0.0
 10
-46.3386
 20
107.0624
 30
0.0
 10
-46.3386
 20
107.0624
 30
0.0
 10
-46.3386
 20
105.0624
 30
0.0
 10
-46.3386
 20
105.0624
 30
0.0
 10
-46.3386
 20
105.0624
 30
0.0
 10
-46.3386
 20
105.0624
 30
0.0
 10
-42.3386
 20
105.0624
 30
0.0
 10
-42.3386
 20
105.0624
 30
0.0
 10
-42.3386
 20
105.0624
 30
0.0
 10
-42.3386
 20
105.0624
 30
0.0
 10
-42.3386
 20
107.0624
 30
0.0
 10
-42.3386
 20
107.0624
 30
0.0
 10
-42.3386
 20
107.0624
 30
0.0
 10
-42.3386
 20
107.0624
 30
0.0
 10
-38.3386
 20
107.0624
 30
0.0
 10
-38.3386
 20
107.0624
 30
0.0
 10
-38.3386
 20
107.0624
 30
0.0
 10
-38.3386
 20
107.0624
 30
0.0
 10
-38.3386
 20
105.0624
 30
0.0
 10
-38.3386
 20
105.0624
 30
0.0
 10
-38.3386
 20
105.0624
 30
0.0
 10
-38.3386
 20
105.0624
 30
0.0
 10
-34.3386
 20
105.0624
 30
0.0
 10
-34.3386
 20
105.0624
 30
0.0
 10
-34.3386
 20
105.0624
 30
0.0
 10
-34.3386
 20
105.0624
 30
0.0
 10
-34.3386
 20
107.0624
 30
0.0
 10
-34.3386
 20
107.0624
 30
0.0
 10
-34.3386
 20
107.0624
 30
0.0
 10
-34.3386
 20
107.0624
 30
0.0
 10
-30.3386
 20
107.0624
 30
0.0
 10
-30.3386
 20
107.0624
 30
0.0
 10
-30.3386
 20
107.0624
 30
0.0
 10
-30.3386
 20
107.0624
 30
0.0
 10
-30.3386
 20
105.0624
 30
0.0
 10
-30.3386
 20
105.0624
 30
0.0
 10
-30.3386
 20
105.0624
 30
0.0
 10
-30.3386
 20
105.0624
 30
0.0
 10
-26.3386
 20
105.0624
 30
0.0
 10
-26.3386
 20
105.0624
 30
0.0
 10
-26.3386
 20
105.0624
 30
0.0
 10
-26.3386
 20
105.0624
 30
0.0
 10
-26.3386
 20
107.0624
 30
0.0
 10
-26.3386
 20
107.0624
 30
0.0
 10
-26.3386
 20
107.0624
 30
0.0
 10
-26.3386
 20
107.0624
 30
0.0
 10
-20.5886
 20
107.0624
 30
0.0
 10
-20.5886
 20
107.0624
 30
0.0
 10
-20.5886
 20
107.0624
 30
0.0
 10
-20.5886
 20
107.0624
 30
0.0
 10
-20.5886
 20
105.0624
 30
0.0
 10
-20.5886
 20
105.0624
 30
0.0
 10
-20.5886
 20
105.0624
 30
0.0
 10
-20.5886
 20
105.0624
 30
0.0
 10
-16.8386
 20
105.0624
 30
0.0
 10
-16.8386
 20
105.0624
 30
0.0
 10
-16.8386
 20
105.0624
 30
0.0
 10
-16.8386
 20
105.0624
 30
0.0
 10
-16.8386
 20
101.8124
 30
0.0
 10
-16.8386
 20
101.8124
 30
0.0
 10
-16.8386
 20
101.8124
 30
0.0
 10
-16.8386
 20
101.8124
 30
0.0
 10
-14.8386
 20
101.8124
 30
0.0
 10
-14.8386
 20
101.8124
 30
0.0
 10
-14.8386
 20
101.8124
 30
0.0
 10
-14.8386
 20
101.8124
 30
0.0
 10
-14.8386
 20
96.5624
 30
0.0
 10
-14.8386
 20
96.5624
 30
0.0
 10
-14.8386
 20
96.5624
 30
0.0
 10
-14.8386
 20
96.5624
 30
0.0
 10
-16.8386
 20
96.5624
 30
0.0
 10
-16.8386
 20
96.5624
 30
0.0
 10
-16.8386
 20
96.5624
 30
0.0
 10
-16.8386
 20
96.5624
 30
0.0
 10
-16.8386
 20
92.5624
 30
0.0
 10
-16.8386
 20
92.5624
 30
0.0
 10
-16.8386
 20
92.5624
 30
0.0
 10
-16.8386
 20
92.5624
 30
0.0
 10
-14.8386
 20
92.5624
 30
0.0
 10
-14.8386
 20
92.5624
 30
0.0
 10
-14.8386
 20
92.5624
 30
0.0
 10
-14.8386
 20
92.5624
 30
0.0
 10
-14.8386
 20
88.5624
 30
0.0
 10
-14.8386
 20
88.5624
 30
0.0
 10
-14.8386
 20
88.5624
 30
0.0
 10
-14.8386
 20
88.5624
 30
0.0
 10
-16.8386
 20
88.5624
 30
0.0
 10
-16.8386
 20
88.5624
 30
0.0
 10
-16.8386
 20
88.5624
 30
0.0
 10
-16.8386
 20
88.5624
 30
0.0
 10
-16.8386
 20
84.5624
 30
0.0
 10
-16.8386
 20
84.5624
 30
0.0
 10
-16.8386
 20
84.5624
 30
0.0
 10
-16.8386
 20
84.5624
 30
0.0
 10
-14.8386
 20
84.5624
 30
0.0
 10
-14.8386
 20
84.5624
 30
0.0
 10
-14.8386
 20
84.5624
 30
0.0
 10
-14.8386
 20
84.5624
 30
0.0
 10
-14.8386
 20
80.5624
 30
0.0
 10
-14.8386
 20
80.5624
 30
0.0
 10
-14.8386
 20
80.5624
 30
0.0
 10
-14.8386
 20
80.5624
 30
0.0
 10
-16.8386
 20
80.5624
 30
0.0
 10
-16.8386
 20
80.5624
 30
0.0
 10
-16.8386
 20
80.5624
 30
0.0
 10
-16.8386
 20
80.5624
 30
0.0
 10
-16.8386
 20
76.5624
 30
0.0
 10
-16.8386
 20
76.5624
 30
0.0
 10
-16.8386
 20
76.5624
 30
0.0
 10
-16.8386
 20
76.5624
 30
0.0
 10
-14.8386
 20
76.5624
 30
0.0
 10
-14.8386
 20
76.5624
 30
0.0
 10
-14.8386
 20
76.5624
 30
0.0
 10
-14.8386
 20
76.5624
 30
0.0
 10
-14.8386
 20
72.5624
 30
0.0
 10
-14.8386
 20
72.5624
 30
0.0
 10
-14.8386
 20
72.5624
 30
0.0
 10
-14.8386
 20
72.5624
 30
0.0
 10
-16.8386
 20
72.5624
 30
0.0
 10
-16.8386
 20
72.5624
 30
0.0
 10
-16.8386
 20
72.5624
 30
0.0
 10
-16.8386
 20
72.5624
 30
0.0
 10
-16.8386
 20
68.5624
 30
0.0
 10
-16.8386
 20
68.5624
 30
0.0
 10
-16.8386
 20
68.5624
 30
0.0
 10
-16.8386
 20
68.5624
 30
0.0
 10
-14.8386
 20
68.5624
 30
0.0
 10
-14.8386
 20
68.5624
 30
0.0
 10
-14.8386
 20
68.5624
 30
0.0
 10
-14.8386
 20
68.5624
 30
0.0
 10
-14.8386
 20
64.5624
 30
0.0
 10
-14.8386
 20
64.5624
 30
0.0
 10
-14.8386
 20
64.5624
 30
0.0
 10
-14.8386
 20
64.5624
 30
0.0
 10
-16.8386
 20
64.5624
 30
0.0
 10
-16.8386
 20
64.5624
 30
0.0
 10
-16.8386
 20
64.5624
 30
0.0
 10
-16.8386
 20
64.5624
 30
0.0
 10
-16.8386
 20
60.5624
 30
0.0
 10
-16.8386
 20
60.5624
 30
0.0
 10
-16.8386
 20
60.5624
 30
0.0
 10
-16.8386
 20
60.5624
 30
0.0
 10
-14.8386
 20
60.5624
 30
0.0
 10
-14.8386
 20
60.5624
 30
0.0
 10
-14.8386
 20
60.5624
 30
0.0
 10
-14.8386
 20
60.5624
 30
0.0
 10
-14.8386
 20
56.5624
 30
0.0
 10
-14.8386
 20
56.5624
 30
0.0
 10
-14.8386
 20
56.5624
 30
0.0
 10
-14.8386
 20
56.5624
 30
0.0
 10
-16.8386
 20
56.5624
 30
0.0
 10
-16.8386
 20
56.5624
 30
0.0
 10
-16.8386
 20
56.5624
 30
0.0
 10
-16.8386
 20
56.5624
 30
0.0
 10
-16.8386
 20
52.5624
 30
0.0
 10
-16.8386
 20
52.5624
 30
0.0
 10
-16.8386
 20
52.5624
 30
0.0
 10
-16.8386
 20
52.5624
 30
0.0
 10
-14.8386
 20
52.5624
 30
0.0
 10
-14.8386
 20
52.5624
 30
0.0
 10
-14.8386
 20
52.5624
 30
0.0
 10
-14.8386
 20
52.5624
 30
0.0
 10
-14.8386
 20
48.5624
 30
0.0
 10
-14.8386
 20
48.5624
 30
0.0
 10
-14.8386
 20
48.5624
 30
0.0
 10
-14.8386
 20
48.5624
 30
0.0
 10
-16.8386
 20
48.5624
 30
0.0
 10
-16.8386
 20
48.5624
 30
0.0
 10
-16.8386
 20
48.5624
 30
0.0
 10
-16.8386
 20
48.5624
 30
0.0
 10
-16.8386
 20
44.5624
 30
0.0
 10
-16.8386
 20
44.5624
 30
0.0
 10
-16.8386
 20
44.5624
 30
0.0
 10
-16.8386
 20
44.5624
 30
0.0
 10
-14.8386
 20
44.5624
 30
0.0
 10
-14.8386
 20
44.5624
 30
0.0
 10
-14.8386
 20
44.5624
 30
0.0
 10
-14.8386
 20
44.5624
 30
0.0
 10
-14.8386
 20
40.5624
 30
0.0
 10
-14.8386
 20
40.5624
 30
0.0
 10
-14.8386
 20
40.5624
 30
0.0
 10
-14.8386
 20
40.5624
 30
0.0
 10
-16.8386
 20
40.5624
 30
0.0
 10
-16.8386
 20
40.5624
 30
0.0
 10
-16.8386
 20
40.5624
 30
0.0
 10
-16.8386
 20
40.5624
 30
0.0
 10
-16.8386
 20
36.5624
 30
0.0
 10
-16.8386
 20
36.5624
 30
0.0
 10
-16.8386
 20
36.5624
 30
0.0
 10
-16.8386
 20
36.5624
 30
0.0
 10
-14.8386
 20
36.5624
 30
0.0
 10
-14.8386
 20
36.5624
 30
0.0
 10
-14.8386
 20
36.5624
 30
0.0
 10
-14.8386
 20
36.5624
 30
0.0
 10
-14.8386
 20
32.5624
 30
0.0
 10
-14.8386
 20
32.5624
 30
0.0
 10
-14.8386
 20
32.5624
 30
0.0
 10
-14.8386
 20
32.5624
 30
0.0
 10
-16.8386
 20
32.5624
 30
0.0
 10
-16.8386
 20
32.5624
 30
0.0
 10
-16.8386
 20
32.5624
 30
0.0
 10
-16.8386
 20
32.5624
 30
0.0
 10
-16.8386
 20
28.5624
 30
0.0
 10
-16.8386
 20
28.5624
 30
0.0
 10
-16.8386
 20
28.5624
 30
0.0
 10
-16.8386
 20
28.5624
 30
0.0
 10
-14.8386
 20
28.5624
 30
0.0
 10
-14.8386
 20
28.5624
 30
0.0
 10
-14.8386
 20
28.5624
 30
0.0
 10
-14.8386
 20
28.5624
 30
0.0
 10
-14.8386
 20
24.5624
 30
0.0
 10
-14.8386
 20
24.5624
 30
0.0
 10
-14.8386
 20
24.5624
 30
0.0
 10
-14.8386
 20
24.5624
 30
0.0
 10
-16.8386
 20
24.5624
 30
0.0
 10
-16.8386
 20
24.5624
 30
0.0
 10
-16.8386
 20
24.5624
 30
0.0
 10
-16.8386
 20
24.5624
 30
0.0
 10
-16.8386
 20
20.5624
 30
0.0
 10
-16.8386
 20
20.5624
 30
0.0
 10
-16.8386
 20
20.5624
 30
0.0
 10
-16.8386
 20
20.5624
 30
0.0
 10
-14.8386
 20
20.5624
 30
0.0
 10
-14.8386
 20
20.5624
 30
0.0
 10
-14.8386
 20
20.5624
 30
0.0
 10
-14.8386
 20
20.5624
 30
0.0
 10
-14.8386
 20
16.5624
 30
0.0
 10
-14.8386
 20
16.5624
 30
0.0
 10
-14.8386
 20
16.5624
 30
0.0
 10
-14.8386
 20
16.5624
 30
0.0
 10
-16.8386
 20
16.5624
 30
0.0
 10
-16.8386
 20
16.5624
 30
0.0
 10
-16.8386
 20
16.5624
 30
0.0
 10
-16.8386
 20
16.5624
 30
0.0
 10
-16.8386
 20
12.5624
 30
0.0
 10
-16.8386
 20
12.5624
 30
0.0
 10
-16.8386
 20
12.5624
 30
0.0
 10
-16.8386
 20
12.5624
 30
0.0
 10
-14.8386
 20
12.5624
 30
0.0
 10
-14.8386
 20
12.5624
 30
0.0
 10
-14.8386
 20
12.5624
 30
0.0
 10
-14.8386
 20
12.5624
 30
0.0
 10
-14.8386
 20
7.3124
 30
0.0
 10
-14.8386
 20
7.3124
 30
0.0
 10
-14.8386
 20
7.3124
 30
0.0
 10
-14.8386
 20
7.3124
 30
0.0
 10
-16.8386
 20
7.3124
 30
0.0
 10
-16.8386
 20
7.3124
 30
0.0
 10
-16.8386
 20
7.3124
 30
0.0
 10
-16.8386
 20
7.3124
 30
0.0
 10
-16.8386
 20
4.0624
 30
0.0
 10
-16.8386
 20
4.0624
 30
0.0
 10
-16.8386
 20
4.0624
 30
0.0
 10
-16.8386
 20
4.0624
 30
0.0
 10
-20.5886
 20
4.0624
 30
0.0
 10
-20.5886
 20
4.0624
 30
0.0
 10
-20.5886
 20
4.0624
 30
0.0
 10
-20.5886
 20
4.0624
 30
0.0
 10
-20.5886
 20
2.0624
 30
0.0
 10
-20.5886
 20
2.0624
 30
0.0
 10
-20.5886
 20
2.0624
 30
0.0
 10
-20.5886
 20
2.0624
 30
0.0
 10
-26.3386
 20
2.0624
 30
0.0
 10
-26.3386
 20
2.0624
 30
0.0
 10
-26.3386
 20
2.0624
 30
0.0
 10
-26.3386
 20
2.0624
 30
0.0
 10
-26.3386
 20
4.0624
 30
0.0
 10
-26.3386
 20
4.0624
 30
0.0
 10
-26.3386
 20
4.0624
 30
0.0
 10
-26.3386
 20
4.0624
 30
0.0
 10
-30.3386
 20
4.0624
 30
0.0
 10
-30.3386
 20
4.0624
 30
0.0
 10
-30.3386
 20
4.0624
 30
0.0
 10
-30.3386
 20
4.0624
 30
0.0
 10
-30.3386
 20
2.0624
 30
0.0
 10
-30.3386
 20
2.0624
 30
0.0
 10
-30.3386
 20
2.0624
 30
0.0
 10
-30.3386
 20
2.0624
 30
0.0
 10
-34.3386
 20
2.0624
 30
0.0
 10
-34.3386
 20
2.0624
 30
0.0
 10
-34.3386
 20
2.0624
 30
0.0
 10
-34.3386
 20
2.0624
 30
0.0
 10
-34.3386
 20
4.0624
 30
0.0
 10
-34.3386
 20
4.0624
 30
0.0
 10
-34.3386
 20
4.0624
 30
0.0
 10
-34.3386
 20
4.0624
 30
0.0
 10
-38.3386
 20
4.0624
 30
0.0
 10
-38.3386
 20
4.0624
 30
0.0
 10
-38.3386
 20
4.0624
 30
0.0
 10
-38.3386
 20
4.0624
 30
0.0
 10
-38.3386
 20
2.0624
 30
0.0
 10
-38.3386
 20
2.0624
 30
0.0
 10
-38.3386
 20
2.0624
 30
0.0
 10
-38.3386
 20
2.0624
 30
0.0
 10
-42.3386
 20
2.0624
 30
0.0
 10
-42.3386
 20
2.0624
 30
0.0
 10
-42.3386
 20
2.0624
 30
0.0
 10
-42.3386
 20
2.0624
 30
0.0
 10
-42.3386
 20
4.0624
 30
0.0
 10
-42.3386
 20
4.0624
 30
0.0
 10
-42.3386
 20
4.0624
 30
0.0
 10
-42.3386
 20
4.0624
 30
0.0
 10
-46.3386
 20
4.0624
 30
0.0
 10
-46.3386
 20
4.0624
 30
0.0
 10
-46.3386
 20
4.0624
 30
0.0
 10
-46.3386
 20
4.0624
 30
0.0
 10
-46.3386
 20
2.0624
 30
0.0
 10
-46.3386
 20
2.0624
 30
0.0
 10
-46.3386
 20
2.0624
 30
0.0
 10
-46.3386
 20
2.0624
 30
0.0
 10
-50.3386
 20
2.0624
 30
0.0
 10
-50.3386
 20
2.0624
 30
0.0
 10
-50.3386
 20
2.0624
 30
0.0
 10
-50.3386
 20
2.0624
 30
0.0
 10
-50.3386
 20
4.0624
 30
0.0
 10
-50.3386
 20
4.0624
 30
0.0
 10
-50.3386
 20
4.0624
 30
0.0
 10
-50.3386
 20
4.0624
 30
0.0
 10
-54.3386
 20
4.0624
 30
0.0
 10
-54.3386
 20
4.0624
 30
0.0
 10
-54.3386
 20
4.0624
 30
0.0
 10
-54.3386
 20
4.0624
 30
0.0
 10
-54.3386
 20
2.0624
 30
0.0
 10
-54.3386
 20
2.0624
 30
0.0
 10
-54.3386
 20
2.0624
 30
0.0
 10
-54.3386
 20
2.0624
 30
0.0
 10
-58.3386
 20
2.0624
 30
0.0
 10
-58.3386
 20
2.0624
 30
0.0
 10
-58.3386
 20
2.0624
 30
0.0
 10
-58.3386
 20
2.0624
 30
0.0
 10
-58.3386
 20
4.0624
 30
0.0
 10
-58.3386
 20
4.0624
 30
0.0
 10
-58.3386
 20
4.0624
 30
0.0
 10
-58.3386
 20
4.0624
 30
0.0
 10
-62.3386
 20
4.0624
 30
0.0
 10
-62.3386
 20
4.0624
 30
0.0
 10
-62.3386
 20
4.0624
 30
0.0
 10
-62.3386
 20
4.0624
 30
0.0
 10
-62.3386
 20
2.0624
 30
0.0
 10
-62.3386
 20
2.0624
 30
0.0
 10
-62.3386
 20
2.0624
 30
0.0
 10
-62.3386
 20
2.0624
 30
0.0
 10
-66.3386
 20
2.0624
 30
0.0
 10
-66.3386
 20
2.0624
 30
0.0
 10
-66.3386
 20
2.0624
 30
0.0
 10
-66.3386
 20
2.0624
 30
0.0
 10
-66.3386
 20
4.0624
 30
0.0
 10
-66.3386
 20
4.0624
 30
0.0
 10
-66.3386
 20
4.0624
 30
0.0
 10
-66.3386
 20
4.0624
 30
0.0
 10
-70.3386
 20
4.0624
 30
0.0
 10
-70.3386
 20
4.0624
 30
0.0
 10
-70.3386
 20
4.0624
 30
0.0
 10
-70.3386
 20
4.0624
 30
0.0
 10
-70.3386
 20
2.0624
 30
0.0
 10
-70.3386
 20
2.0624
 30
0.0
 10
-70.3386
 20
2.0624
 30
0.0
 10
-70.3386
 20
2.0624
 30
0.0
 10
-74.3386
 20
2.0624
 30
0.0
 10
-74.3386
 20
2.0624
 30
0.0
 10
-74.3386
 20
2.0624
 30
0.0
 10
-74.3386
 20
2.0624
 30
0.0
 10
-74.3386
 20
4.0624
 30
0.0
 10
-74.3386
 20
4.0624
 30
0.0
 10
-74.3386
 20
4.0624
 30
0.0
 10
-74.3386
 20
4.0624
 30
0.0
 10
-78.3386
 20
4.0624
 30
0.0
 10
-78.3386
 20
4.0624
 30
0.0
 10
-78.3386
 20
4.0624
 30
0.0
 10
-78.3386
 20
4.0624
 30
0.0
 10
-78.3386
 20
2.0624
 30
0.0
 10
-78.3386
 20
2.0624
 30
0.0
 10
-78.3386
 20
2.0624
 30
0.0
 10
-78.3386
 20
2.0624
 30
0.0
 10
-84.0886
 20
2.0624
 30
0.0
 10
-84.0886
 20
2.0624
 30
0.0
 10
-84.0886
 20
2.0624
 30
0.0
 10
-84.0886
 20
2.0624
 30
0.0
 10
-84.0886
 20
4.0624
 30
0.0
 10
-84.0886
 20
4.0624
 30
0.0
 10
-84.0886
 20
4.0624
 30
0.0
 10
-84.0886
 20
4.0624
 30
0.0
 10
-87.8386
 20
4.0624
 30
0.0
 10
-87.8386
 20
4.0624
 30
0.0
 10
-87.8386
 20
4.0624
 30
0.0
 10
-87.8386
 20
4.0624
 30
0.0
 10
-87.8386
 20
7.3124
 30
0.0
 10
-87.8386
 20
7.3124
 30
0.0
 10
-87.8386
 20
7.3124
 30
0.0
 10
-87.8386
 20
7.3124
 30
0.0
 10
-89.8386
 20
7.3124
 30
0.0
 10
-89.8386
 20
7.3124
 30
0.0
 10
-89.8386
 20
7.3124
 30
0.0
 10
-89.8386
 20
7.3124
 30
0.0
 10
-89.8386
 20
12.5624
 30
0.0
 10
-89.8386
 20
12.5624
 30
0.0
 10
-89.8386
 20
12.5624
 30
0.0
 10
-89.8386
 20
12.5624
 30
0.0
 10
-87.8386
 20
12.5624
 30
0.0
 10
-87.8386
 20
12.5624
 30
0.0
 10
-87.8386
 20
12.5624
 30
0.0
 10
-87.8386
 20
12.5624
 30
0.0
 10
-87.8386
 20
16.5624
 30
0.0
 10
-87.8386
 20
16.5624
 30
0.0
 10
-87.8386
 20
16.5624
 30
0.0
 10
-87.8386
 20
16.5624
 30
0.0
 10
-89.8386
 20
16.5624
 30
0.0
 10
-89.8386
 20
16.5624
 30
0.0
 10
-89.8386
 20
16.5624
 30
0.0
 10
-89.8386
 20
16.5624
 30
0.0
 10
-89.8386
 20
20.5624
 30
0.0
 10
-89.8386
 20
20.5624
 30
0.0
 10
-89.8386
 20
20.5624
 30
0.0
 10
-89.8386
 20
20.5624
 30
0.0
 10
-87.8386
 20
20.5624
 30
0.0
 10
-87.8386
 20
20.5624
 30
0.0
 10
-87.8386
 20
20.5624
 30
0.0
 10
-87.8386
 20
20.5624
 30
0.0
 10
-87.8386
 20
24.5624
 30
0.0
 10
-87.8386
 20
24.5624
 30
0.0
 10
-87.8386
 20
24.5624
 30
0.0
 10
-87.8386
 20
24.5624
 30
0.0
 10
-89.8386
 20
24.5624
 30
0.0
 10
-89.8386
 20
24.5624
 30
0.0
 10
-89.8386
 20
24.5624
 30
0.0
 10
-89.8386
 20
24.5624
 30
0.0
 10
-89.8386
 20
28.5624
 30
0.0
 10
-89.8386
 20
28.5624
 30
0.0
 10
-89.8386
 20
28.5624
 30
0.0
 10
-89.8386
 20
28.5624
 30
0.0
 10
-87.8386
 20
28.5624
 30
0.0
 10
-87.8386
 20
28.5624
 30
0.0
 10
-87.8386
 20
28.5624
 30
0.0
 10
-87.8386
 20
28.5624
 30
0.0
 10
-87.8386
 20
32.5624
 30
0.0
 10
-87.8386
 20
32.5624
 30
0.0
 10
-87.8386
 20
32.5624
 30
0.0
 10
-87.8386
 20
32.5624
 30
0.0
 10
-89.8386
 20
32.5624
 30
0.0
 10
-89.8386
 20
32.5624
 30
0.0
 10
-89.8386
 20
32.5624
 30
0.0
 10
-89.8386
 20
32.5624
 30
0.0
 10
-89.8386
 20
36.5624
 30
0.0
 10
-89.8386
 20
36.5624
 30
0.0
 10
-89.8386
 20
36.5624
 30
0.0
 10
-89.8386
 20
36.5624
 30
0.0
 10
-87.8386
 20
36.5624
 30
0.0
 10
-87.8386
 20
36.5624
 30
0.0
 10
-87.8386
 20
36.5624
 30
0.0
 10
-87.8386
 20
36.5624
 30
0.0
 10
-87.8386
 20
40.5624
 30
0.0
 10
-87.8386
 20
40.5624
 30
0.0
 10
-87.8386
 20
40.5624
 30
0.0
 10
-87.8386
 20
40.5624
 30
0.0
 10
-89.8386
 20
40.5624
 30
0.0
 10
-89.8386
 20
40.5624
 30
0.0
 10
-89.8386
 20
40.5624
 30
0.0
 10
-89.8386
 20
40.5624
 30
0.0
 10
-89.8386
 20
44.5624
 30
0.0
 10
-89.8386
 20
44.5624
 30
0.0
 10
-89.8386
 20
44.5624
 30
0.0
 10
-89.8386
 20
44.5624
 30
0.0
 10
-87.8386
 20
44.5624
 30
0.0
 10
-87.8386
 20
44.5624
 30
0.0
 10
-87.8386
 20
44.5624
 30
0.0
 10
-87.8386
 20
44.5624
 30
0.0
 10
-87.8386
 20
48.5624
 30
0.0
 10
-87.8386
 20
48.5624
 30
0.0
 10
-87.8386
 20
48.5624
 30
0.0
 10
-87.8386
 20
48.5624
 30
0.0
 10
-89.8386
 20
48.5624
 30
0.0
 10
-89.8386
 20
48.5624
 30
0.0
 10
-89.8386
 20
48.5624
 30
0.0
 10
-89.8386
 20
48.5624
 30
0.0
 10
-89.8386
 20
52.5624
 30
0.0
 10
-89.8386
 20
52.5624
 30
0.0
 10
-89.8386
 20
52.5624
 30
0.0
 10
-89.8386
 20
52.5624
 30
0.0
 10
-87.8386
 20
52.5624
 30
0.0
 10
-87.8386
 20
52.5624
 30
0.0
 10
-87.8386
 20
52.5624
 30
0.0
 10
-87.8386
 20
52.5624
 30
0.0
 10
-87.8386
 20
56.5624
 30
0.0
 10
-87.8386
 20
56.5624
 30
0.0
 10
-87.8386
 20
56.5624
 30
0.0
 10
-87.8386
 20
56.5624
 30
0.0
 10
-89.8386
 20
56.5624
 30
0.0
 10
-89.8386
 20
56.5624
 30
0.0
 10
-89.8386
 20
56.5624
 30
0.0
 10
-89.8386
 20
56.5624
 30
0.0
 10
-89.8386
 20
60.5624
 30
0.0
 10
-89.8386
 20
60.5624
 30
0.0
 10
-89.8386
 20
60.5624
 30
0.0
 10
-89.8386
 20
60.5624
 30
0.0
 10
-87.8386
 20
60.5624
 30
0.0
 10
-87.8386
 20
60.5624
 30
0.0
 10
-87.8386
 20
60.5624
 30
0.0
 10
-87.8386
 20
60.5624
 30
0.0
 10
-87.8386
 20
64.5624
 30
0.0
 10
-87.8386
 20
64.5624
 30
0.0
 10
-87.8386
 20
64.5624
 30
0.0
 10
-87.8386
 20
64.5624
 30
0.0
 10
-89.8386
 20
64.5624
 30
0.0
 10
-89.8386
 20
64.5624
 30
0.0
 10
-89.8386
 20
64.5624
 30
0.0
 10
-89.8386
 20
64.5624
 30
0.0
 10
-89.8386
 20
68.5624
 30
0.0
 10
-89.8386
 20
68.5624
 30
0.0
 10
-89.8386
 20
68.5624
 30
0.0
 10
-89.8386
 20
68.5624
 30
0.0
 10
-87.8386
 20
68.5624
 30
0.0
 10
-87.8386
 20
68.5624
 30
0.0
 10
-87.8386
 20
68.5624
 30
0.0
 10
-87.8386
 20
68.5624
 30
0.0
 10
-87.8386
 20
72.5624
 30
0.0
 10
-87.8386
 20
72.5624
 30
0.0
 10
-87.8386
 20
72.5624
 30
0.0
 10
-87.8386
 20
72.5624
 30
0.0
 10
-89.8386
 20
72.5624
 30
0.0
 10
-89.8386
 20
72.5624
 30
0.0
 10
-89.8386
 20
72.5624
 30
0.0
 10
-89.8386
 20
72.5624
 30
0.0
 10
-89.8386
 20
76.5624
 30
0.0
 10
-89.8386
 20
76.5624
 30
0.0
 10
-89.8386
 20
76.5624
 30
0.0
 10
-89.8386
 20
76.5624
 30
0.0
 10
-87.8386
 20
76.5624
 30
0.0
 10
-87.8386
 20
76.5624
 30
0.0
 10
-87.8386
 20
76.5624
 30
0.0
 10
-87.8386
 20
76.5624
 30
0.0
 10
-87.8386
 20
80.5624
 30
0.0
 10
-87.8386
 20
80.5624
 30
0.0
 10
-87.8386
 20
80.5624
 30
0.0
 10
-87.8386
 20
80.5624
 30
0.0
 10
-89.8386
 20
80.5624
 30
0.0
 10
-89.8386
 20
80.5624
 30
0.0
 10
-89.8386
 20
80.5624
 30
0.0
 10
-89.8386
 20
80.5624
 30
0.0
 10
-89.8386
 20
84.5624
 30
0.0
 10
-89.8386
 20
84.5624
 30
0.0
 10
-89.8386
 20
84.5624
 30
0.0
 10
-89.8386
 20
84.5624
 30
0.0
 10
-87.8386
 20
84.5624
 30
0.0
 10
-87.8386
 20
84.5624
 30
0.0
 10
-87.8386
 20
84.5624
 30
0.0
 10
-87.8386
 20
84.5624
 30
0.0
 10
-87.8386
 20
88.5624
 30
0.0
 10
-87.8386
 20
88.5624
 30
0.0
 10
-87.8386
 20
88.5624
 30
0.0
 10
-87.8386
 20
88.5624
 30
0.0
 10
-89.8386
 20
88.5624
 30
0.0
 10
-89.8386
 20
88.5624
 30
0.0
 10
-89.8386
 20
88.5624
 30
0.0
 10
-89.8386
 20
88.5624
 30
0.0
 10
-89.8386
 20
92.5624
 30
0.0
 10
-89.8386
 20
92.5624
 30
0.0
 10
-89.8386
 20
92.5624
 30
0.0
 10
-89.8386
 20
92.5624
 30
0.0
 10
-87.8386
 20
92.5624
 30
0.0
 10
-87.8386
 20
92.5624
 30
0.0
 10
-87.8386
 20
92.5624
 30
0.0
 10
-87.8386
 20
92.5624
 30
0.0
 10
-87.8386
 20
96.5624
 30
0.0
 10
-87.8386
 20
96.5624
 30
0.0
 10
-87.8386
 20
96.5624
 30
0.0
 10
-87.8386
 20
96.5624
 30
0.0
 10
-89.8386
 20
96.5624
 30
0.0
 10
-89.8386
 20
96.5624
 30
0.0
 10
-89.8386
 20
96.5624
 30
0.0
 10
-89.8386
 20
96.5624
 30
0.0
 10
-89.8386
 20
101.8124
 30
0.0
 10
-89.8386
 20
101.8124
 30
0.0
 10
-89.8386
 20
101.8124
 30
0.0
 10
-89.8386
 20
101.8124
 30
0.0
 10
-87.8386
 20
101.8124
 30
0.0
 10
-87.8386
 20
101.8124
 30
0.0
 10
-87.8386
 20
101.8124
 30
0.0
 10
-87.8386
 20
101.8124
 30
0.0
 10
-87.8386
 20
105.0624
 30
0.0
 10
-87.8386
 20
105.0624
 30
0.0
  0
SPLINE
  5
64
330
1F
100
AcDbEntity
  8
layer 1
370
    25
100
AcDbSpline
210
0.0
220
0.0
230
1.0
 70
    11
 71
     3
 72
   660
 73
   656
 74
     0
 42
0.0000000001
 43
0.0000000001
 40
0.0
 40
0.0
 40
0.0
 40
0.0
 40
0.0060975609756098
 40
0.0060975609756098
 40
0.0060975609756098
 40
0.0060975609756098
 40
0.0121951219512195
 40
0.0121951219512195
 40
0.0121951219512195
 40
0.0121951219512195
 40
0.0182926829268293
 40
0.0182926829268293
 40
0.0182926829268293
 40
0.0182926829268293
 40
0.024390243902439
 40
0.024390243902439
 40
0.024390243902439
 40
0.024390243902439
 40
0.0304878048780488
 40
0.0304878048780488
 40
0.0304878048780488
 40
0.0304878048780488
 40
0.0365853658536585
 40
0.0365853658536585
 40
0.0365853658536585
 40
0.0365853658536585
 40
0.0426829268292683
 40
0.0426829268292683
 40
0.0426829268292683
 40
0.0426829268292683
 40
0.048780487804878
 40
0.048780487804878
 40
0.048780487804878
 40
0.048780487804878
 40
0.0548780487804878
 40
0.0548780487804878
 40
0.0548780487804878
 40
0.0548780487804878
 40
0.0609756097560976
 40
0.0609756097560976
 40
0.0609756097560976
 40
0.0609756097560976
 40
0.0670731707317073
 40
0.0670731707317073
 40
0.0670731707317073
 40
0.0670731707317073
 40
0.0731707317073171
 40
0.0731707317073171
 40
0.0731707317073171
 40
0.0731707317073171
 40
0.0792682926829268
 40
0.0792682926829268
 40
0.0792682926829268
 40
0.0792682926829268
 40
0.0853658536585366
 40
0.0853658536585366
 40
0.0853658536585366
 40
0.0853658536585366
 40
0.0914634146341464
 40
0.0914634146341464
 40
0.0914634146341464
 40
0.0914634146341464
 40
0.0975609756097561
 40
0.0975609756097561
 40
0.0975609756097561
 40
0.0975609756097561
 40
0.1036585365853659
 40
0.1036585365853659
 40
0.1036585365853659
 40
0.1036585365853659
 40
0.1097560975609756
 40
0.1097560975609756
 40
0.1097560975609756
 40
0.1097560975609756
 40
0.1158536585365854
 40
0.1158536585365854
 40
0.1158536585365854
 40
0.1158536585365854
 40
0.1219512195121952
 40
0.1219512195121952
 40
0.1219512195121952
 40
0.1219512195121952
 40
0.1280487804878049
 40
0.1280487804878049
 40
0.1280487804878049
 40
0.1280487804878049
 40
0.1341463414634147
 40
0.1341463414634147
 40
0.1341463414634147
 40
0.1341463414634147
 40
0.1402439024390244
 40
0.1402439024390244
 40
0.1402439024390244
 40
0.1402439024390244
 40
0.1463414634146342
 40
0.1463414634146342
 40
0.1463414634146342
 40
0.1463414634146342
 40
0.152439024390244
 40
0.152439024390244
 40
0.152439024390244
 40
0.152439024390244
 40
0.1585365853658537
 40
0.1585365853658537
 40
0.1585365853658537
 40
0.1585365853658537
 40
0.1646341463414635
 40
0.1646341463414635
 40
0.1646341463414635
 40
0.1646341463414635
 40
0.1707317073170732
 40
0.1707317073170732
 40
0.1707317073170732
 40
0.1707317073170732
 40
0.176829268292683
 40
0.176829268292683
 40
0.176829268292683
 40
0.176829268292683
 40
0.1829268292682928
 40
0.1829268292682928
 40
0.1829268292682928
 40
0.1829268292682928
 40
0.1890243902439025
 40
0.1890243902439025
 40
0.1890243902439025
 40
0.1890243902439025
 40
0.1951219512195123
 40
0.1951219512195123
 40
0.1951219512195123
 40
0.1951219512195123
 40
0.201219512195122
 40
0.201219512195122
 40
0.201219512195122
 40
0.201219512195122
 40
0.2073170731707318
 40
0.2073170731707318
 40
0.2073170731707318
 40
0.2073170731707318
 40
0.2134146341463416
 40
0.2134146341463416
 40
0.2134146341463416
 40
0.2134146341463416
 40
0.2195121951219513
 40
0.2195121951219513
 40
0.2195121951219513
 40
0.2195121951219513
 40
0.2256097560975611
 40
0.2256097560975611
 40
0.2256097560975611
 40
0.2256097560975611
 40
0.2317073170731709
 40
0.2317073170731709
 40
0.2317073170731709
 40
0.2317073170731709
 40
0.2378048780487806
 40
0.2378048780487806
 40
0.2378048780487806
 40
0.2378048780487806
 40
0.2439024390243904
 40
0.2439024390243904
 40
0.2439024390243904
 40
0.2439024390243904
 40
0.2500000000000001
 40
0.2500000000000001
 40
0.2500000000000001
 40
0.2500000000000001
 40
0.2560975609756099
 40
0.2560975609756099
 40
0.2560975609756099
 40
0.2560975609756099
 40
0.2621951219512196
 40
0.2621951219512196
 40
0.2621951219512196
 40
0.2621951219512196
 40
0.2682926829268294
 40
0.2682926829268294
 40
0.2682926829268294
 40
0.2682926829268294
 40
0.2743902439024392
 40
0.2743902439024392
 40
0.2743902439024392
 40
0.2743902439024392
 40
0.2804878048780489
 40
0.2804878048780489
 40
0.2804878048780489
 40
0.2804878048780489
 40
0.2865853658536587
 40
0.2865853658536587
 40
0.2865853658536587
 40
0.2865853658536587
 40
0.2926829268292684
 40
0.2926829268292684
 40
0.2926829268292684
 40
0.2926829268292684
 40
0.2987804878048782
 40
0.2987804878048782
 40
0.2987804878048782
 40
0.2987804878048782
 40
0.304878048780488
 40
0.304878048780488
 40
0.304878048780488
 40
0.304878048780488
 40
0.3109756097560977
 40
0.3109756097560977
 40
0.3109756097560977
 40
0.3109756097560977
 40
0.3170731707317075
 40
0.3170731707317075
 40
0.3170731707317075
 40
0.3170731707317075
 40
0.3231707317073172
 40
0.3231707317073172
 40
0.3231707317073172
 40
0.3231707317073172
 40
0.329268292682927
 40
0.329268292682927
 40
0.329268292682927
 40
0.329268292682927
 40
0.3353658536585368
 40
0.3353658536585368
 40
0.3353658536585368
 40
0.3353658536585368
 40
0.3414634146341465
 40
0.3414634146341465
 40
0.3414634146341465
 40
0.3414634146341465
 40
0.3475609756097563
 40
0.3475609756097563
 40
0.3475609756097563
 40
0.3475609756097563
 40
0.3536585365853661
 40
0.3536585365853661
 40
0.3536585365853661
 40
0.3536585365853661
 40
0.3597560975609758
 40
0.3597560975609758
 40
0.3597560975609758
 40
0.3597560975609758
 40
0.3658536585365856
 40
0.3658536585365856
 40
0.3658536585365856
 40
0.3658536585365856
 40
0.3719512195121953
 40
0.3719512195121953
 40
0.3719512195121953
 40
0.3719512195121953
 40
0.3780487804878051
 40
0.3780487804878051
 40
0.3780487804878051
 40
0.3780487804878051
 40
0.3841463414634149
 40
0.3841463414634149
 40
0.3841463414634149
 40
0.3841463414634149
 40
0.3902439024390246
 40
0.3902439024390246
 40
0.3902439024390246
 40
0.3902439024390246
 40
0.3963414634146344
 40
0.3963414634146344
 40
0.3963414634146344
 40
0.3963414634146344
 40
0.4024390243902441
 40
0.4024390243902441
 40
0.4024390243902441
 40
0.4024390243902441
 40
0.4085365853658539
 40
0.4085365853658539
 40
0.4085365853658539
 40
0.4085365853658539
 40
0.4146341463414637
 40
0.4146341463414637
 40
0.4146341463414637
 40
0.4146341463414637
 40
0.4207317073170734
 40
0.4207317073170734
 40
0.4207317073170734
 40
0.4207317073170734
 40
0.4268292682926832
 40
0.4268292682926832
 40
0.4268292682926832
 40
0.4268292682926832
 40
0.432926829268293
 40
0.432926829268293
 40
0.432926829268293
 40
0.432926829268293
 40
0.4390243902439027
 40
0.4390243902439027
 40
0.4390243902439027
 40
0.4390243902439027
 40
0.4451219512195125
 40
0.4451219512195125
 40
0.4451219512195125
 40
0.4451219512195125
 40
0.4512195121951222
 40
0.4512195121951222
 40
0.4512195121951222
 40
0.4512195121951222
 40
0.457317073170732
 40
0.457317073170732
 40
0.457317073170732
 40
0.457317073170732
 40
0.4634146341463418
 40
0.4634146341463418
 40
0.4634146341463418
 40
0.4634146341463418
 40
0.4695121951219515
 40
0.4695121951219515
 40
0.4695121951219515
 40
0.4695121951219515
 40
0.4756097560975613
 40
0.4756097560975613
 40
0.4756097560975613
 40
0.4756097560975613
 40
0.481707317073171
 40
0.481707317073171
 40
0.481707317073171
 40
0.481707317073171
 40
0.4878048780487808
 40
0.4878048780487808
 40
0.4878048780487808
 40
0.4878048780487808
 40
0.4939024390243906
 40
0.4939024390243906
 40
0.4939024390243906
 40
0.4939024390243906
 40
0.5000000000000003
 40
0.5000000000000003
 40
0.5000000000000003
 40
0.5000000000000003
 40
0.5060975609756101
 40
0.5060975609756101
 40
0.5060975609756101
 40
0.5060975609756101
 40
0.5121951219512199
 40
0.5121951219512199
 40
0.5121951219512199
 40
0.5121951219512199
 40
0.5182926829268296
 40
0.5182926829268296
 40
0.5182926829268296
 40
0.5182926829268296
 40
0.5243902439024394
 40
0.5243902439024394
 40
0.5243902439024394
 40
0.5243902439024394
 40
0.5304878048780491
 40
0.5304878048780491
 40
0.5304878048780491
 40
0.5304878048780491
 40
0.5365853658536589
 40
0.5365853658536589
 40
0.5365853658536589
 40
0.5365853658536589
 40
0.5426829268292687
 40
0.5426829268292687
 40
0.5426829268292687
 40
0.5426829268292687
 40
0.5487804878048784
 40
0.5487804878048784
 40
0.5487804878048784
 40
0.5487804878048784
 40
0.5548780487804882
 40
0.5548780487804882
 40
0.5548780487804882
 40
0.5548780487804882
 40
0.560975609756098
 40
0.560975609756098
 40
0.560975609756098
 40
0.560975609756098
 40
0.5670731707317077
 40
0.5670731707317077
 40
0.5670731707317077
 40
0.5670731707317077
 40
0.5731707317073175
 40
0.5731707317073175
 40
0.5731707317073175
 40
0.5731707317073175
 40
0.5792682926829272
 40
0.5792682926829272
 40
0.5792682926829272
 40
0.5792682926829272
 40
0.585365853658537
 40
0.585365853658537
 40
0.585365853658537
 40
0.585365853658537
 40
0.5914634146341468
 40
0.5914634146341468
 40
0.5914634146341468
 40
0.5914634146341468
 40
0.5975609756097565
 40
0.5975609756097565
 40
0.5975609756097565
 40
0.5975609756097565
 40
0.6036585365853663
 40
0.6036585365853663
 40
0.6036585365853663
 40
0.6036585365853663
 40
0.609756097560976
 40
0.609756097560976
 40
0.609756097560976
 40
0.609756097560976
 40
0.6158536585365858
 40
0.6158536585365858
 40
0.6158536585365858
 40
0.6158536585365858
 40
0.6219512195121956
 40
0.6219512195121956
 40
0.6219512195121956
 40
0.6219512195121956
 40
0.6280487804878053
 40
0.6280487804878053
 40
0.6280487804878053
 40
0.6280487804878053
 40
0.6341463414634151
 40
0.6341463414634151
 40
0.6341463414634151
 40
0.6341463414634151
 40
0.6402439024390248
 40
0.6402439024390248
 40
0.6402439024390248
 40
0.6402439024390248
 40
0.6463414634146346
 40
0.6463414634146346
 40
0.6463414634146346
 40
0.6463414634146346
 40
0.6524390243902444
 40
0.6524390243902444
 40
0.6524390243902444
 40
0.6524390243902444
 40
0.6585365853658541
 40
0.6585365853658541
 40
0.6585365853658541
 40
0.6585365853658541
 40
0.6646341463414639
 40
0.6646341463414639
 40
0.6646341463414639
 40
0.6646341463414639
 40
0.6707317073170737
 40
0.6707317073170737
 40
0.6707317073170737
 40
0.6707317073170737
 40
0.6768292682926834
 40
0.6768292682926834
 40
0.6768292682926834
 40
0.6768292682926834
 40
0.6829268292682932
 40
0.6829268292682932
 40
0.6829268292682932
 40
0.6829268292682932
 40
0.6890243902439029
 40
0.6890243902439029
 40
0.6890243902439029
 40
0.6890243902439029
 40
0.6951219512195127
 40
0.6951219512195127
 40
0.6951219512195127
 40
0.6951219512195127
 40
0.7012195121951225
 40
0.7012195121951225
 40
0.7012195121951225
 40
0.7012195121951225
 40
0.7073170731707322
 40
0.7073170731707322
 40
0.7073170731707322
 40
0.7073170731707322
 40
0.713414634146342
 40
0.713414634146342
 40
0.713414634146342
 40
0.713414634146342
 40
0.7195121951219517
 40
0.7195121951219517
 40
0.7195121951219517
 40
0.7195121951219517
 40
0.7256097560975615
 40
0.7256097560975615
 40
0.7256097560975615
 40
0.7256097560975615
 40
0.7317073170731713
 40
0.7317073170731713
 40
0.7317073170731713
 40
0.7317073170731713
 40
0.737804878048781
 40
0.737804878048781
 40
0.737804878048781
 40
0.737804878048781
 40
0.7439024390243908
 40
0.7439024390243908
 40
0.7439024390243908
 40
0.7439024390243908
 40
0.7500000000000006
 40
0.7500000000000006
 40
0.7500000000000006
 40
0.7500000000000006
 40
0.7560975609756103
 40
0.7560975609756103
 40
0.7560975609756103
 40
0.7560975609756103
 40
0.7621951219512201
 40
0.7621951219512201
 40
0.7621951219512201
 40
0.7621951219512201
 40
0.7682926829268298
 40
0.7682926829268298
 40
0.7682926829268298
 40
0.7682926829268298
 40
0.7743902439024396
 40
0.7743902439024396
 40
0.7743902439024396
 40
0.7743902439024396
 40
0.7804878048780494
 40
0.7804878048780494
 40
0.7804878048780494
 40
0.7804878048780494
 40
0.7865853658536591
 40
0.7865853658536591
 40
0.7865853658536591
 40
0.7865853658536591
 40
0.7926829268292689
 40
0.7926829268292689
 40
0.7926829268292689
 40
0.7926829268292689
 40
0.7987804878048786
 40
0.7987804878048786
 40
0.7987804878048786
 40
0.7987804878048786
 40
0.8048780487804884
 40
0.8048780487804884
 40
0.8048780487804884
 40
0.8048780487804884
 40
0.8109756097560982
 40
0.8109756097560982
 40
0.8109756097560982
 40
0.8109756097560982
 40
0.8170731707317079
 40
0.8170731707317079
 40
0.8170731707317079
 40
0.8170731707317079
 40
0.8231707317073177
 40
0.8231707317073177
 40
0.8231707317073177
 40
0.8231707317073177
 40
0.8292682926829275
 40
0.8292682926829275
 40
0.8292682926829275
 40
0.8292682926829275
 40
0.8353658536585372
 40
0.8353658536585372
 40
0.8353658536585372
 40
0.8353658536585372
 40
0.841463414634147
 40
0.841463414634147
 40
0.841463414634147
 40
0.841463414634147
 40
0.8475609756097567
 40
0.8475609756097567
 40
0.8475609756097567
 40
0.8475609756097567
 40
0.8536585365853665
 40
0.8536585365853665
 40
0.8536585365853665
 40
0.8536585365853665
 40
0.8597560975609763
 40
0.8597560975609763
 40
0.8597560975609763
 40
0.8597560975609763
 40
0.865853658536586
 40
0.865853658536586
 40
0.865853658536586
 40
0.865853658536586
 40
0.8719512195121958
 40
0.8719512195121958
 40
0.8719512195121958
 40
0.8719512195121958
 40
0.8780487804878055
 40
0.8780487804878055
 40
0.8780487804878055
 40
0.8780487804878055
 40
0.8841463414634153
 40
0.8841463414634153
 40
0.8841463414634153
 40
0.8841463414634153
 40
0.8902439024390251
 40
0.8902439024390251
 40
0.8902439024390251
 40
0.8902439024390251
 40
0.8963414634146348
 40
0.8963414634146348
 40
0.8963414634146348
 40
0.8963414634146348
 40
0.9024390243902446
 40
0.9024390243902446
 40
0.9024390243902446
 40
0.9024390243902446
 40
0.9085365853658544
 40
0.9085365853658544
 40
0.9085365853658544
 40
0.9085365853658544
 40
0.9146341463414641
 40
0.9146341463414641
 40
0.9146341463414641
 40
0.9146341463414641
 40
0.9207317073170739
 40
0.9207317073170739
 40
0.9207317073170739
 40
0.9207317073170739
 40
0.9268292682926836
 40
0.9268292682926836
 40
0.9268292682926836
 40
0.9268292682926836
 40
0.9329268292682934
 40
0.9329268292682934
 40
0.9329268292682934
 40
0.9329268292682934
 40
0.9390243902439032
 40
0.9390243902439032
 40
0.9390243902439032
 40
0.9390243902439032
 40
0.9451219512195129
 40
0.9451219512195129
 40
0.9451219512195129
 40
0.9451219512195129
 40
0.9512195121951227
 40
0.9512195121951227
 40
0.9512195121951227
 40
0.9512195121951227
 40
0.9573170731707324
 40
0.9573170731707324
 40
0.9573170731707324
 40
0.9573170731707324
 40
0.9634146341463422
 40
0.9634146341463422
 40
0.9634146341463422
 40
0.9634146341463422
 40
0.969512195121952
 40
0.969512195121952
 40
0.969512195121952
 40
0.969512195121952
 40
0.9756097560975617
 40
0.9756097560975617
 40
0.9756097560975617
 40
0.9756097560975617
 40
0.9817073170731715
 40
0.9817073170731715
 40
0.9817073170731715
 40
0.9817073170731715
 40
0.9878048780487813
 40
0.9878048780487813
 40
0.9878048780487813
 40
0.9878048780487813
 40
0.993902439024391
 40
0.993902439024391
 40
0.993902439024391
 40
0.993902439024391
 40
1.0
 40
1.0
 40
1.0
 40
1.0
 10
-85.7702
 20
-6.7262
 30
0.0
 10
-85.7702
 20
-6.7262
 30
0.0
 10
-82.0202
 20
-6.7262
 30
0.0
 10
-82.0202
 20
-6.7262
 30
0.0
 10
-82.0202
 20
-6.7262
 30
0.0
 10
-82.0202
 20
-6.7262
 30
0.0
 10
-82.0202
 20
-4.7262
 30
0.0
 10
-82.0202
 20
-4.7262
 30
0.0
 10
-82.0202
 20
-4.7262
 30
0.0
 10
-82.0202
 20
-4.7262
 30
0.0
 10
-76.2702
 20
-4.7262
 30
0.0
 10
-76.2702
 20
-4.7262
 30
0.0
 10
-76.2702
 20
-4.7262
 30
0.0
 10
-76.2702
 20
-4.7262
 30
0.0
 10
-76.2702
 20
-6.7262
 30
0.0
 10
-76.2702
 20
-6.7262
 30
0.0
 10
-76.2702
 20
-6.7262
 30
0.0
 10
-76.2702
 20
-6.7262
 30
0.0
 10
-72.2702
 20
-6.7262
 30
0.0
 10
-72.2702
 20
-6.7262
 30
0.0
 10
-72.2702
 20
-6.7262
 30
0.0
 10
-72.2702
 20
-6.7262
 30
0.0
 10
-72.2702
 20
-4.7262
 30
0.0
 10
-72.2702
 20
-4.7262
 30
0.0
 10
-72.2702
 20
-4.7262
 30
0.0
 10
-72.2702
 20
-4.7262
 30
0.0
 10
-68.2702
 20
-4.7262
 30
0.0
 10
-68.2702
 20
-4.7262
 30
0.0
 10
-68.2702
 20
-4.7262
 30
0.0
 10
-68.2702
 20
-4.7262
 30
0.0
 10
-68.2702
 20
-6.7262
 30
0.0
 10
-68.2702
 20
-6.7262
 30
0.0
 10
-68.2702
 20
-6.7262
 30
0.0
 10
-68.2702
 20
-6.7262
 30
0.0
 10
-64.2702
 20
-6.7262
 30
0.0
 10
-64.2702
 20
-6.7262
 30
0.0
 10
-64.2702
 20
-6.7262
 30
0.0
 10
-64.2702
 20
-6.7262
 30
0.0
 10
-64.2702
 20
-4.7262
 30
0.0
 10
-64.2702
 20
-4.7262
 30
0.0
 10
-64.2702
 20
-4.7262
 30
0.0
 10
-64.2702
 20
-4.7262
 30
0.0
 10
-60.2702
 20
-4.7262
 30
0.0
 10
-60.2702
 20
-4.7262
 30
0.0
 10
-60.2702
 20
-4.7262
 30
0.0
 10
-60.2702
 20
-4.7262
 30
0.0
 10
-60.2702
 20
-6.7262
 30
0.0
 10
-60.2702
 20
-6.7262
 30
0.0
 10
-60.2702
 20
-6.7262
 30
0.0
 10
-60.2702
 20
-6.7262
 30
0.0
 10
-56.2702
 20
-6.7262
 30
0.0
 10
-56.2702
 20
-6.7262
 30
0.0
 10
-56.2702
 20
-6.7262
 30
0.0
 10
-56.2702
 20
-6.7262
 30
0.0
 10
-56.2702
 20
-4.7262
 30
0.0
 10
-56.2702
 20
-4.7262
 30
0.0
 10
-56.2702
 20
-4.7262
 30
0.0
 10
-56.2702
 20
-4.7262
 30
0.0
 10
-52.2702
 20
-4.7262
 30
0.0
 10
-52.2702
 20
-4.7262
 30
0.0
 10
-52.2702
 20
-4.7262
 30
0.0
 10
-52.2702
 20
-4.7262
 30
0.0
 10
-52.2702
 20
-6.7262
 30
0.0
 10
-52.2702
 20
-6.7262
 30
0.0
 10
-52.2702
 20
-6.7262
 30
0.0
 10
-52.2702
 20
-6.7262
 30
0.0
 10
-48.2702
 20
-6.7262
 30
0.0
 10
-48.2702
 20
-6.7262
 30
0.0
 10
-48.2702
 20
-6.7262
 30
0.0
 10
-48.2702
 20
-6.7262
 30
0.0
 10
-48.2702
 20
-4.7262
 30
0.0
 10
-48.2702
 20
-4.7262
 30
0.0
 10
-48.2702
 20
-4.7262
 30
0.0
 10
-48.2702
 20
-4.7262
 30
0.0
 10
-44.2702
 20
-4.7262
 30
0.0
 10
-44.2702
 20
-4.7262
 30
0.0
 10
-44.2702
 20
-4.7262
 30
0.0
 10
-44.2702
 20
-4.7262
 30
0.0
 10
-44.2702
 20
-6.7262
 30
0.0
 10
-44.2702
 20
-6.7262
 30
0.0
 10
-44.2702
 20
-6.7262
 30
0.0
 10
-44.2702
 20
-6.7262
 30
0.0
 10
-40.2702
 20
-6.7262
 30
0.0
 10
-40.2702
 20
-6.7262
 30
0.0
 10
-40.2702
 20
-6.7262
 30
0.0
 10
-40.2702
 20
-6.7262
 30
0.0
 10
-40.2702
 20
-4.7262
 30
0.0
 10
-40.2702
 20
-4.7262
 30
0.0
 10
-40.2702
 20
-4.7262
 30
0.0
 10
-40.2702
 20
-4.7262
 30
0.0
 10
-36.2702
 20
-4.7262
 30
0.0
 10
-36.2702
 20
-4.7262
 30
0.0
 10
-36.2702
 20
-4.7262
 30
0.0
 10
-36.2702
 20
-4.7262
 30
0.0
 10
-36.2702
 20
-6.7262
 30
0.0
 10
-36.2702
 20
-6.7262
 30
0.0
 10
-36.2702
 20
-6.7262
 30
0.0
 10
-36.2702
 20
-6.7262
 30
0.0
 10
-32.2702
 20
-6.7262
 30
0.0
 10
-32.2702
 20
-6.7262
 30
0.0
 10
-32.2702
 20
-6.7262
 30
0.0
 10
-32.2702
 20
-6.7262
 30
0.0
 10
-32.2702
 20
-4.7262
 30
0.0
 10
-32.2702
 20
-4.7262
 30
0.0
 10
-32.2702
 20
-4.7262
 30
0.0
 10
-32.2702
 20
-4.7262
 30
0.0
 10
-28.2702
 20
-4.7262
 30
0.0
 10
-28.2702
 20
-4.7262
 30
0.0
 10
-28.2702
 20
-4.7262
 30
0.0
 10
-28.2702
 20
-4.7262
 30
0.0
 10
-28.2702
 20
-6.7262
 30
0.0
 10
-28.2702
 20
-6.7262
 30
0.0
 10
-28.2702
 20
-6.7262
 30
0.0
 10
-28.2702
 20
-6.7262
 30
0.0
 10
-24.2702
 20
-6.7262
 30
0.0
 10
-24.2702
 20
-6.7262
 30
0.0
 10
-24.2702
 20
-6.7262
 30
0.0
 10
-24.2702
 20
-6.7262
 30
0.0
 10
-24.2702
 20
-4.7262
 30
0.0
 10
-24.2702
 20
-4.7262
 30
0.0
 10
-24.2702
 20
-4.7262
 30
0.0
 10
-24.2702
 20
-4.7262
 30
0.0
 10
-18.5202
 20
-4.7262
 30
0.0
 10
-18.5202
 20
-4.7262
 30
0.0
 10
-18.5202
 20
-4.7262
 30
0.0
 10
-18.5202
 20
-4.7262
 30
0.0
 10
-18.5202
 20
-6.7262
 30
0.0
 10
-18.5202
 20
-6.7262
 30
0.0
 10
-18.5202
 20
-6.7262
 30
0.0
 10
-18.5202
 20
-6.7262
 30
0.0
 10
-14.7702
 20
-6.7262
 30
0.0
 10
-14.7702
 20
-6.7262
 30
0.0
 10
-14.7702
 20
-6.7262
 30
0.0
 10
-14.7702
 20
-6.7262
 30
0.0
 10
-14.7702
 20
-9.9762
 30
0.0
 10
-14.7702
 20
-9.9762
 30
0.0
 10
-14.7702
 20
-9.9762
 30
0.0
 10
-14.7702
 20
-9.9762
 30
0.0
 10
-12.7702
 20
-9.9762
 30
0.0
 10
-12.7702
 20
-9.9762
 30
0.0
 10
-12.7702
 20
-9.9762
 30
0.0
 10
-12.7702
 20
-9.9762
 30
0.0
 10
-12.7702
 20
-15.2262
 30
0.0
 10
-12.7702
 20
-15.2262
 30
0.0
 10
-12.7702
 20
-15.2262
 30
0.0
 10
-12.7702
 20
-15.2262
 30
0.0
 10
-14.7702
 20
-15.2262
 30
0.0
 10
-14.7702
 20
-15.2262
 30
0.0
 10
-14.7702
 20
-15.2262
 30
0.0
 10
-14.7702
 20
-15.2262
 30
0.0
 10
-14.7702
 20
-19.2262
 30
0.0
 10
-14.7702
 20
-19.2262
 30
0.0
 10
-14.7702
 20
-19.2262
 30
0.0
 10
-14.7702
 20
-19.2262
 30
0.0
 10
-12.7702
 20
-19.2262
 30
0.0
 10
-12.7702
 20
-19.2262
 30
0.0
 10
-12.7702
 20
-19.2262
 30
0.0
 10
-12.7702
 20
-19.2262
 30
0.0
 10
-12.7702
 20
-23.2262
 30
0.0
 10
-12.7702
 20
-23.2262
 30
0.0
 10
-12.7702
 20
-23.2262
 30
0.0
 10
-12.7702
 20
-23.2262
 30
0.0
 10
-14.7702
 20
-23.2262
 30
0.0
 10
-14.7702
 20
-23.2262
 30
0.0
 10
-14.7702
 20
-23.2262
 30
0.0
 10
-14.7702
 20
-23.2262
 30
0.0
 10
-14.7702
 20
-27.2262
 30
0.0
 10
-14.7702
 20
-27.2262
 30
0.0
 10
-14.7702
 20
-27.2262
 30
0.0
 10
-14.7702
 20
-27.2262
 30
0.0
 10
-12.7702
 20
-27.2262
 30
0.0
 10
-12.7702
 20
-27.2262
 30
0.0
 10
-12.7702
 20
-27.2262
 30
0.0
 10
-12.7702
 20
-27.2262
 30
0.0
 10
-12.7702
 20
-31.2262
 30
0.0
 10
-12.7702
 20
-31.2262
 30
0.0
 10
-12.7702
 20
-31.2262
 30
0.0
 10
-12.7702
 20
-31.2262
 30
0.0
 10
-14.7702
 20
-31.2262
 30
0.0
 10
-14.7702
 20
-31.2262
 30
0.0
 10
-14.7702
 20
-31.2262
 30
0.0
 10
-14.7702
 20
-31.2262
 30
0.0
 10
-14.7702
 20
-35.2262
 30
0.0
 10
-14.7702
 20
-35.2262
 30
0.0
 10
-14.7702
 20
-35.2262
 30
0.0
 10
-14.7702
 20
-35.2262
 30
0.0
 10
-12.7702
 20
-35.2262
 30
0.0
 10
-12.7702
 20
-35.2262
 30
0.0
 10
-12.7702
 20
-35.2262
 30
0.0
 10
-12.7702
 20
-35.2262
 30
0.0
 10
-12.7702
 20
-39.2262
 30
0.0
 10
-12.7702
 20
-39.2262
 30
0.0
 10
-12.7702
 20
-39.2262
 30
0.0
 10
-12.7702
 20
-39.2262
 30
0.0
 10
-14.7702
 20
-39.2262
 30
0.0
 10
-14.7702
 20
-39.2262
 30
0.0
 10
-14.7702
 20
-39.2262
 30
0.0
 10
-14.7702
 20
-39.2262
 30
0.0
 10
-14.7702
 20
-43.2262
 30
0.0
 10
-14.7702
 20
-43.2262
 30
0.0
 10
-14.7702
 20
-43.2262
 30
0.0
 10
-14.7702
 20
-43.2262
 30
0.0
 10
-12.7702
 20
-43.2262
 30
0.0
 10
-12.7702
 20
-43.2262
 30
0.0
 10
-12.7702
 20
-43.2262
 30
0.0
 10
-12.7702
 20
-43.2262
 30
0.0
 10
-12.7702
 20
-47.2262
 30
0.0
 10
-12.7702
 20
-47.2262
 30
0.0
 10
-12.7702
 20
-47.2262
 30
0.0
 10
-12.7702
 20
-47.2262
 30
0.0
 10
-14.7702
 20
-47.2262
 30
0.0
 10
-14.7702
 20
-47.2262
 30
0.0
 10
-14.7702
 20
-47.2262
 30
0.0
 10
-14.7702
 20
-47.2262
 30
0.0
 10
-14.7702
 20
-51.2262
 30
0.0
 10
-14.7702
 20
-51.2262
 30
0.0
 10
-14.7702
 20
-51.2262
 30
0.0
 10
-14.7702
 20
-51.2262
 30
0.0
 10
-12.7702
 20
-51.2262
 30
0.0
 10
-12.7702
 20
-51.2262
 30
0.0
 10
-12.7702
 20
-51.2262
 30
0.0
 10
-12.7702
 20
-51.2262
 30
0.0
 10
-12.7702
 20
-55.2262
 30
0.0
 10
-12.7702
 20
-55.2262
 30
0.0
 10
-12.7702
 20
-55.2262
 30
0.0
 10
-12.7702
 20
-55.2262
 30
0.0
 10
-14.7702
 20
-55.2262
 30
0.0
 10
-14.7702
 20
-55.2262
 30
0.0
 10
-14.7702
 20
-55.2262
 30
0.0
 10
-14.7702
 20
-55.2262
 30
0.0
 10
-14.7702
 20
-59.2262
 30
0.0
 10
-14.7702
 20
-59.2262
 30
0.0
 10
-14.7702
 20
-59.2262
 30
0.0
 10
-14.7702
 20
-59.2262
 30
0.0
 10
-12.7702
 20
-59.2262
 30
0.0
 10
-12.7702
 20
-59.2262
 30
0.0
 10
-12.7702
 20
-59.2262
 30
0.0
 10
-12.7702
 20
-59.2262
 30
0.0
 10
-12.7702
 20
-63.2262
 30
0.0
 10
-12.7702
 20
-63.2262
 30
0.0
 10
-12.7702
 20
-63.2262
 30
0.0
 10
-12.7702
 20
-63.2262
 30
0.0
 10
-14.7702
 20
-63.2262
 30
0.0
 10
-14.7702
 20
-63.2262
 30
0.0
 10
-14.7702
 20
-63.2262
 30
0.0
 10
-14.7702
 20
-63.2262
 30
0.0
 10
-14.7702
 20
-67.2262
 30
0.0
 10
-14.7702
 20
-67.2262
 30
0.0
 10
-14.7702
 20
-67.2262
 30
0.0
 10
-14.7702
 20
-67.2262
 30
0.0
 10
-12.7702
 20
-67.2262
 30
0.0
 10
-12.7702
 20
-67.2262
 30
0.0
 10
-12.7702
 20
-67.2262
 30
0.0
 10
-12.7702
 20
-67.2262
 30
0.0
 10
-12.7702
 20
-71.2262
 30
0.0
 10
-12.7702
 20
-71.2262
 30
0.0
 10
-12.7702
 20
-71.2262
 30
0.0
 10
-12.7702
 20
-71.2262
 30
0.0
 10
-14.7702
 20
-71.2262
 30
0.0
 10
-14.7702
 20
-71.2262
 30
0.0
 10
-14.7702
 20
-71.2262
 30
0.0
 10
-14.7702
 20
-71.2262
 30
0.0
 10
-14.7702
 20
-75.2262
 30
0.0
 10
-14.7702
 20
-75.2262
 30
0.0
 10
-14.7702
 20
-75.2262
 30
0.0
 10
-14.7702
 20
-75.2262
 30
0.0
 10
-12.7702
 20
-75.2262
 30
0.0
 10
-12.7702
 20
-75.2262
 30
0.0
 10
-12.7702
 20
-75.2262
 30
0.0
 10
-12.7702
 20
-75.2262
 30
0.0
 10
-12.7702
 20
-79.2262
 30
0.0
 10
-12.7702
 20
-79.2262
 30
0.0
 10
-12.7702
 20
-79.2262
 30
0.0
 10
-12.7702
 20
-79.2262
 30
0.0
 10
-14.7702
 20
-79.2262
 30
0.0
 10
-14.7702
 20
-79.2262
 30
0.0
 10
-14.7702
 20
-79.2262
 30
0.0
 10
-14.7702
 20
-79.2262
 30
0.0
 10
-14.7702
 20
-83.2262
 30
0.0
 10
-14.7702
 20
-83.2262
 30
0.0
 10
-14.7702
 20
-83.2262
 30
0.0
 10
-14.7702
 20
-83.2262
 30
0.0
 10
-12.7702
 20
-83.2262
 30
0.0
 10
-12.7702
 20
-83.2262
 30
0.0
 10
-12.7702
 20
-83.2262
 30
0.0
 10
-12.7702
 20
-83.2262
 30
0.0
 10
-12.7702
 20
-87.2262
 30
0.0
 10
-12.7702
 20
-87.2262
 30
0.0
 10
-12.7702
 20
-87.2262
 30
0.0
 10
-12.7702
 20
-87.2262
 30
0.0
 10
-14.7702
 20
-87.2262
 30
0.0
 10
-14.7702
 20
-87.2262
 30
0.0
 10
-14.7702
 20
-87.2262
 30
0.0
 10
-14.7702
 20
-87.2262
 30
0.0
 10
-14.7702
 20
-91.2262
 30
0.0
 10
-14.7702
 20
-91.2262
 30
0.0
 10
-14.7702
 20
-91.2262
 30
0.0
 10
-14.7702
 20
-91.2262
 30
0.0
 10
-12.7702
 20
-91.2262
 30
0.0
 10
-12.7702
 20
-91.2262
 30
0.0
 10
-12.7702
 20
-91.2262
 30
0.0
 10
-12.7702
 20
-91.2262
 30
0.0
 10
-12.7702
 20
-95.2262
 30
0.0
 10
-12.7702
 20
-95.2262
 30
0.0
 10
-12.7702
 20
-95.2262
 30
0.0
 10
-12.7702
 20
-95.2262
 30
0.0
 10
-14.7702
 20
-95.2262
 30
0.0
 10
-14.7702
 20
-95.2262
 30
0.0
 10
-14.7702
 20
-95.2262
 30
0.0
 10
-14.7702
 20
-95.2262
 30
0.0
 10
-14.7702
 20
-99.2262
 30
0.0
 10
-14.7702
 20
-99.2262
 30
0.0
 10
-14.7702
 20
-99.2262
 30
0.0
 10
-14.7702
 20
-99.2262
 30
0.0
 10
-12.7702
 20
-99.2262
 30
0.0
 10
-12.7702
 20
-99.2262
 30
0.0
 10
-12.7702
 20
-99.2262
 30
0.0
 10
-12.7702
 20
-99.2262
 30
0.0
 10
-12.7702
 20
-104.4762
 30
0.0
 10
-12.7702
 20
-104.4762
 30
0.0
 10
-12.7702
 20
-104.4762
 30
0.0
 10
-12.7702
 20
-104.4762
 30
0.0
 10
-14.7702
 20
-104.4762
 30
0.0
 10
-14.7702
 20
-104.4762
 30
0.0
 10
-14.7702
 20
-104.4762
 30
0.0
 10
-14.7702
 20
-104.4762
 30
0.0
 10
-14.7702
 20
-107.7262
 30
0.0
 10
-14.7702
 20
-107.7262
 30
0.0
 10
-14.7702
 20
-107.7262
 30
0.0
 10
-14.7702
 20
-107.7262
 30
0.0
 10
-18.5202
 20
-107.7262
 30
0.0
 10
-18.5202
 20
-107.7262
 30
0.0
 10
-18.5202
 20
-107.7262
 30
0.0
 10
-18.5202
 20
-107.7262
 30
0.0
 10
-18.5202
 20
-109.7262
 30
0.0
 10
-18.5202
 20
-109.7262
 30
0.0
 10
-18.5202
 20
-109.7262
 30
0.0
 10
-18.5202
 20
-109.7262
 30
0.0
 10
-24.2702
 20
-109.7262
 30
0.0
 10
-24.2702
 20
-109.7262
 30
0.0
 10
-24.2702
 20
-109.7262
 30
0.0
 10
-24.2702
 20
-109.7262
 30
0.0
 10
-24.2702
 20
-107.7262
 30
0.0
 10
-24.2702
 20
-107.7262
 30
0.0
 10
-24.2702
 20
-107.7262
 30
0.0
 10
-24.2702
 20
-107.7262
 30
0.0
 10
-28.2702
 20
-107.7262
 30
0.0
 10
-28.2702
 20
-107.7262
 30
0.0
 10
-28.2702
 20
-107.7262
 30
0.0
 10
-28.2702
 20
-107.7262
 30
0.0
 10
-28.2702
 20
-109.7262
 30
0.0
 10
-28.2702
 20
-109.7262
 30
0.0
 10
-28.2702
 20
-109.7262
 30
0.0
 10
-28.2702
 20
-109.7262
 30
0.0
 10
-32.2702
 20
-109.7262
 30
0.0
 10
-32.2702
 20
-109.7262
 30
0.0
 10
-32.2702
 20
-109.7262
 30
0.0
 10
-32.2702
 20
-109.7262
 30
0.0
 10
-32.2702
 20
-107.7262
 30
0.0
 10
-32.2702
 20
-107.7262
 30
0.0
 10
-32.2702
 20
-107.7262
 30
0.0
 10
-32.2702
 20
-107.7262
 30
0.0
 10
-36.2702
 20
-107.7262
 30
0.0
 10
-36.2702
 20
-107.7262
 30
0.0
 10
-36.2702
 20
-107.7262
 30
0.0
 10
-36.2702
 20
-107.7262
 30
0.0
 10
-36.2702
 20
-109.7262
 30
0.0
 10
-36.2702
 20
-109.7262
 30
0.0
 10
-36.2702
 20
-109.7262
 30
0.0
 10
-36.2702
 20
-109.7262
 30
0.0
 10
-40.2702
 20
-109.7262
 30
0.0
 10
-40.2702
 20
-109.7262
 30
0.0
 10
-40.2702
 20
-109.7262
 30
0.0
 10
-40.2702
 20
-109.7262
 30
0.0
 10
-40.2702
 20
-107.7262
 30
0.0
 10
-40.2702
 20
-107.7262
 30
0.0
 10
-40.2702
 20
-107.7262
 30
0.0
 10
-40.2702
 20
-107.7262
 30
0.0
 10
-44.2702
 20
-107.7262
 30
0.0
 10
-44.2702
 20
-107.7262
 30
0.0
 10
-44.2702
 20
-107.7262
 30
0.0
 10
-44.2702
 20
-107.7262
 30
0.0
 10
-44.2702
 20
-109.7262
 30
0.0
 10
-44.2702
 20
-109.7262
 30
0.0
 10
-44.2702
 20
-109.7262
 30
0.0
 10
-44.2702
 20
-109.7262
 30
0.0
 10
-48.2702
 20
-109.7262
 30
0.0
 10
-48.2702
 20
-109.7262
 30
0.0
 10
-48.2702
 20
-109.7262
 30
0.0
 10
-48.2702
 20
-109.7262
 30
0.0
 10
-48.2702
 20
-107.7262
 30
0.0
 10
-48.2702
 20
-107.7262
 30
0.0
 10
-48.2702
 20
-107.7262
 30
0.0
 10
-48.2702
 20
-107.7262
 30
0.0
 10
-52.2702
 20
-107.7262
 30
0.0
 10
-52.2702
 20
-107.7262
 30
0.0
 10
-52.2702
 20
-107.7262
 30
0.0
 10
-52.2702
 20
-107.7262
 30
0.0
 10
-52.2702
 20
-109.7262
 30
0.0
 10
-52.2702
 20
-109.7262
 30
0.0
 10
-52.2702
 20
-109.7262
 30
0.0
 10
-52.2702
 20
-109.7262
 30
0.0
 10
-56.2702
 20
-109.7262
 30
0.0
 10
-56.2702
 20
-109.7262
 30
0.0
 10
-56.2702
 20
-109.7262
 30
0.0
 10
-56.2702
 20
-109.7262
 30
0.0
 10
-56.2702
 20
-107.7262
 30
0.0
 10
-56.2702
 20
-107.7262
 30
0.0
 10
-56.2702
 20
-107.7262
 30
0.0
 10
-56.2702
 20
-107.7262
 30
0.0
 10
-60.2702
 20
-107.7262
 30
0.0
 10
-60.2702
 20
-107.7262
 30
0.0
 10
-60.2702
 20
-107.7262
 30
0.0
 10
-60.2702
 20
-107.7262
 30
0.0
 10
-60.2702
 20
-109.7262
 30
0.0
 10
-60.2702
 20
-109.7262
 30
0.0
 10
-60.2702
 20
-109.7262
 30
0.0
 10
-60.2702
 20
-109.7262
 30
0.0
 10
-64.2702
 20
-109.7262
 30
0.0
 10
-64.2702
 20
-109.7262
 30
0.0
 10
-64.2702
 20
-109.7262
 30
0.0
 10
-64.2702
 20
-109.7262
 30
0.0
 10
-64.2702
 20
-107.7262
 30
0.0
 10
-64.2702
 20
-107.7262
 30
0.0
 10
-64.2702
 20
-107.7262
 30
0.0
 10
-64.2702
 20
-107.7262
 30
0.0
 10
-68.2702
 20
-107.7262
 30
0.0
 10
-68.2702
 20
-107.7262
 30
0.0
 10
-68.2702
 20
-107.7262
 30
0.0
 10
-68.2702
 20
-107.7262
 30
0.0
 10
-68.2702
 20
-109.7262
 30
0.0
 10
-68.2702
 20
-109.7262
 30
0.0
 10
-68.2702
 20
-109.7262
 30
0.0
 10
-68.2702
 20
-109.7262
 30
0.0
 10
-72.2702
 20
-109.7262
 30
0.0
 10
-72.2702
 20
-109.7262
 30
0.0
 10
-72.2702
 20
-109.7262
 30
0.0
 10
-72.2702
 20
-109.7262
 30
0.0
 10
-72.2702
 20
-107.7262
 30
0.0
 10
-72.2702
 20
-107.7262
 30
0.0
 10
-72.2702
 20
-107.7262
 30
0.0
 10
-72.2702
 20
-107.7262
 30
0.0
 10
-76.2702
 20
-107.7262
 30
0.0
 10
-76.2702
 20
-107.7262
 30
0.0
 10
-76.2702
 20
-107.7262
 30
0.0
 10
-76.2702
 20
-107.7262
 30
0.0
 10
-76.2702
 20
-109.7262
 30
0.0
 10
-76.2702
 20
-109.7262
 30
0.0
 10
-76.2702
 20
-109.7262
 30
0.0
 10
-76.2702
 20
-109.7262
 30
0.0
 10
-82.0202
 20
-109.7262
 30
0.0
 10
-82.0202
 20
-109.7262
 30
0.0
 10
-82.0202
 20
-109.7262
 30
0.0
 10
-82.0202
 20
-109.7262
 30
0.0
 10
-82.0202
 20
-107.7262
 30
0.0
 10
-82.0202
 20
-107.7262
 30
0.0
 10
-82.0202
 20
-107.7262
 30
0.0
 10
-82.0202
 20
-107.7262
 30
0.0
 10
-85.7702
 20
-107.7262
 30
0.0
 10
-85.7702
 20
-107.7262
 30
0.0
 10
-85.7702
 20
-107.7262
 30
0.0
 10
-85.7702
 20
-107.7262
 30
0.0
 10
-85.7702
 20
-104.4762
 30
0.0
 10
-85.7702
 20
-104.4762
 30
0.0
 10
-85.7702
 20
-104.4762
 30
0.0
 10
-85.7702
 20
-104.4762
 30
0.0
 10
-87.7702
 20
-104.4762
 30
0.0
 10
-87.7702
 20
-104.4762
 30
0.0
 10
-87.7702
 20
-104.4762
 30
0.0
 10
-87.7702
 20
-104.4762
 30
0.0
 10
-87.7702
 20
-99.2262
 30
0.0
 10
-87.7702
 20
-99.2262
 30
0.0
 10
-87.7702
 20
-99.2262
 30
0.0
 10
-87.7702
 20
-99.2262
 30
0.0
 10
-85.7702
 20
-99.2262
 30
0.0
 10
-85.7702
 20
-99.2262
 30
0.0
 10
-85.7702
 20
-99.2262
 30
0.0
 10
-85.7702
 20
-99.2262
 30
0.0
 10
-85.7702
 20
-95.2262
 30
0.0
 10
-85.7702
 20
-95.2262
 30
0.0
 10
-85.7702
 20
-95.2262
 30
0.0
 10
-85.7702
 20
-95.2262
 30
0.0
 10
-87.7702
 20
-95.2262
 30
0.0
 10
-87.7702
 20
-95.2262
 30
0.0
 10
-87.7702
 20
-95.2262
 30
0.0
 10
-87.7702
 20
-95.2262
 30
0.0
 10
-87.7702
 20
-91.2262
 30
0.0
 10
-87.7702
 20
-91.2262
 30
0.0
 10
-87.7702
 20
-91.2262
 30
0.0
 10
-87.7702
 20
-91.2262
 30
0.0
 10
-85.7702
 20
-91.2262
 30
0.0
 10
-85.7702
 20
-91.2262
 30
0.0
 10
-85.7702
 20
-91.2262
 30
0.0
 10
-85.7702
 20
-91.2262
 30
0.0
 10
-85.7702
 20
-87.2262
 30
0.0
 10
-85.7702
 20
-87.2262
 30
0.0
 10
-85.7702
 20
-87.2262
 30
0.0
 10
-85.7702
 20
-87.2262
 30
0.0
 10
-87.7702
 20
-87.2262
 30
0.0
 10
-87.7702
 20
-87.2262
 30
0.0
 10
-87.7702
 20
-87.2262
 30
0.0
 10
-87.7702
 20
-87.2262
 30
0.0
 10
-87.7702
 20
-83.2262
 30
0.0
 10
-87.7702
 20
-83.2262
 30
0.0
 10
-87.7702
 20
-83.2262
 30
0.0
 10
-87.7702
 20
-83.2262
 30
0.0
 10
-85.7702
 20
-83.2262
 30
0.0
 10
-85.7702
 20
-83.2262
 30
0.0
 10
-85.7702
 20
-83.2262
 30
0.0
 10
-85.7702
 20
-83.2262
 30
0.0
 10
-85.7702
 20
-79.2262
 30
0.0
 10
-85.7702
 20
-79.2262
 30
0.0
 10
-85.7702
 20
-79.2262
 30
0.0
 10
-85.7702
 20
-79.2262
 30
0.0
 10
-87.7702
 20
-79.2262
 30
0.0
 10
-87.7702
 20
-79.2262
 30
0.0
 10
-87.7702
 20
-79.2262
 30
0.0
 10
-87.7702
 20
-79.2262
 30
0.0
 10
-87.7702
 20
-75.2262
 30
0.0
 10
-87.7702
 20
-75.2262
 30
0.0
 10
-87.7702
 20
-75.2262
 30
0.0
 10
-87.7702
 20
-75.2262
 30
0.0
 10
-85.7702
 20
-75.2262
 30
0.0
 10
-85.7702
 20
-75.2262
 30
0.0
 10
-85.7702
 20
-75.2262
 30
0.0
 10
-85.7702
 20
-75.2262
 30
0.0
 10
-85.7702
 20
-71.2262
 30
0.0
 10
-85.7702
 20
-71.2262
 30
0.0
 10
-85.7702
 20
-71.2262
 30
0.0
 10
-85.7702
 20
-71.2262
 30
0.0
 10
-87.7702
 20
-71.2262
 30
0.0
 10
-87.7702
 20
-71.2262
 30
0.0
 10
-87.7702
 20
-71.2262
 30
0.0
 10
-87.7702
 20
-71.2262
 30
0.0
 10
-87.7702
 20
-67.2262
 30
0.0
 10
-87.7702
 20
-67.2262
 30
0.0
 10
-87.7702
 20
-67.2262
 30
0.0
 10
-87.7702
 20
-67.2262
 30
0.0
 10
-85.7702
 20
-67.2262
 30
0.0
 10
-85.7702
 20
-67.2262
 30
0.0
 10
-85.7702
 20
-67.2262
 30
0.0
 10
-85.7702
 20
-67.2262
 30
0.0
 10
-85.7702
 20
-63.2262
 30
0.0
 10
-85.7702
 20
-63.2262
 30
0.0
 10
-85.7702
 20
-63.2262
 30
0.0
 10
-85.7702
 20
-63.2262
 30
0.0
 10
-87.7702
 20
-63.2262
 30
0.0
 10
-87.7702
 20
-63.2262
 30
0.0
 10
-87.7702
 20
-63.2262
 30
0.0
 10
-87.7702
 20
-63.2262
 30
0.0
 10
-87.7702
 20
-59.2262
 30
0.0
 10
-87.7702
 20
-59.2262
 30
0.0
 10
-87.7702
 20
-59.2262
 30
0.0
 10
-87.7702
 20
-59.2262
 30
0.0
 10
-85.7702
 20
-59.2262
 30
0.0
 10
-85.7702
 20
-59.2262
 30
0.0
 10
-85.7702
 20
-59.2262
 30
0.0
 10
-85.7702
 20
-59.2262
 30
0.0
 10
-85.7702
 20
-55.2262
 30
0.0
 10
-85.7702
 20
-55.2262
 30
0.0
 10
-85.7702
 20
-55.2262
 30
0.0
 10
-85.7702
 20
-55.2262
 30
0.0
 10
-87.7702
 20
-55.2262
 30
0.0
 10
-87.7702
 20
-55.2262
 30
0.0
 10
-87.7702
 20
-55.2262
 30
0.0
 10
-87.7702
 20
-55.2262
 30
0.0
 10
-87.7702
 20
-51.2262
 30
0.0
 10
-87.7702
 20
-51.2262
 30
0.0
 10
-87.7702
 20
-51.2262
 30
0.0
 10
-87.7702
 20
-51.2262
 30
0.0
 10
-85.7702
 20
-51.2262
 30
0.0
 10
-85.7702
 20
-51.2262
 30
0.0
 10
-85.7702
 20
-51.2262
 30
0.0
 10
-85.7702
 20
-51.2262
 30
0.0
 10
-85.7702
 20
-47.2262
 30
0.0
 10
-85.7702
 20
-47.2262
 30
0.0
 10
-85.7702
 20
-47.2262
 30
0.0
 10
-85.7702
 20
-47.2262
 30
0.0
 10
-87.7702
 20
-47.2262
 30
0.0
 10
-87.7702
 20
-47.2262
 30
0.0
 10
-87.7702
 20
-47.2262
 30
0.0
 10
-87.7702
 20
-47.2262
 30
0.0
 10
-87.7702
 20
-43.2262
 30
0.0
 10
-87.7702
 20
-43.2262
 30
0.0
 10
-87.7702
 20
-43.2262
 30
0.0
 10
-87.7702
 20
-43.2262
 30
0.0
 10
-85.7702
 20
-43.2262
 30
0.0
 10
-85.7702
 20
-43.2262
 30
0.0
 10
-85.7702
 20
-43.2262
 30
0.0
 10
-85.7702
 20
-43.2262
 30
0.0
 10
-85.7702
 20
-39.2262
 30
0.0
 10
-85.7702
 20
-39.2262
 30
0.0
 10
-85.7702
 20
-39.2262
 30
0.0
 10
-85.7702
 20
-39.2262
 30
0.0
 10
-87.7702
 20
-39.2262
 30
0.0
 10
-87.7702
 20
-39.2262
 30
0.0
 10
-87.7702
 20
-39.2262
 30
0.0
 10
-87.7702
 20
-39.2262
 30
0.0
 10
-87.7702
 20
-35.2262
 30
0.0
 10
-87.7702
 20
-35.2262
 30
0.0
 10
-87.7702
 20
-35.2262
 30
0.0
 10
-87.7702
 20
-35.2262
 30
0.0
 10
-85.7702
 20
-35.2262
 30
0.0
 10
-85.7702
 20
-35.2262
 30
0.0
 10
-85.7702
 20
-35.2262
 30
0.0
 10
-85.7702
 20
-35.2262
 30
0.0
 10
-85.7702
 20
-31.2262
 30
0.0
 10
-85.7702
 20
-31.2262
 30
0.0
 10
-85.7702
 20
-31.2262
 30
0.0
 10
-85.7702
 20
-31.2262
 30
0.0
 10
-87.7702
 20
-31.2262
 30
0.0
 10
-87.7702
 20
-31.2262
 30
0.0
 10
-87.7702
 20
-31.2262
 30
0.0
 10
-87.7702
 20
-31.2262
 30
0.0
 10
-87.7702
 20
-27.2262
 30
0.0
 10
-87.7702
 20
-27.2262
 30
0.0
 10
-87.7702
 20
-27.2262
 30
0.0
 10
-87.7702
 20
-27.2262
 30
0.0
 10
-85.7702
 20
-27.2262
 30
0.0
 10
-85.7702
 20
-27.2262
 30
0.0
 10
-85.7702
 20
-27.2262
 30
0.0
 10
-85.7702
 20
-27.2262
 30
0.0
 10
-85.7702
 20
-23.2262
 30
0.0
 10
-85.7702
 20
-23.2262
 30
0.0
 10
-85.7702
 20
-23.2262
 30
0.0
 10
-85.7702
 20
-23.2262
 30
0.0
 10
-87.7702
 20
-23.2262
 30
0.0
 10
-87.7702
 20
-23.2262
 30
0.0
 10
-87.7702
 20
-23.2262
 30
0.0
 10
-87.7702
 20
-23.2262
 30
0.0
 10
-87.7702
 20
-19.2262
 30
0.0
 10
-87.7702
 20
-19.2262
 30
0.0
 10
-87.7702
 20
-19.2262
 30
0.0
 10
-87.7702
 20
-19.2262
 30
0.0
 10
-85.7702
 20
-19.2262
 30
0.0
 10
-85.7702
 20
-19.2262
 30
0.0
 10
-85.7702
 20
-19.2262
 30
0.0
 10
-85.7702
 20
-19.2262
 30
0.0
 10
-85.7702
 20
-15.2262
 30
0.0
 10
-85.7702
 20
-15.2262
 30
0.0
 10
-85.7702
 20
-15.2262
 30
0.0
 10
-85.7702
 20
-15.2262
 30
0.0
 10
-87.7702
 20
-15.2262
 30
0.0
 10
-87.7702
 20
-15.2262
 30
0.0
 10
-87.7702
 20
-15.2262
 30
0.0
 10
-87.7702
 20
-15.2262
 30
0.0
 10
-87.7702
 20
-9.9762
 30
0.0
 10
-87.7702
 20
-9.9762
 30
0.0
 10
-87.7702
 20
-9.9762
 30
0.0
 10
-87.7702
 20
-9.9762
 30
0.0
 10
-85.7702
 20
-9.9762
 30
0.0
 10
-85.7702
 20
-9.9762
 30
0.0
 10
-85.7702
 20
-9.9762
 30
0.0
 10
-85.7702
 20
-9.9762
 30
0.0
 10
-85.7702
 20
-6.7262
 30
0.0
 10
-85.7702
 20
-6.7262
 30
0.0
  0
LWPOLYLINE
  5
65
330
1F
100
AcDbEntity
  8
layer 1
 62
   250
370
    20
100
AcDbPolyline
 90
        5
 70
     1
 43
0.0
 10
-63.586
 20
45.1313
 10
-41.0912
 20
45.1313
 10
-41.0912
 20
63.9935
 10
-63.586
 20
63.9935
 10
-63.586
 20
45.1313
  0
LWPOLYLINE
  5
66
330
1F
100
AcDbEntity
  8
layer 1
 62
   250
370
    20
100
AcDbPolyline
 90
        5
 70
     1
 43
0.0
 10
-61.5176
 20
-60.9788
 10
-39.0228
 20
-60.9788
 10
-39.0228
 20
-40.9788
 10
-61.5176
 20
-40.9788
 10
-61.5176
 20
-60.9788
  0
ENDSEC
  0
SECTION
  2
OBJECTS
  0
DICTIONARY
  5
C
330
0
100
AcDbDictionary
281
     1
  3
ACAD_GROUP
350
D
  3
ACAD_LAYOUT
350
1A
  3
ACAD_MLEADERSTYLE
350
68
  3
ACAD_MLINESTYLE
350
17
  3
ACAD_PLOTSETTINGS
350
19
  3
ACAD_PLOTSTYLENAME
350
E
  3
ACAD_SCALELIST
350
3B
  3
ACAD_TABLESTYLE
350
67
  3
ACAD_VISUALSTYLE
350
2A
  0
DICTIONARY
  5
D
102
{ACAD_REACTORS
330
C
102
}
330
C
100
AcDbDictionary
281
     1
  0
DICTIONARY
  5
1A
102
{ACAD_REACTORS
330
C
102
}
330
C
100
AcDbDictionary
281
     1
  3
Layout1
350
1E
  3
Layout2
350
26
  3
Model
350
22
  0
DICTIONARY
  5
68
102
{ACAD_REACTORS
330
C
102
}
330
C
100
AcDbDictionary
281
     1
  0
DICTIONARY
  5
17
102
{ACAD_REACTORS
330
C
102
}
330
C
100
AcDbDictionary
281
     1
  3
Standard
350
18
  0
DICTIONARY
  5
19
102
{ACAD_REACTORS
330
C
102
}
330
C
100
AcDbDictionary
281
     1
  0
ACDBDICTIONARYWDFLT
  5
E
102
{ACAD_REACTORS
330
C
102
}
330
C
100
AcDbDictionary
281
     1
  3
Normal
350
F
100
AcDbDictionaryWithDefault
340
F
  0
DICTIONARY
  5
3B
102
{ACAD_REACTORS
330
C
102
}
330
C
100
AcDbDictionary
281
     1
  3
A0
350
3C
  3
A1
350
3D
  3
A2
350
3E
  3
A3
350
3F
  3
A4
350
40
  3
A5
350
41
  3
A6
350
42
  3
A7
350
43
  3
A8
350
44
  3
A9
350
45
  3
B0
350
46
  3
B1
350
47
  3
B2
350
48
  3
B3
350
49
  3
B4
350
4A
  3
B5
350
4B
  3
B6
350
4C
  3
B7
350
4D
  3
B8
350
4E
  3
B9
350
4F
  3
C0
350
50
  3
C1
350
51
  3
C2
350
52
  3
C3
350
53
  3
C4
350
54
  3
C5
350
55
  3
C6
350
56
  3
C7
350
57
  3
C8
350
58
  3
C9
350
59
  3
D0
350
5A
  3
D1
350
5B
  3
D2
350
5C
  0
DICTIONARY
  5
67
102
{ACAD_REACTORS
330
C
102
}
330
C
100
AcDbDictionary
281
     1
  0
DICTIONARY
  5
2A
102
{ACAD_REACTORS
330
C
102
}
330
C
100
AcDbDictionary
281
     1
  3
2dWireframe
350
2F
  3
3D Hidden
350
31
  3
3dWireframe
350
30
  3
Basic
350
32
  3
Brighten
350
36
  3
ColorChange
350
3A
  3
Conceptual
350
34
  3
Dim
350
35
  3
Facepattern
350
39
  3
Flat
350
2B
  3
FlatWithEdges
350
2C
  3
Gouraud
350
2D
  3
GouraudWithEdges
350
2E
  3
Linepattern
350
38
  3
Realistic
350
33
  3
Thicken
350
37
  0
LAYOUT
  5
1E
102
{ACAD_REACTORS
330
1A
102
}
330
1A
100
AcDbPlotSettings
  1

  2
none_device
  4

  6

 40
0.0
 41
0.0
 42
0.0
 43
0.0
 44
0.0
 45
0.0
 46
0.0
 47
0.0
 48
0.0
 49
0.0
140
0.0
141
0.0
142
1.0
143
1.0
 70
   688
 72
     0
 73
     0
 74
     5
  7

 75
    16
 76
     0
 77
     2
 78
   300
147
1.0
148
0.0
149
0.0
100
AcDbLayout
  1
Layout1
 70
     1
 71
     1
 10
0.0
 20
0.0
 11
12.0
 21
9.0
 12
0.0
 22
0.0
 32
0.0
 14
1.000000000000000E+20
 24
1.000000000000000E+20
 34
1.000000000000000E+20
 15
-1.000000000000000E+20
 25
-1.000000000000000E+20
 35
-1.000000000000000E+20
146
0.0
 13
0.0
 23
0.0
 33
0.0
 16
1.0
 26
0.0
 36
0.0
 17
0.0
 27
1.0
 37
0.0
 76
     0
330
1B
  0
LAYOUT
  5
26
102
{ACAD_REACTORS
330
1A
102
}
330
1A
100
AcDbPlotSettings
  1

  2
none_device
  4

  6

 40
0.0
 41
0.0
 42
0.0
 43
0.0
 44
0.0
 45
0.0
 46
0.0
 47
0.0
 48
0.0
 49
0.0
140
0.0
141
0.0
142
1.0
143
1.0
 70
   688
 72
     0
 73
     0
 74
     5
  7

 75
    16
 76
     0
 77
     2
 78
   300
147
1.0
148
0.0
149
0.0
100
AcDbLayout
  1
Layout2
 70
     1
 71
     2
 10
0.0
 20
0.0
 11
0.0
 21
0.0
 12
0.0
 22
0.0
 32
0.0
 14
0.0
 24
0.0
 34
0.0
 15
0.0
 25
0.0
 35
0.0
146
0.0
 13
0.0
 23
0.0
 33
0.0
 16
1.0
 26
0.0
 36
0.0
 17
0.0
 27
1.0
 37
0.0
 76
     0
330
23
  0
LAYOUT
  5
22
102
{ACAD_REACTORS
330
1A
102
}
330
1A
100
AcDbPlotSettings
  1

  2
none_device
  4

  6

 40
0.0
 41
0.0
 42
0.0
 43
0.0
 44
0.0
 45
0.0
 46
0.0
 47
0.0
 48
0.0
 49
0.0
140
0.0
141
0.0
142
1.0
143
1.0
 70
  1712
 72
     0
 73
     0
 74
     0
  7

 75
     0
 76
     0
 77
     2
 78
   300
147
1.0
148
0.0
149
0.0
100
AcDbLayout
  1
Model
 70
     1
 71
     0
 10
0.0
 20
0.0
 11
12.0
 21
9.0
 12
0.0
 22
0.0
 32
0.0
 14
-90.7576
 24
-109.8532
 34
0.0
 15
100.1815
 25
137.8276
 35
0.0
146
0.0
 13
0.0
 23
0.0
 33
0.0
 16
1.0
 26
0.0
 36
0.0
 17
0.0
 27
1.0
 37
0.0
 76
     0
330
1F
331
29
  0
MLINESTYLE
  5
18
102
{ACAD_REACTORS
330
17
102
}
330
17
100
AcDbMlineStyle
  2
Standard
 70
     0
  3

 62
   256
 51
90.0
 52
90.0
 71
     2
 49
0.5
 62
   256
  6
BYLAYER
 49
-0.5
 62
   256
  6
BYLAYER
  0
ACDBPLACEHOLDER
  5
F
102
{ACAD_REACTORS
330
E
102
}
330
E
  0
SCALE
  5
3C
102
{ACAD_REACTORS
330
3B
102
}
330
3B
100
AcDbScale
 70
     0
300
1:1
140
1.0
141
1.0
290
     1
  0
SCALE
  5
3D
102
{ACAD_REACTORS
330
3B
102
}
330
3B
100
AcDbScale
 70
     0
300
1:2
140
1.0
141
2.0
290
     0
  0
SCALE
  5
3E
102
{ACAD_REACTORS
330
3B
102
}
330
3B
100
AcDbScale
 70
     0
300
1:4
140
1.0
141
4.0
290
     0
  0
SCALE
  5
3F
102
{ACAD_REACTORS
330
3B
102
}
330
3B
100
AcDbScale
 70
     0
300
1:5
140
1.0
141
5.0
290
     0
  0
SCALE
  5
40
102
{ACAD_REACTORS
330
3B
102
}
330
3B
100
AcDbScale
 70
     0
300
1:8
140
1.0
141
8.0
290
     0
  0
SCALE
  5
41
102
{ACAD_REACTORS
330
3B
102
}
330
3B
100
AcDbScale
 70
     0
300
1:10
140
1.0
141
10.0
290
     0
  0
SCALE
  5
42
102
{ACAD_REACTORS
330
3B
102
}
330
3B
100
AcDbScale
 70
     0
300
1:16
140
1.0
141
16.0
290
     0
  0
SCALE
  5
43
102
{ACAD_REACTORS
330
3B
102
}
330
3B
100
AcDbScale
 70
     0
300
1:20
140
1.0
141
20.0
290
     0
  0
SCALE
  5
44
102
{ACAD_REACTORS
330
3B
102
}
330
3B
100
AcDbScale
 70
     0
300
1:30
140
1.0
141
30.0
290
     0
  0
SCALE
  5
45
102
{ACAD_REACTORS
330
3B
102
}
330
3B
100
AcDbScale
 70
     0
300
1:40
140
1.0
141
40.0
290
     0
  0
SCALE
  5
46
102
{ACAD_REACTORS
330
3B
102
}
330
3B
100
AcDbScale
 70
     0
300
1:50
140
1.0
141
50.0
290
     0
  0
SCALE
  5
47
102
{ACAD_REACTORS
330
3B
102
}
330
3B
100
AcDbScale
 70
     0
300
1:100
140
1.0
141
100.0
290
     0
  0
SCALE
  5
48
102
{ACAD_REACTORS
330
3B
102
}
330
3B
100
AcDbScale
 70
     0
300
2:1
140
2.0
141
1.0
290
     0
  0
SCALE
  5
49
102
{ACAD_REACTORS
330
3B
102
}
330
3B
100
AcDbScale
 70
     0
300
4:1
140
4.0
141
1.0
290
     0
  0
SCALE
  5
4A
102
{ACAD_REACTORS
330
3B
102
}
330
3B
100
AcDbScale
 70
     0
300
8:1
140
8.0
141
1.0
290
     0
  0
SCALE
  5
4B
102
{ACAD_REACTORS
330
3B
102
}
330
3B
100
AcDbScale
 70
     0
300
10:1
140
10.0
141
1.0
290
     0
  0
SCALE
  5
4C
102
{ACAD_REACTORS
330
3B
102
}
330
3B
100
AcDbScale
 70
     0
300
100:1
140
100.0
141
1.0
290
     0
  0
SCALE
  5
4D
102
{ACAD_REACTORS
330
3B
102
}
330
3B
100
AcDbScale
 70
     0
300
1/128" = 1'-0"
140
0.0078125
141
12.0
290
     0
  0
SCALE
  5
4E
102
{ACAD_REACTORS
330
3B
102
}
330
3B
100
AcDbScale
 70
     0
300
1/64" = 1'-0"
140
0.015625
141
12.0
290
     0
  0
SCALE
  5
4F
102
{ACAD_REACTORS
330
3B
102
}
330
3B
100
AcDbScale
 70
     0
300
1/32" = 1'-0"
140
0.03125
141
12.0
290
     0
  0
SCALE
  5
50
102
{ACAD_REACTORS
330
3B
102
}
330
3B
100
AcDbScale
 70
     0
300
1/16" = 1'-0"
140
0.0625
141
12.0
290
     0
  0
SCALE
  5
51
102
{ACAD_REACTORS
330
3B
102
}
330
3B
100
AcDbScale
 70
     0
300
3/32" = 1'-0"
140
0.09375
141
12.0
290
     0
  0
SCALE
  5
52
102
{ACAD_REACTORS
330
3B
102
}
330
3B
100
AcDbScale
 70
     0
300
1/8" = 1'-0"
140
0.125
141
12.0
290
     0
  0
SCALE
  5
53
102
{ACAD_REACTORS
330
3B
102
}
330
3B
100
AcDbScale
 70
     0
300
3/16" = 1'-0"
140
0.1875
141
12.0
290
     0
  0
SCALE
  5
54
102
{ACAD_REACTORS
330
3B
102
}
330
3B
100
AcDbScale
 70
     0
300
1/4" = 1'-0"
140
0.25
141
12.0
290
     0
  0
SCALE
  5
55
102
{ACAD_REACTORS
330
3B
102
}
330
3B
100
AcDbScale
 70
     0
300
3/8" = 1'-0"
140
0.375
141
12.0
290
     0
  0
SCALE
  5
56
102
{ACAD_REACTORS
330
3B
102
}
330
3B
100
AcDbScale
 70
     0
300
1/2" = 1'-0"
140
0.5
141
12.0
290
     0
  0
SCALE
  5
57
102
{ACAD_REACTORS
330
3B
102
}
330
3B
100
AcDbScale
 70
     0
300
3/4" = 1'-0"
140
0.75
141
12.0
290
     0
  0
SCALE
  5
58
102
{ACAD_REACTORS
330
3B
102
}
330
3B
100
AcDbScale
 70
     0
300
1" = 1'-0"
140
1.0
141
12.0
290
     0
  0
SCALE
  5
59
102
{ACAD_REACTORS
330
3B
102
}
330
3B
100
AcDbScale
 70
     0
300
1-1/2" = 1'-0"
140
1.5
141
12.0
290
     0
  0
SCALE
  5
5A
102
{ACAD_REACTORS
330
3B
102
}
330
3B
100
AcDbScale
 70
     0
300
3" = 1'-0"
140
3.0
141
12.0
290
     0
  0
SCALE
  5
5B
102
{ACAD_REACTORS
330
3B
102
}
330
3B
100
AcDbScale
 70
     0
300
6" = 1'-0"
140
6.0
141
12.0
290
     0
  0
SCALE
  5
5C
102
{ACAD_REACTORS
330
3B
102
}
330
3B
100
AcDbScale
 70
     0
300
1'-0" = 1'-0"
140
12.0
141
12.0
290
     0
  0
VISUALSTYLE
  5
2F
102
{ACAD_REACTORS
330
2A
102
}
330
2A
100
AcDbVisualStyle
  2
2dWireframe
 70
     4
 71
     0
 72
     2
 73
     0
 90
        0
 40
-0.6
 41
-30.0
 62
     5
 63
     7
421
 16777215
 74
     1
 91
        4
 64
     7
 65
   257
 75
     1
175
     1
 42
1.0
 92
        0
 66
   257
 43
1.0
 76
     1
 77
     6
 78
     2
 67
     7
 79
     5
170
     0
171
     0
290
     0
174
     0
 93
        1
 44
0.0
173
     0
291
     0
 45
0.0
  0
VISUALSTYLE
  5
31
102
{ACAD_REACTORS
330
2A
102
}
330
2A
100
AcDbVisualStyle
  2
3D Hidden
 70
     6
 71
     1
 72
     2
 73
     2
 90
        0
 40
-0.6
 41
-30.0
 62
     5
 63
     7
421
 16777215
 74
     2
 91
        2
 64
     7
 65
   257
 75
     2
175
     1
 42
40.0
 92
        0
 66
   257
 43
1.0
 76
     1
 77
     6
 78
     2
 67
     7
 79
     3
170
     0
171
     0
290
     0
174
     0
 93
        1
 44
0.0
173
     0
291
     0
 45
0.0
  0
VISUALSTYLE
  5
30
102
{ACAD_REACTORS
330
2A
102
}
330
2A
100
AcDbVisualStyle
  2
3dWireframe
 70
     5
 71
     0
 72
     2
 73
     0
 90
        0
 40
-0.6
 41
-30.0
 62
     5
 63
     7
421
 16777215
 74
     1
 91
        4
 64
     7
 65
   257
 75
     1
175
     1
 42
1.0
 92
        0
 66
   257
 43
1.0
 76
     1
 77
     6
 78
     2
 67
     7
 79
     5
170
     0
171
     0
290
     0
174
     0
 93
        1
 44
0.0
173
     0
291
     0
 45
0.0
  0
VISUALSTYLE
  5
32
102
{ACAD_REACTORS
330
2A
102
}
330
2A
100
AcDbVisualStyle
  2
Basic
 70
     7
 71
     1
 72
     0
 73
     1
 90
        0
 40
-0.6
 41
-30.0
 62
     5
 63
     7
421
 16777215
 74
     0
 91
        4
 64
     7
 65
   257
 75
     1
175
     1
 42
1.0
 92
        8
 66
     7
 43
1.0
 76
     1
 77
     6
 78
     2
 67
     7
 79
     5
170
     0
171
     0
290
     0
174
     0
 93
        1
 44
0.0
173
     0
291
     1
 45
0.0
  0
VISUALSTYLE
  5
36
102
{ACAD_REACTORS
330
2A
102
}
330
2A
100
AcDbVisualStyle
  2
Brighten
 70
    12
 71
     2
 72
     2
 73
     0
 90
        0
 40
-0.6
 41
-30.0
 62
     5
 63
     7
421
 16777215
 74
     1
 91
        4
 64
     7
 65
   257
 75
     1
175
     1
 42
1.0
 92
        8
 66
     7
 43
1.0
 76
     1
 77
     6
 78
     2
 67
     7
 79
     5
170
     0
171
     0
290
     0
174
     0
 93
        1
 44
50.0
173
     0
291
     1
 45
0.0
  0
VISUALSTYLE
  5
3A
102
{ACAD_REACTORS
330
2A
102
}
330
2A
100
AcDbVisualStyle
  2
ColorChange
 70
    16
 71
     2
 72
     2
 73
     3
 90
        0
 40
-0.6
 41
-30.0
 62
     5
 63
     8
421
  8421504
 74
     1
 91
        4
 64
     7
 65
   257
 75
     1
175
     1
 42
1.0
 92
        8
 66
     8
424
  8421504
 43
1.0
 76
     1
 77
     6
 78
     2
 67
     7
 79
     5
170
     0
171
     0
290
     0
174
     0
 93
        1
 44
0.0
173
     0
291
     1
 45
0.0
  0
VISUALSTYLE
  5
34
102
{ACAD_REACTORS
330
2A
102
}
330
2A
100
AcDbVisualStyle
  2
Conceptual
 70
     9
 71
     3
 72
     2
 73
     0
 90
        0
 40
-0.6
 41
-30.0
 62
     5
 63
     7
421
 16777215
 74
     2
 91
        2
 64
     7
 65
   257
 75
     1
175
     1
 42
40.0
 92
        8
 66
     7
 43
1.0
 76
     1
 77
     6
 78
     2
 67
     7
 79
     3
170
     0
171
     0
290
     0
174
     0
 93
        1
 44
0.0
173
     0
291
     0
 45
0.0
  0
VISUALSTYLE
  5
35
102
{ACAD_REACTORS
330
2A
102
}
330
2A
100
AcDbVisualStyle
  2
Dim
 70
    11
 71
     2
 72
     2
 73
     0
 90
        0
 40
-0.6
 41
-30.0
 62
     5
 63
     7
421
 16777215
 74
     1
 91
        4
 64
     7
 65
   257
 75
     1
175
     1
 42
1.0
 92
        8
 66
     7
 43
1.0
 76
     1
 77
     6
 78
     2
 67
     7
 79
     5
170
     0
171
     0
290
     0
174
     0
 93
        1
 44
-50.0
173
     0
291
     1
 45
0.0
  0
VISUALSTYLE
  5
39
102
{ACAD_REACTORS
330
2A
102
}
330
2A
100
AcDbVisualStyle
  2
Facepattern
 70
    15
 71
     2
 72
     2
 73
     0
 90
        0
 40
-0.6
 41
-30.0
 62
     5
 63
     7
421
 16777215
 74
     1
 91
        4
 64
     7
 65
   257
 75
     1
175
     1
 42
1.0
 92
        8
 66
     7
 43
1.0
 76
     1
 77
     6
 78
     2
 67
     7
 79
     5
170
     0
171
     0
290
     0
174
     0
 93
        1
 44
0.0
173
     0
291
     1
 45
0.0
  0
VISUALSTYLE
  5
2B
102
{ACAD_REACTORS
330
2A
102
}
330
2A
100
AcDbVisualStyle
  2
Flat
 70
     0
 71
     2
 72
     1
 73
     1
 90
        2
 40
-0.6
 41
30.0
 62
     5
 63
     7
421
 16777215
 74
     0
 91
        4
 64
     7
 65
   257
 75
     1
175
     1
 42
1.0
 92
        8
 66
     7
 43
1.0
 76
     1
 77
     6
 78
     2
 67
     7
 79
     5
170
     0
171
     0
290
     0
174
     0
 93
       13
 44
0.0
173
     0
291
     1
 45
0.0
  0
VISUALSTYLE
  5
2C
102
{ACAD_REACTORS
330
2A
102
}
330
2A
100
AcDbVisualStyle
  2
FlatWithEdges
 70
     1
 71
     2
 72
     1
 73
     1
 90
        2
 40
-0.6
 41
30.0
 62
     5
 63
     7
421
 16777215
 74
     1
 91
        4
 64
     7
 65
   257
 75
     1
175
     1
 42
1.0
 92
        0
 66
   257
 43
1.0
 76
     1
 77
     6
 78
     2
 67
     7
 79
     5
170
     0
171
     0
290
     0
174
     0
 93
       13
 44
0.0
173
     0
291
     1
 45
0.0
  0
VISUALSTYLE
  5
2D
102
{ACAD_REACTORS
330
2A
102
}
330
2A
100
AcDbVisualStyle
  2
Gouraud
 70
     2
 71
     2
 72
     2
 73
     1
 90
        2
 40
-0.6
 41
30.0
 62
     5
 63
     7
421
 16777215
 74
     0
 91
        4
 64
     7
 65
   257
 75
     1
175
     1
 42
1.0
 92
        0
 66
     7
 43
1.0
 76
     1
 77
     6
 78
     2
 67
     7
 79
     5
170
     0
171
     0
290
     0
174
     0
 93
       13
 44
0.0
173
     0
291
     1
 45
0.0
  0
VISUALSTYLE
  5
2E
102
{ACAD_REACTORS
330
2A
102
}
330
2A
100
AcDbVisualStyle
  2
GouraudWithEdges
 70
     3
 71
     2
 72
     2
 73
     1
 90
        2
 40
-0.6
 41
30.0
 62
     5
 63
     7
421
 16777215
 74
     1
 91
        4
 64
     7
 65
   257
 75
     1
175
     1
 42
1.0
 92
        0
 66
   257
 43
1.0
 76
     1
 77
     6
 78
     2
 67
     7
 79
     5
170
     0
171
     0
290
     0
174
     0
 93
       13
 44
0.0
173
     0
291
     1
 45
0.0
  0
VISUALSTYLE
  5
38
102
{ACAD_REACTORS
330
2A
102
}
330
2A
100
AcDbVisualStyle
  2
Linepattern
 70
    14
 71
     2
 72
     2
 73
     0
 90
        0
 40
-0.6
 41
-30.0
 62
     5
 63
     7
421
 16777215
 74
     1
 91
        4
 64
     7
 65
   257
 75
     7
175
     7
 42
1.0
 92
        8
 66
     7
 43
1.0
 76
     1
 77
     6
 78
     2
 67
     7
 79
     5
170
     0
171
     0
290
     0
174
     0
 93
        1
 44
0.0
173
     0
291
     1
 45
0.0
  0
VISUALSTYLE
  5
33
102
{ACAD_REACTORS
330
2A
102
}
330
2A
100
AcDbVisualStyle
  2
Realistic
 70
     8
 71
     2
 72
     2
 73
     0
 90
        0
 40
-0.6
 41
-30.0
 62
     5
 63
     7
421
 16777215
 74
     1
 91
        0
 64
     7
 65
   257
 75
     1
175
     1
 42
1.0
 92
        8
 66
     8
424
  7895160
 43
1.0
 76
     1
 77
     6
 78
     2
 67
     7
 79
     5
170
     0
171
     0
290
     0
174
     0
 93
       13
 44
0.0
173
     0
291
     0
 45
0.0
  0
VISUALSTYLE
  5
37
102
{ACAD_REACTORS
330
2A
102
}
330
2A
100
AcDbVisualStyle
  2
Thicken
 70
    13
 71
     2
 72
     2
 73
     0
 90
        0
 40
-0.6
 41
-30.0
 62
     5
 63
     7
421
 16777215
 74
     1
 91
        4
 64
     7
 65
   257
 75
     1
175
     1
 42
1.0
 92
       12
 66
     7
 43
1.0
 76
     1
 77
     6
 78
     2
 67
     7
 79
     5
170
     0
171
     0
290
     0
174
     0
 93
        1
 44
0.0
173
     0
291
     1
 45
0.0
  0
ENDSEC
  0
EOF
