  0
SECTION
  2
HEADER
  9
$ACADVER
  1
AC1021
  9
$ACADMAINTVER
 70
    25
  9
$DWGCODEPAGE
  3
ANSI_936
  9
$INSBASE
 10
0.0
 20
0.0
 30
0.0
  9
$EXTMIN
 10
-10.5127
 20
-14.0127
 30
0.0
  9
$EXTMAX
 10
10.5127
 20
14.0127
 30
0.0
  9
$LIMMIN
 10
0.0
 20
0.0
  9
$LIMMAX
 10
12.0
 20
9.0
  9
$ORTHOMODE
 70
     0
  9
$REGENMODE
 70
     1
  9
$FILLMODE
 70
     1
  9
$QTEXTMODE
 70
     0
  9
$MIRRTEXT
 70
     1
  9
$LTSCALE
 40
1.0
  9
$ATTMODE
 70
     1
  9
$TEXTSIZE
 40
0.2
  9
$TRACEWID
 40
0.05
  9
$TEXTSTYLE
  7
Standard
  9
$CLAYER
  8
0
  9
$CELTYPE
  6
ByLayer
  9
$CECOLOR
 62
   256
  9
$CELTSCALE
 40
1.0
  9
$DISPSILH
 70
     0
  9
$DIMSCALE
 40
1.0
  9
$DIMASZ
 40
0.18
  9
$DIMEXO
 40
0.0625
  9
$DIMDLI
 40
0.38
  9
$DIMRND
 40
0.0
  9
$DIMDLE
 40
0.0
  9
$DIMEXE
 40
0.18
  9
$DIMTP
 40
0.0
  9
$DIMTM
 40
0.0
  9
$DIMTXT
 40
0.18
  9
$DIMCEN
 40
0.09
  9
$DIMTSZ
 40
0.0
  9
$DIMTOL
 70
     0
  9
$DIMLIM
 70
     0
  9
$DIMTIH
 70
     1
  9
$DIMTOH
 70
     1
  9
$DIMSE1
 70
     0
  9
$DIMSE2
 70
     0
  9
$DIMTAD
 70
     0
  9
$DIMZIN
 70
     0
  9
$DIMBLK
  1

  9
$DIMASO
 70
     1
  9
$DIMSHO
 70
     1
  9
$DIMPOST
  1

  9
$DIMAPOST
  1

  9
$DIMALT
 70
     0
  9
$DIMALTD
 70
     2
  9
$DIMALTF
 40
25.4
  9
$DIMLFAC
 40
1.0
  9
$DIMTOFL
 70
     0
  9
$DIMTVP
 40
0.0
  9
$DIMTIX
 70
     0
  9
$DIMSOXD
 70
     0
  9
$DIMSAH
 70
     0
  9
$DIMBLK1
  1

  9
$DIMBLK2
  1

  9
$DIMSTYLE
  2
Standard
  9
$DIMCLRD
 70
     0
  9
$DIMCLRE
 70
     0
  9
$DIMCLRT
 70
     0
  9
$DIMTFAC
 40
1.0
  9
$DIMGAP
 40
0.09
  9
$DIMJUST
 70
     0
  9
$DIMSD1
 70
     0
  9
$DIMSD2
 70
     0
  9
$DIMTOLJ
 70
     1
  9
$DIMTZIN
 70
     0
  9
$DIMALTZ
 70
     0
  9
$DIMALTTZ
 70
     0
  9
$DIMUPT
 70
     0
  9
$DIMDEC
 70
     4
  9
$DIMTDEC
 70
     4
  9
$DIMALTU
 70
     2
  9
$DIMALTTD
 70
     2
  9
$DIMTXSTY
  7
Standard
  9
$DIMAUNIT
 70
     0
  9
$DIMADEC
 70
     0
  9
$DIMALTRND
 40
0.0
  9
$DIMAZIN
 70
     0
  9
$DIMDSEP
 70
    46
  9
$DIMATFIT
 70
     3
  9
$DIMFRAC
 70
     0
  9
$DIMLDRBLK
  1

  9
$DIMLUNIT
 70
     2
  9
$DIMLWD
 70
    -2
  9
$DIMLWE
 70
    -2
  9
$DIMTMOVE
 70
     0
  9
$DIMFXL
 40
1.0
  9
$DIMFXLON
 70
     0
  9
$DIMJOGANG
 40
0.7853981633974483
  9
$DIMTFILL
 70
     0
  9
$DIMTFILLCLR
 70
     0
  9
$DIMARCSYM
 70
     0
  9
$DIMLTYPE
  6

  9
$DIMLTEX1
  6

  9
$DIMLTEX2
  6

  9
$LUNITS
 70
     2
  9
$LUPREC
 70
     4
  9
$SKETCHINC
 40
0.1
  9
$FILLETRAD
 40
0.5
  9
$AUNITS
 70
     0
  9
$AUPREC
 70
     0
  9
$MENU
  1
.
  9
$ELEVATION
 40
0.0
  9
$PELEVATION
 40
0.0
  9
$THICKNESS
 40
0.0
  9
$LIMCHECK
 70
     0
  9
$CHAMFERA
 40
0.5
  9
$CHAMFERB
 40
0.5
  9
$CHAMFERC
 40
1.0
  9
$CHAMFERD
 40
0.0
  9
$SKPOLY
 70
     0
  9
$TDCREATE
 40
2458220.787884271
  9
$TDUCREATE
 40
2458220.454550937
  9
$TDUPDATE
 40
2458220.787884282
  9
$TDUUPDATE
 40
2458220.454550949
  9
$TDINDWG
 40
0.0000000116
  9
$TDUSRTIMER
 40
0.0000000116
  9
$USRTIMER
 70
     1
  9
$ANGBASE
 50
0.0
  9
$ANGDIR
 70
     0
  9
$PDMODE
 70
     0
  9
$PDSIZE
 40
0.0
  9
$PLINEWID
 40
0.0
  9
$SPLFRAME
 70
     0
  9
$SPLINETYPE
 70
     6
  9
$SPLINESEGS
 70
     8
  9
$HANDSEED
  5
6F
  9
$SURFTAB1
 70
     6
  9
$SURFTAB2
 70
     6
  9
$SURFTYPE
 70
     6
  9
$SURFU
 70
     6
  9
$SURFV
 70
     6
  9
$UCSBASE
  2

  9
$UCSNAME
  2

  9
$UCSORG
 10
0.0
 20
0.0
 30
0.0
  9
$UCSXDIR
 10
1.0
 20
0.0
 30
0.0
  9
$UCSYDIR
 10
0.0
 20
1.0
 30
0.0
  9
$UCSORTHOREF
  2

  9
$UCSORTHOVIEW
 70
     0
  9
$UCSORGTOP
 10
0.0
 20
0.0
 30
0.0
  9
$UCSORGBOTTOM
 10
0.0
 20
0.0
 30
0.0
  9
$UCSORGLEFT
 10
0.0
 20
0.0
 30
0.0
  9
$UCSORGRIGHT
 10
0.0
 20
0.0
 30
0.0
  9
$UCSORGFRONT
 10
0.0
 20
0.0
 30
0.0
  9
$UCSORGBACK
 10
0.0
 20
0.0
 30
0.0
  9
$PUCSBASE
  2

  9
$PUCSNAME
  2

  9
$PUCSORG
 10
0.0
 20
0.0
 30
0.0
  9
$PUCSXDIR
 10
1.0
 20
0.0
 30
0.0
  9
$PUCSYDIR
 10
0.0
 20
1.0
 30
0.0
  9
$PUCSORTHOREF
  2

  9
$PUCSORTHOVIEW
 70
     0
  9
$PUCSORGTOP
 10
0.0
 20
0.0
 30
0.0
  9
$PUCSORGBOTTOM
 10
0.0
 20
0.0
 30
0.0
  9
$PUCSORGLEFT
 10
0.0
 20
0.0
 30
0.0
  9
$PUCSORGRIGHT
 10
0.0
 20
0.0
 30
0.0
  9
$PUCSORGFRONT
 10
0.0
 20
0.0
 30
0.0
  9
$PUCSORGBACK
 10
0.0
 20
0.0
 30
0.0
  9
$USERI1
 70
     0
  9
$USERI2
 70
     0
  9
$USERI3
 70
     0
  9
$USERI4
 70
     0
  9
$USERI5
 70
     0
  9
$USERR1
 40
0.0
  9
$USERR2
 40
0.0
  9
$USERR3
 40
0.0
  9
$USERR4
 40
0.0
  9
$USERR5
 40
0.0
  9
$WORLDVIEW
 70
     1
  9
$SHADEDGE
 70
     3
  9
$SHADEDIF
 70
    70
  9
$TILEMODE
 70
     1
  9
$MAXACTVP
 70
    64
  9
$PINSBASE
 10
0.0
 20
0.0
 30
0.0
  9
$PLIMCHECK
 70
     0
  9
$PEXTMIN
 10
1.000000000000000E+20
 20
1.000000000000000E+20
 30
1.000000000000000E+20
  9
$PEXTMAX
 10
-1.000000000000000E+20
 20
-1.000000000000000E+20
 30
-1.000000000000000E+20
  9
$PLIMMIN
 10
0.0
 20
0.0
  9
$PLIMMAX
 10
12.0
 20
9.0
  9
$UNITMODE
 70
     0
  9
$VISRETAIN
 70
     1
  9
$PLINEGEN
 70
     0
  9
$PSLTSCALE
 70
     1
  9
$TREEDEPTH
 70
  3020
  9
$CMLSTYLE
  2
Standard
  9
$CMLJUST
 70
     0
  9
$CMLSCALE
 40
1.0
  9
$PROXYGRAPHICS
 70
     1
  9
$MEASUREMENT
 70
     0
  9
$CELWEIGHT
370
    -1
  9
$ENDCAPS
280
     0
  9
$JOINSTYLE
280
     0
  9
$LWDISPLAY
290
     0
  9
$INSUNITS
 70
     5
  9
$HYPERLINKBASE
  1

  9
$STYLESHEET
  1

  9
$XEDIT
290
     1
  9
$CEPSNTYPE
380
     0
  9
$PSTYLEMODE
290
     1
  9
$FINGERPRINTGUID
  2
{D5517B36-9BFA-47A9-AE90-BEEB5F9721ED}
  9
$VERSIONGUID
  2
{FAEB1C32-E019-11D5-929B-00C0DF256EC4}
  9
$EXTNAMES
290
     1
  9
$PSVPSCALE
 40
0.0
  9
$OLESTARTUP
290
     0
  9
$SORTENTS
280
   127
  9
$INDEXCTL
280
     0
  9
$HIDETEXT
280
     1
  9
$XCLIPFRAME
290
     0
  9
$HALOGAP
280
     0
  9
$OBSCOLOR
 70
   257
  9
$OBSLTYPE
280
     0
  9
$INTERSECTIONDISPLAY
280
     0
  9
$INTERSECTIONCOLOR
 70
   257
  9
$DIMASSOC
280
     2
  9
$PROJECTNAME
  1

  9
$CAMERADISPLAY
290
     0
  9
$LENSLENGTH
 40
50.0
  9
$CAMERAHEIGHT
 40
0.0
  9
$STEPSPERSEC
 40
2.0
  9
$STEPSIZE
 40
6.0
  9
$3DDWFPREC
 40
2.0
  9
$PSOLWIDTH
 40
0.25
  9
$PSOLHEIGHT
 40
4.0
  9
$LOFTANG1
 40
1.570796326794897
  9
$LOFTANG2
 40
1.570796326794897
  9
$LOFTMAG1
 40
0.0
  9
$LOFTMAG2
 40
0.0
  9
$LOFTPARAM
 70
     7
  9
$LOFTNORMALS
280
     1
  9
$LATITUDE
 40
37.795
  9
$LONGITUDE
 40
-122.394
  9
$NORTHDIRECTION
 40
0.0
  9
$TIMEZONE
 70
 -8000
  9
$LIGHTGLYPHDISPLAY
280
     1
  9
$TILEMODELIGHTSYNCH
280
     1
  9
$SOLIDHIST
280
     1
  9
$SHOWHIST
280
     1
  9
$DWFFRAME
280
     2
  9
$DGNFRAME
280
     2
  9
$REALWORLDSCALE
290
     1
  9
$INTERFERECOLOR
 62
   256
  9
$CSHADOW
280
     0
  9
$SHADOWPLANELOCATION
 40
0.0
  0
ENDSEC
  0
SECTION
  2
CLASSES
  0
CLASS
  1
ACDBDICTIONARYWDFLT
  2
AcDbDictionaryWithDefault
  3
ObjectDBX Classes
 90
        0
 91
        3
280
     0
281
     0
  0
CLASS
  1
VISUALSTYLE
  2
AcDbVisualStyle
  3
ObjectDBX Classes
 90
     4095
 91
        3
280
     0
281
     0
  0
CLASS
  1
SCALE
  2
AcDbScale
  3
ObjectDBX Classes
 90
     1153
 91
        3
280
     0
281
     0
  0
ENDSEC
  0
SECTION
  2
TABLES
  0
TABLE
  2
VPORT
  5
8
330
0
100
AcDbSymbolTable
 70
     1
  0
VPORT
  5
29
330
8
100
AcDbSymbolTableRecord
100
AcDbViewportTableRecord
  2
*Active
 70
     0
 10
0.0
 20
0.0
 11
1.0
 21
1.0
 12
10.42990654205607
 22
4.5
 13
0.0
 23
0.0
 14
0.5
 24
0.5
 15
0.5
 25
0.5
 16
0.0
 26
0.0
 36
1.0
 17
0.0
 27
0.0
 37
0.0
 40
9.0
 41
1.972972972850329
 42
50.0
 43
0.0
 44
0.0
 50
0.0
 51
0.0
 71
     0
 72
   100
 73
     1
 74
     3
 75
     0
 76
     0
 77
     0
 78
     0
281
     0
 65
     1
110
0.0
120
0.0
130
0.0
111
1.0
121
0.0
131
0.0
112
0.0
122
1.0
132
0.0
 79
     0
146
0.0
 60
     3
 61
     5
292
     1
282
     1
141
0.0
142
0.0
 63
   256
  0
ENDTAB
  0
TABLE
  2
LTYPE
  5
5
330
0
100
AcDbSymbolTable
 70
     1
  0
LTYPE
  5
14
330
5
100
AcDbSymbolTableRecord
100
AcDbLinetypeTableRecord
  2
ByBlock
 70
     0
  3

 72
    65
 73
     0
 40
0.0
  0
LTYPE
  5
15
330
5
100
AcDbSymbolTableRecord
100
AcDbLinetypeTableRecord
  2
ByLayer
 70
     0
  3

 72
    65
 73
     0
 40
0.0
  0
LTYPE
  5
16
330
5
100
AcDbSymbolTableRecord
100
AcDbLinetypeTableRecord
  2
Continuous
 70
     0
  3
Solid line
 72
    65
 73
     0
 40
0.0
  0
ENDTAB
  0
TABLE
  2
LAYER
  5
2
330
0
100
AcDbSymbolTable
 70
     2
  0
LAYER
  5
10
330
2
100
AcDbSymbolTableRecord
100
AcDbLayerTableRecord
  2
0
 70
     0
 62
     7
  6
Continuous
370
    -3
390
F
347
0
  0
LAYER
  5
5E
330
2
100
AcDbSymbolTableRecord
100
AcDbLayerTableRecord
  2
layer 1
 70
     0
 62
     7
  6
Continuous
370
    -3
390
F
347
0
  0
ENDTAB
  0
TABLE
  2
STYLE
  5
3
330
0
100
AcDbSymbolTable
 70
     1
  0
STYLE
  5
11
330
3
100
AcDbSymbolTableRecord
100
AcDbTextStyleTableRecord
  2
Standard
 70
     0
 40
0.0
 41
1.0
 50
0.0
 71
     0
 42
0.2
  3
txt
  4

  0
ENDTAB
  0
TABLE
  2
VIEW
  5
6
330
0
100
AcDbSymbolTable
 70
     0
  0
ENDTAB
  0
TABLE
  2
UCS
  5
7
330
0
100
AcDbSymbolTable
 70
     0
  0
ENDTAB
  0
TABLE
  2
APPID
  5
9
330
0
100
AcDbSymbolTable
 70
     2
  0
APPID
  5
12
330
9
100
AcDbSymbolTableRecord
100
AcDbRegAppTableRecord
  2
ACAD
 70
     0
  0
APPID
  5
5D
330
9
100
AcDbSymbolTableRecord
100
AcDbRegAppTableRecord
  2
ODA
 70
     0
  0
ENDTAB
  0
TABLE
  2
DIMSTYLE
  5
A
330
0
100
AcDbSymbolTable
 70
     1
100
AcDbDimStyleTable
  0
DIMSTYLE
105
27
330
A
100
AcDbSymbolTableRecord
100
AcDbDimStyleTableRecord
  2
Standard
 70
     0
340
11
  0
ENDTAB
  0
TABLE
  2
BLOCK_RECORD
  5
1
330
0
100
AcDbSymbolTable
 70
     1
  0
BLOCK_RECORD
  5
1F
330
1
100
AcDbSymbolTableRecord
100
AcDbBlockTableRecord
  2
*Model_Space
340
22
 70
     0
280
     1
281
     0
  0
BLOCK_RECORD
  5
1B
330
1
100
AcDbSymbolTableRecord
100
AcDbBlockTableRecord
  2
*Paper_Space
340
1E
 70
     0
280
     1
281
     0
  0
BLOCK_RECORD
  5
23
330
1
100
AcDbSymbolTableRecord
100
AcDbBlockTableRecord
  2
*Paper_Space0
340
26
 70
     0
280
     1
281
     0
  0
ENDTAB
  0
ENDSEC
  0
SECTION
  2
BLOCKS
  0
BLOCK
  5
20
330
1F
100
AcDbEntity
  8
0
100
AcDbBlockBegin
  2
*Model_Space
 70
     0
 10
0.0
 20
0.0
 30
0.0
  3
*Model_Space
  1

  0
ENDBLK
  5
21
330
1F
100
AcDbEntity
  8
0
100
AcDbBlockEnd
  0
BLOCK
  5
1C
330
1B
100
AcDbEntity
 67
     1
  8
0
100
AcDbBlockBegin
  2
*Paper_Space
 70
     0
 10
0.0
 20
0.0
 30
0.0
  3
*Paper_Space
  1

  0
ENDBLK
  5
1D
330
1B
100
AcDbEntity
 67
     1
  8
0
100
AcDbBlockEnd
  0
BLOCK
  5
24
330
23
100
AcDbEntity
  8
0
100
AcDbBlockBegin
  2
*Paper_Space0
 70
     0
 10
0.0
 20
0.0
 30
0.0
  3
*Paper_Space0
  1

  0
ENDBLK
  5
25
330
23
100
AcDbEntity
  8
0
100
AcDbBlockEnd
  0
ENDSEC
  0
SECTION
  2
ENTITIES
  0
SPLINE
  5
5F
330
1F
100
AcDbEntity
  8
layer 1
370
    25
100
AcDbSpline
210
0.0
220
0.0
230
1.0
 70
    11
 71
     3
 72
   308
 73
   304
 74
     0
 42
0.0000000001
 43
0.0000000001
 40
0.0
 40
0.0
 40
0.0
 40
0.0
 40
0.0131578947368421
 40
0.0131578947368421
 40
0.0131578947368421
 40
0.0131578947368421
 40
0.0263157894736842
 40
0.0263157894736842
 40
0.0263157894736842
 40
0.0263157894736842
 40
0.0394736842105263
 40
0.0394736842105263
 40
0.0394736842105263
 40
0.0394736842105263
 40
0.0526315789473684
 40
0.0526315789473684
 40
0.0526315789473684
 40
0.0526315789473684
 40
0.0657894736842105
 40
0.0657894736842105
 40
0.0657894736842105
 40
0.0657894736842105
 40
0.0789473684210526
 40
0.0789473684210526
 40
0.0789473684210526
 40
0.0789473684210526
 40
0.0921052631578947
 40
0.0921052631578947
 40
0.0921052631578947
 40
0.0921052631578947
 40
0.1052631578947368
 40
0.1052631578947368
 40
0.1052631578947368
 40
0.1052631578947368
 40
0.1184210526315789
 40
0.1184210526315789
 40
0.1184210526315789
 40
0.1184210526315789
 40
0.131578947368421
 40
0.131578947368421
 40
0.131578947368421
 40
0.131578947368421
 40
0.1447368421052632
 40
0.1447368421052632
 40
0.1447368421052632
 40
0.1447368421052632
 40
0.1578947368421053
 40
0.1578947368421053
 40
0.1578947368421053
 40
0.1578947368421053
 40
0.1710526315789473
 40
0.1710526315789473
 40
0.1710526315789473
 40
0.1710526315789473
 40
0.1842105263157894
 40
0.1842105263157894
 40
0.1842105263157894
 40
0.1842105263157894
 40
0.1973684210526315
 40
0.1973684210526315
 40
0.1973684210526315
 40
0.1973684210526315
 40
0.2105263157894736
 40
0.2105263157894736
 40
0.2105263157894736
 40
0.2105263157894736
 40
0.2236842105263157
 40
0.2236842105263157
 40
0.2236842105263157
 40
0.2236842105263157
 40
0.2368421052631578
 40
0.2368421052631578
 40
0.2368421052631578
 40
0.2368421052631578
 40
0.2499999999999999
 40
0.2499999999999999
 40
0.2499999999999999
 40
0.2499999999999999
 40
0.263157894736842
 40
0.263157894736842
 40
0.263157894736842
 40
0.263157894736842
 40
0.2763157894736841
 40
0.2763157894736841
 40
0.2763157894736841
 40
0.2763157894736841
 40
0.2894736842105262
 40
0.2894736842105262
 40
0.2894736842105262
 40
0.2894736842105262
 40
0.3026315789473683
 40
0.3026315789473683
 40
0.3026315789473683
 40
0.3026315789473683
 40
0.3157894736842103
 40
0.3157894736842103
 40
0.3157894736842103
 40
0.3157894736842103
 40
0.3289473684210524
 40
0.3289473684210524
 40
0.3289473684210524
 40
0.3289473684210524
 40
0.3421052631578945
 40
0.3421052631578945
 40
0.3421052631578945
 40
0.3421052631578945
 40
0.3552631578947366
 40
0.3552631578947366
 40
0.3552631578947366
 40
0.3552631578947366
 40
0.3684210526315787
 40
0.3684210526315787
 40
0.3684210526315787
 40
0.3684210526315787
 40
0.3815789473684208
 40
0.3815789473684208
 40
0.3815789473684208
 40
0.3815789473684208
 40
0.3947368421052629
 40
0.3947368421052629
 40
0.3947368421052629
 40
0.3947368421052629
 40
0.407894736842105
 40
0.407894736842105
 40
0.407894736842105
 40
0.407894736842105
 40
0.4210526315789471
 40
0.4210526315789471
 40
0.4210526315789471
 40
0.4210526315789471
 40
0.4342105263157892
 40
0.4342105263157892
 40
0.4342105263157892
 40
0.4342105263157892
 40
0.4473684210526312
 40
0.4473684210526312
 40
0.4473684210526312
 40
0.4473684210526312
 40
0.4605263157894733
 40
0.4605263157894733
 40
0.4605263157894733
 40
0.4605263157894733
 40
0.4736842105263154
 40
0.4736842105263154
 40
0.4736842105263154
 40
0.4736842105263154
 40
0.4868421052631575
 40
0.4868421052631575
 40
0.4868421052631575
 40
0.4868421052631575
 40
0.4999999999999996
 40
0.4999999999999996
 40
0.4999999999999996
 40
0.4999999999999996
 40
0.5131578947368417
 40
0.5131578947368417
 40
0.5131578947368417
 40
0.5131578947368417
 40
0.5263157894736838
 40
0.5263157894736838
 40
0.5263157894736838
 40
0.5263157894736838
 40
0.539473684210526
 40
0.539473684210526
 40
0.539473684210526
 40
0.539473684210526
 40
0.5526315789473681
 40
0.5526315789473681
 40
0.5526315789473681
 40
0.5526315789473681
 40
0.5657894736842103
 40
0.5657894736842103
 40
0.5657894736842103
 40
0.5657894736842103
 40
0.5789473684210524
 40
0.5789473684210524
 40
0.5789473684210524
 40
0.5789473684210524
 40
0.5921052631578946
 40
0.5921052631578946
 40
0.5921052631578946
 40
0.5921052631578946
 40
0.6052631578947367
 40
0.6052631578947367
 40
0.6052631578947367
 40
0.6052631578947367
 40
0.6184210526315789
 40
0.6184210526315789
 40
0.6184210526315789
 40
0.6184210526315789
 40
0.631578947368421
 40
0.631578947368421
 40
0.631578947368421
 40
0.631578947368421
 40
0.6447368421052632
 40
0.6447368421052632
 40
0.6447368421052632
 40
0.6447368421052632
 40
0.6578947368421053
 40
0.6578947368421053
 40
0.6578947368421053
 40
0.6578947368421053
 40
0.6710526315789475
 40
0.6710526315789475
 40
0.6710526315789475
 40
0.6710526315789475
 40
0.6842105263157896
 40
0.6842105263157896
 40
0.6842105263157896
 40
0.6842105263157896
 40
0.6973684210526317
 40
0.6973684210526317
 40
0.6973684210526317
 40
0.6973684210526317
 40
0.7105263157894739
 40
0.7105263157894739
 40
0.7105263157894739
 40
0.7105263157894739
 40
0.723684210526316
 40
0.723684210526316
 40
0.723684210526316
 40
0.723684210526316
 40
0.7368421052631582
 40
0.7368421052631582
 40
0.7368421052631582
 40
0.7368421052631582
 40
0.7500000000000003
 40
0.7500000000000003
 40
0.7500000000000003
 40
0.7500000000000003
 40
0.7631578947368425
 40
0.7631578947368425
 40
0.7631578947368425
 40
0.7631578947368425
 40
0.7763157894736846
 40
0.7763157894736846
 40
0.7763157894736846
 40
0.7763157894736846
 40
0.7894736842105268
 40
0.7894736842105268
 40
0.7894736842105268
 40
0.7894736842105268
 40
0.8026315789473689
 40
0.8026315789473689
 40
0.8026315789473689
 40
0.8026315789473689
 40
0.8157894736842111
 40
0.8157894736842111
 40
0.8157894736842111
 40
0.8157894736842111
 40
0.8289473684210532
 40
0.8289473684210532
 40
0.8289473684210532
 40
0.8289473684210532
 40
0.8421052631578954
 40
0.8421052631578954
 40
0.8421052631578954
 40
0.8421052631578954
 40
0.8552631578947375
 40
0.8552631578947375
 40
0.8552631578947375
 40
0.8552631578947375
 40
0.8684210526315796
 40
0.8684210526315796
 40
0.8684210526315796
 40
0.8684210526315796
 40
0.8815789473684218
 40
0.8815789473684218
 40
0.8815789473684218
 40
0.8815789473684218
 40
0.8947368421052639
 40
0.8947368421052639
 40
0.8947368421052639
 40
0.8947368421052639
 40
0.9078947368421061
 40
0.9078947368421061
 40
0.9078947368421061
 40
0.9078947368421061
 40
0.9210526315789482
 40
0.9210526315789482
 40
0.9210526315789482
 40
0.9210526315789482
 40
0.9342105263157904
 40
0.9342105263157904
 40
0.9342105263157904
 40
0.9342105263157904
 40
0.9473684210526325
 40
0.9473684210526325
 40
0.9473684210526325
 40
0.9473684210526325
 40
0.9605263157894747
 40
0.9605263157894747
 40
0.9605263157894747
 40
0.9605263157894747
 40
0.9736842105263168
 40
0.9736842105263168
 40
0.9736842105263168
 40
0.9736842105263168
 40
0.986842105263159
 40
0.986842105263159
 40
0.986842105263159
 40
0.986842105263159
 40
1.0
 40
1.0
 40
1.0
 40
1.0
 10
-10.3
 20
14.0
 30
0.0
 10
-10.3
 20
14.0
 30
0.0
 10
-9.1
 20
14.0
 30
0.0
 10
-9.1
 20
14.0
 30
0.0
 10
-9.1
 20
14.0
 30
0.0
 10
-9.1
 20
14.0
 30
0.0
 10
-9.1
 20
13.8
 30
0.0
 10
-9.1
 20
13.8
 30
0.0
 10
-9.1
 20
13.8
 30
0.0
 10
-9.1
 20
13.8
 30
0.0
 10
-7.7
 20
13.8
 30
0.0
 10
-7.7
 20
13.8
 30
0.0
 10
-7.7
 20
13.8
 30
0.0
 10
-7.7
 20
13.8
 30
0.0
 10
-7.7
 20
14.0
 30
0.0
 10
-7.7
 20
14.0
 30
0.0
 10
-7.7
 20
14.0
 30
0.0
 10
-7.7
 20
14.0
 30
0.0
 10
-7.185
 20
14.0
 30
0.0
 10
-7.185
 20
14.0
 30
0.0
 10
-7.185
 20
14.0
 30
0.0
 10
-7.185
 20
14.0
 30
0.0
 10
-7.185
 20
13.63
 30
0.0
 10
-7.185
 20
13.63
 30
0.0
 10
-7.185
 20
13.63
 30
0.0
 10
-7.185
 20
13.63
 30
0.0
 10
-6.815
 20
13.63
 30
0.0
 10
-6.815
 20
13.63
 30
0.0
 10
-6.815
 20
13.63
 30
0.0
 10
-6.815
 20
13.63
 30
0.0
 10
-6.815
 20
14.0
 30
0.0
 10
-6.815
 20
14.0
 30
0.0
 10
-6.815
 20
14.0
 30
0.0
 10
-6.815
 20
14.0
 30
0.0
 10
-6.3
 20
14.0
 30
0.0
 10
-6.3
 20
14.0
 30
0.0
 10
-6.3
 20
14.0
 30
0.0
 10
-6.3
 20
14.0
 30
0.0
 10
-6.3
 20
13.8
 30
0.0
 10
-6.3
 20
13.8
 30
0.0
 10
-6.3
 20
13.8
 30
0.0
 10
-6.3
 20
13.8
 30
0.0
 10
-4.9
 20
13.8
 30
0.0
 10
-4.9
 20
13.8
 30
0.0
 10
-4.9
 20
13.8
 30
0.0
 10
-4.9
 20
13.8
 30
0.0
 10
-4.9
 20
14.0
 30
0.0
 10
-4.9
 20
14.0
 30
0.0
 10
-4.9
 20
14.0
 30
0.0
 10
-4.9
 20
14.0
 30
0.0
 10
-3.7
 20
14.0
 30
0.0
 10
-3.7
 20
14.0
 30
0.0
 10
-3.7
 20
14.0
 30
0.0
 10
-3.7
 20
14.0
 30
0.0
 10
-3.7
 20
12.25
 30
0.0
 10
-3.7
 20
12.25
 30
0.0
 10
-3.7
 20
12.25
 30
0.0
 10
-3.7
 20
12.25
 30
0.0
 10
-3.5
 20
12.25
 30
0.0
 10
-3.5
 20
12.25
 30
0.0
 10
-3.5
 20
12.25
 30
0.0
 10
-3.5
 20
12.25
 30
0.0
 10
-3.5
 20
11.56
 30
0.0
 10
-3.5
 20
11.56
 30
0.0
 10
-3.5
 20
11.56
 30
0.0
 10
-3.5
 20
11.56
 30
0.0
 10
-3.87
 20
11.56
 30
0.0
 10
-3.87
 20
11.56
 30
0.0
 10
-3.87
 20
11.56
 30
0.0
 10
-3.87
 20
11.56
 30
0.0
 10
-3.87
 20
11.19
 30
0.0
 10
-3.87
 20
11.19
 30
0.0
 10
-3.87
 20
11.19
 30
0.0
 10
-3.87
 20
11.19
 30
0.0
 10
-3.5
 20
11.19
 30
0.0
 10
-3.5
 20
11.19
 30
0.0
 10
-3.5
 20
11.19
 30
0.0
 10
-3.5
 20
11.19
 30
0.0
 10
-3.5
 20
10.5
 30
0.0
 10
-3.5
 20
10.5
 30
0.0
 10
-3.5
 20
10.5
 30
0.0
 10
-3.5
 20
10.5
 30
0.0
 10
-3.7
 20
10.5
 30
0.0
 10
-3.7
 20
10.5
 30
0.0
 10
-3.7
 20
10.5
 30
0.0
 10
-3.7
 20
10.5
 30
0.0
 10
-3.7
 20
9.1
 30
0.0
 10
-3.7
 20
9.1
 30
0.0
 10
-3.7
 20
9.1
 30
0.0
 10
-3.7
 20
9.1
 30
0.0
 10
-3.5
 20
9.1
 30
0.0
 10
-3.5
 20
9.1
 30
0.0
 10
-3.5
 20
9.1
 30
0.0
 10
-3.5
 20
9.1
 30
0.0
 10
-3.5
 20
7.7
 30
0.0
 10
-3.5
 20
7.7
 30
0.0
 10
-3.5
 20
7.7
 30
0.0
 10
-3.5
 20
7.7
 30
0.0
 10
-3.7
 20
7.7
 30
0.0
 10
-3.7
 20
7.7
 30
0.0
 10
-3.7
 20
7.7
 30
0.0
 10
-3.7
 20
7.7
 30
0.0
 10
-3.7
 20
6.3
 30
0.0
 10
-3.7
 20
6.3
 30
0.0
 10
-3.7
 20
6.3
 30
0.0
 10
-3.7
 20
6.3
 30
0.0
 10
-3.5
 20
6.3
 30
0.0
 10
-3.5
 20
6.3
 30
0.0
 10
-3.5
 20
6.3
 30
0.0
 10
-3.5
 20
6.3
 30
0.0
 10
-3.5
 20
4.9
 30
0.0
 10
-3.5
 20
4.9
 30
0.0
 10
-3.5
 20
4.9
 30
0.0
 10
-3.5
 20
4.9
 30
0.0
 10
-3.7
 20
4.9
 30
0.0
 10
-3.7
 20
4.9
 30
0.0
 10
-3.7
 20
4.9
 30
0.0
 10
-3.7
 20
4.9
 30
0.0
 10
-3.7
 20
3.5
 30
0.0
 10
-3.7
 20
3.5
 30
0.0
 10
-3.7
 20
3.5
 30
0.0
 10
-3.7
 20
3.5
 30
0.0
 10
-3.5
 20
3.5
 30
0.0
 10
-3.5
 20
3.5
 30
0.0
 10
-3.5
 20
3.5
 30
0.0
 10
-3.5
 20
3.5
 30
0.0
 10
-3.5
 20
2.81
 30
0.0
 10
-3.5
 20
2.81
 30
0.0
 10
-3.5
 20
2.81
 30
0.0
 10
-3.5
 20
2.81
 30
0.0
 10
-3.87
 20
2.81
 30
0.0
 10
-3.87
 20
2.81
 30
0.0
 10
-3.87
 20
2.81
 30
0.0
 10
-3.87
 20
2.81
 30
0.0
 10
-3.87
 20
2.44
 30
0.0
 10
-3.87
 20
2.44
 30
0.0
 10
-3.87
 20
2.44
 30
0.0
 10
-3.87
 20
2.44
 30
0.0
 10
-3.5
 20
2.44
 30
0.0
 10
-3.5
 20
2.44
 30
0.0
 10
-3.5
 20
2.44
 30
0.0
 10
-3.5
 20
2.44
 30
0.0
 10
-3.5
 20
1.75
 30
0.0
 10
-3.5
 20
1.75
 30
0.0
 10
-3.5
 20
1.75
 30
0.0
 10
-3.5
 20
1.75
 30
0.0
 10
-3.7
 20
1.75
 30
0.0
 10
-3.7
 20
1.75
 30
0.0
 10
-3.7
 20
1.75
 30
0.0
 10
-3.7
 20
1.75
 30
0.0
 10
-3.7
 20
0.0
 30
0.0
 10
-3.7
 20
0.0
 30
0.0
 10
-3.7
 20
0.0
 30
0.0
 10
-3.7
 20
0.0
 30
0.0
 10
-4.9
 20
0.0
 30
0.0
 10
-4.9
 20
0.0
 30
0.0
 10
-4.9
 20
0.0
 30
0.0
 10
-4.9
 20
0.0
 30
0.0
 10
-4.9
 20
0.2
 30
0.0
 10
-4.9
 20
0.2
 30
0.0
 10
-4.9
 20
0.2
 30
0.0
 10
-4.9
 20
0.2
 30
0.0
 10
-6.3
 20
0.2
 30
0.0
 10
-6.3
 20
0.2
 30
0.0
 10
-6.3
 20
0.2
 30
0.0
 10
-6.3
 20
0.2
 30
0.0
 10
-6.3
 20
0.0
 30
0.0
 10
-6.3
 20
0.0
 30
0.0
 10
-6.3
 20
0.0
 30
0.0
 10
-6.3
 20
0.0
 30
0.0
 10
-6.815
 20
0.0
 30
0.0
 10
-6.815
 20
0.0
 30
0.0
 10
-6.815
 20
0.0
 30
0.0
 10
-6.815
 20
0.0
 30
0.0
 10
-6.815
 20
0.37
 30
0.0
 10
-6.815
 20
0.37
 30
0.0
 10
-6.815
 20
0.37
 30
0.0
 10
-6.815
 20
0.37
 30
0.0
 10
-7.185
 20
0.37
 30
0.0
 10
-7.185
 20
0.37
 30
0.0
 10
-7.185
 20
0.37
 30
0.0
 10
-7.185
 20
0.37
 30
0.0
 10
-7.185
 20
0.0
 30
0.0
 10
-7.185
 20
0.0
 30
0.0
 10
-7.185
 20
0.0
 30
0.0
 10
-7.185
 20
0.0
 30
0.0
 10
-7.7
 20
0.0
 30
0.0
 10
-7.7
 20
0.0
 30
0.0
 10
-7.7
 20
0.0
 30
0.0
 10
-7.7
 20
0.0
 30
0.0
 10
-7.7
 20
0.2
 30
0.0
 10
-7.7
 20
0.2
 30
0.0
 10
-7.7
 20
0.2
 30
0.0
 10
-7.7
 20
0.2
 30
0.0
 10
-9.1
 20
0.2
 30
0.0
 10
-9.1
 20
0.2
 30
0.0
 10
-9.1
 20
0.2
 30
0.0
 10
-9.1
 20
0.2
 30
0.0
 10
-9.1
 20
0.0
 30
0.0
 10
-9.1
 20
0.0
 30
0.0
 10
-9.1
 20
0.0
 30
0.0
 10
-9.1
 20
0.0
 30
0.0
 10
-10.3
 20
0.0
 30
0.0
 10
-10.3
 20
0.0
 30
0.0
 10
-10.3
 20
0.0
 30
0.0
 10
-10.3
 20
0.0
 30
0.0
 10
-10.3
 20
1.75
 30
0.0
 10
-10.3
 20
1.75
 30
0.0
 10
-10.3
 20
1.75
 30
0.0
 10
-10.3
 20
1.75
 30
0.0
 10
-10.5
 20
1.75
 30
0.0
 10
-10.5
 20
1.75
 30
0.0
 10
-10.5
 20
1.75
 30
0.0
 10
-10.5
 20
1.75
 30
0.0
 10
-10.5
 20
2.44
 30
0.0
 10
-10.5
 20
2.44
 30
0.0
 10
-10.5
 20
2.44
 30
0.0
 10
-10.5
 20
2.44
 30
0.0
 10
-10.13
 20
2.44
 30
0.0
 10
-10.13
 20
2.44
 30
0.0
 10
-10.13
 20
2.44
 30
0.0
 10
-10.13
 20
2.44
 30
0.0
 10
-10.13
 20
2.81
 30
0.0
 10
-10.13
 20
2.81
 30
0.0
 10
-10.13
 20
2.81
 30
0.0
 10
-10.13
 20
2.81
 30
0.0
 10
-10.5
 20
2.81
 30
0.0
 10
-10.5
 20
2.81
 30
0.0
 10
-10.5
 20
2.81
 30
0.0
 10
-10.5
 20
2.81
 30
0.0
 10
-10.5
 20
3.5
 30
0.0
 10
-10.5
 20
3.5
 30
0.0
 10
-10.5
 20
3.5
 30
0.0
 10
-10.5
 20
3.5
 30
0.0
 10
-10.3
 20
3.5
 30
0.0
 10
-10.3
 20
3.5
 30
0.0
 10
-10.3
 20
3.5
 30
0.0
 10
-10.3
 20
3.5
 30
0.0
 10
-10.3
 20
4.9
 30
0.0
 10
-10.3
 20
4.9
 30
0.0
 10
-10.3
 20
4.9
 30
0.0
 10
-10.3
 20
4.9
 30
0.0
 10
-10.5
 20
4.9
 30
0.0
 10
-10.5
 20
4.9
 30
0.0
 10
-10.5
 20
4.9
 30
0.0
 10
-10.5
 20
4.9
 30
0.0
 10
-10.5
 20
6.3
 30
0.0
 10
-10.5
 20
6.3
 30
0.0
 10
-10.5
 20
6.3
 30
0.0
 10
-10.5
 20
6.3
 30
0.0
 10
-10.3
 20
6.3
 30
0.0
 10
-10.3
 20
6.3
 30
0.0
 10
-10.3
 20
6.3
 30
0.0
 10
-10.3
 20
6.3
 30
0.0
 10
-10.3
 20
7.7
 30
0.0
 10
-10.3
 20
7.7
 30
0.0
 10
-10.3
 20
7.7
 30
0.0
 10
-10.3
 20
7.7
 30
0.0
 10
-10.5
 20
7.7
 30
0.0
 10
-10.5
 20
7.7
 30
0.0
 10
-10.5
 20
7.7
 30
0.0
 10
-10.5
 20
7.7
 30
0.0
 10
-10.5
 20
9.1
 30
0.0
 10
-10.5
 20
9.1
 30
0.0
 10
-10.5
 20
9.1
 30
0.0
 10
-10.5
 20
9.1
 30
0.0
 10
-10.3
 20
9.1
 30
0.0
 10
-10.3
 20
9.1
 30
0.0
 10
-10.3
 20
9.1
 30
0.0
 10
-10.3
 20
9.1
 30
0.0
 10
-10.3
 20
10.5
 30
0.0
 10
-10.3
 20
10.5
 30
0.0
 10
-10.3
 20
10.5
 30
0.0
 10
-10.3
 20
10.5
 30
0.0
 10
-10.5
 20
10.5
 30
0.0
 10
-10.5
 20
10.5
 30
0.0
 10
-10.5
 20
10.5
 30
0.0
 10
-10.5
 20
10.5
 30
0.0
 10
-10.5
 20
11.19
 30
0.0
 10
-10.5
 20
11.19
 30
0.0
 10
-10.5
 20
11.19
 30
0.0
 10
-10.5
 20
11.19
 30
0.0
 10
-10.13
 20
11.19
 30
0.0
 10
-10.13
 20
11.19
 30
0.0
 10
-10.13
 20
11.19
 30
0.0
 10
-10.13
 20
11.19
 30
0.0
 10
-10.13
 20
11.56
 30
0.0
 10
-10.13
 20
11.56
 30
0.0
 10
-10.13
 20
11.56
 30
0.0
 10
-10.13
 20
11.56
 30
0.0
 10
-10.5
 20
11.56
 30
0.0
 10
-10.5
 20
11.56
 30
0.0
 10
-10.5
 20
11.56
 30
0.0
 10
-10.5
 20
11.56
 30
0.0
 10
-10.5
 20
12.25
 30
0.0
 10
-10.5
 20
12.25
 30
0.0
 10
-10.5
 20
12.25
 30
0.0
 10
-10.5
 20
12.25
 30
0.0
 10
-10.3
 20
12.25
 30
0.0
 10
-10.3
 20
12.25
 30
0.0
 10
-10.3
 20
12.25
 30
0.0
 10
-10.3
 20
12.25
 30
0.0
 10
-10.3
 20
14.0
 30
0.0
 10
-10.3
 20
14.0
 30
0.0
  0
SPLINE
  5
60
330
1F
100
AcDbEntity
  8
layer 1
370
    25
100
AcDbSpline
210
0.0
220
0.0
230
1.0
 70
    11
 71
     3
 72
   308
 73
   304
 74
     0
 42
0.0000000001
 43
0.0000000001
 40
0.0
 40
0.0
 40
0.0
 40
0.0
 40
0.0131578947368421
 40
0.0131578947368421
 40
0.0131578947368421
 40
0.0131578947368421
 40
0.0263157894736842
 40
0.0263157894736842
 40
0.0263157894736842
 40
0.0263157894736842
 40
0.0394736842105263
 40
0.0394736842105263
 40
0.0394736842105263
 40
0.0394736842105263
 40
0.0526315789473684
 40
0.0526315789473684
 40
0.0526315789473684
 40
0.0526315789473684
 40
0.0657894736842105
 40
0.0657894736842105
 40
0.0657894736842105
 40
0.0657894736842105
 40
0.0789473684210526
 40
0.0789473684210526
 40
0.0789473684210526
 40
0.0789473684210526
 40
0.0921052631578947
 40
0.0921052631578947
 40
0.0921052631578947
 40
0.0921052631578947
 40
0.1052631578947368
 40
0.1052631578947368
 40
0.1052631578947368
 40
0.1052631578947368
 40
0.1184210526315789
 40
0.1184210526315789
 40
0.1184210526315789
 40
0.1184210526315789
 40
0.131578947368421
 40
0.131578947368421
 40
0.131578947368421
 40
0.131578947368421
 40
0.1447368421052632
 40
0.1447368421052632
 40
0.1447368421052632
 40
0.1447368421052632
 40
0.1578947368421053
 40
0.1578947368421053
 40
0.1578947368421053
 40
0.1578947368421053
 40
0.1710526315789473
 40
0.1710526315789473
 40
0.1710526315789473
 40
0.1710526315789473
 40
0.1842105263157894
 40
0.1842105263157894
 40
0.1842105263157894
 40
0.1842105263157894
 40
0.1973684210526315
 40
0.1973684210526315
 40
0.1973684210526315
 40
0.1973684210526315
 40
0.2105263157894736
 40
0.2105263157894736
 40
0.2105263157894736
 40
0.2105263157894736
 40
0.2236842105263157
 40
0.2236842105263157
 40
0.2236842105263157
 40
0.2236842105263157
 40
0.2368421052631578
 40
0.2368421052631578
 40
0.2368421052631578
 40
0.2368421052631578
 40
0.2499999999999999
 40
0.2499999999999999
 40
0.2499999999999999
 40
0.2499999999999999
 40
0.263157894736842
 40
0.263157894736842
 40
0.263157894736842
 40
0.263157894736842
 40
0.2763157894736841
 40
0.2763157894736841
 40
0.2763157894736841
 40
0.2763157894736841
 40
0.2894736842105262
 40
0.2894736842105262
 40
0.2894736842105262
 40
0.2894736842105262
 40
0.3026315789473683
 40
0.3026315789473683
 40
0.3026315789473683
 40
0.3026315789473683
 40
0.3157894736842103
 40
0.3157894736842103
 40
0.3157894736842103
 40
0.3157894736842103
 40
0.3289473684210524
 40
0.3289473684210524
 40
0.3289473684210524
 40
0.3289473684210524
 40
0.3421052631578945
 40
0.3421052631578945
 40
0.3421052631578945
 40
0.3421052631578945
 40
0.3552631578947366
 40
0.3552631578947366
 40
0.3552631578947366
 40
0.3552631578947366
 40
0.3684210526315787
 40
0.3684210526315787
 40
0.3684210526315787
 40
0.3684210526315787
 40
0.3815789473684208
 40
0.3815789473684208
 40
0.3815789473684208
 40
0.3815789473684208
 40
0.3947368421052629
 40
0.3947368421052629
 40
0.3947368421052629
 40
0.3947368421052629
 40
0.407894736842105
 40
0.407894736842105
 40
0.407894736842105
 40
0.407894736842105
 40
0.4210526315789471
 40
0.4210526315789471
 40
0.4210526315789471
 40
0.4210526315789471
 40
0.4342105263157892
 40
0.4342105263157892
 40
0.4342105263157892
 40
0.4342105263157892
 40
0.4473684210526312
 40
0.4473684210526312
 40
0.4473684210526312
 40
0.4473684210526312
 40
0.4605263157894733
 40
0.4605263157894733
 40
0.4605263157894733
 40
0.4605263157894733
 40
0.4736842105263154
 40
0.4736842105263154
 40
0.4736842105263154
 40
0.4736842105263154
 40
0.4868421052631575
 40
0.4868421052631575
 40
0.4868421052631575
 40
0.4868421052631575
 40
0.4999999999999996
 40
0.4999999999999996
 40
0.4999999999999996
 40
0.4999999999999996
 40
0.5131578947368417
 40
0.5131578947368417
 40
0.5131578947368417
 40
0.5131578947368417
 40
0.5263157894736838
 40
0.5263157894736838
 40
0.5263157894736838
 40
0.5263157894736838
 40
0.539473684210526
 40
0.539473684210526
 40
0.539473684210526
 40
0.539473684210526
 40
0.5526315789473681
 40
0.5526315789473681
 40
0.5526315789473681
 40
0.5526315789473681
 40
0.5657894736842103
 40
0.5657894736842103
 40
0.5657894736842103
 40
0.5657894736842103
 40
0.5789473684210524
 40
0.5789473684210524
 40
0.5789473684210524
 40
0.5789473684210524
 40
0.5921052631578946
 40
0.5921052631578946
 40
0.5921052631578946
 40
0.5921052631578946
 40
0.6052631578947367
 40
0.6052631578947367
 40
0.6052631578947367
 40
0.6052631578947367
 40
0.6184210526315789
 40
0.6184210526315789
 40
0.6184210526315789
 40
0.6184210526315789
 40
0.631578947368421
 40
0.631578947368421
 40
0.631578947368421
 40
0.631578947368421
 40
0.6447368421052632
 40
0.6447368421052632
 40
0.6447368421052632
 40
0.6447368421052632
 40
0.6578947368421053
 40
0.6578947368421053
 40
0.6578947368421053
 40
0.6578947368421053
 40
0.6710526315789475
 40
0.6710526315789475
 40
0.6710526315789475
 40
0.6710526315789475
 40
0.6842105263157896
 40
0.6842105263157896
 40
0.6842105263157896
 40
0.6842105263157896
 40
0.6973684210526317
 40
0.6973684210526317
 40
0.6973684210526317
 40
0.6973684210526317
 40
0.7105263157894739
 40
0.7105263157894739
 40
0.7105263157894739
 40
0.7105263157894739
 40
0.723684210526316
 40
0.723684210526316
 40
0.723684210526316
 40
0.723684210526316
 40
0.7368421052631582
 40
0.7368421052631582
 40
0.7368421052631582
 40
0.7368421052631582
 40
0.7500000000000003
 40
0.7500000000000003
 40
0.7500000000000003
 40
0.7500000000000003
 40
0.7631578947368425
 40
0.7631578947368425
 40
0.7631578947368425
 40
0.7631578947368425
 40
0.7763157894736846
 40
0.7763157894736846
 40
0.7763157894736846
 40
0.7763157894736846
 40
0.7894736842105268
 40
0.7894736842105268
 40
0.7894736842105268
 40
0.7894736842105268
 40
0.8026315789473689
 40
0.8026315789473689
 40
0.8026315789473689
 40
0.8026315789473689
 40
0.8157894736842111
 40
0.8157894736842111
 40
0.8157894736842111
 40
0.8157894736842111
 40
0.8289473684210532
 40
0.8289473684210532
 40
0.8289473684210532
 40
0.8289473684210532
 40
0.8421052631578954
 40
0.8421052631578954
 40
0.8421052631578954
 40
0.8421052631578954
 40
0.8552631578947375
 40
0.8552631578947375
 40
0.8552631578947375
 40
0.8552631578947375
 40
0.8684210526315796
 40
0.8684210526315796
 40
0.8684210526315796
 40
0.8684210526315796
 40
0.8815789473684218
 40
0.8815789473684218
 40
0.8815789473684218
 40
0.8815789473684218
 40
0.8947368421052639
 40
0.8947368421052639
 40
0.8947368421052639
 40
0.8947368421052639
 40
0.9078947368421061
 40
0.9078947368421061
 40
0.9078947368421061
 40
0.9078947368421061
 40
0.9210526315789482
 40
0.9210526315789482
 40
0.9210526315789482
 40
0.9210526315789482
 40
0.9342105263157904
 40
0.9342105263157904
 40
0.9342105263157904
 40
0.9342105263157904
 40
0.9473684210526325
 40
0.9473684210526325
 40
0.9473684210526325
 40
0.9473684210526325
 40
0.9605263157894747
 40
0.9605263157894747
 40
0.9605263157894747
 40
0.9605263157894747
 40
0.9736842105263168
 40
0.9736842105263168
 40
0.9736842105263168
 40
0.9736842105263168
 40
0.986842105263159
 40
0.986842105263159
 40
0.986842105263159
 40
0.986842105263159
 40
1.0
 40
1.0
 40
1.0
 40
1.0
 10
-3.3
 20
14.0
 30
0.0
 10
-3.3
 20
14.0
 30
0.0
 10
-2.1
 20
14.0
 30
0.0
 10
-2.1
 20
14.0
 30
0.0
 10
-2.1
 20
14.0
 30
0.0
 10
-2.1
 20
14.0
 30
0.0
 10
-2.1
 20
13.8
 30
0.0
 10
-2.1
 20
13.8
 30
0.0
 10
-2.1
 20
13.8
 30
0.0
 10
-2.1
 20
13.8
 30
0.0
 10
-0.7
 20
13.8
 30
0.0
 10
-0.7
 20
13.8
 30
0.0
 10
-0.7
 20
13.8
 30
0.0
 10
-0.7
 20
13.8
 30
0.0
 10
-0.7
 20
14.0
 30
0.0
 10
-0.7
 20
14.0
 30
0.0
 10
-0.7
 20
14.0
 30
0.0
 10
-0.7
 20
14.0
 30
0.0
 10
-0.185
 20
14.0
 30
0.0
 10
-0.185
 20
14.0
 30
0.0
 10
-0.185
 20
14.0
 30
0.0
 10
-0.185
 20
14.0
 30
0.0
 10
-0.185
 20
13.63
 30
0.0
 10
-0.185
 20
13.63
 30
0.0
 10
-0.185
 20
13.63
 30
0.0
 10
-0.185
 20
13.63
 30
0.0
 10
0.185
 20
13.63
 30
0.0
 10
0.185
 20
13.63
 30
0.0
 10
0.185
 20
13.63
 30
0.0
 10
0.185
 20
13.63
 30
0.0
 10
0.185
 20
14.0
 30
0.0
 10
0.185
 20
14.0
 30
0.0
 10
0.185
 20
14.0
 30
0.0
 10
0.185
 20
14.0
 30
0.0
 10
0.7
 20
14.0
 30
0.0
 10
0.7
 20
14.0
 30
0.0
 10
0.7
 20
14.0
 30
0.0
 10
0.7
 20
14.0
 30
0.0
 10
0.7
 20
13.8
 30
0.0
 10
0.7
 20
13.8
 30
0.0
 10
0.7
 20
13.8
 30
0.0
 10
0.7
 20
13.8
 30
0.0
 10
2.1
 20
13.8
 30
0.0
 10
2.1
 20
13.8
 30
0.0
 10
2.1
 20
13.8
 30
0.0
 10
2.1
 20
13.8
 30
0.0
 10
2.1
 20
14.0
 30
0.0
 10
2.1
 20
14.0
 30
0.0
 10
2.1
 20
14.0
 30
0.0
 10
2.1
 20
14.0
 30
0.0
 10
3.3
 20
14.0
 30
0.0
 10
3.3
 20
14.0
 30
0.0
 10
3.3
 20
14.0
 30
0.0
 10
3.3
 20
14.0
 30
0.0
 10
3.3
 20
12.25
 30
0.0
 10
3.3
 20
12.25
 30
0.0
 10
3.3
 20
12.25
 30
0.0
 10
3.3
 20
12.25
 30
0.0
 10
3.5
 20
12.25
 30
0.0
 10
3.5
 20
12.25
 30
0.0
 10
3.5
 20
12.25
 30
0.0
 10
3.5
 20
12.25
 30
0.0
 10
3.5
 20
11.56
 30
0.0
 10
3.5
 20
11.56
 30
0.0
 10
3.5
 20
11.56
 30
0.0
 10
3.5
 20
11.56
 30
0.0
 10
3.13
 20
11.56
 30
0.0
 10
3.13
 20
11.56
 30
0.0
 10
3.13
 20
11.56
 30
0.0
 10
3.13
 20
11.56
 30
0.0
 10
3.13
 20
11.19
 30
0.0
 10
3.13
 20
11.19
 30
0.0
 10
3.13
 20
11.19
 30
0.0
 10
3.13
 20
11.19
 30
0.0
 10
3.5
 20
11.19
 30
0.0
 10
3.5
 20
11.19
 30
0.0
 10
3.5
 20
11.19
 30
0.0
 10
3.5
 20
11.19
 30
0.0
 10
3.5
 20
10.5
 30
0.0
 10
3.5
 20
10.5
 30
0.0
 10
3.5
 20
10.5
 30
0.0
 10
3.5
 20
10.5
 30
0.0
 10
3.3
 20
10.5
 30
0.0
 10
3.3
 20
10.5
 30
0.0
 10
3.3
 20
10.5
 30
0.0
 10
3.3
 20
10.5
 30
0.0
 10
3.3
 20
9.1
 30
0.0
 10
3.3
 20
9.1
 30
0.0
 10
3.3
 20
9.1
 30
0.0
 10
3.3
 20
9.1
 30
0.0
 10
3.5
 20
9.1
 30
0.0
 10
3.5
 20
9.1
 30
0.0
 10
3.5
 20
9.1
 30
0.0
 10
3.5
 20
9.1
 30
0.0
 10
3.5
 20
7.7
 30
0.0
 10
3.5
 20
7.7
 30
0.0
 10
3.5
 20
7.7
 30
0.0
 10
3.5
 20
7.7
 30
0.0
 10
3.3
 20
7.7
 30
0.0
 10
3.3
 20
7.7
 30
0.0
 10
3.3
 20
7.7
 30
0.0
 10
3.3
 20
7.7
 30
0.0
 10
3.3
 20
6.3
 30
0.0
 10
3.3
 20
6.3
 30
0.0
 10
3.3
 20
6.3
 30
0.0
 10
3.3
 20
6.3
 30
0.0
 10
3.5
 20
6.3
 30
0.0
 10
3.5
 20
6.3
 30
0.0
 10
3.5
 20
6.3
 30
0.0
 10
3.5
 20
6.3
 30
0.0
 10
3.5
 20
4.9
 30
0.0
 10
3.5
 20
4.9
 30
0.0
 10
3.5
 20
4.9
 30
0.0
 10
3.5
 20
4.9
 30
0.0
 10
3.3
 20
4.9
 30
0.0
 10
3.3
 20
4.9
 30
0.0
 10
3.3
 20
4.9
 30
0.0
 10
3.3
 20
4.9
 30
0.0
 10
3.3
 20
3.5
 30
0.0
 10
3.3
 20
3.5
 30
0.0
 10
3.3
 20
3.5
 30
0.0
 10
3.3
 20
3.5
 30
0.0
 10
3.5
 20
3.5
 30
0.0
 10
3.5
 20
3.5
 30
0.0
 10
3.5
 20
3.5
 30
0.0
 10
3.5
 20
3.5
 30
0.0
 10
3.5
 20
2.81
 30
0.0
 10
3.5
 20
2.81
 30
0.0
 10
3.5
 20
2.81
 30
0.0
 10
3.5
 20
2.81
 30
0.0
 10
3.13
 20
2.81
 30
0.0
 10
3.13
 20
2.81
 30
0.0
 10
3.13
 20
2.81
 30
0.0
 10
3.13
 20
2.81
 30
0.0
 10
3.13
 20
2.44
 30
0.0
 10
3.13
 20
2.44
 30
0.0
 10
3.13
 20
2.44
 30
0.0
 10
3.13
 20
2.44
 30
0.0
 10
3.5
 20
2.44
 30
0.0
 10
3.5
 20
2.44
 30
0.0
 10
3.5
 20
2.44
 30
0.0
 10
3.5
 20
2.44
 30
0.0
 10
3.5
 20
1.75
 30
0.0
 10
3.5
 20
1.75
 30
0.0
 10
3.5
 20
1.75
 30
0.0
 10
3.5
 20
1.75
 30
0.0
 10
3.3
 20
1.75
 30
0.0
 10
3.3
 20
1.75
 30
0.0
 10
3.3
 20
1.75
 30
0.0
 10
3.3
 20
1.75
 30
0.0
 10
3.3
 20
0.0
 30
0.0
 10
3.3
 20
0.0
 30
0.0
 10
3.3
 20
0.0
 30
0.0
 10
3.3
 20
0.0
 30
0.0
 10
2.1
 20
0.0
 30
0.0
 10
2.1
 20
0.0
 30
0.0
 10
2.1
 20
0.0
 30
0.0
 10
2.1
 20
0.0
 30
0.0
 10
2.1
 20
0.2
 30
0.0
 10
2.1
 20
0.2
 30
0.0
 10
2.1
 20
0.2
 30
0.0
 10
2.1
 20
0.2
 30
0.0
 10
0.7
 20
0.2
 30
0.0
 10
0.7
 20
0.2
 30
0.0
 10
0.7
 20
0.2
 30
0.0
 10
0.7
 20
0.2
 30
0.0
 10
0.7
 20
0.0
 30
0.0
 10
0.7
 20
0.0
 30
0.0
 10
0.7
 20
0.0
 30
0.0
 10
0.7
 20
0.0
 30
0.0
 10
0.185
 20
0.0
 30
0.0
 10
0.185
 20
0.0
 30
0.0
 10
0.185
 20
0.0
 30
0.0
 10
0.185
 20
0.0
 30
0.0
 10
0.185
 20
0.37
 30
0.0
 10
0.185
 20
0.37
 30
0.0
 10
0.185
 20
0.37
 30
0.0
 10
0.185
 20
0.37
 30
0.0
 10
-0.185
 20
0.37
 30
0.0
 10
-0.185
 20
0.37
 30
0.0
 10
-0.185
 20
0.37
 30
0.0
 10
-0.185
 20
0.37
 30
0.0
 10
-0.185
 20
0.0
 30
0.0
 10
-0.185
 20
0.0
 30
0.0
 10
-0.185
 20
0.0
 30
0.0
 10
-0.185
 20
0.0
 30
0.0
 10
-0.7
 20
0.0
 30
0.0
 10
-0.7
 20
0.0
 30
0.0
 10
-0.7
 20
0.0
 30
0.0
 10
-0.7
 20
0.0
 30
0.0
 10
-0.7
 20
0.2
 30
0.0
 10
-0.7
 20
0.2
 30
0.0
 10
-0.7
 20
0.2
 30
0.0
 10
-0.7
 20
0.2
 30
0.0
 10
-2.1
 20
0.2
 30
0.0
 10
-2.1
 20
0.2
 30
0.0
 10
-2.1
 20
0.2
 30
0.0
 10
-2.1
 20
0.2
 30
0.0
 10
-2.1
 20
0.0
 30
0.0
 10
-2.1
 20
0.0
 30
0.0
 10
-2.1
 20
0.0
 30
0.0
 10
-2.1
 20
0.0
 30
0.0
 10
-3.3
 20
0.0
 30
0.0
 10
-3.3
 20
0.0
 30
0.0
 10
-3.3
 20
0.0
 30
0.0
 10
-3.3
 20
0.0
 30
0.0
 10
-3.3
 20
1.75
 30
0.0
 10
-3.3
 20
1.75
 30
0.0
 10
-3.3
 20
1.75
 30
0.0
 10
-3.3
 20
1.75
 30
0.0
 10
-3.5
 20
1.75
 30
0.0
 10
-3.5
 20
1.75
 30
0.0
 10
-3.5
 20
1.75
 30
0.0
 10
-3.5
 20
1.75
 30
0.0
 10
-3.5
 20
2.44
 30
0.0
 10
-3.5
 20
2.44
 30
0.0
 10
-3.5
 20
2.44
 30
0.0
 10
-3.5
 20
2.44
 30
0.0
 10
-3.13
 20
2.44
 30
0.0
 10
-3.13
 20
2.44
 30
0.0
 10
-3.13
 20
2.44
 30
0.0
 10
-3.13
 20
2.44
 30
0.0
 10
-3.13
 20
2.81
 30
0.0
 10
-3.13
 20
2.81
 30
0.0
 10
-3.13
 20
2.81
 30
0.0
 10
-3.13
 20
2.81
 30
0.0
 10
-3.5
 20
2.81
 30
0.0
 10
-3.5
 20
2.81
 30
0.0
 10
-3.5
 20
2.81
 30
0.0
 10
-3.5
 20
2.81
 30
0.0
 10
-3.5
 20
3.5
 30
0.0
 10
-3.5
 20
3.5
 30
0.0
 10
-3.5
 20
3.5
 30
0.0
 10
-3.5
 20
3.5
 30
0.0
 10
-3.3
 20
3.5
 30
0.0
 10
-3.3
 20
3.5
 30
0.0
 10
-3.3
 20
3.5
 30
0.0
 10
-3.3
 20
3.5
 30
0.0
 10
-3.3
 20
4.9
 30
0.0
 10
-3.3
 20
4.9
 30
0.0
 10
-3.3
 20
4.9
 30
0.0
 10
-3.3
 20
4.9
 30
0.0
 10
-3.5
 20
4.9
 30
0.0
 10
-3.5
 20
4.9
 30
0.0
 10
-3.5
 20
4.9
 30
0.0
 10
-3.5
 20
4.9
 30
0.0
 10
-3.5
 20
6.3
 30
0.0
 10
-3.5
 20
6.3
 30
0.0
 10
-3.5
 20
6.3
 30
0.0
 10
-3.5
 20
6.3
 30
0.0
 10
-3.3
 20
6.3
 30
0.0
 10
-3.3
 20
6.3
 30
0.0
 10
-3.3
 20
6.3
 30
0.0
 10
-3.3
 20
6.3
 30
0.0
 10
-3.3
 20
7.7
 30
0.0
 10
-3.3
 20
7.7
 30
0.0
 10
-3.3
 20
7.7
 30
0.0
 10
-3.3
 20
7.7
 30
0.0
 10
-3.5
 20
7.7
 30
0.0
 10
-3.5
 20
7.7
 30
0.0
 10
-3.5
 20
7.7
 30
0.0
 10
-3.5
 20
7.7
 30
0.0
 10
-3.5
 20
9.1
 30
0.0
 10
-3.5
 20
9.1
 30
0.0
 10
-3.5
 20
9.1
 30
0.0
 10
-3.5
 20
9.1
 30
0.0
 10
-3.3
 20
9.1
 30
0.0
 10
-3.3
 20
9.1
 30
0.0
 10
-3.3
 20
9.1
 30
0.0
 10
-3.3
 20
9.1
 30
0.0
 10
-3.3
 20
10.5
 30
0.0
 10
-3.3
 20
10.5
 30
0.0
 10
-3.3
 20
10.5
 30
0.0
 10
-3.3
 20
10.5
 30
0.0
 10
-3.5
 20
10.5
 30
0.0
 10
-3.5
 20
10.5
 30
0.0
 10
-3.5
 20
10.5
 30
0.0
 10
-3.5
 20
10.5
 30
0.0
 10
-3.5
 20
11.19
 30
0.0
 10
-3.5
 20
11.19
 30
0.0
 10
-3.5
 20
11.19
 30
0.0
 10
-3.5
 20
11.19
 30
0.0
 10
-3.13
 20
11.19
 30
0.0
 10
-3.13
 20
11.19
 30
0.0
 10
-3.13
 20
11.19
 30
0.0
 10
-3.13
 20
11.19
 30
0.0
 10
-3.13
 20
11.56
 30
0.0
 10
-3.13
 20
11.56
 30
0.0
 10
-3.13
 20
11.56
 30
0.0
 10
-3.13
 20
11.56
 30
0.0
 10
-3.5
 20
11.56
 30
0.0
 10
-3.5
 20
11.56
 30
0.0
 10
-3.5
 20
11.56
 30
0.0
 10
-3.5
 20
11.56
 30
0.0
 10
-3.5
 20
12.25
 30
0.0
 10
-3.5
 20
12.25
 30
0.0
 10
-3.5
 20
12.25
 30
0.0
 10
-3.5
 20
12.25
 30
0.0
 10
-3.3
 20
12.25
 30
0.0
 10
-3.3
 20
12.25
 30
0.0
 10
-3.3
 20
12.25
 30
0.0
 10
-3.3
 20
12.25
 30
0.0
 10
-3.3
 20
14.0
 30
0.0
 10
-3.3
 20
14.0
 30
0.0
  0
SPLINE
  5
61
330
1F
100
AcDbEntity
  8
layer 1
370
    25
100
AcDbSpline
210
0.0
220
0.0
230
1.0
 70
    11
 71
     3
 72
   500
 73
   496
 74
     0
 42
0.0000000001
 43
0.0000000001
 40
0.0
 40
0.0
 40
0.0
 40
0.0
 40
0.0080645161290323
 40
0.0080645161290323
 40
0.0080645161290323
 40
0.0080645161290323
 40
0.0161290322580645
 40
0.0161290322580645
 40
0.0161290322580645
 40
0.0161290322580645
 40
0.0241935483870968
 40
0.0241935483870968
 40
0.0241935483870968
 40
0.0241935483870968
 40
0.032258064516129
 40
0.032258064516129
 40
0.032258064516129
 40
0.032258064516129
 40
0.0403225806451613
 40
0.0403225806451613
 40
0.0403225806451613
 40
0.0403225806451613
 40
0.0483870967741935
 40
0.0483870967741935
 40
0.0483870967741935
 40
0.0483870967741935
 40
0.0564516129032258
 40
0.0564516129032258
 40
0.0564516129032258
 40
0.0564516129032258
 40
0.0645161290322581
 40
0.0645161290322581
 40
0.0645161290322581
 40
0.0645161290322581
 40
0.0725806451612903
 40
0.0725806451612903
 40
0.0725806451612903
 40
0.0725806451612903
 40
0.0806451612903226
 40
0.0806451612903226
 40
0.0806451612903226
 40
0.0806451612903226
 40
0.0887096774193548
 40
0.0887096774193548
 40
0.0887096774193548
 40
0.0887096774193548
 40
0.0967741935483871
 40
0.0967741935483871
 40
0.0967741935483871
 40
0.0967741935483871
 40
0.1048387096774193
 40
0.1048387096774193
 40
0.1048387096774193
 40
0.1048387096774193
 40
0.1129032258064516
 40
0.1129032258064516
 40
0.1129032258064516
 40
0.1129032258064516
 40
0.1209677419354838
 40
0.1209677419354838
 40
0.1209677419354838
 40
0.1209677419354838
 40
0.1290322580645161
 40
0.1290322580645161
 40
0.1290322580645161
 40
0.1290322580645161
 40
0.1370967741935483
 40
0.1370967741935483
 40
0.1370967741935483
 40
0.1370967741935483
 40
0.1451612903225806
 40
0.1451612903225806
 40
0.1451612903225806
 40
0.1451612903225806
 40
0.1532258064516128
 40
0.1532258064516128
 40
0.1532258064516128
 40
0.1532258064516128
 40
0.1612903225806451
 40
0.1612903225806451
 40
0.1612903225806451
 40
0.1612903225806451
 40
0.1693548387096773
 40
0.1693548387096773
 40
0.1693548387096773
 40
0.1693548387096773
 40
0.1774193548387096
 40
0.1774193548387096
 40
0.1774193548387096
 40
0.1774193548387096
 40
0.1854838709677418
 40
0.1854838709677418
 40
0.1854838709677418
 40
0.1854838709677418
 40
0.1935483870967741
 40
0.1935483870967741
 40
0.1935483870967741
 40
0.1935483870967741
 40
0.2016129032258063
 40
0.2016129032258063
 40
0.2016129032258063
 40
0.2016129032258063
 40
0.2096774193548386
 40
0.2096774193548386
 40
0.2096774193548386
 40
0.2096774193548386
 40
0.2177419354838708
 40
0.2177419354838708
 40
0.2177419354838708
 40
0.2177419354838708
 40
0.2258064516129031
 40
0.2258064516129031
 40
0.2258064516129031
 40
0.2258064516129031
 40
0.2338709677419353
 40
0.2338709677419353
 40
0.2338709677419353
 40
0.2338709677419353
 40
0.2419354838709676
 40
0.2419354838709676
 40
0.2419354838709676
 40
0.2419354838709676
 40
0.2499999999999998
 40
0.2499999999999998
 40
0.2499999999999998
 40
0.2499999999999998
 40
0.2580645161290321
 40
0.2580645161290321
 40
0.2580645161290321
 40
0.2580645161290321
 40
0.2661290322580643
 40
0.2661290322580643
 40
0.2661290322580643
 40
0.2661290322580643
 40
0.2741935483870966
 40
0.2741935483870966
 40
0.2741935483870966
 40
0.2741935483870966
 40
0.2822580645161288
 40
0.2822580645161288
 40
0.2822580645161288
 40
0.2822580645161288
 40
0.2903225806451611
 40
0.2903225806451611
 40
0.2903225806451611
 40
0.2903225806451611
 40
0.2983870967741933
 40
0.2983870967741933
 40
0.2983870967741933
 40
0.2983870967741933
 40
0.3064516129032256
 40
0.3064516129032256
 40
0.3064516129032256
 40
0.3064516129032256
 40
0.3145161290322578
 40
0.3145161290322578
 40
0.3145161290322578
 40
0.3145161290322578
 40
0.3225806451612901
 40
0.3225806451612901
 40
0.3225806451612901
 40
0.3225806451612901
 40
0.3306451612903223
 40
0.3306451612903223
 40
0.3306451612903223
 40
0.3306451612903223
 40
0.3387096774193546
 40
0.3387096774193546
 40
0.3387096774193546
 40
0.3387096774193546
 40
0.3467741935483868
 40
0.3467741935483868
 40
0.3467741935483868
 40
0.3467741935483868
 40
0.3548387096774191
 40
0.3548387096774191
 40
0.3548387096774191
 40
0.3548387096774191
 40
0.3629032258064513
 40
0.3629032258064513
 40
0.3629032258064513
 40
0.3629032258064513
 40
0.3709677419354836
 40
0.3709677419354836
 40
0.3709677419354836
 40
0.3709677419354836
 40
0.3790322580645158
 40
0.3790322580645158
 40
0.3790322580645158
 40
0.3790322580645158
 40
0.3870967741935481
 40
0.3870967741935481
 40
0.3870967741935481
 40
0.3870967741935481
 40
0.3951612903225803
 40
0.3951612903225803
 40
0.3951612903225803
 40
0.3951612903225803
 40
0.4032258064516126
 40
0.4032258064516126
 40
0.4032258064516126
 40
0.4032258064516126
 40
0.4112903225806449
 40
0.4112903225806449
 40
0.4112903225806449
 40
0.4112903225806449
 40
0.4193548387096771
 40
0.4193548387096771
 40
0.4193548387096771
 40
0.4193548387096771
 40
0.4274193548387094
 40
0.4274193548387094
 40
0.4274193548387094
 40
0.4274193548387094
 40
0.4354838709677416
 40
0.4354838709677416
 40
0.4354838709677416
 40
0.4354838709677416
 40
0.4435483870967739
 40
0.4435483870967739
 40
0.4435483870967739
 40
0.4435483870967739
 40
0.4516129032258061
 40
0.4516129032258061
 40
0.4516129032258061
 40
0.4516129032258061
 40
0.4596774193548384
 40
0.4596774193548384
 40
0.4596774193548384
 40
0.4596774193548384
 40
0.4677419354838706
 40
0.4677419354838706
 40
0.4677419354838706
 40
0.4677419354838706
 40
0.4758064516129029
 40
0.4758064516129029
 40
0.4758064516129029
 40
0.4758064516129029
 40
0.4838709677419351
 40
0.4838709677419351
 40
0.4838709677419351
 40
0.4838709677419351
 40
0.4919354838709674
 40
0.4919354838709674
 40
0.4919354838709674
 40
0.4919354838709674
 40
0.4999999999999996
 40
0.4999999999999996
 40
0.4999999999999996
 40
0.4999999999999996
 40
0.5080645161290319
 40
0.5080645161290319
 40
0.5080645161290319
 40
0.5080645161290319
 40
0.5161290322580642
 40
0.5161290322580642
 40
0.5161290322580642
 40
0.5161290322580642
 40
0.5241935483870964
 40
0.5241935483870964
 40
0.5241935483870964
 40
0.5241935483870964
 40
0.5322580645161287
 40
0.5322580645161287
 40
0.5322580645161287
 40
0.5322580645161287
 40
0.5403225806451609
 40
0.5403225806451609
 40
0.5403225806451609
 40
0.5403225806451609
 40
0.5483870967741932
 40
0.5483870967741932
 40
0.5483870967741932
 40
0.5483870967741932
 40
0.5564516129032254
 40
0.5564516129032254
 40
0.5564516129032254
 40
0.5564516129032254
 40
0.5645161290322577
 40
0.5645161290322577
 40
0.5645161290322577
 40
0.5645161290322577
 40
0.5725806451612899
 40
0.5725806451612899
 40
0.5725806451612899
 40
0.5725806451612899
 40
0.5806451612903222
 40
0.5806451612903222
 40
0.5806451612903222
 40
0.5806451612903222
 40
0.5887096774193544
 40
0.5887096774193544
 40
0.5887096774193544
 40
0.5887096774193544
 40
0.5967741935483867
 40
0.5967741935483867
 40
0.5967741935483867
 40
0.5967741935483867
 40
0.6048387096774189
 40
0.6048387096774189
 40
0.6048387096774189
 40
0.6048387096774189
 40
0.6129032258064512
 40
0.6129032258064512
 40
0.6129032258064512
 40
0.6129032258064512
 40
0.6209677419354834
 40
0.6209677419354834
 40
0.6209677419354834
 40
0.6209677419354834
 40
0.6290322580645157
 40
0.6290322580645157
 40
0.6290322580645157
 40
0.6290322580645157
 40
0.6370967741935479
 40
0.6370967741935479
 40
0.6370967741935479
 40
0.6370967741935479
 40
0.6451612903225802
 40
0.6451612903225802
 40
0.6451612903225802
 40
0.6451612903225802
 40
0.6532258064516124
 40
0.6532258064516124
 40
0.6532258064516124
 40
0.6532258064516124
 40
0.6612903225806447
 40
0.6612903225806447
 40
0.6612903225806447
 40
0.6612903225806447
 40
0.6693548387096769
 40
0.6693548387096769
 40
0.6693548387096769
 40
0.6693548387096769
 40
0.6774193548387092
 40
0.6774193548387092
 40
0.6774193548387092
 40
0.6774193548387092
 40
0.6854838709677414
 40
0.6854838709677414
 40
0.6854838709677414
 40
0.6854838709677414
 40
0.6935483870967737
 40
0.6935483870967737
 40
0.6935483870967737
 40
0.6935483870967737
 40
0.7016129032258059
 40
0.7016129032258059
 40
0.7016129032258059
 40
0.7016129032258059
 40
0.7096774193548382
 40
0.7096774193548382
 40
0.7096774193548382
 40
0.7096774193548382
 40
0.7177419354838704
 40
0.7177419354838704
 40
0.7177419354838704
 40
0.7177419354838704
 40
0.7258064516129027
 40
0.7258064516129027
 40
0.7258064516129027
 40
0.7258064516129027
 40
0.7338709677419349
 40
0.7338709677419349
 40
0.7338709677419349
 40
0.7338709677419349
 40
0.7419354838709672
 40
0.7419354838709672
 40
0.7419354838709672
 40
0.7419354838709672
 40
0.7499999999999994
 40
0.7499999999999994
 40
0.7499999999999994
 40
0.7499999999999994
 40
0.7580645161290317
 40
0.7580645161290317
 40
0.7580645161290317
 40
0.7580645161290317
 40
0.766129032258064
 40
0.766129032258064
 40
0.766129032258064
 40
0.766129032258064
 40
0.7741935483870962
 40
0.7741935483870962
 40
0.7741935483870962
 40
0.7741935483870962
 40
0.7822580645161284
 40
0.7822580645161284
 40
0.7822580645161284
 40
0.7822580645161284
 40
0.7903225806451607
 40
0.7903225806451607
 40
0.7903225806451607
 40
0.7903225806451607
 40
0.798387096774193
 40
0.798387096774193
 40
0.798387096774193
 40
0.798387096774193
 40
0.8064516129032252
 40
0.8064516129032252
 40
0.8064516129032252
 40
0.8064516129032252
 40
0.8145161290322575
 40
0.8145161290322575
 40
0.8145161290322575
 40
0.8145161290322575
 40
0.8225806451612897
 40
0.8225806451612897
 40
0.8225806451612897
 40
0.8225806451612897
 40
0.830645161290322
 40
0.830645161290322
 40
0.830645161290322
 40
0.830645161290322
 40
0.8387096774193542
 40
0.8387096774193542
 40
0.8387096774193542
 40
0.8387096774193542
 40
0.8467741935483865
 40
0.8467741935483865
 40
0.8467741935483865
 40
0.8467741935483865
 40
0.8548387096774187
 40
0.8548387096774187
 40
0.8548387096774187
 40
0.8548387096774187
 40
0.862903225806451
 40
0.862903225806451
 40
0.862903225806451
 40
0.862903225806451
 40
0.8709677419354832
 40
0.8709677419354832
 40
0.8709677419354832
 40
0.8709677419354832
 40
0.8790322580645155
 40
0.8790322580645155
 40
0.8790322580645155
 40
0.8790322580645155
 40
0.8870967741935477
 40
0.8870967741935477
 40
0.8870967741935477
 40
0.8870967741935477
 40
0.89516129032258
 40
0.89516129032258
 40
0.89516129032258
 40
0.89516129032258
 40
0.9032258064516122
 40
0.9032258064516122
 40
0.9032258064516122
 40
0.9032258064516122
 40
0.9112903225806445
 40
0.9112903225806445
 40
0.9112903225806445
 40
0.9112903225806445
 40
0.9193548387096767
 40
0.9193548387096767
 40
0.9193548387096767
 40
0.9193548387096767
 40
0.927419354838709
 40
0.927419354838709
 40
0.927419354838709
 40
0.927419354838709
 40
0.9354838709677412
 40
0.9354838709677412
 40
0.9354838709677412
 40
0.9354838709677412
 40
0.9435483870967735
 40
0.9435483870967735
 40
0.9435483870967735
 40
0.9435483870967735
 40
0.9516129032258057
 40
0.9516129032258057
 40
0.9516129032258057
 40
0.9516129032258057
 40
0.959677419354838
 40
0.959677419354838
 40
0.959677419354838
 40
0.959677419354838
 40
0.9677419354838702
 40
0.9677419354838702
 40
0.9677419354838702
 40
0.9677419354838702
 40
0.9758064516129025
 40
0.9758064516129025
 40
0.9758064516129025
 40
0.9758064516129025
 40
0.9838709677419347
 40
0.9838709677419347
 40
0.9838709677419347
 40
0.9838709677419347
 40
0.991935483870967
 40
0.991935483870967
 40
0.991935483870967
 40
0.991935483870967
 40
1.0
 40
1.0
 40
1.0
 40
1.0
 10
3.5
 20
13.8
 30
0.0
 10
3.5
 20
13.8
 30
0.0
 10
4.9
 20
13.8
 30
0.0
 10
4.9
 20
13.8
 30
0.0
 10
4.9
 20
13.8
 30
0.0
 10
4.9
 20
13.8
 30
0.0
 10
4.9
 20
14.0
 30
0.0
 10
4.9
 20
14.0
 30
0.0
 10
4.9
 20
14.0
 30
0.0
 10
4.9
 20
14.0
 30
0.0
 10
6.3
 20
14.0
 30
0.0
 10
6.3
 20
14.0
 30
0.0
 10
6.3
 20
14.0
 30
0.0
 10
6.3
 20
14.0
 30
0.0
 10
6.3
 20
13.8
 30
0.0
 10
6.3
 20
13.8
 30
0.0
 10
6.3
 20
13.8
 30
0.0
 10
6.3
 20
13.8
 30
0.0
 10
6.845
 20
13.8
 30
0.0
 10
6.845
 20
13.8
 30
0.0
 10
6.845
 20
13.8
 30
0.0
 10
6.845
 20
13.8
 30
0.0
 10
6.845
 20
13.49
 30
0.0
 10
6.845
 20
13.49
 30
0.0
 10
6.845
 20
13.49
 30
0.0
 10
6.845
 20
13.49
 30
0.0
 10
6.72
 20
13.49
 30
0.0
 10
6.72
 20
13.49
 30
0.0
 10
6.72
 20
13.49
 30
0.0
 10
6.72
 20
13.49
 30
0.0
 10
6.72
 20
13.24
 30
0.0
 10
6.72
 20
13.24
 30
0.0
 10
6.72
 20
13.24
 30
0.0
 10
6.72
 20
13.24
 30
0.0
 10
6.845
 20
13.24
 30
0.0
 10
6.845
 20
13.24
 30
0.0
 10
6.845
 20
13.24
 30
0.0
 10
6.845
 20
13.24
 30
0.0
 10
6.845
 20
12.99
 30
0.0
 10
6.845
 20
12.99
 30
0.0
 10
6.845
 20
12.99
 30
0.0
 10
6.845
 20
12.99
 30
0.0
 10
7.155
 20
12.99
 30
0.0
 10
7.155
 20
12.99
 30
0.0
 10
7.155
 20
12.99
 30
0.0
 10
7.155
 20
12.99
 30
0.0
 10
7.155
 20
13.24
 30
0.0
 10
7.155
 20
13.24
 30
0.0
 10
7.155
 20
13.24
 30
0.0
 10
7.155
 20
13.24
 30
0.0
 10
7.28
 20
13.24
 30
0.0
 10
7.28
 20
13.24
 30
0.0
 10
7.28
 20
13.24
 30
0.0
 10
7.28
 20
13.24
 30
0.0
 10
7.28
 20
13.49
 30
0.0
 10
7.28
 20
13.49
 30
0.0
 10
7.28
 20
13.49
 30
0.0
 10
7.28
 20
13.49
 30
0.0
 10
7.155
 20
13.49
 30
0.0
 10
7.155
 20
13.49
 30
0.0
 10
7.155
 20
13.49
 30
0.0
 10
7.155
 20
13.49
 30
0.0
 10
7.155
 20
13.8
 30
0.0
 10
7.155
 20
13.8
 30
0.0
 10
7.155
 20
13.8
 30
0.0
 10
7.155
 20
13.8
 30
0.0
 10
7.7
 20
13.8
 30
0.0
 10
7.7
 20
13.8
 30
0.0
 10
7.7
 20
13.8
 30
0.0
 10
7.7
 20
13.8
 30
0.0
 10
7.7
 20
14.0
 30
0.0
 10
7.7
 20
14.0
 30
0.0
 10
7.7
 20
14.0
 30
0.0
 10
7.7
 20
14.0
 30
0.0
 10
9.1
 20
14.0
 30
0.0
 10
9.1
 20
14.0
 30
0.0
 10
9.1
 20
14.0
 30
0.0
 10
9.1
 20
14.0
 30
0.0
 10
9.1
 20
13.8
 30
0.0
 10
9.1
 20
13.8
 30
0.0
 10
9.1
 20
13.8
 30
0.0
 10
9.1
 20
13.8
 30
0.0
 10
10.5
 20
13.8
 30
0.0
 10
10.5
 20
13.8
 30
0.0
 10
10.5
 20
13.8
 30
0.0
 10
10.5
 20
13.8
 30
0.0
 10
10.5
 20
12.25
 30
0.0
 10
10.5
 20
12.25
 30
0.0
 10
10.5
 20
12.25
 30
0.0
 10
10.5
 20
12.25
 30
0.0
 10
10.3
 20
12.25
 30
0.0
 10
10.3
 20
12.25
 30
0.0
 10
10.3
 20
12.25
 30
0.0
 10
10.3
 20
12.25
 30
0.0
 10
10.3
 20
11.53
 30
0.0
 10
10.3
 20
11.53
 30
0.0
 10
10.3
 20
11.53
 30
0.0
 10
10.3
 20
11.53
 30
0.0
 10
9.99
 20
11.53
 30
0.0
 10
9.99
 20
11.53
 30
0.0
 10
9.99
 20
11.53
 30
0.0
 10
9.99
 20
11.53
 30
0.0
 10
9.99
 20
11.655
 30
0.0
 10
9.99
 20
11.655
 30
0.0
 10
9.99
 20
11.655
 30
0.0
 10
9.99
 20
11.655
 30
0.0
 10
9.74
 20
11.655
 30
0.0
 10
9.74
 20
11.655
 30
0.0
 10
9.74
 20
11.655
 30
0.0
 10
9.74
 20
11.655
 30
0.0
 10
9.74
 20
11.53
 30
0.0
 10
9.74
 20
11.53
 30
0.0
 10
9.74
 20
11.53
 30
0.0
 10
9.74
 20
11.53
 30
0.0
 10
9.49
 20
11.53
 30
0.0
 10
9.49
 20
11.53
 30
0.0
 10
9.49
 20
11.53
 30
0.0
 10
9.49
 20
11.53
 30
0.0
 10
9.49
 20
11.22
 30
0.0
 10
9.49
 20
11.22
 30
0.0
 10
9.49
 20
11.22
 30
0.0
 10
9.49
 20
11.22
 30
0.0
 10
9.74
 20
11.22
 30
0.0
 10
9.74
 20
11.22
 30
0.0
 10
9.74
 20
11.22
 30
0.0
 10
9.74
 20
11.22
 30
0.0
 10
9.74
 20
11.095
 30
0.0
 10
9.74
 20
11.095
 30
0.0
 10
9.74
 20
11.095
 30
0.0
 10
9.74
 20
11.095
 30
0.0
 10
9.99
 20
11.095
 30
0.0
 10
9.99
 20
11.095
 30
0.0
 10
9.99
 20
11.095
 30
0.0
 10
9.99
 20
11.095
 30
0.0
 10
9.99
 20
11.22
 30
0.0
 10
9.99
 20
11.22
 30
0.0
 10
9.99
 20
11.22
 30
0.0
 10
9.99
 20
11.22
 30
0.0
 10
10.3
 20
11.22
 30
0.0
 10
10.3
 20
11.22
 30
0.0
 10
10.3
 20
11.22
 30
0.0
 10
10.3
 20
11.22
 30
0.0
 10
10.3
 20
10.5
 30
0.0
 10
10.3
 20
10.5
 30
0.0
 10
10.3
 20
10.5
 30
0.0
 10
10.3
 20
10.5
 30
0.0
 10
10.5
 20
10.5
 30
0.0
 10
10.5
 20
10.5
 30
0.0
 10
10.5
 20
10.5
 30
0.0
 10
10.5
 20
10.5
 30
0.0
 10
10.5
 20
9.1
 30
0.0
 10
10.5
 20
9.1
 30
0.0
 10
10.5
 20
9.1
 30
0.0
 10
10.5
 20
9.1
 30
0.0
 10
10.3
 20
9.1
 30
0.0
 10
10.3
 20
9.1
 30
0.0
 10
10.3
 20
9.1
 30
0.0
 10
10.3
 20
9.1
 30
0.0
 10
10.3
 20
7.7
 30
0.0
 10
10.3
 20
7.7
 30
0.0
 10
10.3
 20
7.7
 30
0.0
 10
10.3
 20
7.7
 30
0.0
 10
10.5
 20
7.7
 30
0.0
 10
10.5
 20
7.7
 30
0.0
 10
10.5
 20
7.7
 30
0.0
 10
10.5
 20
7.7
 30
0.0
 10
10.5
 20
6.3
 30
0.0
 10
10.5
 20
6.3
 30
0.0
 10
10.5
 20
6.3
 30
0.0
 10
10.5
 20
6.3
 30
0.0
 10
10.3
 20
6.3
 30
0.0
 10
10.3
 20
6.3
 30
0.0
 10
10.3
 20
6.3
 30
0.0
 10
10.3
 20
6.3
 30
0.0
 10
10.3
 20
4.9
 30
0.0
 10
10.3
 20
4.9
 30
0.0
 10
10.3
 20
4.9
 30
0.0
 10
10.3
 20
4.9
 30
0.0
 10
10.5
 20
4.9
 30
0.0
 10
10.5
 20
4.9
 30
0.0
 10
10.5
 20
4.9
 30
0.0
 10
10.5
 20
4.9
 30
0.0
 10
10.5
 20
3.5
 30
0.0
 10
10.5
 20
3.5
 30
0.0
 10
10.5
 20
3.5
 30
0.0
 10
10.5
 20
3.5
 30
0.0
 10
10.3
 20
3.5
 30
0.0
 10
10.3
 20
3.5
 30
0.0
 10
10.3
 20
3.5
 30
0.0
 10
10.3
 20
3.5
 30
0.0
 10
10.3
 20
2.78
 30
0.0
 10
10.3
 20
2.78
 30
0.0
 10
10.3
 20
2.78
 30
0.0
 10
10.3
 20
2.78
 30
0.0
 10
9.99
 20
2.78
 30
0.0
 10
9.99
 20
2.78
 30
0.0
 10
9.99
 20
2.78
 30
0.0
 10
9.99
 20
2.78
 30
0.0
 10
9.99
 20
2.905
 30
0.0
 10
9.99
 20
2.905
 30
0.0
 10
9.99
 20
2.905
 30
0.0
 10
9.99
 20
2.905
 30
0.0
 10
9.74
 20
2.905
 30
0.0
 10
9.74
 20
2.905
 30
0.0
 10
9.74
 20
2.905
 30
0.0
 10
9.74
 20
2.905
 30
0.0
 10
9.74
 20
2.78
 30
0.0
 10
9.74
 20
2.78
 30
0.0
 10
9.74
 20
2.78
 30
0.0
 10
9.74
 20
2.78
 30
0.0
 10
9.49
 20
2.78
 30
0.0
 10
9.49
 20
2.78
 30
0.0
 10
9.49
 20
2.78
 30
0.0
 10
9.49
 20
2.78
 30
0.0
 10
9.49
 20
2.47
 30
0.0
 10
9.49
 20
2.47
 30
0.0
 10
9.49
 20
2.47
 30
0.0
 10
9.49
 20
2.47
 30
0.0
 10
9.74
 20
2.47
 30
0.0
 10
9.74
 20
2.47
 30
0.0
 10
9.74
 20
2.47
 30
0.0
 10
9.74
 20
2.47
 30
0.0
 10
9.74
 20
2.345
 30
0.0
 10
9.74
 20
2.345
 30
0.0
 10
9.74
 20
2.345
 30
0.0
 10
9.74
 20
2.345
 30
0.0
 10
9.99
 20
2.345
 30
0.0
 10
9.99
 20
2.345
 30
0.0
 10
9.99
 20
2.345
 30
0.0
 10
9.99
 20
2.345
 30
0.0
 10
9.99
 20
2.47
 30
0.0
 10
9.99
 20
2.47
 30
0.0
 10
9.99
 20
2.47
 30
0.0
 10
9.99
 20
2.47
 30
0.0
 10
10.3
 20
2.47
 30
0.0
 10
10.3
 20
2.47
 30
0.0
 10
10.3
 20
2.47
 30
0.0
 10
10.3
 20
2.47
 30
0.0
 10
10.3
 20
1.75
 30
0.0
 10
10.3
 20
1.75
 30
0.0
 10
10.3
 20
1.75
 30
0.0
 10
10.3
 20
1.75
 30
0.0
 10
10.5
 20
1.75
 30
0.0
 10
10.5
 20
1.75
 30
0.0
 10
10.5
 20
1.75
 30
0.0
 10
10.5
 20
1.75
 30
0.0
 10
10.5
 20
0.2
 30
0.0
 10
10.5
 20
0.2
 30
0.0
 10
10.5
 20
0.2
 30
0.0
 10
10.5
 20
0.2
 30
0.0
 10
9.1
 20
0.2
 30
0.0
 10
9.1
 20
0.2
 30
0.0
 10
9.1
 20
0.2
 30
0.0
 10
9.1
 20
0.2
 30
0.0
 10
9.1
 20
0.0
 30
0.0
 10
9.1
 20
0.0
 30
0.0
 10
9.1
 20
0.0
 30
0.0
 10
9.1
 20
0.0
 30
0.0
 10
7.7
 20
0.0
 30
0.0
 10
7.7
 20
0.0
 30
0.0
 10
7.7
 20
0.0
 30
0.0
 10
7.7
 20
0.0
 30
0.0
 10
7.7
 20
0.2
 30
0.0
 10
7.7
 20
0.2
 30
0.0
 10
7.7
 20
0.2
 30
0.0
 10
7.7
 20
0.2
 30
0.0
 10
7.155
 20
0.2
 30
0.0
 10
7.155
 20
0.2
 30
0.0
 10
7.155
 20
0.2
 30
0.0
 10
7.155
 20
0.2
 30
0.0
 10
7.155
 20
0.51
 30
0.0
 10
7.155
 20
0.51
 30
0.0
 10
7.155
 20
0.51
 30
0.0
 10
7.155
 20
0.51
 30
0.0
 10
7.28
 20
0.51
 30
0.0
 10
7.28
 20
0.51
 30
0.0
 10
7.28
 20
0.51
 30
0.0
 10
7.28
 20
0.51
 30
0.0
 10
7.28
 20
0.76
 30
0.0
 10
7.28
 20
0.76
 30
0.0
 10
7.28
 20
0.76
 30
0.0
 10
7.28
 20
0.76
 30
0.0
 10
7.155
 20
0.76
 30
0.0
 10
7.155
 20
0.76
 30
0.0
 10
7.155
 20
0.76
 30
0.0
 10
7.155
 20
0.76
 30
0.0
 10
7.155
 20
1.01
 30
0.0
 10
7.155
 20
1.01
 30
0.0
 10
7.155
 20
1.01
 30
0.0
 10
7.155
 20
1.01
 30
0.0
 10
6.845
 20
1.01
 30
0.0
 10
6.845
 20
1.01
 30
0.0
 10
6.845
 20
1.01
 30
0.0
 10
6.845
 20
1.01
 30
0.0
 10
6.845
 20
0.76
 30
0.0
 10
6.845
 20
0.76
 30
0.0
 10
6.845
 20
0.76
 30
0.0
 10
6.845
 20
0.76
 30
0.0
 10
6.72
 20
0.76
 30
0.0
 10
6.72
 20
0.76
 30
0.0
 10
6.72
 20
0.76
 30
0.0
 10
6.72
 20
0.76
 30
0.0
 10
6.72
 20
0.51
 30
0.0
 10
6.72
 20
0.51
 30
0.0
 10
6.72
 20
0.51
 30
0.0
 10
6.72
 20
0.51
 30
0.0
 10
6.845
 20
0.51
 30
0.0
 10
6.845
 20
0.51
 30
0.0
 10
6.845
 20
0.51
 30
0.0
 10
6.845
 20
0.51
 30
0.0
 10
6.845
 20
0.2
 30
0.0
 10
6.845
 20
0.2
 30
0.0
 10
6.845
 20
0.2
 30
0.0
 10
6.845
 20
0.2
 30
0.0
 10
6.3
 20
0.2
 30
0.0
 10
6.3
 20
0.2
 30
0.0
 10
6.3
 20
0.2
 30
0.0
 10
6.3
 20
0.2
 30
0.0
 10
6.3
 20
0.0
 30
0.0
 10
6.3
 20
0.0
 30
0.0
 10
6.3
 20
0.0
 30
0.0
 10
6.3
 20
0.0
 30
0.0
 10
4.9
 20
0.0
 30
0.0
 10
4.9
 20
0.0
 30
0.0
 10
4.9
 20
0.0
 30
0.0
 10
4.9
 20
0.0
 30
0.0
 10
4.9
 20
0.2
 30
0.0
 10
4.9
 20
0.2
 30
0.0
 10
4.9
 20
0.2
 30
0.0
 10
4.9
 20
0.2
 30
0.0
 10
3.5
 20
0.2
 30
0.0
 10
3.5
 20
0.2
 30
0.0
 10
3.5
 20
0.2
 30
0.0
 10
3.5
 20
0.2
 30
0.0
 10
3.5
 20
1.75
 30
0.0
 10
3.5
 20
1.75
 30
0.0
 10
3.5
 20
1.75
 30
0.0
 10
3.5
 20
1.75
 30
0.0
 10
3.7
 20
1.75
 30
0.0
 10
3.7
 20
1.75
 30
0.0
 10
3.7
 20
1.75
 30
0.0
 10
3.7
 20
1.75
 30
0.0
 10
3.7
 20
2.47
 30
0.0
 10
3.7
 20
2.47
 30
0.0
 10
3.7
 20
2.47
 30
0.0
 10
3.7
 20
2.47
 30
0.0
 10
4.01
 20
2.47
 30
0.0
 10
4.01
 20
2.47
 30
0.0
 10
4.01
 20
2.47
 30
0.0
 10
4.01
 20
2.47
 30
0.0
 10
4.01
 20
2.345
 30
0.0
 10
4.01
 20
2.345
 30
0.0
 10
4.01
 20
2.345
 30
0.0
 10
4.01
 20
2.345
 30
0.0
 10
4.26
 20
2.345
 30
0.0
 10
4.26
 20
2.345
 30
0.0
 10
4.26
 20
2.345
 30
0.0
 10
4.26
 20
2.345
 30
0.0
 10
4.26
 20
2.47
 30
0.0
 10
4.26
 20
2.47
 30
0.0
 10
4.26
 20
2.47
 30
0.0
 10
4.26
 20
2.47
 30
0.0
 10
4.51
 20
2.47
 30
0.0
 10
4.51
 20
2.47
 30
0.0
 10
4.51
 20
2.47
 30
0.0
 10
4.51
 20
2.47
 30
0.0
 10
4.51
 20
2.78
 30
0.0
 10
4.51
 20
2.78
 30
0.0
 10
4.51
 20
2.78
 30
0.0
 10
4.51
 20
2.78
 30
0.0
 10
4.26
 20
2.78
 30
0.0
 10
4.26
 20
2.78
 30
0.0
 10
4.26
 20
2.78
 30
0.0
 10
4.26
 20
2.78
 30
0.0
 10
4.26
 20
2.905
 30
0.0
 10
4.26
 20
2.905
 30
0.0
 10
4.26
 20
2.905
 30
0.0
 10
4.26
 20
2.905
 30
0.0
 10
4.01
 20
2.905
 30
0.0
 10
4.01
 20
2.905
 30
0.0
 10
4.01
 20
2.905
 30
0.0
 10
4.01
 20
2.905
 30
0.0
 10
4.01
 20
2.78
 30
0.0
 10
4.01
 20
2.78
 30
0.0
 10
4.01
 20
2.78
 30
0.0
 10
4.01
 20
2.78
 30
0.0
 10
3.7
 20
2.78
 30
0.0
 10
3.7
 20
2.78
 30
0.0
 10
3.7
 20
2.78
 30
0.0
 10
3.7
 20
2.78
 30
0.0
 10
3.7
 20
3.5
 30
0.0
 10
3.7
 20
3.5
 30
0.0
 10
3.7
 20
3.5
 30
0.0
 10
3.7
 20
3.5
 30
0.0
 10
3.5
 20
3.5
 30
0.0
 10
3.5
 20
3.5
 30
0.0
 10
3.5
 20
3.5
 30
0.0
 10
3.5
 20
3.5
 30
0.0
 10
3.5
 20
4.9
 30
0.0
 10
3.5
 20
4.9
 30
0.0
 10
3.5
 20
4.9
 30
0.0
 10
3.5
 20
4.9
 30
0.0
 10
3.7
 20
4.9
 30
0.0
 10
3.7
 20
4.9
 30
0.0
 10
3.7
 20
4.9
 30
0.0
 10
3.7
 20
4.9
 30
0.0
 10
3.7
 20
6.3
 30
0.0
 10
3.7
 20
6.3
 30
0.0
 10
3.7
 20
6.3
 30
0.0
 10
3.7
 20
6.3
 30
0.0
 10
3.5
 20
6.3
 30
0.0
 10
3.5
 20
6.3
 30
0.0
 10
3.5
 20
6.3
 30
0.0
 10
3.5
 20
6.3
 30
0.0
 10
3.5
 20
7.7
 30
0.0
 10
3.5
 20
7.7
 30
0.0
 10
3.5
 20
7.7
 30
0.0
 10
3.5
 20
7.7
 30
0.0
 10
3.7
 20
7.7
 30
0.0
 10
3.7
 20
7.7
 30
0.0
 10
3.7
 20
7.7
 30
0.0
 10
3.7
 20
7.7
 30
0.0
 10
3.7
 20
9.1
 30
0.0
 10
3.7
 20
9.1
 30
0.0
 10
3.7
 20
9.1
 30
0.0
 10
3.7
 20
9.1
 30
0.0
 10
3.5
 20
9.1
 30
0.0
 10
3.5
 20
9.1
 30
0.0
 10
3.5
 20
9.1
 30
0.0
 10
3.5
 20
9.1
 30
0.0
 10
3.5
 20
10.5
 30
0.0
 10
3.5
 20
10.5
 30
0.0
 10
3.5
 20
10.5
 30
0.0
 10
3.5
 20
10.5
 30
0.0
 10
3.7
 20
10.5
 30
0.0
 10
3.7
 20
10.5
 30
0.0
 10
3.7
 20
10.5
 30
0.0
 10
3.7
 20
10.5
 30
0.0
 10
3.7
 20
11.22
 30
0.0
 10
3.7
 20
11.22
 30
0.0
 10
3.7
 20
11.22
 30
0.0
 10
3.7
 20
11.22
 30
0.0
 10
4.01
 20
11.22
 30
0.0
 10
4.01
 20
11.22
 30
0.0
 10
4.01
 20
11.22
 30
0.0
 10
4.01
 20
11.22
 30
0.0
 10
4.01
 20
11.095
 30
0.0
 10
4.01
 20
11.095
 30
0.0
 10
4.01
 20
11.095
 30
0.0
 10
4.01
 20
11.095
 30
0.0
 10
4.26
 20
11.095
 30
0.0
 10
4.26
 20
11.095
 30
0.0
 10
4.26
 20
11.095
 30
0.0
 10
4.26
 20
11.095
 30
0.0
 10
4.26
 20
11.22
 30
0.0
 10
4.26
 20
11.22
 30
0.0
 10
4.26
 20
11.22
 30
0.0
 10
4.26
 20
11.22
 30
0.0
 10
4.51
 20
11.22
 30
0.0
 10
4.51
 20
11.22
 30
0.0
 10
4.51
 20
11.22
 30
0.0
 10
4.51
 20
11.22
 30
0.0
 10
4.51
 20
11.53
 30
0.0
 10
4.51
 20
11.53
 30
0.0
 10
4.51
 20
11.53
 30
0.0
 10
4.51
 20
11.53
 30
0.0
 10
4.26
 20
11.53
 30
0.0
 10
4.26
 20
11.53
 30
0.0
 10
4.26
 20
11.53
 30
0.0
 10
4.26
 20
11.53
 30
0.0
 10
4.26
 20
11.655
 30
0.0
 10
4.26
 20
11.655
 30
0.0
 10
4.26
 20
11.655
 30
0.0
 10
4.26
 20
11.655
 30
0.0
 10
4.01
 20
11.655
 30
0.0
 10
4.01
 20
11.655
 30
0.0
 10
4.01
 20
11.655
 30
0.0
 10
4.01
 20
11.655
 30
0.0
 10
4.01
 20
11.53
 30
0.0
 10
4.01
 20
11.53
 30
0.0
 10
4.01
 20
11.53
 30
0.0
 10
4.01
 20
11.53
 30
0.0
 10
3.7
 20
11.53
 30
0.0
 10
3.7
 20
11.53
 30
0.0
 10
3.7
 20
11.53
 30
0.0
 10
3.7
 20
11.53
 30
0.0
 10
3.7
 20
12.25
 30
0.0
 10
3.7
 20
12.25
 30
0.0
 10
3.7
 20
12.25
 30
0.0
 10
3.7
 20
12.25
 30
0.0
 10
3.5
 20
12.25
 30
0.0
 10
3.5
 20
12.25
 30
0.0
 10
3.5
 20
12.25
 30
0.0
 10
3.5
 20
12.25
 30
0.0
 10
3.5
 20
13.8
 30
0.0
 10
3.5
 20
13.8
 30
0.0
  0
SPLINE
  5
62
330
1F
100
AcDbEntity
  8
layer 1
370
    25
100
AcDbSpline
210
0.0
220
0.0
230
1.0
 70
    11
 71
     3
 72
   500
 73
   496
 74
     0
 42
0.0000000001
 43
0.0000000001
 40
0.0
 40
0.0
 40
0.0
 40
0.0
 40
0.0080645161290323
 40
0.0080645161290323
 40
0.0080645161290323
 40
0.0080645161290323
 40
0.0161290322580645
 40
0.0161290322580645
 40
0.0161290322580645
 40
0.0161290322580645
 40
0.0241935483870968
 40
0.0241935483870968
 40
0.0241935483870968
 40
0.0241935483870968
 40
0.032258064516129
 40
0.032258064516129
 40
0.032258064516129
 40
0.032258064516129
 40
0.0403225806451613
 40
0.0403225806451613
 40
0.0403225806451613
 40
0.0403225806451613
 40
0.0483870967741935
 40
0.0483870967741935
 40
0.0483870967741935
 40
0.0483870967741935
 40
0.0564516129032258
 40
0.0564516129032258
 40
0.0564516129032258
 40
0.0564516129032258
 40
0.0645161290322581
 40
0.0645161290322581
 40
0.0645161290322581
 40
0.0645161290322581
 40
0.0725806451612903
 40
0.0725806451612903
 40
0.0725806451612903
 40
0.0725806451612903
 40
0.0806451612903226
 40
0.0806451612903226
 40
0.0806451612903226
 40
0.0806451612903226
 40
0.0887096774193548
 40
0.0887096774193548
 40
0.0887096774193548
 40
0.0887096774193548
 40
0.0967741935483871
 40
0.0967741935483871
 40
0.0967741935483871
 40
0.0967741935483871
 40
0.1048387096774193
 40
0.1048387096774193
 40
0.1048387096774193
 40
0.1048387096774193
 40
0.1129032258064516
 40
0.1129032258064516
 40
0.1129032258064516
 40
0.1129032258064516
 40
0.1209677419354838
 40
0.1209677419354838
 40
0.1209677419354838
 40
0.1209677419354838
 40
0.1290322580645161
 40
0.1290322580645161
 40
0.1290322580645161
 40
0.1290322580645161
 40
0.1370967741935483
 40
0.1370967741935483
 40
0.1370967741935483
 40
0.1370967741935483
 40
0.1451612903225806
 40
0.1451612903225806
 40
0.1451612903225806
 40
0.1451612903225806
 40
0.1532258064516128
 40
0.1532258064516128
 40
0.1532258064516128
 40
0.1532258064516128
 40
0.1612903225806451
 40
0.1612903225806451
 40
0.1612903225806451
 40
0.1612903225806451
 40
0.1693548387096773
 40
0.1693548387096773
 40
0.1693548387096773
 40
0.1693548387096773
 40
0.1774193548387096
 40
0.1774193548387096
 40
0.1774193548387096
 40
0.1774193548387096
 40
0.1854838709677418
 40
0.1854838709677418
 40
0.1854838709677418
 40
0.1854838709677418
 40
0.1935483870967741
 40
0.1935483870967741
 40
0.1935483870967741
 40
0.1935483870967741
 40
0.2016129032258063
 40
0.2016129032258063
 40
0.2016129032258063
 40
0.2016129032258063
 40
0.2096774193548386
 40
0.2096774193548386
 40
0.2096774193548386
 40
0.2096774193548386
 40
0.2177419354838708
 40
0.2177419354838708
 40
0.2177419354838708
 40
0.2177419354838708
 40
0.2258064516129031
 40
0.2258064516129031
 40
0.2258064516129031
 40
0.2258064516129031
 40
0.2338709677419353
 40
0.2338709677419353
 40
0.2338709677419353
 40
0.2338709677419353
 40
0.2419354838709676
 40
0.2419354838709676
 40
0.2419354838709676
 40
0.2419354838709676
 40
0.2499999999999998
 40
0.2499999999999998
 40
0.2499999999999998
 40
0.2499999999999998
 40
0.2580645161290321
 40
0.2580645161290321
 40
0.2580645161290321
 40
0.2580645161290321
 40
0.2661290322580643
 40
0.2661290322580643
 40
0.2661290322580643
 40
0.2661290322580643
 40
0.2741935483870966
 40
0.2741935483870966
 40
0.2741935483870966
 40
0.2741935483870966
 40
0.2822580645161288
 40
0.2822580645161288
 40
0.2822580645161288
 40
0.2822580645161288
 40
0.2903225806451611
 40
0.2903225806451611
 40
0.2903225806451611
 40
0.2903225806451611
 40
0.2983870967741933
 40
0.2983870967741933
 40
0.2983870967741933
 40
0.2983870967741933
 40
0.3064516129032256
 40
0.3064516129032256
 40
0.3064516129032256
 40
0.3064516129032256
 40
0.3145161290322578
 40
0.3145161290322578
 40
0.3145161290322578
 40
0.3145161290322578
 40
0.3225806451612901
 40
0.3225806451612901
 40
0.3225806451612901
 40
0.3225806451612901
 40
0.3306451612903223
 40
0.3306451612903223
 40
0.3306451612903223
 40
0.3306451612903223
 40
0.3387096774193546
 40
0.3387096774193546
 40
0.3387096774193546
 40
0.3387096774193546
 40
0.3467741935483868
 40
0.3467741935483868
 40
0.3467741935483868
 40
0.3467741935483868
 40
0.3548387096774191
 40
0.3548387096774191
 40
0.3548387096774191
 40
0.3548387096774191
 40
0.3629032258064513
 40
0.3629032258064513
 40
0.3629032258064513
 40
0.3629032258064513
 40
0.3709677419354836
 40
0.3709677419354836
 40
0.3709677419354836
 40
0.3709677419354836
 40
0.3790322580645158
 40
0.3790322580645158
 40
0.3790322580645158
 40
0.3790322580645158
 40
0.3870967741935481
 40
0.3870967741935481
 40
0.3870967741935481
 40
0.3870967741935481
 40
0.3951612903225803
 40
0.3951612903225803
 40
0.3951612903225803
 40
0.3951612903225803
 40
0.4032258064516126
 40
0.4032258064516126
 40
0.4032258064516126
 40
0.4032258064516126
 40
0.4112903225806449
 40
0.4112903225806449
 40
0.4112903225806449
 40
0.4112903225806449
 40
0.4193548387096771
 40
0.4193548387096771
 40
0.4193548387096771
 40
0.4193548387096771
 40
0.4274193548387094
 40
0.4274193548387094
 40
0.4274193548387094
 40
0.4274193548387094
 40
0.4354838709677416
 40
0.4354838709677416
 40
0.4354838709677416
 40
0.4354838709677416
 40
0.4435483870967739
 40
0.4435483870967739
 40
0.4435483870967739
 40
0.4435483870967739
 40
0.4516129032258061
 40
0.4516129032258061
 40
0.4516129032258061
 40
0.4516129032258061
 40
0.4596774193548384
 40
0.4596774193548384
 40
0.4596774193548384
 40
0.4596774193548384
 40
0.4677419354838706
 40
0.4677419354838706
 40
0.4677419354838706
 40
0.4677419354838706
 40
0.4758064516129029
 40
0.4758064516129029
 40
0.4758064516129029
 40
0.4758064516129029
 40
0.4838709677419351
 40
0.4838709677419351
 40
0.4838709677419351
 40
0.4838709677419351
 40
0.4919354838709674
 40
0.4919354838709674
 40
0.4919354838709674
 40
0.4919354838709674
 40
0.4999999999999996
 40
0.4999999999999996
 40
0.4999999999999996
 40
0.4999999999999996
 40
0.5080645161290319
 40
0.5080645161290319
 40
0.5080645161290319
 40
0.5080645161290319
 40
0.5161290322580642
 40
0.5161290322580642
 40
0.5161290322580642
 40
0.5161290322580642
 40
0.5241935483870964
 40
0.5241935483870964
 40
0.5241935483870964
 40
0.5241935483870964
 40
0.5322580645161287
 40
0.5322580645161287
 40
0.5322580645161287
 40
0.5322580645161287
 40
0.5403225806451609
 40
0.5403225806451609
 40
0.5403225806451609
 40
0.5403225806451609
 40
0.5483870967741932
 40
0.5483870967741932
 40
0.5483870967741932
 40
0.5483870967741932
 40
0.5564516129032254
 40
0.5564516129032254
 40
0.5564516129032254
 40
0.5564516129032254
 40
0.5645161290322577
 40
0.5645161290322577
 40
0.5645161290322577
 40
0.5645161290322577
 40
0.5725806451612899
 40
0.5725806451612899
 40
0.5725806451612899
 40
0.5725806451612899
 40
0.5806451612903222
 40
0.5806451612903222
 40
0.5806451612903222
 40
0.5806451612903222
 40
0.5887096774193544
 40
0.5887096774193544
 40
0.5887096774193544
 40
0.5887096774193544
 40
0.5967741935483867
 40
0.5967741935483867
 40
0.5967741935483867
 40
0.5967741935483867
 40
0.6048387096774189
 40
0.6048387096774189
 40
0.6048387096774189
 40
0.6048387096774189
 40
0.6129032258064512
 40
0.6129032258064512
 40
0.6129032258064512
 40
0.6129032258064512
 40
0.6209677419354834
 40
0.6209677419354834
 40
0.6209677419354834
 40
0.6209677419354834
 40
0.6290322580645157
 40
0.6290322580645157
 40
0.6290322580645157
 40
0.6290322580645157
 40
0.6370967741935479
 40
0.6370967741935479
 40
0.6370967741935479
 40
0.6370967741935479
 40
0.6451612903225802
 40
0.6451612903225802
 40
0.6451612903225802
 40
0.6451612903225802
 40
0.6532258064516124
 40
0.6532258064516124
 40
0.6532258064516124
 40
0.6532258064516124
 40
0.6612903225806447
 40
0.6612903225806447
 40
0.6612903225806447
 40
0.6612903225806447
 40
0.6693548387096769
 40
0.6693548387096769
 40
0.6693548387096769
 40
0.6693548387096769
 40
0.6774193548387092
 40
0.6774193548387092
 40
0.6774193548387092
 40
0.6774193548387092
 40
0.6854838709677414
 40
0.6854838709677414
 40
0.6854838709677414
 40
0.6854838709677414
 40
0.6935483870967737
 40
0.6935483870967737
 40
0.6935483870967737
 40
0.6935483870967737
 40
0.7016129032258059
 40
0.7016129032258059
 40
0.7016129032258059
 40
0.7016129032258059
 40
0.7096774193548382
 40
0.7096774193548382
 40
0.7096774193548382
 40
0.7096774193548382
 40
0.7177419354838704
 40
0.7177419354838704
 40
0.7177419354838704
 40
0.7177419354838704
 40
0.7258064516129027
 40
0.7258064516129027
 40
0.7258064516129027
 40
0.7258064516129027
 40
0.7338709677419349
 40
0.7338709677419349
 40
0.7338709677419349
 40
0.7338709677419349
 40
0.7419354838709672
 40
0.7419354838709672
 40
0.7419354838709672
 40
0.7419354838709672
 40
0.7499999999999994
 40
0.7499999999999994
 40
0.7499999999999994
 40
0.7499999999999994
 40
0.7580645161290317
 40
0.7580645161290317
 40
0.7580645161290317
 40
0.7580645161290317
 40
0.766129032258064
 40
0.766129032258064
 40
0.766129032258064
 40
0.766129032258064
 40
0.7741935483870962
 40
0.7741935483870962
 40
0.7741935483870962
 40
0.7741935483870962
 40
0.7822580645161284
 40
0.7822580645161284
 40
0.7822580645161284
 40
0.7822580645161284
 40
0.7903225806451607
 40
0.7903225806451607
 40
0.7903225806451607
 40
0.7903225806451607
 40
0.798387096774193
 40
0.798387096774193
 40
0.798387096774193
 40
0.798387096774193
 40
0.8064516129032252
 40
0.8064516129032252
 40
0.8064516129032252
 40
0.8064516129032252
 40
0.8145161290322575
 40
0.8145161290322575
 40
0.8145161290322575
 40
0.8145161290322575
 40
0.8225806451612897
 40
0.8225806451612897
 40
0.8225806451612897
 40
0.8225806451612897
 40
0.830645161290322
 40
0.830645161290322
 40
0.830645161290322
 40
0.830645161290322
 40
0.8387096774193542
 40
0.8387096774193542
 40
0.8387096774193542
 40
0.8387096774193542
 40
0.8467741935483865
 40
0.8467741935483865
 40
0.8467741935483865
 40
0.8467741935483865
 40
0.8548387096774187
 40
0.8548387096774187
 40
0.8548387096774187
 40
0.8548387096774187
 40
0.862903225806451
 40
0.862903225806451
 40
0.862903225806451
 40
0.862903225806451
 40
0.8709677419354832
 40
0.8709677419354832
 40
0.8709677419354832
 40
0.8709677419354832
 40
0.8790322580645155
 40
0.8790322580645155
 40
0.8790322580645155
 40
0.8790322580645155
 40
0.8870967741935477
 40
0.8870967741935477
 40
0.8870967741935477
 40
0.8870967741935477
 40
0.89516129032258
 40
0.89516129032258
 40
0.89516129032258
 40
0.89516129032258
 40
0.9032258064516122
 40
0.9032258064516122
 40
0.9032258064516122
 40
0.9032258064516122
 40
0.9112903225806445
 40
0.9112903225806445
 40
0.9112903225806445
 40
0.9112903225806445
 40
0.9193548387096767
 40
0.9193548387096767
 40
0.9193548387096767
 40
0.9193548387096767
 40
0.927419354838709
 40
0.927419354838709
 40
0.927419354838709
 40
0.927419354838709
 40
0.9354838709677412
 40
0.9354838709677412
 40
0.9354838709677412
 40
0.9354838709677412
 40
0.9435483870967735
 40
0.9435483870967735
 40
0.9435483870967735
 40
0.9435483870967735
 40
0.9516129032258057
 40
0.9516129032258057
 40
0.9516129032258057
 40
0.9516129032258057
 40
0.959677419354838
 40
0.959677419354838
 40
0.959677419354838
 40
0.959677419354838
 40
0.9677419354838702
 40
0.9677419354838702
 40
0.9677419354838702
 40
0.9677419354838702
 40
0.9758064516129025
 40
0.9758064516129025
 40
0.9758064516129025
 40
0.9758064516129025
 40
0.9838709677419347
 40
0.9838709677419347
 40
0.9838709677419347
 40
0.9838709677419347
 40
0.991935483870967
 40
0.991935483870967
 40
0.991935483870967
 40
0.991935483870967
 40
1.0
 40
1.0
 40
1.0
 40
1.0
 10
3.5
 20
-0.2
 30
0.0
 10
3.5
 20
-0.2
 30
0.0
 10
4.9
 20
-0.2
 30
0.0
 10
4.9
 20
-0.2
 30
0.0
 10
4.9
 20
-0.2
 30
0.0
 10
4.9
 20
-0.2
 30
0.0
 10
4.9
 20
0.0
 30
0.0
 10
4.9
 20
0.0
 30
0.0
 10
4.9
 20
0.0
 30
0.0
 10
4.9
 20
0.0
 30
0.0
 10
6.3
 20
0.0
 30
0.0
 10
6.3
 20
0.0
 30
0.0
 10
6.3
 20
0.0
 30
0.0
 10
6.3
 20
0.0
 30
0.0
 10
6.3
 20
-0.2
 30
0.0
 10
6.3
 20
-0.2
 30
0.0
 10
6.3
 20
-0.2
 30
0.0
 10
6.3
 20
-0.2
 30
0.0
 10
6.845
 20
-0.2
 30
0.0
 10
6.845
 20
-0.2
 30
0.0
 10
6.845
 20
-0.2
 30
0.0
 10
6.845
 20
-0.2
 30
0.0
 10
6.845
 20
-0.51
 30
0.0
 10
6.845
 20
-0.51
 30
0.0
 10
6.845
 20
-0.51
 30
0.0
 10
6.845
 20
-0.51
 30
0.0
 10
6.72
 20
-0.51
 30
0.0
 10
6.72
 20
-0.51
 30
0.0
 10
6.72
 20
-0.51
 30
0.0
 10
6.72
 20
-0.51
 30
0.0
 10
6.72
 20
-0.76
 30
0.0
 10
6.72
 20
-0.76
 30
0.0
 10
6.72
 20
-0.76
 30
0.0
 10
6.72
 20
-0.76
 30
0.0
 10
6.845
 20
-0.76
 30
0.0
 10
6.845
 20
-0.76
 30
0.0
 10
6.845
 20
-0.76
 30
0.0
 10
6.845
 20
-0.76
 30
0.0
 10
6.845
 20
-1.01
 30
0.0
 10
6.845
 20
-1.01
 30
0.0
 10
6.845
 20
-1.01
 30
0.0
 10
6.845
 20
-1.01
 30
0.0
 10
7.155
 20
-1.01
 30
0.0
 10
7.155
 20
-1.01
 30
0.0
 10
7.155
 20
-1.01
 30
0.0
 10
7.155
 20
-1.01
 30
0.0
 10
7.155
 20
-0.76
 30
0.0
 10
7.155
 20
-0.76
 30
0.0
 10
7.155
 20
-0.76
 30
0.0
 10
7.155
 20
-0.76
 30
0.0
 10
7.28
 20
-0.76
 30
0.0
 10
7.28
 20
-0.76
 30
0.0
 10
7.28
 20
-0.76
 30
0.0
 10
7.28
 20
-0.76
 30
0.0
 10
7.28
 20
-0.51
 30
0.0
 10
7.28
 20
-0.51
 30
0.0
 10
7.28
 20
-0.51
 30
0.0
 10
7.28
 20
-0.51
 30
0.0
 10
7.155
 20
-0.51
 30
0.0
 10
7.155
 20
-0.51
 30
0.0
 10
7.155
 20
-0.51
 30
0.0
 10
7.155
 20
-0.51
 30
0.0
 10
7.155
 20
-0.2
 30
0.0
 10
7.155
 20
-0.2
 30
0.0
 10
7.155
 20
-0.2
 30
0.0
 10
7.155
 20
-0.2
 30
0.0
 10
7.7
 20
-0.2
 30
0.0
 10
7.7
 20
-0.2
 30
0.0
 10
7.7
 20
-0.2
 30
0.0
 10
7.7
 20
-0.2
 30
0.0
 10
7.7
 20
0.0
 30
0.0
 10
7.7
 20
0.0
 30
0.0
 10
7.7
 20
0.0
 30
0.0
 10
7.7
 20
0.0
 30
0.0
 10
9.1
 20
0.0
 30
0.0
 10
9.1
 20
0.0
 30
0.0
 10
9.1
 20
0.0
 30
0.0
 10
9.1
 20
0.0
 30
0.0
 10
9.1
 20
-0.2
 30
0.0
 10
9.1
 20
-0.2
 30
0.0
 10
9.1
 20
-0.2
 30
0.0
 10
9.1
 20
-0.2
 30
0.0
 10
10.5
 20
-0.2
 30
0.0
 10
10.5
 20
-0.2
 30
0.0
 10
10.5
 20
-0.2
 30
0.0
 10
10.5
 20
-0.2
 30
0.0
 10
10.5
 20
-1.75
 30
0.0
 10
10.5
 20
-1.75
 30
0.0
 10
10.5
 20
-1.75
 30
0.0
 10
10.5
 20
-1.75
 30
0.0
 10
10.3
 20
-1.75
 30
0.0
 10
10.3
 20
-1.75
 30
0.0
 10
10.3
 20
-1.75
 30
0.0
 10
10.3
 20
-1.75
 30
0.0
 10
10.3
 20
-2.47
 30
0.0
 10
10.3
 20
-2.47
 30
0.0
 10
10.3
 20
-2.47
 30
0.0
 10
10.3
 20
-2.47
 30
0.0
 10
9.99
 20
-2.47
 30
0.0
 10
9.99
 20
-2.47
 30
0.0
 10
9.99
 20
-2.47
 30
0.0
 10
9.99
 20
-2.47
 30
0.0
 10
9.99
 20
-2.345
 30
0.0
 10
9.99
 20
-2.345
 30
0.0
 10
9.99
 20
-2.345
 30
0.0
 10
9.99
 20
-2.345
 30
0.0
 10
9.74
 20
-2.345
 30
0.0
 10
9.74
 20
-2.345
 30
0.0
 10
9.74
 20
-2.345
 30
0.0
 10
9.74
 20
-2.345
 30
0.0
 10
9.74
 20
-2.47
 30
0.0
 10
9.74
 20
-2.47
 30
0.0
 10
9.74
 20
-2.47
 30
0.0
 10
9.74
 20
-2.47
 30
0.0
 10
9.49
 20
-2.47
 30
0.0
 10
9.49
 20
-2.47
 30
0.0
 10
9.49
 20
-2.47
 30
0.0
 10
9.49
 20
-2.47
 30
0.0
 10
9.49
 20
-2.78
 30
0.0
 10
9.49
 20
-2.78
 30
0.0
 10
9.49
 20
-2.78
 30
0.0
 10
9.49
 20
-2.78
 30
0.0
 10
9.74
 20
-2.78
 30
0.0
 10
9.74
 20
-2.78
 30
0.0
 10
9.74
 20
-2.78
 30
0.0
 10
9.74
 20
-2.78
 30
0.0
 10
9.74
 20
-2.905
 30
0.0
 10
9.74
 20
-2.905
 30
0.0
 10
9.74
 20
-2.905
 30
0.0
 10
9.74
 20
-2.905
 30
0.0
 10
9.99
 20
-2.905
 30
0.0
 10
9.99
 20
-2.905
 30
0.0
 10
9.99
 20
-2.905
 30
0.0
 10
9.99
 20
-2.905
 30
0.0
 10
9.99
 20
-2.78
 30
0.0
 10
9.99
 20
-2.78
 30
0.0
 10
9.99
 20
-2.78
 30
0.0
 10
9.99
 20
-2.78
 30
0.0
 10
10.3
 20
-2.78
 30
0.0
 10
10.3
 20
-2.78
 30
0.0
 10
10.3
 20
-2.78
 30
0.0
 10
10.3
 20
-2.78
 30
0.0
 10
10.3
 20
-3.5
 30
0.0
 10
10.3
 20
-3.5
 30
0.0
 10
10.3
 20
-3.5
 30
0.0
 10
10.3
 20
-3.5
 30
0.0
 10
10.5
 20
-3.5
 30
0.0
 10
10.5
 20
-3.5
 30
0.0
 10
10.5
 20
-3.5
 30
0.0
 10
10.5
 20
-3.5
 30
0.0
 10
10.5
 20
-4.9
 30
0.0
 10
10.5
 20
-4.9
 30
0.0
 10
10.5
 20
-4.9
 30
0.0
 10
10.5
 20
-4.9
 30
0.0
 10
10.3
 20
-4.9
 30
0.0
 10
10.3
 20
-4.9
 30
0.0
 10
10.3
 20
-4.9
 30
0.0
 10
10.3
 20
-4.9
 30
0.0
 10
10.3
 20
-6.3
 30
0.0
 10
10.3
 20
-6.3
 30
0.0
 10
10.3
 20
-6.3
 30
0.0
 10
10.3
 20
-6.3
 30
0.0
 10
10.5
 20
-6.3
 30
0.0
 10
10.5
 20
-6.3
 30
0.0
 10
10.5
 20
-6.3
 30
0.0
 10
10.5
 20
-6.3
 30
0.0
 10
10.5
 20
-7.7
 30
0.0
 10
10.5
 20
-7.7
 30
0.0
 10
10.5
 20
-7.7
 30
0.0
 10
10.5
 20
-7.7
 30
0.0
 10
10.3
 20
-7.7
 30
0.0
 10
10.3
 20
-7.7
 30
0.0
 10
10.3
 20
-7.7
 30
0.0
 10
10.3
 20
-7.7
 30
0.0
 10
10.3
 20
-9.1
 30
0.0
 10
10.3
 20
-9.1
 30
0.0
 10
10.3
 20
-9.1
 30
0.0
 10
10.3
 20
-9.1
 30
0.0
 10
10.5
 20
-9.1
 30
0.0
 10
10.5
 20
-9.1
 30
0.0
 10
10.5
 20
-9.1
 30
0.0
 10
10.5
 20
-9.1
 30
0.0
 10
10.5
 20
-10.5
 30
0.0
 10
10.5
 20
-10.5
 30
0.0
 10
10.5
 20
-10.5
 30
0.0
 10
10.5
 20
-10.5
 30
0.0
 10
10.3
 20
-10.5
 30
0.0
 10
10.3
 20
-10.5
 30
0.0
 10
10.3
 20
-10.5
 30
0.0
 10
10.3
 20
-10.5
 30
0.0
 10
10.3
 20
-11.22
 30
0.0
 10
10.3
 20
-11.22
 30
0.0
 10
10.3
 20
-11.22
 30
0.0
 10
10.3
 20
-11.22
 30
0.0
 10
9.99
 20
-11.22
 30
0.0
 10
9.99
 20
-11.22
 30
0.0
 10
9.99
 20
-11.22
 30
0.0
 10
9.99
 20
-11.22
 30
0.0
 10
9.99
 20
-11.095
 30
0.0
 10
9.99
 20
-11.095
 30
0.0
 10
9.99
 20
-11.095
 30
0.0
 10
9.99
 20
-11.095
 30
0.0
 10
9.74
 20
-11.095
 30
0.0
 10
9.74
 20
-11.095
 30
0.0
 10
9.74
 20
-11.095
 30
0.0
 10
9.74
 20
-11.095
 30
0.0
 10
9.74
 20
-11.22
 30
0.0
 10
9.74
 20
-11.22
 30
0.0
 10
9.74
 20
-11.22
 30
0.0
 10
9.74
 20
-11.22
 30
0.0
 10
9.49
 20
-11.22
 30
0.0
 10
9.49
 20
-11.22
 30
0.0
 10
9.49
 20
-11.22
 30
0.0
 10
9.49
 20
-11.22
 30
0.0
 10
9.49
 20
-11.53
 30
0.0
 10
9.49
 20
-11.53
 30
0.0
 10
9.49
 20
-11.53
 30
0.0
 10
9.49
 20
-11.53
 30
0.0
 10
9.74
 20
-11.53
 30
0.0
 10
9.74
 20
-11.53
 30
0.0
 10
9.74
 20
-11.53
 30
0.0
 10
9.74
 20
-11.53
 30
0.0
 10
9.74
 20
-11.655
 30
0.0
 10
9.74
 20
-11.655
 30
0.0
 10
9.74
 20
-11.655
 30
0.0
 10
9.74
 20
-11.655
 30
0.0
 10
9.99
 20
-11.655
 30
0.0
 10
9.99
 20
-11.655
 30
0.0
 10
9.99
 20
-11.655
 30
0.0
 10
9.99
 20
-11.655
 30
0.0
 10
9.99
 20
-11.53
 30
0.0
 10
9.99
 20
-11.53
 30
0.0
 10
9.99
 20
-11.53
 30
0.0
 10
9.99
 20
-11.53
 30
0.0
 10
10.3
 20
-11.53
 30
0.0
 10
10.3
 20
-11.53
 30
0.0
 10
10.3
 20
-11.53
 30
0.0
 10
10.3
 20
-11.53
 30
0.0
 10
10.3
 20
-12.25
 30
0.0
 10
10.3
 20
-12.25
 30
0.0
 10
10.3
 20
-12.25
 30
0.0
 10
10.3
 20
-12.25
 30
0.0
 10
10.5
 20
-12.25
 30
0.0
 10
10.5
 20
-12.25
 30
0.0
 10
10.5
 20
-12.25
 30
0.0
 10
10.5
 20
-12.25
 30
0.0
 10
10.5
 20
-13.8
 30
0.0
 10
10.5
 20
-13.8
 30
0.0
 10
10.5
 20
-13.8
 30
0.0
 10
10.5
 20
-13.8
 30
0.0
 10
9.1
 20
-13.8
 30
0.0
 10
9.1
 20
-13.8
 30
0.0
 10
9.1
 20
-13.8
 30
0.0
 10
9.1
 20
-13.8
 30
0.0
 10
9.1
 20
-14.0
 30
0.0
 10
9.1
 20
-14.0
 30
0.0
 10
9.1
 20
-14.0
 30
0.0
 10
9.1
 20
-14.0
 30
0.0
 10
7.7
 20
-14.0
 30
0.0
 10
7.7
 20
-14.0
 30
0.0
 10
7.7
 20
-14.0
 30
0.0
 10
7.7
 20
-14.0
 30
0.0
 10
7.7
 20
-13.8
 30
0.0
 10
7.7
 20
-13.8
 30
0.0
 10
7.7
 20
-13.8
 30
0.0
 10
7.7
 20
-13.8
 30
0.0
 10
7.155
 20
-13.8
 30
0.0
 10
7.155
 20
-13.8
 30
0.0
 10
7.155
 20
-13.8
 30
0.0
 10
7.155
 20
-13.8
 30
0.0
 10
7.155
 20
-13.49
 30
0.0
 10
7.155
 20
-13.49
 30
0.0
 10
7.155
 20
-13.49
 30
0.0
 10
7.155
 20
-13.49
 30
0.0
 10
7.28
 20
-13.49
 30
0.0
 10
7.28
 20
-13.49
 30
0.0
 10
7.28
 20
-13.49
 30
0.0
 10
7.28
 20
-13.49
 30
0.0
 10
7.28
 20
-13.24
 30
0.0
 10
7.28
 20
-13.24
 30
0.0
 10
7.28
 20
-13.24
 30
0.0
 10
7.28
 20
-13.24
 30
0.0
 10
7.155
 20
-13.24
 30
0.0
 10
7.155
 20
-13.24
 30
0.0
 10
7.155
 20
-13.24
 30
0.0
 10
7.155
 20
-13.24
 30
0.0
 10
7.155
 20
-12.99
 30
0.0
 10
7.155
 20
-12.99
 30
0.0
 10
7.155
 20
-12.99
 30
0.0
 10
7.155
 20
-12.99
 30
0.0
 10
6.845
 20
-12.99
 30
0.0
 10
6.845
 20
-12.99
 30
0.0
 10
6.845
 20
-12.99
 30
0.0
 10
6.845
 20
-12.99
 30
0.0
 10
6.845
 20
-13.24
 30
0.0
 10
6.845
 20
-13.24
 30
0.0
 10
6.845
 20
-13.24
 30
0.0
 10
6.845
 20
-13.24
 30
0.0
 10
6.72
 20
-13.24
 30
0.0
 10
6.72
 20
-13.24
 30
0.0
 10
6.72
 20
-13.24
 30
0.0
 10
6.72
 20
-13.24
 30
0.0
 10
6.72
 20
-13.49
 30
0.0
 10
6.72
 20
-13.49
 30
0.0
 10
6.72
 20
-13.49
 30
0.0
 10
6.72
 20
-13.49
 30
0.0
 10
6.845
 20
-13.49
 30
0.0
 10
6.845
 20
-13.49
 30
0.0
 10
6.845
 20
-13.49
 30
0.0
 10
6.845
 20
-13.49
 30
0.0
 10
6.845
 20
-13.8
 30
0.0
 10
6.845
 20
-13.8
 30
0.0
 10
6.845
 20
-13.8
 30
0.0
 10
6.845
 20
-13.8
 30
0.0
 10
6.3
 20
-13.8
 30
0.0
 10
6.3
 20
-13.8
 30
0.0
 10
6.3
 20
-13.8
 30
0.0
 10
6.3
 20
-13.8
 30
0.0
 10
6.3
 20
-14.0
 30
0.0
 10
6.3
 20
-14.0
 30
0.0
 10
6.3
 20
-14.0
 30
0.0
 10
6.3
 20
-14.0
 30
0.0
 10
4.9
 20
-14.0
 30
0.0
 10
4.9
 20
-14.0
 30
0.0
 10
4.9
 20
-14.0
 30
0.0
 10
4.9
 20
-14.0
 30
0.0
 10
4.9
 20
-13.8
 30
0.0
 10
4.9
 20
-13.8
 30
0.0
 10
4.9
 20
-13.8
 30
0.0
 10
4.9
 20
-13.8
 30
0.0
 10
3.5
 20
-13.8
 30
0.0
 10
3.5
 20
-13.8
 30
0.0
 10
3.5
 20
-13.8
 30
0.0
 10
3.5
 20
-13.8
 30
0.0
 10
3.5
 20
-12.25
 30
0.0
 10
3.5
 20
-12.25
 30
0.0
 10
3.5
 20
-12.25
 30
0.0
 10
3.5
 20
-12.25
 30
0.0
 10
3.7
 20
-12.25
 30
0.0
 10
3.7
 20
-12.25
 30
0.0
 10
3.7
 20
-12.25
 30
0.0
 10
3.7
 20
-12.25
 30
0.0
 10
3.7
 20
-11.53
 30
0.0
 10
3.7
 20
-11.53
 30
0.0
 10
3.7
 20
-11.53
 30
0.0
 10
3.7
 20
-11.53
 30
0.0
 10
4.01
 20
-11.53
 30
0.0
 10
4.01
 20
-11.53
 30
0.0
 10
4.01
 20
-11.53
 30
0.0
 10
4.01
 20
-11.53
 30
0.0
 10
4.01
 20
-11.655
 30
0.0
 10
4.01
 20
-11.655
 30
0.0
 10
4.01
 20
-11.655
 30
0.0
 10
4.01
 20
-11.655
 30
0.0
 10
4.26
 20
-11.655
 30
0.0
 10
4.26
 20
-11.655
 30
0.0
 10
4.26
 20
-11.655
 30
0.0
 10
4.26
 20
-11.655
 30
0.0
 10
4.26
 20
-11.53
 30
0.0
 10
4.26
 20
-11.53
 30
0.0
 10
4.26
 20
-11.53
 30
0.0
 10
4.26
 20
-11.53
 30
0.0
 10
4.51
 20
-11.53
 30
0.0
 10
4.51
 20
-11.53
 30
0.0
 10
4.51
 20
-11.53
 30
0.0
 10
4.51
 20
-11.53
 30
0.0
 10
4.51
 20
-11.22
 30
0.0
 10
4.51
 20
-11.22
 30
0.0
 10
4.51
 20
-11.22
 30
0.0
 10
4.51
 20
-11.22
 30
0.0
 10
4.26
 20
-11.22
 30
0.0
 10
4.26
 20
-11.22
 30
0.0
 10
4.26
 20
-11.22
 30
0.0
 10
4.26
 20
-11.22
 30
0.0
 10
4.26
 20
-11.095
 30
0.0
 10
4.26
 20
-11.095
 30
0.0
 10
4.26
 20
-11.095
 30
0.0
 10
4.26
 20
-11.095
 30
0.0
 10
4.01
 20
-11.095
 30
0.0
 10
4.01
 20
-11.095
 30
0.0
 10
4.01
 20
-11.095
 30
0.0
 10
4.01
 20
-11.095
 30
0.0
 10
4.01
 20
-11.22
 30
0.0
 10
4.01
 20
-11.22
 30
0.0
 10
4.01
 20
-11.22
 30
0.0
 10
4.01
 20
-11.22
 30
0.0
 10
3.7
 20
-11.22
 30
0.0
 10
3.7
 20
-11.22
 30
0.0
 10
3.7
 20
-11.22
 30
0.0
 10
3.7
 20
-11.22
 30
0.0
 10
3.7
 20
-10.5
 30
0.0
 10
3.7
 20
-10.5
 30
0.0
 10
3.7
 20
-10.5
 30
0.0
 10
3.7
 20
-10.5
 30
0.0
 10
3.5
 20
-10.5
 30
0.0
 10
3.5
 20
-10.5
 30
0.0
 10
3.5
 20
-10.5
 30
0.0
 10
3.5
 20
-10.5
 30
0.0
 10
3.5
 20
-9.1
 30
0.0
 10
3.5
 20
-9.1
 30
0.0
 10
3.5
 20
-9.1
 30
0.0
 10
3.5
 20
-9.1
 30
0.0
 10
3.7
 20
-9.1
 30
0.0
 10
3.7
 20
-9.1
 30
0.0
 10
3.7
 20
-9.1
 30
0.0
 10
3.7
 20
-9.1
 30
0.0
 10
3.7
 20
-7.7
 30
0.0
 10
3.7
 20
-7.7
 30
0.0
 10
3.7
 20
-7.7
 30
0.0
 10
3.7
 20
-7.7
 30
0.0
 10
3.5
 20
-7.7
 30
0.0
 10
3.5
 20
-7.7
 30
0.0
 10
3.5
 20
-7.7
 30
0.0
 10
3.5
 20
-7.7
 30
0.0
 10
3.5
 20
-6.3
 30
0.0
 10
3.5
 20
-6.3
 30
0.0
 10
3.5
 20
-6.3
 30
0.0
 10
3.5
 20
-6.3
 30
0.0
 10
3.7
 20
-6.3
 30
0.0
 10
3.7
 20
-6.3
 30
0.0
 10
3.7
 20
-6.3
 30
0.0
 10
3.7
 20
-6.3
 30
0.0
 10
3.7
 20
-4.9
 30
0.0
 10
3.7
 20
-4.9
 30
0.0
 10
3.7
 20
-4.9
 30
0.0
 10
3.7
 20
-4.9
 30
0.0
 10
3.5
 20
-4.9
 30
0.0
 10
3.5
 20
-4.9
 30
0.0
 10
3.5
 20
-4.9
 30
0.0
 10
3.5
 20
-4.9
 30
0.0
 10
3.5
 20
-3.5
 30
0.0
 10
3.5
 20
-3.5
 30
0.0
 10
3.5
 20
-3.5
 30
0.0
 10
3.5
 20
-3.5
 30
0.0
 10
3.7
 20
-3.5
 30
0.0
 10
3.7
 20
-3.5
 30
0.0
 10
3.7
 20
-3.5
 30
0.0
 10
3.7
 20
-3.5
 30
0.0
 10
3.7
 20
-2.78
 30
0.0
 10
3.7
 20
-2.78
 30
0.0
 10
3.7
 20
-2.78
 30
0.0
 10
3.7
 20
-2.78
 30
0.0
 10
4.01
 20
-2.78
 30
0.0
 10
4.01
 20
-2.78
 30
0.0
 10
4.01
 20
-2.78
 30
0.0
 10
4.01
 20
-2.78
 30
0.0
 10
4.01
 20
-2.905
 30
0.0
 10
4.01
 20
-2.905
 30
0.0
 10
4.01
 20
-2.905
 30
0.0
 10
4.01
 20
-2.905
 30
0.0
 10
4.26
 20
-2.905
 30
0.0
 10
4.26
 20
-2.905
 30
0.0
 10
4.26
 20
-2.905
 30
0.0
 10
4.26
 20
-2.905
 30
0.0
 10
4.26
 20
-2.78
 30
0.0
 10
4.26
 20
-2.78
 30
0.0
 10
4.26
 20
-2.78
 30
0.0
 10
4.26
 20
-2.78
 30
0.0
 10
4.51
 20
-2.78
 30
0.0
 10
4.51
 20
-2.78
 30
0.0
 10
4.51
 20
-2.78
 30
0.0
 10
4.51
 20
-2.78
 30
0.0
 10
4.51
 20
-2.47
 30
0.0
 10
4.51
 20
-2.47
 30
0.0
 10
4.51
 20
-2.47
 30
0.0
 10
4.51
 20
-2.47
 30
0.0
 10
4.26
 20
-2.47
 30
0.0
 10
4.26
 20
-2.47
 30
0.0
 10
4.26
 20
-2.47
 30
0.0
 10
4.26
 20
-2.47
 30
0.0
 10
4.26
 20
-2.345
 30
0.0
 10
4.26
 20
-2.345
 30
0.0
 10
4.26
 20
-2.345
 30
0.0
 10
4.26
 20
-2.345
 30
0.0
 10
4.01
 20
-2.345
 30
0.0
 10
4.01
 20
-2.345
 30
0.0
 10
4.01
 20
-2.345
 30
0.0
 10
4.01
 20
-2.345
 30
0.0
 10
4.01
 20
-2.47
 30
0.0
 10
4.01
 20
-2.47
 30
0.0
 10
4.01
 20
-2.47
 30
0.0
 10
4.01
 20
-2.47
 30
0.0
 10
3.7
 20
-2.47
 30
0.0
 10
3.7
 20
-2.47
 30
0.0
 10
3.7
 20
-2.47
 30
0.0
 10
3.7
 20
-2.47
 30
0.0
 10
3.7
 20
-1.75
 30
0.0
 10
3.7
 20
-1.75
 30
0.0
 10
3.7
 20
-1.75
 30
0.0
 10
3.7
 20
-1.75
 30
0.0
 10
3.5
 20
-1.75
 30
0.0
 10
3.5
 20
-1.75
 30
0.0
 10
3.5
 20
-1.75
 30
0.0
 10
3.5
 20
-1.75
 30
0.0
 10
3.5
 20
-0.2
 30
0.0
 10
3.5
 20
-0.2
 30
0.0
  0
SPLINE
  5
63
330
1F
100
AcDbEntity
  8
layer 1
370
    25
100
AcDbSpline
210
0.0
220
0.0
230
1.0
 70
    11
 71
     3
 72
   276
 73
   272
 74
     0
 42
0.0000000001
 43
0.0000000001
 40
0.0
 40
0.0
 40
0.0
 40
0.0
 40
0.0147058823529412
 40
0.0147058823529412
 40
0.0147058823529412
 40
0.0147058823529412
 40
0.0294117647058824
 40
0.0294117647058824
 40
0.0294117647058824
 40
0.0294117647058824
 40
0.0441176470588235
 40
0.0441176470588235
 40
0.0441176470588235
 40
0.0441176470588235
 40
0.0588235294117647
 40
0.0588235294117647
 40
0.0588235294117647
 40
0.0588235294117647
 40
0.0735294117647059
 40
0.0735294117647059
 40
0.0735294117647059
 40
0.0735294117647059
 40
0.0882352941176471
 40
0.0882352941176471
 40
0.0882352941176471
 40
0.0882352941176471
 40
0.1029411764705882
 40
0.1029411764705882
 40
0.1029411764705882
 40
0.1029411764705882
 40
0.1176470588235294
 40
0.1176470588235294
 40
0.1176470588235294
 40
0.1176470588235294
 40
0.1323529411764706
 40
0.1323529411764706
 40
0.1323529411764706
 40
0.1323529411764706
 40
0.1470588235294118
 40
0.1470588235294118
 40
0.1470588235294118
 40
0.1470588235294118
 40
0.1617647058823529
 40
0.1617647058823529
 40
0.1617647058823529
 40
0.1617647058823529
 40
0.1764705882352941
 40
0.1764705882352941
 40
0.1764705882352941
 40
0.1764705882352941
 40
0.1911764705882353
 40
0.1911764705882353
 40
0.1911764705882353
 40
0.1911764705882353
 40
0.2058823529411765
 40
0.2058823529411765
 40
0.2058823529411765
 40
0.2058823529411765
 40
0.2205882352941177
 40
0.2205882352941177
 40
0.2205882352941177
 40
0.2205882352941177
 40
0.2352941176470588
 40
0.2352941176470588
 40
0.2352941176470588
 40
0.2352941176470588
 40
0.25
 40
0.25
 40
0.25
 40
0.25
 40
0.2647058823529412
 40
0.2647058823529412
 40
0.2647058823529412
 40
0.2647058823529412
 40
0.2794117647058824
 40
0.2794117647058824
 40
0.2794117647058824
 40
0.2794117647058824
 40
0.2941176470588235
 40
0.2941176470588235
 40
0.2941176470588235
 40
0.2941176470588235
 40
0.3088235294117647
 40
0.3088235294117647
 40
0.3088235294117647
 40
0.3088235294117647
 40
0.3235294117647059
 40
0.3235294117647059
 40
0.3235294117647059
 40
0.3235294117647059
 40
0.3382352941176471
 40
0.3382352941176471
 40
0.3382352941176471
 40
0.3382352941176471
 40
0.3529411764705883
 40
0.3529411764705883
 40
0.3529411764705883
 40
0.3529411764705883
 40
0.3676470588235294
 40
0.3676470588235294
 40
0.3676470588235294
 40
0.3676470588235294
 40
0.3823529411764706
 40
0.3823529411764706
 40
0.3823529411764706
 40
0.3823529411764706
 40
0.3970588235294118
 40
0.3970588235294118
 40
0.3970588235294118
 40
0.3970588235294118
 40
0.411764705882353
 40
0.411764705882353
 40
0.411764705882353
 40
0.411764705882353
 40
0.4264705882352942
 40
0.4264705882352942
 40
0.4264705882352942
 40
0.4264705882352942
 40
0.4411764705882353
 40
0.4411764705882353
 40
0.4411764705882353
 40
0.4411764705882353
 40
0.4558823529411765
 40
0.4558823529411765
 40
0.4558823529411765
 40
0.4558823529411765
 40
0.4705882352941177
 40
0.4705882352941177
 40
0.4705882352941177
 40
0.4705882352941177
 40
0.4852941176470589
 40
0.4852941176470589
 40
0.4852941176470589
 40
0.4852941176470589
 40
0.5
 40
0.5
 40
0.5
 40
0.5
 40
0.5147058823529411
 40
0.5147058823529411
 40
0.5147058823529411
 40
0.5147058823529411
 40
0.5294117647058822
 40
0.5294117647058822
 40
0.5294117647058822
 40
0.5294117647058822
 40
0.5441176470588234
 40
0.5441176470588234
 40
0.5441176470588234
 40
0.5441176470588234
 40
0.5588235294117645
 40
0.5588235294117645
 40
0.5588235294117645
 40
0.5588235294117645
 40
0.5735294117647056
 40
0.5735294117647056
 40
0.5735294117647056
 40
0.5735294117647056
 40
0.5882352941176467
 40
0.5882352941176467
 40
0.5882352941176467
 40
0.5882352941176467
 40
0.6029411764705879
 40
0.6029411764705879
 40
0.6029411764705879
 40
0.6029411764705879
 40
0.617647058823529
 40
0.617647058823529
 40
0.617647058823529
 40
0.617647058823529
 40
0.6323529411764701
 40
0.6323529411764701
 40
0.6323529411764701
 40
0.6323529411764701
 40
0.6470588235294112
 40
0.6470588235294112
 40
0.6470588235294112
 40
0.6470588235294112
 40
0.6617647058823524
 40
0.6617647058823524
 40
0.6617647058823524
 40
0.6617647058823524
 40
0.6764705882352935
 40
0.6764705882352935
 40
0.6764705882352935
 40
0.6764705882352935
 40
0.6911764705882346
 40
0.6911764705882346
 40
0.6911764705882346
 40
0.6911764705882346
 40
0.7058823529411757
 40
0.7058823529411757
 40
0.7058823529411757
 40
0.7058823529411757
 40
0.7205882352941169
 40
0.7205882352941169
 40
0.7205882352941169
 40
0.7205882352941169
 40
0.735294117647058
 40
0.735294117647058
 40
0.735294117647058
 40
0.735294117647058
 40
0.7499999999999991
 40
0.7499999999999991
 40
0.7499999999999991
 40
0.7499999999999991
 40
0.7647058823529402
 40
0.7647058823529402
 40
0.7647058823529402
 40
0.7647058823529402
 40
0.7794117647058814
 40
0.7794117647058814
 40
0.7794117647058814
 40
0.7794117647058814
 40
0.7941176470588225
 40
0.7941176470588225
 40
0.7941176470588225
 40
0.7941176470588225
 40
0.8088235294117636
 40
0.8088235294117636
 40
0.8088235294117636
 40
0.8088235294117636
 40
0.8235294117647047
 40
0.8235294117647047
 40
0.8235294117647047
 40
0.8235294117647047
 40
0.8382352941176459
 40
0.8382352941176459
 40
0.8382352941176459
 40
0.8382352941176459
 40
0.852941176470587
 40
0.852941176470587
 40
0.852941176470587
 40
0.852941176470587
 40
0.8676470588235281
 40
0.8676470588235281
 40
0.8676470588235281
 40
0.8676470588235281
 40
0.8823529411764692
 40
0.8823529411764692
 40
0.8823529411764692
 40
0.8823529411764692
 40
0.8970588235294104
 40
0.8970588235294104
 40
0.8970588235294104
 40
0.8970588235294104
 40
0.9117647058823515
 40
0.9117647058823515
 40
0.9117647058823515
 40
0.9117647058823515
 40
0.9264705882352926
 40
0.9264705882352926
 40
0.9264705882352926
 40
0.9264705882352926
 40
0.9411764705882337
 40
0.9411764705882337
 40
0.9411764705882337
 40
0.9411764705882337
 40
0.9558823529411749
 40
0.9558823529411749
 40
0.9558823529411749
 40
0.9558823529411749
 40
0.970588235294116
 40
0.970588235294116
 40
0.970588235294116
 40
0.970588235294116
 40
0.9852941176470571
 40
0.9852941176470571
 40
0.9852941176470571
 40
0.9852941176470571
 40
1.0
 40
1.0
 40
1.0
 40
1.0
 10
-10.5
 20
-0.2
 30
0.0
 10
-10.5
 20
-0.2
 30
0.0
 10
-9.1
 20
-0.2
 30
0.0
 10
-9.1
 20
-0.2
 30
0.0
 10
-9.1
 20
-0.2
 30
0.0
 10
-9.1
 20
-0.2
 30
0.0
 10
-9.1
 20
0.0
 30
0.0
 10
-9.1
 20
0.0
 30
0.0
 10
-9.1
 20
0.0
 30
0.0
 10
-9.1
 20
0.0
 30
0.0
 10
-7.7
 20
0.0
 30
0.0
 10
-7.7
 20
0.0
 30
0.0
 10
-7.7
 20
0.0
 30
0.0
 10
-7.7
 20
0.0
 30
0.0
 10
-7.7
 20
-0.2
 30
0.0
 10
-7.7
 20
-0.2
 30
0.0
 10
-7.7
 20
-0.2
 30
0.0
 10
-7.7
 20
-0.2
 30
0.0
 10
-7.155
 20
-0.2
 30
0.0
 10
-7.155
 20
-0.2
 30
0.0
 10
-7.155
 20
-0.2
 30
0.0
 10
-7.155
 20
-0.2
 30
0.0
 10
-7.155
 20
-0.51
 30
0.0
 10
-7.155
 20
-0.51
 30
0.0
 10
-7.155
 20
-0.51
 30
0.0
 10
-7.155
 20
-0.51
 30
0.0
 10
-7.28
 20
-0.51
 30
0.0
 10
-7.28
 20
-0.51
 30
0.0
 10
-7.28
 20
-0.51
 30
0.0
 10
-7.28
 20
-0.51
 30
0.0
 10
-7.28
 20
-0.76
 30
0.0
 10
-7.28
 20
-0.76
 30
0.0
 10
-7.28
 20
-0.76
 30
0.0
 10
-7.28
 20
-0.76
 30
0.0
 10
-7.155
 20
-0.76
 30
0.0
 10
-7.155
 20
-0.76
 30
0.0
 10
-7.155
 20
-0.76
 30
0.0
 10
-7.155
 20
-0.76
 30
0.0
 10
-7.155
 20
-1.01
 30
0.0
 10
-7.155
 20
-1.01
 30
0.0
 10
-7.155
 20
-1.01
 30
0.0
 10
-7.155
 20
-1.01
 30
0.0
 10
-6.845
 20
-1.01
 30
0.0
 10
-6.845
 20
-1.01
 30
0.0
 10
-6.845
 20
-1.01
 30
0.0
 10
-6.845
 20
-1.01
 30
0.0
 10
-6.845
 20
-0.76
 30
0.0
 10
-6.845
 20
-0.76
 30
0.0
 10
-6.845
 20
-0.76
 30
0.0
 10
-6.845
 20
-0.76
 30
0.0
 10
-6.72
 20
-0.76
 30
0.0
 10
-6.72
 20
-0.76
 30
0.0
 10
-6.72
 20
-0.76
 30
0.0
 10
-6.72
 20
-0.76
 30
0.0
 10
-6.72
 20
-0.51
 30
0.0
 10
-6.72
 20
-0.51
 30
0.0
 10
-6.72
 20
-0.51
 30
0.0
 10
-6.72
 20
-0.51
 30
0.0
 10
-6.845
 20
-0.51
 30
0.0
 10
-6.845
 20
-0.51
 30
0.0
 10
-6.845
 20
-0.51
 30
0.0
 10
-6.845
 20
-0.51
 30
0.0
 10
-6.845
 20
-0.2
 30
0.0
 10
-6.845
 20
-0.2
 30
0.0
 10
-6.845
 20
-0.2
 30
0.0
 10
-6.845
 20
-0.2
 30
0.0
 10
-6.3
 20
-0.2
 30
0.0
 10
-6.3
 20
-0.2
 30
0.0
 10
-6.3
 20
-0.2
 30
0.0
 10
-6.3
 20
-0.2
 30
0.0
 10
-6.3
 20
0.0
 30
0.0
 10
-6.3
 20
0.0
 30
0.0
 10
-6.3
 20
0.0
 30
0.0
 10
-6.3
 20
0.0
 30
0.0
 10
-4.9
 20
0.0
 30
0.0
 10
-4.9
 20
0.0
 30
0.0
 10
-4.9
 20
0.0
 30
0.0
 10
-4.9
 20
0.0
 30
0.0
 10
-4.9
 20
-0.2
 30
0.0
 10
-4.9
 20
-0.2
 30
0.0
 10
-4.9
 20
-0.2
 30
0.0
 10
-4.9
 20
-0.2
 30
0.0
 10
-3.5
 20
-0.2
 30
0.0
 10
-3.5
 20
-0.2
 30
0.0
 10
-3.5
 20
-0.2
 30
0.0
 10
-3.5
 20
-0.2
 30
0.0
 10
-3.5
 20
-1.4
 30
0.0
 10
-3.5
 20
-1.4
 30
0.0
 10
-3.5
 20
-1.4
 30
0.0
 10
-3.5
 20
-1.4
 30
0.0
 10
-3.7
 20
-1.4
 30
0.0
 10
-3.7
 20
-1.4
 30
0.0
 10
-3.7
 20
-1.4
 30
0.0
 10
-3.7
 20
-1.4
 30
0.0
 10
-3.7
 20
-2.8
 30
0.0
 10
-3.7
 20
-2.8
 30
0.0
 10
-3.7
 20
-2.8
 30
0.0
 10
-3.7
 20
-2.8
 30
0.0
 10
-3.5
 20
-2.8
 30
0.0
 10
-3.5
 20
-2.8
 30
0.0
 10
-3.5
 20
-2.8
 30
0.0
 10
-3.5
 20
-2.8
 30
0.0
 10
-3.5
 20
-3.315
 30
0.0
 10
-3.5
 20
-3.315
 30
0.0
 10
-3.5
 20
-3.315
 30
0.0
 10
-3.5
 20
-3.315
 30
0.0
 10
-3.87
 20
-3.315
 30
0.0
 10
-3.87
 20
-3.315
 30
0.0
 10
-3.87
 20
-3.315
 30
0.0
 10
-3.87
 20
-3.315
 30
0.0
 10
-3.87
 20
-3.685
 30
0.0
 10
-3.87
 20
-3.685
 30
0.0
 10
-3.87
 20
-3.685
 30
0.0
 10
-3.87
 20
-3.685
 30
0.0
 10
-3.5
 20
-3.685
 30
0.0
 10
-3.5
 20
-3.685
 30
0.0
 10
-3.5
 20
-3.685
 30
0.0
 10
-3.5
 20
-3.685
 30
0.0
 10
-3.5
 20
-4.2
 30
0.0
 10
-3.5
 20
-4.2
 30
0.0
 10
-3.5
 20
-4.2
 30
0.0
 10
-3.5
 20
-4.2
 30
0.0
 10
-3.7
 20
-4.2
 30
0.0
 10
-3.7
 20
-4.2
 30
0.0
 10
-3.7
 20
-4.2
 30
0.0
 10
-3.7
 20
-4.2
 30
0.0
 10
-3.7
 20
-5.6
 30
0.0
 10
-3.7
 20
-5.6
 30
0.0
 10
-3.7
 20
-5.6
 30
0.0
 10
-3.7
 20
-5.6
 30
0.0
 10
-3.5
 20
-5.6
 30
0.0
 10
-3.5
 20
-5.6
 30
0.0
 10
-3.5
 20
-5.6
 30
0.0
 10
-3.5
 20
-5.6
 30
0.0
 10
-3.5
 20
-6.8
 30
0.0
 10
-3.5
 20
-6.8
 30
0.0
 10
-3.5
 20
-6.8
 30
0.0
 10
-3.5
 20
-6.8
 30
0.0
 10
-4.9
 20
-6.8
 30
0.0
 10
-4.9
 20
-6.8
 30
0.0
 10
-4.9
 20
-6.8
 30
0.0
 10
-4.9
 20
-6.8
 30
0.0
 10
-4.9
 20
-7.0
 30
0.0
 10
-4.9
 20
-7.0
 30
0.0
 10
-4.9
 20
-7.0
 30
0.0
 10
-4.9
 20
-7.0
 30
0.0
 10
-6.3
 20
-7.0
 30
0.0
 10
-6.3
 20
-7.0
 30
0.0
 10
-6.3
 20
-7.0
 30
0.0
 10
-6.3
 20
-7.0
 30
0.0
 10
-6.3
 20
-6.8
 30
0.0
 10
-6.3
 20
-6.8
 30
0.0
 10
-6.3
 20
-6.8
 30
0.0
 10
-6.3
 20
-6.8
 30
0.0
 10
-6.845
 20
-6.8
 30
0.0
 10
-6.845
 20
-6.8
 30
0.0
 10
-6.845
 20
-6.8
 30
0.0
 10
-6.845
 20
-6.8
 30
0.0
 10
-6.845
 20
-6.49
 30
0.0
 10
-6.845
 20
-6.49
 30
0.0
 10
-6.845
 20
-6.49
 30
0.0
 10
-6.845
 20
-6.49
 30
0.0
 10
-6.72
 20
-6.49
 30
0.0
 10
-6.72
 20
-6.49
 30
0.0
 10
-6.72
 20
-6.49
 30
0.0
 10
-6.72
 20
-6.49
 30
0.0
 10
-6.72
 20
-6.24
 30
0.0
 10
-6.72
 20
-6.24
 30
0.0
 10
-6.72
 20
-6.24
 30
0.0
 10
-6.72
 20
-6.24
 30
0.0
 10
-6.845
 20
-6.24
 30
0.0
 10
-6.845
 20
-6.24
 30
0.0
 10
-6.845
 20
-6.24
 30
0.0
 10
-6.845
 20
-6.24
 30
0.0
 10
-6.845
 20
-5.99
 30
0.0
 10
-6.845
 20
-5.99
 30
0.0
 10
-6.845
 20
-5.99
 30
0.0
 10
-6.845
 20
-5.99
 30
0.0
 10
-7.155
 20
-5.99
 30
0.0
 10
-7.155
 20
-5.99
 30
0.0
 10
-7.155
 20
-5.99
 30
0.0
 10
-7.155
 20
-5.99
 30
0.0
 10
-7.155
 20
-6.24
 30
0.0
 10
-7.155
 20
-6.24
 30
0.0
 10
-7.155
 20
-6.24
 30
0.0
 10
-7.155
 20
-6.24
 30
0.0
 10
-7.28
 20
-6.24
 30
0.0
 10
-7.28
 20
-6.24
 30
0.0
 10
-7.28
 20
-6.24
 30
0.0
 10
-7.28
 20
-6.24
 30
0.0
 10
-7.28
 20
-6.49
 30
0.0
 10
-7.28
 20
-6.49
 30
0.0
 10
-7.28
 20
-6.49
 30
0.0
 10
-7.28
 20
-6.49
 30
0.0
 10
-7.155
 20
-6.49
 30
0.0
 10
-7.155
 20
-6.49
 30
0.0
 10
-7.155
 20
-6.49
 30
0.0
 10
-7.155
 20
-6.49
 30
0.0
 10
-7.155
 20
-6.8
 30
0.0
 10
-7.155
 20
-6.8
 30
0.0
 10
-7.155
 20
-6.8
 30
0.0
 10
-7.155
 20
-6.8
 30
0.0
 10
-7.7
 20
-6.8
 30
0.0
 10
-7.7
 20
-6.8
 30
0.0
 10
-7.7
 20
-6.8
 30
0.0
 10
-7.7
 20
-6.8
 30
0.0
 10
-7.7
 20
-7.0
 30
0.0
 10
-7.7
 20
-7.0
 30
0.0
 10
-7.7
 20
-7.0
 30
0.0
 10
-7.7
 20
-7.0
 30
0.0
 10
-9.1
 20
-7.0
 30
0.0
 10
-9.1
 20
-7.0
 30
0.0
 10
-9.1
 20
-7.0
 30
0.0
 10
-9.1
 20
-7.0
 30
0.0
 10
-9.1
 20
-6.8
 30
0.0
 10
-9.1
 20
-6.8
 30
0.0
 10
-9.1
 20
-6.8
 30
0.0
 10
-9.1
 20
-6.8
 30
0.0
 10
-10.5
 20
-6.8
 30
0.0
 10
-10.5
 20
-6.8
 30
0.0
 10
-10.5
 20
-6.8
 30
0.0
 10
-10.5
 20
-6.8
 30
0.0
 10
-10.5
 20
-5.6
 30
0.0
 10
-10.5
 20
-5.6
 30
0.0
 10
-10.5
 20
-5.6
 30
0.0
 10
-10.5
 20
-5.6
 30
0.0
 10
-10.3
 20
-5.6
 30
0.0
 10
-10.3
 20
-5.6
 30
0.0
 10
-10.3
 20
-5.6
 30
0.0
 10
-10.3
 20
-5.6
 30
0.0
 10
-10.3
 20
-4.2
 30
0.0
 10
-10.3
 20
-4.2
 30
0.0
 10
-10.3
 20
-4.2
 30
0.0
 10
-10.3
 20
-4.2
 30
0.0
 10
-10.5
 20
-4.2
 30
0.0
 10
-10.5
 20
-4.2
 30
0.0
 10
-10.5
 20
-4.2
 30
0.0
 10
-10.5
 20
-4.2
 30
0.0
 10
-10.5
 20
-3.685
 30
0.0
 10
-10.5
 20
-3.685
 30
0.0
 10
-10.5
 20
-3.685
 30
0.0
 10
-10.5
 20
-3.685
 30
0.0
 10
-10.13
 20
-3.685
 30
0.0
 10
-10.13
 20
-3.685
 30
0.0
 10
-10.13
 20
-3.685
 30
0.0
 10
-10.13
 20
-3.685
 30
0.0
 10
-10.13
 20
-3.315
 30
0.0
 10
-10.13
 20
-3.315
 30
0.0
 10
-10.13
 20
-3.315
 30
0.0
 10
-10.13
 20
-3.315
 30
0.0
 10
-10.5
 20
-3.315
 30
0.0
 10
-10.5
 20
-3.315
 30
0.0
 10
-10.5
 20
-3.315
 30
0.0
 10
-10.5
 20
-3.315
 30
0.0
 10
-10.5
 20
-2.8
 30
0.0
 10
-10.5
 20
-2.8
 30
0.0
 10
-10.5
 20
-2.8
 30
0.0
 10
-10.5
 20
-2.8
 30
0.0
 10
-10.3
 20
-2.8
 30
0.0
 10
-10.3
 20
-2.8
 30
0.0
 10
-10.3
 20
-2.8
 30
0.0
 10
-10.3
 20
-2.8
 30
0.0
 10
-10.3
 20
-1.4
 30
0.0
 10
-10.3
 20
-1.4
 30
0.0
 10
-10.3
 20
-1.4
 30
0.0
 10
-10.3
 20
-1.4
 30
0.0
 10
-10.5
 20
-1.4
 30
0.0
 10
-10.5
 20
-1.4
 30
0.0
 10
-10.5
 20
-1.4
 30
0.0
 10
-10.5
 20
-1.4
 30
0.0
 10
-10.5
 20
-0.2
 30
0.0
 10
-10.5
 20
-0.2
 30
0.0
  0
SPLINE
  5
64
330
1F
100
AcDbEntity
  8
layer 1
370
    25
100
AcDbSpline
210
0.0
220
0.0
230
1.0
 70
    11
 71
     3
 72
   276
 73
   272
 74
     0
 42
0.0000000001
 43
0.0000000001
 40
0.0
 40
0.0
 40
0.0
 40
0.0
 40
0.0147058823529412
 40
0.0147058823529412
 40
0.0147058823529412
 40
0.0147058823529412
 40
0.0294117647058824
 40
0.0294117647058824
 40
0.0294117647058824
 40
0.0294117647058824
 40
0.0441176470588235
 40
0.0441176470588235
 40
0.0441176470588235
 40
0.0441176470588235
 40
0.0588235294117647
 40
0.0588235294117647
 40
0.0588235294117647
 40
0.0588235294117647
 40
0.0735294117647059
 40
0.0735294117647059
 40
0.0735294117647059
 40
0.0735294117647059
 40
0.0882352941176471
 40
0.0882352941176471
 40
0.0882352941176471
 40
0.0882352941176471
 40
0.1029411764705882
 40
0.1029411764705882
 40
0.1029411764705882
 40
0.1029411764705882
 40
0.1176470588235294
 40
0.1176470588235294
 40
0.1176470588235294
 40
0.1176470588235294
 40
0.1323529411764706
 40
0.1323529411764706
 40
0.1323529411764706
 40
0.1323529411764706
 40
0.1470588235294118
 40
0.1470588235294118
 40
0.1470588235294118
 40
0.1470588235294118
 40
0.1617647058823529
 40
0.1617647058823529
 40
0.1617647058823529
 40
0.1617647058823529
 40
0.1764705882352941
 40
0.1764705882352941
 40
0.1764705882352941
 40
0.1764705882352941
 40
0.1911764705882353
 40
0.1911764705882353
 40
0.1911764705882353
 40
0.1911764705882353
 40
0.2058823529411765
 40
0.2058823529411765
 40
0.2058823529411765
 40
0.2058823529411765
 40
0.2205882352941177
 40
0.2205882352941177
 40
0.2205882352941177
 40
0.2205882352941177
 40
0.2352941176470588
 40
0.2352941176470588
 40
0.2352941176470588
 40
0.2352941176470588
 40
0.25
 40
0.25
 40
0.25
 40
0.25
 40
0.2647058823529412
 40
0.2647058823529412
 40
0.2647058823529412
 40
0.2647058823529412
 40
0.2794117647058824
 40
0.2794117647058824
 40
0.2794117647058824
 40
0.2794117647058824
 40
0.2941176470588235
 40
0.2941176470588235
 40
0.2941176470588235
 40
0.2941176470588235
 40
0.3088235294117647
 40
0.3088235294117647
 40
0.3088235294117647
 40
0.3088235294117647
 40
0.3235294117647059
 40
0.3235294117647059
 40
0.3235294117647059
 40
0.3235294117647059
 40
0.3382352941176471
 40
0.3382352941176471
 40
0.3382352941176471
 40
0.3382352941176471
 40
0.3529411764705883
 40
0.3529411764705883
 40
0.3529411764705883
 40
0.3529411764705883
 40
0.3676470588235294
 40
0.3676470588235294
 40
0.3676470588235294
 40
0.3676470588235294
 40
0.3823529411764706
 40
0.3823529411764706
 40
0.3823529411764706
 40
0.3823529411764706
 40
0.3970588235294118
 40
0.3970588235294118
 40
0.3970588235294118
 40
0.3970588235294118
 40
0.411764705882353
 40
0.411764705882353
 40
0.411764705882353
 40
0.411764705882353
 40
0.4264705882352942
 40
0.4264705882352942
 40
0.4264705882352942
 40
0.4264705882352942
 40
0.4411764705882353
 40
0.4411764705882353
 40
0.4411764705882353
 40
0.4411764705882353
 40
0.4558823529411765
 40
0.4558823529411765
 40
0.4558823529411765
 40
0.4558823529411765
 40
0.4705882352941177
 40
0.4705882352941177
 40
0.4705882352941177
 40
0.4705882352941177
 40
0.4852941176470589
 40
0.4852941176470589
 40
0.4852941176470589
 40
0.4852941176470589
 40
0.5
 40
0.5
 40
0.5
 40
0.5
 40
0.5147058823529411
 40
0.5147058823529411
 40
0.5147058823529411
 40
0.5147058823529411
 40
0.5294117647058822
 40
0.5294117647058822
 40
0.5294117647058822
 40
0.5294117647058822
 40
0.5441176470588234
 40
0.5441176470588234
 40
0.5441176470588234
 40
0.5441176470588234
 40
0.5588235294117645
 40
0.5588235294117645
 40
0.5588235294117645
 40
0.5588235294117645
 40
0.5735294117647056
 40
0.5735294117647056
 40
0.5735294117647056
 40
0.5735294117647056
 40
0.5882352941176467
 40
0.5882352941176467
 40
0.5882352941176467
 40
0.5882352941176467
 40
0.6029411764705879
 40
0.6029411764705879
 40
0.6029411764705879
 40
0.6029411764705879
 40
0.617647058823529
 40
0.617647058823529
 40
0.617647058823529
 40
0.617647058823529
 40
0.6323529411764701
 40
0.6323529411764701
 40
0.6323529411764701
 40
0.6323529411764701
 40
0.6470588235294112
 40
0.6470588235294112
 40
0.6470588235294112
 40
0.6470588235294112
 40
0.6617647058823524
 40
0.6617647058823524
 40
0.6617647058823524
 40
0.6617647058823524
 40
0.6764705882352935
 40
0.6764705882352935
 40
0.6764705882352935
 40
0.6764705882352935
 40
0.6911764705882346
 40
0.6911764705882346
 40
0.6911764705882346
 40
0.6911764705882346
 40
0.7058823529411757
 40
0.7058823529411757
 40
0.7058823529411757
 40
0.7058823529411757
 40
0.7205882352941169
 40
0.7205882352941169
 40
0.7205882352941169
 40
0.7205882352941169
 40
0.735294117647058
 40
0.735294117647058
 40
0.735294117647058
 40
0.735294117647058
 40
0.7499999999999991
 40
0.7499999999999991
 40
0.7499999999999991
 40
0.7499999999999991
 40
0.7647058823529402
 40
0.7647058823529402
 40
0.7647058823529402
 40
0.7647058823529402
 40
0.7794117647058814
 40
0.7794117647058814
 40
0.7794117647058814
 40
0.7794117647058814
 40
0.7941176470588225
 40
0.7941176470588225
 40
0.7941176470588225
 40
0.7941176470588225
 40
0.8088235294117636
 40
0.8088235294117636
 40
0.8088235294117636
 40
0.8088235294117636
 40
0.8235294117647047
 40
0.8235294117647047
 40
0.8235294117647047
 40
0.8235294117647047
 40
0.8382352941176459
 40
0.8382352941176459
 40
0.8382352941176459
 40
0.8382352941176459
 40
0.852941176470587
 40
0.852941176470587
 40
0.852941176470587
 40
0.852941176470587
 40
0.8676470588235281
 40
0.8676470588235281
 40
0.8676470588235281
 40
0.8676470588235281
 40
0.8823529411764692
 40
0.8823529411764692
 40
0.8823529411764692
 40
0.8823529411764692
 40
0.8970588235294104
 40
0.8970588235294104
 40
0.8970588235294104
 40
0.8970588235294104
 40
0.9117647058823515
 40
0.9117647058823515
 40
0.9117647058823515
 40
0.9117647058823515
 40
0.9264705882352926
 40
0.9264705882352926
 40
0.9264705882352926
 40
0.9264705882352926
 40
0.9411764705882337
 40
0.9411764705882337
 40
0.9411764705882337
 40
0.9411764705882337
 40
0.9558823529411749
 40
0.9558823529411749
 40
0.9558823529411749
 40
0.9558823529411749
 40
0.970588235294116
 40
0.970588235294116
 40
0.970588235294116
 40
0.970588235294116
 40
0.9852941176470571
 40
0.9852941176470571
 40
0.9852941176470571
 40
0.9852941176470571
 40
1.0
 40
1.0
 40
1.0
 40
1.0
 10
-3.5
 20
-0.2
 30
0.0
 10
-3.5
 20
-0.2
 30
0.0
 10
-2.1
 20
-0.2
 30
0.0
 10
-2.1
 20
-0.2
 30
0.0
 10
-2.1
 20
-0.2
 30
0.0
 10
-2.1
 20
-0.2
 30
0.0
 10
-2.1
 20
0.0
 30
0.0
 10
-2.1
 20
0.0
 30
0.0
 10
-2.1
 20
0.0
 30
0.0
 10
-2.1
 20
0.0
 30
0.0
 10
-0.7
 20
0.0
 30
0.0
 10
-0.7
 20
0.0
 30
0.0
 10
-0.7
 20
0.0
 30
0.0
 10
-0.7
 20
0.0
 30
0.0
 10
-0.7
 20
-0.2
 30
0.0
 10
-0.7
 20
-0.2
 30
0.0
 10
-0.7
 20
-0.2
 30
0.0
 10
-0.7
 20
-0.2
 30
0.0
 10
-0.155
 20
-0.2
 30
0.0
 10
-0.155
 20
-0.2
 30
0.0
 10
-0.155
 20
-0.2
 30
0.0
 10
-0.155
 20
-0.2
 30
0.0
 10
-0.155
 20
-0.51
 30
0.0
 10
-0.155
 20
-0.51
 30
0.0
 10
-0.155
 20
-0.51
 30
0.0
 10
-0.155
 20
-0.51
 30
0.0
 10
-0.28
 20
-0.51
 30
0.0
 10
-0.28
 20
-0.51
 30
0.0
 10
-0.28
 20
-0.51
 30
0.0
 10
-0.28
 20
-0.51
 30
0.0
 10
-0.28
 20
-0.76
 30
0.0
 10
-0.28
 20
-0.76
 30
0.0
 10
-0.28
 20
-0.76
 30
0.0
 10
-0.28
 20
-0.76
 30
0.0
 10
-0.155
 20
-0.76
 30
0.0
 10
-0.155
 20
-0.76
 30
0.0
 10
-0.155
 20
-0.76
 30
0.0
 10
-0.155
 20
-0.76
 30
0.0
 10
-0.155
 20
-1.01
 30
0.0
 10
-0.155
 20
-1.01
 30
0.0
 10
-0.155
 20
-1.01
 30
0.0
 10
-0.155
 20
-1.01
 30
0.0
 10
0.155
 20
-1.01
 30
0.0
 10
0.155
 20
-1.01
 30
0.0
 10
0.155
 20
-1.01
 30
0.0
 10
0.155
 20
-1.01
 30
0.0
 10
0.155
 20
-0.76
 30
0.0
 10
0.155
 20
-0.76
 30
0.0
 10
0.155
 20
-0.76
 30
0.0
 10
0.155
 20
-0.76
 30
0.0
 10
0.28
 20
-0.76
 30
0.0
 10
0.28
 20
-0.76
 30
0.0
 10
0.28
 20
-0.76
 30
0.0
 10
0.28
 20
-0.76
 30
0.0
 10
0.28
 20
-0.51
 30
0.0
 10
0.28
 20
-0.51
 30
0.0
 10
0.28
 20
-0.51
 30
0.0
 10
0.28
 20
-0.51
 30
0.0
 10
0.155
 20
-0.51
 30
0.0
 10
0.155
 20
-0.51
 30
0.0
 10
0.155
 20
-0.51
 30
0.0
 10
0.155
 20
-0.51
 30
0.0
 10
0.155
 20
-0.2
 30
0.0
 10
0.155
 20
-0.2
 30
0.0
 10
0.155
 20
-0.2
 30
0.0
 10
0.155
 20
-0.2
 30
0.0
 10
0.7
 20
-0.2
 30
0.0
 10
0.7
 20
-0.2
 30
0.0
 10
0.7
 20
-0.2
 30
0.0
 10
0.7
 20
-0.2
 30
0.0
 10
0.7
 20
0.0
 30
0.0
 10
0.7
 20
0.0
 30
0.0
 10
0.7
 20
0.0
 30
0.0
 10
0.7
 20
0.0
 30
0.0
 10
2.1
 20
0.0
 30
0.0
 10
2.1
 20
0.0
 30
0.0
 10
2.1
 20
0.0
 30
0.0
 10
2.1
 20
0.0
 30
0.0
 10
2.1
 20
-0.2
 30
0.0
 10
2.1
 20
-0.2
 30
0.0
 10
2.1
 20
-0.2
 30
0.0
 10
2.1
 20
-0.2
 30
0.0
 10
3.5
 20
-0.2
 30
0.0
 10
3.5
 20
-0.2
 30
0.0
 10
3.5
 20
-0.2
 30
0.0
 10
3.5
 20
-0.2
 30
0.0
 10
3.5
 20
-1.4
 30
0.0
 10
3.5
 20
-1.4
 30
0.0
 10
3.5
 20
-1.4
 30
0.0
 10
3.5
 20
-1.4
 30
0.0
 10
3.3
 20
-1.4
 30
0.0
 10
3.3
 20
-1.4
 30
0.0
 10
3.3
 20
-1.4
 30
0.0
 10
3.3
 20
-1.4
 30
0.0
 10
3.3
 20
-2.8
 30
0.0
 10
3.3
 20
-2.8
 30
0.0
 10
3.3
 20
-2.8
 30
0.0
 10
3.3
 20
-2.8
 30
0.0
 10
3.5
 20
-2.8
 30
0.0
 10
3.5
 20
-2.8
 30
0.0
 10
3.5
 20
-2.8
 30
0.0
 10
3.5
 20
-2.8
 30
0.0
 10
3.5
 20
-3.315
 30
0.0
 10
3.5
 20
-3.315
 30
0.0
 10
3.5
 20
-3.315
 30
0.0
 10
3.5
 20
-3.315
 30
0.0
 10
3.13
 20
-3.315
 30
0.0
 10
3.13
 20
-3.315
 30
0.0
 10
3.13
 20
-3.315
 30
0.0
 10
3.13
 20
-3.315
 30
0.0
 10
3.13
 20
-3.685
 30
0.0
 10
3.13
 20
-3.685
 30
0.0
 10
3.13
 20
-3.685
 30
0.0
 10
3.13
 20
-3.685
 30
0.0
 10
3.5
 20
-3.685
 30
0.0
 10
3.5
 20
-3.685
 30
0.0
 10
3.5
 20
-3.685
 30
0.0
 10
3.5
 20
-3.685
 30
0.0
 10
3.5
 20
-4.2
 30
0.0
 10
3.5
 20
-4.2
 30
0.0
 10
3.5
 20
-4.2
 30
0.0
 10
3.5
 20
-4.2
 30
0.0
 10
3.3
 20
-4.2
 30
0.0
 10
3.3
 20
-4.2
 30
0.0
 10
3.3
 20
-4.2
 30
0.0
 10
3.3
 20
-4.2
 30
0.0
 10
3.3
 20
-5.6
 30
0.0
 10
3.3
 20
-5.6
 30
0.0
 10
3.3
 20
-5.6
 30
0.0
 10
3.3
 20
-5.6
 30
0.0
 10
3.5
 20
-5.6
 30
0.0
 10
3.5
 20
-5.6
 30
0.0
 10
3.5
 20
-5.6
 30
0.0
 10
3.5
 20
-5.6
 30
0.0
 10
3.5
 20
-6.8
 30
0.0
 10
3.5
 20
-6.8
 30
0.0
 10
3.5
 20
-6.8
 30
0.0
 10
3.5
 20
-6.8
 30
0.0
 10
2.1
 20
-6.8
 30
0.0
 10
2.1
 20
-6.8
 30
0.0
 10
2.1
 20
-6.8
 30
0.0
 10
2.1
 20
-6.8
 30
0.0
 10
2.1
 20
-7.0
 30
0.0
 10
2.1
 20
-7.0
 30
0.0
 10
2.1
 20
-7.0
 30
0.0
 10
2.1
 20
-7.0
 30
0.0
 10
0.7
 20
-7.0
 30
0.0
 10
0.7
 20
-7.0
 30
0.0
 10
0.7
 20
-7.0
 30
0.0
 10
0.7
 20
-7.0
 30
0.0
 10
0.7
 20
-6.8
 30
0.0
 10
0.7
 20
-6.8
 30
0.0
 10
0.7
 20
-6.8
 30
0.0
 10
0.7
 20
-6.8
 30
0.0
 10
0.155
 20
-6.8
 30
0.0
 10
0.155
 20
-6.8
 30
0.0
 10
0.155
 20
-6.8
 30
0.0
 10
0.155
 20
-6.8
 30
0.0
 10
0.155
 20
-6.49
 30
0.0
 10
0.155
 20
-6.49
 30
0.0
 10
0.155
 20
-6.49
 30
0.0
 10
0.155
 20
-6.49
 30
0.0
 10
0.28
 20
-6.49
 30
0.0
 10
0.28
 20
-6.49
 30
0.0
 10
0.28
 20
-6.49
 30
0.0
 10
0.28
 20
-6.49
 30
0.0
 10
0.28
 20
-6.24
 30
0.0
 10
0.28
 20
-6.24
 30
0.0
 10
0.28
 20
-6.24
 30
0.0
 10
0.28
 20
-6.24
 30
0.0
 10
0.155
 20
-6.24
 30
0.0
 10
0.155
 20
-6.24
 30
0.0
 10
0.155
 20
-6.24
 30
0.0
 10
0.155
 20
-6.24
 30
0.0
 10
0.155
 20
-5.99
 30
0.0
 10
0.155
 20
-5.99
 30
0.0
 10
0.155
 20
-5.99
 30
0.0
 10
0.155
 20
-5.99
 30
0.0
 10
-0.155
 20
-5.99
 30
0.0
 10
-0.155
 20
-5.99
 30
0.0
 10
-0.155
 20
-5.99
 30
0.0
 10
-0.155
 20
-5.99
 30
0.0
 10
-0.155
 20
-6.24
 30
0.0
 10
-0.155
 20
-6.24
 30
0.0
 10
-0.155
 20
-6.24
 30
0.0
 10
-0.155
 20
-6.24
 30
0.0
 10
-0.28
 20
-6.24
 30
0.0
 10
-0.28
 20
-6.24
 30
0.0
 10
-0.28
 20
-6.24
 30
0.0
 10
-0.28
 20
-6.24
 30
0.0
 10
-0.28
 20
-6.49
 30
0.0
 10
-0.28
 20
-6.49
 30
0.0
 10
-0.28
 20
-6.49
 30
0.0
 10
-0.28
 20
-6.49
 30
0.0
 10
-0.155
 20
-6.49
 30
0.0
 10
-0.155
 20
-6.49
 30
0.0
 10
-0.155
 20
-6.49
 30
0.0
 10
-0.155
 20
-6.49
 30
0.0
 10
-0.155
 20
-6.8
 30
0.0
 10
-0.155
 20
-6.8
 30
0.0
 10
-0.155
 20
-6.8
 30
0.0
 10
-0.155
 20
-6.8
 30
0.0
 10
-0.7
 20
-6.8
 30
0.0
 10
-0.7
 20
-6.8
 30
0.0
 10
-0.7
 20
-6.8
 30
0.0
 10
-0.7
 20
-6.8
 30
0.0
 10
-0.7
 20
-7.0
 30
0.0
 10
-0.7
 20
-7.0
 30
0.0
 10
-0.7
 20
-7.0
 30
0.0
 10
-0.7
 20
-7.0
 30
0.0
 10
-2.1
 20
-7.0
 30
0.0
 10
-2.1
 20
-7.0
 30
0.0
 10
-2.1
 20
-7.0
 30
0.0
 10
-2.1
 20
-7.0
 30
0.0
 10
-2.1
 20
-6.8
 30
0.0
 10
-2.1
 20
-6.8
 30
0.0
 10
-2.1
 20
-6.8
 30
0.0
 10
-2.1
 20
-6.8
 30
0.0
 10
-3.5
 20
-6.8
 30
0.0
 10
-3.5
 20
-6.8
 30
0.0
 10
-3.5
 20
-6.8
 30
0.0
 10
-3.5
 20
-6.8
 30
0.0
 10
-3.5
 20
-5.6
 30
0.0
 10
-3.5
 20
-5.6
 30
0.0
 10
-3.5
 20
-5.6
 30
0.0
 10
-3.5
 20
-5.6
 30
0.0
 10
-3.3
 20
-5.6
 30
0.0
 10
-3.3
 20
-5.6
 30
0.0
 10
-3.3
 20
-5.6
 30
0.0
 10
-3.3
 20
-5.6
 30
0.0
 10
-3.3
 20
-4.2
 30
0.0
 10
-3.3
 20
-4.2
 30
0.0
 10
-3.3
 20
-4.2
 30
0.0
 10
-3.3
 20
-4.2
 30
0.0
 10
-3.5
 20
-4.2
 30
0.0
 10
-3.5
 20
-4.2
 30
0.0
 10
-3.5
 20
-4.2
 30
0.0
 10
-3.5
 20
-4.2
 30
0.0
 10
-3.5
 20
-3.685
 30
0.0
 10
-3.5
 20
-3.685
 30
0.0
 10
-3.5
 20
-3.685
 30
0.0
 10
-3.5
 20
-3.685
 30
0.0
 10
-3.13
 20
-3.685
 30
0.0
 10
-3.13
 20
-3.685
 30
0.0
 10
-3.13
 20
-3.685
 30
0.0
 10
-3.13
 20
-3.685
 30
0.0
 10
-3.13
 20
-3.315
 30
0.0
 10
-3.13
 20
-3.315
 30
0.0
 10
-3.13
 20
-3.315
 30
0.0
 10
-3.13
 20
-3.315
 30
0.0
 10
-3.5
 20
-3.315
 30
0.0
 10
-3.5
 20
-3.315
 30
0.0
 10
-3.5
 20
-3.315
 30
0.0
 10
-3.5
 20
-3.315
 30
0.0
 10
-3.5
 20
-2.8
 30
0.0
 10
-3.5
 20
-2.8
 30
0.0
 10
-3.5
 20
-2.8
 30
0.0
 10
-3.5
 20
-2.8
 30
0.0
 10
-3.3
 20
-2.8
 30
0.0
 10
-3.3
 20
-2.8
 30
0.0
 10
-3.3
 20
-2.8
 30
0.0
 10
-3.3
 20
-2.8
 30
0.0
 10
-3.3
 20
-1.4
 30
0.0
 10
-3.3
 20
-1.4
 30
0.0
 10
-3.3
 20
-1.4
 30
0.0
 10
-3.3
 20
-1.4
 30
0.0
 10
-3.5
 20
-1.4
 30
0.0
 10
-3.5
 20
-1.4
 30
0.0
 10
-3.5
 20
-1.4
 30
0.0
 10
-3.5
 20
-1.4
 30
0.0
 10
-3.5
 20
-0.2
 30
0.0
 10
-3.5
 20
-0.2
 30
0.0
  0
SPLINE
  5
65
330
1F
100
AcDbEntity
  8
layer 1
 62
   250
100
AcDbSpline
210
0.0
220
0.0
230
1.0
 70
    11
 71
     3
 72
   116
 73
   112
 74
     0
 42
0.0000000001
 43
0.0000000001
 40
0.0
 40
0.0
 40
0.0
 40
0.0
 40
0.0357142857142857
 40
0.0357142857142857
 40
0.0357142857142857
 40
0.0357142857142857
 40
0.0714285714285714
 40
0.0714285714285714
 40
0.0714285714285714
 40
0.0714285714285714
 40
0.1071428571428571
 40
0.1071428571428571
 40
0.1071428571428571
 40
0.1071428571428571
 40
0.1428571428571428
 40
0.1428571428571428
 40
0.1428571428571428
 40
0.1428571428571428
 40
0.1785714285714285
 40
0.1785714285714285
 40
0.1785714285714285
 40
0.1785714285714285
 40
0.2142857142857142
 40
0.2142857142857142
 40
0.2142857142857142
 40
0.2142857142857142
 40
0.2499999999999999
 40
0.2499999999999999
 40
0.2499999999999999
 40
0.2499999999999999
 40
0.2857142857142856
 40
0.2857142857142856
 40
0.2857142857142856
 40
0.2857142857142856
 40
0.3214285714285713
 40
0.3214285714285713
 40
0.3214285714285713
 40
0.3214285714285713
 40
0.357142857142857
 40
0.357142857142857
 40
0.357142857142857
 40
0.357142857142857
 40
0.3928571428571427
 40
0.3928571428571427
 40
0.3928571428571427
 40
0.3928571428571427
 40
0.4285714285714284
 40
0.4285714285714284
 40
0.4285714285714284
 40
0.4285714285714284
 40
0.4642857142857141
 40
0.4642857142857141
 40
0.4642857142857141
 40
0.4642857142857141
 40
0.4999999999999998
 40
0.4999999999999998
 40
0.4999999999999998
 40
0.4999999999999998
 40
0.5357142857142856
 40
0.5357142857142856
 40
0.5357142857142856
 40
0.5357142857142856
 40
0.5714285714285713
 40
0.5714285714285713
 40
0.5714285714285713
 40
0.5714285714285713
 40
0.607142857142857
 40
0.607142857142857
 40
0.607142857142857
 40
0.607142857142857
 40
0.6428571428571427
 40
0.6428571428571427
 40
0.6428571428571427
 40
0.6428571428571427
 40
0.6785714285714284
 40
0.6785714285714284
 40
0.6785714285714284
 40
0.6785714285714284
 40
0.7142857142857141
 40
0.7142857142857141
 40
0.7142857142857141
 40
0.7142857142857141
 40
0.7499999999999998
 40
0.7499999999999998
 40
0.7499999999999998
 40
0.7499999999999998
 40
0.7857142857142855
 40
0.7857142857142855
 40
0.7857142857142855
 40
0.7857142857142855
 40
0.8214285714285712
 40
0.8214285714285712
 40
0.8214285714285712
 40
0.8214285714285712
 40
0.8571428571428569
 40
0.8571428571428569
 40
0.8571428571428569
 40
0.8571428571428569
 40
0.8928571428571426
 40
0.8928571428571426
 40
0.8928571428571426
 40
0.8928571428571426
 40
0.9285714285714283
 40
0.9285714285714283
 40
0.9285714285714283
 40
0.9285714285714283
 40
0.964285714285714
 40
0.964285714285714
 40
0.964285714285714
 40
0.964285714285714
 40
1.0
 40
1.0
 40
1.0
 40
1.0
 10
-6.41612
 20
7.16456
 30
0.0
 10
-6.41612
 20
7.03248
 30
0.0
 10
-6.45211
 20
6.92961
 30
0.0
 10
-6.52492
 20
6.85722
 30
0.0
 10
-6.52492
 20
6.85722
 30
0.0
 10
-6.59773
 20
6.7844
 30
0.0
 10
-6.68071
 20
6.74122
 30
0.0
 10
-6.77299
 20
6.7281
 30
0.0
 10
-6.77299
 20
6.7281
 30
0.0
 10
-6.77299
 20
6.7281
 30
0.0
 10
-6.47539
 20
5.99362
 30
0.0
 10
-6.47539
 20
5.99362
 30
0.0
 10
-6.47539
 20
5.99362
 30
0.0
 10
-6.46227
 20
5.96737
 30
0.0
 10
-6.44745
 20
5.94917
 30
0.0
 10
-6.43094
 20
5.93943
 30
0.0
 10
-6.43094
 20
5.93943
 30
0.0
 10
-6.41443
 20
5.92927
 30
0.0
 10
-6.39623
 20
5.92419
 30
0.0
 10
-6.37633
 20
5.92419
 30
0.0
 10
-6.37633
 20
5.92419
 30
0.0
 10
-6.37633
 20
5.92419
 30
0.0
 10
-6.31664
 20
5.92419
 30
0.0
 10
-6.31664
 20
5.92419
 30
0.0
 10
-6.31664
 20
5.92419
 30
0.0
 10
-6.31664
 20
5.92419
 30
0.0
 10
-6.31664
 20
5.86492
 30
0.0
 10
-6.31664
 20
5.86492
 30
0.0
 10
-6.31664
 20
5.86492
 30
0.0
 10
-6.31664
 20
5.86492
 30
0.0
 10
-6.59435
 20
5.86492
 30
0.0
 10
-6.59435
 20
5.86492
 30
0.0
 10
-6.59435
 20
5.86492
 30
0.0
 10
-6.59435
 20
5.86492
 30
0.0
 10
-6.92201
 20
6.71794
 30
0.0
 10
-6.92201
 20
6.71794
 30
0.0
 10
-6.92201
 20
6.71794
 30
0.0
 10
-6.92201
 20
6.71794
 30
0.0
 10
-7.15018
 20
6.71794
 30
0.0
 10
-7.15018
 20
6.71794
 30
0.0
 10
-7.15018
 20
6.71794
 30
0.0
 10
-7.15018
 20
6.71794
 30
0.0
 10
-7.15018
 20
6.00378
 30
0.0
 10
-7.15018
 20
6.00378
 30
0.0
 10
-7.15018
 20
6.00378
 30
0.0
 10
-7.15018
 20
5.97711
 30
0.0
 10
-7.14172
 20
5.95763
 30
0.0
 10
-7.12521
 20
5.94409
 30
0.0
 10
-7.12521
 20
5.94409
 30
0.0
 10
-7.1087
 20
5.93096
 30
0.0
 10
-7.08711
 20
5.92419
 30
0.0
 10
-7.06086
 20
5.92419
 30
0.0
 10
-7.06086
 20
5.92419
 30
0.0
 10
-7.06086
 20
5.92419
 30
0.0
 10
-7.00117
 20
5.92419
 30
0.0
 10
-7.00117
 20
5.92419
 30
0.0
 10
-7.00117
 20
5.92419
 30
0.0
 10
-7.00117
 20
5.92419
 30
0.0
 10
-7.00117
 20
5.86492
 30
0.0
 10
-7.00117
 20
5.86492
 30
0.0
 10
-7.00117
 20
5.86492
 30
0.0
 10
-7.00117
 20
5.86492
 30
0.0
 10
-7.45752
 20
5.86492
 30
0.0
 10
-7.45752
 20
5.86492
 30
0.0
 10
-7.45752
 20
5.86492
 30
0.0
 10
-7.45752
 20
5.86492
 30
0.0
 10
-7.45752
 20
5.92419
 30
0.0
 10
-7.45752
 20
5.92419
 30
0.0
 10
-7.45752
 20
5.92419
 30
0.0
 10
-7.45752
 20
5.92419
 30
0.0
 10
-7.39826
 20
5.92419
 30
0.0
 10
-7.39826
 20
5.92419
 30
0.0
 10
-7.39826
 20
5.92419
 30
0.0
 10
-7.36524
 20
5.92419
 30
0.0
 10
-7.34195
 20
5.93096
 30
0.0
 10
-7.32883
 20
5.94409
 30
0.0
 10
-7.32883
 20
5.94409
 30
0.0
 10
-7.31571
 20
5.95763
 30
0.0
 10
-7.30893
 20
5.97711
 30
0.0
 10
-7.30893
 20
6.00378
 30
0.0
 10
-7.30893
 20
6.00378
 30
0.0
 10
-7.30893
 20
6.00378
 30
0.0
 10
-7.30893
 20
7.42237
 30
0.0
 10
-7.30893
 20
7.42237
 30
0.0
 10
-7.30893
 20
7.42237
 30
0.0
 10
-7.30893
 20
7.44904
 30
0.0
 10
-7.31571
 20
7.46893
 30
0.0
 10
-7.32883
 20
7.48206
 30
0.0
 10
-7.32883
 20
7.48206
 30
0.0
 10
-7.34195
 20
7.49518
 30
0.0
 10
-7.36524
 20
7.50195
 30
0.0
 10
-7.39826
 20
7.50195
 30
0.0
 10
-7.39826
 20
7.50195
 30
0.0
 10
-7.39826
 20
7.50195
 30
0.0
 10
-7.45752
 20
7.50195
 30
0.0
 10
-7.45752
 20
7.50195
 30
0.0
 10
-7.45752
 20
7.50195
 30
0.0
 10
-7.45752
 20
7.50195
 30
0.0
 10
-7.45752
 20
7.56164
 30
0.0
 10
-7.45752
 20
7.56164
 30
0.0
 10
-7.45752
 20
7.56164
 30
0.0
 10
-7.45752
 20
7.56164
 30
0.0
 10
-6.89237
 20
7.56164
 30
0.0
 10
-6.89237
 20
7.56164
 30
0.0
 10
-6.89237
 20
7.56164
 30
0.0
 10
-6.73997
 20
7.56164
 30
0.0
 10
-6.62271
 20
7.5282
 30
0.0
 10
-6.54016
 20
7.46216
 30
0.0
 10
-6.54016
 20
7.46216
 30
0.0
 10
-6.45719
 20
7.39612
 30
0.0
 10
-6.41612
 20
7.29706
 30
0.0
 10
-6.41612
 20
7.16456
 30
0.0
  0
SPLINE
  5
66
330
1F
100
AcDbEntity
  8
layer 1
 62
   250
100
AcDbSpline
210
0.0
220
0.0
230
1.0
 70
    11
 71
     3
 72
    40
 73
    36
 74
     0
 42
0.0000000001
 43
0.0000000001
 40
0.0
 40
0.0
 40
0.0
 40
0.0
 40
0.1111111111111111
 40
0.1111111111111111
 40
0.1111111111111111
 40
0.1111111111111111
 40
0.2222222222222222
 40
0.2222222222222222
 40
0.2222222222222222
 40
0.2222222222222222
 40
0.3333333333333333
 40
0.3333333333333333
 40
0.3333333333333333
 40
0.3333333333333333
 40
0.4444444444444444
 40
0.4444444444444444
 40
0.4444444444444444
 40
0.4444444444444444
 40
0.5555555555555556
 40
0.5555555555555556
 40
0.5555555555555556
 40
0.5555555555555556
 40
0.6666666666666667
 40
0.6666666666666667
 40
0.6666666666666667
 40
0.6666666666666667
 40
0.7777777777777779
 40
0.7777777777777779
 40
0.7777777777777779
 40
0.7777777777777779
 40
0.8888888888888891
 40
0.8888888888888891
 40
0.8888888888888891
 40
0.8888888888888891
 40
1.0
 40
1.0
 40
1.0
 40
1.0
 10
-7.15018
 20
6.77763
 30
0.0
 10
-7.15018
 20
6.77763
 30
0.0
 10
-6.93174
 20
6.77763
 30
0.0
 10
-6.93174
 20
6.77763
 30
0.0
 10
-6.93174
 20
6.77763
 30
0.0
 10
-6.83268
 20
6.77763
 30
0.0
 10
-6.75013
 20
6.80726
 30
0.0
 10
-6.68367
 20
6.86695
 30
0.0
 10
-6.68367
 20
6.86695
 30
0.0
 10
-6.61763
 20
6.92664
 30
0.0
 10
-6.58461
 20
7.01893
 30
0.0
 10
-6.58461
 20
7.14466
 30
0.0
 10
-6.58461
 20
7.14466
 30
0.0
 10
-6.58461
 20
7.25727
 30
0.0
 10
-6.61424
 20
7.3449
 30
0.0
 10
-6.67393
 20
7.40755
 30
0.0
 10
-6.67393
 20
7.40755
 30
0.0
 10
-6.73362
 20
7.47063
 30
0.0
 10
-6.82591
 20
7.50195
 30
0.0
 10
-6.95164
 20
7.50195
 30
0.0
 10
-6.95164
 20
7.50195
 30
0.0
 10
-6.95164
 20
7.50195
 30
0.0
 10
-7.06086
 20
7.50195
 30
0.0
 10
-7.06086
 20
7.50195
 30
0.0
 10
-7.06086
 20
7.50195
 30
0.0
 10
-7.08711
 20
7.50195
 30
0.0
 10
-7.1087
 20
7.49518
 30
0.0
 10
-7.12521
 20
7.48206
 30
0.0
 10
-7.12521
 20
7.48206
 30
0.0
 10
-7.14172
 20
7.46893
 30
0.0
 10
-7.15018
 20
7.44904
 30
0.0
 10
-7.15018
 20
7.42237
 30
0.0
 10
-7.15018
 20
7.42237
 30
0.0
 10
-7.15018
 20
7.42237
 30
0.0
 10
-7.15018
 20
6.77763
 30
0.0
 10
-7.15018
 20
6.77763
 30
0.0
  0
SPLINE
  5
67
330
1F
100
AcDbEntity
  8
layer 1
 62
   250
100
AcDbSpline
210
0.0
220
0.0
230
1.0
 70
    11
 71
     3
 72
   144
 73
   140
 74
     0
 42
0.0000000001
 43
0.0000000001
 40
0.0
 40
0.0
 40
0.0
 40
0.0
 40
0.0285714285714286
 40
0.0285714285714286
 40
0.0285714285714286
 40
0.0285714285714286
 40
0.0571428571428571
 40
0.0571428571428571
 40
0.0571428571428571
 40
0.0571428571428571
 40
0.0857142857142857
 40
0.0857142857142857
 40
0.0857142857142857
 40
0.0857142857142857
 40
0.1142857142857143
 40
0.1142857142857143
 40
0.1142857142857143
 40
0.1142857142857143
 40
0.1428571428571428
 40
0.1428571428571428
 40
0.1428571428571428
 40
0.1428571428571428
 40
0.1714285714285714
 40
0.1714285714285714
 40
0.1714285714285714
 40
0.1714285714285714
 40
0.2
 40
0.2
 40
0.2
 40
0.2
 40
0.2285714285714286
 40
0.2285714285714286
 40
0.2285714285714286
 40
0.2285714285714286
 40
0.2571428571428572
 40
0.2571428571428572
 40
0.2571428571428572
 40
0.2571428571428572
 40
0.2857142857142858
 40
0.2857142857142858
 40
0.2857142857142858
 40
0.2857142857142858
 40
0.3142857142857143
 40
0.3142857142857143
 40
0.3142857142857143
 40
0.3142857142857143
 40
0.3428571428571429
 40
0.3428571428571429
 40
0.3428571428571429
 40
0.3428571428571429
 40
0.3714285714285715
 40
0.3714285714285715
 40
0.3714285714285715
 40
0.3714285714285715
 40
0.4000000000000001
 40
0.4000000000000001
 40
0.4000000000000001
 40
0.4000000000000001
 40
0.4285714285714287
 40
0.4285714285714287
 40
0.4285714285714287
 40
0.4285714285714287
 40
0.4571428571428572
 40
0.4571428571428572
 40
0.4571428571428572
 40
0.4571428571428572
 40
0.4857142857142858
 40
0.4857142857142858
 40
0.4857142857142858
 40
0.4857142857142858
 40
0.5142857142857143
 40
0.5142857142857143
 40
0.5142857142857143
 40
0.5142857142857143
 40
0.5428571428571429
 40
0.5428571428571429
 40
0.5428571428571429
 40
0.5428571428571429
 40
0.5714285714285715
 40
0.5714285714285715
 40
0.5714285714285715
 40
0.5714285714285715
 40
0.6000000000000001
 40
0.6000000000000001
 40
0.6000000000000001
 40
0.6000000000000001
 40
0.6285714285714287
 40
0.6285714285714287
 40
0.6285714285714287
 40
0.6285714285714287
 40
0.6571428571428573
 40
0.6571428571428573
 40
0.6571428571428573
 40
0.6571428571428573
 40
0.6857142857142858
 40
0.6857142857142858
 40
0.6857142857142858
 40
0.6857142857142858
 40
0.7142857142857144
 40
0.7142857142857144
 40
0.7142857142857144
 40
0.7142857142857144
 40
0.742857142857143
 40
0.742857142857143
 40
0.742857142857143
 40
0.742857142857143
 40
0.7714285714285716
 40
0.7714285714285716
 40
0.7714285714285716
 40
0.7714285714285716
 40
0.8000000000000002
 40
0.8000000000000002
 40
0.8000000000000002
 40
0.8000000000000002
 40
0.8285714285714287
 40
0.8285714285714287
 40
0.8285714285714287
 40
0.8285714285714287
 40
0.8571428571428573
 40
0.8571428571428573
 40
0.8571428571428573
 40
0.8571428571428573
 40
0.8857142857142859
 40
0.8857142857142859
 40
0.8857142857142859
 40
0.8857142857142859
 40
0.9142857142857145
 40
0.9142857142857145
 40
0.9142857142857145
 40
0.9142857142857145
 40
0.9428571428571431
 40
0.9428571428571431
 40
0.9428571428571431
 40
0.9428571428571431
 40
0.9714285714285716
 40
0.9714285714285716
 40
0.9714285714285716
 40
0.9714285714285716
 40
1.0
 40
1.0
 40
1.0
 40
1.0
 10
0.22022
 20
6.59411
 30
0.0
 10
0.22022
 20
6.59411
 30
0.0
 10
0.24011
 20
6.59411
 30
0.0
 10
0.24011
 20
6.59411
 30
0.0
 10
0.24011
 20
6.59411
 30
0.0
 10
0.24011
 20
6.59411
 30
0.0
 10
0.45813
 20
7.25874
 30
0.0
 10
0.45813
 20
7.25874
 30
0.0
 10
0.45813
 20
7.25874
 30
0.0
 10
0.47168
 20
7.29176
 30
0.0
 10
0.46998
 20
7.31843
 30
0.0
 10
0.45347
 20
7.33833
 30
0.0
 10
0.45347
 20
7.33833
 30
0.0
 10
0.43696
 20
7.35823
 30
0.0
 10
0.41537
 20
7.36796
 30
0.0
 10
0.3887
 20
7.36796
 30
0.0
 10
0.3887
 20
7.36796
 30
0.0
 10
0.3887
 20
7.36796
 30
0.0
 10
0.32944
 20
7.36796
 30
0.0
 10
0.32944
 20
7.36796
 30
0.0
 10
0.32944
 20
7.36796
 30
0.0
 10
0.32944
 20
7.36796
 30
0.0
 10
0.32944
 20
7.42765
 30
0.0
 10
0.32944
 20
7.42765
 30
0.0
 10
0.32944
 20
7.42765
 30
0.0
 10
0.32944
 20
7.42765
 30
0.0
 10
0.746
 20
7.42765
 30
0.0
 10
0.746
 20
7.42765
 30
0.0
 10
0.746
 20
7.42765
 30
0.0
 10
0.746
 20
7.42765
 30
0.0
 10
0.746
 20
7.36796
 30
0.0
 10
0.746
 20
7.36796
 30
0.0
 10
0.746
 20
7.36796
 30
0.0
 10
0.746
 20
7.36796
 30
0.0
 10
0.68631
 20
7.36796
 30
0.0
 10
0.68631
 20
7.36796
 30
0.0
 10
0.68631
 20
7.36796
 30
0.0
 10
0.66006
 20
7.36796
 30
0.0
 10
0.63339
 20
7.35823
 30
0.0
 10
0.60714
 20
7.33833
 30
0.0
 10
0.60714
 20
7.33833
 30
0.0
 10
0.58047
 20
7.31843
 30
0.0
 10
0.561
 20
7.29176
 30
0.0
 10
0.54745
 20
7.25874
 30
0.0
 10
0.54745
 20
7.25874
 30
0.0
 10
0.54745
 20
7.25874
 30
0.0
 10
0.21006
 20
6.27661
 30
0.0
 10
0.21006
 20
6.27661
 30
0.0
 10
0.21006
 20
6.27661
 30
0.0
 10
0.17704
 20
6.17755
 30
0.0
 10
0.13597
 20
6.09966
 30
0.0
 10
0.08602
 20
6.04335
 30
0.0
 10
0.08602
 20
6.04335
 30
0.0
 10
0.03649
 20
5.98705
 30
0.0
 10
-0.02786
 20
5.95911
 30
0.0
 10
-0.10744
 20
5.95911
 30
0.0
 10
-0.10744
 20
5.95911
 30
0.0
 10
-0.15359
 20
5.95911
 30
0.0
 10
-0.18999
 20
5.96758
 30
0.0
 10
-0.21624
 20
5.98409
 30
0.0
 10
-0.21624
 20
5.98409
 30
0.0
 10
-0.24291
 20
6.0006
 30
0.0
 10
-0.25603
 20
6.02515
 30
0.0
 10
-0.25603
 20
6.05817
 30
0.0
 10
-0.25603
 20
6.05817
 30
0.0
 10
-0.25603
 20
6.07807
 30
0.0
 10
-0.24799
 20
6.09796
 30
0.0
 10
-0.23148
 20
6.11786
 30
0.0
 10
-0.23148
 20
6.11786
 30
0.0
 10
-0.21455
 20
6.13776
 30
0.0
 10
-0.18999
 20
6.14749
 30
0.0
 10
-0.15697
 20
6.14749
 30
0.0
 10
-0.15697
 20
6.14749
 30
0.0
 10
-0.1303
 20
6.14749
 30
0.0
 10
-0.10406
 20
6.13437
 30
0.0
 10
-0.07739
 20
6.10812
 30
0.0
 10
-0.07739
 20
6.10812
 30
0.0
 10
-0.05114
 20
6.08823
 30
0.0
 10
-0.03124
 20
6.07807
 30
0.0
 10
-0.01812
 20
6.07807
 30
0.0
 10
-0.01812
 20
6.07807
 30
0.0
 10
0.00178
 20
6.07807
 30
0.0
 10
0.01829
 20
6.08145
 30
0.0
 10
0.03183
 20
6.08823
 30
0.0
 10
0.03183
 20
6.08823
 30
0.0
 10
0.04496
 20
6.09458
 30
0.0
 10
0.05469
 20
6.10812
 30
0.0
 10
0.06147
 20
6.1276
 30
0.0
 10
0.06147
 20
6.1276
 30
0.0
 10
0.08136
 20
6.16104
 30
0.0
 10
0.10126
 20
6.2021
 30
0.0
 10
0.12116
 20
6.25163
 30
0.0
 10
0.12116
 20
6.25163
 30
0.0
 10
0.14063
 20
6.30159
 30
0.0
 10
0.15714
 20
6.35281
 30
0.0
 10
0.17069
 20
6.40573
 30
0.0
 10
0.17069
 20
6.40573
 30
0.0
 10
0.17069
 20
6.40573
 30
0.0
 10
-0.16671
 20
7.27864
 30
0.0
 10
-0.16671
 20
7.27864
 30
0.0
 10
-0.16671
 20
7.27864
 30
0.0
 10
-0.17348
 20
7.30531
 30
0.0
 10
-0.1883
 20
7.32648
 30
0.0
 10
-0.21158
 20
7.34341
 30
0.0
 10
-0.21158
 20
7.34341
 30
0.0
 10
-0.23444
 20
7.35992
 30
0.0
 10
-0.25942
 20
7.36796
 30
0.0
 10
-0.28567
 20
7.36796
 30
0.0
 10
-0.28567
 20
7.36796
 30
0.0
 10
-0.28567
 20
7.36796
 30
0.0
 10
-0.32546
 20
7.36796
 30
0.0
 10
-0.32546
 20
7.36796
 30
0.0
 10
-0.32546
 20
7.36796
 30
0.0
 10
-0.32546
 20
7.36796
 30
0.0
 10
-0.32546
 20
7.42765
 30
0.0
 10
-0.32546
 20
7.42765
 30
0.0
 10
-0.32546
 20
7.42765
 30
0.0
 10
-0.32546
 20
7.42765
 30
0.0
 10
0.0911
 20
7.42765
 30
0.0
 10
0.0911
 20
7.42765
 30
0.0
 10
0.0911
 20
7.42765
 30
0.0
 10
0.0911
 20
7.42765
 30
0.0
 10
0.0911
 20
7.36796
 30
0.0
 10
0.0911
 20
7.36796
 30
0.0
 10
0.0911
 20
7.36796
 30
0.0
 10
0.0911
 20
7.36796
 30
0.0
 10
0.05131
 20
7.36796
 30
0.0
 10
0.05131
 20
7.36796
 30
0.0
 10
0.05131
 20
7.36796
 30
0.0
 10
0.02506
 20
7.36796
 30
0.0
 10
0.00516
 20
7.35992
 30
0.0
 10
-0.00796
 20
7.34341
 30
0.0
 10
-0.00796
 20
7.34341
 30
0.0
 10
-0.02108
 20
7.32648
 30
0.0
 10
-0.02447
 20
7.30192
 30
0.0
 10
-0.01812
 20
7.2689
 30
0.0
 10
-0.01812
 20
7.2689
 30
0.0
 10
-0.01812
 20
7.2689
 30
0.0
 10
0.22022
 20
6.59411
 30
0.0
 10
0.22022
 20
6.59411
 30
0.0
  0
SPLINE
  5
68
330
1F
100
AcDbEntity
  8
layer 1
 62
   250
100
AcDbSpline
210
0.0
220
0.0
230
1.0
 70
    11
 71
     3
 72
    68
 73
    64
 74
     0
 42
0.0000000001
 43
0.0000000001
 40
0.0
 40
0.0
 40
0.0
 40
0.0
 40
0.0625
 40
0.0625
 40
0.0625
 40
0.0625
 40
0.125
 40
0.125
 40
0.125
 40
0.125
 40
0.1875
 40
0.1875
 40
0.1875
 40
0.1875
 40
0.25
 40
0.25
 40
0.25
 40
0.25
 40
0.3125
 40
0.3125
 40
0.3125
 40
0.3125
 40
0.375
 40
0.375
 40
0.375
 40
0.375
 40
0.4375
 40
0.4375
 40
0.4375
 40
0.4375
 40
0.5
 40
0.5
 40
0.5
 40
0.5
 40
0.5625
 40
0.5625
 40
0.5625
 40
0.5625
 40
0.625
 40
0.625
 40
0.625
 40
0.625
 40
0.6875
 40
0.6875
 40
0.6875
 40
0.6875
 40
0.75
 40
0.75
 40
0.75
 40
0.75
 40
0.8125
 40
0.8125
 40
0.8125
 40
0.8125
 40
0.875
 40
0.875
 40
0.875
 40
0.875
 40
0.9375
 40
0.9375
 40
0.9375
 40
0.9375
 40
1.0
 40
1.0
 40
1.0
 40
1.0
 10
8.09519
 20
6.46675
 30
0.0
 10
8.09519
 20
6.46675
 30
0.0
 10
8.02577
 20
6.07982
 30
0.0
 10
8.02577
 20
6.07982
 30
0.0
 10
8.02577
 20
6.07982
 30
0.0
 10
8.02577
 20
6.07982
 30
0.0
 10
7.17233
 20
6.07982
 30
0.0
 10
7.17233
 20
6.07982
 30
0.0
 10
7.17233
 20
6.07982
 30
0.0
 10
7.17233
 20
6.07982
 30
0.0
 10
7.17233
 20
6.12935
 30
0.0
 10
7.17233
 20
6.12935
 30
0.0
 10
7.17233
 20
6.12935
 30
0.0
 10
7.17233
 20
6.12935
 30
0.0
 10
7.85728
 20
7.13138
 30
0.0
 10
7.85728
 20
7.13138
 30
0.0
 10
7.85728
 20
7.13138
 30
0.0
 10
7.85728
 20
7.13138
 30
0.0
 10
7.48983
 20
7.13138
 30
0.0
 10
7.48983
 20
7.13138
 30
0.0
 10
7.48983
 20
7.13138
 30
0.0
 10
7.43056
 20
7.13138
 30
0.0
 10
7.38103
 20
7.10979
 30
0.0
 10
7.34124
 20
7.06704
 30
0.0
 10
7.34124
 20
7.06704
 30
0.0
 10
7.30144
 20
7.02386
 30
0.0
 10
7.26842
 20
6.94935
 30
0.0
 10
7.24218
 20
6.84352
 30
0.0
 10
7.24218
 20
6.84352
 30
0.0
 10
7.24218
 20
6.84352
 30
0.0
 10
7.18249
 20
6.85368
 30
0.0
 10
7.18249
 20
6.85368
 30
0.0
 10
7.18249
 20
6.85368
 30
0.0
 10
7.18249
 20
6.85368
 30
0.0
 10
7.22228
 20
7.19107
 30
0.0
 10
7.22228
 20
7.19107
 30
0.0
 10
7.22228
 20
7.19107
 30
0.0
 10
7.22228
 20
7.19107
 30
0.0
 10
8.03593
 20
7.19107
 30
0.0
 10
8.03593
 20
7.19107
 30
0.0
 10
8.03593
 20
7.19107
 30
0.0
 10
8.03593
 20
7.19107
 30
0.0
 10
8.03593
 20
7.16102
 30
0.0
 10
8.03593
 20
7.16102
 30
0.0
 10
8.03593
 20
7.16102
 30
0.0
 10
8.03593
 20
7.16102
 30
0.0
 10
7.34124
 20
6.13909
 30
0.0
 10
7.34124
 20
6.13909
 30
0.0
 10
7.34124
 20
6.13909
 30
0.0
 10
7.34124
 20
6.13909
 30
0.0
 10
7.71843
 20
6.13909
 30
0.0
 10
7.71843
 20
6.13909
 30
0.0
 10
7.71843
 20
6.13909
 30
0.0
 10
7.80436
 20
6.13909
 30
0.0
 10
7.8721
 20
6.16576
 30
0.0
 10
7.92163
 20
6.21868
 30
0.0
 10
7.92163
 20
6.21868
 30
0.0
 10
7.97116
 20
6.27159
 30
0.0
 10
8.00926
 20
6.35753
 30
0.0
 10
8.03593
 20
6.47649
 30
0.0
 10
8.03593
 20
6.47649
 30
0.0
 10
8.03593
 20
6.47649
 30
0.0
 10
8.09519
 20
6.46675
 30
0.0
 10
8.09519
 20
6.46675
 30
0.0
  0
SPLINE
  5
69
330
1F
100
AcDbEntity
  8
layer 1
 62
   250
100
AcDbSpline
210
0.0
220
0.0
230
1.0
 70
    11
 71
     3
 72
    64
 73
    60
 74
     0
 42
0.0000000001
 43
0.0000000001
 40
0.0
 40
0.0
 40
0.0
 40
0.0
 40
0.0666666666666667
 40
0.0666666666666667
 40
0.0666666666666667
 40
0.0666666666666667
 40
0.1333333333333333
 40
0.1333333333333333
 40
0.1333333333333333
 40
0.1333333333333333
 40
0.2
 40
0.2
 40
0.2
 40
0.2
 40
0.2666666666666667
 40
0.2666666666666667
 40
0.2666666666666667
 40
0.2666666666666667
 40
0.3333333333333333
 40
0.3333333333333333
 40
0.3333333333333333
 40
0.3333333333333333
 40
0.4
 40
0.4
 40
0.4
 40
0.4
 40
0.4666666666666666
 40
0.4666666666666666
 40
0.4666666666666666
 40
0.4666666666666666
 40
0.5333333333333333
 40
0.5333333333333333
 40
0.5333333333333333
 40
0.5333333333333333
 40
0.6
 40
0.6
 40
0.6
 40
0.6
 40
0.6666666666666666
 40
0.6666666666666666
 40
0.6666666666666666
 40
0.6666666666666666
 40
0.7333333333333333
 40
0.7333333333333333
 40
0.7333333333333333
 40
0.7333333333333333
 40
0.7999999999999999
 40
0.7999999999999999
 40
0.7999999999999999
 40
0.7999999999999999
 40
0.8666666666666666
 40
0.8666666666666666
 40
0.8666666666666666
 40
0.8666666666666666
 40
0.9333333333333332
 40
0.9333333333333332
 40
0.9333333333333332
 40
0.9333333333333332
 40
1.0
 40
1.0
 40
1.0
 40
1.0
 10
7.42
 20
-7.39489
 30
0.0
 10
7.42
 20
-7.39489
 30
0.0
 10
7.65071
 20
-7.42325
 30
0.0
 10
7.65071
 20
-7.42325
 30
0.0
 10
7.65071
 20
-7.42325
 30
0.0
 10
7.61431
 20
-7.5583
 30
0.0
 10
7.547
 20
-7.66286
 30
0.0
 10
7.44878
 20
-7.73737
 30
0.0
 10
7.44878
 20
-7.73737
 30
0.0
 10
7.35015
 20
-7.81145
 30
0.0
 10
7.22442
 20
-7.8487
 30
0.0
 10
7.07159
 20
-7.8487
 30
0.0
 10
7.07159
 20
-7.8487
 30
0.0
 10
6.87898
 20
-7.8487
 30
0.0
 10
6.72615
 20
-7.78944
 30
0.0
 10
6.61355
 20
-7.6709
 30
0.0
 10
6.61355
 20
-7.6709
 30
0.0
 10
6.50052
 20
-7.55237
 30
0.0
 10
6.44421
 20
-7.386
 30
0.0
 10
6.44421
 20
-7.17179
 30
0.0
 10
6.44421
 20
-7.17179
 30
0.0
 10
6.44421
 20
-6.94997
 30
0.0
 10
6.50136
 20
-6.77809
 30
0.0
 10
6.61524
 20
-6.65575
 30
0.0
 10
6.61524
 20
-6.65575
 30
0.0
 10
6.72954
 20
-6.53341
 30
0.0
 10
6.87728
 20
-6.47202
 30
0.0
 10
7.05932
 20
-6.47202
 30
0.0
 10
7.05932
 20
-6.47202
 30
0.0
 10
7.23542
 20
-6.47202
 30
0.0
 10
7.37936
 20
-6.53214
 30
0.0
 10
7.49069
 20
-6.65194
 30
0.0
 10
7.49069
 20
-6.65194
 30
0.0
 10
7.60245
 20
-6.77174
 30
0.0
 10
7.65833
 20
-6.94065
 30
0.0
 10
7.65833
 20
-7.15782
 30
0.0
 10
7.65833
 20
-7.15782
 30
0.0
 10
7.65833
 20
-7.17137
 30
0.0
 10
7.65791
 20
-7.19127
 30
0.0
 10
7.65706
 20
-7.21751
 30
0.0
 10
7.65706
 20
-7.21751
 30
0.0
 10
7.65706
 20
-7.21751
 30
0.0
 10
6.67493
 20
-7.21751
 30
0.0
 10
6.67493
 20
-7.21751
 30
0.0
 10
6.67493
 20
-7.21751
 30
0.0
 10
6.68297
 20
-7.36229
 30
0.0
 10
6.72404
 20
-7.47321
 30
0.0
 10
6.7977
 20
-7.54983
 30
0.0
 10
6.7977
 20
-7.54983
 30
0.0
 10
6.87136
 20
-7.62688
 30
0.0
 10
6.9628
 20
-7.6654
 30
0.0
 10
7.07286
 20
-7.6654
 30
0.0
 10
7.07286
 20
-7.6654
 30
0.0
 10
7.15457
 20
-7.6654
 30
0.0
 10
7.22442
 20
-7.64381
 30
0.0
 10
7.28241
 20
-7.60063
 30
0.0
 10
7.28241
 20
-7.60063
 30
0.0
 10
7.34041
 20
-7.55787
 30
0.0
 10
7.38613
 20
-7.48929
 30
0.0
 10
7.42
 20
-7.39489
 30
0.0
  0
SPLINE
  5
6A
330
1F
100
AcDbEntity
  8
layer 1
 62
   250
100
AcDbSpline
210
0.0
220
0.0
230
1.0
 70
    11
 71
     3
 72
    24
 73
    20
 74
     0
 42
0.0000000001
 43
0.0000000001
 40
0.0
 40
0.0
 40
0.0
 40
0.0
 40
0.2
 40
0.2
 40
0.2
 40
0.2
 40
0.4
 40
0.4
 40
0.4
 40
0.4
 40
0.6000000000000001
 40
0.6000000000000001
 40
0.6000000000000001
 40
0.6000000000000001
 40
0.8
 40
0.8
 40
0.8
 40
0.8
 40
1.0
 40
1.0
 40
1.0
 40
1.0
 10
6.68721
 20
-7.03379
 30
0.0
 10
6.68721
 20
-7.03379
 30
0.0
 10
7.42254
 20
-7.03379
 30
0.0
 10
7.42254
 20
-7.03379
 30
0.0
 10
7.42254
 20
-7.03379
 30
0.0
 10
7.4128
 20
-6.9233
 30
0.0
 10
7.38444
 20
-6.8399
 30
0.0
 10
7.33829
 20
-6.78487
 30
0.0
 10
7.33829
 20
-6.78487
 30
0.0
 10
7.26717
 20
-6.69893
 30
0.0
 10
7.17489
 20
-6.65575
 30
0.0
 10
7.06186
 20
-6.65575
 30
0.0
 10
7.06186
 20
-6.65575
 30
0.0
 10
6.95941
 20
-6.65575
 30
0.0
 10
6.87305
 20
-6.69004
 30
0.0
 10
6.8032
 20
-6.75862
 30
0.0
 10
6.8032
 20
-6.75862
 30
0.0
 10
6.73335
 20
-6.8272
 30
0.0
 10
6.69483
 20
-6.91906
 30
0.0
 10
6.68721
 20
-7.03379
 30
0.0
  0
SPLINE
  5
6B
330
1F
100
AcDbEntity
  8
layer 1
 62
   250
100
AcDbSpline
210
0.0
220
0.0
230
1.0
 70
    11
 71
     3
 72
    44
 73
    40
 74
     0
 42
0.0000000001
 43
0.0000000001
 40
0.0
 40
0.0
 40
0.0
 40
0.0
 40
0.1
 40
0.1
 40
0.1
 40
0.1
 40
0.2
 40
0.2
 40
0.2
 40
0.2
 40
0.3
 40
0.3
 40
0.3
 40
0.3
 40
0.4
 40
0.4
 40
0.4
 40
0.4
 40
0.5
 40
0.5
 40
0.5
 40
0.5
 40
0.6
 40
0.6
 40
0.6
 40
0.6
 40
0.7
 40
0.7
 40
0.7
 40
0.7
 40
0.7999999999999999
 40
0.7999999999999999
 40
0.7999999999999999
 40
0.7999999999999999
 40
0.8999999999999999
 40
0.8999999999999999
 40
0.8999999999999999
 40
0.8999999999999999
 40
1.0
 40
1.0
 40
1.0
 40
1.0
 10
-0.54172
 20
-4.48929
 30
0.0
 10
-0.54172
 20
-4.48929
 30
0.0
 10
-0.54172
 20
-2.67107
 30
0.0
 10
-0.54172
 20
-2.67107
 30
0.0
 10
-0.54172
 20
-2.67107
 30
0.0
 10
-0.54172
 20
-2.67107
 30
0.0
 10
-0.29491
 20
-2.67107
 30
0.0
 10
-0.29491
 20
-2.67107
 30
0.0
 10
-0.29491
 20
-2.67107
 30
0.0
 10
-0.29491
 20
-2.67107
 30
0.0
 10
0.66013
 20
-4.09855
 30
0.0
 10
0.66013
 20
-4.09855
 30
0.0
 10
0.66013
 20
-4.09855
 30
0.0
 10
0.66013
 20
-4.09855
 30
0.0
 10
0.66013
 20
-2.67107
 30
0.0
 10
0.66013
 20
-2.67107
 30
0.0
 10
0.66013
 20
-2.67107
 30
0.0
 10
0.66013
 20
-2.67107
 30
0.0
 10
0.89084
 20
-2.67107
 30
0.0
 10
0.89084
 20
-2.67107
 30
0.0
 10
0.89084
 20
-2.67107
 30
0.0
 10
0.89084
 20
-2.67107
 30
0.0
 10
0.89084
 20
-4.48929
 30
0.0
 10
0.89084
 20
-4.48929
 30
0.0
 10
0.89084
 20
-4.48929
 30
0.0
 10
0.89084
 20
-4.48929
 30
0.0
 10
0.64404
 20
-4.48929
 30
0.0
 10
0.64404
 20
-4.48929
 30
0.0
 10
0.64404
 20
-4.48929
 30
0.0
 10
0.64404
 20
-4.48929
 30
0.0
 10
-0.311
 20
-3.06054
 30
0.0
 10
-0.311
 20
-3.06054
 30
0.0
 10
-0.311
 20
-3.06054
 30
0.0
 10
-0.311
 20
-3.06054
 30
0.0
 10
-0.311
 20
-4.48929
 30
0.0
 10
-0.311
 20
-4.48929
 30
0.0
 10
-0.311
 20
-4.48929
 30
0.0
 10
-0.311
 20
-4.48929
 30
0.0
 10
-0.54172
 20
-4.48929
 30
0.0
 10
-0.54172
 20
-4.48929
 30
0.0
  0
SPLINE
  5
6C
330
1F
100
AcDbEntity
  8
layer 1
 62
   250
100
AcDbSpline
210
0.0
220
0.0
230
1.0
 70
    11
 71
     3
 72
   120
 73
   116
 74
     0
 42
0.0000000001
 43
0.0000000001
 40
0.0
 40
0.0
 40
0.0
 40
0.0
 40
0.0344827586206897
 40
0.0344827586206897
 40
0.0344827586206897
 40
0.0344827586206897
 40
0.0689655172413793
 40
0.0689655172413793
 40
0.0689655172413793
 40
0.0689655172413793
 40
0.103448275862069
 40
0.103448275862069
 40
0.103448275862069
 40
0.103448275862069
 40
0.1379310344827586
 40
0.1379310344827586
 40
0.1379310344827586
 40
0.1379310344827586
 40
0.1724137931034483
 40
0.1724137931034483
 40
0.1724137931034483
 40
0.1724137931034483
 40
0.206896551724138
 40
0.206896551724138
 40
0.206896551724138
 40
0.206896551724138
 40
0.2413793103448276
 40
0.2413793103448276
 40
0.2413793103448276
 40
0.2413793103448276
 40
0.2758620689655173
 40
0.2758620689655173
 40
0.2758620689655173
 40
0.2758620689655173
 40
0.310344827586207
 40
0.310344827586207
 40
0.310344827586207
 40
0.310344827586207
 40
0.3448275862068966
 40
0.3448275862068966
 40
0.3448275862068966
 40
0.3448275862068966
 40
0.3793103448275863
 40
0.3793103448275863
 40
0.3793103448275863
 40
0.3793103448275863
 40
0.413793103448276
 40
0.413793103448276
 40
0.413793103448276
 40
0.413793103448276
 40
0.4482758620689656
 40
0.4482758620689656
 40
0.4482758620689656
 40
0.4482758620689656
 40
0.4827586206896553
 40
0.4827586206896553
 40
0.4827586206896553
 40
0.4827586206896553
 40
0.517241379310345
 40
0.517241379310345
 40
0.517241379310345
 40
0.517241379310345
 40
0.5517241379310346
 40
0.5517241379310346
 40
0.5517241379310346
 40
0.5517241379310346
 40
0.5862068965517242
 40
0.5862068965517242
 40
0.5862068965517242
 40
0.5862068965517242
 40
0.6206896551724138
 40
0.6206896551724138
 40
0.6206896551724138
 40
0.6206896551724138
 40
0.6551724137931034
 40
0.6551724137931034
 40
0.6551724137931034
 40
0.6551724137931034
 40
0.689655172413793
 40
0.689655172413793
 40
0.689655172413793
 40
0.689655172413793
 40
0.7241379310344827
 40
0.7241379310344827
 40
0.7241379310344827
 40
0.7241379310344827
 40
0.7586206896551723
 40
0.7586206896551723
 40
0.7586206896551723
 40
0.7586206896551723
 40
0.7931034482758619
 40
0.7931034482758619
 40
0.7931034482758619
 40
0.7931034482758619
 40
0.8275862068965515
 40
0.8275862068965515
 40
0.8275862068965515
 40
0.8275862068965515
 40
0.8620689655172411
 40
0.8620689655172411
 40
0.8620689655172411
 40
0.8620689655172411
 40
0.8965517241379307
 40
0.8965517241379307
 40
0.8965517241379307
 40
0.8965517241379307
 40
0.9310344827586203
 40
0.9310344827586203
 40
0.9310344827586203
 40
0.9310344827586203
 40
0.9655172413793099
 40
0.9655172413793099
 40
0.9655172413793099
 40
0.9655172413793099
 40
1.0
 40
1.0
 40
1.0
 40
1.0
 10
-6.47713
 20
-3.8538
 30
0.0
 10
-6.47713
 20
-3.8538
 30
0.0
 10
-6.47713
 20
-3.64087
 30
0.0
 10
-6.47713
 20
-3.64087
 30
0.0
 10
-6.47713
 20
-3.64087
 30
0.0
 10
-6.47713
 20
-3.64087
 30
0.0
 10
-5.70708
 20
-3.6396
 30
0.0
 10
-5.70708
 20
-3.6396
 30
0.0
 10
-5.70708
 20
-3.6396
 30
0.0
 10
-5.70708
 20
-3.6396
 30
0.0
 10
-5.70708
 20
-4.31397
 30
0.0
 10
-5.70708
 20
-4.31397
 30
0.0
 10
-5.70708
 20
-4.31397
 30
0.0
 10
-5.82519
 20
-4.40837
 30
0.0
 10
-5.94711
 20
-4.47907
 30
0.0
 10
-6.07284
 20
-4.5269
 30
0.0
 10
-6.07284
 20
-4.5269
 30
0.0
 10
-6.19857
 20
-4.57432
 30
0.0
 10
-6.32769
 20
-4.59802
 30
0.0
 10
-6.45977
 20
-4.59802
 30
0.0
 10
-6.45977
 20
-4.59802
 30
0.0
 10
-6.63842
 20
-4.59802
 30
0.0
 10
-6.80098
 20
-4.55992
 30
0.0
 10
-6.9466
 20
-4.4833
 30
0.0
 10
-6.9466
 20
-4.4833
 30
0.0
 10
-7.09265
 20
-4.4071
 30
0.0
 10
-7.20272
 20
-4.29619
 30
0.0
 10
-7.27723
 20
-4.15183
 30
0.0
 10
-7.27723
 20
-4.15183
 30
0.0
 10
-7.35173
 20
-4.00705
 30
0.0
 10
-7.38899
 20
-3.84534
 30
0.0
 10
-7.38899
 20
-3.66669
 30
0.0
 10
-7.38899
 20
-3.66669
 30
0.0
 10
-7.38899
 20
-3.48974
 30
0.0
 10
-7.35173
 20
-3.32464
 30
0.0
 10
-7.27765
 20
-3.17139
 30
0.0
 10
-7.27765
 20
-3.17139
 30
0.0
 10
-7.20399
 20
-3.01772
 30
0.0
 10
-7.09731
 20
-2.90384
 30
0.0
 10
-6.95846
 20
-2.82934
 30
0.0
 10
-6.95846
 20
-2.82934
 30
0.0
 10
-6.8196
 20
-2.75525
 30
0.0
 10
-6.65958
 20
-2.718
 30
0.0
 10
-6.4784
 20
-2.718
 30
0.0
 10
-6.4784
 20
-2.718
 30
0.0
 10
-6.34716
 20
-2.718
 30
0.0
 10
-6.22821
 20
-2.73917
 30
0.0
 10
-6.12195
 20
-2.78192
 30
0.0
 10
-6.12195
 20
-2.78192
 30
0.0
 10
-6.01569
 20
-2.82426
 30
0.0
 10
-5.9323
 20
-2.88352
 30
0.0
 10
-5.87218
 20
-2.95972
 30
0.0
 10
-5.87218
 20
-2.95972
 30
0.0
 10
-5.81165
 20
-3.03592
 30
0.0
 10
-5.76593
 20
-3.13498
 30
0.0
 10
-5.73418
 20
-3.25733
 30
0.0
 10
-5.73418
 20
-3.25733
 30
0.0
 10
-5.73418
 20
-3.25733
 30
0.0
 10
-5.95135
 20
-3.31702
 30
0.0
 10
-5.95135
 20
-3.31702
 30
0.0
 10
-5.95135
 20
-3.31702
 30
0.0
 10
-5.97886
 20
-3.22431
 30
0.0
 10
-6.01273
 20
-3.15149
 30
0.0
 10
-6.05295
 20
-3.09858
 30
0.0
 10
-6.05295
 20
-3.09858
 30
0.0
 10
-6.09359
 20
-3.04566
 30
0.0
 10
-6.15158
 20
-3.00333
 30
0.0
 10
-6.22694
 20
-2.97158
 30
0.0
 10
-6.22694
 20
-2.97158
 30
0.0
 10
-6.30187
 20
-2.93983
 30
0.0
 10
-6.38569
 20
-2.92374
 30
0.0
 10
-6.47713
 20
-2.92374
 30
0.0
 10
-6.47713
 20
-2.92374
 30
0.0
 10
-6.58719
 20
-2.92374
 30
0.0
 10
-6.68244
 20
-2.94067
 30
0.0
 10
-6.76245
 20
-2.97412
 30
0.0
 10
-6.76245
 20
-2.97412
 30
0.0
 10
-6.84289
 20
-3.00756
 30
0.0
 10
-6.90723
 20
-3.05159
 30
0.0
 10
-6.95676
 20
-3.1062
 30
0.0
 10
-6.95676
 20
-3.1062
 30
0.0
 10
-7.00587
 20
-3.16081
 30
0.0
 10
-7.04397
 20
-3.2205
 30
0.0
 10
-7.07149
 20
-3.28611
 30
0.0
 10
-7.07149
 20
-3.28611
 30
0.0
 10
-7.11763
 20
-3.3983
 30
0.0
 10
-7.14091
 20
-3.52022
 30
0.0
 10
-7.14091
 20
-3.65187
 30
0.0
 10
-7.14091
 20
-3.65187
 30
0.0
 10
-7.14091
 20
-3.81401
 30
0.0
 10
-7.11297
 20
-3.94948
 30
0.0
 10
-7.05709
 20
-4.0587
 30
0.0
 10
-7.05709
 20
-4.0587
 30
0.0
 10
-7.00121
 20
-4.16792
 30
0.0
 10
-6.91993
 20
-4.24877
 30
0.0
 10
-6.81325
 20
-4.30169
 30
0.0
 10
-6.81325
 20
-4.30169
 30
0.0
 10
-6.70657
 20
-4.35461
 30
0.0
 10
-6.59354
 20
-4.38128
 30
0.0
 10
-6.47374
 20
-4.38128
 30
0.0
 10
-6.47374
 20
-4.38128
 30
0.0
 10
-6.36918
 20
-4.38128
 30
0.0
 10
-6.26758
 20
-4.36096
 30
0.0
 10
-6.16852
 20
-4.32074
 30
0.0
 10
-6.16852
 20
-4.32074
 30
0.0
 10
-6.06903
 20
-4.28095
 30
0.0
 10
-5.9941
 20
-4.23819
 30
0.0
 10
-5.94288
 20
-4.19247
 30
0.0
 10
-5.94288
 20
-4.19247
 30
0.0
 10
-5.94288
 20
-4.19247
 30
0.0
 10
-5.94288
 20
-3.8538
 30
0.0
 10
-5.94288
 20
-3.8538
 30
0.0
 10
-5.94288
 20
-3.8538
 30
0.0
 10
-5.94288
 20
-3.8538
 30
0.0
 10
-6.47713
 20
-3.8538
 30
0.0
 10
-6.47713
 20
-3.8538
 30
0.0
  0
ENDSEC
  0
SECTION
  2
OBJECTS
  0
DICTIONARY
  5
C
330
0
100
AcDbDictionary
281
     1
  3
ACAD_GROUP
350
D
  3
ACAD_LAYOUT
350
1A
  3
ACAD_MLEADERSTYLE
350
6E
  3
ACAD_MLINESTYLE
350
17
  3
ACAD_PLOTSETTINGS
350
19
  3
ACAD_PLOTSTYLENAME
350
E
  3
ACAD_SCALELIST
350
3B
  3
ACAD_TABLESTYLE
350
6D
  3
ACAD_VISUALSTYLE
350
2A
  0
DICTIONARY
  5
D
102
{ACAD_REACTORS
330
C
102
}
330
C
100
AcDbDictionary
281
     1
  0
DICTIONARY
  5
1A
102
{ACAD_REACTORS
330
C
102
}
330
C
100
AcDbDictionary
281
     1
  3
Layout1
350
1E
  3
Layout2
350
26
  3
Model
350
22
  0
DICTIONARY
  5
6E
102
{ACAD_REACTORS
330
C
102
}
330
C
100
AcDbDictionary
281
     1
  0
DICTIONARY
  5
17
102
{ACAD_REACTORS
330
C
102
}
330
C
100
AcDbDictionary
281
     1
  3
Standard
350
18
  0
DICTIONARY
  5
19
102
{ACAD_REACTORS
330
C
102
}
330
C
100
AcDbDictionary
281
     1
  0
ACDBDICTIONARYWDFLT
  5
E
102
{ACAD_REACTORS
330
C
102
}
330
C
100
AcDbDictionary
281
     1
  3
Normal
350
F
100
AcDbDictionaryWithDefault
340
F
  0
DICTIONARY
  5
3B
102
{ACAD_REACTORS
330
C
102
}
330
C
100
AcDbDictionary
281
     1
  3
A0
350
3C
  3
A1
350
3D
  3
A2
350
3E
  3
A3
350
3F
  3
A4
350
40
  3
A5
350
41
  3
A6
350
42
  3
A7
350
43
  3
A8
350
44
  3
A9
350
45
  3
B0
350
46
  3
B1
350
47
  3
B2
350
48
  3
B3
350
49
  3
B4
350
4A
  3
B5
350
4B
  3
B6
350
4C
  3
B7
350
4D
  3
B8
350
4E
  3
B9
350
4F
  3
C0
350
50
  3
C1
350
51
  3
C2
350
52
  3
C3
350
53
  3
C4
350
54
  3
C5
350
55
  3
C6
350
56
  3
C7
350
57
  3
C8
350
58
  3
C9
350
59
  3
D0
350
5A
  3
D1
350
5B
  3
D2
350
5C
  0
DICTIONARY
  5
6D
102
{ACAD_REACTORS
330
C
102
}
330
C
100
AcDbDictionary
281
     1
  0
DICTIONARY
  5
2A
102
{ACAD_REACTORS
330
C
102
}
330
C
100
AcDbDictionary
281
     1
  3
2dWireframe
350
2F
  3
3D Hidden
350
31
  3
3dWireframe
350
30
  3
Basic
350
32
  3
Brighten
350
36
  3
ColorChange
350
3A
  3
Conceptual
350
34
  3
Dim
350
35
  3
Facepattern
350
39
  3
Flat
350
2B
  3
FlatWithEdges
350
2C
  3
Gouraud
350
2D
  3
GouraudWithEdges
350
2E
  3
Linepattern
350
38
  3
Realistic
350
33
  3
Thicken
350
37
  0
LAYOUT
  5
1E
102
{ACAD_REACTORS
330
1A
102
}
330
1A
100
AcDbPlotSettings
  1

  2
none_device
  4

  6

 40
0.0
 41
0.0
 42
0.0
 43
0.0
 44
0.0
 45
0.0
 46
0.0
 47
0.0
 48
0.0
 49
0.0
140
0.0
141
0.0
142
1.0
143
1.0
 70
   688
 72
     0
 73
     0
 74
     5
  7

 75
    16
 76
     0
 77
     2
 78
   300
147
1.0
148
0.0
149
0.0
100
AcDbLayout
  1
Layout1
 70
     1
 71
     1
 10
0.0
 20
0.0
 11
12.0
 21
9.0
 12
0.0
 22
0.0
 32
0.0
 14
1.000000000000000E+20
 24
1.000000000000000E+20
 34
1.000000000000000E+20
 15
-1.000000000000000E+20
 25
-1.000000000000000E+20
 35
-1.000000000000000E+20
146
0.0
 13
0.0
 23
0.0
 33
0.0
 16
1.0
 26
0.0
 36
0.0
 17
0.0
 27
1.0
 37
0.0
 76
     0
330
1B
  0
LAYOUT
  5
26
102
{ACAD_REACTORS
330
1A
102
}
330
1A
100
AcDbPlotSettings
  1

  2
none_device
  4

  6

 40
0.0
 41
0.0
 42
0.0
 43
0.0
 44
0.0
 45
0.0
 46
0.0
 47
0.0
 48
0.0
 49
0.0
140
0.0
141
0.0
142
1.0
143
1.0
 70
   688
 72
     0
 73
     0
 74
     5
  7

 75
    16
 76
     0
 77
     2
 78
   300
147
1.0
148
0.0
149
0.0
100
AcDbLayout
  1
Layout2
 70
     1
 71
     2
 10
0.0
 20
0.0
 11
0.0
 21
0.0
 12
0.0
 22
0.0
 32
0.0
 14
0.0
 24
0.0
 34
0.0
 15
0.0
 25
0.0
 35
0.0
146
0.0
 13
0.0
 23
0.0
 33
0.0
 16
1.0
 26
0.0
 36
0.0
 17
0.0
 27
1.0
 37
0.0
 76
     0
330
23
  0
LAYOUT
  5
22
102
{ACAD_REACTORS
330
1A
102
}
330
1A
100
AcDbPlotSettings
  1

  2
none_device
  4

  6

 40
0.0
 41
0.0
 42
0.0
 43
0.0
 44
0.0
 45
0.0
 46
0.0
 47
0.0
 48
0.0
 49
0.0
140
0.0
141
0.0
142
1.0
143
1.0
 70
  1712
 72
     0
 73
     0
 74
     0
  7

 75
     0
 76
     0
 77
     2
 78
   300
147
1.0
148
0.0
149
0.0
100
AcDbLayout
  1
Model
 70
     1
 71
     0
 10
0.0
 20
0.0
 11
12.0
 21
9.0
 12
0.0
 22
0.0
 32
0.0
 14
-10.5127
 24
-14.0127
 34
0.0
 15
10.5127
 25
14.0127
 35
0.0
146
0.0
 13
0.0
 23
0.0
 33
0.0
 16
1.0
 26
0.0
 36
0.0
 17
0.0
 27
1.0
 37
0.0
 76
     0
330
1F
331
29
  0
MLINESTYLE
  5
18
102
{ACAD_REACTORS
330
17
102
}
330
17
100
AcDbMlineStyle
  2
Standard
 70
     0
  3

 62
   256
 51
90.0
 52
90.0
 71
     2
 49
0.5
 62
   256
  6
BYLAYER
 49
-0.5
 62
   256
  6
BYLAYER
  0
ACDBPLACEHOLDER
  5
F
102
{ACAD_REACTORS
330
E
102
}
330
E
  0
SCALE
  5
3C
102
{ACAD_REACTORS
330
3B
102
}
330
3B
100
AcDbScale
 70
     0
300
1:1
140
1.0
141
1.0
290
     1
  0
SCALE
  5
3D
102
{ACAD_REACTORS
330
3B
102
}
330
3B
100
AcDbScale
 70
     0
300
1:2
140
1.0
141
2.0
290
     0
  0
SCALE
  5
3E
102
{ACAD_REACTORS
330
3B
102
}
330
3B
100
AcDbScale
 70
     0
300
1:4
140
1.0
141
4.0
290
     0
  0
SCALE
  5
3F
102
{ACAD_REACTORS
330
3B
102
}
330
3B
100
AcDbScale
 70
     0
300
1:5
140
1.0
141
5.0
290
     0
  0
SCALE
  5
40
102
{ACAD_REACTORS
330
3B
102
}
330
3B
100
AcDbScale
 70
     0
300
1:8
140
1.0
141
8.0
290
     0
  0
SCALE
  5
41
102
{ACAD_REACTORS
330
3B
102
}
330
3B
100
AcDbScale
 70
     0
300
1:10
140
1.0
141
10.0
290
     0
  0
SCALE
  5
42
102
{ACAD_REACTORS
330
3B
102
}
330
3B
100
AcDbScale
 70
     0
300
1:16
140
1.0
141
16.0
290
     0
  0
SCALE
  5
43
102
{ACAD_REACTORS
330
3B
102
}
330
3B
100
AcDbScale
 70
     0
300
1:20
140
1.0
141
20.0
290
     0
  0
SCALE
  5
44
102
{ACAD_REACTORS
330
3B
102
}
330
3B
100
AcDbScale
 70
     0
300
1:30
140
1.0
141
30.0
290
     0
  0
SCALE
  5
45
102
{ACAD_REACTORS
330
3B
102
}
330
3B
100
AcDbScale
 70
     0
300
1:40
140
1.0
141
40.0
290
     0
  0
SCALE
  5
46
102
{ACAD_REACTORS
330
3B
102
}
330
3B
100
AcDbScale
 70
     0
300
1:50
140
1.0
141
50.0
290
     0
  0
SCALE
  5
47
102
{ACAD_REACTORS
330
3B
102
}
330
3B
100
AcDbScale
 70
     0
300
1:100
140
1.0
141
100.0
290
     0
  0
SCALE
  5
48
102
{ACAD_REACTORS
330
3B
102
}
330
3B
100
AcDbScale
 70
     0
300
2:1
140
2.0
141
1.0
290
     0
  0
SCALE
  5
49
102
{ACAD_REACTORS
330
3B
102
}
330
3B
100
AcDbScale
 70
     0
300
4:1
140
4.0
141
1.0
290
     0
  0
SCALE
  5
4A
102
{ACAD_REACTORS
330
3B
102
}
330
3B
100
AcDbScale
 70
     0
300
8:1
140
8.0
141
1.0
290
     0
  0
SCALE
  5
4B
102
{ACAD_REACTORS
330
3B
102
}
330
3B
100
AcDbScale
 70
     0
300
10:1
140
10.0
141
1.0
290
     0
  0
SCALE
  5
4C
102
{ACAD_REACTORS
330
3B
102
}
330
3B
100
AcDbScale
 70
     0
300
100:1
140
100.0
141
1.0
290
     0
  0
SCALE
  5
4D
102
{ACAD_REACTORS
330
3B
102
}
330
3B
100
AcDbScale
 70
     0
300
1/128" = 1'-0"
140
0.0078125
141
12.0
290
     0
  0
SCALE
  5
4E
102
{ACAD_REACTORS
330
3B
102
}
330
3B
100
AcDbScale
 70
     0
300
1/64" = 1'-0"
140
0.015625
141
12.0
290
     0
  0
SCALE
  5
4F
102
{ACAD_REACTORS
330
3B
102
}
330
3B
100
AcDbScale
 70
     0
300
1/32" = 1'-0"
140
0.03125
141
12.0
290
     0
  0
SCALE
  5
50
102
{ACAD_REACTORS
330
3B
102
}
330
3B
100
AcDbScale
 70
     0
300
1/16" = 1'-0"
140
0.0625
141
12.0
290
     0
  0
SCALE
  5
51
102
{ACAD_REACTORS
330
3B
102
}
330
3B
100
AcDbScale
 70
     0
300
3/32" = 1'-0"
140
0.09375
141
12.0
290
     0
  0
SCALE
  5
52
102
{ACAD_REACTORS
330
3B
102
}
330
3B
100
AcDbScale
 70
     0
300
1/8" = 1'-0"
140
0.125
141
12.0
290
     0
  0
SCALE
  5
53
102
{ACAD_REACTORS
330
3B
102
}
330
3B
100
AcDbScale
 70
     0
300
3/16" = 1'-0"
140
0.1875
141
12.0
290
     0
  0
SCALE
  5
54
102
{ACAD_REACTORS
330
3B
102
}
330
3B
100
AcDbScale
 70
     0
300
1/4" = 1'-0"
140
0.25
141
12.0
290
     0
  0
SCALE
  5
55
102
{ACAD_REACTORS
330
3B
102
}
330
3B
100
AcDbScale
 70
     0
300
3/8" = 1'-0"
140
0.375
141
12.0
290
     0
  0
SCALE
  5
56
102
{ACAD_REACTORS
330
3B
102
}
330
3B
100
AcDbScale
 70
     0
300
1/2" = 1'-0"
140
0.5
141
12.0
290
     0
  0
SCALE
  5
57
102
{ACAD_REACTORS
330
3B
102
}
330
3B
100
AcDbScale
 70
     0
300
3/4" = 1'-0"
140
0.75
141
12.0
290
     0
  0
SCALE
  5
58
102
{ACAD_REACTORS
330
3B
102
}
330
3B
100
AcDbScale
 70
     0
300
1" = 1'-0"
140
1.0
141
12.0
290
     0
  0
SCALE
  5
59
102
{ACAD_REACTORS
330
3B
102
}
330
3B
100
AcDbScale
 70
     0
300
1-1/2" = 1'-0"
140
1.5
141
12.0
290
     0
  0
SCALE
  5
5A
102
{ACAD_REACTORS
330
3B
102
}
330
3B
100
AcDbScale
 70
     0
300
3" = 1'-0"
140
3.0
141
12.0
290
     0
  0
SCALE
  5
5B
102
{ACAD_REACTORS
330
3B
102
}
330
3B
100
AcDbScale
 70
     0
300
6" = 1'-0"
140
6.0
141
12.0
290
     0
  0
SCALE
  5
5C
102
{ACAD_REACTORS
330
3B
102
}
330
3B
100
AcDbScale
 70
     0
300
1'-0" = 1'-0"
140
12.0
141
12.0
290
     0
  0
VISUALSTYLE
  5
2F
102
{ACAD_REACTORS
330
2A
102
}
330
2A
100
AcDbVisualStyle
  2
2dWireframe
 70
     4
 71
     0
 72
     2
 73
     0
 90
        0
 40
-0.6
 41
-30.0
 62
     5
 63
     7
421
 16777215
 74
     1
 91
        4
 64
     7
 65
   257
 75
     1
175
     1
 42
1.0
 92
        0
 66
   257
 43
1.0
 76
     1
 77
     6
 78
     2
 67
     7
 79
     5
170
     0
171
     0
290
     0
174
     0
 93
        1
 44
0.0
173
     0
291
     0
 45
0.0
  0
VISUALSTYLE
  5
31
102
{ACAD_REACTORS
330
2A
102
}
330
2A
100
AcDbVisualStyle
  2
3D Hidden
 70
     6
 71
     1
 72
     2
 73
     2
 90
        0
 40
-0.6
 41
-30.0
 62
     5
 63
     7
421
 16777215
 74
     2
 91
        2
 64
     7
 65
   257
 75
     2
175
     1
 42
40.0
 92
        0
 66
   257
 43
1.0
 76
     1
 77
     6
 78
     2
 67
     7
 79
     3
170
     0
171
     0
290
     0
174
     0
 93
        1
 44
0.0
173
     0
291
     0
 45
0.0
  0
VISUALSTYLE
  5
30
102
{ACAD_REACTORS
330
2A
102
}
330
2A
100
AcDbVisualStyle
  2
3dWireframe
 70
     5
 71
     0
 72
     2
 73
     0
 90
        0
 40
-0.6
 41
-30.0
 62
     5
 63
     7
421
 16777215
 74
     1
 91
        4
 64
     7
 65
   257
 75
     1
175
     1
 42
1.0
 92
        0
 66
   257
 43
1.0
 76
     1
 77
     6
 78
     2
 67
     7
 79
     5
170
     0
171
     0
290
     0
174
     0
 93
        1
 44
0.0
173
     0
291
     0
 45
0.0
  0
VISUALSTYLE
  5
32
102
{ACAD_REACTORS
330
2A
102
}
330
2A
100
AcDbVisualStyle
  2
Basic
 70
     7
 71
     1
 72
     0
 73
     1
 90
        0
 40
-0.6
 41
-30.0
 62
     5
 63
     7
421
 16777215
 74
     0
 91
        4
 64
     7
 65
   257
 75
     1
175
     1
 42
1.0
 92
        8
 66
     7
 43
1.0
 76
     1
 77
     6
 78
     2
 67
     7
 79
     5
170
     0
171
     0
290
     0
174
     0
 93
        1
 44
0.0
173
     0
291
     1
 45
0.0
  0
VISUALSTYLE
  5
36
102
{ACAD_REACTORS
330
2A
102
}
330
2A
100
AcDbVisualStyle
  2
Brighten
 70
    12
 71
     2
 72
     2
 73
     0
 90
        0
 40
-0.6
 41
-30.0
 62
     5
 63
     7
421
 16777215
 74
     1
 91
        4
 64
     7
 65
   257
 75
     1
175
     1
 42
1.0
 92
        8
 66
     7
 43
1.0
 76
     1
 77
     6
 78
     2
 67
     7
 79
     5
170
     0
171
     0
290
     0
174
     0
 93
        1
 44
50.0
173
     0
291
     1
 45
0.0
  0
VISUALSTYLE
  5
3A
102
{ACAD_REACTORS
330
2A
102
}
330
2A
100
AcDbVisualStyle
  2
ColorChange
 70
    16
 71
     2
 72
     2
 73
     3
 90
        0
 40
-0.6
 41
-30.0
 62
     5
 63
     8
421
  8421504
 74
     1
 91
        4
 64
     7
 65
   257
 75
     1
175
     1
 42
1.0
 92
        8
 66
     8
424
  8421504
 43
1.0
 76
     1
 77
     6
 78
     2
 67
     7
 79
     5
170
     0
171
     0
290
     0
174
     0
 93
        1
 44
0.0
173
     0
291
     1
 45
0.0
  0
VISUALSTYLE
  5
34
102
{ACAD_REACTORS
330
2A
102
}
330
2A
100
AcDbVisualStyle
  2
Conceptual
 70
     9
 71
     3
 72
     2
 73
     0
 90
        0
 40
-0.6
 41
-30.0
 62
     5
 63
     7
421
 16777215
 74
     2
 91
        2
 64
     7
 65
   257
 75
     1
175
     1
 42
40.0
 92
        8
 66
     7
 43
1.0
 76
     1
 77
     6
 78
     2
 67
     7
 79
     3
170
     0
171
     0
290
     0
174
     0
 93
        1
 44
0.0
173
     0
291
     0
 45
0.0
  0
VISUALSTYLE
  5
35
102
{ACAD_REACTORS
330
2A
102
}
330
2A
100
AcDbVisualStyle
  2
Dim
 70
    11
 71
     2
 72
     2
 73
     0
 90
        0
 40
-0.6
 41
-30.0
 62
     5
 63
     7
421
 16777215
 74
     1
 91
        4
 64
     7
 65
   257
 75
     1
175
     1
 42
1.0
 92
        8
 66
     7
 43
1.0
 76
     1
 77
     6
 78
     2
 67
     7
 79
     5
170
     0
171
     0
290
     0
174
     0
 93
        1
 44
-50.0
173
     0
291
     1
 45
0.0
  0
VISUALSTYLE
  5
39
102
{ACAD_REACTORS
330
2A
102
}
330
2A
100
AcDbVisualStyle
  2
Facepattern
 70
    15
 71
     2
 72
     2
 73
     0
 90
        0
 40
-0.6
 41
-30.0
 62
     5
 63
     7
421
 16777215
 74
     1
 91
        4
 64
     7
 65
   257
 75
     1
175
     1
 42
1.0
 92
        8
 66
     7
 43
1.0
 76
     1
 77
     6
 78
     2
 67
     7
 79
     5
170
     0
171
     0
290
     0
174
     0
 93
        1
 44
0.0
173
     0
291
     1
 45
0.0
  0
VISUALSTYLE
  5
2B
102
{ACAD_REACTORS
330
2A
102
}
330
2A
100
AcDbVisualStyle
  2
Flat
 70
     0
 71
     2
 72
     1
 73
     1
 90
        2
 40
-0.6
 41
30.0
 62
     5
 63
     7
421
 16777215
 74
     0
 91
        4
 64
     7
 65
   257
 75
     1
175
     1
 42
1.0
 92
        8
 66
     7
 43
1.0
 76
     1
 77
     6
 78
     2
 67
     7
 79
     5
170
     0
171
     0
290
     0
174
     0
 93
       13
 44
0.0
173
     0
291
     1
 45
0.0
  0
VISUALSTYLE
  5
2C
102
{ACAD_REACTORS
330
2A
102
}
330
2A
100
AcDbVisualStyle
  2
FlatWithEdges
 70
     1
 71
     2
 72
     1
 73
     1
 90
        2
 40
-0.6
 41
30.0
 62
     5
 63
     7
421
 16777215
 74
     1
 91
        4
 64
     7
 65
   257
 75
     1
175
     1
 42
1.0
 92
        0
 66
   257
 43
1.0
 76
     1
 77
     6
 78
     2
 67
     7
 79
     5
170
     0
171
     0
290
     0
174
     0
 93
       13
 44
0.0
173
     0
291
     1
 45
0.0
  0
VISUALSTYLE
  5
2D
102
{ACAD_REACTORS
330
2A
102
}
330
2A
100
AcDbVisualStyle
  2
Gouraud
 70
     2
 71
     2
 72
     2
 73
     1
 90
        2
 40
-0.6
 41
30.0
 62
     5
 63
     7
421
 16777215
 74
     0
 91
        4
 64
     7
 65
   257
 75
     1
175
     1
 42
1.0
 92
        0
 66
     7
 43
1.0
 76
     1
 77
     6
 78
     2
 67
     7
 79
     5
170
     0
171
     0
290
     0
174
     0
 93
       13
 44
0.0
173
     0
291
     1
 45
0.0
  0
VISUALSTYLE
  5
2E
102
{ACAD_REACTORS
330
2A
102
}
330
2A
100
AcDbVisualStyle
  2
GouraudWithEdges
 70
     3
 71
     2
 72
     2
 73
     1
 90
        2
 40
-0.6
 41
30.0
 62
     5
 63
     7
421
 16777215
 74
     1
 91
        4
 64
     7
 65
   257
 75
     1
175
     1
 42
1.0
 92
        0
 66
   257
 43
1.0
 76
     1
 77
     6
 78
     2
 67
     7
 79
     5
170
     0
171
     0
290
     0
174
     0
 93
       13
 44
0.0
173
     0
291
     1
 45
0.0
  0
VISUALSTYLE
  5
38
102
{ACAD_REACTORS
330
2A
102
}
330
2A
100
AcDbVisualStyle
  2
Linepattern
 70
    14
 71
     2
 72
     2
 73
     0
 90
        0
 40
-0.6
 41
-30.0
 62
     5
 63
     7
421
 16777215
 74
     1
 91
        4
 64
     7
 65
   257
 75
     7
175
     7
 42
1.0
 92
        8
 66
     7
 43
1.0
 76
     1
 77
     6
 78
     2
 67
     7
 79
     5
170
     0
171
     0
290
     0
174
     0
 93
        1
 44
0.0
173
     0
291
     1
 45
0.0
  0
VISUALSTYLE
  5
33
102
{ACAD_REACTORS
330
2A
102
}
330
2A
100
AcDbVisualStyle
  2
Realistic
 70
     8
 71
     2
 72
     2
 73
     0
 90
        0
 40
-0.6
 41
-30.0
 62
     5
 63
     7
421
 16777215
 74
     1
 91
        0
 64
     7
 65
   257
 75
     1
175
     1
 42
1.0
 92
        8
 66
     8
424
  7895160
 43
1.0
 76
     1
 77
     6
 78
     2
 67
     7
 79
     5
170
     0
171
     0
290
     0
174
     0
 93
       13
 44
0.0
173
     0
291
     0
 45
0.0
  0
VISUALSTYLE
  5
37
102
{ACAD_REACTORS
330
2A
102
}
330
2A
100
AcDbVisualStyle
  2
Thicken
 70
    13
 71
     2
 72
     2
 73
     0
 90
        0
 40
-0.6
 41
-30.0
 62
     5
 63
     7
421
 16777215
 74
     1
 91
        4
 64
     7
 65
   257
 75
     1
175
     1
 42
1.0
 92
       12
 66
     7
 43
1.0
 76
     1
 77
     6
 78
     2
 67
     7
 79
     5
170
     0
171
     0
290
     0
174
     0
 93
        1
 44
0.0
173
     0
291
     1
 45
0.0
  0
ENDSEC
  0
EOF
